<svg id="Capa_1" enable-background="new 0 0 512 512" height="512" viewBox="0 0 512 512" width="512" xmlns="http://www.w3.org/2000/svg" xmlns:xlink="http://www.w3.org/1999/xlink"><linearGradient id="lg1"><stop offset="0" stop-color="#c5baeb"/><stop offset="1" stop-color="#e9e5f6"/></linearGradient><linearGradient id="SVGID_1_" gradientUnits="userSpaceOnUse" x1="447.97" x2="462.109" xlink:href="#lg1" y1="271.447" y2="246.958"/><linearGradient id="SVGID_2_" gradientUnits="userSpaceOnUse" x1="217.917" x2="232.056" xlink:href="#lg1" y1="433.51" y2="409.021"/><linearGradient id="SVGID_3_" gradientUnits="userSpaceOnUse" x1="133.725" x2="147.863" xlink:href="#lg1" y1="457.466" y2="432.977"/><linearGradient id="SVGID_4_" gradientUnits="userSpaceOnUse" x1="182.809" x2="171.53" xlink:href="#lg1" y1="141.486" y2="126.191"/><linearGradient id="SVGID_5_" gradientUnits="userSpaceOnUse" x1="429.689" x2="407.406" xlink:href="#lg1" y1="302.429" y2="272.211"/><linearGradient id="SVGID_6_" gradientUnits="userSpaceOnUse" x1="201.012" x2="321.638" y1="403.664" y2="186.651"><stop offset="0" stop-color="#c5baeb"/><stop offset=".1076" stop-color="#c8beeb"/><stop offset=".2143" stop-color="#d2caed"/><stop offset=".3036" stop-color="#dfdaef"/><stop offset=".6594" stop-color="#ddd8ef"/><stop offset=".8189" stop-color="#d7d1ee"/><stop offset=".9389" stop-color="#cdc4ec"/><stop offset="1" stop-color="#c5baeb"/></linearGradient><linearGradient id="SVGID_7_" gradientUnits="userSpaceOnUse" x1="259.853" x2="285.406" y1="391.236" y2="345.264"><stop offset="0" stop-color="#a42c4a"/><stop offset="1" stop-color="#ff433f"/></linearGradient><linearGradient id="SVGID_8_" gradientUnits="userSpaceOnUse" x1="171.078" x2="165.53" xlink:href="#lg1" y1="429.965" y2="412.324"/><linearGradient id="SVGID_9_" gradientUnits="userSpaceOnUse" x1="75.612" x2="72.683" xlink:href="#lg1" y1="194.867" y2="185.554"/><linearGradient id="lg2"><stop offset="0" stop-color="#594a8e"/><stop offset="1" stop-color="#a996eb"/></linearGradient><linearGradient id="SVGID_10_" gradientUnits="userSpaceOnUse" x1="396.867" x2="434.72" xlink:href="#lg2" y1="386.863" y2="318.763"/><linearGradient id="SVGID_11_" gradientUnits="userSpaceOnUse" x1="338.197" x2="323.843" xlink:href="#lg2" y1="348.242" y2="323.38"/><linearGradient id="SVGID_12_" gradientUnits="userSpaceOnUse" x1="311.009" x2="296.655" xlink:href="#lg2" y1="332.7" y2="307.839"/><linearGradient id="SVGID_13_" gradientUnits="userSpaceOnUse" x1="283.476" x2="269.122" xlink:href="#lg2" y1="317.041" y2="292.179"/><g><g><path d="m485.915 246.195.001-.003-15.377-8.795-.003.006-7.457-4.196c-15.874-9.17-36.086-5.142-47.231 9.413-10.843 14.16-6.764 34.625 8.68 43.545l18.177 10.387-.003.005 16.007 9.125.002-.004c3.735 2.133 8.593 1.928 13.909-1.142 11.779-6.8 21.328-25.045 21.328-40.751.001-8.999-3.138-15.205-8.033-17.59z" fill="url(#SVGID_1_)"/><ellipse cx="472.621" cy="276.1" fill="#d7d1eb" rx="32.742" ry="18.524" transform="matrix(.392 -.92 .92 .392 33.511 602.877)"/><ellipse cx="472.621" cy="276.099" fill="#a996eb" rx="23.519" ry="13.306" transform="matrix(.392 -.92 .92 .392 33.51 602.876)"/></g><g><path d="m255.862 408.258.001-.003-15.377-8.795-.003.006-7.457-4.196c-15.873-9.17-36.086-5.142-47.231 9.413-10.843 14.159-6.764 34.625 8.679 43.545l18.177 10.387-.003.005 16.007 9.125.002-.004c3.735 2.133 8.593 1.928 13.909-1.142 11.779-6.801 21.328-25.046 21.328-40.751.002-8.999-3.137-15.205-8.032-17.59z" fill="url(#SVGID_2_)"/><ellipse cx="242.568" cy="438.163" fill="#d7d1eb" rx="32.742" ry="18.524" transform="matrix(.392 -.92 .92 .392 -255.588 489.801)"/><path d="m257.888 429.317c0 11.281-6.859 24.387-15.32 29.272s-15.32-.3-15.32-11.582c0-11.281 6.859-24.387 15.32-29.272 8.461-4.884 15.32.301 15.32 11.582z" fill="#a996eb"/></g><g><path d="m171.67 432.213.002-.003-15.376-8.795-.003.006-7.457-4.197c-15.873-9.17-36.086-5.142-47.231 9.413-10.843 14.16-6.764 34.625 8.679 43.545l18.177 10.387-.003.006 16.007 9.124.002-.004c3.735 2.133 8.593 1.928 13.909-1.141 11.779-6.801 21.328-25.046 21.328-40.751 0-8.999-3.139-15.205-8.034-17.59z" fill="url(#SVGID_3_)"/><ellipse cx="158.376" cy="462.118" fill="#d7d1eb" rx="32.742" ry="18.524" transform="matrix(.392 -.92 .92 .392 -328.857 426.906)"/><ellipse cx="158.376" cy="462.118" fill="#a996eb" rx="23.519" ry="13.306" transform="matrix(.392 -.92 .92 .392 -328.857 426.907)"/></g><path d="m101.872 122.557v-8.75l78.214-36.866c2.711-1.278 5.877-1.146 8.472.352l22.605 13.051c4.745 2.74 5.81 9.129 2.21 13.259l-48.317 55.433z" fill="url(#SVGID_4_)"/><path d="m269.788 265.031v-17.286l154.523-72.834c5.356-2.525 11.61-2.265 16.738.696l44.659 25.784c9.374 5.412 11.478 18.036 4.366 26.196l-95.457 109.515z" fill="url(#SVGID_5_)"/><path d="m494.254 381.798-19.162-18.761c-7.716-28.292-26.293-52.391-51.69-67.054l-256.158-149.492c-5.057-2.919-10.437-5.023-15.96-6.34l-10.59-71.48c-1.089-7.347-5.473-13.795-11.905-17.508l-43.278-24.987c-3.552-2.051-7.991.513-7.991 4.614v99.912 67.988c0 25.79 8.256 50.903 23.558 71.663 23.99 32.545 54.447 59.779 89.461 79.995l220.935 129.156c21.189 12.234 47.296 12.234 68.485 0 19.827-11.447 32.041-32.602 32.041-55.497 0-15.883-6.396-31.097-17.746-42.209z" fill="url(#SVGID_6_)"/><path d="m494.254 381.798-3.472-3.4-26.658 15.391c-23.271 13.435-51.944 13.424-75.205-.029l-195.739-113.207-114.619-66.175c2.644 20.179 10.34 39.457 22.516 55.975 23.99 32.545 54.447 59.779 89.461 79.995l220.935 129.157c21.189 12.234 47.296 12.234 68.485 0 19.828-11.448 32.042-32.603 32.042-55.498 0-15.883-6.396-31.097-17.746-42.209z" fill="url(#SVGID_7_)"/><path d="m156.085 315.81-129.573 88.545c-6.773 4.628-6.389 14.742.715 18.843l38.329 22.129c11.023 6.364 24.161 7.971 36.393 4.451l189.092-54.415c5.567-1.602 9.401-6.696 9.401-12.489 0-4.643-2.477-8.933-6.498-11.254l-99.209-57.278c-12.094-6.982-27.12-6.412-38.65 1.468z" fill="url(#SVGID_8_)"/><path d="m77.591 130.622-75.134 51.344c-3.428 2.343-3.234 7.462.362 9.538l19.401 11.201c5.58 3.221 12.229 4.035 18.421 2.253l95.712-27.543c2.818-.811 4.759-3.389 4.759-6.321 0-2.35-1.254-4.522-3.289-5.697z" fill="url(#SVGID_9_)"/><g><path d="" fill="#ff959d"/><path d="m152.179 62.1c-1.088-7.347-5.472-13.795-11.905-17.508l-43.279-24.988c-1.829-1.056-3.89-.882-5.463.089l-10.646 6.147c1.427-.569 3.106-.542 4.624.335l43.279 24.987c6.432 3.714 10.816 10.162 11.905 17.508l15.958 107.718 11.485-6.571z" fill="#e9e5f6"/></g><path d="m448.611 377.047 26.203-14.98c-2.782-9.847-6.882-19.174-12.13-27.76l-29.129 16.663c-12.112 6.993-27.161 6.993-39.273-.001l-18.262-10.543c-7.202-4.158-16.411-1.69-20.567 5.512-4.158 7.201-1.69 16.409 5.511 20.567l18.262 10.542c10.701 6.178 22.695 9.267 34.693 9.267 11.995-.001 23.994-3.09 34.692-9.267z" fill="url(#SVGID_10_)"/><g><path d="m321.623 330.385c0 6.92 4.207 14.958 9.397 17.954s9.397-.184 9.397-7.104-4.207-14.958-9.397-17.954-9.397.185-9.397 7.104z" fill="url(#SVGID_11_)"/><g fill="#fff" opacity=".25"><path d="m329.248 322.488c-2.695-.87-4.975.036-6.322 2.307l12.851 24.554c2.286-.476 3.953-2.554 4.467-5.85z" opacity=".5"/><path d="m321.658 329.486c-.017.295-.035.589-.035.899 0 6.92 4.207 14.958 9.397 17.954.233.134.461.242.69.352z" opacity=".5"/></g></g><g><path d="m294.435 314.844c0 6.92 4.207 14.958 9.397 17.954s9.397-.184 9.397-7.104-4.207-14.958-9.397-17.954-9.397.185-9.397 7.104z" fill="url(#SVGID_12_)"/><g fill="#fff" opacity=".25"><path d="m302.06 306.947c-2.695-.87-4.975.036-6.322 2.307l12.851 24.554c2.286-.476 3.953-2.554 4.467-5.85z" opacity=".5"/><path d="m294.47 313.945c-.017.295-.035.589-.035.899 0 6.92 4.207 14.958 9.397 17.954.233.134.461.242.689.352z" opacity=".5"/></g></g><g><path d="m266.902 299.184c0 6.92 4.207 14.958 9.397 17.954s9.397-.184 9.397-7.104-4.207-14.958-9.397-17.954-9.397.185-9.397 7.104z" fill="url(#SVGID_13_)"/><g fill="#fff" opacity=".25"><path d="m274.526 291.287c-2.695-.87-4.975.036-6.322 2.307l12.851 24.554c2.286-.476 3.953-2.554 4.468-5.85z" opacity=".5"/><path d="m266.937 298.285c-.017.295-.035.589-.035.899 0 6.919 4.207 14.958 9.397 17.954.233.134.461.242.69.352z" opacity=".5"/></g></g><g fill="#fff" opacity=".25"><path d="m462.684 334.306-7.51 4.296-23.808 45.49c5.972-1.544 11.779-3.889 17.246-7.045l9.182-5.25 12.202-23.314c-2.105-4.909-4.544-9.648-7.312-14.177z" opacity=".5"/><path d="m433.555 350.969c-8.797 5.079-19.139 6.45-28.784 4.151l-14.212 27.154c7.539 2.687 15.448 4.039 23.36 4.039.831 0 1.661-.019 2.491-.048l19.041-36.382z" opacity=".5"/></g></g></svg>