<svg id="Layer_1" enable-background="new 0 0 511.991 511.991" height="512" viewBox="0 0 511.991 511.991" width="512" xmlns="http://www.w3.org/2000/svg"><g><g clip-rule="evenodd" fill-rule="evenodd"><path d="m335.944 101.111c23.65-33.935 53.033-68.706 110.13-85.428 8.985-2.632 18.456 2.469 21.204 11.419 20.865 67.958.42 124.097-19.441 171.443z" fill="#ffcdbe"/><path d="m326.093 112.424 111.894 97.434c2.759 2.402 6.268 3.688 9.851 3.688 1.133 0 2.272-.128 3.398-.391 4.69-1.091 8.571-4.366 10.434-8.807 9.726-23.185 20.553-50.492 25.936-81.205 6.077-34.673 4.119-67.528-5.987-100.442-5.134-16.725-22.964-26.331-39.76-21.412-60.32 17.665-92.467 54.294-118.22 91.247-4.38 6.283-3.322 14.857 2.454 19.888zm45.753.059c28.053-22.067 58.708-39.025 88.588-42.195 3.022 37.549-6.375 71.367-18.612 103.128z" fill="#8e8787"/><path d="m176.041 101.111c-23.65-33.935-53.032-68.706-110.13-85.428-8.985-2.632-18.456 2.469-21.204 11.419-20.865 67.958-.42 124.097 19.441 171.443z" fill="#ffdecf"/></g><path d="m305.813 336.341c60.425 72.046 146.555 98.338 165.333 71.505 22.133-31.629 34.85-68.53 34.85-107.903 0-98.548-79.668-181.61-187.245-205.285-20.06-4.415-92.8 146.462-12.938 241.683z" fill="#ffb454"/><path clip-rule="evenodd" d="m188.347 92.535c-25.753-36.953-57.899-73.582-118.22-91.247-16.796-4.919-34.626 4.687-39.759 21.412-10.106 32.914-12.064 65.77-5.987 100.442 5.383 30.713 16.21 58.021 25.936 81.205 1.862 4.44 5.743 7.716 10.434 8.807 1.126.263 2.266.391 3.398.391 3.583 0 7.092-1.285 9.851-3.688l111.894-97.434c5.774-5.03 6.833-13.604 2.453-19.888zm-118.184 80.882c-12.236-31.762-21.633-65.58-18.612-103.129 29.88 3.17 60.535 20.128 88.588 42.195z" fill="#9d9696" fill-rule="evenodd"/><path d="m5.995 299.942c0 58.536 28.11 111.606 73.479 150.014l98.613-60.543c2.226-1.366 4.056-3.289 5.31-5.579l67.264-122.847c15.203-17.196 28.238-36.297 38.755-56.797 16.991-33.117 26.957-68.564 29.622-105.356.103-1.418-.003-2.82-.288-4.173-20.06-4.415-41.089-6.768-62.754-6.768-137.851 0-250.001 95.125-250.001 212.049z" fill="#9d9696"/><path d="m318.75 94.661c-19.597-4.313-40.119-6.658-61.256-6.764v165.054c12.305-15.046 23.016-31.402 31.922-48.761 16.991-33.117 26.957-68.564 29.622-105.356.102-1.418-.003-2.82-.288-4.173z" fill="#8e8787"/><path d="m471.131 407.835c-28.573-23.336-63.707-41.972-102.737-54.128-42.021-13.087-69.011-46.869-75.665-90.371l-.59-3.853c-2.71-17.711-16.917-30.079-34.549-30.078-17.633.001-31.838 12.371-34.545 30.08l-.787 5.147c-6.583 43.046-37.332 76.71-78.788 90.054-38.611 12.427-73.348 31.281-101.51 54.725 43.836 61.431 124.873 102.578 215.533 102.578 91.432.002 170.044-41.854 213.638-104.154z" fill="#fff4f4"/><path d="m368.394 353.708c-42.021-13.087-69.011-46.869-75.665-90.371l-.59-3.853c-2.71-17.711-16.917-30.079-34.549-30.078-.032 0-.064 0-.097 0v282.584c91.432 0 170.043-41.856 213.638-104.156-28.573-23.335-63.706-41.971-102.737-54.126z" fill="#f6efea"/><path clip-rule="evenodd" d="m303.264 412.761c-12.952 0-24.061-8.045-28.593-19.4l15.47-21.766c4.044-5.69 4.451-12.578 1.103-18.672s-9.498-9.656-16.669-9.656h-34.163c-7.171 0-13.321 3.562-16.669 9.656-3.348 6.093-2.941 12.982 1.103 18.672l15.499 21.807c-4.513 11.394-15.642 19.473-28.622 19.473-8.284 0-15 6.716-15 15s6.716 15 15 15c18.27 0 34.671-8.116 45.82-20.919 11.148 12.737 27.505 20.804 45.721 20.804 8.284 0 15-6.716 15-15s-6.716-14.999-15-14.999z" fill="#2e2e2e" fill-rule="evenodd"/><circle clip-rule="evenodd" cx="137.994" cy="276.991" fill="#2e2e2e" fill-rule="evenodd" r="30"/><path d="m137.994 321.991c-24.813 0-45-20.187-45-45s20.187-45 45-45 45 20.187 45 45-20.187 45-45 45zm0-60c-8.271 0-15 6.729-15 15s6.729 15 15 15 15-6.729 15-15-6.729-15-15-15z" fill="#fff36c"/><circle clip-rule="evenodd" cx="376.994" cy="276.991" fill="#1a1a1a" fill-rule="evenodd" r="30"/><path d="m376.994 321.991c-24.813 0-45-20.187-45-45s20.187-45 45-45 45 20.187 45 45-20.187 45-45 45zm0-60c-8.271 0-15 6.729-15 15s6.729 15 15 15 15-6.729 15-15-6.729-15-15-15z" fill="#ffde46"/><path clip-rule="evenodd" d="m303.264 412.761c-12.952 0-24.061-8.045-28.593-19.4l15.47-21.766c4.044-5.69 4.451-12.578 1.103-18.672s-9.498-9.656-16.669-9.656h-17.081v78.746c.017-.019.033-.038.05-.057 11.148 12.737 27.505 20.804 45.721 20.804 8.284 0 15-6.716 15-15s-6.717-14.999-15.001-14.999z" fill="#1a1a1a" fill-rule="evenodd"/></g></svg>