<svg id="Capa_1" enable-background="new 0 0 512 512" height="512" viewBox="0 0 512 512" width="512" xmlns="http://www.w3.org/2000/svg"><g><g><path d="m399.291 465.418-66.621-33.311c-7.412-3.706-10.4-12.715-6.709-20.127 3.721-7.412 12.744-10.342 20.127-6.709l66.621 33.311c7.412 3.706 10.4 12.715 6.709 20.127-3.654 7.288-12.542 10.45-20.127 6.709z" fill="#32393f"/></g><g><path d="m436 392h-60.088c-8.291 0-15-6.709-15-15s6.709-15 15-15h60.088c8.291 0 15 6.709 15 15s-6.709 15-15 15z" fill="#32393f"/></g><g><path d="m92.582 458.709c-3.691-7.412-.703-16.421 6.709-20.127l66.621-33.311c7.412-3.662 16.406-.703 20.127 6.709 3.691 7.412.703 16.421-6.709 20.127l-66.621 33.311c-7.58 3.739-16.469.586-20.127-6.709z" fill="#474f54"/></g><g><path d="m136.088 392h-60.088c-8.291 0-15-6.709-15-15s6.709-15 15-15h60.088c8.291 0 15 6.709 15 15s-6.709 15-15 15z" fill="#474f54"/></g><g><path d="m0 120c0-66.167 53.833-120 120-120 66.174 0 120 53.826 120 120 0 65.566-51.357 118.271-117.598 120-65.046 1.697-122.402-50.414-122.402-120z" fill="#a3b1cc"/><path d="m30 120c0-50.119 40.898-90 90-90 49.149 0 90 39.931 90 90 0 49.216-38.233 88.513-88.015 90-54.244 0-91.985-41.371-91.985-90z" fill="#474f54"/></g><g><path d="m272 120c0-66.167 53.833-120 120-120 66.174 0 120 53.826 120 120 0 65.566-51.357 118.271-117.598 120-65.046 1.697-122.402-50.414-122.402-120z" fill="#707799"/><path d="m302 120c0-50.119 40.898-90 90-90 49.149 0 90 39.931 90 90 0 49.216-38.233 88.513-88.015 90-54.244 0-91.985-41.371-91.985-90z" fill="#32393f"/></g><g><path d="m289.691 497.088-22.705-19.614c1.846-2.183 4.014-5.772 4.014-10.474 0-8.276-6.738-15-15-15s-15 6.724-15 15c0 4.702 2.168 8.291 4.014 10.474l-22.705 19.614-89.414-100.195c-27.041-30.498-41.895-69.507-41.895-109.893 0-78.252 55.03-145.236 130.371-161.367 23.496-4.834 45.879-4.805 69.141-.029 70.529 15.086 130.488 77.937 130.488 161.396 0 40.386-14.854 79.395-41.865 109.849z" fill="#a3b1cc"/></g><path d="m290.512 125.604c-11.64-2.39-23.062-3.589-34.512-3.587v329.983c8.262 0 15 6.724 15 15 0 4.702-2.168 8.291-4.014 10.474l22.705 19.614 89.443-100.239c27.012-30.454 41.866-69.463 41.866-109.849 0-83.459-59.96-146.31-130.488-161.396z" fill="#707799"/><g id="Rat_4_"><g><circle cx="316" cy="317" fill="#29294d" r="15"/></g><g><circle cx="196" cy="317" fill="#32393f" r="15"/></g></g><circle cx="256" cy="467" fill="#474f54" r="45"/><path d="m301 467c0-24.853-20.147-45-45-45v90c24.853 0 45-20.147 45-45z" fill="#32393f"/></g></svg>