<svg height="512pt" viewBox="0 0 512.00082 512" width="512pt" xmlns="http://www.w3.org/2000/svg"><path d="m512 63.894531v-48.898437c0-4.5-2.101562-8.699219-5.402344-11.699219-3.597656-2.703125-8.101562-3.898437-12.597656-3-81.601562 16.199219-148.902344 77.5-173.5 156.398437-22.5-4.199218-55.199219-5.699218-64.5-5.699218s-42 1.5-64.5 5.699218c-24.597656-78.898437-91.898438-140.199218-173.5-156.398437-4.5-.898437-9 .296875-12.597656 3-3.300782 3-5.402344 7.199219-5.402344 11.699219v48.898437c0 84 46.601562 160.601563 120.101562 200.5-1.800781 25.199219-13.601562 50.101563-32.199218 70.5-20.101563 21.597657-30 51-27.601563 80.699219 4.800781 53.398438 53.800781 96.398438 110.199219 96.398438h171c56.398438 0 105.398438-43 110.199219-96.398438 2.402343-29.703125-7.5-59.101562-27.597657-80.699219-18.601562-20.398437-29.402343-45.300781-31.199218-70.5 73.496094-39.898437 119.097656-116.5 119.097656-200.5zm0 0" fill="#ececf1"/><path d="m392.898438 264.394531c1.800781 25.199219 12.601562 50.101563 31.199218 70.5 20.101563 21.597657 30 51 27.601563 80.699219-4.800781 53.398438-53.800781 96.398438-110.199219 96.398438h-85.5v-360.996094c9.300781 0 42 1.5 64.5 5.699218 24.597656-78.898437 91.898438-140.199218 173.5-156.398437 4.5-.902344 9 .296875 12.597656 3 3.300782 2.996094 5.402344 7.199219 5.402344 11.699219v48.898437c0 84-45.601562 160.601563-119.101562 200.5zm0 0" fill="#d3d3d8"/><path d="m330.984375 255.996094c0 8.28125-6.714844 15-15 15-8.28125 0-15-6.71875-15-15 0-8.285156 6.71875-15 15-15 8.285156 0 15 6.714844 15 15zm0 0" fill="#53433f"/><path d="m210.984375 255.996094c0 8.28125-6.714844 15-15 15-8.28125 0-14.996094-6.71875-14.996094-15 0-8.285156 6.714844-15 14.996094-15 8.285156 0 15 6.714844 15 15zm0 0" fill="#725d57"/><path d="m345.984375 330.996094c-7 0-13.269531-4.921875-14.691406-12.058594-1.625-8.128906 3.648437-16.023438 11.761719-17.648438l151-30c8.1875-1.6875 16.039062 3.644532 17.652343 11.761719 1.625 8.128907-3.648437 16.023438-11.761719 17.652344l-151 30c-.996093.203125-1.992187.292969-2.960937.292969zm0 0" fill="#babac0"/><path d="m497.011719 420.992188c-.964844 0-1.960938-.085938-2.957031-.292969l-151-29.996094c-8.113282-1.628906-13.386719-9.523437-11.761719-17.652344 1.609375-8.117187 9.460937-13.519531 17.648437-11.761719l151 30c8.117188 1.625 13.390625 9.519532 11.765625 17.648438-1.421875 7.132812-7.691406 12.054688-14.695312 12.054688zm0 0" fill="#babac0"/><path d="m166.015625 330.996094c-.96875 0-1.964844-.089844-2.960937-.292969l-150.996094-30c-8.117188-1.628906-13.390625-9.523437-11.765625-17.652344 1.613281-8.128906 9.363281-13.476562 17.652343-11.761719l151 30c8.113282 1.625 13.386719 9.519532 11.761719 17.648438-1.417969 7.136719-7.691406 12.058594-14.691406 12.058594zm0 0" fill="#d3d3d8"/><path d="m14.988281 420.992188c-7.003906 0-13.273437-4.921876-14.691406-12.054688-1.628906-8.128906 3.644531-16.023438 11.761719-17.648438l151-30c8.203125-1.730468 16.039062 3.644532 17.648437 11.761719 1.628907 8.128907-3.644531 16.023438-11.761719 17.652344l-151 29.996094c-.996093.207031-1.992187.292969-2.957031.292969zm0 0" fill="#d3d3d8"/><path d="m301 397.894531v38.101563c0 8.398437-6.597656 15-15 15h-60c-8.402344 0-15-6.601563-15-15v-38.101563l30-30h30zm0 0" fill="#ececf1"/><path d="m301 397.894531v38.101563c0 8.398437-6.597656 15-15 15h-30v-83.101563h15zm0 0" fill="#d3d3d8"/><path d="m300.101562 311.195312c-6.300781-19.199218-23.699218-31.800781-44.101562-31.800781-20.398438 0-37.800781 12.601563-44.097656 31.800781-1.800782 5.398438-.601563 11.398438 3.601562 15.296876l29.996094 30c2.699219 3.003906 6.601562 4.503906 10.5 4.503906 3.902344 0 7.800781-1.5 10.5-4.503906l30-30c4.199219-3.898438 5.402344-9.898438 3.601562-15.296876zm0 0" fill="#725d57"/><path d="m331 405.996094c0 8.398437-6.597656 14.996094-15 14.996094-24.601562 0-46.199219-11.699219-60-29.996094-13.800781 18.296875-35.398438 29.996094-60 29.996094-8.402344 0-15-6.597657-15-14.996094 0-8.402344 6.597656-15 15-15 24.902344 0 45-20.101563 45-45 0-8.402344 6.597656-15 15-15s15 6.597656 15 15c0 24.898437 20.097656 45 45 45 8.402344 0 15 6.597656 15 15zm0 0" fill="#725d57"/><g fill="#53433f"><path d="m331 405.996094c0 8.398437-6.597656 14.996094-15 14.996094-24.601562 0-46.199219-11.699219-60-29.996094v-60c8.402344 0 15 6.597656 15 15 0 24.898437 20.097656 45 45 45 8.402344 0 15 6.597656 15 15zm0 0"/><path d="m266.5 356.496094c-2.699219 3-6.597656 4.5-10.5 4.5v-81.601563c20.402344 0 37.800781 12.601563 44.101562 31.800781 1.800782 5.398438.597657 11.398438-3.601562 15.300782zm0 0"/></g></svg>