<svg id="Capa_1" enable-background="new 0 0 512.055 512.055" height="512" viewBox="0 0 512.055 512.055" width="512" xmlns="http://www.w3.org/2000/svg"><g><g><g><g><path d="m79.379 361.699h-64.351c-8.284 0-15-6.716-15-15s6.716-15 15-15h64.352c8.284 0 15 6.716 15 15s-6.717 15-15.001 15z" fill="#c6e2e7"/></g><g><path d="m88.555 425.363h-54.352c-8.284 0-15-6.716-15-15s6.716-15 15-15h54.352c8.284 0 15 6.716 15 15s-6.716 15-15 15z" fill="#c6e2e7"/></g></g><g><g><path d="m497.028 361.699h-64.352c-8.284 0-15-6.716-15-15s6.716-15 15-15h64.352c8.284 0 15 6.716 15 15s-6.716 15-15 15z" fill="#a8d3d8"/></g><g><path d="m477.852 425.363h-54.352c-8.284 0-15-6.716-15-15s6.716-15 15-15h54.352c8.284 0 15 6.716 15 15s-6.716 15-15 15z" fill="#a8d3d8"/></g></g></g><g><path d="m442.474 4.018c-25.136-12.168-59.99 3.342-103.6 46.096-27.033 26.504-54.46 61.442-70.83 89.656l32.802 11.636v158.574c9.681 3.867 19.926 5.802 30.437 5.802 14.632 0 29.774-3.738 44.589-11.18 26.087-13.104 48.213-36.361 62.305-65.486 14.421-29.809 27.757-81.305 32.431-125.23 6.462-60.736-3.004-97.701-28.134-109.868z" fill="#a8d3d8"/><path d="m205.798 151.407 35.886-15.574c-16.565-27.476-42.716-60.436-68.503-85.718-43.61-42.756-78.464-58.268-103.599-46.097-25.131 12.167-34.596 49.132-28.135 109.868 4.674 43.925 18.01 95.421 32.431 125.23 14.092 29.125 36.218 52.382 62.305 65.486 14.816 7.443 29.955 11.18 44.589 11.18 8.572 0 16.969-1.283 25.026-3.853z" fill="#c6e2e7"/></g><path d="m390.163 211.272c-17.415-23.324-37.302-41.888-59.108-55.175-24.107-14.69-49.351-22.138-75.027-22.138s-50.92 7.448-75.027 22.138c-21.807 13.287-41.693 31.851-59.108 55.175-33.54 44.919-53.563 102.795-53.563 154.816 0 43.487 13.714 78.311 40.76 103.503 23.56 21.945 56.853 36.054 98.954 41.935 15.795 2.203 31.77-2.552 43.839-13.053 1.458-1.269 2.841-2.604 4.146-4.001 1.306 1.397 2.688 2.733 4.146 4.001 10.132 8.815 23.015 13.582 36.231 13.582 2.528 0 5.071-.175 7.607-.529 42.102-5.881 75.395-19.99 98.954-41.935 27.046-25.193 40.76-60.017 40.76-103.503 0-52.021-20.024-109.897-53.564-154.816z" fill="#edf5ff"/><path d="m260.174 498.473c10.132 8.815 23.015 13.582 36.231 13.582 2.528 0 5.071-.175 7.607-.529 42.102-5.881 75.395-19.99 98.954-41.935 27.046-25.193 40.76-60.017 40.76-103.503 0-52.021-20.023-109.897-53.563-154.816-17.415-23.324-37.302-41.888-59.108-55.175-24.107-14.69-49.351-22.138-75.027-22.138v360.513c1.305 1.397 2.688 2.732 4.146 4.001z" fill="#c6e2e7"/><path d="m263.76 348.559h-15.465c-24.774 0-44.931 20.298-44.931 45.249 0 15.241 7.539 29.354 20.166 37.754l24.188 16.092c2.517 1.674 5.413 2.511 8.309 2.511s5.792-.837 8.309-2.511l24.188-16.091c12.628-8.4 20.167-22.514 20.167-37.755 0-24.951-20.157-45.249-44.931-45.249z" fill="#c6e2e7"/><g><g><path d="m159.252 362.651c7.846 0 15.363-6.899 15-15-.364-8.127-6.591-15-15-15-7.846 0-15.363 6.899-15 15 .364 8.127 6.591 15 15 15z" fill="#4c6565"/></g></g><g><g><path d="m352.803 362.651c7.846 0 15.363-6.899 15-15-.364-8.127-6.591-15-15-15-7.846 0-15.363 6.899-15 15 .364 8.127 6.59 15 15 15z" fill="#36414d"/></g></g><path d="m263.76 348.559h-7.732v101.606c2.896 0 5.792-.837 8.309-2.511l24.188-16.091c12.628-8.4 20.167-22.514 20.167-37.755-.001-24.951-20.158-45.249-44.932-45.249z" fill="#a8d3d8"/></g></svg>