<svg id="Layer_1" enable-background="new 0 0 512 512" height="512" viewBox="0 0 512 512" width="512" xmlns="http://www.w3.org/2000/svg"><g><g><path clip-rule="evenodd" d="m112.312 39.423 123.369 67.599-147.667 89.142-2.349-140.655c-.11-6.591 3.052-12.304 8.695-15.71 5.643-3.407 12.171-3.544 17.952-.376z" fill="#ffdecf" fill-rule="evenodd"/></g><g><path d="m88.014 211.164c-2.499 0-5-.624-7.263-1.876-4.695-2.599-7.645-7.508-7.734-12.874l-2.35-140.655c-.198-11.891 5.761-22.658 15.941-28.803 10.177-6.146 22.481-6.403 32.91-.689 0 0 0 .001.001.001l123.369 67.6c4.706 2.578 7.676 7.476 7.789 12.841s-2.65 10.382-7.245 13.155l-147.666 89.142c-2.38 1.436-5.065 2.158-7.752 2.158zm15.63-159.021c-.494 0-.982.165-1.53.496-1.065.643-1.472 1.377-1.451 2.619l1.914 114.593 103.037-62.2-100.51-55.074.001.001c-.528-.289-.997-.435-1.461-.435z" fill="#f6efea"/></g><g><path clip-rule="evenodd" d="m399.689 39.423-123.369 67.599 147.666 89.142 2.349-140.655c.11-6.591-3.052-12.304-8.695-15.71-5.642-3.407-12.171-3.544-17.951-.376z" fill="#ffcdbe" fill-rule="evenodd"/></g><g><path d="m423.987 211.164c-2.688 0-5.372-.722-7.752-2.158l-147.666-89.142c-4.594-2.773-7.357-7.79-7.245-13.155s3.083-10.263 7.789-12.841l123.369-67.6s0 0 0-.001c10.429-5.714 22.732-5.456 32.913.69 10.178 6.145 16.137 16.911 15.939 28.801l-2.349 140.655c-.09 5.366-3.039 10.275-7.734 12.874-2.264 1.253-4.766 1.877-7.264 1.877zm-117.6-103.513 103.037 62.2 1.914-114.594c.021-1.241-.385-1.976-1.449-2.617-1.064-.644-1.903-.66-2.992-.062z" fill="#eee1dc"/></g><g><path d="m510.398 293.096-55.79-110.832c-38.554-76.593-112.608-122.321-198.095-122.321h-1.045c-85.523 0-159.592 45.757-198.135 122.398-18.572 36.932-37.149 73.862-55.732 110.789-2.447 4.862-2.068 10.668.99 15.17 59.028 86.918 147.524 151.176 249.184 180.938 1.376.403 2.795.604 4.215.604s2.838-.201 4.214-.604c101.675-29.768 190.178-94.037 249.206-180.972 3.057-4.503 3.435-10.308.988-15.17z" fill="#fff4f4"/></g><path d="m510.398 293.096-55.79-110.832c-38.554-76.593-112.608-122.321-198.095-122.321h-.513v429.899c1.416-.001 2.831-.202 4.204-.604 101.675-29.768 190.178-94.037 249.206-180.972 3.057-4.503 3.435-10.308.988-15.17z" fill="#f6efea"/><path d="m369.139 312.366c-5.713-6.001-15.207-6.235-21.207-.522-8.73 8.31-21.001 13.076-33.669 13.076-19.107 0-36.029-10.361-43.11-26.396-2.68-6.068-8.893-9.478-15.154-8.876-6.259-.6-12.471 2.808-15.15 8.876-7.081 16.035-24.003 26.396-43.11 26.396-12.667 0-24.939-4.767-33.669-13.076-6-5.711-15.495-5.479-21.207.522-5.711 6-5.478 15.494.522 21.206 14.251 13.566 34.063 21.348 54.354 21.348 22.906 0 44.014-9.501 58.262-25.323 14.249 15.823 35.357 25.323 58.262 25.323 20.291 0 40.102-7.781 54.354-21.348 5.999-5.712 6.233-15.206.522-21.206z" fill="#f6efea"/><g><ellipse clip-rule="evenodd" cx="187.25" cy="199.919" fill="#2e2e2e" fill-rule="evenodd" rx="15" ry="15" transform="matrix(.922 -.386 .386 .922 -62.682 87.829)"/></g><path d="m369.139 312.366c-5.713-6.001-15.207-6.235-21.207-.522-8.73 8.31-21.001 13.076-33.669 13.076-19.107 0-36.029-10.361-43.11-26.396-2.68-6.068-8.892-9.477-15.152-8.876v39.95c14.249 15.823 35.357 25.323 58.262 25.323 20.291 0 40.102-7.781 54.354-21.348 5.999-5.713 6.233-15.207.522-21.207z" fill="#eee1dc"/><g><circle clip-rule="evenodd" cx="324.75" cy="199.919" fill="#1a1a1a" fill-rule="evenodd" r="15"/></g><g><path d="m267.883 234.007h-23.766c-19.088 0-34.617 15.528-34.617 34.616v.222c0 13.32 7.769 24.73 21.875 32.129l21.141 11.087c1.091.572 2.287.858 3.483.858s2.393-.286 3.483-.858l21.141-11.086c14.107-7.397 21.876-18.809 21.876-32.13v-.222c.001-19.087-15.528-34.616-34.616-34.616z" fill="#2e2e2e"/></g><path d="m267.883 234.007h-11.883v78.912c1.196 0 2.393-.286 3.483-.858l21.141-11.086c14.107-7.397 21.876-18.809 21.876-32.13v-.222c0-19.087-15.529-34.616-34.617-34.616z" fill="#1a1a1a"/></g></svg>