<svg id="Layer_1" enable-background="new 0 0 511.931 511.931" height="512" viewBox="0 0 511.931 511.931" width="512" xmlns="http://www.w3.org/2000/svg"><g><g><path d="m412.219 501.704c-12.804 0-25.557-2.925-37.864-8.765-23.31-11.062-39.53-29.976-46.91-54.698l-19.06-63.855c-.67-2.243-.805-4.611-.396-6.916l44.309-249.224c1.131-6.359 6.206-11.28 12.597-12.216 6.391-.932 12.664 2.325 15.569 8.095l120.698 239.668c12.941 25.699 14.245 53.906 3.771 81.571-10.275 27.138-29.866 47.379-56.655 58.535l-1.887.786c-11.242 4.682-22.727 7.019-34.172 7.019z" fill="#803602"/></g><g><path d="m99.713 501.704c-11.447 0-22.93-2.337-34.173-7.019l-1.886-.786c-26.787-11.156-46.378-31.397-56.654-58.535-10.476-27.664-9.171-55.871 3.771-81.571l120.698-239.668c2.91-5.777 9.198-9.039 15.594-8.091 6.399.947 11.47 5.891 12.58 12.264l43.746 251.108c.399 2.288.26 4.639-.404 6.864l-18.497 61.971c-7.38 24.723-23.602 43.637-46.911 54.698-12.307 5.84-25.062 8.765-37.864 8.765z" fill="#a24603"/></g><g><path d="m354.966 355.975c-.121 0-200-4-200-4-5.802-.141-16.487-22.452-18.837-27.759-14.51-32.756-22.18-70.788-22.18-109.985 0-53.433 14.113-103.866 39.739-142.011 17.399-25.898 38.764-44.259 62.277-53.979 12.782-5.284 24.241 46.734 38 46.734 13.526 0 28.68-52.109 41.266-47 23.77 9.649 45.369 28.108 62.928 54.245 25.626 38.145 39.739 88.578 39.739 142.011 0 41.515-8.529 81.42-24.665 115.401-2.487 5.241-12.488 26.343-18.267 26.343z" fill="#b34f03"/></g><path d="m358.16 72.221c-17.559-26.137-39.158-44.597-62.928-54.245-11.97-4.859-26.261 42.029-39.266 46.637v289.384c49.634.993 98.94 1.979 99 1.979 5.779 0 15.78-21.103 18.269-26.343 16.136-33.981 24.665-73.887 24.665-115.401-.001-53.433-14.114-103.867-39.74-142.011z" fill="#a24603"/><g><path d="m255.924 421.235c-27.427 0-51.626-18.479-58.848-44.938-1.574-5.768.427-11.92 5.094-15.657l45.418-36.372c5.558-4.451 13.478-4.383 18.958.167l43.423 36.047c4.496 3.732 6.415 9.736 4.918 15.385-7.081 26.712-31.328 45.368-58.963 45.368z" fill="#f6efea"/></g><path d="m309.97 360.481-43.423-36.047c-3.048-2.53-6.85-3.674-10.581-3.425v100.226c27.618-.019 51.844-18.669 58.922-45.369 1.497-5.648-.422-11.652-4.918-15.385z" fill="#eee1dc"/><path d="m363.38 337.146c5.504-24.786-2.726-54.792-14.32-74.872-5.514-9.55-12.096-18.179-19.563-25.646-22.491-22.49-33.901-50.016-33.913-81.817 0-.018-.001-.035-.001-.053v-136.639c-12.692-5.203-26.007-7.892-39.659-7.892s-26.967 2.689-39.659 7.892v136.638c0 31.822-11.411 59.368-33.915 81.87-7.466 7.467-14.048 16.096-19.563 25.646-6.38 11.05-11.184 23.064-13.831 35.558-2.393 11.297-3.023 23.294-1.088 34.707 2.989 17.582 11.69 31.232 24.96 38.892 13.033 7.524 29.363 8.314 45.982 2.227 13.151-4.818 26.088-13.815 37.114-25.706 11.026 11.891 23.963 20.888 37.115 25.706 7.39 2.707 14.721 4.055 21.731 4.055 8.757 0 17.011-2.102 24.25-6.281 13.753-7.938 21.25-20.278 24.36-34.285z" fill="#fff4f4"/><path d="m349.06 262.274c-5.514-9.55-12.096-18.179-19.563-25.646-22.491-22.49-33.901-50.016-33.913-81.817 0-.018-.001-.035-.001-.053v-136.639c-12.679-5.198-25.98-7.886-39.617-7.892v337.77c11.017 11.868 23.938 20.849 37.073 25.662 7.39 2.707 14.721 4.055 21.731 4.055 8.757 0 17.011-2.102 24.25-6.281 13.753-7.94 21.25-20.28 24.36-34.286 5.504-24.787-2.726-54.792-14.32-74.873z" fill="#f6efea"/><path d="m267.428 279.105h-23.006c-16.404 0-29.75 13.346-29.75 29.75v.214c0 11.428 6.805 21.291 19.163 27.773l20.465 10.732c.509.267 1.067.4 1.625.4s1.117-.134 1.625-.4l20.466-10.732c12.356-6.48 19.162-16.344 19.162-27.773v-.214c0-16.404-13.346-29.75-29.75-29.75z" fill="#2e2e2e"/><ellipse clip-rule="evenodd" cx="183.003" cy="171.755" fill="#2e2e2e" fill-rule="evenodd" rx="15" ry="15" transform="matrix(.93 -.367 .367 .93 -50.292 79.216)"/><g fill="#1a1a1a"><circle clip-rule="evenodd" cx="335.966" cy="171.755" fill-rule="evenodd" r="15"/><path d="m267.428 279.105h-11.462v68.87c.544-.006 1.088-.14 1.584-.4l20.466-10.732c12.356-6.48 19.162-16.344 19.162-27.773v-.214c0-16.405-13.346-29.751-29.75-29.751z"/></g></g></svg>