<svg id="Layer_1" enable-background="new 0 0 512 512" height="512" viewBox="0 0 512 512" width="512" xmlns="http://www.w3.org/2000/svg" xmlns:xlink="http://www.w3.org/1999/xlink"><radialGradient id="SVGID_1_" cx="341.544" cy="123.406" gradientUnits="userSpaceOnUse" r="365.687"><stop offset="0" stop-color="#fcf3b3"/><stop offset=".5" stop-color="#f7e041"/><stop offset="1" stop-color="#ffa538"/></radialGradient><linearGradient id="lg1"><stop offset="0" stop-color="#8b451c"/><stop offset="1" stop-color="#401b06"/></linearGradient><linearGradient id="SVGID_00000001633061664067228960000008343854190959701178_" gradientTransform="matrix(.866 -.5 0 1.155 10.179 13.672)" gradientUnits="userSpaceOnUse" x1="343.267" x2="343.267" xlink:href="#lg1" y1="431.22" y2="345.385"/><linearGradient id="SVGID_00000179634903109272477350000012108422797578892475_" gradientTransform="matrix(.866 -.5 0 1.155 10.179 13.672)" gradientUnits="userSpaceOnUse" x1="493.967" x2="493.967" xlink:href="#lg1" y1="431.222" y2="345.387"/><linearGradient id="SVGID_00000008146786473731669740000010173146082532646834_" gradientUnits="userSpaceOnUse" x1="372.212" x2="372.212" xlink:href="#lg1" y1="453.734" y2="300.61"/><linearGradient id="SVGID_00000040549501310193109400000007898687574135027371_" gradientUnits="userSpaceOnUse" x1="302.566" x2="369.932" y1="410.288" y2="446.644"><stop offset="0" stop-color="#ab2c37"/><stop offset="1" stop-color="#ff4757"/></linearGradient><g><circle cx="256" cy="256" fill="url(#SVGID_1_)" r="256"/><g><path d="m337.951 276.212c0-22.462-13.656-32.786-30.503-23.06-16.846 9.726-30.503 35.82-30.503 58.281 0 22.462 13.657 32.786 30.503 23.06s30.503-35.819 30.503-58.281z" fill="url(#SVGID_00000001633061664067228960000008343854190959701178_)"/><path d="m468.456 200.865c0-22.462-13.657-32.786-30.503-23.06s-30.503 35.82-30.503 58.281c0 22.462 13.656 32.786 30.503 23.06s30.503-35.82 30.503-58.281z" fill="url(#SVGID_00000179634903109272477350000012108422797578892475_)"/></g><path d="m289.647 395.948c5.599 51.26 40.514 71.713 81.765 47.897l1.599-.923c41.251-23.816 76.167-84.586 81.765-142.311z" fill="url(#SVGID_00000008146786473731669740000010173146082532646834_)"/><path d="m297.942 426.373c13.779 27.919 41.75 35.786 73.471 17.472l1.599-.923c6.334-3.657 12.515-8.192 18.467-13.446-37.644-28.912-81.881-9.198-93.537-3.103z" fill="url(#SVGID_00000040549501310193109400000007898687574135027371_)"/></g></svg>