<svg id="Capa_1" enable-background="new 0 0 512 512" height="512" viewBox="0 0 512 512" width="512" xmlns="http://www.w3.org/2000/svg" xmlns:xlink="http://www.w3.org/1999/xlink"><linearGradient id="lg1"><stop offset="0" stop-color="#dfdaef"/><stop offset="1" stop-color="#f2effa"/></linearGradient><linearGradient id="SVGID_1_" gradientUnits="userSpaceOnUse" x1="170.939" x2="231.493" xlink:href="#lg1" y1="385.91" y2="385.18"/><linearGradient id="lg2"><stop offset="0" stop-color="#ba5c25"/><stop offset="1" stop-color="#e37a34"/></linearGradient><linearGradient id="SVGID_2_" gradientUnits="userSpaceOnUse" x1="201.209" x2="273.634" xlink:href="#lg2" y1="286.524" y2="286.524"/><linearGradient id="SVGID_3_" gradientUnits="userSpaceOnUse" x1="213.811" x2="274.45" xlink:href="#lg1" y1="294.073" y2="294.073"/><linearGradient id="SVGID_4_" gradientUnits="userSpaceOnUse" x1="194.879" x2="216.778" xlink:href="#lg1" y1="344.463" y2="344.463"/><linearGradient id="lg3"><stop offset="0" stop-color="#49456c"/><stop offset=".1264" stop-color="#595579"/><stop offset=".3737" stop-color="#827f9a"/><stop offset=".7139" stop-color="#c3c2cf"/><stop offset="1" stop-color="#fff"/></linearGradient><linearGradient id="SVGID_5_" gradientUnits="userSpaceOnUse" x1="284.323" x2="319.512" xlink:href="#lg3" y1="233.231" y2="280.641"/><linearGradient id="SVGID_6_" gradientUnits="userSpaceOnUse" x1="245.009" x2="280.198" xlink:href="#lg3" y1="255.885" y2="303.295"/><linearGradient id="SVGID_7_" gradientUnits="userSpaceOnUse" x1="323.674" x2="358.863" xlink:href="#lg3" y1="210.577" y2="257.987"/><linearGradient id="SVGID_8_" gradientTransform="matrix(-1 0 0 1 498.956 0)" gradientUnits="userSpaceOnUse" x1="342.015" x2="377.204" xlink:href="#lg3" y1="364.477" y2="411.887"/><linearGradient id="SVGID_9_" gradientTransform="matrix(-1 0 0 1 498.956 0)" gradientUnits="userSpaceOnUse" x1="342.015" x2="377.204" xlink:href="#lg3" y1="248.677" y2="296.087"/><linearGradient id="SVGID_10_" gradientUnits="userSpaceOnUse" x1="363.009" x2="398.198" xlink:href="#lg3" y1="187.787" y2="235.198"/><linearGradient id="SVGID_11_" gradientUnits="userSpaceOnUse" x1="284.323" x2="319.512" xlink:href="#lg3" y1="346.147" y2="393.557"/><linearGradient id="SVGID_12_" gradientUnits="userSpaceOnUse" x1="245.009" x2="280.198" xlink:href="#lg3" y1="368.801" y2="416.211"/><linearGradient id="SVGID_13_" gradientUnits="userSpaceOnUse" x1="323.674" x2="358.863" xlink:href="#lg3" y1="323.493" y2="370.903"/><linearGradient id="SVGID_14_" gradientUnits="userSpaceOnUse" x1="358.892" x2="410.458" xlink:href="#lg3" y1="302.294" y2="371.769"/><linearGradient id="SVGID_15_" gradientUnits="userSpaceOnUse" x1="207.539" x2="277.192" xlink:href="#lg1" y1="126.968" y2="126.968"/><linearGradient id="SVGID_16_" gradientUnits="userSpaceOnUse" x1="263.792" x2="238.828" xlink:href="#lg1" y1="166.401" y2="27.887"/><linearGradient id="SVGID_17_" gradientUnits="userSpaceOnUse" x1="293.527" x2="306.458" y1="153.195" y2="130.798"><stop offset="0" stop-color="#9b4216"/><stop offset="1" stop-color="#ba5c25"/></linearGradient><linearGradient id="SVGID_18_" gradientUnits="userSpaceOnUse" x1="264.265" x2="380.454" xlink:href="#lg2" y1="209.119" y2="26.704"/><g><g><path d="m431.725 324.072-105.473-61.051c-12.121-6.998-27.055-6.998-39.176 0l-206.8 121.095c-4.625 2.67-6.938 7.343-6.938 12.016v8.012 11.548 15.939c0 6.408 3.419 12.329 8.968 15.533l103.209 59.588c12.121 6.998 27.055 6.998 39.176 0l205.003-119.632c5.549-3.204 8.968-9.125 8.968-15.533v-15.601-11.886-7.695h-.02c.107-4.778-2.188-9.602-6.917-12.333z" fill="url(#SVGID_1_)"/><path d="m185.515 468.909-105.239-60.76c-9.25-5.341-9.25-18.692 0-24.033l207.034-120.804c12.121-6.998 27.055-6.998 39.176 0l105.239 60.76c9.25 5.341 9.25 18.692 0 24.033l-207.034 120.804c-12.121 6.998-27.055 6.998-39.176 0z" fill="#e7e3f3"/></g><path d="m404.849 125.098c-.325.21-.65.42-.988.615l-181.759 106.211c-2.019 1.166-34.81 0-34.81 0 2.019 1.166-79.153-45.699-79.153-45.699s-2.862-2.308-5.684-5.316v203.977l5.684 21.753 79.153 45.699s34.136.389 34.81 0l181.759-106.212v-.589c.071-.042.137-.09.207-.133l5.477-19.071v-205.796c-2.496 2.704-4.87 4.674-4.696 4.561z" fill="url(#SVGID_2_)"/><path d="m415.005 225.302c-.09 4.055-2.129 8.072-6.143 10.39l-177.493 103.542c-10.763 6.214-24.023 6.214-34.786 0l-93.445-53.951c-4.107-2.371-6.16-6.52-6.16-10.67v7.113 9.755c0 5.69 3.035 10.948 7.963 13.792l91.642 52.91c10.763 6.214 24.023 6.214 34.786 0l175.691-102.501c4.927-2.845 7.963-8.103 7.963-13.793v-9.755-6.833h-.018z" fill="url(#SVGID_3_)"/><path d="m403.861 125.713v220.414c4.837-2.792 8.397-7.213 10.149-12.343.797-2.332 1.22-4.81 1.22-7.349v-220.414c0 8.124-4.334 15.63-11.369 19.692z" fill="#f2effa"/><path d="m96.77 166.536v220.412c0 5.585 2.048 10.878 5.615 14.961 1.621 1.856 3.556 3.461 5.754 4.731v-220.415c-7.035-4.061-11.368-11.566-11.369-19.689z" fill="#dfdaef"/><path d="m187.292 231.925v220.414c10.77 6.218 24.04 6.218 34.81 0v-220.414c-10.77 6.218-24.04 6.218-34.81 0z" fill="url(#SVGID_4_)"/><g><path d="m307.848 228.549v36.743c0 2.603-1.389 5.008-3.643 6.309l-16.46 9.503c-2.309 1.333-5.195-.333-5.195-2.999v-36.743c0-2.603 1.389-5.008 3.643-6.309l16.46-9.503c2.309-1.333 5.195.333 5.195 2.999z" fill="#49456c"/><path d="m302.653 225.549-16.461 9.503c-2.254 1.301-3.643 3.707-3.643 6.309v27.008l25.298-28.551v-11.27c.001-2.665-2.885-4.331-5.194-2.999z" fill="url(#SVGID_5_)"/></g><g><path d="m268.533 251.203v36.743c0 2.603-1.389 5.008-3.643 6.309l-16.46 9.503c-2.309 1.333-5.195-.333-5.195-2.999v-36.743c0-2.603 1.389-5.008 3.643-6.309l16.46-9.503c2.31-1.334 5.195.333 5.195 2.999z" fill="#49456c"/><path d="m263.339 248.203-16.46 9.504c-2.254 1.301-3.643 3.706-3.643 6.309v27.008l25.298-28.552v-11.27c-.001-2.665-2.886-4.332-5.195-2.999z" fill="url(#SVGID_6_)"/></g><g><path d="m347.199 205.895v36.743c0 2.603-1.389 5.008-3.643 6.309l-16.46 9.503c-2.309 1.333-5.195-.333-5.195-2.999v-36.743c0-2.603 1.389-5.008 3.643-6.309l16.46-9.503c2.309-1.334 5.195.333 5.195 2.999z" fill="#49456c"/><path d="m342.004 202.895-16.461 9.503c-2.254 1.301-3.643 3.707-3.643 6.309v27.008l25.298-28.551v-11.27c.001-2.665-2.885-4.332-5.194-2.999z" fill="url(#SVGID_7_)"/></g><g><path d="m133.417 359.795v36.743c0 2.603 1.389 5.008 3.643 6.309l16.46 9.503c2.309 1.333 5.195-.333 5.195-2.999v-36.743c0-2.603-1.389-5.008-3.643-6.309l-16.46-9.503c-2.309-1.333-5.195.333-5.195 2.999z" fill="#49456c"/><path d="m138.611 356.796 16.46 9.504c2.254 1.301 3.643 3.707 3.643 6.309v27.008l-25.298-28.552v-11.27c.001-2.666 2.886-4.332 5.195-2.999z" fill="url(#SVGID_8_)"/></g><g><path d="m133.417 243.995v36.743c0 2.603 1.389 5.008 3.643 6.309l16.46 9.503c2.309 1.333 5.195-.333 5.195-2.999v-36.743c0-2.603-1.389-5.008-3.643-6.309l-16.46-9.503c-2.309-1.333-5.195.333-5.195 2.999z" fill="#49456c"/><path d="m138.611 240.996 16.46 9.503c2.254 1.301 3.643 3.707 3.643 6.309v27.008l-25.298-28.552v-11.27c.001-2.665 2.886-4.331 5.195-2.998z" fill="url(#SVGID_9_)"/></g><g><path d="m386.534 183.105v36.743c0 2.603-1.389 5.008-3.643 6.309l-16.46 9.503c-2.309 1.333-5.195-.333-5.195-2.999v-36.743c0-2.603 1.389-5.008 3.643-6.309l16.46-9.503c2.309-1.333 5.195.334 5.195 2.999z" fill="#49456c"/><path d="m381.339 180.106-16.46 9.504c-2.254 1.301-3.643 3.706-3.643 6.309v27.008l25.298-28.552v-11.27c0-2.665-2.886-4.332-5.195-2.999z" fill="url(#SVGID_10_)"/></g><g><path d="m307.848 341.465v36.743c0 2.603-1.389 5.008-3.643 6.309l-16.46 9.503c-2.309 1.333-5.195-.333-5.195-2.999v-36.743c0-2.603 1.389-5.008 3.643-6.309l16.46-9.503c2.309-1.333 5.195.333 5.195 2.999z" fill="#49456c"/><path d="m302.653 338.466-16.461 9.503c-2.254 1.301-3.643 3.707-3.643 6.309v27.008l25.298-28.552v-11.27c.001-2.665-2.885-4.331-5.194-2.998z" fill="url(#SVGID_11_)"/></g><g><path d="m268.533 364.119v36.743c0 2.603-1.389 5.008-3.643 6.309l-16.46 9.503c-2.309 1.333-5.195-.333-5.195-2.999v-36.743c0-2.603 1.389-5.008 3.643-6.309l16.46-9.503c2.31-1.333 5.195.333 5.195 2.999z" fill="#49456c"/><path d="m263.339 361.12-16.46 9.504c-2.254 1.301-3.643 3.707-3.643 6.309v27.008l25.298-28.552v-11.27c-.001-2.666-2.886-4.332-5.195-2.999z" fill="url(#SVGID_12_)"/></g><g><path d="m347.199 318.811v36.743c0 2.603-1.389 5.008-3.643 6.309l-16.46 9.503c-2.309 1.333-5.195-.333-5.195-2.999v-36.743c0-2.603 1.389-5.008 3.643-6.309l16.46-9.503c2.309-1.333 5.195.333 5.195 2.999z" fill="#49456c"/><path d="m342.004 315.812-16.461 9.503c-2.254 1.301-3.643 3.707-3.643 6.309v27.008l25.298-28.551v-11.27c.001-2.666-2.885-4.332-5.194-2.999z" fill="url(#SVGID_13_)"/></g><g><path d="m386.534 296.022v60.335l-25.298 14.606v-62.127c0-2.603 1.389-5.008 3.643-6.31l16.46-9.503c2.309-1.333 5.195.333 5.195 2.999z" fill="#49456c"/><path d="m381.339 293.023-16.46 9.504c-2.254 1.301-3.643 3.707-3.643 6.309v41.284l25.298-28.552v-25.546c0-2.666-2.886-4.332-5.195-2.999z" fill="url(#SVGID_14_)"/></g><path d="m431.725 66.009-105.24-60.76c-12.121-6.998-27.055-6.998-39.176 0l-207.033 120.804c-4.625 2.67-6.938 7.343-6.938 12.016v8.011 11.548 15.939c0 6.408 3.419 12.329 8.968 15.533l103.209 59.587c12.121 6.998 27.055 6.998 39.176 0l205.003-119.632c5.549-3.204 8.968-9.125 8.968-15.533v-15.6-11.886-7.696h-.02c.107-4.777-2.188-9.601-6.917-12.331z" fill="url(#SVGID_15_)"/><path d="m185.515 210.845-105.239-60.76c-9.25-5.34-9.25-18.692 0-24.033l207.033-120.803c12.121-6.998 27.055-6.998 39.176 0l105.239 60.76c9.25 5.341 9.25 18.692 0 24.033l-207.033 120.803c-12.121 6.999-27.055 6.999-39.176 0z" fill="#e7e3f3"/><path d="m306.897 25.289c2.434 0 4.835.643 6.944 1.861l88.222 50.935-190.054 110.881c-2.099 1.203-4.486 1.839-6.906 1.839-2.435 0-4.836-.643-6.944-1.86l-88.222-50.935 190.057-110.884c2.098-1.202 4.484-1.837 6.903-1.837z" fill="#d7d1eb"/><path d="m306.897 55.526c-2.419 0-4.805.635-6.903 1.837l-164.029 95.674 62.194 35.908c2.108 1.217 4.509 1.86 6.944 1.86 2.42 0 4.807-.636 6.906-1.839l164.026-95.672-62.194-35.907c-2.109-1.218-4.51-1.861-6.944-1.861z" fill="url(#SVGID_16_)"/><g><path d="m408.471 100.046v-76.685l-11.059-6.385-.027.028c-1.779-1.253-4.219-1.543-6.372-.3l-150.662 86.984c-5.003 2.888-8.085 8.226-8.085 14.003v64.851c0 2.425 1.403 4.356 3.305 5.298l10.911 6.251z" fill="url(#SVGID_17_)"/><path d="m408.438 25.289-160.184 91.691v75.549l160.184-92.483z" fill="url(#SVGID_18_)"/><g fill="#fff"><path d="m405.803 28.616v.013 64.851c0 3.653-1.965 7.057-5.129 8.884l-150.674 86.977v-64.851c0-3.653 1.965-7.057 5.129-8.884zm-.017-5.915c-.985 0-1.997.251-2.951.802l-150.662 86.984c-5.003 2.888-8.085 8.226-8.085 14.003v64.851c0 3.456 2.837 5.929 5.929 5.929.985 0 1.997-.251 2.951-.802l150.662-86.985c5.003-2.888 8.085-8.226 8.085-14.003v-64.851c-.001-3.456-2.837-5.929-5.929-5.928z"/><g><path d="m269.281 125.348v15.417l9.225-5.326v-15.417l9.863-5.695v39.733l-9.863 5.694v-14.34l-9.225 5.326v14.34l-9.862 5.694v-39.733z"/><path d="m323.863 113.673c0 11.789-6.887 24.437-16.367 29.911-9.48 5.473-16.368.834-16.368-11.011 0-11.789 6.888-24.212 16.368-29.685 9.48-5.474 16.367-.948 16.367 10.785zm-22.617 13.115c0 5.441 2.976 7.747 6.377 5.784s6.122-7.559 6.122-13-2.721-7.781-6.122-5.818c-3.443 1.988-6.377 7.592-6.377 13.034z"/><path d="m350.259 78.595v10.373l-8.502 4.909v29.36l-9.862 5.694v-29.36l-8.461 4.885v-10.373z"/><path d="m377.804 62.692v9.976l-15.348 8.861v4.875l13.944-8.05v9.976l-13.944 8.05v4.931l15.73-9.082v9.976l-25.592 14.776v-39.734z"/><path d="m391.786 54.62v28.793l12.414-7.167v10.94l-22.276 12.861v-39.734z"/></g></g></g></g></svg>