<svg width="1484" height="1484" viewBox="0 0 1484 1484" fill="none" xmlns="http://www.w3.org/2000/svg">
<circle cx="740" cy="744" r="699.5" stroke="#F4EFE7"/>
<path d="M742.012 1408C761.894 1407.94 778.059 1424.01 778.118 1443.89C778.177 1463.77 762.107 1479.94 742.225 1480C741.483 1480 740.742 1480 740 1480C739.258 1480 738.517 1480 737.775 1480C717.893 1479.94 701.823 1463.77 701.882 1443.89C701.941 1424.01 718.106 1407.94 737.988 1408C738.659 1408 739.329 1408 740 1408C740.671 1408 741.341 1408 742.012 1408ZM521.973 1410.36C527.165 1391.17 546.933 1379.82 566.125 1385.01C567.412 1385.36 568.702 1385.7 569.992 1386.04C589.215 1391.12 600.684 1410.82 595.608 1430.04C590.532 1449.27 570.834 1460.74 551.61 1455.66C550.179 1455.28 548.748 1454.9 547.32 1454.51C528.128 1449.32 516.78 1429.55 521.973 1410.36ZM913.875 1385.01C933.067 1379.82 952.835 1391.17 958.027 1410.36C963.22 1429.55 951.872 1449.32 932.68 1454.51C931.252 1454.9 929.821 1455.28 928.39 1455.66C909.166 1460.74 889.468 1449.27 884.392 1430.04C879.316 1410.82 890.785 1391.12 910.008 1386.04C911.298 1385.7 912.588 1385.36 913.875 1385.01ZM1073.75 1318.16C1090.93 1308.15 1112.97 1313.96 1122.98 1331.14C1132.99 1348.32 1127.18 1370.36 1110 1380.37C1108.72 1381.11 1107.45 1381.85 1106.17 1382.59C1088.93 1392.49 1066.92 1386.55 1057.02 1369.31C1047.11 1352.07 1053.06 1330.06 1070.3 1320.16C1071.45 1319.49 1072.6 1318.83 1073.75 1318.16ZM357.017 1331.14C367.026 1313.96 389.066 1308.15 406.245 1318.16C407.396 1318.83 408.549 1319.49 409.704 1320.16C426.943 1330.06 432.889 1352.07 422.983 1369.31C413.078 1386.55 391.073 1392.49 373.834 1382.59C372.554 1381.85 371.276 1381.11 370 1380.37C352.821 1370.36 347.008 1348.32 357.017 1331.14ZM218.158 1211.95C232.259 1197.93 255.053 1198 269.069 1212.1C270.009 1213.05 270.951 1213.99 271.896 1214.93C285.997 1228.95 286.066 1251.74 272.049 1265.84C258.032 1279.94 235.239 1280.01 221.138 1265.99C220.091 1264.95 219.047 1263.91 218.006 1262.86C203.989 1248.76 204.058 1225.97 218.158 1211.95ZM1210.93 1212.1C1224.95 1198 1247.74 1197.93 1261.84 1211.95C1275.94 1225.97 1276.01 1248.76 1261.99 1262.86C1260.95 1263.91 1259.91 1264.95 1258.86 1265.99C1244.76 1280.01 1221.97 1279.94 1207.95 1265.84C1193.93 1251.74 1194 1228.95 1208.1 1214.93C1209.05 1213.99 1209.99 1213.05 1210.93 1212.1ZM114.692 1061.02C131.932 1051.11 153.937 1057.06 163.842 1074.3C164.505 1075.45 165.172 1076.6 165.843 1077.75C175.852 1094.93 170.04 1116.97 152.86 1126.98C135.681 1136.99 113.641 1131.18 103.632 1114C102.889 1112.72 102.149 1111.45 101.413 1110.17C91.5079 1092.93 97.4533 1070.92 114.692 1061.02ZM1316.16 1074.3C1326.06 1057.06 1348.07 1051.11 1365.31 1061.02C1382.55 1070.92 1388.49 1092.93 1378.59 1110.17C1377.85 1111.45 1377.11 1112.72 1376.37 1114C1366.36 1131.18 1344.32 1136.99 1327.14 1126.98C1309.96 1116.97 1304.15 1094.93 1314.16 1077.75C1314.83 1076.6 1315.49 1075.45 1316.16 1074.3ZM53.957 888.392C73.1803 883.316 92.8791 894.785 97.9551 914.008C98.2958 915.298 98.64 916.588 98.9883 917.875C104.181 937.067 92.8318 956.835 73.6396 962.027C54.4477 967.22 34.6801 955.872 29.4873 936.68C29.1009 935.252 28.7188 933.821 28.3408 932.39C23.2649 913.166 34.7337 893.468 53.957 888.392ZM1382.04 914.008C1387.12 894.785 1406.82 883.316 1426.04 888.392C1445.27 893.468 1456.74 913.166 1451.66 932.39C1451.28 933.821 1450.9 935.252 1450.51 936.68C1445.32 955.872 1425.55 967.22 1406.36 962.027C1387.17 956.835 1375.82 937.067 1381.01 917.875C1381.36 916.588 1381.7 915.298 1382.04 914.008ZM4 744C4 743.258 4.00073 742.517 4.00293 741.775C4.06182 721.893 20.2274 705.823 40.1094 705.882C59.9915 705.941 76.0617 722.106 76.0029 741.988C76.0009 742.659 76 743.329 76 744C76 744.671 76.0009 745.341 76.0029 746.012C76.0617 765.894 59.9914 782.059 40.1094 782.118C20.2274 782.177 4.06182 766.107 4.00293 746.225C4.00073 745.483 4 744.742 4 744ZM1404 744C1404 743.329 1404 742.659 1404 741.988C1403.94 722.106 1420.01 705.941 1439.89 705.882C1459.77 705.823 1475.94 721.893 1476 741.775C1476 742.517 1476 743.258 1476 744C1476 744.742 1476 745.483 1476 746.225C1475.94 766.107 1459.77 782.177 1439.89 782.118C1420.01 782.059 1403.94 765.894 1404 746.012C1404 745.341 1404 744.671 1404 744ZM29.4873 551.32C34.6801 532.128 54.4477 520.78 73.6396 525.973C92.8318 531.165 104.181 550.933 98.9883 570.125C98.64 571.412 98.2958 572.702 97.9551 573.992C92.879 593.215 73.1803 604.684 53.957 599.608C34.7337 594.532 23.2649 574.834 28.3408 555.61C28.7188 554.179 29.1009 552.748 29.4873 551.32ZM1406.36 525.973C1425.55 520.78 1445.32 532.128 1450.51 551.32C1450.9 552.748 1451.28 554.179 1451.66 555.61C1456.74 574.834 1445.27 594.532 1426.04 599.608C1406.82 604.684 1387.12 593.215 1382.04 573.992C1381.7 572.702 1381.36 571.412 1381.01 570.125C1375.82 550.933 1387.17 531.165 1406.36 525.973ZM103.632 374C113.641 356.821 135.681 351.008 152.86 361.017C170.04 371.026 175.852 393.066 165.843 410.245C165.172 411.396 164.505 412.549 163.842 413.704C153.936 430.943 131.932 436.889 114.692 426.983C97.4534 417.078 91.508 395.073 101.413 377.834C102.149 376.554 102.889 375.276 103.632 374ZM1327.14 361.017C1344.32 351.008 1366.36 356.821 1376.37 374C1377.11 375.276 1377.85 376.554 1378.59 377.834C1388.49 395.073 1382.55 417.078 1365.31 426.983C1348.07 436.889 1326.06 430.943 1316.16 413.704C1315.49 412.549 1314.83 411.396 1314.16 410.245C1304.15 393.066 1309.96 371.026 1327.14 361.017ZM221.138 222.006C235.239 207.989 258.032 208.058 272.049 222.158C286.066 236.259 285.997 259.053 271.896 273.069C270.951 274.009 270.009 274.951 269.069 275.896C255.053 289.997 232.259 290.066 218.158 276.049C204.058 262.032 203.989 239.239 218.006 225.138C219.047 224.091 220.091 223.047 221.138 222.006ZM1207.95 222.158C1221.97 208.058 1244.76 207.989 1258.86 222.006C1259.91 223.047 1260.95 224.091 1261.99 225.138C1276.01 239.239 1275.94 262.032 1261.84 276.049C1247.74 290.066 1224.95 289.997 1210.93 275.896C1209.99 274.951 1209.05 274.009 1208.1 273.069C1194 259.053 1193.93 236.259 1207.95 222.158ZM373.834 105.413C391.073 95.5079 413.078 101.453 422.983 118.692C432.889 135.932 426.943 157.937 409.704 167.842C408.549 168.505 407.396 169.172 406.245 169.843C389.066 179.852 367.026 174.04 357.017 156.86C347.008 139.681 352.821 117.641 370 107.632C371.276 106.889 372.554 106.149 373.834 105.413ZM1057.02 118.692C1066.92 101.453 1088.93 95.508 1106.17 105.413C1107.45 106.149 1108.72 106.889 1110 107.632C1127.18 117.641 1132.99 139.681 1122.98 156.86C1112.97 174.04 1090.93 179.852 1073.75 169.843C1072.6 169.172 1071.45 168.505 1070.3 167.842C1053.06 157.936 1047.11 135.932 1057.02 118.692ZM551.61 32.3408C570.834 27.2649 590.532 38.7337 595.608 57.957C600.684 77.1803 589.215 96.8791 569.992 101.955C568.702 102.296 567.412 102.64 566.125 102.988C546.933 108.181 527.165 96.8318 521.973 77.6396C516.78 58.4477 528.128 38.6801 547.32 33.4873C548.748 33.1009 550.179 32.7188 551.61 32.3408ZM884.392 57.957C889.468 38.7337 909.166 27.2649 928.39 32.3408C929.821 32.7188 931.252 33.1009 932.68 33.4873C951.872 38.6801 963.22 58.4477 958.027 77.6396C952.835 96.8318 933.067 108.181 913.875 102.988C912.588 102.64 911.298 102.296 910.008 101.955C890.785 96.879 879.316 77.1803 884.392 57.957ZM742.225 8.00293C762.107 8.06182 778.177 24.2274 778.118 44.1094C778.059 63.9915 761.894 80.0617 742.012 80.0029C741.341 80.0009 740.671 80 740 80C739.329 80 738.659 80.0009 737.988 80.0029C718.106 80.0617 701.941 63.9914 701.882 44.1094C701.823 24.2274 717.893 8.06182 737.775 8.00293C738.517 8.00073 739.258 8 740 8C740.742 8 741.483 8.00073 742.225 8.00293Z" fill="#D9D9D9"/>
<rect x="704" y="4" width="72" height="72" rx="36" fill="#1A1A1C"/>
<rect x="704" y="4" width="72" height="72" rx="36" stroke="#F4EFE7" stroke-width="8"/>
<g clip-path="url(#clip0_5204_14393)">
<path d="M728.456 46.5665L735.931 42.3884L736.056 42.0242L735.931 41.823H735.565L734.314 41.7464L730.043 41.6313L726.339 41.478L722.751 41.2864L721.847 41.0946L721 39.983L721.087 39.4272L721.847 38.9194L722.934 39.0153L725.339 39.178L728.946 39.4272L731.563 39.5805L735.44 39.983H736.056L736.142 39.7339L735.931 39.5805L735.767 39.4272L732.034 36.9069L727.994 34.2429L725.878 32.7096L724.733 31.9334L724.155 31.2051L723.905 29.6145L724.944 28.474L726.339 28.57L726.695 28.6658L728.109 29.7486L731.13 32.0774L735.074 34.9711L735.652 35.4502L735.882 35.2873L735.911 35.1724L735.652 34.7411L733.506 30.8793L731.217 26.9503L730.197 25.3212L729.928 24.3439C729.831 23.9412 729.764 23.6059 729.764 23.1938L730.947 21.5935L731.601 21.3828L733.179 21.5937L733.843 22.1685L734.824 24.4014L736.412 27.9184L738.874 32.7002L739.596 34.1184L739.981 35.4313L740.125 35.8338H740.375V35.6037L740.577 32.911L740.952 29.6049L741.318 25.35L741.443 24.1524L742.04 22.7149L743.223 21.9386L744.146 22.3794L744.906 23.4623L744.8 24.1617L744.348 27.0846L743.463 31.6653L742.886 34.7318H743.223L743.608 34.3484L745.166 32.2881L747.783 29.0298L748.937 27.7362L750.284 26.3083L751.15 25.628H752.785L753.988 27.4105L753.449 29.2503L751.766 31.3777L750.371 33.1792L748.37 35.8624L747.119 38.0091L747.234 38.1815L747.533 38.1528L752.054 37.1945L754.498 36.7536L757.413 36.2553L758.731 36.8686L758.875 37.4916L758.355 38.7661L755.238 39.5326L751.583 40.261L746.138 41.5451L746.07 41.593L746.147 41.6889L748.6 41.9188L749.649 41.9763H752.218L756.999 42.3309L758.25 43.155L759 44.1612L758.875 44.9277L756.951 45.9052L754.353 45.2919L748.293 43.8546L746.215 43.3371H745.926V43.5096L747.658 45.1961L750.832 48.0519L754.806 51.7317L755.007 52.642L754.498 53.3606L753.959 53.284L750.467 50.6679L749.12 49.4892L746.07 46.9306H745.868V47.1989L746.571 48.2243L750.284 53.7823L750.476 55.488L750.207 56.044L749.245 56.3793L748.187 56.1876L746.013 53.1499L743.771 49.7287L741.962 46.6623L741.741 46.7869L740.673 58.2384L740.173 58.8229L739.019 59.2636L738.057 58.5354L737.547 57.3567L738.057 55.028L738.672 51.9904L739.173 49.5754L739.625 46.5761L739.894 45.5795L739.875 45.5124L739.654 45.5411L737.383 48.646L733.93 53.2936L731.198 56.2068L730.543 56.4655L729.408 55.8809L729.514 54.8364L730.149 53.907L733.929 49.1156L736.209 46.1448L737.682 44.4296L737.672 44.1803H737.585L727.542 50.6776L725.752 50.9075L724.983 50.1889L725.079 49.0101L725.444 48.6267L728.465 46.5569L728.456 46.5665Z" fill="#D97757"/>
</g>
<rect x="884.547" y="32.0527" width="72" height="72" rx="36" fill="#1A1A1C"/>
<rect x="884.547" y="32.0527" width="72" height="72" rx="36" stroke="#F4EFE7" stroke-width="8"/>
<g clip-path="url(#clip1_5204_14393)">
<path d="M938.169 57.1585C937.788 56.9725 937.623 57.328 937.401 57.5095C937.324 57.568 937.26 57.6445 937.195 57.7135C936.637 58.309 935.986 58.699 935.136 58.6525C933.892 58.5835 932.83 58.9735 931.891 59.9245C931.692 58.7515 931.029 58.0525 930.021 57.6025C929.493 57.3685 928.959 57.136 928.588 56.6275C928.33 56.266 928.26 55.8625 928.131 55.4665C928.048 55.2265 927.966 54.982 927.691 54.9415C927.391 54.895 927.274 55.1455 927.157 55.3555C926.688 56.2135 926.506 57.1585 926.524 58.1155C926.565 60.2695 927.474 61.9855 929.281 63.205C929.487 63.3445 929.539 63.4855 929.475 63.6895C929.352 64.1095 929.205 64.5175 929.076 64.939C928.993 65.2075 928.87 65.2645 928.582 65.149C927.609 64.7308 926.725 64.13 925.978 63.379C924.693 62.137 923.532 60.766 922.083 59.692C921.747 59.444 921.402 59.2083 921.049 58.9855C919.572 57.55 921.244 56.371 921.631 56.2315C922.036 56.0845 921.771 55.5835 920.463 55.5895C919.155 55.5955 917.958 56.032 916.432 56.6155C916.206 56.7024 915.972 56.7711 915.735 56.821C914.309 56.5524 912.851 56.5009 911.41 56.668C908.583 56.983 906.325 58.321 904.665 60.6025C902.67 63.3445 902.2 66.4615 902.775 69.7105C903.379 73.1365 905.128 75.973 907.815 78.19C910.602 80.4895 913.81 81.616 917.472 81.4C919.695 81.2725 922.171 80.974 924.963 78.61C925.668 78.961 926.406 79.1005 927.633 79.2055C928.578 79.294 929.487 79.1605 930.19 79.0135C931.293 78.7795 931.216 77.758 930.819 77.572C927.586 76.066 928.296 76.6795 927.649 76.183C929.293 74.239 931.768 72.22 932.737 65.6785C932.812 65.158 932.748 64.831 932.737 64.411C932.731 64.156 932.79 64.0555 933.082 64.027C933.894 63.9429 934.681 63.7008 935.4 63.3145C937.494 62.17 938.34 60.292 938.539 58.039C938.569 57.694 938.533 57.34 938.169 57.1585ZM919.918 77.4355C916.785 74.9725 915.265 74.161 914.638 74.1955C914.05 74.2315 914.157 74.902 914.286 75.34C914.421 75.772 914.596 76.069 914.842 76.4485C915.013 76.699 915.13 77.0725 914.673 77.353C913.663 77.977 911.91 77.143 911.827 77.1025C909.786 75.8995 908.077 74.3125 906.876 72.142C905.715 70.0525 905.04 67.8115 904.929 65.419C904.899 64.84 905.068 64.636 905.644 64.531C906.4 64.3863 907.175 64.3666 907.938 64.4725C911.136 64.9405 913.857 66.37 916.14 68.6335C917.442 69.9235 918.427 71.464 919.443 72.97C920.523 74.569 921.684 76.093 923.163 77.341C923.685 77.779 924.1 78.112 924.499 78.3565C923.296 78.4915 921.289 78.5215 919.918 77.4355ZM921.418 67.7755C921.418 67.701 921.436 67.6276 921.47 67.5615C921.505 67.4955 921.555 67.4388 921.616 67.3964C921.678 67.354 921.748 67.3272 921.822 67.3183C921.896 67.3093 921.971 67.3185 922.041 67.345C922.13 67.3769 922.206 67.4356 922.26 67.5131C922.314 67.5905 922.342 67.6828 922.341 67.777C922.341 67.838 922.329 67.8983 922.306 67.9546C922.282 68.0108 922.248 68.0619 922.205 68.1047C922.162 68.1476 922.11 68.1814 922.054 68.2042C921.997 68.227 921.937 68.2383 921.876 68.2375C921.815 68.2378 921.755 68.2259 921.7 68.2027C921.644 68.1795 921.593 68.1453 921.551 68.1023C921.508 68.0593 921.475 68.0082 921.452 67.9521C921.43 67.896 921.417 67.836 921.418 67.7755ZM926.083 70.1695C925.783 70.291 925.485 70.396 925.198 70.4095C924.767 70.4246 924.344 70.29 924.001 70.0285C923.59 69.6835 923.296 69.4915 923.173 68.8915C923.131 68.5983 923.139 68.3 923.197 68.0095C923.302 67.519 923.185 67.204 922.839 66.919C922.558 66.685 922.2 66.6205 921.807 66.6205C921.672 66.6127 921.542 66.5726 921.426 66.5035C921.377 66.4816 921.334 66.4498 921.299 66.4101C921.264 66.3704 921.237 66.3237 921.221 66.2731C921.205 66.2224 921.199 66.169 921.205 66.1162C921.211 66.0634 921.228 66.0124 921.255 65.9665C921.297 65.8855 921.495 65.6875 921.543 65.6515C922.077 65.3485 922.693 65.4475 923.262 65.6755C923.79 65.8915 924.189 66.2875 924.763 66.8485C925.35 67.525 925.456 67.7125 925.791 68.2195C926.055 68.617 926.295 69.025 926.458 69.4915C926.559 69.784 926.43 70.0225 926.083 70.1695Z" fill="#4D6BFE"/>
</g>
<rect x="1054.55" y="102.053" width="72" height="72" rx="36" fill="#1A1A1C"/>
<rect x="1054.55" y="102.053" width="72" height="72" rx="36" stroke="#F4EFE7" stroke-width="8"/>
<g clip-path="url(#clip2_5204_14393)">
<path d="M1106.62 134.958C1107.04 133.68 1107.18 132.327 1107.04 130.989C1106.9 129.651 1106.48 128.358 1105.81 127.196C1103.76 123.595 1099.65 121.743 1095.64 122.613C1094.52 121.362 1093.11 120.429 1091.53 119.908C1089.94 119.387 1088.25 119.295 1086.63 119.643C1085 119.991 1083.49 120.765 1082.25 121.889C1081.02 123.013 1080.09 124.446 1079.58 126.045C1078.27 126.315 1077.04 126.864 1075.96 127.654C1074.89 128.445 1073.99 129.459 1073.33 130.628C1071.26 134.224 1071.73 138.759 1074.49 141.844C1074.07 143.121 1073.92 144.473 1074.06 145.812C1074.2 147.15 1074.62 148.443 1075.29 149.605C1077.34 153.208 1081.45 155.06 1085.47 154.188C1086.35 155.194 1087.44 155.998 1088.65 156.546C1089.87 157.094 1091.19 157.374 1092.52 157.366C1096.63 157.37 1100.28 154.683 1101.54 150.719C1102.84 150.448 1104.07 149.899 1105.15 149.109C1106.23 148.319 1107.13 147.305 1107.78 146.136C1109.83 142.547 1109.36 138.036 1106.62 134.958ZM1092.52 154.884C1090.87 154.887 1089.28 154.304 1088.02 153.239L1088.24 153.112L1095.71 148.753C1095.9 148.643 1096.05 148.485 1096.16 148.297C1096.27 148.108 1096.32 147.894 1096.32 147.676V137.029L1099.48 138.876C1099.51 138.892 1099.53 138.922 1099.54 138.958V147.781C1099.53 151.7 1096.39 154.876 1092.52 154.884ZM1077.42 148.364C1076.59 146.925 1076.3 145.239 1076.58 143.601L1076.8 143.736L1084.28 148.095C1084.46 148.205 1084.67 148.262 1084.89 148.262C1085.1 148.262 1085.31 148.205 1085.5 148.095L1094.63 142.771V146.457C1094.63 146.476 1094.62 146.495 1094.62 146.512C1094.61 146.529 1094.59 146.543 1094.58 146.554L1087.01 150.966C1083.65 152.924 1079.36 151.76 1077.42 148.364ZM1075.45 131.914C1076.28 130.466 1077.59 129.362 1079.15 128.796V137.769C1079.14 137.986 1079.2 138.199 1079.31 138.387C1079.41 138.575 1079.57 138.731 1079.75 138.838L1088.84 144.139L1085.68 145.986C1085.67 145.995 1085.65 146 1085.63 146C1085.61 146 1085.59 145.995 1085.57 145.986L1078.02 141.582C1074.67 139.616 1073.52 135.277 1075.45 131.877V131.914ZM1101.39 138.008L1092.27 132.655L1095.42 130.815C1095.44 130.806 1095.46 130.801 1095.48 130.801C1095.5 130.801 1095.52 130.806 1095.53 130.815L1103.08 135.227C1104.24 135.9 1105.18 136.892 1105.8 138.086C1106.41 139.28 1106.68 140.627 1106.57 141.97C1106.46 143.313 1105.97 144.596 1105.17 145.67C1104.36 146.744 1103.27 147.564 1102.02 148.035V139.062C1102.02 138.846 1101.96 138.635 1101.84 138.45C1101.73 138.265 1101.58 138.113 1101.39 138.008ZM1104.53 133.23L1104.31 133.096L1096.85 128.699C1096.66 128.589 1096.45 128.531 1096.24 128.531C1096.02 128.531 1095.81 128.589 1095.62 128.699L1086.5 134.023V130.337C1086.5 130.318 1086.5 130.299 1086.51 130.282C1086.51 130.265 1086.53 130.25 1086.54 130.24L1094.09 125.836C1095.25 125.162 1096.57 124.835 1097.9 124.893C1099.24 124.951 1100.53 125.393 1101.62 126.165C1102.72 126.938 1103.57 128.01 1104.09 129.255C1104.6 130.501 1104.76 131.87 1104.53 133.2V133.23H1104.53ZM1084.77 139.765L1081.62 137.926C1081.6 137.916 1081.59 137.903 1081.58 137.888C1081.57 137.872 1081.56 137.855 1081.56 137.836V129.036C1081.56 127.686 1081.94 126.364 1082.66 125.225C1083.38 124.087 1084.4 123.178 1085.61 122.605C1086.82 122.033 1088.16 121.82 1089.49 121.992C1090.81 122.165 1092.06 122.714 1093.09 123.577L1092.86 123.705L1085.4 128.064C1085.21 128.174 1085.06 128.331 1084.95 128.52C1084.84 128.709 1084.78 128.923 1084.78 129.14L1084.77 139.765V139.765ZM1086.49 136.027L1090.56 133.656L1094.63 136.027V140.767L1090.57 143.137L1086.5 140.767L1086.49 136.027Z" fill="white"/>
</g>
<rect x="1200.55" y="213.053" width="72" height="72" rx="36" fill="#1A1A1C"/>
<rect x="1200.55" y="213.053" width="72" height="72" rx="36" stroke="#F4EFE7" stroke-width="8"/>
<g clip-path="url(#clip3_5204_14393)">
<path d="M1243.82 234.936H1249.64V240.729H1243.82V234.936Z" fill="white"/>
<path d="M1246.73 234.936H1252.54V240.729H1246.73V234.936Z" fill="#F7D046"/>
<path d="M1220.55 234.936H1226.37V240.729H1220.55V234.936ZM1220.55 240.729H1226.37V246.522H1220.55V240.729ZM1220.55 246.522H1226.37V252.315H1220.55V246.522ZM1220.55 252.315H1226.37V258.108H1220.55V252.315ZM1220.55 258.108H1226.37V263.902H1220.55V258.108Z" fill="white"/>
<path d="M1223.45 234.936H1229.27V240.729H1223.45V234.936Z" fill="#F7D046"/>
<path d="M1246.73 240.729H1252.54V246.522H1246.73V240.729ZM1223.45 240.729H1229.27V246.522H1223.45V240.729Z" fill="#F2A73B"/>
<path d="M1238 240.729H1243.82V246.522H1238V240.729Z" fill="white"/>
<path d="M1240.91 240.729H1246.73V246.522H1240.91V240.729ZM1229.27 240.729H1235.09V246.522H1229.27V240.729Z" fill="#F2A73B"/>
<path d="M1235.09 246.522H1240.91V252.315H1235.09V246.522ZM1240.91 246.522H1246.73V252.315H1240.91V246.522ZM1229.27 246.522H1235.09V252.315H1229.27V246.522Z" fill="#EE792F"/>
<path d="M1232.18 252.315H1238V258.108H1232.18V252.315Z" fill="white"/>
<path d="M1235.09 252.315H1240.91V258.108H1235.09V252.315Z" fill="#EB5829"/>
<path d="M1246.73 246.522H1252.54V252.315H1246.73V246.522ZM1223.45 246.522H1229.27V252.315H1223.45V246.522Z" fill="#EE792F"/>
<path d="M1243.82 252.315H1249.64V258.108H1243.82V252.315Z" fill="white"/>
<path d="M1246.73 252.315H1252.54V258.108H1246.73V252.315Z" fill="#EB5829"/>
<path d="M1243.82 258.108H1249.64V263.902H1243.82V258.108Z" fill="white"/>
<path d="M1223.45 252.315H1229.27V258.108H1223.45V252.315Z" fill="#EB5829"/>
<path d="M1246.73 258.108H1252.54V263.902H1246.73V258.108ZM1223.45 258.108H1229.27V263.902H1223.45V258.108Z" fill="#EA3326"/>
</g>
<rect x="1314.55" y="358.053" width="72" height="72" rx="36" fill="#1A1A1C"/>
<rect x="1314.55" y="358.053" width="72" height="72" rx="36" stroke="#F4EFE7" stroke-width="8"/>
<g clip-path="url(#clip4_5204_14393)">
<path d="M1346.22 398.957L1358.86 389.578C1359.48 389.118 1360.36 389.298 1360.66 390.012C1362.21 393.778 1361.52 398.304 1358.43 401.412C1355.34 404.52 1351.04 405.201 1347.11 403.649L1342.81 405.648C1348.97 409.881 1356.45 408.834 1361.12 404.132C1364.83 400.404 1365.97 395.324 1364.9 390.742L1364.91 390.752C1363.35 384.022 1365.29 381.331 1369.27 375.83C1369.36 375.7 1369.45 375.569 1369.55 375.436L1364.32 380.692V380.676L1346.22 398.96" fill="white"/>
<path d="M1343.62 401.236C1339.2 396.99 1339.96 390.419 1343.73 386.63C1346.52 383.826 1351.09 382.681 1355.08 384.364L1359.36 382.375C1358.59 381.814 1357.6 381.211 1356.46 380.787C1351.33 378.664 1345.19 379.72 1341.02 383.911C1337.01 387.944 1335.75 394.147 1337.92 399.439C1339.53 403.395 1336.88 406.192 1334.21 409.016C1333.26 410.017 1332.31 411.019 1331.55 412.078L1343.61 401.239" fill="white"/>
</g>
<rect x="1378.55" y="528.053" width="72" height="72" rx="36" fill="#1A1A1C"/>
<rect x="1378.55" y="528.053" width="72" height="72" rx="36" stroke="#F4EFE7" stroke-width="8"/>
<g clip-path="url(#clip5_5204_14393)">
<path d="M1405.37 572.02V567.784C1405.37 564.809 1401.31 563.762 1399.8 566.348L1398.31 568.878C1397.9 569.587 1396.96 569.824 1396.24 569.396C1395.55 568.983 1395.35 568.077 1395.76 567.388L1402.78 555.411C1404.3 552.827 1408.35 553.872 1408.35 556.849V561.101C1408.35 564.074 1412.41 565.121 1413.92 562.54L1418.12 555.402C1419.64 552.819 1423.69 553.867 1423.69 556.841V561.124C1423.69 564.098 1427.74 565.145 1429.26 562.565L1430.78 559.982C1431.2 559.275 1432.13 559.038 1432.85 559.468C1433.55 559.883 1433.74 560.787 1433.34 561.477L1426.28 573.471C1424.76 576.051 1420.71 575.004 1420.71 572.031V567.762C1420.71 564.789 1416.65 563.742 1415.14 566.323L1410.94 573.461C1409.42 576.044 1405.37 574.997 1405.37 572.022V572.02Z" fill="white"/>
</g>
<rect x="1408" y="708" width="72" height="72" rx="36" fill="#1A1A1C"/>
<rect x="1408" y="708" width="72" height="72" rx="36" stroke="#F4EFE7" stroke-width="8"/>
<path d="M1443.25 759.82V751.802L1436.41 758.699C1436.19 758.915 1435.87 758.98 1435.59 758.864C1435.31 758.748 1435.12 758.475 1435.12 758.171V750.988H1432.48C1432.06 750.988 1431.73 750.652 1431.73 750.238V738.503C1431.73 738.089 1432.06 737.753 1432.48 737.753H1435.12V730.595C1435.12 730.293 1435.3 730.021 1435.58 729.903C1435.86 729.786 1436.18 729.847 1436.4 730.057L1443.25 736.727V728.945C1443.25 728.531 1443.59 728.195 1444 728.195C1444.42 728.195 1444.75 728.531 1444.75 728.945V736.728L1451.61 730.057C1451.83 729.846 1452.15 729.786 1452.43 729.903C1452.7 730.021 1452.88 730.293 1452.88 730.595V737.753H1455.53C1455.94 737.753 1456.28 738.089 1456.28 738.503V750.238C1456.28 750.652 1455.94 750.988 1455.53 750.988H1452.88V758.171C1452.88 758.475 1452.7 758.748 1452.42 758.864C1452.14 758.98 1451.82 758.915 1451.6 758.699L1444.75 751.802V759.82C1444.75 760.235 1444.42 760.57 1444 760.57C1443.59 760.57 1443.25 760.234 1443.25 759.82ZM1436.62 747.072V756.351L1443.25 749.673V740.335L1436.62 747.072ZM1444.75 749.673L1451.38 756.351V747.073L1444.75 740.334V749.673ZM1452.67 746.239C1452.81 746.38 1452.88 746.569 1452.88 746.766V749.488H1454.78V739.253H1445.79L1452.67 746.239ZM1433.23 749.488H1435.12V746.766C1435.12 746.569 1435.2 746.38 1435.34 746.239L1442.21 739.253H1433.23V749.488ZM1445.85 737.753H1451.38V732.369L1445.85 737.753ZM1436.62 737.753H1442.16L1436.62 732.37V737.753Z" fill="#20808D"/>
<rect x="1378.55" y="887.947" width="72" height="72" rx="36" fill="#1A1A1C"/>
<rect x="1378.55" y="887.947" width="72" height="72" rx="36" stroke="#F4EFE7" stroke-width="8"/>
<path d="M1414.55 943.33C1413.82 938.549 1411.59 934.126 1408.17 930.708C1404.75 927.289 1400.33 925.054 1395.55 924.33C1400.33 923.605 1404.75 921.37 1408.17 917.952C1411.59 914.533 1413.82 910.11 1414.55 905.33C1415.27 910.11 1417.51 914.533 1420.93 917.951C1424.34 921.37 1428.77 923.605 1433.55 924.33C1428.77 925.054 1424.34 927.289 1420.93 930.708C1417.51 934.126 1415.27 938.549 1414.55 943.33Z" fill="url(#paint0_linear_5204_14393)"/>
<rect x="1314.55" y="1060.05" width="72" height="72" rx="36" fill="#1A1A1C"/>
<rect x="1314.55" y="1060.05" width="72" height="72" rx="36" stroke="#F4EFE7" stroke-width="8"/>
<mask id="mask0_5204_14393" style="mask-type:alpha" maskUnits="userSpaceOnUse" x="1337" y="1078" width="31" height="31">
<path fill-rule="evenodd" clip-rule="evenodd" d="M1346.9 1078.81C1351.87 1078.81 1355.9 1082.78 1355.9 1087.69V1091.06H1358.9C1363.87 1091.06 1367.9 1095.03 1367.9 1099.94C1367.9 1104.84 1363.87 1108.81 1358.9 1108.81H1337.9V1087.69C1337.9 1082.78 1341.93 1078.81 1346.9 1078.81Z" fill="url(#paint1_linear_5204_14393)"/>
</mask>
<g mask="url(#mask0_5204_14393)">
<g filter="url(#filter0_f_5204_14393)">
<path d="M1351.06 1114.79C1362.27 1114.79 1371.37 1105.85 1371.37 1094.82C1371.37 1083.79 1362.27 1074.85 1351.06 1074.85C1339.84 1074.85 1330.75 1083.79 1330.75 1094.82C1330.75 1105.85 1339.84 1114.79 1351.06 1114.79Z" fill="#4B73FF"/>
</g>
<g filter="url(#filter1_f_5204_14393)">
<path d="M1353.28 1103.84C1367.65 1103.84 1379.29 1094.89 1379.29 1083.86C1379.29 1072.83 1367.65 1063.89 1353.28 1063.89C1338.92 1063.89 1327.27 1072.83 1327.27 1083.86C1327.27 1094.89 1338.92 1103.84 1353.28 1103.84Z" fill="#FF66F4"/>
</g>
<g filter="url(#filter2_f_5204_14393)">
<path d="M1357.53 1097.64C1368.74 1097.64 1377.83 1089.79 1377.83 1080.1C1377.83 1070.42 1368.74 1062.56 1357.53 1062.56C1346.31 1062.56 1337.22 1070.42 1337.22 1080.1C1337.22 1089.79 1346.31 1097.64 1357.53 1097.64Z" fill="#FF0105"/>
</g>
<g filter="url(#filter3_f_5204_14393)">
<path d="M1353.65 1095.86C1360.4 1095.86 1365.86 1090.49 1365.86 1083.85C1365.86 1077.22 1360.4 1071.84 1353.65 1071.84C1346.91 1071.84 1341.44 1077.22 1341.44 1083.85C1341.44 1090.49 1346.91 1095.86 1353.65 1095.86Z" fill="#FE7B02"/>
</g>
</g>
<rect x="1196.55" y="1203.05" width="72" height="72" rx="36" fill="#1A1A1C"/>
<rect x="1196.55" y="1203.05" width="72" height="72" rx="36" stroke="#F4EFE7" stroke-width="8"/>
<path fill-rule="evenodd" clip-rule="evenodd" d="M1240.01 1253.42C1236.62 1253.73 1233.78 1249.75 1231.61 1247.74C1230.51 1255.66 1218.54 1254.91 1218.55 1246.87C1218.55 1243.5 1218.55 1235.25 1218.55 1231.98C1218.55 1230.8 1218.87 1229.62 1219.47 1228.62C1220.62 1226.67 1222.84 1225.41 1225.1 1225.44C1228.51 1225.44 1236.71 1225.43 1240.01 1225.44C1248.06 1225.44 1248.82 1237.4 1240.87 1238.48L1244.64 1242.25C1248.79 1246.15 1245.68 1253.59 1240.01 1253.42ZM1238.19 1248.7C1240.52 1251.11 1244.25 1247.38 1241.85 1245.05L1235.31 1238.52H1231.65V1242.17L1237.3 1247.82L1238.19 1248.7ZM1222.51 1246.88C1222.45 1250.22 1227.74 1250.24 1227.69 1246.88V1231.98C1227.73 1230.31 1225.97 1228.98 1224.37 1229.5C1224.3 1229.52 1224.24 1229.54 1224.17 1229.56C1223.17 1229.93 1222.48 1230.96 1222.51 1232.03V1246.88ZM1240.01 1234.56C1243.37 1234.62 1243.37 1229.34 1240.01 1229.39H1231.13C1231.81 1230.81 1231.63 1233.02 1231.65 1234.56H1240.01Z" fill="white"/>
<rect x="1052.55" y="1312.05" width="72" height="72" rx="36" fill="#1A1A1C"/>
<rect x="1052.55" y="1312.05" width="72" height="72" rx="36" stroke="#F4EFE7" stroke-width="8"/>
<path fill-rule="evenodd" clip-rule="evenodd" d="M1089.51 1331.56C1090.13 1332.65 1090.75 1333.75 1091.37 1334.84C1091.39 1334.89 1091.43 1334.92 1091.47 1334.95C1091.51 1334.97 1091.56 1334.99 1091.61 1334.99H1100.4C1100.68 1334.99 1100.91 1335.16 1101.11 1335.5L1103.41 1339.57C1103.71 1340.11 1103.79 1340.33 1103.45 1340.9C1103.04 1341.58 1102.64 1342.27 1102.25 1342.96L1101.67 1344C1101.5 1344.31 1101.31 1344.44 1101.6 1344.81L1105.8 1352.15C1106.07 1352.63 1105.98 1352.93 1105.73 1353.37C1105.04 1354.61 1104.34 1355.85 1103.62 1357.08C1103.37 1357.51 1103.06 1357.67 1102.54 1357.66C1101.31 1357.64 1100.09 1357.65 1098.86 1357.69C1098.83 1357.69 1098.81 1357.7 1098.79 1357.71C1098.76 1357.72 1098.74 1357.74 1098.73 1357.77C1097.32 1360.27 1095.89 1362.78 1094.45 1365.27C1094.18 1365.73 1093.85 1365.85 1093.3 1365.85C1091.72 1365.85 1090.13 1365.85 1088.52 1365.85C1088.37 1365.85 1088.23 1365.81 1088.1 1365.73C1087.97 1365.66 1087.86 1365.55 1087.79 1365.42L1085.67 1361.74C1085.66 1361.72 1085.64 1361.7 1085.62 1361.69C1085.6 1361.67 1085.57 1361.66 1085.54 1361.67H1077.44C1076.99 1361.71 1076.56 1361.66 1076.16 1361.52L1073.63 1357.13C1073.55 1357 1073.51 1356.86 1073.51 1356.71C1073.51 1356.56 1073.55 1356.41 1073.62 1356.28L1075.53 1352.92C1075.56 1352.88 1075.58 1352.82 1075.58 1352.77C1075.58 1352.71 1075.56 1352.66 1075.53 1352.61C1074.54 1350.89 1073.55 1349.16 1072.56 1347.43L1071.31 1345.22C1071.06 1344.73 1071.04 1344.44 1071.46 1343.69C1072.2 1342.41 1072.93 1341.12 1073.66 1339.84C1073.87 1339.47 1074.14 1339.31 1074.59 1339.31C1075.95 1339.3 1077.32 1339.3 1078.68 1339.3C1078.72 1339.3 1078.75 1339.29 1078.78 1339.28C1078.81 1339.26 1078.84 1339.23 1078.85 1339.2L1083.3 1331.45C1083.36 1331.34 1083.46 1331.24 1083.58 1331.17C1083.7 1331.1 1083.83 1331.07 1083.96 1331.06C1084.79 1331.06 1085.63 1331.06 1086.47 1331.06L1088.08 1331.02C1088.62 1331.01 1089.23 1331.07 1089.51 1331.56ZM1084.07 1332.2C1084.06 1332.2 1084.04 1332.2 1084.03 1332.21C1084.01 1332.22 1084 1332.23 1083.99 1332.24L1079.45 1340.18C1079.43 1340.22 1079.4 1340.25 1079.36 1340.27C1079.32 1340.29 1079.28 1340.31 1079.24 1340.31H1074.7C1074.61 1340.31 1074.59 1340.35 1074.64 1340.42L1083.84 1356.5C1083.87 1356.57 1083.86 1356.6 1083.78 1356.6L1079.36 1356.63C1079.29 1356.63 1079.23 1356.64 1079.17 1356.67C1079.12 1356.71 1079.07 1356.75 1079.04 1356.81L1076.95 1360.47C1076.88 1360.59 1076.92 1360.66 1077.06 1360.66L1086.11 1360.67C1086.18 1360.67 1086.23 1360.7 1086.27 1360.76L1088.49 1364.65C1088.57 1364.78 1088.64 1364.78 1088.71 1364.65L1096.64 1350.78L1097.88 1348.59C1097.89 1348.58 1097.9 1348.57 1097.91 1348.56C1097.92 1348.55 1097.94 1348.55 1097.96 1348.55C1097.97 1348.55 1097.99 1348.55 1098 1348.56C1098.01 1348.57 1098.02 1348.58 1098.03 1348.59L1100.29 1352.6C1100.3 1352.63 1100.33 1352.65 1100.36 1352.67C1100.39 1352.69 1100.42 1352.7 1100.46 1352.7L1104.83 1352.66C1104.84 1352.66 1104.85 1352.66 1104.86 1352.66C1104.87 1352.65 1104.88 1352.64 1104.89 1352.63C1104.89 1352.62 1104.89 1352.61 1104.89 1352.6C1104.89 1352.59 1104.89 1352.58 1104.89 1352.57L1100.29 1344.52C1100.28 1344.49 1100.27 1344.46 1100.27 1344.43C1100.27 1344.4 1100.28 1344.36 1100.29 1344.34L1100.76 1343.54L1102.53 1340.4C1102.57 1340.34 1102.55 1340.31 1102.48 1340.31H1084.12C1084.02 1340.31 1084 1340.27 1084.05 1340.18L1086.32 1336.22C1086.34 1336.19 1086.35 1336.16 1086.35 1336.13C1086.35 1336.1 1086.34 1336.07 1086.32 1336.04L1084.16 1332.24C1084.15 1332.23 1084.14 1332.22 1084.12 1332.21C1084.11 1332.2 1084.09 1332.2 1084.07 1332.2ZM1094.03 1344.89C1094.1 1344.89 1094.12 1344.93 1094.09 1344.99L1092.77 1347.31L1088.63 1354.57C1088.62 1354.58 1088.61 1354.59 1088.6 1354.6C1088.58 1354.61 1088.57 1354.61 1088.55 1354.61C1088.54 1354.61 1088.52 1354.61 1088.51 1354.6C1088.49 1354.59 1088.48 1354.58 1088.47 1354.57L1083.01 1345.02C1082.97 1344.96 1082.99 1344.93 1083.05 1344.93L1083.39 1344.91L1094.03 1344.89H1094.03Z" fill="white"/>
<rect x="886.547" y="1387.05" width="72" height="72" rx="36" fill="#1A1A1C"/>
<rect x="886.547" y="1387.05" width="72" height="72" rx="36" stroke="#F4EFE7" stroke-width="8"/>
<path fill-rule="evenodd" clip-rule="evenodd" d="M922.541 1405.05C918.03 1405.06 913.667 1406.62 910.232 1409.46C906.798 1412.3 904.515 1416.23 903.792 1420.55C903.07 1424.88 903.954 1429.31 906.288 1433.06C908.622 1436.81 912.253 1439.63 916.531 1441.02C917.475 1441.19 917.831 1440.62 917.831 1440.13C917.831 1439.65 917.812 1438.24 917.805 1436.7C912.52 1437.81 911.403 1434.52 911.403 1434.52C910.541 1432.38 909.295 1431.82 909.295 1431.82C907.571 1430.67 909.424 1430.7 909.424 1430.7C911.334 1430.83 912.337 1432.6 912.337 1432.6C914.03 1435.42 916.783 1434.6 917.865 1434.13C918.035 1432.93 918.529 1432.12 919.073 1431.66C914.851 1431.19 910.415 1429.61 910.415 1422.54C910.389 1420.71 911.089 1418.93 912.372 1417.59C912.177 1417.12 911.525 1415.24 912.557 1412.7C912.557 1412.7 914.153 1412.2 917.783 1414.59C920.898 1413.76 924.183 1413.76 927.298 1414.59C930.925 1412.2 932.517 1412.7 932.517 1412.7C933.553 1415.24 932.901 1417.11 932.706 1417.59C933.993 1418.93 934.695 1420.71 934.666 1422.55C934.666 1429.63 930.221 1431.19 925.992 1431.65C926.672 1432.22 927.279 1433.35 927.279 1435.07C927.279 1437.54 927.257 1439.52 927.257 1440.13C927.257 1440.62 927.6 1441.2 928.563 1441.02C932.841 1439.63 936.473 1436.81 938.806 1433.06C941.14 1429.31 942.024 1424.88 941.301 1420.55C940.577 1416.23 938.294 1412.29 934.858 1409.45C931.422 1406.61 927.058 1405.05 922.547 1405.05H922.541Z" fill="white"/>
<rect x="704" y="1408" width="72" height="72" rx="36" fill="#1A1A1C"/>
<rect x="704" y="1408" width="72" height="72" rx="36" stroke="#F4EFE7" stroke-width="8"/>
<g clip-path="url(#clip6_5204_14393)">
<path d="M728.456 1450.57L735.931 1446.39L736.056 1446.02L735.931 1445.82H735.565L734.314 1445.75L730.043 1445.63L726.339 1445.48L722.751 1445.29L721.847 1445.09L721 1443.98L721.087 1443.43L721.847 1442.92L722.934 1443.02L725.339 1443.18L728.946 1443.43L731.563 1443.58L735.44 1443.98H736.056L736.142 1443.73L735.931 1443.58L735.767 1443.43L732.034 1440.91L727.994 1438.24L725.878 1436.71L724.733 1435.93L724.155 1435.21L723.905 1433.61L724.944 1432.47L726.339 1432.57L726.695 1432.67L728.109 1433.75L731.13 1436.08L735.074 1438.97L735.652 1439.45L735.882 1439.29L735.911 1439.17L735.652 1438.74L733.506 1434.88L731.217 1430.95L730.197 1429.32L729.928 1428.34C729.831 1427.94 729.764 1427.61 729.764 1427.19L730.947 1425.59L731.601 1425.38L733.179 1425.59L733.843 1426.17L734.824 1428.4L736.412 1431.92L738.874 1436.7L739.596 1438.12L739.981 1439.43L740.125 1439.83H740.375V1439.6L740.577 1436.91L740.952 1433.6L741.318 1429.35L741.443 1428.15L742.04 1426.71L743.223 1425.94L744.146 1426.38L744.906 1427.46L744.8 1428.16L744.348 1431.08L743.463 1435.67L742.886 1438.73H743.223L743.608 1438.35L745.166 1436.29L747.783 1433.03L748.937 1431.74L750.284 1430.31L751.15 1429.63H752.785L753.988 1431.41L753.449 1433.25L751.766 1435.38L750.371 1437.18L748.37 1439.86L747.119 1442.01L747.234 1442.18L747.533 1442.15L752.054 1441.19L754.498 1440.75L757.413 1440.26L758.731 1440.87L758.875 1441.49L758.355 1442.77L755.238 1443.53L751.583 1444.26L746.138 1445.55L746.07 1445.59L746.147 1445.69L748.6 1445.92L749.649 1445.98H752.218L756.999 1446.33L758.25 1447.16L759 1448.16L758.875 1448.93L756.951 1449.91L754.353 1449.29L748.293 1447.85L746.215 1447.34H745.926V1447.51L747.658 1449.2L750.832 1452.05L754.806 1455.73L755.007 1456.64L754.498 1457.36L753.959 1457.28L750.467 1454.67L749.12 1453.49L746.07 1450.93H745.868V1451.2L746.571 1452.22L750.284 1457.78L750.476 1459.49L750.207 1460.04L749.245 1460.38L748.187 1460.19L746.013 1457.15L743.771 1453.73L741.962 1450.66L741.741 1450.79L740.673 1462.24L740.173 1462.82L739.019 1463.26L738.057 1462.54L737.547 1461.36L738.057 1459.03L738.672 1455.99L739.173 1453.58L739.625 1450.58L739.894 1449.58L739.875 1449.51L739.654 1449.54L737.383 1452.65L733.93 1457.29L731.198 1460.21L730.543 1460.47L729.408 1459.88L729.514 1458.84L730.149 1457.91L733.929 1453.12L736.209 1450.14L737.682 1448.43L737.672 1448.18H737.585L727.542 1454.68L725.752 1454.91L724.983 1454.19L725.079 1453.01L725.444 1452.63L728.465 1450.56L728.456 1450.57Z" fill="#D97757"/>
</g>
<rect x="521.453" y="1380.32" width="72" height="72" rx="36" fill="#1A1A1C"/>
<rect x="521.453" y="1380.32" width="72" height="72" rx="36" stroke="#F4EFE7" stroke-width="8"/>
<g clip-path="url(#clip7_5204_14393)">
<path d="M575.075 1405.42C574.694 1405.24 574.529 1405.59 574.307 1405.78C574.231 1405.83 574.166 1405.91 574.102 1405.98C573.544 1406.57 572.893 1406.96 572.042 1406.92C570.799 1406.85 569.737 1407.24 568.798 1408.19C568.598 1407.02 567.935 1406.32 566.927 1405.87C566.399 1405.63 565.865 1405.4 565.495 1404.89C565.237 1404.53 565.166 1404.13 565.037 1403.73C564.955 1403.49 564.872 1403.25 564.598 1403.21C564.298 1403.16 564.181 1403.41 564.064 1403.62C563.594 1404.48 563.413 1405.42 563.431 1406.38C563.471 1408.54 564.38 1410.25 566.188 1411.47C566.393 1411.61 566.446 1411.75 566.381 1411.96C566.258 1412.38 566.111 1412.78 565.982 1413.2C565.9 1413.47 565.777 1413.53 565.489 1413.41C564.515 1413 563.631 1412.4 562.885 1411.64C561.599 1410.4 560.438 1409.03 558.989 1407.96C558.653 1407.71 558.309 1407.47 557.956 1407.25C556.478 1405.82 558.151 1404.64 558.538 1404.5C558.943 1404.35 558.677 1403.85 557.369 1403.86C556.061 1403.86 554.864 1404.3 553.339 1404.88C553.112 1404.97 552.879 1405.04 552.641 1405.09C551.215 1404.82 549.758 1404.77 548.317 1404.93C545.489 1405.25 543.232 1406.59 541.571 1408.87C539.576 1411.61 539.107 1414.73 539.681 1417.98C540.286 1421.4 542.035 1424.24 544.721 1426.46C547.508 1428.76 550.717 1429.88 554.378 1429.67C556.601 1429.54 559.078 1429.24 561.869 1426.88C562.574 1427.23 563.312 1427.37 564.539 1427.47C565.484 1427.56 566.393 1427.43 567.097 1427.28C568.199 1427.05 568.123 1426.02 567.725 1425.84C564.493 1424.33 565.202 1424.95 564.556 1424.45C566.2 1422.5 568.675 1420.49 569.644 1413.94C569.719 1413.42 569.654 1413.1 569.644 1412.68C569.638 1412.42 569.696 1412.32 569.989 1412.29C570.8 1412.21 571.587 1411.97 572.306 1411.58C574.4 1410.44 575.246 1408.56 575.446 1406.3C575.476 1405.96 575.44 1405.61 575.075 1405.42ZM556.825 1425.7C553.691 1423.24 552.172 1422.43 551.545 1422.46C550.957 1422.5 551.063 1423.17 551.192 1423.61C551.327 1424.04 551.503 1424.33 551.749 1424.71C551.92 1424.96 552.037 1425.34 551.579 1425.62C550.57 1426.24 548.816 1425.41 548.734 1425.37C546.692 1424.17 544.984 1422.58 543.782 1420.41C542.621 1418.32 541.946 1416.08 541.835 1413.68C541.805 1413.11 541.975 1412.9 542.551 1412.8C543.307 1412.65 544.081 1412.63 544.844 1412.74C548.042 1413.21 550.763 1414.64 553.046 1416.9C554.348 1418.19 555.334 1419.73 556.349 1421.24C557.429 1422.83 558.59 1424.36 560.069 1425.61C560.591 1426.04 561.007 1426.38 561.406 1426.62C560.203 1426.76 558.196 1426.79 556.825 1425.7ZM558.325 1416.04C558.324 1415.97 558.342 1415.89 558.377 1415.83C558.411 1415.76 558.461 1415.7 558.522 1415.66C558.584 1415.62 558.654 1415.59 558.728 1415.58C558.802 1415.58 558.877 1415.58 558.947 1415.61C559.036 1415.64 559.112 1415.7 559.166 1415.78C559.22 1415.86 559.248 1415.95 559.247 1416.04C559.247 1416.1 559.235 1416.16 559.212 1416.22C559.189 1416.28 559.154 1416.33 559.111 1416.37C559.068 1416.41 559.016 1416.45 558.96 1416.47C558.903 1416.49 558.843 1416.5 558.782 1416.5C558.722 1416.5 558.662 1416.49 558.606 1416.47C558.55 1416.45 558.499 1416.41 558.457 1416.37C558.415 1416.33 558.381 1416.27 558.359 1416.22C558.336 1416.16 558.324 1416.1 558.325 1416.04ZM562.99 1418.44C562.69 1418.56 562.391 1418.66 562.105 1418.68C561.674 1418.69 561.251 1418.56 560.908 1418.29C560.497 1417.95 560.203 1417.76 560.08 1417.16C560.037 1416.86 560.045 1416.57 560.104 1416.28C560.209 1415.78 560.092 1415.47 559.745 1415.18C559.465 1414.95 559.106 1414.89 558.713 1414.89C558.578 1414.88 558.448 1414.84 558.332 1414.77C558.284 1414.75 558.24 1414.72 558.205 1414.68C558.17 1414.64 558.143 1414.59 558.127 1414.54C558.111 1414.49 558.106 1414.43 558.112 1414.38C558.117 1414.33 558.134 1414.28 558.161 1414.23C558.203 1414.15 558.401 1413.95 558.449 1413.92C558.983 1413.61 559.6 1413.71 560.168 1413.94C560.696 1414.16 561.095 1414.55 561.67 1415.11C562.256 1415.79 562.363 1415.98 562.697 1416.49C562.961 1416.88 563.201 1417.29 563.365 1417.76C563.465 1418.05 563.336 1418.29 562.99 1418.44Z" fill="#4D6BFE"/>
</g>
<rect x="354.547" y="1314.05" width="72" height="72" rx="36" fill="#1A1A1C"/>
<rect x="354.547" y="1314.05" width="72" height="72" rx="36" stroke="#F4EFE7" stroke-width="8"/>
<g clip-path="url(#clip8_5204_14393)">
<path d="M406.616 1346.96C407.036 1345.68 407.181 1344.33 407.042 1342.99C406.903 1341.65 406.483 1340.36 405.811 1339.2C403.765 1335.59 399.652 1333.74 395.636 1334.61C394.524 1333.36 393.106 1332.43 391.525 1331.91C389.944 1331.39 388.255 1331.3 386.627 1331.64C385 1331.99 383.492 1332.77 382.254 1333.89C381.016 1335.01 380.093 1336.45 379.576 1338.04C378.272 1338.31 377.04 1338.86 375.963 1339.65C374.886 1340.44 373.987 1341.46 373.328 1342.63C371.26 1346.22 371.73 1350.76 374.489 1353.84C374.068 1355.12 373.922 1356.47 374.06 1357.81C374.197 1359.15 374.616 1360.44 375.288 1361.6C377.336 1365.21 381.451 1367.06 385.47 1366.19C386.353 1367.19 387.439 1368 388.654 1368.55C389.869 1369.09 391.186 1369.37 392.516 1369.37C396.632 1369.37 400.279 1366.68 401.537 1362.72C402.841 1362.45 404.072 1361.9 405.15 1361.11C406.227 1360.32 407.125 1359.3 407.785 1358.14C409.828 1354.55 409.356 1350.04 406.616 1346.96ZM392.516 1366.88C390.873 1366.89 389.281 1366.3 388.02 1365.24L388.242 1365.11L395.71 1360.75C395.896 1360.64 396.05 1360.49 396.158 1360.3C396.266 1360.11 396.323 1359.89 396.324 1359.68V1349.03L399.481 1350.88C399.513 1350.89 399.535 1350.92 399.54 1350.96V1359.78C399.532 1363.7 396.392 1366.88 392.516 1366.88ZM377.417 1360.36C376.593 1358.93 376.298 1357.24 376.582 1355.6L376.804 1355.74L384.279 1360.09C384.464 1360.2 384.675 1360.26 384.889 1360.26C385.103 1360.26 385.314 1360.2 385.499 1360.09L394.631 1354.77V1358.46C394.63 1358.48 394.625 1358.49 394.616 1358.51C394.607 1358.53 394.594 1358.54 394.579 1358.55L387.015 1362.97C383.653 1364.92 379.359 1363.76 377.417 1360.36ZM375.45 1343.91C376.28 1342.47 377.59 1341.36 379.148 1340.8V1349.77C379.145 1349.99 379.2 1350.2 379.306 1350.39C379.413 1350.58 379.567 1350.73 379.754 1350.84L388.841 1356.14L385.684 1357.99C385.667 1358 385.648 1358 385.628 1358C385.609 1358 385.59 1358 385.573 1357.99L378.024 1353.58C374.669 1351.62 373.519 1347.28 375.45 1343.88V1343.91ZM401.389 1350.01L392.272 1344.65L395.422 1342.82C395.439 1342.81 395.458 1342.8 395.477 1342.8C395.497 1342.8 395.516 1342.81 395.533 1342.82L403.082 1347.23C404.237 1347.9 405.178 1348.89 405.795 1350.09C406.413 1351.28 406.682 1352.63 406.572 1353.97C406.461 1355.31 405.974 1356.6 405.169 1357.67C404.364 1358.74 403.274 1359.56 402.025 1360.03V1351.06C402.018 1350.85 401.956 1350.63 401.845 1350.45C401.733 1350.27 401.576 1350.11 401.389 1350.01ZM404.531 1345.23L404.309 1345.1L396.849 1340.7C396.663 1340.59 396.451 1340.53 396.235 1340.53C396.019 1340.53 395.808 1340.59 395.622 1340.7L386.497 1346.02V1342.34C386.495 1342.32 386.498 1342.3 386.506 1342.28C386.514 1342.26 386.526 1342.25 386.542 1342.24L394.091 1337.84C395.248 1337.16 396.571 1336.83 397.905 1336.89C399.239 1336.95 400.529 1337.39 401.624 1338.16C402.719 1338.94 403.574 1340.01 404.089 1341.26C404.604 1342.5 404.757 1343.87 404.531 1345.2V1345.23H404.531ZM384.774 1351.77L381.617 1349.93C381.601 1349.92 381.588 1349.9 381.578 1349.89C381.567 1349.87 381.561 1349.85 381.558 1349.84V1341.04C381.56 1339.69 381.941 1338.36 382.659 1337.23C383.376 1336.09 384.399 1335.18 385.608 1334.61C386.817 1334.03 388.162 1333.82 389.486 1333.99C390.81 1334.16 392.059 1334.71 393.085 1335.58L392.863 1335.7L385.396 1340.06C385.21 1340.17 385.055 1340.33 384.948 1340.52C384.84 1340.71 384.783 1340.92 384.782 1341.14L384.774 1351.77V1351.77ZM386.49 1348.03L390.557 1345.66L394.631 1348.03V1352.77L390.571 1355.14L386.497 1352.77L386.49 1348.03Z" fill="white"/>
</g>
<rect x="208.547" y="1203.05" width="72" height="72" rx="36" fill="#1A1A1C"/>
<rect x="208.547" y="1203.05" width="72" height="72" rx="36" stroke="#F4EFE7" stroke-width="8"/>
<g clip-path="url(#clip9_5204_14393)">
<path d="M251.82 1224.94H257.638V1230.73H251.82V1224.94Z" fill="white"/>
<path d="M254.727 1224.94H260.545V1230.73H254.727V1224.94Z" fill="#F7D046"/>
<path d="M228.547 1224.94H234.365V1230.73H228.547V1224.94ZM228.547 1230.73H234.365V1236.52H228.547V1230.73ZM228.547 1236.52H234.365V1242.32H228.547V1236.52ZM228.547 1242.32H234.365V1248.11H228.547V1242.32ZM228.547 1248.11H234.365V1253.9H228.547V1248.11Z" fill="white"/>
<path d="M231.453 1224.94H237.271V1230.73H231.453V1224.94Z" fill="#F7D046"/>
<path d="M254.726 1230.73H260.544V1236.52H254.726V1230.73ZM231.453 1230.73H237.271V1236.52H231.453V1230.73Z" fill="#F2A73B"/>
<path d="M246 1230.73H251.818V1236.52H246V1230.73Z" fill="white"/>
<path d="M248.91 1230.73H254.728V1236.52H248.91V1230.73ZM237.273 1230.73H243.092V1236.52H237.273V1230.73Z" fill="#F2A73B"/>
<path d="M243.092 1236.52H248.91V1242.32H243.092V1236.52ZM248.91 1236.52H254.728V1242.32H248.91V1236.52ZM237.273 1236.52H243.092V1242.32H237.273V1236.52Z" fill="#EE792F"/>
<path d="M240.18 1242.32H245.998V1248.11H240.18V1242.32Z" fill="white"/>
<path d="M243.094 1242.32H248.912V1248.11H243.094V1242.32Z" fill="#EB5829"/>
<path d="M254.726 1236.52H260.544V1242.32H254.726V1236.52ZM231.453 1236.52H237.271V1242.32H231.453V1236.52Z" fill="#EE792F"/>
<path d="M251.82 1242.32H257.638V1248.11H251.82V1242.32Z" fill="white"/>
<path d="M254.727 1242.32H260.545V1248.11H254.727V1242.32Z" fill="#EB5829"/>
<path d="M251.82 1248.11H257.638V1253.9H251.82V1248.11Z" fill="white"/>
<path d="M231.453 1242.32H237.271V1248.11H231.453V1242.32Z" fill="#EB5829"/>
<path d="M254.726 1248.11H260.544V1253.9H254.726V1248.11ZM231.453 1248.11H237.271V1253.9H231.453V1248.11Z" fill="#EA3326"/>
</g>
<rect x="96.5469" y="1058.05" width="72" height="72" rx="36" fill="#1A1A1C"/>
<rect x="96.5469" y="1058.05" width="72" height="72" rx="36" stroke="#F4EFE7" stroke-width="8"/>
<g clip-path="url(#clip10_5204_14393)">
<path d="M128.224 1098.96L140.857 1089.58C141.476 1089.12 142.361 1089.3 142.657 1090.01C144.21 1093.78 143.516 1098.3 140.426 1101.41C137.335 1104.52 133.036 1105.2 129.106 1103.65L124.812 1105.65C130.97 1109.88 138.448 1108.83 143.12 1104.13C146.827 1100.4 147.974 1095.32 146.901 1090.74L146.911 1090.75C145.354 1084.02 147.293 1081.33 151.266 1075.83C151.36 1075.7 151.454 1075.57 151.548 1075.44L146.321 1080.69V1080.68L128.22 1098.96" fill="white"/>
<path d="M125.616 1101.24C121.196 1096.99 121.958 1090.42 125.729 1086.63C128.518 1083.83 133.087 1082.68 137.075 1084.36L141.359 1082.37C140.587 1081.81 139.598 1081.21 138.463 1080.79C133.333 1078.66 127.192 1079.72 123.022 1083.91C119.011 1087.94 117.749 1094.15 119.915 1099.44C121.533 1103.39 118.881 1106.19 116.209 1109.02C115.262 1110.02 114.312 1111.02 113.547 1112.08L125.613 1101.24" fill="white"/>
</g>
<rect x="32.5469" y="890" width="72" height="72" rx="36" fill="#1A1A1C"/>
<rect x="32.5469" y="890" width="72" height="72" rx="36" stroke="#F4EFE7" stroke-width="8"/>
<g clip-path="url(#clip11_5204_14393)">
<path d="M59.3707 933.968V929.731C59.3707 926.756 55.3148 925.709 53.799 928.295L52.3146 930.825C51.8993 931.534 50.9621 931.771 50.2409 931.343C49.5452 930.93 49.3518 930.024 49.7551 929.335L56.7812 917.358C58.2971 914.774 62.3529 915.819 62.3529 918.796V923.048C62.3529 926.022 66.4073 927.069 67.9246 924.487L72.1185 917.349C73.6357 914.767 77.69 915.814 77.69 918.789V923.071C77.69 926.045 81.7414 927.092 83.2604 924.512L84.7806 921.93C85.1974 921.222 86.1345 920.985 86.8544 921.415C87.55 921.83 87.742 922.735 87.3371 923.424L80.278 935.419C78.7592 937.998 74.7078 936.951 74.7078 933.978V929.709C74.7078 926.736 70.6535 925.689 69.1361 928.27L64.9424 935.408C63.425 937.991 59.3707 936.944 59.3707 933.969V933.968Z" fill="white"/>
</g>
<rect x="4" y="702" width="72" height="72" rx="36" fill="#1A1A1C"/>
<rect x="4" y="702" width="72" height="72" rx="36" stroke="#F4EFE7" stroke-width="8"/>
<path d="M39.2529 753.82V745.802L32.4053 752.699C32.1912 752.915 31.8678 752.98 31.5869 752.864C31.3061 752.748 31.123 752.475 31.123 752.171V744.988H28.4766C28.0625 744.988 27.7267 744.652 27.7266 744.238V732.503C27.7267 732.089 28.0624 731.753 28.4766 731.753H31.123V724.595C31.123 724.293 31.3033 724.021 31.5811 723.903C31.8587 723.786 32.1794 723.847 32.3955 724.057L39.2529 730.727V722.945C39.2529 722.531 39.5889 722.195 40.0029 722.195C40.4171 722.195 40.7529 722.531 40.7529 722.945V730.728L47.6104 724.057C47.8264 723.846 48.1481 723.786 48.4258 723.903C48.7034 724.021 48.8838 724.293 48.8838 724.595V731.753H51.5303C51.9443 731.753 52.2802 732.089 52.2803 732.503V744.238C52.2801 744.652 51.9442 744.988 51.5303 744.988H48.8838V752.171C48.8838 752.475 48.6999 752.748 48.4189 752.864C48.1381 752.98 47.8156 752.915 47.6016 752.699L40.7529 745.802V753.82C40.7529 754.235 40.4171 754.57 40.0029 754.57C39.5889 754.57 39.2529 754.234 39.2529 753.82ZM32.623 741.072V750.351L39.2529 743.673V734.335L32.623 741.072ZM40.7529 743.673L47.3838 750.351V741.073L40.7529 734.334V743.673ZM48.668 740.239C48.806 740.38 48.8838 740.569 48.8838 740.766V743.488H50.7803V733.253H41.793L48.668 740.239ZM29.2266 743.488H31.123V740.766C31.1231 740.569 31.1999 740.38 31.3379 740.239L38.2139 733.253H29.2266V743.488ZM41.8506 731.753H47.3838V726.369L41.8506 731.753ZM32.623 731.753H38.1562L32.623 726.37V731.753Z" fill="#20808D"/>
<rect x="32.5469" y="528.053" width="72" height="72" rx="36" fill="#1A1A1C"/>
<rect x="32.5469" y="528.053" width="72" height="72" rx="36" stroke="#F4EFE7" stroke-width="8"/>
<path d="M68.5469 583.436C67.8227 578.655 65.5877 574.232 62.169 570.813C58.7502 567.395 54.3272 565.16 49.5469 564.436C54.3272 563.711 58.7502 561.476 62.169 558.058C65.5877 554.639 67.8227 550.216 68.5469 545.436C69.2713 550.216 71.5064 554.639 74.9251 558.057C78.3438 561.476 82.7667 563.711 87.5469 564.436C82.7667 565.16 78.3438 567.395 74.9251 570.814C71.5064 574.232 69.2713 578.655 68.5469 583.436Z" fill="url(#paint2_linear_5204_14393)"/>
<rect x="96.5469" y="358.053" width="72" height="72" rx="36" fill="#1A1A1C"/>
<rect x="96.5469" y="358.053" width="72" height="72" rx="36" stroke="#F4EFE7" stroke-width="8"/>
<mask id="mask1_5204_14393" style="mask-type:alpha" maskUnits="userSpaceOnUse" x="119" y="376" width="31" height="31">
<path fill-rule="evenodd" clip-rule="evenodd" d="M128.9 376.811C133.871 376.811 137.901 380.784 137.901 385.686V389.059H140.897C145.868 389.059 149.898 393.033 149.898 397.935C149.898 402.837 145.868 406.811 140.897 406.811H119.898V385.686C119.898 380.784 123.928 376.811 128.9 376.811Z" fill="url(#paint3_linear_5204_14393)"/>
</mask>
<g mask="url(#mask1_5204_14393)">
<g filter="url(#filter4_f_5204_14393)">
<path d="M133.058 412.792C144.273 412.792 153.365 403.85 153.365 392.821C153.365 381.791 144.273 372.849 133.058 372.849C121.842 372.849 112.75 381.791 112.75 392.821C112.75 403.85 121.842 412.792 133.058 412.792Z" fill="#4B73FF"/>
</g>
<g filter="url(#filter5_f_5204_14393)">
<path d="M135.282 401.836C149.646 401.836 161.29 392.894 161.29 381.865C161.29 370.835 149.646 361.894 135.282 361.894C120.918 361.894 109.273 370.835 109.273 381.865C109.273 392.894 120.918 401.836 135.282 401.836Z" fill="#FF66F4"/>
</g>
<g filter="url(#filter6_f_5204_14393)">
<path d="M139.526 395.641C150.742 395.641 159.834 387.789 159.834 378.102C159.834 368.416 150.742 360.563 139.526 360.563C128.311 360.563 119.219 368.416 119.219 378.102C119.219 387.789 128.311 395.641 139.526 395.641Z" fill="#FF0105"/>
</g>
<g filter="url(#filter7_f_5204_14393)">
<path d="M135.65 393.865C142.395 393.865 147.863 388.487 147.863 381.854C147.863 375.221 142.395 369.843 135.65 369.843C128.905 369.843 123.438 375.221 123.438 381.854C123.438 388.487 128.905 393.865 135.65 393.865Z" fill="#FE7B02"/>
</g>
</g>
<rect x="208.547" y="213.391" width="72" height="72" rx="36" fill="#1A1A1C"/>
<rect x="208.547" y="213.391" width="72" height="72" rx="36" stroke="#F4EFE7" stroke-width="8"/>
<path fill-rule="evenodd" clip-rule="evenodd" d="M252.012 263.756C248.62 264.066 245.783 260.091 243.609 258.075C242.51 265.997 230.539 265.246 230.547 257.21C230.551 253.834 230.547 245.586 230.547 242.317C230.547 241.142 230.869 239.958 231.475 238.954C232.623 237.007 234.842 235.75 237.102 235.775C240.507 235.779 248.706 235.771 252.012 235.775C260.056 235.775 260.82 247.741 252.871 248.819L256.643 252.586C260.787 256.483 257.677 263.928 252.012 263.756ZM250.185 259.042C252.523 261.45 256.255 257.72 253.847 255.385L247.308 248.856H243.65V252.512L249.303 258.157L250.185 259.042ZM234.507 257.214C234.454 260.561 239.739 260.573 239.686 257.214V242.317C239.73 240.648 237.965 239.321 236.371 239.836C236.302 239.856 236.236 239.876 236.175 239.901C235.173 240.272 234.479 241.297 234.507 242.366V257.214ZM252.012 244.9C255.372 244.954 255.368 239.676 252.012 239.729H243.131C243.806 241.15 243.634 243.362 243.646 244.9H252.012Z" fill="white"/>
<rect x="354.547" y="101.391" width="72" height="72" rx="36" fill="#1A1A1C"/>
<rect x="354.547" y="101.391" width="72" height="72" rx="36" stroke="#F4EFE7" stroke-width="8"/>
<path fill-rule="evenodd" clip-rule="evenodd" d="M391.507 120.895C392.129 121.988 392.748 123.083 393.365 124.181C393.39 124.224 393.427 124.261 393.47 124.286C393.514 124.312 393.564 124.325 393.614 124.325H402.405C402.68 124.325 402.915 124.499 403.111 124.842L405.413 128.912C405.714 129.445 405.793 129.668 405.451 130.237C405.039 130.918 404.639 131.605 404.248 132.295L403.667 133.337C403.499 133.647 403.314 133.78 403.603 134.148L407.802 141.49C408.075 141.966 407.978 142.272 407.734 142.709C407.042 143.952 406.338 145.185 405.62 146.414C405.369 146.844 405.063 147.007 404.544 147C403.314 146.974 402.086 146.984 400.859 147.025C400.833 147.026 400.807 147.034 400.785 147.048C400.763 147.062 400.744 147.081 400.731 147.104C399.315 149.613 397.888 152.114 396.448 154.609C396.181 155.073 395.847 155.184 395.3 155.185C393.722 155.19 392.13 155.192 390.523 155.189C390.374 155.188 390.227 155.148 390.098 155.073C389.968 154.998 389.861 154.889 389.787 154.759L387.673 151.081C387.661 151.057 387.642 151.037 387.619 151.024C387.596 151.01 387.569 151.003 387.542 151.004H379.438C378.987 151.051 378.563 151.002 378.164 150.858L375.626 146.472C375.551 146.342 375.511 146.195 375.51 146.045C375.51 145.895 375.548 145.748 375.623 145.617L377.534 142.261C377.561 142.213 377.575 142.159 377.575 142.105C377.575 142.05 377.561 141.996 377.534 141.949C376.538 140.225 375.549 138.498 374.565 136.768L373.314 134.559C373.061 134.068 373.04 133.774 373.465 133.031C374.201 131.744 374.932 130.458 375.661 129.174C375.87 128.804 376.142 128.646 376.585 128.644C377.952 128.638 379.318 128.638 380.685 128.642C380.719 128.642 380.753 128.633 380.783 128.615C380.812 128.598 380.837 128.573 380.854 128.543L385.297 120.792C385.364 120.674 385.461 120.576 385.579 120.508C385.696 120.44 385.829 120.403 385.965 120.403C386.795 120.401 387.632 120.403 388.471 120.393L390.082 120.357C390.622 120.352 391.228 120.407 391.507 120.895ZM386.073 121.533C386.056 121.533 386.04 121.538 386.025 121.546C386.011 121.554 385.999 121.566 385.99 121.581L381.452 129.521C381.431 129.559 381.399 129.59 381.362 129.611C381.324 129.633 381.282 129.644 381.239 129.645H376.701C376.612 129.645 376.59 129.684 376.636 129.762L385.835 145.842C385.875 145.909 385.856 145.94 385.781 145.942L381.356 145.966C381.291 145.964 381.227 145.98 381.171 146.012C381.115 146.045 381.069 146.092 381.039 146.149L378.949 149.807C378.88 149.93 378.916 149.994 379.057 149.994L388.107 150.006C388.18 150.006 388.234 150.038 388.272 150.103L390.493 153.988C390.566 154.117 390.639 154.118 390.713 153.988L398.64 140.118L399.879 137.93C399.887 137.917 399.898 137.905 399.911 137.898C399.925 137.89 399.94 137.886 399.955 137.886C399.971 137.886 399.986 137.89 399.999 137.898C400.013 137.905 400.024 137.917 400.031 137.93L402.286 141.936C402.303 141.966 402.327 141.991 402.357 142.008C402.387 142.025 402.421 142.034 402.455 142.034L406.83 142.003C406.841 142.003 406.852 142 406.862 141.994C406.872 141.989 406.88 141.981 406.886 141.971C406.891 141.961 406.894 141.95 406.894 141.939C406.894 141.928 406.891 141.917 406.886 141.908L402.294 133.855C402.277 133.828 402.269 133.797 402.269 133.765C402.269 133.734 402.277 133.703 402.294 133.676L402.758 132.873L404.531 129.743C404.569 129.678 404.55 129.645 404.476 129.645H386.117C386.024 129.645 386.001 129.603 386.049 129.523L388.319 125.556C388.336 125.529 388.345 125.498 388.345 125.466C388.345 125.434 388.336 125.403 388.319 125.376L386.157 121.582C386.148 121.567 386.136 121.555 386.121 121.546C386.107 121.538 386.09 121.533 386.073 121.533ZM396.032 134.232C396.105 134.232 396.124 134.263 396.086 134.327L394.768 136.646L390.631 143.906C390.623 143.92 390.612 143.932 390.598 143.94C390.584 143.948 390.568 143.952 390.552 143.952C390.536 143.952 390.52 143.947 390.506 143.939C390.492 143.931 390.481 143.92 390.473 143.906L385.005 134.355C384.974 134.301 384.99 134.273 385.05 134.27L385.392 134.251L396.035 134.232H396.032Z" fill="white"/>
<rect x="523.453" y="36" width="72" height="72" rx="36" fill="#1A1A1C"/>
<rect x="523.453" y="36" width="72" height="72" rx="36" stroke="#F4EFE7" stroke-width="8"/>
<path fill-rule="evenodd" clip-rule="evenodd" d="M559.447 54C554.936 54.0023 550.573 55.5629 547.139 58.4028C543.704 61.2427 541.421 65.1767 540.699 69.5013C539.976 73.826 540.861 78.2593 543.194 82.0085C545.528 85.7577 549.159 88.5784 553.437 89.9661C554.381 90.1372 554.737 89.5658 554.737 89.0799C554.737 88.594 554.718 87.1851 554.712 85.6449C549.426 86.7604 548.309 83.466 548.309 83.466C547.447 81.3268 546.201 80.7645 546.201 80.7645C544.477 79.6215 546.33 79.6429 546.33 79.6429C548.24 79.7743 549.243 81.5468 549.243 81.5468C550.936 84.3675 553.689 83.5516 554.771 83.0748C554.941 81.8799 555.435 81.067 555.98 80.6056C551.757 80.1411 547.321 78.558 547.321 71.4865C547.295 69.6525 547.996 67.8789 549.278 66.5327C549.083 66.0682 548.432 64.1918 549.464 61.6431C549.464 61.6431 551.059 61.148 554.69 63.5347C557.804 62.7075 561.09 62.7075 564.204 63.5347C567.832 61.148 569.424 61.6431 569.424 61.6431C570.459 64.1857 569.808 66.062 569.613 66.5327C570.899 67.8791 571.601 69.6558 571.573 71.4926C571.573 78.5794 567.127 80.1411 562.898 80.5964C563.578 81.1709 564.185 82.2925 564.185 84.0161C564.185 86.4853 564.163 88.4717 564.163 89.0799C564.163 89.5719 564.506 90.1464 565.469 89.9661C569.748 88.5782 573.379 85.757 575.713 82.0072C578.046 78.2573 578.931 73.8234 578.207 69.4983C577.484 65.1733 575.2 61.2393 571.764 58.3998C568.328 55.5604 563.964 54.0008 559.453 54H559.447Z" fill="white"/>
<defs>
<filter id="filter0_f_5204_14393" x="1294.36" y="1038.46" width="113.393" height="112.718" filterUnits="userSpaceOnUse" color-interpolation-filters="sRGB">
<feFlood flood-opacity="0" result="BackgroundImageFix"/>
<feBlend mode="normal" in="SourceGraphic" in2="BackgroundImageFix" result="shape"/>
<feGaussianBlur stdDeviation="18.194" result="effect1_foregroundBlur_5204_14393"/>
</filter>
<filter id="filter1_f_5204_14393" x="1290.89" y="1027.51" width="124.792" height="112.718" filterUnits="userSpaceOnUse" color-interpolation-filters="sRGB">
<feFlood flood-opacity="0" result="BackgroundImageFix"/>
<feBlend mode="normal" in="SourceGraphic" in2="BackgroundImageFix" result="shape"/>
<feGaussianBlur stdDeviation="18.194" result="effect1_foregroundBlur_5204_14393"/>
</filter>
<filter id="filter2_f_5204_14393" x="1300.83" y="1026.18" width="113.393" height="107.854" filterUnits="userSpaceOnUse" color-interpolation-filters="sRGB">
<feFlood flood-opacity="0" result="BackgroundImageFix"/>
<feBlend mode="normal" in="SourceGraphic" in2="BackgroundImageFix" result="shape"/>
<feGaussianBlur stdDeviation="18.194" result="effect1_foregroundBlur_5204_14393"/>
</filter>
<filter id="filter3_f_5204_14393" x="1305.05" y="1035.46" width="97.1979" height="96.7972" filterUnits="userSpaceOnUse" color-interpolation-filters="sRGB">
<feFlood flood-opacity="0" result="BackgroundImageFix"/>
<feBlend mode="normal" in="SourceGraphic" in2="BackgroundImageFix" result="shape"/>
<feGaussianBlur stdDeviation="18.194" result="effect1_foregroundBlur_5204_14393"/>
</filter>
<filter id="filter4_f_5204_14393" x="76.362" y="336.461" width="113.393" height="112.718" filterUnits="userSpaceOnUse" color-interpolation-filters="sRGB">
<feFlood flood-opacity="0" result="BackgroundImageFix"/>
<feBlend mode="normal" in="SourceGraphic" in2="BackgroundImageFix" result="shape"/>
<feGaussianBlur stdDeviation="18.194" result="effect1_foregroundBlur_5204_14393"/>
</filter>
<filter id="filter5_f_5204_14393" x="72.8854" y="325.506" width="124.792" height="112.718" filterUnits="userSpaceOnUse" color-interpolation-filters="sRGB">
<feFlood flood-opacity="0" result="BackgroundImageFix"/>
<feBlend mode="normal" in="SourceGraphic" in2="BackgroundImageFix" result="shape"/>
<feGaussianBlur stdDeviation="18.194" result="effect1_foregroundBlur_5204_14393"/>
</filter>
<filter id="filter6_f_5204_14393" x="82.8307" y="324.175" width="113.393" height="107.854" filterUnits="userSpaceOnUse" color-interpolation-filters="sRGB">
<feFlood flood-opacity="0" result="BackgroundImageFix"/>
<feBlend mode="normal" in="SourceGraphic" in2="BackgroundImageFix" result="shape"/>
<feGaussianBlur stdDeviation="18.194" result="effect1_foregroundBlur_5204_14393"/>
</filter>
<filter id="filter7_f_5204_14393" x="87.0495" y="333.455" width="97.1979" height="96.7974" filterUnits="userSpaceOnUse" color-interpolation-filters="sRGB">
<feFlood flood-opacity="0" result="BackgroundImageFix"/>
<feBlend mode="normal" in="SourceGraphic" in2="BackgroundImageFix" result="shape"/>
<feGaussianBlur stdDeviation="18.194" result="effect1_foregroundBlur_5204_14393"/>
</filter>
<linearGradient id="paint0_linear_5204_14393" x1="1402.14" y1="937.134" x2="1432.89" y2="924.983" gradientUnits="userSpaceOnUse">
<stop stop-color="#1C7DFF"/>
<stop offset="0.52021" stop-color="#1C69FF"/>
<stop offset="1" stop-color="#F0DCD6"/>
</linearGradient>
<linearGradient id="paint1_linear_5204_14393" x1="1347.99" y1="1084.08" x2="1356.87" y2="1108.89" gradientUnits="userSpaceOnUse">
<stop offset="0.025" stop-color="#FF8E63"/>
<stop offset="0.56" stop-color="#FF7EB0"/>
<stop offset="0.95" stop-color="#4B73FF"/>
</linearGradient>
<linearGradient id="paint2_linear_5204_14393" x1="56.1408" y1="577.24" x2="86.8905" y2="565.089" gradientUnits="userSpaceOnUse">
<stop stop-color="#1C7DFF"/>
<stop offset="0.52021" stop-color="#1C69FF"/>
<stop offset="1" stop-color="#F0DCD6"/>
</linearGradient>
<linearGradient id="paint3_linear_5204_14393" x1="129.994" y1="382.083" x2="138.868" y2="406.895" gradientUnits="userSpaceOnUse">
<stop offset="0.025" stop-color="#FF8E63"/>
<stop offset="0.56" stop-color="#FF7EB0"/>
<stop offset="0.95" stop-color="#4B73FF"/>
</linearGradient>
<clipPath id="clip0_5204_14393">
<rect width="38" height="38" fill="white" transform="translate(721 21.3828)"/>
</clipPath>
<clipPath id="clip1_5204_14393">
<rect width="36" height="36" fill="white" transform="translate(902.547 50.4355)"/>
</clipPath>
<clipPath id="clip2_5204_14393">
<rect width="37" height="38" fill="white" transform="translate(1072.05 119.436)"/>
</clipPath>
<clipPath id="clip3_5204_14393">
<rect width="32" height="29" fill="white" transform="translate(1220.55 234.936)"/>
</clipPath>
<clipPath id="clip4_5204_14393">
<rect width="38" height="38" fill="white" transform="translate(1331.55 375.436)"/>
</clipPath>
<clipPath id="clip5_5204_14393">
<rect width="38" height="21" fill="white" transform="translate(1395.55 553.936)"/>
</clipPath>
<clipPath id="clip6_5204_14393">
<rect width="38" height="38" fill="white" transform="translate(721 1425.38)"/>
</clipPath>
<clipPath id="clip7_5204_14393">
<rect width="36" height="36" fill="white" transform="translate(539.453 1398.7)"/>
</clipPath>
<clipPath id="clip8_5204_14393">
<rect width="37" height="38" fill="white" transform="translate(372.047 1331.44)"/>
</clipPath>
<clipPath id="clip9_5204_14393">
<rect width="32" height="29" fill="white" transform="translate(228.547 1224.94)"/>
</clipPath>
<clipPath id="clip10_5204_14393">
<rect width="38" height="38" fill="white" transform="translate(113.547 1075.44)"/>
</clipPath>
<clipPath id="clip11_5204_14393">
<rect width="38" height="21" fill="white" transform="translate(49.5469 915.883)"/>
</clipPath>
</defs>
</svg>
