<?xml version="1.0" encoding="UTF-8"?>
<svg xmlns="http://www.w3.org/2000/svg" version="1.1" viewBox="0 0 209.4 32">
  <defs>
    <style>
      .cls-1 {
        fill: #fff;
        fill-rule: evenodd;
        stroke-width: 0px;
      }

      .cls-2 {
        isolation: isolate;
      }
    </style>
  </defs>
  <g id="rabbithole" class="cls-2">
    <g id="rabbithole-2" data-name="rabbithole">
      <path class="cls-1" d="M60.3,15.7c0-4-3.2-6.8-7.8-6.8h-9.7v22.7h5.7v-9.2h.3l6.2,9.2h6.6l-6.9-9.5c3.4-.8,5.5-3.2,5.5-6.5ZM51.7,18.4h-3.1v-5.2h3.1c1.9,0,2.9,1.1,2.9,2.6s-1,2.6-2.9,2.6ZM73.4,17.1c-1-.9-2.4-1.4-4-1.4-4.4,0-7.5,3.4-7.5,8.2s3.1,8.1,7.5,8.1,3-.5,4-1.4v1.1h5.5v-15.6h-5.5v1.1ZM70.6,27c-1.8,0-3-1.3-3-3.2s1.3-3.2,3.1-3.2,3,1.3,3,3.2-1.2,3.2-3.1,3.2ZM91.5,15.7c-1.4,0-2.7.4-3.7,1.1v-8.4h-5.6v23.3h5.4v-.9c1.1.7,2.4,1.2,3.9,1.2,4.5,0,7.7-3.4,7.7-8.1s-3.1-8.2-7.7-8.2ZM90.5,27c-1.8,0-3.1-1.3-3.1-3.2s1.2-3.2,3-3.2,3.1,1.3,3.1,3.2-1.3,3.2-3,3.2ZM110.8,15.7c-1.4,0-2.7.4-3.7,1.1v-8.4h-5.6v23.3h5.4v-.9c1.1.7,2.4,1.2,3.9,1.2,4.5,0,7.7-3.4,7.7-8.1s-3.1-8.2-7.7-8.2ZM109.8,27c-1.8,0-3.1-1.3-3.1-3.2s1.2-3.2,3-3.2,3.1,1.3,3.1,3.2-1.3,3.2-3,3.2ZM120.7,31.7h5.6v-15.6h-5.6v15.6ZM123.5,8.2c-1.7,0-2.9,1.3-2.9,3s1.2,3,2.9,3,2.9-1.3,2.9-3-1.2-3-2.9-3ZM137.2,9.5h-5.6v6.5h-3.5v4.6h3.5v11h5.6v-11h3.5v-4.6h-3.5v-6.5ZM156.9,17.6h-8.2v-8.7h-5.7v22.7h5.7v-9.2h8.2v9.2h5.7V9h-5.7v8.7ZM174,15.6c-5,0-8.7,3.5-8.7,8.2s3.7,8.2,8.8,8.2,8.7-3.5,8.7-8.2-3.7-8.2-8.7-8.2ZM174,27.1c-1.8,0-3.1-1.3-3.1-3.2s1.2-3.2,3.1-3.2,3.1,1.3,3.1,3.2-1.2,3.2-3.1,3.2ZM184.9,31.7h5.6V8.3h-5.6v23.3ZM209.4,23.5c0-4.5-3.4-7.8-8.1-7.8s-8.5,3.5-8.5,8.2,3.7,8.2,9,8.2,5-.9,6.5-2.7l-2.9-2.9c-.9,1.1-2.1,1.6-3.6,1.6s-3-.8-3.5-2.4h11c.2-.9.3-1.6.3-2.2ZM198.1,22c.4-1.5,1.6-2.4,3.2-2.4s2.6.8,2.9,2.4h-6.1ZM15.2,14.2h1.9c2.1,0,4.1.4,5.9,1.1L31.7,0h-8.4l-8.1,14.2ZM16.2,16.1h-4.5L20.9,0h-8.4L1.3,19.6C.5,20.8,0,22.3,0,23.9,0,28.2,3.5,31.7,7.8,31.7h23.9c0-8.7-6.9-15.6-15.5-15.6ZM9.3,26.3c-1.4,0-2.6-1.2-2.6-2.6s1.2-2.6,2.6-2.6,2.6,1.2,2.6,2.6-1.2,2.6-2.6,2.6Z"/>
    </g>
  </g>
</svg>