<?xml version="1.0" encoding="UTF-8"?>
<svg id="Layer_1" data-name="Layer 1" xmlns="http://www.w3.org/2000/svg" width="391.20739" height="99.72696" version="1.1" viewBox="0 0 391.20739 99.72696">
  <rect x="69.42038" y="37.84947" width="53.87494" height="23.57029" transform="translate(5.19334 108.26449) rotate(-59.99927)" fill="#121212" stroke-width="0"/>
  <polygon points="64.37075 35.41233 64.37075 35.41233 84.74266 0 3.08665 .05612 43.94272 23.62693 20.37191 64.48299 20.37191 64.48299 0 99.72696 81.48764 99.72696 40.79994 76.21227 64.37075 35.41233" fill="#121212" fill-rule="evenodd" stroke-width="0"/>
  <polygon points="172.6281 35.41233 172.6281 35.41233 193 0 111.40012 .05612 152.20007 23.62693 128.62925 64.48299 128.62925 64.48299 108.31347 99.72696 189.80112 99.72696 149.05729 76.21227 172.6281 35.41233" fill="#121212" fill-rule="evenodd" stroke-width="0"/>
  <g>
    <path d="M208.47203,53.84799v-6.52832c3.21582-.14355,4.56055-1.44043,4.56055-3.69629,0-2.97656-1.00781-7.72852-1.00781-11.37695,0-5.56836,3.69629-8.64062,9.16797-8.64062h3.45703v6.7207h-1.87207c-2.06445,0-2.88086.91211-2.88086,2.73633,0,2.5918.81641,7.53613.81641,10.89648,0,3.4082-1.58398,5.9043-5.13672,6.57715v.0957c3.55273.71973,5.13672,3.16797,5.13672,6.62402,0,3.36035-.81641,8.25684-.81641,10.84961,0,1.82422.81641,2.78418,2.88086,2.78418h1.87207v6.7207h-3.45703c-5.47168,0-9.16797-3.07227-9.16797-8.68945,0-3.64746,1.00781-8.40039,1.00781-11.37695,0-2.11133-1.34473-3.55176-4.56055-3.69629Z" fill="#121212" stroke-width="0"/>
    <path d="M241.20836,40.31088c3.55176,0,6.62402,1.63281,8.25684,4.08105v-12.43359h8.20801v35.52344h-8.20801v-3.84082c-1.48828,2.44824-4.32031,4.22461-8.25684,4.22461-6.57715,0-11.80957-5.37695-11.80957-13.8252,0-8.44922,5.23242-13.72949,11.80957-13.72949ZM243.60875,47.4642c-3.07227,0-5.85645,2.30371-5.85645,6.57617s2.78418,6.67285,5.85645,6.67285c3.12012,0,5.85645-2.35254,5.85645-6.625s-2.73633-6.62402-5.85645-6.62402Z" fill="#121212" stroke-width="0"/>
    <path d="M275.5277,67.86557c-7.87207,0-13.53711-5.28027-13.53711-13.77734s5.56836-13.77734,13.53711-13.77734c7.8252,0,13.3457,5.18457,13.3457,13.3457,0,.76758-.04785,1.58398-.14453,2.40039h-18.57715c.28809,3.50391,2.44824,5.13574,5.08887,5.13574,2.30371,0,3.59961-1.15137,4.27148-2.5918h8.7373c-1.2959,5.23242-6.04883,9.26465-12.72168,9.26465ZM270.19957,51.49643h10.27344c0-2.92871-2.30469-4.6084-5.04102-4.6084-2.68848,0-4.75195,1.63184-5.23242,4.6084Z" fill="#121212" stroke-width="0"/>
    <path d="M330.1068,52.93588c0-3.50391-2.0166-5.42383-5.13672-5.42383s-5.13672,1.91992-5.13672,5.42383v14.5459h-8.16016v-14.5459c0-3.50391-2.0166-5.42383-5.13672-5.42383s-5.13672,1.91992-5.13672,5.42383v14.5459h-8.20801v-26.78613h8.20801v3.35938c1.58496-2.16016,4.32031-3.64746,7.8252-3.64746,4.03223,0,7.29688,1.77539,9.12109,4.99219,1.77539-2.83203,5.13574-4.99219,9.02441-4.99219,6.62402,0,10.89648,4.22363,10.89648,11.4248v15.64941h-8.16016v-14.5459Z" fill="#121212" stroke-width="0"/>
    <path d="M356.2152,67.86557c-7.87207,0-13.8252-5.28027-13.8252-13.77734s6.09668-13.77734,13.92188-13.77734c7.87207,0,13.9209,5.28027,13.9209,13.77734s-6.14453,13.77734-14.01758,13.77734ZM356.2152,60.76108c2.92871,0,5.66504-2.16016,5.66504-6.67285,0-4.56055-2.68848-6.67285-5.56836-6.67285-2.97656,0-5.56836,2.1123-5.56836,6.67285,0,4.5127,2.49609,6.67285,5.47168,6.67285Z" fill="#121212" stroke-width="0"/>
    <path d="M386.64684,57.54428c0,2.97656,1.00781,7.72949,1.00781,11.37695,0,5.61719-3.69629,8.68945-9.16895,8.68945h-3.45605v-6.7207h1.87207c2.06445,0,2.88086-.95996,2.88086-2.78418,0-2.59277-.81641-7.48926-.81641-10.84961,0-3.45605,1.58398-5.9043,5.13672-6.62402v-.0957c-3.55273-.67285-5.13672-3.16895-5.13672-6.57715,0-3.36035.81641-8.30469.81641-10.89648,0-1.82422-.81641-2.73633-2.88086-2.73633h-1.87207v-6.7207h3.45605c5.47266,0,9.16895,3.07227,9.16895,8.64062,0,3.64844-1.00781,8.40039-1.00781,11.37695,0,2.25586,1.34375,3.55273,4.56055,3.69629v6.52832c-3.2168.14453-4.56055,1.58496-4.56055,3.69629Z" fill="#121212" stroke-width="0"/>
  </g>
</svg>