<?xml version="1.0" encoding="UTF-8"?>
<svg id="Layer_1" data-name="Layer 1" xmlns="http://www.w3.org/2000/svg" version="1.1" viewBox="0 0 58.8 40.8">
  <g id="_" data-name=" " isolation="isolate">
    <g id="_2" data-name=" 2">
      <path d="M19.08,5.28001C17.96,4.26668,15.72,2.50668,12.36,0,7.84345,4.7024,3.71027,9.75852,0,15.12001l6.24,5.52c.77372.68175,1.44706,1.46956,2,2.34.38666.63267.59405,1.35855.6,2.1-.09056,1.35045-.42957,2.67259-1,3.9-.69333,1.64-2.50667,5.56667-5.44,11.78l9.4-.8c8.96-12.72,13.44-21.05333,13.44-25-.01017-1.67376-.51081-3.30781-1.44-4.7-1.33256-1.87268-2.9214-3.54903-4.72-4.98ZM57.36,10.28001c-1.31883-1.87706-2.89414-3.56008-4.68-5C51.56,4.26668,49.32,2.50668,45.96,0c-4.51655,4.70239-8.64973,9.75851-12.36,15.12l6.2,5.52c.77372.68175,1.44706,1.46956,2,2.34.38665.63267.59405,1.35855.6,2.1-.09056,1.35045-.42957,2.67259-1,3.9-.66667,1.64-2.48667,5.58-5.46,11.82l9.36-.84c9-12.72,13.5-21.04,13.5-24.96-.00232-1.6874-.5033-3.33647-1.44-4.74v.02Z" fill="#121212" fill-rule="evenodd" stroke-width="0"/>
    </g>
  </g>
</svg>