<?xml version="1.0" encoding="utf-8"?>
<!-- Generator: Adobe Illustrator 26.4.1, SVG Export Plug-In . SVG Version: 6.00 Build 0)  -->
<svg version="1.1" id="Layer_1" xmlns="http://www.w3.org/2000/svg" xmlns:xlink="http://www.w3.org/1999/xlink" x="0px" y="0px"
	 viewBox="0 0 256 256" style="enable-background:new 0 0 256 256;" xml:space="preserve">
<style type="text/css">
	.st0{fill:#FEAC83;}
	.st1{fill:#FF9C5D;}
	.st2{fill:#FF5E4E;}
	.st3{fill:#FF835E;}
	.st4{fill:#FF0A52;}
	.st5{fill:#FF3C6A;}
</style>
<g>
	<polygon class="st0" points="183.4,128 238.9,160 238.9,96 	"/>
	<polygon class="st1" points="238.9,160 183.4,128 183.4,192 	"/>
	<polygon class="st1" points="238.9,96 183.4,64 183.4,128 	"/>
	<polygon class="st2" points="183.4,128 128,96 128,160 	"/>
	<polygon class="st2" points="183.4,192 128,160 128,224 	"/>
	<polygon class="st2" points="183.4,64 128,32 128,96 	"/>
	<polygon class="st3" points="128,96 183.4,128 183.4,64 	"/>
	<polygon class="st3" points="128,160 183.4,192 183.4,128 	"/>
	<polygon class="st4" points="128,96 72.6,64 72.6,128 	"/>
	<polygon class="st4" points="128,160 72.6,128 72.6,192 	"/>
	<polygon class="st4" points="128,32 72.6,0 72.6,64 	"/>
	<polygon class="st5" points="72.6,64 128,96 128,32 	"/>
	<polygon class="st4" points="17.1,32 72.6,64 72.6,0 	"/>
	<polygon class="st4" points="17.1,96 72.6,128 72.6,64 	"/>
	<polygon class="st4" points="72.6,64 17.1,32 17.1,96 	"/>
	<polygon class="st4" points="17.1,160 72.6,192 72.6,128 	"/>
	<polygon class="st4" points="17.1,224 72.6,256 72.6,192 	"/>
	<polygon class="st4" points="72.6,192 17.1,160 17.1,224 	"/>
	<polygon class="st5" points="72.6,128 128,160 128,96 	"/>
	<polygon class="st4" points="128,224 72.6,192 72.6,256 	"/>
	<polygon class="st5" points="72.6,192 128,224 128,160 	"/>
</g>
</svg>
