<?xml version="1.0" encoding="utf-8"?>
<!-- Generator: Adobe Illustrator 26.4.1, SVG Export Plug-In . SVG Version: 6.00 Build 0)  -->
<svg version="1.1" id="Vidi_Logo" xmlns="http://www.w3.org/2000/svg" xmlns:xlink="http://www.w3.org/1999/xlink" x="0px" y="0px"
	 viewBox="0 0 312.8 65.6" style="enable-background:new 0 0 312.8 65.6;" xml:space="preserve">
<style type="text/css">
	.st0{fill:#FFFFFF;}
	.st1{fill:#A1FEC7;}
	.st2{fill:#5AFDA0;}
	.st3{fill:#00E155;}
	.st4{fill:#00F576;}
	.st5{fill:#00C846;}
	.st6{fill:#00D25D;}
</style>
<g>
	<g>
		<path class="st0" d="M124.8,14.9l-17.5,35.8H91.7L74.1,14.9h13.6l11.8,25.4l11.7-25.4H124.8z"/>
		<path class="st0" d="M128,14.9h11.9v35.8H128V14.9z"/>
		<path class="st0" d="M193.8,14.9l-17.5,35.8h-15.5l-17.6-35.8h13.6l11.8,25.4l11.7-25.4H193.8z"/>
		<path class="st0" d="M197,14.9h11.9v35.8H197V14.9z"/>
		<path class="st0" d="M259.3,14.9v11.9h-17.7v24h-11.9v-24h-17.7V14.9H259.3z"/>
		<path class="st0" d="M312.8,14.9l-17.5,35.8h-15.5l-17.6-35.8h13.6l11.8,25.4l11.7-25.4H312.8z"/>
	</g>
	<g>
		<polygon class="st1" points="42.6,32.8 56.8,41 56.8,24.6 		"/>
		<polygon class="st2" points="56.8,41 42.6,32.8 42.6,49.2 		"/>
		<polygon class="st2" points="56.8,24.6 42.6,16.4 42.6,32.8 		"/>
		<polygon class="st3" points="42.6,32.8 28.4,24.6 28.4,41 		"/>
		<polygon class="st3" points="42.6,49.2 28.4,41 28.4,57.4 		"/>
		<polygon class="st3" points="42.6,16.4 28.4,8.2 28.4,24.6 		"/>
		<polygon class="st4" points="28.4,24.6 42.6,32.8 42.6,16.4 		"/>
		<polygon class="st4" points="28.4,41 42.6,49.2 42.6,32.8 		"/>
		<polygon class="st5" points="28.4,24.6 14.2,16.4 14.2,32.8 		"/>
		<polygon class="st5" points="28.4,41 14.2,32.8 14.2,49.2 		"/>
		<polygon class="st5" points="28.4,8.2 14.2,0 14.2,16.4 		"/>
		<polygon class="st6" points="14.2,16.4 28.4,24.6 28.4,8.2 		"/>
		<polygon class="st5" points="0,8.2 14.2,16.4 14.2,0 		"/>
		<polygon class="st5" points="0,24.6 14.2,32.8 14.2,16.4 		"/>
		<polygon class="st5" points="14.2,16.4 0,8.2 0,24.6 		"/>
		<polygon class="st5" points="0,41 14.2,49.2 14.2,32.8 		"/>
		<polygon class="st5" points="0,57.4 14.2,65.6 14.2,49.2 		"/>
		<polygon class="st5" points="14.2,49.2 0,41 0,57.4 		"/>
		<polygon class="st6" points="14.2,32.8 28.4,41 28.4,24.6 		"/>
		<polygon class="st5" points="28.4,57.4 14.2,49.2 14.2,65.6 		"/>
		<polygon class="st6" points="14.2,49.2 28.4,57.4 28.4,41 		"/>
	</g>
</g>
</svg>
