<?xml version="1.0" encoding="UTF-8"?>
<svg id="Layer_1" data-name="Layer 1" xmlns="http://www.w3.org/2000/svg" version="1.1" viewBox="0 0 512 512">
  <defs>
    <style>
      .cls-1 {
        fill: #fdd110;
        stroke-width: 0px;
      }
    </style>
  </defs>
  <path class="cls-1" d="M170.7,0h-106.7C28.7,0,0,28.7,0,64v106.7h64l-.4,64,42.7.2.4-64.2h64v-64.3l64,.3.2-42.7-64.2-.3V0Z"/>
  <path class="cls-1" d="M448,0h-106.7v64l-63.9-.3-.2,42.7,64.1.3v64h64.3l-.3,64,42.7.2.3-64.2h63.7v-106.7c0-35.3-28.7-64-64-64Z"/>
  <path class="cls-1" d="M448.4,277.4l-42.7-.2-.3,64.1h-64.1v64.3l-63.9-.3v42.7c-.1,0,63.9.3,63.9.3v63.7h106.7c35.3,0,64-28.7,64-64v-106.7h-64l.4-63.9Z"/>
  <path class="cls-1" d="M170.7,341.3h-64.3l.3-63.9h-42.7c0-.1-.3,63.9-.3,63.9H0v106.7c0,35.3,28.7,64,64,64h106.7v-64l64,.4.2-42.7-64.2-.3v-64.1Z"/>
</svg>