<?xml version="1.0" encoding="UTF-8"?>
<svg xmlns="http://www.w3.org/2000/svg" xmlns:xlink="http://www.w3.org/1999/xlink" version="1.1" viewBox="0 0 512 512">
  <defs>
    <style>
      .cls-1 {
        fill: url(#linear-gradient);
      }

      .cls-1, .cls-2, .cls-3, .cls-4, .cls-5, .cls-6, .cls-7, .cls-8, .cls-9, .cls-10, .cls-11 {
        stroke-width: 0px;
      }

      .cls-2 {
        fill: #584c82;
      }

      .cls-2, .cls-12, .cls-5 {
        mix-blend-mode: multiply;
      }

      .cls-3 {
        opacity: .4;
      }

      .cls-3, .cls-11 {
        fill: #fff;
        mix-blend-mode: soft-light;
      }

      .cls-4, .cls-5 {
        fill: #473e7d;
      }

      .cls-6 {
        fill: url(#linear-gradient-4);
      }

      .cls-7 {
        fill: url(#linear-gradient-2);
      }

      .cls-8 {
        fill: url(#linear-gradient-3);
      }

      .cls-9 {
        fill: url(#linear-gradient-5);
      }

      .cls-10 {
        fill: url(#linear-gradient-6);
      }

      .cls-13 {
        isolation: isolate;
      }
    </style>
    <linearGradient id="linear-gradient" x1="80.9" y1="470.7" x2="162.8" y2="427" gradientUnits="userSpaceOnUse">
      <stop offset="0" stop-color="#3d3c97"/>
      <stop offset="1" stop-color="#7170b3"/>
    </linearGradient>
    <linearGradient id="linear-gradient-2" x1="337.6" y1="514.7" x2="337.6" y2="379.1" gradientUnits="userSpaceOnUse">
      <stop offset="0" stop-color="#857eba"/>
      <stop offset="1" stop-color="#b9b6da"/>
    </linearGradient>
    <linearGradient id="linear-gradient-3" x1="46.8" y1="348.9" x2="461.4" y2="339.2" gradientUnits="userSpaceOnUse">
      <stop offset="0" stop-color="#706baf"/>
      <stop offset="1" stop-color="#a4a6d2"/>
    </linearGradient>
    <linearGradient id="linear-gradient-4" x1="-2.5" y1="311.1" x2="81.3" y2="266.4" xlink:href="#linear-gradient"/>
    <linearGradient id="linear-gradient-5" x1="181.5" y1="390.9" x2="181.5" y2="143.4" xlink:href="#linear-gradient-2"/>
    <linearGradient id="linear-gradient-6" x1="36.4" y1="101.1" x2="311.5" y2="94.6" gradientUnits="userSpaceOnUse">
      <stop offset="0" stop-color="#a4a6d2"/>
      <stop offset="1" stop-color="#706baf"/>
    </linearGradient>
  </defs>
  <g class="cls-13">
    <g id="Layer_1" data-name="Layer 1">
      <g>
        <g>
          <g>
            <path class="cls-1" d="M196.1,510.6c-13.3-9.8-100.8-70.3-136.1-95-3.5-2.5-7.6-5.4-10.2-7.3-8.7-6.1-6-22.4-6-22.4l155.8,109.3v16.8s-1.5,0-3.5-1.4Z"/>
            <path class="cls-7" d="M202.7,510.8c19.7-13.8,203.2-143.1,266.3-187.4,8.9-6.3,6.3-21.6,6.3-21.6l-275.6,193.4v16.8c.8,0,2-.4,3.1-1.2Z"/>
            <polygon class="cls-8" points="319.3 192.6 319.3 192.6 319.3 192.6 319.3 192.6 43.8 385.9 199.6 495.2 199.6 495.2 199.6 495.2 199.6 495.2 475.2 301.8 319.3 192.6"/>
            <polygon class="cls-11" points="318.5 204.1 318.5 204.1 318.5 204.1 318.5 204.1 63.4 383.3 148.9 443.6 148.9 443.6 148.9 443.6 148.9 443.6 404.2 264.4 318.5 204.1"/>
            <polygon class="cls-11" points="329.6 328.9 246.1 388.3 291.1 420 291.1 420 291.1 420 291.1 420 374.7 360.6 329.6 328.9"/>
          </g>
          <path class="cls-6" d="M43.8,385.9s-9.3-.3-9.3-9.9v-180.1c0-2,1.4-4.8,1.4-4.8l7.9,4.4v190.4Z"/>
          <polygon class="cls-9" points="43.8 385.9 319.1 192.6 319.1 2.3 43.8 195.5 43.8 385.9"/>
          <polygon class="cls-5" points="43.8 385.9 319.1 192.6 319.1 2.3 43.8 195.5 43.8 385.9"/>
          <path class="cls-10" d="M299.2,4.8C238.9,47.1,65.6,169,40.3,186.3c-3.5,2.4-4.4,4.9-4.4,4.9l7.9,4.4h0L319.1,2.3s-6.8-6.6-19.8,2.5Z"/>
          <polygon class="cls-2" points="54.9 365 310.4 185.7 310.4 21.7 54.9 201.1 54.9 365"/>
          <polygon class="cls-3" points="193.2 104.4 55.5 201.1 55.5 365 310.1 186.3 193.2 104.4"/>
          <polygon class="cls-3" points="54.3 364.8 300.8 191.8 232.6 143.8 54.3 269 54.3 364.8"/>
          <polygon class="cls-3" points="55.5 248.2 134.6 191.9 101.6 168.7 55.5 201.1 55.5 248.2"/>
        </g>
        <g class="cls-12">
          <polygon class="cls-4" points="173.9 482.4 194.7 497.1 194.7 503.5 173.9 488.8 173.9 482.4"/>
          <polygon class="cls-4" points="147 463.4 167.7 478 167.7 484.4 147 469.8 147 463.4"/>
          <polygon class="cls-4" points="85.4 420.3 137.3 456.7 137.3 463.1 85.4 426.7 85.4 420.3"/>
          <polygon class="cls-4" points="48.4 394.4 69.1 409.1 69.1 415.5 48.4 400.8 48.4 394.4"/>
        </g>
      </g>
    </g>
  </g>
</svg>