<?xml version="1.0" encoding="UTF-8"?>
<svg id="Layer_1" data-name="Layer 1" xmlns="http://www.w3.org/2000/svg" xmlns:xlink="http://www.w3.org/1999/xlink" version="1.1" viewBox="0 0 512 512">
  <defs>
    <style>
      .cls-1 {
        fill: url(#linear-gradient);
      }

      .cls-1, .cls-2, .cls-3, .cls-4, .cls-5, .cls-6 {
        stroke-width: 0px;
      }

      .cls-2 {
        fill: #584c82;
      }

      .cls-2, .cls-3 {
        mix-blend-mode: multiply;
      }

      .cls-2, .cls-3, .cls-7, .cls-6 {
        isolation: isolate;
      }

      .cls-3 {
        fill: #473e7d;
      }

      .cls-4 {
        fill: url(#linear-gradient-2);
      }

      .cls-5 {
        fill: url(#linear-gradient-3);
      }

      .cls-6 {
        fill: #fff;
        mix-blend-mode: soft-light;
        opacity: .4;
      }
    </style>
    <linearGradient id="linear-gradient" x1="101.7" y1="220.5" x2="317.1" y2="335.5" gradientTransform="translate(363.5 697.7) rotate(-54.8) scale(1 -1)" gradientUnits="userSpaceOnUse">
      <stop offset="0" stop-color="#3d3c97"/>
      <stop offset="0" stop-color="#47469c"/>
      <stop offset=".2" stop-color="#5a59a6"/>
      <stop offset=".4" stop-color="#6766ad"/>
      <stop offset=".6" stop-color="#6e6db1"/>
      <stop offset="1" stop-color="#7170b3"/>
    </linearGradient>
    <linearGradient id="linear-gradient-2" x1="309.5" y1="20.8" x2="309.5" y2="417.4" gradientTransform="translate(363.5 697.7) rotate(-54.8) scale(1 -1)" gradientUnits="userSpaceOnUse">
      <stop offset="0" stop-color="#857eba"/>
      <stop offset="1" stop-color="#b9b6da"/>
    </linearGradient>
    <linearGradient id="linear-gradient-3" x1="202" y1="583.1" x2="393.1" y2="587.6" gradientTransform="translate(363.5 697.7) rotate(-54.8) scale(1 -1)" gradientUnits="userSpaceOnUse">
      <stop offset="0" stop-color="#a4a6d2"/>
      <stop offset="1" stop-color="#706baf"/>
    </linearGradient>
  </defs>
  <g class="cls-7">
    <g id="Layer_1-2" data-name="Layer 1">
      <g>
        <path class="cls-1" d="M467.1,501s-20.1,12.9-25.1,9.3c-13.5-9.5-374.4-264.2-382.8-270.1-8.1-5.7-11.8-12-11.8-12l19.5-9.6,400.2,282.4h0Z"/>
        <polygon class="cls-4" points="467.1 501 467.6 283.5 67.4 1.1 66.9 218.6 467.1 501"/>
        <g>
          <polygon class="cls-2" points="441.4 482.9 441.9 265.3 93 19.2 92.6 236.7 441.4 482.9"/>
          <polygon class="cls-2" points="427.9 473.4 428.4 255.8 106.6 28.7 106 246.3 427.9 473.4"/>
        </g>
        <path class="cls-5" d="M44.9,20.6c-.2,47.6-.5,172.5-.5,192.3s3,15.3,3,15.3l19.5-9.5h0l.5-217.5s-22.5,9.2-22.5,19.5h0Z"/>
        <g>
          <polygon class="cls-2" points="99.7 261.8 111.9 257.4 143.6 279.8 131.5 284.2 99.7 261.8"/>
          <polygon class="cls-2" points="140.3 290.4 152.4 286 231.1 341.6 219 345.9 140.3 290.4"/>
        </g>
        <g>
          <path class="cls-3" d="M48.2,208.9v1.8c0,2.3,2,6.9,7.6,4.9,7.5-2.7,7.5-9.1,7.5-10.6,0-3,0-1.5,0-1.5,0,0,0-7.3-8.2-4.4-5.3,2-6.8,6.5-6.9,9.8Z"/>
          <path class="cls-3" d="M51.8,186.6v1c0,1.3,1.1,3.8,4.2,2.8,4.2-1.5,4.2-5.1,4.2-6,0-1.7,0-.9,0-.9,0,0,0-4.1-4.6-2.4-3,1.1-3.8,3.7-3.9,5.5h0Z"/>
        </g>
        <polygon class="cls-6" points="256.6 352.5 427.9 473.4 428.4 290.6 256.6 352.5"/>
      </g>
    </g>
  </g>
</svg>