<?xml version="1.0" encoding="UTF-8"?>
<svg xmlns="http://www.w3.org/2000/svg" version="1.1" viewBox="0 0 1455 199">
  <defs>
    <style>
      .cls-1 {
        fill: #fff;
        fill-rule: evenodd;
        stroke-width: 0px;
      }

      .cls-2, .cls-3 {
        isolation: isolate;
      }

      .cls-3 {
        opacity: .3;
      }
    </style>
  </defs>
  <g id="invitation." class="cls-2">
    <g id="invitation.-2" data-name="invitation.">
      <path class="cls-1" d="M510.3,164.3h29.9V63.8h-29.9v100.5ZM525.3,19.7c-11.3,0-17.7,7.4-17.7,16.2s6.4,16.1,17.6,16.1,17.9-7.1,17.9-16.1-6.3-16.2-17.8-16.2ZM623.4,60.6c-13.9,0-25.8,6.3-31.5,15.3v-12.1h-28.5v100.5h29.9v-49.9c0-17.9,10.4-26.5,21.7-26.5s18.7,6.4,18.7,23.1v53.2h29.9v-53.9c0-31-12.8-49.8-40.2-49.8ZM724,115.1l-2.6,11.8-2.8-11.8-18.8-51.3h-31.6l39.5,100.5h27.4l39.6-100.5h-31.8l-18.8,51.3ZM801.8,19.7c-11.3,0-17.7,7.4-17.7,16.2s6.4,16.1,17.6,16.1,17.9-7.1,17.9-16.1-6.3-16.2-17.8-16.2ZM786.9,164.3h29.9V63.8h-29.9v100.5ZM878.7,34.6l-29.9.2v29h-19.3v25.4h19.3v35.9c0,34.8,20,39.2,34.8,39.2h22.2v-24.6h-15.8c-6.3,0-11.3-3.4-11.3-13.2v-37.2h27.2v-25.4h-27.2v-29.2ZM993.3,76.7c-6.1-10.3-18-16.1-32.9-16.1-26.5,0-46.1,24.2-46.1,53.4s19.3,53.5,46.3,53.5,26.5-5.8,32.6-16v12.7h28.4V63.8h-28.3v12.9ZM967.9,140c-12.7,0-24-8.9-24-26s10.9-26,24.1-26,24.1,11.5,24.1,26-10.5,26-24.2,26ZM1083.5,34.6l-29.9.2v29h-19.3v25.4h19.3v35.9c0,34.8,20,39.2,34.8,39.2h22.2v-24.6h-15.8c-6.3,0-11.3-3.4-11.3-13.2v-37.2h27.2v-25.4h-27.2v-29.2ZM1142.1,19.7c-11.3,0-17.7,7.4-17.7,16.2s6.4,16.1,17.6,16.1,17.9-7.1,17.9-16.1-6.3-16.2-17.8-16.2ZM1127.2,164.3h29.9V63.8h-29.9v100.5ZM1227.9,60.6c-31.6,0-53.4,24.2-53.4,53.4s21.9,53.4,53.3,53.4,53.9-23.9,53.9-53.4-22-53.4-53.8-53.4ZM1228.1,139.9c-14.1,0-24.1-10.6-24.1-25.9s10-25.9,24.1-25.9,24.1,10.7,24.1,25.9-10,25.9-24.1,25.9ZM1359,60.6c-13.9,0-25.8,6.3-31.5,15.3v-12.1h-28.5v100.5h29.9v-49.9c0-17.9,10.4-26.5,21.7-26.5s18.7,6.4,18.7,23.1v53.2h29.9v-53.9c0-31-12.8-49.8-40.2-49.8ZM1437.7,136.4c-10,0-16.4,7-16.4,15.3s6.4,15.3,16.3,15.3,16.6-6.9,16.6-15.3-6.5-15.3-16.5-15.3Z"/>
    </g>
  </g>
  <g id="UP" class="cls-3">
    <g id="UP-2" data-name="UP">
      <path class="cls-1" d="M312.3.8h-98v55.6h88.3c16.3,0,29.5,13.2,29.5,29.5s-13.2,29.5-29.5,29.5h-88.3v82.5h57.5v-27.4h40.5c50.6,0,78.7-45.3,78.7-85.8S363,.8,312.3.8ZM113.9,116.6c0,16.1-13.1,29.2-29.2,29.2s-29.2-13.1-29.2-29.2V0H0v113.2c0,47.2,38.2,85.4,85.4,85.4s85.4-38.2,85.4-85.4V0h-56.9v116.6Z"/>
    </g>
  </g>
</svg>