<?xml version="1.0" encoding="UTF-8"?>
<svg xmlns="http://www.w3.org/2000/svg" version="1.1" viewBox="0 0 1084 199">
  <defs>
    <style>
      .cls-1 {
        fill: #fff;
        fill-rule: evenodd;
        stroke-width: 0px;
      }

      .cls-2, .cls-3 {
        isolation: isolate;
      }

      .cls-3 {
        opacity: .3;
      }
    </style>
  </defs>
  <g id="Letter." class="cls-2">
    <g id="Letter.-2" data-name="Letter.">
      <path class="cls-1" d="M543.8,29.6h-31.1v139.8h93.1v-27.3h-62V29.6ZM664.8,71c-29.3,0-51.7,21.6-51.7,50.3s22.6,50.3,53.9,50.3,29.9-5.5,39.4-16.6l-16.6-16.6c-5.7,6.7-13.5,9.9-23,9.9s-20.6-6.1-23.8-16.8l68.9-.2c1-5,1.4-8.5,1.4-12.1,0-27.9-20.2-48.1-48.5-48.1ZM643,110.6c3-10.3,10.9-16.4,22-16.4s17.6,5.5,20,16.2l-42,.2ZM832.9,33.4h-30.3v39.8h-30.7v-39.8h-30.3v39.8h-21.8v25.7h21.8v70.5h30.3v-70.5h30.7v70.5h30.3v-70.5h21.8v-25.7h-21.8v-39.8ZM911.3,71c-29.3,0-51.7,21.6-51.7,50.3s22.6,50.3,53.9,50.3,29.9-5.5,39.4-16.6l-16.6-16.6c-5.7,6.7-13.5,9.9-23,9.9s-20.6-6.1-23.8-16.8l68.9-.2c1-5,1.4-8.5,1.4-12.1,0-27.9-20.2-48.1-48.5-48.1ZM889.5,110.6c3-10.3,10.9-16.4,22-16.4s17.6,5.5,20,16.2l-42,.2ZM1029.5,71.2c-10.5,0-18.6,3.2-24.8,9.3v-7.3h-30.3v96.2h30.3v-52.9c0-12.5,6.3-18.6,16.4-18.6s8.9,1.8,11.7,4.6l18-22.8c-5.1-5.7-12.3-8.5-21.4-8.5ZM1065.9,134.9c-10.5,0-18,8.1-18,18.4s7.5,18.2,18,18.2,18-7.9,18-18.2-7.5-18.4-18-18.4Z"/>
    </g>
  </g>
  <g id="UP" class="cls-3">
    <g id="UP-2" data-name="UP">
      <path class="cls-1" d="M312.3.8h-98v55.6h88.3c16.3,0,29.5,13.2,29.5,29.5s-13.2,29.5-29.5,29.5h-88.3v82.5h57.5v-27.4h40.5c50.6,0,78.7-45.3,78.7-85.8S363,.8,312.3.8ZM113.9,116.6c0,16.1-13.1,29.2-29.2,29.2s-29.2-13.1-29.2-29.2V0H0v113.2C0,160.3,38.2,198.5,85.4,198.5s85.4-38.2,85.4-85.4V0h-56.9v116.6Z"/>
    </g>
  </g>
</svg>