<?xml version="1.0" encoding="utf-8"?>
<!-- Generator: Adobe Illustrator 26.4.1, SVG Export Plug-In . SVG Version: 6.00 Build 0)  -->
<svg version="1.1" id="logo_00000111167364863769751340000012771153587866393273_"
	 xmlns="http://www.w3.org/2000/svg" xmlns:xlink="http://www.w3.org/1999/xlink" x="0px" y="0px" viewBox="0 0 255.2 55.8"
	 style="enable-background:new 0 0 255.2 55.8;" xml:space="preserve">
<style type="text/css">
	.st0{fill-rule:evenodd;clip-rule:evenodd;fill:#FFFFFF;}
	.st1{opacity:0.902;}
	.st2{opacity:0.4;}
	.st3{opacity:0.1216;}
	.st4{fill-rule:evenodd;clip-rule:evenodd;fill:#340081;}
</style>
<g id="Bitrend_00000081626869355209059830000016135779330674313644_">
	<g>
		<path class="st0" d="M114.9,24.7c2.7-1.5,4.1-3.9,4.1-6.9c0-5.1-3.9-9-10.3-9H93.2v34.1h15.1c7.2,0,11.7-4.2,11.7-9.9
			C120,29.3,118.2,26.4,114.9,24.7z M101.7,15.2h4.9c2.3,0,3.8,1.1,3.8,3.5s-1.6,3.5-3.8,3.5h-4.9V15.2z M107.1,36.5h-5.5v-8.2h5.5
			c2.7,0,4.4,1.6,4.4,4.1C111.5,34.8,109.8,36.5,107.1,36.5z M123.8,42.9h8.4V19.4h-8.4V42.9z M128,7.7c-2.5,0-4.4,2-4.4,4.5
			c0,2.5,1.8,4.5,4.4,4.5c2.5,0,4.4-2,4.4-4.5C132.4,9.7,130.5,7.7,128,7.7z M148.6,9.7h-8.4v9.7h-5.2v7h5.2v16.5h8.4V26.3h5.2v-7
			h-5.2V9.7z M171,18.9c-2.4,0-4.4,0.7-6,2v-1.5h-8.4v23.5h8.4V30.1c0-2.6,1.2-3.9,3.5-3.9c1.2,0,2.1,0.4,2.6,1l4.8-6.5
			C174.9,19.5,173.2,18.9,171,18.9z M188.3,18.8c-7.3,0-12.8,5.2-12.8,12.3c0,7.3,5.5,12.3,13.4,12.3c4.1,0,7.4-1.3,9.8-4l-4.4-4.4
			c-1.4,1.6-3.2,2.4-5.4,2.4c-2.7,0-4.6-1.2-5.3-3.6l16.5-0.1c0.3-1.3,0.4-2.3,0.4-3.2C200.5,23.8,195.4,18.8,188.3,18.8z
			 M183.6,28.4c0.7-2.3,2.4-3.6,4.8-3.6s3.8,1.2,4.4,3.6L183.6,28.4z M218.4,18.9c-2.5,0-4.7,0.7-6.4,2v-1.5h-8.4v23.5h8.4V29.6
			c0-2.2,1.4-3.5,3.5-3.5c2,0,3.4,1.3,3.4,3.5v13.3h8.4V27.7C227.2,22.8,223.4,18.9,218.4,18.9z M247.1,7.8v13.6
			c-1.4-1.6-3.5-2.5-6.4-2.5c-6.3,0-10.4,5.3-10.4,12.3c0,6.9,4.1,12.2,10.4,12.2c2.9,0,5-1,6.4-2.5v2.1h8.2v-35H247.1z M243,35.7
			c-2.6,0-4.3-2-4.3-4.8c0-2.8,1.7-4.9,4.3-4.9c2.7,0,4.3,2,4.3,4.8C247.3,33.7,245.7,35.7,243,35.7z"/>
	</g>
</g>
<g id="logomark_00000167389335808982709160000007047496544490756798_">
	<g id="Rectangle_1_00000037655019054539156480000013341772287963049640_" class="st1">
		<g>
			<path class="st0" d="M8.7,13.9C-2.8,25.5-2.9,44.2,8.5,55.8l42.1-42.1C39,2.2,20.3,2.3,8.7,13.9z"/>
		</g>
	</g>
	<g id="Rectangle_1_00000101791341629646024000000006587772037989484191_" class="st2">
		<g>
			<path class="st0" d="M64,0L22,42c11.6,11.5,30.3,11.4,41.9-0.1C75.5,30.3,75.5,11.6,64,0z"/>
		</g>
	</g>
	<g id="Shape_1" class="st3">
		<g>
			<path class="st4" d="M43.4,20.6L22,42c3,3,6.5,5.1,10.1,6.6l18.7-35.2L43.4,20.6z"/>
		</g>
	</g>
</g>
</svg>
