<?xml version="1.0" encoding="utf-8"?>
<!-- Generator: Adobe Illustrator 26.4.1, SVG Export Plug-In . SVG Version: 6.00 Build 0)  -->
<svg version="1.1" id="logo_Bitrend" xmlns="http://www.w3.org/2000/svg" xmlns:xlink="http://www.w3.org/1999/xlink" x="0px"
	 y="0px" viewBox="0 0 289 78" style="enable-background:new 0 0 289 78;" xml:space="preserve">
<style type="text/css">
	.st0{fill-rule:evenodd;clip-rule:evenodd;fill:#FFFFFF;}
	.st1{fill-rule:evenodd;clip-rule:evenodd;fill:#6D10FF;}
	.st2{fill-rule:evenodd;clip-rule:evenodd;fill:#D3B7F9;}
	.st3{fill-rule:evenodd;clip-rule:evenodd;fill:#BA94EF;}
</style>
<g id="Bitrend_00000001660807707751028700000012777054067122039691_">
	<g>
		<path class="st0" d="M125.2,37.1c3.1-1.7,4.8-4.5,4.8-8.1c0-5.9-4.6-10.5-12-10.5h-18v39.7h17.7c8.4,0,13.6-4.9,13.6-11.6
			C131.2,42.4,129.1,39.1,125.2,37.1z M109.8,26h5.8c2.6,0,4.5,1.3,4.5,4s-1.8,4-4.5,4h-5.8V26z M116.2,50.8h-6.4v-9.5h6.4
			c3.1,0,5.1,1.9,5.1,4.8C121.3,48.9,119.3,50.8,116.2,50.8z M135.6,58.3h9.8V30.9h-9.8V58.3z M140.5,17.3c-3,0-5.1,2.3-5.1,5.2
			s2.1,5.2,5.1,5.2s5.2-2.3,5.2-5.2S143.5,17.3,140.5,17.3z M164.6,19.6h-9.8v11.3h-6.1V39h6.1v19.3h9.8V39h6.1v-8.1h-6.1V19.6z
			 M190.8,30.3c-2.9,0-5.1,0.8-6.9,2.3v-1.7h-9.8v27.4h9.8V43.4c0-3,1.5-4.5,4-4.5c1.4,0,2.4,0.4,3.1,1.1l5.7-7.6
			C195.3,31,193.4,30.3,190.8,30.3z M210.9,30.2c-8.6,0-15,6.1-15,14.3c0,8.5,6.4,14.3,15.7,14.3c4.8,0,8.7-1.6,11.4-4.7l-5.1-5.1
			c-1.6,1.8-3.7,2.7-6.3,2.7c-3.2,0-5.3-1.5-6.2-4.1l19.2-0.1c0.3-1.5,0.4-2.6,0.4-3.7C225.1,36,219.2,30.2,210.9,30.2z M205.5,41.4
			c0.8-2.7,2.8-4.2,5.5-4.2s4.5,1.4,5.1,4.1L205.5,41.4z M246,30.3c-3,0-5.5,0.8-7.5,2.4v-1.8h-9.8v27.4h9.8V42.8
			c0-2.5,1.7-4.1,4-4.1s4,1.6,4,4.1v15.5h9.8V40.6C256.3,34.9,251.9,30.3,246,30.3z M279.5,17.4v15.9c-1.7-1.8-4.1-3-7.5-3
			c-7.3,0-12.2,6.2-12.2,14.3c0,8,4.8,14.2,12.2,14.2c3.4,0,5.9-1.1,7.5-3v2.4h9.5V17.4H279.5z M274.8,49.9c-3.1,0-5-2.4-5-5.6
			c0-3.3,2-5.7,5-5.7c3.1,0,5,2.3,5,5.6C279.8,47.6,277.9,49.9,274.8,49.9z"/>
	</g>
</g>
<g id="logomark_00000071560925159324567980000002809202245072244865_">
	<g id="Ellipse_2">
		<g>
			<ellipse class="st1" cx="39" cy="39" rx="39" ry="39"/>
		</g>
	</g>
	<g id="Rectangle_1_00000181068821989077526700000002912592136897896083_">
		<g>
			<path class="st0" d="M22.6,30.7c-6.9,6.9-6.9,18-0.1,24.9l25-25C40.7,23.8,29.5,23.8,22.6,30.7z"/>
		</g>
	</g>
	<g id="Rectangle_1_00000132076017860918289960000001119148385497148803_">
		<g>
			<path class="st2" d="M55.6,22.4l-25,25c6.9,6.8,18,6.8,24.9-0.1S62.4,29.4,55.6,22.4z"/>
		</g>
	</g>
	<g id="Shape_1">
		<g>
			<path class="st3" d="M34.6,43.4l-4.1,4.1c1.8,1.8,3.9,3.1,6.1,3.9l10.9-20.6L34.6,43.4z"/>
		</g>
	</g>
</g>
</svg>
