<?xml version="1.0" encoding="UTF-8"?>
<svg id="Layer_1" data-name="Layer 1" xmlns="http://www.w3.org/2000/svg" version="1.1" viewBox="0 0 512 512">
  <defs>
    <style>
      .cls-1 {
        fill: #fdd110;
        stroke-width: 0px;
      }
    </style>
  </defs>
  <path class="cls-1" d="M0,64v170.7h234.7V0H64C28.7,0,0,28.7,0,64Z"/>
  <path class="cls-1" d="M0,448c0,35.3,28.7,64,64,64h170.7v-234.7H0v170.7Z"/>
  <path class="cls-1" d="M277.3,277.3v234.7h170.7c35.3,0,64-28.7,64-64v-170.7h-234.7Z"/>
  <polygon class="cls-1" points="362.7 234.7 405.3 234.7 405.3 149.3 490.7 149.3 490.7 106.7 405.3 106.7 405.3 21.3 362.7 21.3 362.7 106.7 277.3 106.7 277.3 149.3 362.7 149.3 362.7 234.7"/>
</svg>