<?xml version="1.0" encoding="UTF-8"?>
<svg id="Layer_2" data-name="Layer 2" xmlns="http://www.w3.org/2000/svg" version="1.1" viewBox="0 0 512 512">
  <defs>
    <style>
      .cls-1 {
        fill: #fdd110;
        stroke-width: 0px;
      }
    </style>
  </defs>
  <path class="cls-1" d="M437.8,165.1l.7-.3c2.2-1,3.9-1.5,5.1-1.6l1.4-.2c2.9-.6,5.9-.9,8.9-.9,17.9,0,32.9-5.6,43.3-16.2,7.5-7.6,12.2-17.5,13.8-28.9h.9s0-65.7,0-65.7h-109.6v47.6c-.3,3.4-.2,6.6-.2,9.4,0,3.1,0,6-.3,8.2v.7c-1.3,9.3-5.8,17.9-12.7,24.3-7.1,6.5-10.4,8-11.5,8.3-1.1.3-2.7.2-7.3-.5-4-.5-9.4-1.3-16.1-1.3-28.4,0-52.2,21.4-55.4,49.9-.7,6.5-.3,11.3,0,14.8.3,3.9.4,5.1-.9,9-2.7,7.7-8.4,14.8-16.1,20.1-7.7,5.3-16.6,8.1-25,8.1h-.8s-.8,0-.8,0c-8.4,0-17.3-2.9-25-8.1-7.7-5.3-13.5-12.4-16.1-20-1.4-3.9-1.3-5.1-.9-9,.3-3.5.7-8.4,0-14.8-3.2-28.4-27-49.9-55.4-49.9s-12.1.7-16.1,1.3c-4.6.6-6.2.8-7.3.4-1.1-.3-4.4-1.7-11.5-8.3-6.9-6.4-11.4-15-12.6-24.3v-.7c-.3-1.1-.4-2.3-.4-3.6v-61.5H.2v55.7c-.1,15.7,4.9,29.2,14.5,38.9,10.4,10.6,25.4,16.2,43.3,16.2s6,.3,8.9.9l1.4.2c1.3.2,2.9.7,5.1,1.6l.7.3c7.4,3,13.9,7.9,18.8,14.4,12,15.8,12.1,37.9,0,53.8-3.9,5.2-9,9.5-14.7,12.6l-.5.3c-1.6.9-3,1.5-4.2,2-.6.2-1.1.4-1.6.5l-.5.2c-4.3,1.4-8.8,2.1-13.4,2.1-34.7,0-58.1,21.5-58.1,53.6s11.3,38,20.8,44.5c11.6,7.9,25.6,10.2,38.9,11.4h.9c3.5.6,6.5,1.3,10,2.6l1.7.6h.3c9,3.2,16.5,9.5,21.2,18,2.7,4.8,4.5,11,5.2,17.5.3,2.6.4,5.1.6,7.5.1,1.9.3,4,.5,6.1v48.3h109.6v-64.5h-.8c-1.8-12.4-7.6-23.8-16.9-32.6-.8-.8-1.6-1.4-2.2-1.9l-.4-.3c-11.8-10.3-27.1-10.6-38.3-10.8h-.1c-1.9,0-3.6,0-5.2-.1l-1.7-.3-3.6-.8-3.4-1.1-3.7-1.5c-3.8-1.8-7.4-4-10.6-6.8l-.7-.6c-10.1-9.1-15.2-20.4-15.4-34.4,0-10,3.2-19.5,9.2-27.5,5.8-7.8,14.1-13.5,23.3-16.3,9.3-2.8,26.6-2.8,35-.1,15.2,4.9,26,19,26.9,35.1,0,1.3,0,2.7,0,4.4-.2,4.7-.4,11.2,2.3,19.3,7.6,22.7,28.8,38,52.6,38.1,23.8,0,44.9-15.4,52.6-38.2,2.7-8.1,2.5-14.6,2.3-19.3,0-1.6-.1-3,0-4.3.8-16.1,11.7-30.2,26.9-35.1,8.4-2.7,25.7-2.6,35,.1,9.2,2.7,17.5,8.5,23.3,16.3,6,8,9.2,17.5,9.2,27.5-.2,14-5.2,25.3-15.4,34.4l-.6.6c-3.2,2.8-6.8,5.1-10.6,6.8l-3.7,1.5-3.4,1.1-2.9.7-2.3.4c-1.6,0-3.3.1-5.2.1h-.1c-11.2.2-26.5.5-38.3,10.8l-.4.4c-.6.5-1.3,1.2-2.2,2-8.9,8.5-14.6,19.4-16.6,31.3h-1v65.7h109.6v-48.3c.2-2.1.4-4.2.5-6.1.2-2.4.4-4.9.6-7.5.7-6.5,2.5-12.8,5.2-17.5,4.7-8.4,12.2-14.7,21.2-17.8l1.9-.7c3.4-1.2,6.4-2,10-2.4h.9c13.4-1.3,27.3-3.6,38.9-11.5,17.2-11.8,20.8-30.7,20.8-44.5,0-32.1-23.3-53.6-58.1-53.6s-9.1-.7-13.4-2.1l-.5-.2c-.5-.1-1-.3-1.5-.5-1.3-.5-2.7-1.1-4.3-2l-.5-.3c-5.7-3-10.8-7.3-14.7-12.5-12-15.9-11.9-38,0-53.8,4.9-6.4,11.4-11.4,18.8-14.3h0Z"/>
</svg>