<?xml version="1.0" encoding="UTF-8"?>
<svg id="Layer_1" data-name="Layer 1" xmlns="http://www.w3.org/2000/svg" version="1.1" viewBox="0 0 512 512">
  <defs>
    <style>
      .cls-1 {
        fill: #fdd110;
        stroke-width: 0px;
      }
    </style>
  </defs>
  <path class="cls-1" d="M480,305.4l32.1,28.1c-31.3,35.3-85.3,38.5-120.6,7.2-2.6-2.3-5.1-4.9-7.5-7.5-31.1,35.3-84.9,38.8-120.2,7.8-2.7-2.4-5.3-5-7.8-7.8-31.1,35.3-84.9,38.8-120.2,7.8-2.7-2.4-5.3-5-7.8-7.8-31.1,35.5-85.1,39-120.6,7.9-2.7-2.4-5.2-4.9-7.6-7.6l32.2-28.1c15.9,17.6,43,18.9,60.6,3,8.8-8,13.9-19.2,14.1-31.1h42.7c0,23.6,19.1,42.7,42.7,42.7s42.7-19.1,42.7-42.7h42.7c0,23.6,19.1,42.7,42.7,42.7s42.7-19.1,42.7-42.7h42.7c.4,23.7,19.9,42.6,43.6,42.2,11.9-.2,23.1-5.3,31.1-14.1ZM448,448c-23.6,0-42.7-19.1-42.7-42.7h-42.7c0,23.6-19.1,42.7-42.7,42.7s-42.7-19.1-42.7-42.7h-42.7c0,23.6-19.1,42.7-42.7,42.7s-42.7-19.1-42.7-42.7h-42.7c-.4,23.7-19.9,42.6-43.6,42.2-11.9-.2-23.1-5.3-31.1-14.1L-.2,461.5c31.3,35.3,85.3,38.6,120.6,7.3,2.7-2.4,5.2-4.9,7.6-7.6,31.1,35.3,84.9,38.8,120.2,7.8,2.7-2.4,5.3-5,7.8-7.8,31.1,35.3,84.9,38.8,120.2,7.8,2.7-2.4,5.3-5,7.8-7.8,31.1,35.5,85.1,39,120.6,7.8,2.7-2.4,5.2-4.9,7.6-7.6l-32.2-28.1c-8.1,9.2-19.7,14.6-32,14.6ZM448,192c-23.6,0-42.7-19.1-42.7-42.7h-42.7c0,23.6-19.1,42.7-42.7,42.7s-42.7-19.1-42.7-42.7h-42.7c0,23.6-19.1,42.7-42.7,42.7s-42.7-19.1-42.7-42.7h-42.7c-.4,23.7-19.9,42.6-43.6,42.2-11.9-.2-23.1-5.3-31.1-14.1L-.2,205.5c31.3,35.3,85.3,38.6,120.6,7.3,2.7-2.4,5.2-4.9,7.6-7.6,31.1,35.3,84.9,38.8,120.2,7.8,2.7-2.4,5.3-5,7.8-7.8,31.1,35.3,84.9,38.8,120.2,7.8,2.7-2.4,5.3-5,7.8-7.8,31.1,35.5,85.1,39,120.6,7.8,2.7-2.4,5.2-4.9,7.6-7.6l-32.2-28.1c-8.1,9.2-19.7,14.6-32,14.6ZM128,77.2c31.1,35.3,84.9,38.8,120.2,7.8,2.7-2.4,5.3-5,7.8-7.8,31.1,35.3,84.9,38.8,120.2,7.8,2.7-2.4,5.3-5,7.8-7.8,31.1,35.5,85.1,39,120.6,7.8,2.7-2.4,5.2-4.9,7.6-7.6l-32.2-28.1c-15.9,17.6-43,18.9-60.6,3-8.8-8-13.9-19.2-14.1-31.1h-42.7c0,23.6-19.1,42.7-42.7,42.7s-42.7-19.1-42.7-42.7h-42.7c0,23.6-19.1,42.7-42.7,42.7s-42.7-19.1-42.7-42.7h-42.7c-.4,23.7-19.9,42.6-43.6,42.2-11.9-.2-23.1-5.3-31.1-14.1L-.2,77.5c31.3,35.3,85.3,38.6,120.6,7.3,2.7-2.4,5.2-4.9,7.6-7.6Z"/>
</svg>