<?xml version="1.0" encoding="UTF-8"?>
<svg id="Layer_3" data-name="Layer 3" xmlns="http://www.w3.org/2000/svg" version="1.1" viewBox="0 0 512 512">
  <defs>
    <style>
      .cls-1 {
        fill: #fdd110;
        stroke-width: 0px;
      }
    </style>
  </defs>
  <path class="cls-1" d="M418.1,322.1v-110.9l93.9-93.9L396.8,0l-83.2,83.2h-119.5C187.7,38.4,147.2,0,98.1,0S0,42.7,0,96s27.7,76.8,64,89.6v155.7H0v170.7h170.7v-170.7h-64v-151.5c36.3-4.3,68.3-29.9,78.9-61.9h104.5l83.2,83.2v110.9c-42.7,10.7-74.7,46.9-74.7,93.9s42.7,96,96,96,96-42.7,96-96-32-83.2-74.7-93.9h2.1Z"/>
</svg>