<svg width="876" height="947" viewBox="0 0 876 947" fill="none" xmlns="http://www.w3.org/2000/svg">
<g clip-path="url(#clip0_1_5981)">
<path fill-rule="evenodd" clip-rule="evenodd" d="M518.359 732.612L518.895 733.161C562.21 777.541 545.395 839.982 485.64 856.654C447.441 867.312 402.75 855.367 374.95 827.07L343.778 795.339C315.978 767.041 271.287 755.096 233.089 765.754L190.618 777.604C152.419 788.261 107.729 776.316 79.9283 748.019L79.3894 747.469C36.102 703.408 52.2584 641.188 111.442 624.021L111.445 624.019C149.929 612.857 195.302 624.835 223.337 653.561L254.242 685.227C282.278 713.953 327.651 725.931 366.135 714.769L406.467 703.07C444.95 691.908 490.324 703.886 518.359 732.612ZM601.512 618.078L651.617 603.546C699.427 589.678 755.792 604.559 790.621 640.245L791.288 640.928C845.097 696.062 824.211 773.63 749.975 794.342C702.52 807.581 647.004 792.744 612.466 757.588L573.741 718.169C539.203 683.014 483.687 668.174 436.232 681.415L383.47 696.137C336.015 709.376 280.498 694.539 245.961 659.384L245.289 658.701C191.512 603.965 211.582 526.669 285.106 505.342L285.109 505.34C332.919 491.472 389.287 506.354 424.114 542.04L462.508 581.379C497.337 617.065 553.702 631.946 601.512 618.078ZM661.783 339.023C623.062 350.254 577.412 338.201 549.206 309.3L518.111 277.439C489.904 248.538 444.254 236.485 405.533 247.716L405.53 247.717C345.983 264.988 329.729 327.59 373.28 371.922L373.824 372.476C401.795 400.947 446.758 412.965 485.19 402.242L527.922 390.319C566.355 379.596 611.317 391.614 639.289 420.085L670.654 452.011C698.626 480.483 743.588 492.501 782.021 481.777C842.142 465.002 859.059 402.181 815.479 357.529L814.938 356.976C786.731 328.074 741.081 316.022 702.36 327.253L661.783 339.023ZM176.05 185.355L176.722 186.037C211.259 221.192 266.776 236.03 314.231 222.791L366.993 208.069C414.448 194.828 469.965 209.667 504.502 244.823L543.227 284.242C577.765 319.397 633.282 334.234 680.737 320.995C754.972 300.284 775.858 222.716 722.049 167.581L721.382 166.899C686.556 131.213 630.188 116.331 582.378 130.199L532.273 144.731C484.463 158.599 428.098 143.719 393.269 108.032L354.875 68.6931C320.048 33.0073 263.68 18.1257 215.87 31.9936L215.867 31.995C142.344 53.3203 122.274 130.616 176.05 185.355ZM238.631 502.469L291.393 487.748C338.848 474.507 394.365 489.346 428.902 524.501L467.627 563.92C502.165 599.076 557.682 613.913 605.137 600.674C679.372 579.962 700.259 502.394 646.449 447.26L645.783 446.577C610.956 410.892 554.588 396.01 506.778 409.878L456.674 424.41C408.863 438.278 352.498 423.397 317.669 387.711L279.275 348.372C244.448 312.686 188.081 297.805 140.271 311.672L140.268 311.674C66.7433 333.001 46.6736 410.297 100.45 465.034L101.122 465.716C135.66 500.871 191.177 515.708 238.631 502.469Z" fill="#9736FF"/>
</g>
<defs>
<clipPath id="clip0_1_5981">
<rect width="812.77" height="761.617" fill="white" transform="translate(761.074 946.214) rotate(-165)"/>
</clipPath>
</defs>
</svg>
