<svg id="Layer_1" enable-background="new 0 0 512 512" height="512" viewBox="0 0 512 512" width="512" xmlns="http://www.w3.org/2000/svg"><g><path d="m355.609 142.155 43.182 84.591s12.223-45.103-.445-63.452c-12.668-18.35-35.254-20.696-42.737-21.139z" fill="#e6b076"/><path d="m118.975 236.888c-6.523 5.857-10.712 12.397-4.44 16.518 21.088 10.6 31.681-3.53 50.978-21.573-10.817-.61-36.464 1.101-46.538 5.055z" fill="#8b421b"/><path d="m165.514 231.833c-19.297 18.043-29.89 32.174-50.978 21.573-6.273-4.121-2.083-10.662 4.44-16.518-1.389.546-2.354 1.028-2.746 1.413-2.453 2.406-8.742 12.172-4.287 17.597s11.987 6.842 20.044 3.989 29.878-17.373 36.502-25.557c1.277-1.579-.031-2.331-2.975-2.497z" fill="#f1d0ae"/><path d="m122.144 242.601c-4.603 4.343-12.75 13.969-8.839 23.211 3.911 9.243 14.344 6.176 13.589-2.903-.458-5.504 12.543-19.439 14.857-20.374 2.313-.934-15.585-3.727-19.607.066z" fill="#f7947e"/><path d="m187.283 344.012c-2.46 0-4.92.412-7.38 1.056.483 7.553-.448 12.407-2.868 13.46-4.372 1.901-5.199 3.27-6.175 6.321s.903 5.869 2.091 5.727c.475 1.283 3.114 4.008 4.206 3.438.904 1.426 5.669 2.758 7.189 1.998 1.521-.76 10.75-5.643 12.033-8.304.681-1.413 1.94-5.565 3.017-11.483-2.623-4.607-6.345-8.752-12.113-12.213z" fill="#f1d0ae"/><path d="m162.511 253.401c.412 23.141 8.247 47.167 13.491 68.692 2.205 9.048 3.512 16.887 3.902 22.975 2.46-.643 4.92-1.056 7.38-1.056 5.768 3.461 9.49 7.606 12.114 12.211.951-5.23 1.761-11.828 1.881-19.308.529-32.881 12.938-66.076 13.433-93.121.496-27.045-53.001-35.33-52.201 9.607z" fill="#e6b076"/><path d="m358.653 231.728c-.32-.368-.617-.735-.966-1.104-10.554-11.162.379-43.415-5.796-66.434-13.416 8.317-31.423 11.666-45.35 15.301-5.037 1.315-10.097 2.487-15.167 3.594-.541 3.043-.792 6.016-.683 8.809.13 3.304.728 6.369 1.896 9.011 9.783 22.142 19.686 32.956 30.315 40.524 5.039 3.589 15.41 7.319 18.562 15.661 3.495 9.253-.541 12.393-1.453 13.899l-.002.006c-1.497.84-2.74 1.627-3.547 2.192-3.476 2.435-6.458 7.617-1.995 7.617-1.937 2.433-.592 6.674 3.173 5.182-.26 2.591 3.193 3.455 6.783 1.413 3.634 3.71 9.678-2.442 12.259-6.464 0 0 2.608-3.013 3.936-7.476.023-.074.043-.147.064-.222.079-.279.172-.544.24-.835 1.772-7.522 7.204-29.806-2.269-40.674z" fill="#e6b076"/><path d="m146.3 110.522c-10.317 1.61-11.874 33.395-8.691 55.942.544 3.852 34.013 21.325 40.089 11.181 11.416-19.061-21.082-68.734-31.398-67.123z" fill="#edc79e"/><path d="m404.17 250.405c-.32-.368-.617-.735-.965-1.103-13.915-14.717 9.552-66.113-18.136-84.643-24.385-16.319-49.817 21.523-48.86 45.912l.001.001c.129 3.304.728 6.369 1.896 9.01 9.783 22.142 19.685 32.956 30.314 40.525 5.04 3.589 15.411 7.319 18.562 15.661 3.495 9.253-.541 12.394-1.453 13.9l-.003.005c-1.497.84-2.74 1.628-3.547 2.193-3.475 2.434-6.457 7.616-1.994 7.616-1.937 2.434-.593 6.675 3.173 5.182-.26 2.591 3.193 3.455 6.783 1.413 3.634 3.71 9.678-2.443 12.259-6.464.002-.002 2.608-3.013 3.937-7.476.023-.074.043-.148.064-.221.08-.28.172-.545.24-.835 1.77-7.524 7.203-29.807-2.271-40.676z" fill="#ebbf90"/><path d="m207.504 278.685c.412 23.141 8.247 34.073 13.491 55.598 2.742 11.253 4.099 24.675 4.022 34.727 9.166-3.576 15.243-1.835 19.832 2.82.743-6.743 1.322-14.047 1.423-20.299.529-32.881 12.937-55.408 13.433-82.453.496-27.046-53.002-35.331-52.201 9.607z" fill="#ebbf90"/><path d="m225.017 369.01c-.061 8.058-1.044 13.955-2.988 14.801-4.372 1.901-5.199 3.271-6.175 6.321s.903 5.869 2.091 5.726c.475 1.283 3.114 4.009 4.207 3.439.903 1.425 5.669 2.758 7.189 1.998 1.521-.761 10.75-5.643 12.033-8.304.78-1.618 2.324-10.707 3.476-21.161-4.59-4.654-10.668-6.395-19.833-2.82z" fill="#f1d0ae"/><path d="m227.888 184.387c-6.238 2.272-10.866 3.449-13.164 2.932-12.311-2.77-15.231-10.999-15.231-10.999l-39.544 44.536s2.575 15.127 2.454 23.401c-.488 33.208 15.537 52.805 43.371 59.814 26.776-15.651 35.11-48.927 37.778-84.296 2.664-35.368-8.877-27.32-15.664-35.388z" fill="#f1d0ae"/><path d="m342.378 141.496c-29.517 2.285-87.315 32.994-114.491 42.89 6.787 8.068 9.367 9.642 11.367 41.98 2 32.337-16.374 59.386-33.482 77.704 7.25 1.825 15.256 2.844 24.032 2.971 35.853.52 103.54-54.469 134.316-75.125.016.01.026.019.043.029 3.218-2.205 19.835-14.009 24.738-23.488 6.126-11.845 8.538-27.189 6.831-30.598-3.072-6.137-17.541-39.136-53.354-36.363z" fill="#ebbf90"/><path d="m116.492 223.908c-.558 4.618 3.862 6.146 4.003 7.72.524 5.84 5.967 6.997 6.282 4.023.315-2.973 6.94 1.16 8.234-4.2 1.295-5.361-17.868-12.929-18.519-7.543z" fill="#4d4029"/><path d="m155.872 166.517c-5.334 0-24.546 15.416-27.151 12.131-1.517 2.492-2.636 4.716-3.129 6.397-2.403 8.195 1.316 10.525-.727 13.601-7.487 11.274-19.017 19.65-21.758 24.584-2.927 5.268 3.574 24.537 13.335 28.169 13.553 5.043 25.362-5.306 37.108-10.882 12.596-5.979 23.379-7.586 23.379-7.586s.916.059 2.362.008c.613-14.816 4.479-29.3-5.415-39.195-5.335-.002-7.336-21.894-18.004-27.227z" fill="#f1d0ae"/><path d="m154.668 151.139c-7.895 3.951-21.466 15.934-27.173 29.63 2.605 3.285 5.545 4.305 10.88 3.305 5.334-1 9.226-13.862 17.449-10.973s-3.544 14.383 2.29 17.383c4.706 2.421 8.603 3.148 12.737 3.212 3.024.047 5.153 2.429 5.962 3.708 6.094 9.633 3.018 22.454 2.476 35.534 3.574-.127 10.744-1.01 17.948-5.73 6.469-4.238 17.335-42.128 4.214-63.939-7.402-12.309-29.891-20.584-46.783-12.13z" fill="#ebbf90"/><g fill="#414141"><path d="m152.227 198.384c-2.931-.133-5.308 2.012-5.308 4.793 0 2.78 2.377 5.143 5.308 5.276 2.932.134 5.309-2.011 5.309-4.792 0-2.78-2.377-5.143-5.309-5.277z"/><path d="m128.595 190.485c-1.66-.062-3.081 1.542-3.223 3.66-.149 2.21 1.134 4.229 2.924 4.428 1.85.205 3.405-1.613 3.418-3.967.012-2.251-1.407-4.058-3.119-4.121z"/><path d="m108.588 216.951c-8.217 6.694-5.869 7.276-5.869 13.455.001 6.18 5.479 7.614 6.448 4.704.97-2.909 9.942-5.213 10.548-9.457.607-4.242-8.325-10.984-11.127-8.702z"/></g><path d="m180.672 157.824c-2.691 2.809 4.273 39.918 16.002 38.42 22.039-2.814 40.982-59.069 33.337-66.181-7.644-7.112-33.588 11.318-49.339 27.761z" fill="#edc79e"/><path d="m377.124 152.464s-5.892 30.11 2.525 53.529c8.418 23.419 17.169 32.504 20.697 38.6-.048 4.725 3.884-43.943-4.614-66.733s-18.608-25.396-18.608-25.396z" fill="#ebbf90"/></g></svg>