<?xml version="1.0" encoding="UTF-8"?>
<svg id="Layer_1" data-name="Layer 1" xmlns="http://www.w3.org/2000/svg" version="1.1" viewBox="0 0 512 512">
  <defs>
    <style>
      .cls-1 {
        fill: #696e73;
      }

      .cls-1, .cls-2, .cls-3, .cls-4, .cls-5, .cls-6, .cls-7, .cls-8, .cls-9, .cls-10, .cls-11, .cls-12, .cls-13, .cls-14 {
        stroke-width: 0px;
      }

      .cls-2 {
        fill: #cba06f;
      }

      .cls-3 {
        fill: #898d91;
      }

      .cls-4 {
        fill: #e5ba89;
      }

      .cls-5 {
        fill: #595f65;
      }

      .cls-6 {
        fill: #e3b681;
      }

      .cls-7 {
        fill: #e8c296;
      }

      .cls-8 {
        fill: #e9c347;
      }

      .cls-9 {
        fill: #f0d6b9;
      }

      .cls-10 {
        fill: #9c9fa2;
      }

      .cls-11 {
        fill: #293037;
      }

      .cls-12 {
        fill: #2e2839;
      }

      .cls-13 {
        fill: #eac59b;
      }

      .cls-14 {
        fill: #d5d5d5;
      }
    </style>
  </defs>
  <path class="cls-6" d="M369,226.2l-112.5-65v129.9s112.5-65,112.5-65Z"/>
  <path class="cls-2" d="M256.5,161.3l-112.5,65,112.5,65v-129.9Z"/>
  <path class="cls-7" d="M256.5,268.6l-112.5,65,112.5,65,112.5-65-112.5-65Z"/>
  <path class="cls-2" d="M369,226.2l-112.5,65v107.4s112.5-65,112.5-65v-107.4Z"/>
  <path class="cls-9" d="M364.8,223.8l-112.5,65,4.2,2.4,112.5-65-4.2-2.4Z"/>
  <path class="cls-9" d="M256.5,161.3l-4.2,2.4,112.5,65,4.2-2.4-112.5-65Z"/>
  <path class="cls-9" d="M148.2,223.8l-4.2,2.4,112.5,65,4.2-2.4-112.5-65Z"/>
  <path class="cls-6" d="M256.5,291.2l-112.5-65v107.4s112.5,65,112.5,65v-107.4Z"/>
  <path class="cls-9" d="M256.5,161.3l-112.5,65,4.2,2.4,112.5-65-4.2-2.4Z"/>
  <path class="cls-4" d="M369,226.2l-112.5,65,56.3,50.5,93.3-53.9-37.1-61.6Z"/>
  <path class="cls-13" d="M144,226.2l-37.1,61.6,93.3,53.9,56.3-50.5-112.5-65Z"/>
  <path class="cls-3" d="M182.6,243.8c.6-2.4-5-16.1-8.1-19l-4.8,11.4,12.9,7.6h0Z"/>
  <path class="cls-4" d="M195.7,167.4l-93.3,53.9,41.6,4.9,112.5-65-60.8,6.2Z"/>
  <path class="cls-13" d="M316.3,176l-59.8-14.7,112.5,65,40.6,3.6-93.3-53.9Z"/>
  <path class="cls-14" d="M139.7,191.9c3.5.4,6.8,1.5,9.7,3.4.4.3.8-.4.4-.7-3.1-2-6.5-3.1-10.1-3.6-.5,0-.5.7,0,.8Z"/>
  <path class="cls-14" d="M140.6,197.6h9.4c.5,0,.5-.8,0-.8h-9.4c-.5,0-.5.8,0,.8Z"/>
  <g>
    <path class="cls-1" d="M186.1,159.5c-13.5,7.4-22.1,23.6-15.2,35.8,9.6,17.1,5.3,44.8,5.3,44.8l43.5,25.5s-8.3-52.7-16-77.1c-3.5-11-13.3-20.2-17.6-29h0Z"/>
    <path class="cls-1" d="M221.1,164.3c-12-14.2-23.7-11-35-4.8,4,8.1.5,16.4,9.2,22.5,6.2,4.3,24.4,83.6,24.4,83.6l33.7,19.1,3,1.7s65.2-37.6,65.3-37.7c-5.7-26.1-25-41.8-40.1-48.9-24-11.4-45.7,3.8-60.6-35.4h0Z"/>
  </g>
  <path class="cls-5" d="M191.1,133c-6.7-8.9-36.7-22-36.1-19.2.6,2.8,11.3,28.5,11.3,28.5,0,0,31.4-.4,24.7-9.3h0Z"/>
  <path class="cls-1" d="M258.9,281.3c.7-.3,1.4-.6,2.1-1,6.9-9.4,19.2-19.1,32.6-16.2,0,0-19.4-8.3-34.8,17.2Z"/>
  <path class="cls-1" d="M152.5,171.5c1.7,11.8.3,10.1-2.1,17.3-2.3,7.2,0,11.4,9.6,17.2,11.8,7.1,32.3-3.5,43.3-7.2,0,0,0,0,.1,0,10.2-3.8,25.6-10.1,25.6-10.1,0,0-4.2-3.1-5.3-9.8-1.1-6.6-1.9-16.5-4-27.3-4.3-21.7-38.4-20.6-50-14.9-5,2.5-9.3,7.1-12.3,12.6-2.6,4.6-5.1,9.7-5.1,17.1,0,0,0,0,0,0-.1,1.8-.1,3.6.1,5.2h0Z"/>
  <path class="cls-5" d="M209.9,127.9l9.2,37.9c6.5-21.7-4.6-34.8-9.2-37.9Z"/>
  <path class="cls-10" d="M193.7,147c-4.4,15,24,20.1,25.5,18.9,3.2-9.4-7.5-35.8-9.2-37.9-12.3.2-16.2,19-16.2,19.1Z"/>
  <path class="cls-11" d="M150.3,189.7s-.5,2.3-.8,4.2c-.2,1.9.9,3.8,1.7,2.3.9-1.5,2.9-.1,3.6-1.9.7-1.8-3-4.2-4.5-4.6h0Z"/>
  <path class="cls-14" d="M156.2,198.6c7.1,2.6,10.8,10.4,13.5,17,.2.5,1,.3.8-.2-2.8-6.9-6.6-14.8-14.1-17.6-.5-.2-.7.6-.2.8Z"/>
  <path class="cls-14" d="M156.1,200.4c-.3-.4-1,0-.7.4,3.1,5,5,10.3,5.8,16.1,0,.5.8.3.8-.2-.8-5.9-2.8-11.2-5.9-16.3h0Z"/>
  <g>
    <path class="cls-8" d="M171.2,178.5c0,1.2.6,2.7,2.3,4.7,4.9,5.5,7.7-1.1,7.7-1.1,0,0-3.1-5.1-5.8-5.9-1.7-.5-4,.3-4.1,2.4Z"/>
    <path class="cls-12" d="M173.1,179.3c0,1.8,1,3.7,2.3,4.3s2.3-.3,2.4-2.1-1-3.7-2.3-4.3c-1.3-.6-2.3.3-2.4,2.1Z"/>
  </g>
  <g>
    <path class="cls-8" d="M155,166.9c-.8-.7-1.8-.5-2.6-.2-.5.3-.2,6.5.6,7.1.9.7,1.8,1.4,3,1.3,1.6-.1,2.2-1,2.2-2.1,0-2-1.7-4.9-3.1-6.1h0Z"/>
    <path class="cls-12" d="M154.8,167.7c-1.1-.7-2,.1-2.2,1.7-.1,1.6.7,3.5,1.7,4.2s2-.1,2.2-1.7c.1-1.6-.7-3.5-1.7-4.2h0Z"/>
  </g>
  <g>
    <path class="cls-3" d="M147.9,231.9c-2.4,5.1.9,9,2.2,6.9-.5,3.1,4.1,3.8,5.3,2.2-.3,2.4,3.3,2.9,6.3,1.5,6.8-4.1,9.6-7.8,8-11-.8-1.7-7.2-7-13.1-6.8-5.5.2-7.1,3.9-8.7,7.3Z"/>
    <path class="cls-3" d="M180.8,242.8c-.8,1-1.7,2.1-2.5,3.5-3,4.8-.5,9,1.2,7.1-.9,3,3.5,4.3,4.9,3-.6,2.3,2.9,3.3,6,2.4.4,1.8,3.5,2,5.7,0s8.3-16.6,8.3-16.6c0,0-12.4-12.8-23.6.6h0Z"/>
    <path class="cls-3" d="M174.8,225.3c-3.2-5.5-18.7-2.3-22.1.5-3.6,2.9,11.1,15.7,14.1,12.9,2.7-2.5,11.2-7.9,8-13.4h0Z"/>
    <path class="cls-3" d="M204.4,242.1l-5.2,11.4,14.9,8.9c.9-3.4-7.5-18.2-9.8-20.3Z"/>
  </g>
</svg>