<?xml version="1.0" encoding="UTF-8"?>
<svg id="Layer_1" data-name="Layer 1" xmlns="http://www.w3.org/2000/svg" width="512" height="512" version="1.1" viewBox="0 0 512 512">
  <path d="M207.14667,298.66668h48.85333v21.33333h-57.81334l-21.33333-21.33333H21.33333v32c0,17.70667,14.29334,32,32,32h202.66667v21.33333H53.33333c-29.44,0-53.33333-23.89335-53.33333-53.33333v-53.33333h42.66667V0h426.66668v149.33334h-21.33333V21.33333H64v256.00001h121.81334l21.33333,21.33333ZM512.00002,245.33334v266.66667h-213.33334V245.33334c0-29.44,23.89333-53.33333,53.33333-53.33333h106.66667c29.43998,0,53.33333,23.89333,53.33333,53.33333ZM490.66668,245.33334c0-17.70667-14.29334-32-32-32h-106.66667c-17.70667,0-32,14.29334-32,32v245.33334h170.66667v-245.33334Z" fill="#fa4529" stroke-width="0"/>
</svg>