<?xml version="1.0" encoding="UTF-8"?>
<svg id="Layer_1" data-name="Layer 1" xmlns="http://www.w3.org/2000/svg" width="24" height="24" version="1.1" viewBox="0 0 24 24">
  <path d="M20,0C18.073,0,16,.548,16,1.75v3.25h-8V1.75C8,.548,5.927,0,4,0S0,.548,0,1.75v7.583c0,1.055,1.687,1.57,3.5,1.651v2.034c-1.769.087-3.5.634-3.5,1.732v7.583c0,1.151,2.009,1.667,4,1.667s4-.516,4-1.667v-7.583c0-1.099-1.731-1.645-3.5-1.732v-2.034c1.813-.08,3.5-.596,3.5-1.651v-.766l8,6.667v7.099c0,1.151,2.009,1.667,4,1.667s4-.516,4-1.667v-7.583c0-1.202-2.073-1.75-4-1.75-1.553,0-3.181.363-3.763,1.13L8,7.266v-1.266h8v3.333c0,1.151,2.009,1.667,4,1.667s4-.516,4-1.667V1.75C24,.548,21.927,0,20,0ZM17,18.484c.77.347,1.881.516,3,.516s2.232-.17,3.002-.517v1.322c-.095.199-1.121.695-3.002.695-1.871,0-2.895-.49-3-.692v-1.324ZM20,18c-1.871,0-2.895-.49-3-.692v-1.362c.782.371,1.908.554,3,.554s2.219-.183,3.001-.555v1.361c-.099.2-1.124.694-3.001.694ZM20,23c-1.886,0-2.914-.499-3-.667v-1.349c.77.347,1.881.516,3,.516s2.234-.17,3.004-.518v1.321c-.09.198-1.118.697-3.004.697ZM20,14c1.922,0,2.939.55,3.001.741-.062.209-1.079.759-3.001.759-1.896,0-2.911-.535-2.998-.75.087-.215,1.103-.75,2.998-.75ZM1,5.484c.77.347,1.881.516,3,.516s2.232-.17,3.002-.517v1.322c-.095.199-1.121.695-3.002.695-1.871,0-2.895-.49-3-.692v-1.324ZM1,2.946c.782.371,1.908.554,3,.554s2.219-.183,3.001-.555v1.361c-.099.2-1.124.694-3.001.694s-2.895-.49-3-.692v-1.362ZM4,1c1.922,0,2.939.55,3.001.741-.062.209-1.079.759-3.001.759-1.896,0-2.911-.535-2.998-.75.087-.215,1.103-.75,2.998-.75ZM1,18.484c.77.347,1.881.516,3,.516s2.232-.17,3.002-.517v1.322c-.095.199-1.121.695-3.002.695-1.871,0-2.895-.49-3-.692v-1.324ZM4,18c-1.871,0-2.895-.49-3-.692v-1.362c.782.371,1.908.554,3,.554s2.219-.183,3.001-.555v1.361c-.099.2-1.124.694-3.001.694ZM4,23c-1.886,0-2.914-.499-3-.667v-1.349c.77.347,1.881.516,3,.516s2.234-.17,3.004-.518v1.321c-.09.198-1.118.697-3.004.697ZM7.001,14.741c-.062.209-1.079.759-3.001.759-1.896,0-2.911-.535-2.998-.75.087-.215,1.103-.75,2.998-.75,1.922,0,2.939.55,3.001.741ZM4,10c-1.886,0-2.914-.499-3-.667v-1.349c.77.347,1.881.516,3,.516s2.234-.17,3.004-.518v1.321c-.09.198-1.118.697-3.004.697ZM17,5.484c.77.347,1.881.516,3,.516s2.232-.17,3.002-.517v1.322c-.095.199-1.121.695-3.002.695-1.871,0-2.895-.49-3-.692v-1.324ZM20,5c-1.871,0-2.895-.49-3-.692v-1.362c.782.371,1.908.554,3,.554s2.219-.183,3.001-.555v1.361c-.099.2-1.124.694-3.001.694ZM20,1c1.922,0,2.939.55,3.001.741-.062.209-1.079.759-3.001.759-1.896,0-2.911-.535-2.998-.75.087-.215,1.103-.75,2.998-.75ZM20,10c-1.886,0-2.914-.499-3-.667v-1.349c.77.347,1.881.516,3,.516s2.234-.17,3.004-.518v1.321c-.09.198-1.118.697-3.004.697Z" fill="#fa4529" stroke-width="0"/>
</svg>