<?xml version="1.0" encoding="UTF-8"?>
<svg id="Layer_1" data-name="Layer 1" xmlns="http://www.w3.org/2000/svg" width="512" height="512" version="1.1" viewBox="0 0 512 512">
  <path d="M256.00001,0C114.83733,0,0,114.83733,0,256.00001s114.83733,256.00001,256.00001,256.00001,256.00001-114.83732,256.00001-256.00001S397.16269,0,256.00001,0ZM149.33334,465.0027v-70.33602c0-17.64266,14.35733-32,32-32h149.33334c17.64266,0,32,14.35734,32,32v70.33602c-32.02134,16.40531-68.28801,25.66398-106.66667,25.66398s-74.64535-9.25867-106.66667-25.66398ZM384.00001,452.58668v-57.92c0-29.41866-23.936-53.33333-53.33333-53.33333h-149.33334c-29.39734,0-53.33333,23.91467-53.33333,53.33333v57.92c-64.17067-41.92-106.66667-114.38933-106.66667-196.58668C21.33333,126.61334,126.61334,21.33333,256.00001,21.33333s234.66667,105.28,234.66667,234.66667c0,82.19733-42.49601,154.66667-106.66667,196.58668ZM256.00001,128c-47.06134,0-85.33334,38.272-85.33334,85.33334s38.27199,85.33334,85.33334,85.33334,85.33334-38.27199,85.33334-85.33334-38.27199-85.33334-85.33334-85.33334ZM256.00001,277.33334c-35.28534,0-64-28.71466-64-64s28.71466-64,64-64,64,28.71466,64,64-28.71466,64-64,64Z" fill="#fa4529" stroke-width="0"/>
</svg>