<?xml version="1.0" encoding="UTF-8"?>
<svg id="Layer_1" data-name="Layer 1" xmlns="http://www.w3.org/2000/svg" width="24" height="24" version="1.1" viewBox="0 0 24 24">
  <path d="M13.5,12.5h4.551c.24,1.416,1.466,2.5,2.949,2.5,1.654,0,3-1.346,3-3s-1.346-3-3-3c-1.483,0-2.71,1.084-2.949,2.5h-4.551c-.395,0-.781-.16-1.061-.439l-3.311-3.311,2.811-2.811c.279-.279.666-.439,1.061-.439h5.051c.24,1.416,1.466,2.5,2.949,2.5,1.654,0,3-1.346,3-3s-1.346-3-3-3c-1.483,0-2.71,1.084-2.949,2.5h-5.051c-.668,0-1.295.26-1.768.732l-2.811,2.811-2.735-2.735c.194-.397.313-.837.313-1.308C5.999,1.346,4.653,0,2.999,0S0,1.346,0,3s1.346,3,3,3c.818,0,1.559-.331,2.101-.864l2.614,2.614-2.384,2.384c-.55-.686-1.385-1.134-2.331-1.134C1.346,9,0,10.346,0,12s1.346,3,3,3c.946,0,1.78-.448,2.331-1.134l2.384,2.384-2.614,2.614c-.542-.533-1.283-.864-2.101-.864C1.346,18,0,19.346,0,21s1.346,3,3,3,3-1.346,3-3c0-.471-.119-.911-.313-1.308l2.735-2.735,2.811,2.811c.473.472,1.1.732,1.768.732h5.051c.24,1.416,1.466,2.5,2.949,2.5,1.654,0,3-1.346,3-3s-1.346-3-3-3c-1.483,0-2.71,1.084-2.949,2.5h-5.051c-.395,0-.781-.16-1.061-.439l-2.811-2.811,3.311-3.311c.279-.279.666-.439,1.061-.439h-.001ZM21,10c1.103,0,2,.897,2,2s-.897,2-2,2-2-.897-2-2,.897-2,2-2ZM21,2c1.103,0,2,.897,2,2s-.897,2-2,2-2-.897-2-2,.897-2,2-2ZM3,5c-1.103,0-2-.897-2-2S1.897,1,3,1s2,.897,2,2-.897,2-2,2ZM3,23c-1.103,0-2-.897-2-2s.897-2,2-2,2,.897,2,2-.897,2-2,2ZM21,18c1.103,0,2,.897,2,2s-.897,2-2,2-2-.897-2-2,.897-2,2-2ZM3,14c-1.103,0-2-.897-2-2s.897-2,2-2,2,.897,2,2-.897,2-2,2ZM8.422,15.543l-2.591-2.591c.102-.301.169-.617.169-.952s-.068-.651-.169-.952l2.591-2.591,3.311,3.311c.088.087.185.16.283.232-.097.073-.195.145-.283.232l-3.311,3.311Z" fill="#fa4529" stroke-width="0"/>
</svg>