<?xml version="1.0" encoding="UTF-8"?>
<svg id="Layer_1" data-name="Layer 1" xmlns="http://www.w3.org/2000/svg" width="24" height="24" version="1.1" viewBox="0 0 24 24">
  <path d="M22.843,15.33c-1.006.911-3.085,1.675-4.743,2.093,1.802-3.373,2.917-7.514,2.917-11.224v-1.519l-1.027,1.389c-1.661,2.245-3.132,4.213-4.622,5.895-.659-3.01-1.628-6.468-2.91-10.474L11.981-.001l-.477,1.491c-.961,3.002-2.14,6.796-2.975,10.509-1.218-1.459-2.465-3.144-3.81-4.97l-1.736-2.35v1.519c0,4.017,1.159,7.946,2.804,11.151-1.613-.407-3.64-1.125-4.63-2.021L0,14.279l.331,1.524c.338,1.557,1.059,3.01,2.142,4.322,2.121,2.569,5.63,3.872,9.83,3.872h.699c3.81,0,6.525-1.45,8.525-3.872,1.083-1.312,1.804-2.766,2.142-4.322l.331-1.524-1.157,1.049v.002ZM19.943,7.815c-.319,3.645-1.675,7.608-3.586,10.578-.094-1.485-.345-3.229-.739-5.206,1.431-1.545,2.812-3.336,4.325-5.372ZM3.246,19.491c-.666-.807-1.18-1.67-1.537-2.579,1.492.813,3.457,1.358,4.725,1.615,1.027,1.758,2.188,3.237,3.358,4.318-2.805-.377-5.009-1.492-6.546-3.354ZM14.37,22.114c-.417.497-1.054.811-1.75.862-.011,0-.022,0-.033.001-.695.049-1.365-.179-1.852-.621-3.009-2.615-6.19-8.431-6.683-14.545,2.511,3.408,4.693,6.345,7.048,8.216,1.025.811,1.963,1.518,3.035,2.45.502.419.818,1.061.866,1.761.048.699-.176,1.377-.63,1.876h-.001ZM14.784,17.717c-1.082-.941-2.028-1.655-3.062-2.473-.799-.635-1.585-1.415-2.376-2.298.703-3.302,1.719-6.775,2.634-9.694,1.136,3.665,1.993,6.885,2.566,9.634.438,2.103.706,3.927.81,5.475-.166-.238-.351-.46-.571-.644h-.001ZM20.754,19.491c-1.353,1.639-3.223,2.696-5.561,3.186.478-.564.751-1.288.792-2.055.506-.61.972-1.298,1.417-2.016,1.327-.257,3.365-.853,4.886-1.691-.357.908-.87,1.77-1.535,2.576h.001Z" fill="#fa4529" stroke-width="0"/>
</svg>