<?xml version="1.0" encoding="UTF-8"?>
<svg id="Layer_1" data-name="Layer 1" xmlns="http://www.w3.org/2000/svg" width="24" height="24" version="1.1" viewBox="0 0 24 24">
  <path d="M21.5,1H2.5C1.122,1,0,2.122,0,3.5v19.5h24V3.5c0-1.378-1.121-2.5-2.5-2.5ZM2.5,2h19c.827,0,1.5.673,1.5,1.5v4.5H1V3.5c0-.827.673-1.5,1.5-1.5ZM16,16v6h-8v-6h8ZM1,15v-6h22v6H1ZM1,16h6v6H1v-6ZM17,22v-6h6v6h-6ZM3,5c0-.552.448-1,1-1s1,.448,1,1-.448,1-1,1-1-.448-1-1ZM6,5c0-.552.448-1,1-1s1,.448,1,1-.448,1-1,1-1-.448-1-1ZM9,5c0-.552.448-1,1-1s1,.448,1,1-.448,1-1,1-1-.448-1-1Z" fill="#fa4529" stroke-width="0"/>
</svg>