<?xml version="1.0" encoding="UTF-8"?>
<svg id="Layer_1" data-name="Layer 1" xmlns="http://www.w3.org/2000/svg" width="512" height="512" version="1.1" viewBox="0 0 512 512">
  <path d="M458.66668,85.33334h-74.66667v-53.33333C384.00001,14.35733,369.64267,0,352.00001,0h-192.00001C142.35733,0,128,14.35733,128,32v53.33333H53.33333C23.936,85.33334,0,109.24801,0,138.66667v373.33334h512.00002V138.66667c0-29.41866-23.91467-53.33333-53.33333-53.33333ZM149.33334,32c0-5.86667,4.77867-10.66667,10.66667-10.66667h192.00001c5.86666,0,10.66667,4.8,10.66667,10.66667v53.33333h-213.33334v-53.33333ZM490.66668,490.66668h-106.66667V149.33334h-21.33333v341.33334h-213.33334V149.33334h-21.33333v341.33334H21.33333V138.66667c0-17.64267,14.35733-32,32-32h405.33335c17.64266,0,32,14.35733,32,32v352.00001Z" fill="#fa4529" stroke-width="0"/>
</svg>