<?xml version="1.0" encoding="UTF-8"?>
<svg id="Layer_1" data-name="Layer 1" xmlns="http://www.w3.org/2000/svg" width="24" height="24" version="1.1" viewBox="0 0 24 24">
  <path d="M5,3h-1V0h8.558c-.181.31-.322.644-.415,1h-7.143v2ZM19,11h1v10.5c0,1.379-1.122,2.5-2.5,2.5H6.5c-1.378,0-2.5-1.121-2.5-2.5v-5.5h1v1h14v-6ZM19,21.5v-3.5H5v3.5c0,.827.673,1.5,1.5,1.5h11c.827,0,1.5-.673,1.5-1.5ZM10,21h4v-1h-4v1ZM5.871,14H0v-7c0-1.105.895-2,2-2h0l6,.002c1.1,0,2,.901,1.999,2.001l-.002,7.772c.002.876-.98,1.371-1.672.915l-2.454-1.69ZM1,13h5.182l2.71,1.866c.017-.003.105-.009.105-.092l.002-7.772c.012-.532-.467-1.012-1-1l-6-.002c-.552,0-1.001.449-1.001,1v6h.002ZM24,2v7h-5.872l-2.454,1.69c-.692.456-1.674-.039-1.672-.915l-.002-7.772C14,.903,14.899.003,15.999.002L21.999,0h0C23.103,0,23.999.895,23.999,2h.001ZM23,2c0-.551-.449-1-1-1l-6,.002c-.533-.011-1.011.468-1,1l.002,7.772c0,.083.088.088.089.088l2.726-1.862h5.183V2Z" fill="#fa4529" stroke-width="0"/>
</svg>