<?xml version="1.0" encoding="UTF-8"?>
<svg id="Layer_1" data-name="Layer 1" xmlns="http://www.w3.org/2000/svg" width="512" height="512" version="1.1" viewBox="0 0 512 512">
  <path d="M235.73334,277.33334c4.94934,24.32001,26.49599,42.66667,52.26666,42.66667,29.39734,0,53.33333-23.91467,53.33333-53.33333,0-25.77067-18.34666-47.296-42.66667-52.26666v-108.82133c24.32001-4.94933,42.66667-26.496,42.66667-52.26667C341.33334,23.89334,317.39735-.02133,288.00001-.02133c-25.74933,0-47.296,18.34667-52.26666,42.66667H105.57868C100.62935,18.32534,79.08267-.02133,53.31201-.02133,23.936,0,0,23.91467,0,53.33333c0,25.77067,18.34667,47.296,42.66667,52.26666v108.82133C18.34667,219.37067,0,240.91732,0,266.688c0,29.41866,23.936,53.33333,53.33333,53.33333,25.74933,0,47.296-18.34666,52.26666-42.66667h130.15467l-.02132-.02132ZM320.00001,266.66667c0,17.64266-14.35734,32-32,32s-32-14.35734-32-32,14.35734-32,32-32,32,14.35734,32,32ZM288.00001,21.33333c17.64266,0,32,14.35733,32,32s-14.35734,32-32,32-32-14.35733-32-32,14.35734-32,32-32ZM21.33333,53.33333c0-17.64267,14.35733-32,32-32s32,14.35733,32,32-14.35733,32-32,32-32-14.35733-32-32ZM53.33333,298.66668c-17.64267,0-32-14.35734-32-32s14.35733-32,32-32,32,14.35734,32,32-14.35733,32-32,32ZM64,214.40001v-108.82133c20.864-4.24533,37.33333-20.71467,41.6-41.6h130.15467c4.24534,20.864,20.736,37.33334,41.6,41.6v108.82133c-20.86399,4.24534-37.33333,20.71466-41.6,41.6H105.6c-4.24533-20.86399-20.736-37.33333-41.6-41.6ZM469.33335,406.4v-87.488c24.31999-4.94934,42.66667-26.49599,42.66667-52.26666,0-29.41866-23.936-53.33333-53.33333-53.33333s-53.33333,23.91467-53.33333,53.33333c0,25.77067,18.34668,47.296,42.66667,52.26666v87.488c-20.86401,4.24532-37.33333,20.71468-41.60002,41.60002h-129.06667c-4.24534-20.86401-20.736-37.33333-41.6-41.60002v-54.39999h-21.33333v54.39999c-24.32001,4.94934-42.66667,26.49601-42.66667,52.26668,0,29.41866,23.936,53.33333,53.33333,53.33333,25.74933,0,47.296-18.34668,52.26666-42.66667h129.06667c4.94934,24.31999,26.49601,42.66667,52.26668,42.66667,29.39734,0,53.33333-23.91467,53.33333-53.33333,0-25.77067-18.34668-47.29598-42.66667-52.26668ZM225.06668,490.66668c-17.64266,0-32-14.35734-32-32s14.35734-32,32-32,32,14.35734,32,32-14.35734,32-32,32ZM426.66668,266.66667c0-17.64266,14.35734-32,32-32s32,14.35734,32,32-14.35734,32-32,32-32-14.35734-32-32ZM458.66668,490.66668c-17.64266,0-32-14.35734-32-32s14.35734-32,32-32,32,14.35734,32,32-14.35734,32-32,32Z" fill="#fa4529" stroke-width="0"/>
</svg>