<?xml version="1.0" encoding="UTF-8"?>
<svg id="Layer_1" data-name="Layer 1" xmlns="http://www.w3.org/2000/svg" width="512" height="512" version="1.1" viewBox="0 0 512 512">
  <path d="M453.73866,58.21867l-27.75468-55.46667-27.73332,55.46667-55.488,27.75467,55.488,27.73333,27.73332,55.46667,27.75468-55.46667,55.46668-27.73334-55.46668-27.75467h0ZM437.82399,97.77067l-11.84001,23.65867-11.81869-23.65867-23.68001-11.81866,23.68001-11.84,11.81869-23.65867,11.84001,23.65867,23.65865,11.84-23.65865,11.81866ZM145.83464,373.7387l-47.89333-23.95732-23.95734-47.89333-23.95734,47.89333-47.8933,23.97864,47.89333,23.95732,23.95734,47.89335,23.95734-47.89331,47.89333-23.95732-.00003-.02136ZM73.98397,397.88803l-8.04267-16.10665-16.10666-8.04268,16.10667-8.04268,8.04267-16.10665,8.04267,16.10665,16.10667,8.04268-16.10667,8.04268s-8.04267,16.10665-8.04267,16.10665ZM170.66664,426.66668v-21.33333h170.66666v21.33333h-170.66667.00001ZM85.33331,490.66668h341.33333v21.33333H85.33334v-21.33333h-.00003ZM256.96001,106.66667c29.41866,0,53.33333-23.91467,53.33333-53.33333S286.37867,0,256.96001,0s-53.33333,23.91467-53.33333,53.33333,23.91467,53.33333,53.33333,53.33333ZM256.96001,21.33333c17.64266,0,32,14.35733,32,32s-14.35734,32-32,32-32-14.35733-32-32,14.35734-32,32-32ZM362.66668,320.00001h-213.33334v-21.33333h213.33334v21.33333ZM152.25601,213.33334h-25.94134l36.8-53.16267c13.95201-20.13866,36.90666-32.17067,61.39734-32.17067h62.95467c24.46934,0,47.44533,12.01067,61.39734,32.14933l36.82133,53.184h-25.94133l-28.416-41.04533c-9.96267-14.37866-26.34666-22.95467-43.86133-22.95467h-62.95467c-17.49333,0-33.89866,8.576-43.86133,22.97599l-28.39466,41.02401h-.00003Z" fill="#fa4529" stroke-width="0"/>
</svg>