<?xml version="1.0" encoding="UTF-8"?>
<svg id="Layer_1" data-name="Layer 1" xmlns="http://www.w3.org/2000/svg" width="512" height="512" version="1.1" viewBox="0 0 512 512">
  <path d="M490.66668,298.66668c0-94.10132-76.56535-170.66667-170.66667-170.66667h-42.66667V42.66667h-42.66667V0h-21.33333v42.66667h-42.66667v256.00001h106.66667v-149.33334h42.66667c82.32532,0,149.33334,66.98668,149.33334,149.33334s-67.00802,149.33334-149.33334,149.33334h-85.33334v-64h128v-21.33333H85.33334v21.33333h128v64H21.33333v21.33333h64v42.66667h21.33333v-42.66667h213.33334c7.23199,0,14.336-.59733,21.33333-1.47201v44.13867h21.33333v-48.27735c73.49333-19.02934,128-85.69601,128-165.05599ZM256.00001,277.33334h-64V64h64v213.33334Z" fill="#fa4529" stroke-width="0"/>
</svg>