<?xml version="1.0" encoding="UTF-8"?>
<svg id="Layer_1" data-name="Layer 1" xmlns="http://www.w3.org/2000/svg" width="24" height="24" version="1.1" viewBox="0 0 24 24">
  <path d="M2.5,0C1.122,0,0,1.122,0,2.5s1.122,2.5,2.5,2.5,2.5-1.122,2.5-2.5S3.878,0,2.5,0ZM2.5,4c-.827,0-1.5-.673-1.5-1.5s.673-1.5,1.5-1.5,1.5.673,1.5,1.5-.673,1.5-1.5,1.5ZM2.5,6c-1.378,0-2.5,1.122-2.5,2.5v8.5h2v7h1v-7h2v-8.5c0-1.378-1.122-2.5-2.5-2.5ZM4,16H1v-7.5c0-.827.673-1.5,1.5-1.5s1.5.673,1.5,1.5v7.5ZM8.5,0C7.122,0,6,1.122,6,2.5s1.122,2.5,2.5,2.5,2.5-1.122,2.5-2.5S9.878,0,8.5,0ZM8.5,4c-.827,0-1.5-.673-1.5-1.5s.673-1.5,1.5-1.5,1.5.673,1.5,1.5-.673,1.5-1.5,1.5ZM8.5,6c-1.378,0-2.5,1.122-2.5,2.5v8.5h2v7h1v-7h2v-8.5c0-1.378-1.122-2.5-2.5-2.5ZM10,16h-3v-7.5c0-.827.673-1.5,1.5-1.5s1.5.673,1.5,1.5v7.5ZM14.5,0C13.122,0,12,1.122,12,2.5s1.122,2.5,2.5,2.5,2.5-1.122,2.5-2.5S15.878,0,14.5,0ZM14.5,4c-.827,0-1.5-.673-1.5-1.5s.673-1.5,1.5-1.5,1.5.673,1.5,1.5-.673,1.5-1.5,1.5ZM14.5,6c-1.378,0-2.5,1.122-2.5,2.5v8.5h2v7h1v-7h2v-8.5c0-1.378-1.122-2.5-2.5-2.5ZM16,16h-3v-7.5c0-.827.673-1.5,1.5-1.5s1.5.673,1.5,1.5v7.5ZM20.5,5c1.378,0,2.5-1.122,2.5-2.5S21.878,0,20.5,0s-2.5,1.122-2.5,2.5,1.122,2.5,2.5,2.5ZM20.5,1c.827,0,1.5.673,1.5,1.5s-.673,1.5-1.5,1.5-1.5-.673-1.5-1.5.673-1.5,1.5-1.5ZM20.5,6c-1.378,0-2.5,1.122-2.5,2.5v8.5h2v7h1v-7h2v-8.5c0-1.378-1.122-2.5-2.5-2.5ZM22,16h-3v-7.5c0-.827.673-1.5,1.5-1.5s1.5.673,1.5,1.5v7.5Z" fill="#fa4529" stroke-width="0"/>
</svg>