<?xml version="1.0" encoding="UTF-8"?>
<svg id="Layer_1" data-name="Layer 1" xmlns="http://www.w3.org/2000/svg" width="512" height="512" version="1.1" viewBox="0 0 512 512">
  <path d="M490.66668,128v170.66667h-149.39734C339.86134,171.11467,313.23733,0,256.00001,0s-83.86133,171.11467-85.26933,298.66668H21.33333v-170.66667H0v320.00001h21.33333v-60.88534l134.48534,124.88534h36.18134v-42.66667h128v42.66667h37.31201l133.35466-124.73601v60.736h21.33333V128h-21.33333ZM256.00001,21.33333c15.63733,0,33.00267,37.35467,45.71733,96.81067-13.99467-7.63733-29.29067-11.47734-45.71733-11.47734s-31.72266,3.84-45.71733,11.47734c12.69334-59.456,30.08-96.81067,45.71733-96.81067ZM170.66667,490.66668h-6.48533L21.33333,358.016v-38.01599h149.33334v170.66667ZM192.00001,448.00001v-138.66667c0-59.75468,4.90666-115.13599,12.58667-161.04533,14.95467-13.46133,32.23466-20.28801,51.41333-20.28801s36.45866,6.82667,51.41333,20.28801c7.65867,45.90934,12.58667,101.31201,12.58667,161.04533v138.66667h-128ZM348.88535,490.66668h-7.552v-170.66667h149.33334v38.03735l-141.78134,132.62932Z" fill="#fa4529" stroke-width="0"/>
</svg>