<?xml version="1.0" encoding="UTF-8"?>
<svg id="Layer_1" data-name="Layer 1" xmlns="http://www.w3.org/2000/svg" width="512" height="512" version="1.1" viewBox="0 0 512 512">
  <path d="M374.65602,311.91468l135.82935-55.91467-135.82935-55.91467,93.69601-156.416-156.416,93.69601L256.00001,1.51467l-55.31734,134.37867L44.97067,44.992l90.90134,155.69066L1.51467,256.00001l135.82934,55.91467-93.69601,156.41598,156.41601-93.69601,55.91467,135.82935,55.91467-135.82935,156.41598,93.69601-93.69601-156.416.04268.00002ZM406.33603,105.664l-51.62667,86.20799-24.49066-10.09066-10.09066-24.49066,86.20799-51.62667ZM104.36269,104.34134l88.12799,51.45601-10.68801,25.98401-25.984,10.70933-51.43466-88.14934h-.02132ZM105.68536,406.33603l51.62667-86.20801,24.49067,10.09066,10.09066,24.49068-86.208,51.62667ZM198.14403,313.89869l-140.56534-57.87734,140.56534-57.87734,57.87734-140.544,57.87734,140.544,140.56533,57.87734-140.56535,57.87734-57.87734,140.54399-57.87734-140.54399h.00002ZM330.2187,330.24002l24.49066-10.09066,51.62667,86.20799-86.20801-51.62667,10.09066-24.49066h.00002Z" fill="#fa4529" stroke-width="0"/>
</svg>