<?xml version="1.0" encoding="UTF-8"?>
<svg id="Layer_1" data-name="Layer 1" xmlns="http://www.w3.org/2000/svg" width="24" height="24" version="1.1" viewBox="0 0 24 24">
  <path d="M5.696,14.397c-.28.482-.495,1.008-.603,1.578-.669.637-1.093,1.529-1.093,2.524v5.5h-1v-5.5c0-1.837,1.114-3.405,2.696-4.103v.001ZM18.304,14.397c.28.482.495,1.008.603,1.578.669.637,1.093,1.529,1.093,2.524v5.5h1v-5.5c0-1.837-1.114-3.405-2.696-4.103v.001ZM18,6c0,3.309-2.691,6-6,6s-6-2.691-6-6S8.691,0,12,0s6,2.691,6,6ZM17,6c0-2.757-2.243-5-5-5s-5,2.243-5,5,2.243,5,5,5,5-2.243,5-5ZM17,16.93c-.126,3.02-4.593,5.964-5,6.278-.403-.31-4.877-3.261-5-6.278,0-1.615,1.233-2.93,2.75-2.93.967,0,1.761.367,2.242.977.476-.614,1.27-.977,2.258-.977,1.517,0,2.75,1.314,2.75,2.93ZM16,16.93c0-1.064-.785-1.93-1.75-1.93-.411,0-1.75.108-1.75,1.5v.5h-1v-.5c0-1.107-.943-1.5-1.75-1.5-.965,0-1.75.865-1.75,1.93,0,1.738,2.664,4.066,4,5.055,1.336-.989,4-3.319,4-5.055Z" fill="#fa4529" stroke-width="0"/>
</svg>