<?xml version="1.0" encoding="UTF-8"?>
<svg id="Layer_1" data-name="Layer 1" xmlns="http://www.w3.org/2000/svg" width="24" height="24" version="1.1" viewBox="0 0 24 24">
  <path d="M5.5,12c-1.654,0-3,1.346-3,3s1.346,3,3,3,3-1.346,3-3-1.346-3-3-3ZM5.5,17c-1.103,0-2-.897-2-2s.897-2,2-2,2,.897,2,2-.897,2-2,2ZM18.5,18c1.654,0,3-1.346,3-3s-1.346-3-3-3-3,1.346-3,3,1.346,3,3,3ZM18.5,13c1.103,0,2,.897,2,2s-.897,2-2,2-2-.897-2-2,.897-2,2-2ZM7.558,10.748c.264.169.558.254.854.254.847.011,1.611-.73,1.588-1.59l.002-7.413C10.001.896,9.104,0,8.001,0H2C.897,0,0,.898,0,2.001v7h5.327l2.23,1.748.001-.001ZM1,2c0-.552.448-1,1-1h6.001c.552,0,1,.447,1,.999l-.002,7.413c.029.427-.531.739-.863.521l-2.463-1.934H1V2ZM22,0h-6.001C14.896,0,13.999.896,13.999,1.999l.002,7.413c-.022.854.73,1.596,1.576,1.587.305,0,.615-.092.904-.278l2.191-1.721h5.327V2C23.999.897,23.102,0,21.999,0h.001ZM23,8h-4.673l-2.424,1.906c-.368.253-.919-.045-.902-.494l-.002-7.413c0-.552.448-1,1-1h6.001c.552,0,1,.449,1,1.001v6ZM11,22v2h-1v-2c0-1.103-.897-2-2-2H3c-1.103,0-2,.897-2,2v2H0v-2c0-1.654,1.346-3,3-3h5c1.654,0,3,1.346,3,3ZM24,22v2h-1v-2c0-1.103-.897-2-2-2h-5c-1.103,0-2,.897-2,2v2h-1v-2c0-1.654,1.346-3,3-3h5c1.654,0,3,1.346,3,3Z" fill="#fa4529" stroke-width="0"/>
</svg>