<?xml version="1.0" encoding="UTF-8"?>
<svg id="Layer_1" data-name="Layer 1" xmlns="http://www.w3.org/2000/svg" width="24" height="24" version="1.1" viewBox="0 0 24 24">
  <path d="M15,11H0V2.5C0,1.121,1.122,0,2.5,0h12.5v11ZM1,10h13V1H2.5c-.827,0-1.5.673-1.5,1.5v7.5ZM24,11h-7V0h4.5C22.878,0,24,1.121,24,2.5v8.5ZM18,10h5V2.5c0-.827-.673-1.5-1.5-1.5h-3.5v9ZM7,24H2.5c-1.378,0-2.5-1.121-2.5-2.5v-8.5h7v11ZM1,14v7.5c0,.827.673,1.5,1.5,1.5h3.5v-9H1ZM21.5,24h-12.5v-11h15v8.5c0,1.379-1.122,2.5-2.5,2.5ZM10,23h11.5c.827,0,1.5-.673,1.5-1.5v-7.5h-13v9Z" fill="#fa4529" stroke-width="0"/>
</svg>