<?xml version="1.0" encoding="UTF-8"?>
<svg id="Layer_1" data-name="Layer 1" xmlns="http://www.w3.org/2000/svg" width="24" height="24" version="1.1" viewBox="0 0 24 24">
  <path d="M2,20c-1.103,0-2,.897-2,2s.897,2,2,2,2-.897,2-2-.897-2-2-2ZM2,23c-.551,0-1-.448-1-1s.449-1,1-1,1,.448,1,1-.449,1-1,1ZM10.5,16c0,1.103.897,2,2,2s2-.897,2-2-.897-2-2-2-2,.897-2,2ZM13.5,16c0,.552-.448,1-1,1s-1-.448-1-1,.449-1,1-1,1,.448,1,1ZM24,19.5c0,1.93-1.57,3.5-3.5,3.5H5.874c.082-.32.126-.655.126-1h14.5c1.378,0,2.5-1.122,2.5-2.5s-1.122-2.5-2.5-2.5h-4.126c.082-.32.126-.655.126-1h4c1.93,0,3.5,1.57,3.5,3.5ZM2,13c0-2.209,1.791-4,4-4h10v1H6c-1.657,0-3,1.343-3,3s1.343,3,3,3h2.5c0,.345.044.68.126,1h-2.626c-2.209,0-4-1.791-4-4ZM19,5.983l4.941-2.977L19.091,0h-1.091v10h1v-4.017ZM19,1.12l3.023,1.874-3.023,1.821V1.12Z" fill="#fa4529" stroke-width="0"/>
</svg>