<?xml version="1.0" encoding="UTF-8"?>
<svg id="Layer_1" data-name="Layer 1" xmlns="http://www.w3.org/2000/svg" width="24" height="24" version="1.1" viewBox="0 0 24 24">
  <path d="M18,19h6v1h-6v-1ZM8,9c.552,0,1-.448,1-1s-.448-1-1-1-1,.448-1,1,.448,1,1,1ZM4,9c.552,0,1-.448,1-1s-.448-1-1-1-1,.448-1,1,.448,1,1,1ZM13,17h3v5h-3v-2H0v-1h13v-2ZM14,21h1v-3h-1v3ZM0,9C0,5.691,2.691,3,6,3s6,2.691,6,6-2.691,6-6,6S0,12.309,0,9ZM1,9c0,2.757,2.243,5,5,5s5-2.243,5-5-2.243-5-5-5S1,6.243,1,9ZM20,9c.552,0,1-.448,1-1s-.448-1-1-1-1,.448-1,1,.448,1,1,1ZM16,9c.552,0,1-.448,1-1s-.448-1-1-1-1,.448-1,1,.448,1,1,1ZM12,9c0-3.309,2.691-6,6-6s6,2.691,6,6-2.691,6-6,6-6-2.691-6-6ZM13,9c0,2.757,2.243,5,5,5s5-2.243,5-5-2.243-5-5-5-5,2.243-5,5ZM15.232,10.854c.763.763,1.766,1.145,2.768,1.145s2.005-.382,2.768-1.145l-.707-.707c-1.137,1.137-2.984,1.137-4.121,0l-.707.707h-.001ZM3.939,11.854c1.101-1.102,3.021-1.102,4.121,0l.707-.707c-1.478-1.479-4.058-1.479-5.535,0,0,0,.707.707.707.707Z" fill="#fa4529" stroke-width="0"/>
</svg>