<?xml version="1.0" encoding="UTF-8"?>
<svg id="Layer_1" data-name="Layer 1" xmlns="http://www.w3.org/2000/svg" width="512" height="512" version="1.1" viewBox="0 0 512 512">
  <path d="M298.66668,256.00001c0-23.53066-19.13601-42.66667-42.66667-42.66667s-42.66667,19.13601-42.66667,42.66667,19.13601,42.66667,42.66667,42.66667,42.66667-19.13601,42.66667-42.66667ZM234.66667,256.00001c0-11.776,9.55733-21.33333,21.33333-21.33333s21.33333,9.55733,21.33333,21.33333-9.55733,21.33333-21.33333,21.33333-21.33333-9.55733-21.33333-21.33333ZM149.33334,213.33334c23.53066,0,42.66667-19.13601,42.66667-42.66667s-19.13601-42.66667-42.66667-42.66667-42.66667,19.136-42.66667,42.66667,19.136,42.66667,42.66667,42.66667ZM149.33334,149.33334c11.776,0,21.33333,9.55733,21.33333,21.33333s-9.55733,21.33333-21.33333,21.33333-21.33333-9.55733-21.33333-21.33333,9.55733-21.33333,21.33333-21.33333ZM426.66668,149.33334c35.28532,0,64-28.71466,64-64s-28.71468-64-64-64-64,28.71467-64,64,28.71468,64,64,64ZM426.66668,42.66667c23.53068,0,42.66667,19.136,42.66667,42.66667s-19.13599,42.66667-42.66667,42.66667-42.66667-19.136-42.66667-42.66667,19.13599-42.66667,42.66667-42.66667ZM256.00001,106.66667c82.32534,0,149.33334,67.008,149.33334,149.33334s-67.008,149.33334-149.33334,149.33334-149.33334-67.008-149.33334-149.33334c0-3.90399.29867-7.72266.576-11.54134,6.50666,3.73334,13.46133,6.65601,20.90667,8.57601-.02133,1.00267-.14933,1.98401-.14933,2.98667,0,70.592,57.408,127.99998,128,127.99998s128-57.408,128-128-57.408-128-128-128c-10.73067,0-21.07733,1.472-31.04,3.968-3.49866-6.80534-7.76534-13.09866-12.88534-18.688,13.888-4.288,28.65068-6.61333,43.92533-6.61333v-.02132ZM512.00002,256.00001c0,141.16268-114.83732,256.00001-256.00001,256.00001S0,397.16269,0,256.00001,114.83733,0,256.00001,0C287.61602,0,317.78134,6.03733,345.74936,16.55467c-4.75732,5.58933-8.896,11.648-12.43734,18.13333-24.256-8.512-50.19733-13.35467-77.33334-13.35467C126.61334,21.33333,21.33333,126.61334,21.33333,256.00001s105.28,234.66667,234.66667,234.66667,234.66667-105.27999,234.66667-234.66667c0-27.11467-4.86401-53.07733-13.35466-77.33334,6.50667-3.54134,12.54399-7.65867,18.13334-12.43734,10.51733,27.98934,16.55465,58.13334,16.55465,89.74933v.02134Z" fill="#fa4529" stroke-width="0"/>
</svg>