<?xml version="1.0" encoding="UTF-8"?>
<svg id="Layer_1" data-name="Layer 1" xmlns="http://www.w3.org/2000/svg" width="24" height="24" version="1.1" viewBox="0 0 24 24">
  <path d="M10,12c0,1.103.897,2,2,2s2-.897,2-2-.897-2-2-2-2,.897-2,2ZM13,12c0,.551-.448,1-1,1s-1-.449-1-1,.448-1,1-1,1,.449,1,1ZM10.956,8.064l-3.905-3.888.705-.709,3.744,3.728V0h1v7.21l3.743-3.743.707.707-3.89,3.889c-.281.281-.654.436-1.053.436s-.771-.155-1.052-.436l.001.001ZM13.044,15.936l3.905,3.889-.705.709-3.744-3.728v7.195h-1v-7.211l-3.743,3.743-.707-.707,3.89-3.89c.579-.58,1.523-.581,2.104,0ZM8.065,13.044l-3.889,3.905-.709-.705,3.728-3.744H0v-1h7.211l-3.743-3.743.707-.707,3.89,3.889c.58.58.58,1.524,0,2.104v.001ZM24.001,12.5h-7.211l3.743,3.743-.707.707-3.89-3.89c-.58-.58-.58-1.524,0-2.105l3.889-3.905.709.706-3.728,3.743h7.195v1.001Z" fill="#fa4529" stroke-width="0"/>
</svg>