<?xml version="1.0" encoding="UTF-8"?>
<svg id="Layer_1" data-name="Layer 1" xmlns="http://www.w3.org/2000/svg" width="24" height="24" version="1.1" viewBox="0 0 24 24">
  <path d="M3,19v-5h1v5h-1ZM7,19v-9h-1v9h1ZM20,19.293l3.605,3.605-.707.707-3.605-3.605c-.77.616-1.733,1-2.793,1-2.481,0-4.5-2.019-4.5-4.5s2.019-4.5,4.5-4.5,4.5,2.019,4.5,4.5c0,1.06-.384,2.023-1,2.793ZM20,16.5c0-1.93-1.57-3.5-3.5-3.5s-3.5,1.57-3.5,3.5,1.57,3.5,3.5,3.5,3.5-1.57,3.5-3.5ZM24,2.5v17.965l-1-1v-11.465H1v13h10.821c.367.382.781.717,1.231,1H0V2.5C0,1.122,1.122,0,2.5,0h19C22.879,0,24,1.122,24,2.5ZM23,7V2.5c0-.827-.673-1.5-1.5-1.5H2.5c-.827,0-1.5.673-1.5,1.5v4.5h22ZM4,3c-.552,0-1,.448-1,1s.448,1,1,1,1-.448,1-1-.448-1-1-1ZM7,3c-.552,0-1,.448-1,1s.448,1,1,1,1-.448,1-1-.448-1-1-1ZM10,3c-.552,0-1,.448-1,1s.448,1,1,1,1-.448,1-1-.448-1-1-1ZM10,19v-7h-1v7h1Z" fill="#fa4529" stroke-width="0"/>
</svg>