<?xml version="1.0" encoding="UTF-8"?>
<svg id="Layer_1" data-name="Layer 1" xmlns="http://www.w3.org/2000/svg" width="24" height="24" version="1.1" viewBox="0 0 24 24">
  <path d="M23.821,11.181c-.877-1.919-4.323-8.181-11.821-8.181S1.056,9.262.178,11.182c-.237.521-.236,1.119.002,1.64.876,1.918,4.319,8.179,11.82,8.179s10.944-6.262,11.822-8.182c.237-.52.237-1.116,0-1.638h-.001ZM22.912,12.404c-.815,1.782-4.01,7.597-10.912,7.597S1.903,14.187,1.089,12.405c-.118-.257-.118-.552-.001-.809.815-1.782,4.01-7.597,10.912-7.597s10.097,5.814,10.912,7.596c.117.257.117.552,0,.808v.001ZM12,7c-2.757,0-5,2.243-5,5s2.243,5,5,5,5-2.243,5-5-2.243-5-5-5ZM12,16c-2.206,0-4-1.794-4-4s1.794-4,4-4,4,1.794,4,4-1.794,4-4,4Z" fill="#fa4529" stroke-width="0"/>
</svg>