<?xml version="1.0" encoding="UTF-8"?>
<svg id="Layer_1" data-name="Layer 1" xmlns="http://www.w3.org/2000/svg" version="1.1" viewBox="0 0 193.9 25">
  <defs>
    <style>
      .cls-1 {
        fill: #333;
        stroke-width: 0px;
      }
    </style>
  </defs>
  <path class="cls-1" d="M26.4,6.9h0c.1,0,.2-.1.3-.1h0c.2,0,.4,0,.5,0,1.1,0,2-.3,2.6-1,.5-.5.7-1.1.8-1.7h0s0-4,0-4h-6.6v2.9c0,.2,0,.4,0,.6,0,.2,0,.4,0,.5h0c0,.6-.3,1.1-.8,1.5-.4.4-.6.5-.7.5,0,0-.2,0-.4,0-.2,0-.6,0-1,0-1.7,0-3.2,1.3-3.3,3,0,.4,0,.7,0,.9,0,.2,0,.3,0,.5-.2.5-.5.9-1,1.2-.5.3-1,.5-1.5.5h0s0,0,0,0c-.5,0-1-.2-1.5-.5-.5-.3-.8-.7-1-1.2,0-.2,0-.3,0-.5,0-.2,0-.5,0-.9-.2-1.7-1.6-3-3.3-3s-.7,0-1,0c-.3,0-.4,0-.4,0,0,0-.3-.1-.7-.5-.4-.4-.7-.9-.8-1.5h0c0-.1,0-.2,0-.3V0H0v3.4c0,.9.3,1.8.9,2.4.6.6,1.5,1,2.6,1s.4,0,.5,0h0c0,0,.2,0,.3.1h0c.4.2.8.5,1.1.9.7,1,.7,2.3,0,3.2-.2.3-.5.6-.9.8h0c0,0-.2.1-.3.1,0,0,0,0,0,0h0c-.3,0-.5.1-.8.1-2.1,0-3.5,1.3-3.5,3.2s.7,2.3,1.3,2.7c.7.5,1.5.6,2.3.7h0c.2,0,.4,0,.6.2h.1s0,0,0,0c.5.2,1,.6,1.3,1.1.2.3.3.7.3,1.1,0,.2,0,.3,0,.5,0,.1,0,.2,0,.4v2.9h6.6v-3.9h0c-.1-.7-.5-1.4-1-2,0,0,0,0-.1-.1h0c-.7-.6-1.6-.7-2.3-.7h0c-.1,0-.2,0-.3,0h-.1s-.2,0-.2,0h-.2c0,0-.2-.2-.2-.2-.2-.1-.4-.2-.6-.4h0c-.6-.6-.9-1.3-.9-2.1,0-.6.2-1.2.6-1.7.4-.5.9-.8,1.4-1,.6-.2,1.6-.2,2.1,0,.9.3,1.6,1.1,1.6,2.1,0,0,0,.2,0,.3,0,.3,0,.7.1,1.2.5,1.4,1.7,2.3,3.2,2.3,1.4,0,2.7-.9,3.2-2.3.2-.5.1-.9.1-1.2,0,0,0-.2,0-.3,0-1,.7-1.8,1.6-2.1.5-.2,1.6-.2,2.1,0,.6.2,1.1.5,1.4,1,.4.5.6,1.1.6,1.7,0,.8-.3,1.5-.9,2.1h0c-.2.2-.4.3-.6.4h-.2c0,0-.2.2-.2.2h-.2s-.1,0-.1,0c0,0-.2,0-.3,0h0c-.7,0-1.6,0-2.3.6h0c0,0,0,0-.1.1-.5.5-.9,1.2-1,1.9h0v4h6.6v-2.9c0-.1,0-.3,0-.4,0-.1,0-.3,0-.5,0-.4.2-.8.3-1.1.3-.5.7-.9,1.3-1.1h.1c.2-.1.4-.2.6-.2h0c.8,0,1.7-.2,2.3-.7,1-.7,1.3-1.9,1.3-2.7,0-1.9-1.4-3.2-3.5-3.2s-.6,0-.8-.1h0s0,0,0,0c0,0-.2,0-.3-.1h0c-.3-.2-.7-.5-.9-.8-.7-1-.7-2.3,0-3.2.3-.4.7-.7,1.1-.9h0Z"/>
  <path class="cls-1" d="M72.5,24.5h-4.1V6.8c0-.9-1.3-1.1-1.5-.2l-4.7,17.9h-7.8l-4.7-17.9c-.2-.9-1.5-.7-1.5.2v17.7h-4.1V.3h8.1l5.4,20.8c.2.8,1.3.8,1.5,0L64.4.3h8.1v24.2h0Z"/>
  <path class="cls-1" d="M73.9,15.9c0-5.3,3.3-8.9,8.6-8.9s8.6,3.7,8.6,8.9-3.3,9-8.6,9-8.6-3.7-8.6-9ZM87.1,15.9c0-3.7-1.6-6.1-4.6-6.1s-4.6,2.4-4.6,6.1,1.7,6.2,4.6,6.2,4.6-2.4,4.6-6.2Z"/>
  <path class="cls-1" d="M104.2,7.4h4l-5.3,17.1h-7.4l-5.3-17.1h4l4.3,14.2c.2.7,1.3.7,1.5,0l4.3-14.2h0Z"/>
  <path class="cls-1" d="M123.9,17.1h-11.8c-.5,0-.8.4-.8.9.5,2.7,2.1,4.1,4.3,4.1s3.3-1,3.9-2.6h4c-1.1,3.7-4,5.4-8,5.4s-8.4-3.7-8.4-9,3.3-8.9,8.4-8.9,8.4,3.5,8.4,8.8,0,.8,0,1.3h0ZM112.2,14.3h6.8c.5,0,.9-.5.8-.9-.5-2.2-2-3.6-4.2-3.6s-3.6,1.2-4.2,3.6c-.1.5.2,1,.7,1Z"/>
  <path class="cls-1" d="M150.6,13.7v10.8h-4v-10c0-3.2-1.1-4.7-3.4-4.7s-3.4,1.5-3.4,4.7v9.9h-4v-10c0-3.2-1.1-4.7-3.4-4.7s-3.4,1.5-3.4,4.7v9.9h-4V7.4h3.9v.7c0,.7.9,1,1.3.5.9-1,2.1-1.6,3.9-1.6s3.8,1.2,4.7,2.7c.3.5,1,.5,1.3,0,.9-1.5,2.4-2.7,4.7-2.7,3.8,0,5.6,2.8,5.6,6.7h0Z"/>
  <path class="cls-1" d="M168.2,17.1h-11.8c-.5,0-.8.4-.8.9.5,2.7,2.1,4.1,4.3,4.1s3.3-1,3.9-2.6h4c-1.1,3.7-4,5.4-8,5.4s-8.4-3.7-8.4-9,3.3-8.9,8.4-8.9,8.4,3.5,8.4,8.8,0,.8,0,1.3h0ZM156.6,14.3h6.8c.5,0,.9-.5.8-.9-.5-2.2-2-3.6-4.2-3.6s-3.6,1.2-4.2,3.6c-.1.5.2,1,.7,1Z"/>
  <path class="cls-1" d="M184.6,13.7v10.8h-4v-10c0-3.2-1.4-4.7-3.6-4.7s-3.6,1.5-3.6,4.7v9.9h-4V7.4h3.9v.8c0,.7.9,1,1.3.5.9-1,2.3-1.7,4.1-1.7,3.9,0,5.8,2.9,5.8,6.7h0Z"/>
  <path class="cls-1" d="M192.1,21.5c-1.5,0-2.3-.5-2.3-2.1v-8.4c0-.4.3-.8.8-.8h3.3v-2.9h-3.3c-.4,0-.8-.3-.8-.8v-3.3h-4v16.3c0,3.3,2.4,4.9,5.6,4.9h2.5v-3h-1.8,0Z"/>
</svg>