<?xml version="1.0" encoding="UTF-8"?>
<svg id="Layer_1" data-name="Layer 1" xmlns="http://www.w3.org/2000/svg" version="1.1" viewBox="0 0 514.2 117.4">
  <defs>
    <style>
      .cls-1, .cls-2 {
        stroke-width: 0px;
      }

      .cls-1, .cls-2, .cls-3 {
        fill: #333;
      }

      .cls-2 {
        fill-rule: evenodd;
      }

      .cls-3 {
        stroke: #cc2026;
        stroke-miterlimit: 2.6;
        stroke-width: .2px;
      }
    </style>
  </defs>
  <path class="cls-2" d="M335,76.2l-8.1-18.8-8.1,18.8-.6,1.3h17.2s-.5-1.3-.5-1.3h0ZM332.2,43.6l24.5,55.7h-11.9l-5-11.7h-25.7l-.4.8-4.7,10.9h-11.6l24.7-56h9.9l.2.3ZM411.7,81.8l-12.7-38.6h-9.3l-12.7,38.6-12.4-38.5h-12.1l19.6,56h9.4l12.7-36.8,12.7,36.8h9.5l19.5-56h-11.8l-12.4,38.5ZM456.3,75.2h20.7v-10.2h-20.7v-11.5h30v-10.2h-41.3v56h42.3v-10.2h-31.1v-13.9h0ZM501,43.3v56h11.2v-56h-11.2ZM216.1,65.8h-25.7v-22.6h-11.4v56.1h11.4v-22.8h25.7v22.8h11.4v-56.1h-11.4v22.6h0ZM280.2,43.3h11.4v31.6c0,16.1-8.9,25.3-24.3,25.3s-24-9.1-24-24.8v-32h11.4s0,31.7,0,31.7c0,9.4,4.6,14.4,12.8,14.4s12.7-4.9,12.7-14v-32.1Z"/>
  <path class="cls-1" d="M11,47.8c.5,9.6,7.8,15.3,7.8,15.3,11.7,11.4,40,25.7,46.5,29,0,0,.4.1.6-.1,0,0,.3-.2.1-.6h0C48.1,52.1,23.5,22.3,23.5,22.3c0,0-13.4,12.7-12.4,25.4Z"/>
  <path class="cls-1" d="M60.9,101.3h0s.5,0,.6.4c0,0,.1.3-.2.6h0c-4.6,3.3-18.6,13.1-24.8,14.6-9,2.2-17.6-4.9-22.7-14l47-1.6Z"/>
  <path class="cls-1" d="M1.3,61.5h0c.2,0,40.1,21.4,60.8,35.4h0s.4.3.2.7c0,0-.2.3-.5.3-7.3,0-34.6.1-35.3,0,0,0-4.5-.1-9-2,0,0-9.8-3.3-14.9-14.1,0,0-4.9-9.1-1.3-20.4"/>
  <path class="cls-1" d="M57.8,3.4c-12.5,3.2-15.4,14.5-15.4,14.5-2.3,7.1,0,14.9,0,14.9,4.2,18.5,24.6,48.8,29,55.2.3.3.6.2.6.2.5-.1.4-.6.4-.6h0c6.8-67.7-7.1-85.7-7.1-85.7-2,.2-7.6,1.4-7.6,1.4Z"/>
  <path class="cls-1" d="M80.6,87.7h0c0,.4.4.5.4.5.5.2.7-.3.7-.3h0c4.5-6.5,24.9-36.7,29-55.1,0,0,2.2-8.9,0-14.9,0,0-3.1-11.5-15.6-14.5,0,0-3.6-.9-7.4-1.4,0,0-14,18-7.2,85.7Z"/>
  <path class="cls-1" d="M92.1,101.4s-.4,0-.5.4c0,0,0,.4.2.6h0c4.5,3.2,18.2,12.8,24.8,14.6,0,0,12.2,4.2,22.7-14l-47.1-1.6h0Z"/>
  <path class="cls-1" d="M151.8,61.4h0c3.6,10.8-1,20-1,20-5.2,11.3-15.2,14.5-15.2,14.5-4.5,1.7-8.1,1.9-8.1,1.9-.7.1-28.8,0-36.2,0h0c-.3,0-.5-.4-.5-.4-.1-.4.3-.7.3-.7h0c20.6-13.9,60.4-35.3,60.7-35.4"/>
  <path class="cls-1" d="M87.2,91.3h0s-.2.5.1.7c0,0,.3.2.6,0h0c6.7-3.3,34.8-17.6,46.4-29,0,0,7.4-5.9,7.7-15.4.8-13.2-12.4-25.4-12.4-25.4,0,0-24.5,29.7-42.5,68.9Z"/>
  <path class="cls-3" d="M87.2,91.3h0s-.2.5.1.7c0,0,.3.2.6,0h0c6.7-3.3,34.8-17.6,46.4-29,0,0,7.4-5.9,7.7-15.4.8-13.2-12.4-25.4-12.4-25.4,0,0-24.5,29.7-42.5,68.9Z"/>
</svg>