<?xml version="1.0" encoding="UTF-8"?>
<svg id="Layer_1" data-name="Layer 1" xmlns="http://www.w3.org/2000/svg" xmlns:xlink="http://www.w3.org/1999/xlink" version="1.1" viewBox="0 0 5604 600">
  <defs>
    <style>
      .cls-1, .cls-2, .cls-3, .cls-4 {
        fill: #333;
      }

      .cls-1, .cls-5 {
        stroke-width: 0px;
      }

      .cls-2 {
        fill-rule: evenodd;
      }

      .cls-2, .cls-3, .cls-4 {
        stroke: #fff;
      }

      .cls-6 {
        mask: url(#mask);
      }

      .cls-4 {
        stroke-width: 2px;
      }

      .cls-5 {
        fill: #fff;
      }

      .cls-7 {
        mask: url(#mask-1);
      }
    </style>
    <mask id="mask" x="5045.1" y="36.5" width="559.8" height="527" maskUnits="userSpaceOnUse">
      <g id="path-1-inside-1_3188_14" data-name="path-1-inside-1 3188 14">
        <path class="cls-5" d="M5603.9,300c0,145-124.9,262.5-278.9,262.5s-278.9-117.5-278.9-262.5,124.9-262.5,278.9-262.5,278.9,117.5,278.9,262.5ZM5163.1,300c0,84.1,72.5,152.4,161.9,152.4s161.9-68.2,161.9-152.4-72.5-152.4-161.9-152.4-161.9,68.2-161.9,152.4Z"/>
      </g>
    </mask>
    <mask id="mask-1" x="3746.6" y="36.5" width="559.8" height="527" maskUnits="userSpaceOnUse">
      <g id="path-4-inside-2_3188_14" data-name="path-4-inside-2 3188 14">
        <path class="cls-5" d="M4305.5,300c0,145-124.9,262.5-278.9,262.5s-278.9-117.5-278.9-262.5,124.9-262.5,278.9-262.5,278.9,117.5,278.9,262.5ZM3864.7,300c0,84.1,72.5,152.4,161.9,152.4s161.9-68.2,161.9-152.4-72.5-152.4-161.9-152.4-161.9,68.2-161.9,152.4Z"/>
      </g>
    </mask>
  </defs>
  <g class="cls-6">
    <path class="cls-4" d="M5603.9,300c0,145-124.9,262.5-278.9,262.5s-278.9-117.5-278.9-262.5,124.9-262.5,278.9-262.5,278.9,117.5,278.9,262.5ZM5163.1,300c0,84.1,72.5,152.4,161.9,152.4s161.9-68.2,161.9-152.4-72.5-152.4-161.9-152.4-161.9,68.2-161.9,152.4Z"/>
  </g>
  <path class="cls-1" d="M4392.2,46.9v505.5h112.5v-294.3l143.9,241.4h55.3l147.7-247.3v300.2h110.2V47.1h-98.4l-185.2,311.7-187.5-312h-98.4Z"/>
  <path class="cls-3" d="M4392.2,553.4V46.9h98.4l187.5,312,185.2-311.7h98.4v505.2h-110.2V252.2l-147.7,247.3h-55.3l-143.9-241.4v294.3h-114.8"/>
  <g class="cls-7">
    <path class="cls-4" d="M4305.5,300c0,145-124.9,262.5-278.9,262.5s-278.9-117.5-278.9-262.5,124.9-262.5,278.9-262.5,278.9,117.5,278.9,262.5ZM3864.7,300c0,84.1,72.5,152.4,161.9,152.4s161.9-68.2,161.9-152.4-72.5-152.4-161.9-152.4-161.9,68.2-161.9,152.4Z"/>
  </g>
  <path class="cls-2" d="M3189.8,49.2v501.6h262.5c165-25.6,231.6-105.7,241.4-248.4,4.3-150.8-112.6-243.9-241.4-253.1h-262.5ZM3304.7,454.7V140.6h121.9c78.7,9,152.9,53.3,152.3,161.7-7.5,86.7-52.9,149.3-152.3,152.3h-121.9Z"/>
  <path class="cls-2" d="M2793.8,49.2h117.2l222.7,501.6h-119.5l-44.5-105.5h-236.7l-42.2,105.5h-119.5l222.7-501.6ZM2770.3,356.2l82-192.2,82,192.2h-164.1Z"/>
  <path class="cls-3" d="M2596.9,49.2h-438.3v91.4h164.1v410.2h112.5V140.6h161.7V49.2Z"/>
  <path class="cls-3" d="M2111.7,49.2h-379.7v501.6h391.4v-91.4h-276.6v-119.5h234.4v-89.1h-234.4v-110.2h264.8V49.2Z"/>
  <path class="cls-1" d="M1043,46.6v505.5h112.5v-294.3l143.9,241.4h55.3l147.7-247.3v300.2h110.2V46.9h-98.4l-185.2,311.7-187.5-312h-98.4Z"/>
  <path class="cls-3" d="M1043,553.1V46.6h98.4l187.5,312,185.2-311.7h98.4v505.2h-110.2V251.9l-147.7,247.3h-55.3l-143.9-241.4v294.3h-114.8"/>
  <path class="cls-1" d="M96.7,0L0,600h778.1L669.7,0l-287.7,295.3L96.7,0Z"/>
</svg>