<?xml version="1.0" encoding="UTF-8"?>
<svg id="Layer_1" data-name="Layer 1" xmlns="http://www.w3.org/2000/svg" version="1.1" viewBox="0 0 38.9 12">
  <defs>
    <style>
      .cls-1 {
        fill: #333;
        stroke-width: 0px;
      }
    </style>
  </defs>
  <path class="cls-1" d="M4.1,0h1.2v.2h-.2s-.1,0-.2.1-.1.2-.1.2v3.4s0,.1.1.2.2.1.2.1h.2v.2h-1.7v-.2h.2s.1,0,.2-.1c0,0,.1-.2.1-.2V.7l-1.6,3.9L.8.6v3.4s0,.1.1.2c0,0,.2.1.2.1h.2v.2H0v-.2h.2s.1,0,.2-.1c0,0,.1-.2.1-.2V.6s0-.1-.1-.2-.2-.1-.2-.1h-.2v-.2h1.3l1.4,3.4h0l1.4-3.4ZM6.9,4.1c.2,0,.4,0,.6-.1.1,0,.3-.2.4-.4h.2c0,.3-.2.6-.5.8-.2.2-.5.3-.9.3-.4,0-.7-.2-1-.4-.2-.3-.4-.7-.4-1.1,0-.4.1-.8.4-1.1.3-.3.6-.4,1-.4.2,0,.4,0,.6.1.2,0,.3.2.5.3l-.4.7h-.2c0-.2,0-.4,0-.6,0-.2-.3-.3-.5-.3-.3,0-.5.1-.6.3-.2.3-.2.5-.2.8,0,.3,0,.6.3.8.2.2.5.4.8.3ZM9.8,4.5h-1.8v-.2h.2s.1,0,.2-.1.1-.2.1-.2V.6s0-.1-.1-.2-.2-.1-.2-.1h-.2v-.2h1.8v.2h-.2s-.1,0-.2.1-.1.2-.1.2v1.9l1.6-1.8s0-.1,0-.2-.1-.2-.2-.2h-.2v-.2h1.6v.2h-.2c-.1,0-.2,0-.3.2-.2.1-.2.2-.3.2l-1.1,1.2,1.6,2.1c0,0,.2.2.3.2,0,0,.2.1.3.2h.3c0,0,.1,0,.2-.1,0,0,.1-.1.1-.2v-1.8s0-.1-.1-.2c0,0-.1-.1-.2-.1h-.2v-.2h1v2.4c0,0,0,.1.1.2,0,0,.1,0,.2.1h.4s.1,0,.2-.1.1-.1.1-.2v-1.9s0-.1-.1-.2-.1-.1-.2-.1h-.2v-.2h.9v.6c.3-.2.4-.3.6-.5.2-.1.4-.2.6-.2.2,0,.4,0,.6.2.2.2.2.4.2.6v1.6c0,0,0,.1.1.2s.1.1.2.1h.2v.2h-1.5v-.2h.2c0,0,.1,0,.2-.1,0,0,.1-.1.1-.2v-1.6c0-.1,0-.3-.1-.4,0,0-.2-.2-.4-.1-.2,0-.5,0-.6.2-.2.2-.3.3-.3.4v1.5c0,0,0,.1.1.2,0,0,.1.1.2.1h.2v.2h-4.2l-1.6-2.3-.5.5v1.2s0,.1.1.2.2.1.2.1h.2v.2ZM11.4,9.6h0c.1.1.3.2.5.4s.3.2.5.4h.3v.2h-.5c-.2,0-.4,0-.6-.1-.2,0-.4-.2-.5-.4-.2.2-.4.3-.6.4-.3,0-.6.1-.8.1-.4,0-.7-.1-1-.4-.3-.2-.5-.6-.4-1h0c0-.3,0-.5.2-.8.1-.2.3-.4.5-.6-.1-.1-.2-.3-.3-.4,0-.2-.1-.3-.1-.5,0-.3,0-.6.3-.7.2-.2.5-.3.8-.3.2,0,.3,0,.5,0,.1,0,.2,0,.3,0,0,0,0,0,.1,0,0,0,0,0,0,0h.2v1.1h-.2c0-.2-.1-.4-.3-.6-.2-.2-.5-.3-.7-.3-.2,0-.4,0-.6.2-.1.1-.2.3-.2.5,0,.2,0,.3.2.5.1.1.3.3.5.3.3.3.6.6.9.9s.7.6,1,.9c0-.1.1-.3.2-.4,0-.2,0-.3,0-.5,0-.2,0-.4-.2-.5-.1-.1-.3-.2-.5-.2v-.2h1.6v.2h-.2s-.1,0-.2.2c0,0-.1.2-.2.3h0c0,.2,0,.5-.1.7,0,.2-.2.4-.3.6h0ZM9.9,10.3c.2,0,.4,0,.5,0,.2,0,.3-.1.4-.2h0c-.3-.3-.7-.6-1-.9-.3-.3-.6-.6-.9-1-.1.1-.2.3-.3.4,0,.2-.1.4,0,.6,0,.3.2.7.4.9.2.2.6.4.9.4h0ZM13.1.9h0c0,0-.2,0-.3-.1,0,0-.1-.2-.1-.3h0c0-.1,0-.2.1-.3.2-.1.4-.1.6,0,0,0,.1.2.1.3h0s0,0,0,0c0,0,0,.2-.1.3,0,0-.2.1-.3.1,0,0,0,0,0,0ZM16.1,10.3c.3,0,.6,0,.9-.2.2-.2.4-.4.5-.7h.2c-.1.4-.4.7-.7,1-.3.2-.7.4-1.1.3-.6,0-1.2-.2-1.6-.7-.4-.5-.6-1.1-.6-1.7,0-.6.2-1.2.5-1.6.4-.5.9-.7,1.5-.7.2,0,.4,0,.6,0,.2,0,.3.1.5,0,0,0,.1,0,.2,0,0,0,0,0,.1,0h.2v1.6h-.2c0-.3-.2-.6-.4-.9-.2-.3-.6-.5-1-.5-.3,0-.7.1-.9.3-.3.3-.4.7-.4,1.1h0c0,0,0,.1,0,.2,0,0,0,.2,0,.3s0,.2,0,.3,0,.2,0,.3c0,.4.2.7.5,1,.3.3.7.4,1.1.4ZM19.8,3.7c0,.2,0,.5-.3.7-.2.2-.4.2-.7.2-.2,0-.3,0-.5,0-.1,0-.2,0-.4,0,0,0,0,0-.1,0h0c0,0-.1,0-.1,0v-1h.2c0,.2.1.4.3.5.2.2.5.3.8.3.1,0,.3,0,.4,0,.1,0,.2-.2.2-.3,0-.1,0-.3-.2-.4-.1,0-.2-.1-.4-.2-.1,0-.2,0-.3-.1s-.2,0-.3-.1c-.2,0-.3-.2-.4-.3-.1-.1-.2-.3-.2-.5,0-.2,0-.4.2-.6.3-.2.7-.3,1-.1.1,0,.2,0,.3,0,0,0,0,0,.1,0,0,0,0,0,0,0h.2v.9h-.2c0-.2-.1-.3-.2-.5-.2-.2-.4-.3-.6-.3-.1,0-.3,0-.4.1,0,0-.1.2-.1.3,0,.1,0,.2.1.3.1,0,.2.1.4.2.1,0,.2,0,.3.1h.3c.2.2.3.3.5.4.2.1.2.3.2.5h0ZM20.6,8c.3.3.5.7.4,1.1,0,.4-.1.8-.4,1.1-.3.3-.6.4-1,.4-.4,0-.8-.1-1-.4-.3-.3-.5-.7-.4-1.1,0-.8.6-1.5,1.4-1.5,0,0,0,0,0,0,.4,0,.7.1,1,.4h0ZM20.4,9.6h0c0,0,0-.1,0-.2s0-.2,0-.3,0-.2,0-.3,0-.2,0-.2c0-.2-.1-.4-.3-.6-.2-.2-.4-.2-.6-.2-.2,0-.4,0-.6.2-.1.2-.2.4-.3.6h0c0,0,0,.1,0,.2,0,0,0,.2,0,.3s0,.2,0,.3c0,0,0,.2,0,.2,0,.2.1.4.3.6.2.2.4.2.6.2.2,0,.5,0,.6-.2.1-.2.2-.3.2-.6ZM21.4,4.6c-.4,0-.7-.2-1-.5-.3-.3-.4-.7-.4-1.1,0-.4.1-.8.4-1.1.2-.3.6-.4,1-.4.3,0,.6,0,.8.3.2.2.3.5.3.7v.2s-1.9.2-1.9.2c0,.3.1.6.3.8.2.2.5.4.8.4.2,0,.4,0,.6-.1.1,0,.3-.2.3-.4h.2c0,.3-.2.6-.4.8-.2.2-.5.3-.8.3h0ZM21.4,1.8c-.3,0-.5,0-.7.3-.1.2-.2.4-.2.7h1.5c0-.3,0-.5,0-.7,0-.2-.2-.3-.5-.3h0ZM24.9,10.4s.1,0,.2-.1.1-.1.1-.2v-1.6c0-.1,0-.2-.1-.3,0,0-.2-.1-.4-.1-.2,0-.4,0-.6.2-.2.1-.3.3-.3.4v1.5s0,.1.1.2.1.1.2.1h.2v.2h-1.5v-.2h.2s.1,0,.2-.1.1-.1.1-.2v-1.6c0-.1,0-.3-.1-.4,0,0-.2-.1-.4-.1-.2,0-.4,0-.6.2-.2.1-.3.3-.3.4v1.5s0,.1.1.2.1.1.2.1h.2v.2h-1.5v-.2h.2s.1,0,.2-.1.1-.1.1-.2v-1.9s0-.1-.1-.2-.1-.1-.2-.1h-.2v-.2h.9v.6c.3-.2.4-.3.6-.5.2-.1.4-.2.6-.2.2,0,.4,0,.5.2.2.1.2.3.3.5.2-.2.3-.3.5-.4.2-.1.4-.2.6-.2.2,0,.4,0,.6.2.2.2.2.4.2.6v1.6s0,.1.1.2.1.1.2.1h.2v.2h-1.5v-.2h.2ZM23,2.2c0,0-.1-.1-.2-.2-.1,0-.2-.1-.2-.1h-.1v-.2h1.6v.2h-.2s0,0-.2.1c0,0,0,.1,0,.2l.7,1.4.6-1.4c0,0,0-.2,0-.2,0,0-.1-.1-.2-.1h-.2v-.2h1.2v.2h-.1s-.1,0-.2.1c0,0-.1.1-.2.2l-1,2.1-.9,1.7h-.3c0-.1.9-1.7.9-1.7l-1-2ZM28.3,7.6c.3,0,.6.1.8.4.2.3.3.7.3,1.1,0,.4-.1.8-.3,1.1-.2.3-.5.4-.9.4-.2,0-.4,0-.6-.1-.2-.1-.3-.3-.4-.4v1.4c0,0,0,.1.1.2s.1.1.2.1h.2v.2h-1.5v-.2h.2c0,0,.1,0,.2-.1,0,0,.1-.1.1-.2v-3.3s0-.1-.1-.2c0,0-.1-.1-.2-.1h-.2v-.2h.9v.6c.2-.2.4-.4.5-.5.2-.1.4-.2.6-.2h0ZM28.9,9.6h0s0-.2,0-.2c0,0,0-.2,0-.2,0,0,0-.1,0-.2,0,0,0-.1,0-.2,0-.2-.1-.4-.2-.6-.1-.1-.3-.2-.5-.2-.2,0-.4,0-.6.2-.2.2-.3.4-.3.6v.8c0,.2,0,.4.2.6.2.2.4.3.6.2h0c.2,0,.4,0,.6-.2.1-.2.2-.4.2-.6h0ZM35.5,10.1s0,.1.1.2.1.1.2.1h.2v.2h-1.5v-.2h.2s0,0,.2-.1.1-.1.1-.2v-1.6c0-.1,0-.3-.1-.4,0-.1-.2-.2-.3-.1-.2,0-.5,0-.6.2-.2.2-.3.3-.3.4v1.5c0,0,0,.1.1.2,0,0,.1.1.2.1h.2v.2h-2.5v-.6c-.2.2-.3.3-.5.5-.2.1-.4.2-.6.2-.2,0-.4,0-.5-.2-.2-.2-.2-.4-.2-.6,0-.3.1-.5.3-.6.2-.1.4-.2.6-.3l.8-.2v-.4c0-.2,0-.4-.2-.5-.2-.1-.4-.2-.6-.2-.2,0-.4,0-.5.2,0,.2,0,.4,0,.6h-.2l-.4-.6c.3-.3.8-.5,1.2-.5.3,0,.6,0,.8.2.2.1.3.4.3.7v1.6s0,.1.1.2.1.1.2.1h.4c0,0,.1,0,.2-.1,0,0,.1-.1.1-.2v-1.9s0-.1-.1-.2c0,0-.1-.1-.2-.1h-.2v-.2h.9v.6c.3-.2.4-.3.6-.5.2-.1.4-.2.6-.2.2,0,.4,0,.6.2.2.2.3.4.2.6v1.6ZM31.4,9l-.7.2c-.2,0-.3.1-.4.2,0,.1-.1.2-.1.4h0c0,.1,0,.2.1.3,0,0,.2.1.3.1h0c.2,0,.3,0,.4-.2.1,0,.2-.2.3-.3v-.7ZM38.9,7.7v.2h-.1s0,0-.2.1c0,0-.1.1-.2.2l-1,2.1-.9,1.6h-.2c0-.1.9-1.7.9-1.7l-1-2c0,0-.1-.1-.2-.2,0,0-.2-.1-.2-.1h-.1v-.2h1.6v.2h-.2s0,0-.2.1c0,0,0,.1,0,.2l.7,1.4.6-1.4c0,0,0-.1,0-.2,0,0-.1-.1-.2-.1h-.2v-.2h1.2Z"/>
</svg>