<?xml version="1.0" encoding="UTF-8"?>
<svg id="layer" xmlns="http://www.w3.org/2000/svg" version="1.1" viewBox="0 0 632 140.5">
  <defs>
    <style>
      .cls-1 {
        fill: #fabf2c;
      }

      .cls-1, .cls-2 {
        stroke-width: 0px;
      }

      .cls-2 {
        fill: #fff;
      }
    </style>
  </defs>
  <g id="Page-1">
    <g id="CT-logo-BlackYellow-tag">
      <g id="Atoms_Icons_logos_CT-GY-icon" data-name="Atoms/Icons/logos/CT-GY-icon">
        <g id="Group">
          <path id="Shape" class="cls-2" d="M87.1,102.2l-25,10.9v-1.1c-4.8,1.2-10.2,1.9-15.2,2.2-23.6-.2-42.2-12.6-42.5-27.2v-5.4c7.7,11.2,23.5,18.8,42.5,18.5,6.4.3,13-.7,18.5-2.2l2.2-5.4c-6.5,2-13.7,3.3-20.7,3.3-23.6,0-42.2-12.3-42.5-27.2v-4.4c7.7,10.4,23.5,17.9,42.5,17.4,8.6.5,16.9-1.3,24-4.4l1.1-5.4c-6.9,3.6-15.8,5.7-25,5.4-23.6.3-42.2-12-42.5-27.2v-4.4c7.7,10.6,23.5,18.2,42.5,18.5,10.8-.3,21-3.2,29.4-7.6l1.1-6.5c-7.6,5.6-18.7,9.3-30.5,9.8-23.6-.5-42.2-12.9-42.5-28.3.2-14.7,18.9-27,42.5-27.2,14,.2,27.1,5.1,34.8,13.1l.8,1.3h5.5l-.8-1.3C79.6,6.9,64.1,0,47,0,20.8,0,0,14.2,0,31.4v56.6c.9,16.8,21.2,30.5,46.8,30.5,16.9,0,32.2-6.6,40.3-16.3Z"/>
          <path id="Shape-2" data-name="Shape" class="cls-1" d="M76.9,140.5l8.8-37.4-25.3,11,15.4-64.8h-29.6l7.7-31.9h94.5l-7.7,31.9h-30.8l-6.6,17.6,34.1-14.3-60.5,87.9ZM92.3,95.5l-4.4,22,36.3-54.9-29.7,13.2,13.2-30.8h29.7l5.5-23.1H57.1l-5.5,23.1h29.7l-14.3,61.5,25.3-11Z"/>
        </g>
      </g>
      <path id="Shape-3" data-name="Shape" class="cls-2" d="M188.7,76.6h0c.1,4.1-1.1,7.2-3.6,9.5s-5.9,3.4-10.4,3.4-8.1-1.5-10.8-4.3c-2.7-2.8-4.1-6.6-4.1-11.2v-7.4c0-4.6,1.4-8.3,4-11.2,2.7-2.8,6.3-4.3,10.6-4.3s8.1,1.1,10.7,3.3c2.6,2.3,3.9,5.4,3.8,9.3h0c0,.1-7.3.1-7.3.1,0-2.4-.6-4.2-1.7-5.4s-3-1.7-5.4-1.7-4,.9-5.2,2.7-1.9,4.1-1.9,7v7.5c0,2.8.7,5.2,1.9,7.1,1.4,1.8,3.2,2.7,5.6,2.7s3.9-.6,5-1.7,1.7-3,1.7-5.4h7.2ZM230,73.6c0,4.6-1.5,8.4-4.3,11.4s-6.6,4.4-11.3,4.4-8.3-1.5-11.3-4.4c-2.8-3-4.3-6.8-4.3-11.4v-6.7c0-4.6,1.5-8.3,4.3-11.4,2.8-3,6.6-4.6,11.2-4.6s8.4,1.5,11.3,4.6c3,3,4.3,6.8,4.3,11.4v6.7h.1ZM222.5,66.8c0-3-.7-5.2-2.2-7.2-1.5-1.8-3.4-2.8-6-2.8s-4.6.9-5.9,2.8c-1.4,1.8-2.2,4.2-2.2,7.2v6.7c0,3,.7,5.4,2.2,7.3,1.4,1.8,3.4,2.8,5.9,2.8s4.6-.9,6-2.8c1.5-1.8,2.2-4.3,2.2-7.3v-6.7ZM249.4,88.9h-7.5v-37.4h7.5v37.4ZM292.6,88.9h-7.5l-15-25.2h-.1v25.2h-7.5v-37.4h7.5l15,25.2h.1v-25.2h7.5v37.4ZM330.3,57.3h-10.7v31.6h-7.5v-31.6h-10.5v-5.8h28.7v5.8ZM361.3,72.5h-13.9v10.7h16.5v5.7h-23.9v-37.4h23.9v5.8h-16.4v9.3h13.9v5.8h-.1ZM382.1,83.2h16.8v5.7h-24.3v-37.4h7.5v31.7h0ZM430.8,72.5h-13.9v10.7h16.5v5.7h-23.9v-37.4h23.9v5.8h-16.4v9.3h13.9v5.8h-.1ZM472.9,83.9c-1.1,1.5-2.8,2.8-5.2,4-2.3,1.1-5.2,1.7-8.9,1.7s-8.2-1.4-11.1-4.2c-2.8-2.8-4.3-6.5-4.3-11.1v-7.9c0-4.6,1.4-8.2,4.2-11.1,2.7-2.8,6.4-4.3,10.7-4.3s8.1,1.1,10.5,3.3,3.6,5,3.5,8.7h0c0,.1-7.1.1-7.1.1,0-1.9-.6-3.5-1.7-4.7s-2.8-1.7-5-1.7-4.1.9-5.6,2.6c-1.4,1.8-2.1,4.1-2.1,6.8v7.9c0,2.8.7,5.1,2.2,7s3.4,2.6,5.8,2.6,3.2-.2,4.2-.6c1-.3,1.8-.8,2.4-1.4v-7.3h-7.2v-5.2h14.7v14.7h-.1ZM492.3,74v14.9h-7.5v-37.4h13c4.2,0,7.6,1,10,3,2.4,1.9,3.6,4.7,3.6,8.1s-.5,3.5-1.5,5c-1,1.4-2.5,2.5-4.4,3.4,2.2.7,3.8,1.7,4.8,3.3.9,1.5,1.5,3.4,1.5,5.7v2.7c0,1,.1,2.2.5,3.3.2,1.1.8,1.9,1.5,2.5v.6h-7.8c-.7-.6-1.1-1.5-1.4-2.7s-.3-2.5-.3-3.6v-2.6c0-1.8-.5-3.3-1.5-4.3s-2.5-1.6-4.3-1.6h-6.2v-.2ZM492.3,68.3h5.4c2.1,0,3.6-.5,4.7-1.4s1.6-2.2,1.6-4-.6-3.1-1.6-4.1-2.5-1.5-4.6-1.5h-5.5v10.9h0ZM543.2,80.9h-12.1l-2.5,8.1h-7.9l12.7-37.4h7.6l12.5,37.4h-7.9l-2.5-8.1ZM532.9,75h8.4l-4.1-13.2h-.1l-4.2,13.2ZM570.2,75.3v13.6h-7.5v-37.4h14.4c4.3,0,7.6,1.1,10.1,3.3s3.6,5.1,3.6,8.7-1.3,6.5-3.6,8.7c-2.5,2.2-5.8,3.3-10.1,3.3h-6.8ZM570.2,69.6h6.8c2.1,0,3.6-.6,4.8-1.7,1-1.1,1.6-2.6,1.6-4.3s-.6-3.3-1.6-4.4-2.6-1.7-4.8-1.7h-6.8v12.2ZM632,88.9h-7.5v-15.5h-15.3v15.5h-7.5v-37.4h7.5v16.1h15.3v-16.1h7.5v37.4Z"/>
    </g>
  </g>
</svg>