<?xml version="1.0" encoding="UTF-8"?>
<svg id="Layer_1" data-name="Layer 1" xmlns="http://www.w3.org/2000/svg" version="1.1" viewBox="0 0 978.2 168.2">
  <defs>
    <style>
      .cls-1, .cls-2 {
        fill: #fff;
        stroke-width: 0px;
      }

      .cls-2 {
        display: none;
      }
    </style>
  </defs>
  <g id="_492f26e9-1971-4024-be55-50442afd5b29" data-name="492f26e9-1971-4024-be55-50442afd5b29">
    <rect class="cls-2" x="-22.9" y="-65.9" width="1024" height="300" vector-effect="non-scaling-stroke"/>
  </g>
  <g id="_1c4761e7-a840-45f2-8a1d-8339a6836ad2" data-name="1c4761e7-a840-45f2-8a1d-8339a6836ad2">
    <path class="cls-1" d="M144.1,100.6c-2.9,1.8-6.4,2.1-9,.7-3.3-2-5.2-6.4-5.2-12.4v-18.4c0-8.8-3.4-15.2-9.3-16.8-9.9-2.9-17.4,9.3-20.2,13.9l-17.6,28.2v-34.7c-.2-8-2.8-12.7-7.7-14.2-3.3-1-8.2-.5-12.9,6.7l-39.3,62.9c-5.2-9.9-8-21-8-32.3C15,46.1,45.5,15.3,82.8,15.3s67.8,30.8,67.8,68.8v.3c.3,7.3-2,13.2-6.5,16.1h0ZM165.6,84.1h0v-.3C165.4,37.7,128.3,0,82.8,0S0,37.7,0,84.1s37.2,84.1,82.8,84.1,40.9-8,56.2-22.5c3.1-2.9,3.3-7.7.3-10.8-2.8-3.1-7.5-3.3-10.6-.5l-.2.2c-12.4,11.7-29,18.4-46.1,18.4s-38-8.8-50.4-22.8l35.4-56.7v26.2c0,12.6,4.9,16.6,9,17.8s10.3.3,17-10.3l19.4-31.5c.7-1,1.1-2,1.8-2.6v16c0,11.7,4.7,21.2,12.9,25.8,7.3,4.2,16.6,3.7,24.3-1,9.5-6.2,14.5-17,13.9-29.8ZM281,55.4c2,1.1,3.7,3.9,3.7,6.4,0,3.9-3.3,7.2-7,7.2s-1.8-.3-2.6-.5c-4.4-3.3-9.9-5.4-15.8-5.4-13.9,0-23.3,11.2-23.3,25.3s9.6,25.1,23.3,25.1,13-2.8,17.6-7.2c1.1-.8,2.6-1.3,4.1-1.3,3.7,0,6.7,2.9,6.7,6.7s-1.5,4.6-3.3,5.7c-6.7,5.7-15.6,9.5-24.9,9.5-21.2,0-38.5-17.4-38.5-39s17.3-39,38.5-39c7.8-.2,15.3,2.3,21.5,6.5ZM319.8,71.7c14.5,0,26.6,12.2,26.6,27.4s-12.2,27.9-26.6,27.9-27.7-12.7-27.7-27.9,12.6-27.4,27.7-27.4ZM319.6,113.4c6.4,0,11.7-6,11.7-14.2s-5.4-13.4-11.7-13.4-12.6,5.1-12.6,13.4,5.7,14.2,12.6,14.2ZM355.5,118.5v-38.5c0-4.2,3.3-7.7,7.5-7.7s7.5,3.4,7.5,7.7v38.5c0,4.2-3.4,7.7-7.5,7.7s-7.5-3.6-7.5-7.7ZM354.4,57.9c0-5.1,3.9-9,8.6-9s8.8,4.1,8.8,9-3.9,8.8-8.8,8.8c-4.9-.2-8.6-4.1-8.6-8.8ZM399.2,97.6v20.9c0,4.2-3.4,7.7-7.5,7.7s-7.5-3.4-7.5-7.7v-40.3c0-3.3,2.6-5.9,5.9-5.9s5.7,2.8,5.7,5.9c6-5.7,11.4-6.5,16.5-6.5,15,0,21.7,11.2,21.7,24.1v22.7c0,4.2-3.4,7.7-7.5,7.7s-7.5-3.4-7.5-7.7v-20.9c0-6.5-.8-12.1-10.3-12.1s-9.5,5.5-9.5,12.1h0ZM482.5,105.6c-1.8,0-2.9-.8-3.9-2l-17.4-18.9v33.7c0,4.2-3.4,7.7-7.5,7.7s-7.5-3.4-7.5-7.7V51.7c.5-1.1,1.6-2,2.8-2s2.4,1.1,3.3,2l27.9,31.3c.8,1,1.8,1.5,2.4,1.5s1.6-.5,2.4-1.5l27.9-31.3c.8-.8,1.8-2,3.3-2s2.4.8,2.8,2v66.8c0,4.2-3.3,7.7-7.5,7.7s-7.5-3.4-7.5-7.7v-33.7l-17.4,18.9c-1.3,1.1-2.4,2-3.9,2h0ZM554.5,113.4c6.7,0,12.4-6,12.4-14.2s-5.9-13.5-12.4-13.5-11.9,5.5-11.9,13.5,5.2,14.2,11.9,14.2ZM570.5,120.3l-.3-1.8c-2.9,5.7-12.2,8.3-18.1,8.3-14,0-24.4-12.7-24.4-27.9s10.6-27.4,25.3-27.4,10.9.7,17.4,8.3l.3-1.8c0-3.3,2.4-5.9,5.7-5.9s5.9,2.8,5.9,5.9v42.1c0,3.3-2.6,5.9-5.9,5.9-3.4.2-5.9-2.6-5.9-5.7h0ZM623.5,85.6h-1.6c-9.5.5-11.2,5.9-11.2,12.1v20.9c0,4.2-3.4,7.7-7.5,7.7s-7.5-3.4-7.5-7.7v-40.3c0-3.3,2.6-5.9,5.9-5.9s5.7,2.8,5.7,5.9c5.5-5.2,10.1-6.4,14.7-6.5h1.5c3.6,0,6.8,3.1,6.8,7,.2,3.6-3.1,6.8-6.7,6.8h0ZM681.3,114.9c.7,1.1,1.1,2.3,1.1,3.6,0,3.9-3.6,7.5-7.5,7.5s-4.9-2-6.7-4.2l-17.3-20v16.6c0,4.2-3.4,7.7-7.5,7.7s-7.5-3.4-7.5-7.7v-61.1c0-4.2,3.3-7.7,7.5-7.7s7.5,3.4,7.5,7.7v38.1l17.3-19.1c1.8-2,3.9-4.1,6.5-4.1,3.7,0,7.2,3.4,7.2,7.3s-.3,2.4-1,3.4l-13.7,15,14,17h0ZM710.7,85.7c-4.1,0-10.8,2.1-10.8,8.5h21.7c-.2-6.4-7-8.5-10.9-8.5h0ZM730.2,103.8h-30.3c0,9,8.6,10.4,12.4,10.4s6.7-.5,9.8-2c1-.7,2.4-1.1,3.9-1.1,3.3,0,6,2.8,6,6.2s-1.5,4.2-3.3,5.4c-4.6,3.4-10.6,4.2-16.3,4.2-15.2,0-27.7-8.1-27.7-27.2s7.7-28,25.6-28,25.4,9.5,25.8,26.2c0,3.1-2.6,5.9-5.9,5.9h0ZM772,126.8h-4.1c-11.4,0-18.1-5.1-18.1-22.8v-18.4h-3.9c-3.6,0-6.7-3.3-6.7-6.8s3.3-7,6.7-7h3.9v-14.2c0-4.2,3.3-7.7,7.5-7.7s7.5,3.4,7.5,7.7v14.2h6.2c3.6,0,6.7,3.1,6.7,7s-3.3,6.8-6.7,6.8h-6.2v15.5c0,10.3.5,12.4,5.1,12.4h2.1c3.6,0,6.7,2.9,6.7,6.7s-3.1,6.7-6.7,6.7h0ZM844.5,55.4c2,1.1,3.7,3.9,3.7,6.4,0,3.9-3.3,7.2-7,7.2s-1.8-.3-2.6-.5c-4.4-3.3-9.9-5.4-15.8-5.4-13.9,0-23.3,11.2-23.3,25.3s9.6,25.1,23.3,25.1,13-2.8,17.6-7.2c1.1-.8,2.6-1.3,4.1-1.3,3.7,0,6.7,2.9,6.7,6.7s-1.5,4.6-3.3,5.7c-6.7,5.7-15.6,9.5-24.9,9.5-21.2,0-38.5-17.4-38.5-39s17.3-39,38.5-39c7.8-.2,15.5,2.3,21.5,6.5h0ZM882.5,113.4c6.7,0,12.4-6,12.4-14.2s-5.9-13.5-12.4-13.5-11.9,5.5-11.9,13.5,5.4,14.2,11.9,14.2h0ZM898.5,120.3l-.3-1.8c-2.9,5.7-12.2,8.3-18.1,8.3-14,0-24.4-12.7-24.4-27.9s10.6-27.4,25.3-27.4,10.9.7,17.4,8.3l.3-1.8c0-3.3,2.4-5.9,5.7-5.9s5.9,2.8,5.9,5.9v42.1c0,3.3-2.6,5.9-5.9,5.9-3.4.2-5.9-2.6-5.9-5.7ZM951.1,113.4c6.7,0,11.9-6.4,11.9-14.2s-5.4-13.5-11.9-13.5-12.4,5.4-12.4,13.5,5.7,14.2,12.4,14.2ZM938.7,122.4v19.1c0,4.2-3.4,7.7-7.5,7.7s-7.5-3.4-7.5-7.7v-63.2c0-3.3,2.6-5.9,5.9-5.9s5.7,2.8,5.7,6.5c5.5-5.7,12.4-7.2,17.6-7.2,14.5,0,25.3,12.2,25.3,27.4s-10.3,27.9-24.4,27.9c-4.4-.2-10.9-1.5-15-4.6h0Z" vector-effect="non-scaling-stroke"/>
  </g>
</svg>