<?xml version="1.0" encoding="UTF-8"?>
<svg id="Layer_2" data-name="Layer 2" xmlns="http://www.w3.org/2000/svg" version="1.1" viewBox="0 0 344 127">
  <defs>
    <style>
      .cls-1 {
        fill: #fff;
        stroke-width: 0px;
      }
    </style>
  </defs>
  <g>
    <path class="cls-1" d="M18.2,24.2v35.4c-24.3-8.1-24.3-27.4,0-35.4Z"/>
    <path class="cls-1" d="M18.2,126.1V59.7c39.6,13.1,39.6,53.3,0,66.5Z"/>
    <path class="cls-1" d="M18.2,24.2V.9c14.2,4.7,14.2,18.6,0,23.3Z"/>
  </g>
  <g>
    <g>
      <path class="cls-1" d="M343.7,106.3c-1.5-.7-2.9-1.6-4.1-2.8l-.2-.2h0c-1.2-1.2-2.2-2.6-2.8-4.2,0,0,0-.1,0-.2h6.7v-3.3h-6.9c0-.5,0-1.1,0-1.6v-2.5h5.5v-3.6h-9.5c.3-.7.6-1.5.9-2.2v-.4c0,0-3.4-.8-3.4-.8l-.2.3h0c-1,3-2.6,5.6-4.6,8l-.2.2,2.9,1.9,1.3-1.4h0c.5-.7.9-1.4,1.4-2h2.2v2.5c0,.5,0,1,0,1.6h-7.6v3.3h6.7c0,0,0,.2,0,.2-1.4,3.5-4.2,6.2-7.7,7.6h-.2v.5l2.3,2.5h.5c0-.1,0-.2,0-.2,2.1-1,3.9-2.4,5.4-4.2.9-1,1.6-2.1,2.2-3.2.5,1.1,1.2,2.1,1.9,3.1.2.3.5.6.8.9,1.3,1.4,2.7,2.6,4.3,3.5h.2c0,.1,2.6-3.1,2.6-3.1h-.3Z"/>
      <polygon class="cls-1" points="245.4 91.2 240.6 96.6 241.6 99.7 253.6 97.8 252.6 94.6 246.4 95.5 253 88.2 251.7 84.1 248.9 87.2 244.5 87.9 251.2 77.8 247.9 76.1 240.4 87.5 241.7 91.7 245.4 91.2"/>
      <polygon class="cls-1" points="240.5 104.1 241.5 107.4 253.6 105.5 252.6 102.3 240.5 104.1"/>
      <path class="cls-1" d="M269.1,104.1h0c0,.8-.7,1.4-1.5,1.4h-7.9c-.9,0-1.5-.7-1.5-1.5v-10.7h9v2.3h3.6v-17.4h-16.7v3.3h13.1v8.4h-12.6v14c0,2.7,2.2,4.9,4.9,4.9h8.5c2.7,0,4.9-2.2,4.9-4.9v-1.9l-3.6-1.2v3.2Z"/>
      <path class="cls-1" d="M324.2,89.7h-6.5v-4.6h6.5c-.4.5-.7,1-1.1,1.5l-.2.2,3.2,2.2v-.4l.3-.3c1.1-1.4,2-2.9,2.9-4.4h13.9v-3.3h-12.4c.5-1.1.9-2.3,1.2-3.5v-.3c0,0-3.4-.7-3.4-.7l-.2.4h0c-.8,2.7-2,5.2-3.5,7.6v-2.4h-4.9l1.1-.6v-.2c-1.1-1.7-2.3-3.4-3.6-4.9h-.1c0-.1-3.4,1.5-3.4,1.5l.2.2c1.1,1.2,2.1,2.5,3,3.9h-5.9v3.3h2.7v5.7c0,5.7-1.2,11.2-3.6,16.3v.2c0,0,2.6,2.7,2.6,2.7l.5-1c2.4-5,3.8-10.4,4-15.9h2.9l-.3,11c0,.8-.6,1.4-1.4,1.4h-3l1.2,3.6h1.8c2.7,0,5-2.2,5-4.9l.3-14.4Z"/>
      <path class="cls-1" d="M223.6,102.9h10.4v-3.3h-10.4v-2.6h11.8v-3.3h-11.8v-1.9h-3.6v1.9h-5.5c.4-.7.8-1.3,1.1-2v-.3c.1,0-1.7-.5-1.7-.5h20v-13.4h-24.5v13.4h2.4c-1.6,2.9-3.7,5.5-6.2,7.7l-.2.2,3,2.2h.2c.3-.4.6-.7.9-1v3h10.5v2.6h-14.1v3.3h31.8v-3.3h-14v-2.6ZM213.1,82.6v-1.7h17.2v1.7h-17.2ZM213.1,87.6v-1.7h17.2v1.7h-17.2ZM220,97v2.6h-10.1c.8-.8,1.6-1.7,2.3-2.6h7.8Z"/>
      <path class="cls-1" d="M287,104.7h8c1.1-2.5,2.3-5.4,3.1-8.1v8.1h3.6v-8.1c.8,2.7,1.8,5.4,2.9,8h0c0,.1,4,.1,4,.1l-.2-.4c-1.8-3.8-3.2-7.8-4.2-11.9v-.2h-2.7v-1.6h6.2v-3.3h-6.2v-2.9h5.6v-3.3h-5.6v-4.5h-3.6v4.5h-5.7v3.3h5.7v2.9h-6.3v3.3h6.3v1.6h-2.6v.2c-.7,2.7-1.6,5.6-2.6,8.2h-3c.5-1.2.9-2.4,1.3-3.6v-.3c.1,0-2.9,0-2.9,0v.2c-.1.2-.2.4-.3.6-.3.9-.7,1.8-1,2.8v-4.9h-2.3c0-.3.1-.6.2-.8h6.4v-14.5h-6.4c.4-1,.7-2.1.9-3.3v-.3c0,0-3.6-.5-3.6-.5v.2c-.4,1.3-.8,2.6-1.3,3.8h-4.6v14.5h5.1c-1,4.6-3.1,8.9-6,12.6h0v.3l2.2,2.4.2-.2c2.4-2.9,4.3-6.2,5.7-9.8v4.2c0,1.4.6,2.8,1.7,3.7.9.7,2,1.2,3.1,1.2h19.9v-3.3h-19.5c-.6,0-1.1-.3-1.4-.9ZM285.3,83.3h2.4v2.3h-2.4v-2.3ZM285.3,88.9h2.5v2.3h-2.6c0-.7.1-1.5.1-2.3ZM281.8,91.2h-2.3v-2.3h2.4c0,.8,0,1.5-.1,2.3ZM281.9,85.6h-2.4v-2.3h2.4v2.3Z"/>
    </g>
    <g>
      <path class="cls-1" d="M108,40.6c1.2-.7,2.5-1,4.1-1s2.8.3,3.9,1c1.1.6,1.9,1.5,2.5,2.6.4.7.6,1.4.8,2.2h-14.7c.2-.7.4-1.3.7-1.9.6-1.2,1.5-2.1,2.7-2.8M118.6,36.8c-1.9-1.1-4.1-1.7-6.6-1.7s-4.5.5-6.5,1.6c-2,1.1-3.5,2.6-4.7,4.4-1.2,1.9-1.7,4-1.7,6.5s.6,4.7,1.7,6.6c1.2,1.9,2.7,3.3,4.7,4.3,2,1,4.2,1.5,6.7,1.5s4.4-.4,6.1-1.1c1.7-.7,3.1-1.7,4.1-3,1.1-1.3,1.7-2.7,2.1-4.3h-5.1c-.3.7-.7,1.3-1.3,1.9-.6.6-1.3,1.1-2.3,1.5-1,.4-2.2.6-3.6.6s-3.1-.3-4.3-1c-1.2-.7-2.1-1.7-2.8-2.9-.4-.8-.7-1.6-.8-2.5h20.2v-1.5c0-2.3-.5-4.5-1.6-6.4-1-1.9-2.5-3.4-4.4-4.5"/>
      <path class="cls-1" d="M72.5,48.4c-1,1.9-2.5,3.4-4.6,4.5-2,1.1-4.5,1.6-7.4,1.6h-7.3v-25.3h7.3c2.9,0,5.3.5,7.4,1.5,2,1,3.6,2.5,4.6,4.4,1,1.9,1.6,4.1,1.6,6.7s-.5,4.6-1.5,6.5M70.5,26.3c-2.9-1.3-6.3-2-10.2-2h-12.4v35.4h12.4c3.9,0,7.3-.7,10.2-2,2.9-1.3,5.1-3.3,6.7-5.9,1.6-2.6,2.4-5.9,2.4-9.8s-.8-7.1-2.3-9.7c-1.6-2.6-3.8-4.6-6.7-5.9"/>
      <path class="cls-1" d="M317.4,35.6v4.4c-4.3,0-7,2.4-7,2.4-.9.8-1.5,1.6-2,2.7-.6,1.1-.8,2.4-.8,4v10.5h-5.1v-24.1h5.1v5.4c.5-.9,1-1.4,1.7-2.2,0,0,3.1-3.2,8.1-3.2"/>
      <path class="cls-1" d="M140.3,55c-1.2.5-2.3.7-3.4.7s-2.3-.3-3.1-.9c-.7-.6-1.1-1.3-1.1-2.3s.4-1.9,1.3-2.5c.8-.6,2.1-.9,3.8-.9h7.6s0,3.8-5,5.9M139.5,39.6c1.8,0,3.4.5,4.4,1.5,1,.9,1.4,2.3,1.4,3.8v.4h-7.7c-3.3,0-5.8.7-7.5,2.1-1.8,1.4-2.6,3.2-2.6,5.5,0,1.6.5,2.9,1.3,4,.8,1.1,1.9,1.9,3.2,2.5,1.3.6,2.8.8,4.3.8s3.1-.3,4.5-1c1.4-.6,2.6-1.5,3.7-2.5.3-.3.6-.7.9-1v4h5.1v-14.7c0-1.9-.4-3.6-1.3-5.1-.8-1.5-2.1-2.6-3.7-3.5-1.6-.9-3.6-1.3-5.9-1.3s-3.8.4-5.4,1.1c-1.6.7-2.9,1.8-3.8,3.1-1,1.3-1.5,2.3-1.7,4.1h5.1s.6-3.9,5.9-3.8"/>
      <path class="cls-1" d="M338.5,50.9c0,1.2-.3,2.3-1,3.1-.7.9-1.7,1.3-2.9,1.3s-2.5-.4-3.2-1.3c-.7-.9-1.1-2.3-1.1-4.1v-9.8h11.1v-4.4h-11.1v-7.3h-5.1v7.3h-5.3v4.4h5.3v10.1c0,3.2.8,5.7,2.5,7.4,1.7,1.7,4,2.6,6.9,2.6s3.4-.4,4.8-1.2c1.4-.8,2.4-1.9,3.1-3.3.7-1.4,1.1-3,1.1-4.7h-5.1Z"/>
      <path class="cls-1" d="M98.4,35.6v4.4c-4.3,0-7,2.4-7,2.4-.9.8-1.5,1.6-2,2.7-.6,1.1-.8,2.4-.8,4v10.5h-5.1v-24.1h5.1v5.4c.5-.9,1-1.4,1.7-2.2,0,0,3.1-3.3,8.1-3.2"/>
      <path class="cls-1" d="M195.4,46v13.7h-5.1v-12.7c0-4.6-2.5-6.7-6.2-6.7s-6.6,2.7-6.6,7.3v12.1h-5.1v-12.7c0-4.6-2.2-6.7-6-6.7s-6.9,2.7-6.9,7.3v12.1h-5v-23.8h5v3.3c1.8-2.5,5.1-3.7,8.7-3.7s6.9,1.7,8.3,4.9c1.8-3.3,5.1-4.9,9.2-4.9,6.1,0,9.8,3.8,9.8,10.6"/>
      <path class="cls-1" d="M271.7,46v13.7h-5.1v-12.7c0-4.6-2.5-6.7-6.2-6.7s-6.6,2.7-6.6,7.3v12.1h-5.1v-12.7c0-4.6-2.2-6.7-6-6.7s-6.9,2.7-6.9,7.3v12.1h-5v-23.8h5v3.3c1.8-2.5,5.1-3.7,8.7-3.7s6.9,1.7,8.3,4.9c1.8-3.3,5.1-4.9,9.2-4.9,6.1,0,9.8,3.8,9.8,10.6"/>
      <path class="cls-1" d="M287.9,55c-1.2.5-2.3.7-3.4.7s-2.3-.3-3.1-.9c-.7-.6-1.1-1.3-1.1-2.3s.4-1.9,1.3-2.5c.8-.6,2.1-.9,3.8-.9h7.6s0,3.8-5,5.9M287.2,39.6c1.8,0,3.4.5,4.4,1.5,1,.9,1.4,2.3,1.4,3.8v.4h-7.7c-3.3,0-5.8.7-7.5,2.1-1.8,1.4-2.6,3.2-2.6,5.5,0,1.6.5,2.9,1.3,4,.8,1.1,1.9,1.9,3.2,2.5,1.3.6,2.8.8,4.3.8s3.1-.3,4.5-1c1.4-.6,2.6-1.5,3.7-2.5.3-.3.6-.7.9-1v4h5.1v-14.7c0-1.9-.4-3.6-1.3-5.1-.8-1.5-2.1-2.6-3.7-3.5-1.6-.9-3.6-1.3-5.9-1.3s-3.8.4-5.4,1.1c-1.6.7-2.9,1.8-3.8,3.1-1,1.3-1.5,2.3-1.7,4.1h5.1s.6-3.9,5.9-3.8"/>
      <path class="cls-1" d="M222.8,41.9c-1.4-.7-2.9-1.2-4.6-1.6-1.7-.3-3.3-.6-5-.9-1.7-.2-3.2-.5-4.6-.9-1.4-.3-2.5-.9-3.4-1.6-.9-.7-1.3-1.7-1.3-3s.7-2.6,2-3.6c1.3-1,3.4-1.4,6.1-1.4s2.8.2,3.9.5c1.1.3,1.9.8,2.7,1.4.7.6,1.3,1.2,1.6,2,.4.7.6,1.5.8,2.2h5.2c-.2-2.2-.9-4.1-2.1-5.8-1.2-1.7-2.8-3-4.9-3.9-2.1-1-4.5-1.4-7.2-1.4s-4.9.4-6.9,1.3c-2.1.9-3.7,2.1-4.9,3.6-1.2,1.5-1.8,3.3-1.8,5.3s.4,3.9,1.3,5.2c.9,1.3,2,2.3,3.4,2.9,1.4.7,2.9,1.2,4.6,1.5,1.7.3,3.3.6,5,.8,1.7.2,3.2.5,4.6.9,1.4.4,2.5.9,3.3,1.6.8.7,1.3,1.7,1.3,3.1s-.7,3-2,4c-1.4,1-3.6,1.5-6.8,1.5s-5.9-.6-7.4-1.9c-1.5-1.2-2.3-2.9-2.4-5h-5.2c.1,2.6.8,4.8,2.1,6.6,1.3,1.8,3,3.1,5.2,4,2.2.9,4.8,1.4,7.7,1.4s5.3-.4,7.5-1.2c2.2-.8,3.9-2,5.1-3.5,1.2-1.6,1.8-3.5,1.8-5.8s-.4-3.9-1.3-5.2c-.8-1.3-1.9-2.3-3.3-3"/>
    </g>
  </g>
</svg>