<?xml version="1.0" encoding="UTF-8"?>
<svg id="Group_2" data-name="Group 2" xmlns="http://www.w3.org/2000/svg" version="1.1" viewBox="0 0 1426.3 146.3">
  <defs>
    <style>
      .cls-1 {
        fill: #fdd110;
      }

      .cls-1, .cls-2 {
        fill-rule: evenodd;
        stroke-width: 0px;
      }

      .cls-2 {
        fill: #fff;
      }
    </style>
  </defs>
  <g id="Group_1" data-name="Group 1">
    <g id="Network">
      <path class="cls-2" d="M396,73L341,4.5h-32.6v137.5h41.1v-68.6l55.1,68.6h32.6V4.5h-41.1v68.4h-.1ZM470.2,142h116.2v-34.4h-75.1v-17.1h60.6v-34.4h-60.6v-17.1h75.1V4.5h-116.2v137.5ZM606.5,42.7h42.5v99.3h41.1V42.7h42.5V4.5h-126.1v38.2h0ZM893,83.8l-24.8-79.3h-39.1l-25,79.4-23.4-79.4h-39.3l40.3,137.5h43.1l23.8-76.1,23.8,76.1h43.1L955.7,4.5h-39.3l-23.4,79.3h0ZM1033.8,0c-42.1,0-74,32.7-74,72.8s31.9,73,73.9,73,73.9-32.8,73.9-73S1075.9,0,1033.8,0ZM1033.8,106.6c-19.3,0-32.8-16.1-32.8-33.8s13.6-33.6,32.8-33.6,32.8,15.9,32.8,33.6-13.6,33.8-32.8,33.8ZM1258.8,54.5c0-27.5-20.7-50-52.3-50h-75.7v137.5h41.1v-37.4h21.4l27.3,37.4h46.6l-34.2-47c15.1-8.7,25.8-22.8,25.8-40.5h0ZM1200.2,68.6h-28.3v-28.9h28.3c11.2,0,16.7,6.7,16.7,14.5s-5.5,14.4-16.7,14.4ZM1368.5,64.5l52.5-60h-49.4l-43.9,50.2V4.5h-41.1v137.5h41.1v-31.1l14.8-16.7,35.8,47.8h48l-57.8-77.5h0Z"/>
    </g>
    <g id="Rectangle_1" data-name="Rectangle 1">
      <path class="cls-1" d="M224,.6h-70.3v39.9h63.3c11.7,0,21.1,9.5,21.1,21.2s-9.5,21.2-21.1,21.2h-63.3v59.2h41.2v-19.6h29c36.3,0,56.5-32.5,56.5-61.5S260.3.6,224,.6Z"/>
    </g>
    <g id="Rectangle_1-2" data-name="Rectangle 1-2">
      <path class="cls-1" d="M81.6,0v83.6c0,11.6-9.4,20.9-20.9,20.9s-20.9-9.4-20.9-20.9V0H0v81.1c0,33.8,27.4,61.2,61.2,61.2s61.2-27.4,61.2-61.2V0h-40.8Z"/>
    </g>
  </g>
</svg>