<?xml version="1.0" encoding="UTF-8"?>
<svg id="SiteLogo" xmlns="http://www.w3.org/2000/svg" version="1.1" viewBox="0 0 400.5 51.2">
  <defs>
    <style>
      .cls-1 {
        fill: #ed2025;
      }

      .cls-1, .cls-2 {
        stroke-width: 0px;
      }

      .cls-2 {
        fill: #fff;
      }
    </style>
  </defs>
  <g>
    <path class="cls-1" d="M281.2,0c5.1.1,11.2.4,14.9,4.2,2.2,2.6,3.4,5.9,3.4,9.3.1,3-1,5.9-3.1,8-1.5,1.3-3.2,2.4-5.1,3.2,2.3.5,4.4,1.6,6.1,3.1,2.3,2.6,3.5,6,3.5,9.5,0,3.3-1.2,6.5-3.5,8.8-4,4.1-9.3,4.1-15,4.3h-23.1v-10.3h4.5c0,0,0-29.8,0-29.8h-4.5C259.2,10.3,259.2,0,259.2,0h21.9ZM276.8,20.2c4.1,0,4.6,0,5.6-.1,2.3-.5,4-2.6,3.8-5,.1-1.9-.8-3.7-2.5-4.6-1.1-.6-1.9-.6-6.9-.6v10.4ZM276.8,40h4c2.8,0,6.7,0,6.7-4.8.1-2.1-1.1-4-3.1-4.8-1.2-.5-1.8-.5-7.5-.5v10.2Z"/>
    <path class="cls-1" d="M338.4,37.6c-.5,2.6-1.1,6.1-4.4,9.3-3.3,3.1-8,4.3-12.6,4.3-9.8,0-18.5-4.8-18.5-19.2,0-2.5.3-5,1-7.4,2.5-8.5,9.4-12,17-12s10.3,2,13,4.7c5.4,5.3,5.1,13.8,5.1,17.1h-22.5c0,2.8,0,7.9,4.7,7.9s4.4-3.3,4.6-4.6h12.7ZM325.8,27.3c0-1,0-2-.4-2.9-.6-1.7-2.3-2.8-4.1-2.7-4.3,0-4.4,4.1-4.4,5.6h8.9Z"/>
    <path class="cls-1" d="M376.7,40v10.3h-15.4l-.3-4.3c-2.3,3.4-6.1,5.3-10.2,5.1-6.6,0-10.8-3.9-10.8-11-.2-3.9,1.7-7.6,5-9.8,4.7-3.2,12-2.9,15.6-2.9,0-1.3,0-2.6-.1-3.9-.2-1.6-1.6-2.8-3.2-2.7-.9,0-1.8.3-2.4,1-.8,1-1.2,2.3-1.1,3.6h-12.4c0-2.1.4-4.1,1.3-6,2.6-5.3,9.3-6.9,14.5-6.9s10.4,1.4,13.5,4.6c2.8,2.8,3.1,6,3.1,8.7v14.3h3.1ZM360.7,33.9c-1.3-.2-2.7,0-4,.3-2,.5-3.4,2.4-3.3,4.5,0,2.5,1.3,3.8,3.2,3.8,1.3,0,2.5-.7,3.2-1.8.6-1,.9-2.2.9-3.3v-3.6Z"/>
    <path class="cls-1" d="M394.6,1.8v11.5h5.9v10.2h-5.9v13.3c0,1.3.2,4.1,3.6,4.1.7,0,1.3-.1,1.9-.3v9.4c-2.6.5-5.2.9-7.8.9-4.1,0-7.3-1.2-8.8-2.7-2-2-2.1-4.6-2.1-6.7v-18h-3.2v-10.2h4.2V4.6l12.1-2.8Z"/>
  </g>
  <g>
    <polygon class="cls-2" points="0 0 21.6 0 21.6 10.3 17.2 10.2 24.5 39 32.4 10.2 28 10.3 28 0 47.8 0 47.8 10.3 44.5 10.2 32 50.3 15.7 50.3 3.1 10.2 0 10.3 0 0"/>
    <path class="cls-2" d="M78.7,37.6c-.5,2.6-1.1,6.1-4.4,9.3-3.3,3.1-8,4.3-12.6,4.3-9.8,0-18.4-4.8-18.4-19.2,0-2.5.3-5,1-7.4,2.5-8.5,9.4-12,17-12s10.3,2,13,4.7c5.4,5.3,5.1,13.8,5.1,17.1h-22.5c0,2.8,0,7.9,4.7,7.9s4.3-3.3,4.6-4.6h12.7ZM66,27.3c0-1,0-2-.3-2.9-.6-1.7-2.3-2.8-4.1-2.7-4.3,0-4.4,4.1-4.4,5.6h8.9Z"/>
    <path class="cls-2" d="M118.6,40h3.1v10.3h-16.3v-21.7c0-.9,0-1.8-.3-2.7-.5-1.2-1.7-2-3.1-1.9-1,0-2,.4-2.7,1.1-1.3,1.3-1.4,2.9-1.4,5v10h2.5v10.2h-18.7v-10.3h3v-16.4h-3v-10.2h14.6l.4,5.6c.6-1.1,1.3-2.1,2.2-3,2.5-2.4,5.9-3.7,9.3-3.6,3.9,0,6.4,1.4,7.8,2.9,2.4,2.4,2.5,5.4,2.6,8v16.8Z"/>
    <path class="cls-2" d="M139.3,1.8v11.5h5.9v10.2h-5.9v13.3c0,1.3.2,4.1,3.6,4.1.7,0,1.3-.1,1.9-.3v9.4c-2.6.5-5.2.9-7.8.9-4.1,0-7.3-1.2-8.8-2.7-2-2-2.1-4.6-2.1-6.7v-18h-3.2v-10.2h4.2V4.6l12.1-2.8Z"/>
    <path class="cls-2" d="M163.6,13.4v21.6c0,1.5.1,4.9,3.5,4.9s3.5-3.7,3.5-5.6v-10.7h-2.7c0,0,0-10.2,0-10.2h16v26.7h3.1c0,0,0,10.2,0,10.2h-15.2v-4.1c-1.2,1.8-3,3.2-5,4-1.8.7-3.7,1.1-5.6,1.1-2.9.1-5.7-.9-7.8-2.8-2.8-2.7-2.9-6.3-3-9.7v-15.1h-3c0,0,0-10.2,0-10.2h16.3Z"/>
    <path class="cls-2" d="M204.6,19.8c.6-2,1.9-6.8,9-6.8,1.2,0,2.4.1,3.5.4v11.8c-1-.2-2.1-.4-3.1-.4-2.3,0-4.5.7-6.3,2.1-1.7,1.7-1.8,3.6-1.8,7v6c-.1,0,4.2,0,4.2,0v10.3h-20.3v-10.3h3.1v-16.4h-3.1v-10.2h14.3l.4,6.4Z"/>
    <path class="cls-2" d="M255.3,37.6c-.5,2.6-1.1,6.1-4.4,9.3-3.3,3.1-8,4.3-12.6,4.3-9.8,0-18.4-4.8-18.4-19.2,0-2.5.3-5,1-7.4,2.5-8.5,9.4-12,16.9-12s10.3,2,13,4.7c5.4,5.3,5.1,13.8,5.1,17.1h-22.5c0,2.8,0,7.9,4.7,7.9s4.4-3.3,4.6-4.6h12.7ZM242.6,27.3c0-1,0-2-.4-2.9-.6-1.7-2.3-2.8-4.1-2.7-4.3,0-4.4,4.1-4.4,5.6h8.9Z"/>
  </g>
</svg>