<?xml version="1.0" encoding="UTF-8"?>
<svg id="Layer_1" data-name="Layer 1" xmlns="http://www.w3.org/2000/svg" version="1.1" viewBox="0 0 300 300">
  <defs>
    <style>
      .cls-1 {
        opacity: .1;
      }

      .cls-2 {
        fill: #f3ca26;
        stroke-width: 0px;
      }
    </style>
  </defs>
  <g class="cls-1">
    <circle class="cls-2" cx="150" cy="150" r="150"/>
  </g>
  <g>
    <path class="cls-2" d="M205.1,98h-88c-6.9,0-12.7,5.6-12.8,12.6h78.6c12.4,0,22.5,10.2,22.5,22.6v46.6c6.9-.1,12.6-5.9,12.6-12.9v-56c0-7.1-5.8-12.9-12.9-12.9Z"/>
    <path class="cls-2" d="M182.9,120.3h-88c-7.1,0-12.9,5.8-12.9,12.9v9.1h113.7v-9.1c0-7.1-5.8-12.9-12.8-12.9Z"/>
    <path class="cls-2" d="M82,189.1c0,7.1,5.8,12.9,12.9,12.9h88c7,0,12.8-5.8,12.8-12.9v-37.2h-113.7v37.2ZM159.3,172.9h14.6c2.7,0,4.9,2.1,4.9,4.9s-2.2,4.9-4.9,4.9h-14.6c-2.7,0-4.9-2.2-4.9-4.9s2.2-4.9,4.9-4.9Z"/>
  </g>
</svg>