<svg id="Capa_1" enable-background="new 0 0 512 512" height="512" viewBox="0 0 512 512" width="512" xmlns="http://www.w3.org/2000/svg" xmlns:xlink="http://www.w3.org/1999/xlink"><linearGradient id="lg1"><stop offset=".0022" stop-color="#236568"/><stop offset=".8472" stop-color="#2f878a"/><stop offset="1" stop-color="#06daae"/></linearGradient><linearGradient id="SVGID_1_" gradientUnits="userSpaceOnUse" x1="15.919" x2="190.23" xlink:href="#lg1" y1="365.785" y2="365.785"/><linearGradient id="lg2"><stop offset="0" stop-color="#236568"/><stop offset="1" stop-color="#2f878a"/></linearGradient><linearGradient id="SVGID_00000101072497200446218720000015861062420264693632_" gradientUnits="userSpaceOnUse" x1="174.209" x2="194.013" xlink:href="#lg2" y1="388.804" y2="388.804"/><linearGradient id="SVGID_00000119105501022878576560000014153628273261551489_" gradientUnits="userSpaceOnUse" x1="174.209" x2="194.013" xlink:href="#lg2" y1="379.256" y2="379.256"/><linearGradient id="SVGID_00000036251416998256588930000009476649650106129336_" gradientUnits="userSpaceOnUse" x1="174.209" x2="194.013" xlink:href="#lg2" y1="369.814" y2="369.814"/><linearGradient id="SVGID_00000063595893238047319340000005096091193383327634_" gradientUnits="userSpaceOnUse" x1="174.209" x2="194.013" xlink:href="#lg2" y1="360.266" y2="360.266"/><linearGradient id="SVGID_00000061458640768143766450000003341112368131560617_" gradientUnits="userSpaceOnUse" x1="174.209" x2="194.013" xlink:href="#lg2" y1="350.505" y2="350.505"/><linearGradient id="lg3"><stop offset="0" stop-color="#1a4c4e"/><stop offset="1" stop-color="#1a4c4e" stop-opacity="0"/></linearGradient><linearGradient id="SVGID_00000178902485617187154780000001409697252689639607_" gradientUnits="userSpaceOnUse" x1="-22.6" x2="233.515" xlink:href="#lg3" y1="311.261" y2="459.129"/><linearGradient id="lg4"><stop offset="0" stop-color="#06daae"/><stop offset="1" stop-color="#9bf0df"/></linearGradient><linearGradient id="SVGID_00000078750398250412142780000008858755781094843292_" gradientUnits="userSpaceOnUse" x1="108.931" x2="373.369" xlink:href="#lg4" y1="216.292" y2="368.966"/><linearGradient id="lg5"><stop offset="0" stop-color="#2f878a"/><stop offset="1" stop-color="#06daae"/></linearGradient><linearGradient id="SVGID_00000174565981644613903090000009814456956783333269_" gradientUnits="userSpaceOnUse" x1="147.327" x2="456.604" xlink:href="#lg5" y1="238.46" y2="417.021"/><linearGradient id="SVGID_00000036253493001505670350000005749550877650853791_" gradientUnits="userSpaceOnUse" x1="139.824" x2="335.325" xlink:href="#lg5" y1="234.128" y2="347.001"/><linearGradient id="lg6"><stop offset="0" stop-color="#ffa538"/><stop offset="1" stop-color="#ffc538"/></linearGradient><linearGradient id="SVGID_00000124854794250760285970000003032097043517281426_" gradientUnits="userSpaceOnUse" x1="327.336" x2="327.336" xlink:href="#lg6" y1="397.214" y2="251.492"/><linearGradient id="lg7"><stop offset="0" stop-color="#ffc538"/><stop offset="1" stop-color="#f7e041"/></linearGradient><linearGradient id="SVGID_00000093873578953920101870000012029293926901290130_" gradientTransform="matrix(.866 -.5 1 .577 79.248 -237.218)" gradientUnits="userSpaceOnUse" x1="-436.3" x2="-436.3" xlink:href="#lg7" y1="437.237" y2="640.745"/><linearGradient id="SVGID_00000160875236277510682090000014743657489279716512_" gradientUnits="userSpaceOnUse" x1="334.711" x2="348.96" y1="326.272" y2="350.952"><stop offset="0" stop-color="#0d2627"/><stop offset="1" stop-color="#0d2627" stop-opacity="0"/></linearGradient><linearGradient id="SVGID_00000069365243619821651120000009783536715873294511_" gradientUnits="userSpaceOnUse" x1="59.311" x2="270.174" xlink:href="#lg3" y1="294.858" y2="434.843"/><linearGradient id="SVGID_00000061450818095137148100000009347823746281288854_" gradientUnits="userSpaceOnUse" x1="58.296" x2="232.607" xlink:href="#lg1" y1="301.132" y2="301.132"/><linearGradient id="SVGID_00000103241244723885632190000013612257476498407357_" gradientUnits="userSpaceOnUse" x1="216.586" x2="236.389" xlink:href="#lg2" y1="324.151" y2="324.151"/><linearGradient id="SVGID_00000079487984241370392720000016578770994935877040_" gradientUnits="userSpaceOnUse" x1="216.586" x2="236.389" xlink:href="#lg2" y1="314.603" y2="314.603"/><linearGradient id="SVGID_00000041988750697066700220000008896621971636224931_" gradientUnits="userSpaceOnUse" x1="216.586" x2="236.389" xlink:href="#lg2" y1="305.161" y2="305.161"/><linearGradient id="SVGID_00000040546825542028229130000013481962599481143221_" gradientUnits="userSpaceOnUse" x1="216.586" x2="236.389" xlink:href="#lg2" y1="295.612" y2="295.612"/><linearGradient id="SVGID_00000008121392477418329070000000792082031545480628_" gradientUnits="userSpaceOnUse" x1="216.586" x2="236.389" xlink:href="#lg2" y1="285.852" y2="285.852"/><linearGradient id="SVGID_00000074401317466244254690000016038301375059558576_" gradientUnits="userSpaceOnUse" x1="68.75" x2="224.064" xlink:href="#lg3" y1="290.803" y2="380.474"/><linearGradient id="SVGID_00000178914414621442392020000005596685627470042795_" gradientUnits="userSpaceOnUse" x1="151.307" x2="415.745" xlink:href="#lg4" y1="151.639" y2="304.312"/><linearGradient id="SVGID_00000158014704345547339290000016494649559852784300_" gradientUnits="userSpaceOnUse" x1="189.703" x2="498.98" xlink:href="#lg5" y1="173.807" y2="352.368"/><linearGradient id="SVGID_00000169531576223107312920000003651580625823966598_" gradientUnits="userSpaceOnUse" x1="182.2" x2="377.702" xlink:href="#lg5" y1="169.475" y2="282.348"/><linearGradient id="SVGID_00000168107474088649747130000004344528308460544681_" gradientUnits="userSpaceOnUse" x1="369.712" x2="369.712" xlink:href="#lg6" y1="332.56" y2="186.839"/><linearGradient id="SVGID_00000032614030094262496080000004517125037453224080_" gradientTransform="matrix(.866 -.5 1 .577 79.248 -237.218)" gradientUnits="userSpaceOnUse" x1="-347.181" x2="-347.181" xlink:href="#lg7" y1="402.436" y2="605.944"/><linearGradient id="SVGID_00000056399265785088990070000011306652201036093597_" gradientUnits="userSpaceOnUse" x1="32.314" x2="206.625" xlink:href="#lg1" y1="249.841" y2="249.841"/><linearGradient id="SVGID_00000031911176672358920120000005489672320189203880_" gradientUnits="userSpaceOnUse" x1="190.604" x2="210.408" xlink:href="#lg2" y1="272.86" y2="272.86"/><linearGradient id="SVGID_00000080171500772247854420000013982735007769899411_" gradientUnits="userSpaceOnUse" x1="190.604" x2="210.408" xlink:href="#lg2" y1="263.312" y2="263.312"/><linearGradient id="SVGID_00000093169367931510524910000016129778611485577627_" gradientUnits="userSpaceOnUse" x1="190.604" x2="210.408" xlink:href="#lg2" y1="253.87" y2="253.87"/><linearGradient id="SVGID_00000123428514402270943150000006416947569683988662_" gradientUnits="userSpaceOnUse" x1="190.604" x2="210.408" xlink:href="#lg2" y1="244.321" y2="244.321"/><linearGradient id="SVGID_00000167368448542779109550000004897286947612652197_" gradientUnits="userSpaceOnUse" x1="190.604" x2="210.408" xlink:href="#lg2" y1="234.561" y2="234.561"/><linearGradient id="SVGID_00000098215608085546586830000007402636996879978153_" gradientUnits="userSpaceOnUse" x1="125.326" x2="389.764" xlink:href="#lg4" y1="100.348" y2="253.021"/><linearGradient id="SVGID_00000103953337385262383600000008168024021655968682_" gradientUnits="userSpaceOnUse" x1="163.722" x2="472.999" xlink:href="#lg5" y1="122.516" y2="301.077"/><linearGradient id="SVGID_00000140714572826244592020000004572149336927403420_" gradientUnits="userSpaceOnUse" x1="156.219" x2="351.72" xlink:href="#lg5" y1="118.184" y2="231.057"/><linearGradient id="SVGID_00000041267466201203304830000012179485810799738520_" gradientUnits="userSpaceOnUse" x1="343.731" x2="343.731" xlink:href="#lg6" y1="281.269" y2="135.548"/><linearGradient id="SVGID_00000083080120241724797030000009184134110946004889_" gradientTransform="matrix(.866 -.5 1 .577 79.248 -237.218)" gradientUnits="userSpaceOnUse" x1="-310.893" x2="-310.893" xlink:href="#lg7" y1="345.03" y2="548.537"/><g><g><g><g><path d="m469.613 307.025.007-.001v-49.147l-469.62 62.137v49.119l.007-.001c-.011 1.517 1.086 3.119 3.251 4.369l170.279 98.31c3.939 2.274 9.897 2.521 13.308.552l99.331-57.349 46.712-29.596 35.607-17.931 98.826-57.057c1.573-.908 2.32-2.13 2.292-3.405z" fill="url(#SVGID_1_)"/><path d="m467.321 306.471-280.476 161.933c-3.411 1.969-9.369 1.722-13.308-.552l-170.279-98.31c-2.165-1.25-3.262-2.852-3.251-4.369l-.007.001v4.81l.007-.001c-.011 1.517 1.086 3.119 3.251 4.369l170.279 98.311c3.939 2.274 9.897 2.521 13.308.552l99.331-57.349 2.227-4.155 77.328-44.211 2.764.84 98.826-57.057c1.573-.908 2.319-2.13 2.292-3.405l.007-.001v-4.809l-.007.001c.028 1.273-.719 2.494-2.292 3.402z" fill="url(#SVGID_00000101072497200446218720000015861062420264693632_)"/><path d="m467.321 296.923-280.476 161.933c-3.411 1.969-9.369 1.722-13.308-.552l-170.279-98.31c-2.165-1.25-3.262-2.852-3.251-4.369h-.007v4.809l.007-.001c-.011 1.517 1.086 3.119 3.251 4.369l170.279 98.311c3.939 2.274 9.897 2.521 13.308.552l280.476-161.933c1.573-.908 2.319-2.13 2.292-3.405l.007-.001v-4.81l-.007.001c.028 1.276-.719 2.498-2.292 3.406z" fill="url(#SVGID_00000119105501022878576560000014153628273261551489_)"/><path d="m467.321 287.481-280.476 161.933c-3.411 1.969-9.369 1.722-13.308-.552l-170.279-98.311c-2.165-1.25-3.262-2.852-3.251-4.369l-.007.001v4.81l.007-.001c-.011 1.517 1.086 3.119 3.251 4.369l170.279 98.311c3.939 2.274 9.897 2.521 13.308.552l280.476-161.934c1.573-.908 2.319-2.13 2.292-3.405l.007-.001v-4.809l-.007.001c.028 1.275-.719 2.497-2.292 3.405z" fill="url(#SVGID_00000036251416998256588930000009476649650106129336_)"/><path d="m467.321 277.933-280.476 161.932c-3.411 1.969-9.369 1.722-13.308-.552l-170.279-98.31c-2.165-1.25-3.262-2.852-3.251-4.369l-.007.001v4.809l.007-.001c-.011 1.517 1.086 3.119 3.251 4.369l170.279 98.311c3.939 2.274 9.897 2.521 13.308.552l280.476-161.933c1.573-.908 2.319-2.13 2.292-3.405l.007-.001v-4.81l-.007.001c.028 1.276-.719 2.497-2.292 3.406z" fill="url(#SVGID_00000063595893238047319340000005096091193383327634_)"/><path d="m467.321 268.172-280.476 161.933c-3.411 1.969-9.369 1.722-13.308-.552l-170.279-98.31c-2.165-1.25-3.262-2.852-3.251-4.369h-.007v4.809l.007-.001c-.011 1.517 1.086 3.119 3.251 4.369l170.279 98.311c3.939 2.274 9.897 2.521 13.308.552l280.476-161.933c1.573-.908 2.319-2.13 2.292-3.405l.007-.001v-4.809l-.007.001c.028 1.275-.719 2.497-2.292 3.405z" fill="url(#SVGID_00000061458640768143766450000003341112368131560617_)"/><path d="m3.258 374.352 104.86 60.541 43.306-25.003-89.611-98.055-61.813 8.179v49.969l.007-.001c-.011 1.517 1.086 3.119 3.251 4.37z" fill="url(#SVGID_00000178902485617187154780000001409697252689639607_)"/><path d="m282.324 156.004-277.816 160.396c-3.379 1.951-2.955 5.358.947 7.611l168.663 97.378c3.901 2.253 9.803 2.497 13.182.546l277.815-160.397c3.379-1.951 2.955-5.358-.946-7.61l-168.664-97.378c-3.901-2.252-9.803-2.497-13.181-.546z" fill="url(#SVGID_00000078750398250412142780000008858755781094843292_)"/><path d="m282.779 154.73-99.007 57.161-31.284 23.28-51.268 24.382-98.917 57.11c-3.411 1.969-2.983 5.41.955 7.684l170.279 98.311c3.939 2.274 9.897 2.521 13.308.552l280.476-161.933c3.411-1.969 2.983-5.409-.956-7.683l-170.279-98.311c-3.938-2.275-9.896-2.522-13.307-.553zm101.999 82.714c-14.806 8.548-12.949 23.479 4.147 33.35 6.139 3.544 13.41 5.948 20.892 7.185l-194.042 112.03c-2.143-4.32-6.306-8.518-12.445-12.062-17.096-9.87-42.958-10.943-57.764-2.394-5.317 3.07-8.473 6.964-9.558 11.15l-70.474-40.688c7.25-.627 13.995-2.449 19.312-5.518 14.806-8.548 12.949-23.479-4.147-33.35-6.139-3.545-13.41-5.948-20.892-7.185l194.042-112.03c2.143 4.32 6.306 8.518 12.445 12.062 17.096 9.87 42.958 10.943 57.764 2.394 5.317-3.07 8.473-6.964 9.558-11.15l70.474 40.688c-7.25.626-13.995 2.448-19.312 5.518z" fill="url(#SVGID_00000174565981644613903090000009814456956783333269_)"/><path d="m288.864 257.075c-34.85-20.121-87.568-22.306-117.749-4.881s-26.396 47.862 8.454 67.982 87.568 22.306 117.749 4.881c30.181-17.424 26.396-47.861-8.454-67.982z" fill="url(#SVGID_00000036253493001505670350000005749550877650853791_)"/></g><g><path d="m286.176 365.86v50.005l82.319-47.527v-50.005l-41.159 17.064z" fill="url(#SVGID_00000124854794250760285970000003032097043517281426_)"/><path d="m183.772 211.892-82.552 47.661 184.956 106.307 82.319-47.527z" fill="url(#SVGID_00000093873578953920101870000012029293926901290130_)"/><g><path d="m273.496 304.768 9.198 5.31c3.241 1.871 3.241 4.177 0 6.049-2.502 1.444-8.757 1.444-11.258 0l-8.901-5.139c-4.005 1.676-8.457 3.036-13.114 4.042-8.023 1.732-18.767.29-20.911-2.815l-.036-.052c-2.089-3.026 2.224-6.145 10.508-7.565 6.604-1.132 12.465-2.897 15.931-4.898 4.412-2.547 5.304-5.241 1.813-7.257-11.228-6.483-34.587 14.848-57.987 1.338-10.473-6.047-11.202-14.015-2.724-21.198l-8.632-4.984c-3.242-1.872-3.242-4.177 0-6.049 2.502-1.444 8.757-1.444 11.258 0l8.146 4.703c1.998-.894 4.1-1.703 6.265-2.422 7.59-2.519 20.54-1.281 23.044 2.19 1.998 2.77-1.434 5.643-8.505 7.244-5.617 1.272-10.532 2.854-13.333 4.471-3.595 2.076-4.455 4.315-1.436 6.059 10.945 6.319 34.87-14.685 58.647-.957 11.607 6.703 10.718 15.06 2.027 21.93z" fill="#fff"/></g></g></g><g><path d="m183.772 211.892-82.552 47.661 184.956 106.307 82.319-47.527z" fill="url(#SVGID_00000093873578953920101870000012029293926901290130_)"/></g><path d="m469.62 257.878-42.527 5.627-217.179 146.385c0 6.51 7.048 10.579 12.686 7.324l247.02-142.617z" fill="url(#SVGID_00000160875236277510682090000014743657489279716512_)"/></g><path d="m209.914 409.89 4.629-2.672-110.424-149.338-101.816 58.783c-3.411 1.969-2.983 5.409.956 7.683l148.165 85.543h58.49z" fill="url(#SVGID_00000069365243619821651120000009783536715873294511_)"/><g><g><path d="m511.989 242.372.007-.001v-49.147l-469.62 62.136v49.119l.007-.001c-.011 1.517 1.086 3.119 3.251 4.369l170.279 98.31c3.939 2.274 9.897 2.521 13.308.552l99.331-57.349 46.712-29.596 35.606-17.931 98.826-57.057c1.574-.907 2.321-2.129 2.293-3.404z" fill="url(#SVGID_00000061450818095137148100000009347823746281288854_)"/><path d="m509.697 241.818-280.476 161.933c-3.411 1.969-9.369 1.722-13.308-.552l-170.278-98.31c-2.165-1.25-3.263-2.853-3.251-4.369l-.007.001v4.81l.007-.001c-.011 1.517 1.086 3.119 3.251 4.369l170.279 98.31c3.939 2.274 9.897 2.521 13.308.552l99.331-57.349 2.227-4.155 77.328-44.211 2.764.839 98.826-57.057c1.573-.908 2.32-2.13 2.292-3.405l.007-.001v-4.809l-.007.001c.027 1.274-.72 2.496-2.293 3.404z" fill="url(#SVGID_00000103241244723885632190000013612257476498407357_)"/><path d="m509.697 232.27-280.476 161.933c-3.411 1.969-9.369 1.722-13.308-.552l-170.278-98.311c-2.165-1.25-3.263-2.852-3.251-4.369l-.007.001v4.81l.007-.001c-.011 1.517 1.086 3.119 3.251 4.369l170.279 98.311c3.939 2.274 9.897 2.521 13.308.552l280.476-161.933c1.573-.908 2.32-2.13 2.292-3.405l.007-.001v-4.81l-.007.001c.027 1.275-.72 2.497-2.293 3.405z" fill="url(#SVGID_00000079487984241370392720000016578770994935877040_)"/><path d="m509.697 222.828-280.476 161.932c-3.411 1.969-9.369 1.722-13.308-.552l-170.278-98.31c-2.165-1.25-3.263-2.853-3.251-4.369l-.007.001v4.81l.007-.001c-.011 1.517 1.086 3.119 3.251 4.369l170.279 98.31c3.939 2.274 9.897 2.521 13.308.552l280.476-161.933c1.573-.908 2.32-2.13 2.292-3.405l.007-.001v-4.809l-.007.001c.027 1.275-.72 2.496-2.293 3.405z" fill="url(#SVGID_00000041988750697066700220000008896621971636224931_)"/><path d="m509.697 213.279-280.476 161.933c-3.411 1.969-9.369 1.722-13.308-.552l-170.278-98.31c-2.165-1.25-3.263-2.852-3.251-4.369l-.007.001v4.81l.007-.001c-.011 1.517 1.086 3.119 3.251 4.369l170.279 98.311c3.939 2.274 9.897 2.521 13.308.552l280.476-161.933c1.573-.908 2.32-2.13 2.292-3.405l.007-.001v-4.81l-.007.001c.027 1.274-.72 2.496-2.293 3.404z" fill="url(#SVGID_00000040546825542028229130000013481962599481143221_)"/><path d="m509.697 203.519-280.476 161.932c-3.411 1.969-9.369 1.722-13.308-.552l-170.278-98.31c-2.165-1.25-3.263-2.852-3.251-4.369l-.007.001v4.81l.007-.001c-.011 1.517 1.086 3.119 3.251 4.369l170.279 98.311c3.939 2.274 9.897 2.521 13.308.552l280.476-161.933c1.573-.908 2.32-2.13 2.292-3.405l.007-.001v-4.809l-.007.001c.027 1.274-.72 2.496-2.293 3.404z" fill="url(#SVGID_00000008121392477418329070000000792082031545480628_)"/><g><path d="m42.376 305.33.007-.001c-.011 1.517 1.086 3.119 3.251 4.369l120.001 69.283 43.306-25.002-149.62-100.861-16.945 2.242z" fill="url(#SVGID_00000074401317466244254690000016038301375059558576_)"/></g><path d="m324.7 91.35-277.815 160.397c-3.379 1.951-2.955 5.358.946 7.611l168.663 97.378c3.901 2.253 9.803 2.497 13.182.547l277.815-160.397c3.379-1.951 2.955-5.358-.946-7.611l-168.663-97.378c-3.902-2.253-9.803-2.497-13.182-.547z" fill="url(#SVGID_00000178914414621442392020000005596685627470042795_)"/><path d="m325.155 90.077-99.007 57.161-31.284 23.28-51.268 24.382-98.917 57.11c-3.411 1.969-2.983 5.409.955 7.684l170.279 98.31c3.939 2.274 9.897 2.521 13.308.552l280.476-161.933c3.411-1.969 2.983-5.409-.956-7.684l-170.279-98.31c-3.938-2.274-9.896-2.521-13.307-.552zm101.999 82.713c-14.806 8.548-12.949 23.479 4.147 33.35 6.139 3.544 13.41 5.948 20.892 7.185l-194.043 112.03c-2.143-4.32-6.306-8.517-12.445-12.062-17.096-9.871-42.958-10.943-57.764-2.394-5.317 3.07-8.473 6.964-9.558 11.15l-70.474-40.688c7.25-.627 13.995-2.449 19.312-5.518 14.806-8.548 12.949-23.48-4.147-33.35-6.139-3.545-13.41-5.948-20.892-7.185l194.043-112.03c2.143 4.32 6.306 8.518 12.445 12.062 17.096 9.87 42.958 10.943 57.764 2.394 5.317-3.07 8.473-6.964 9.558-11.15l70.474 40.688c-7.25.626-13.995 2.449-19.312 5.518z" fill="url(#SVGID_00000158014704345547339290000016494649559852784300_)"/><path d="m331.24 192.422c-34.85-20.121-87.568-22.306-117.749-4.881s-26.396 47.862 8.454 67.982 87.568 22.306 117.749 4.881 26.396-47.862-8.454-67.982z" fill="url(#SVGID_00000169531576223107312920000003651580625823966598_)"/></g><g><path d="m328.552 301.207v50.005l82.319-47.527v-50.005l-41.159 17.064z" fill="url(#SVGID_00000168107474088649747130000004344528308460544681_)"/><path d="m226.148 147.239-82.552 47.661 184.956 106.307 82.319-47.527z" fill="url(#SVGID_00000032614030094262496080000004517125037453224080_)"/><g><path d="m315.872 240.115 9.198 5.31c3.242 1.872 3.242 4.177 0 6.049-2.502 1.445-8.757 1.445-11.259 0l-8.901-5.139c-4.005 1.676-8.457 3.036-13.114 4.042-8.023 1.732-18.767.29-20.91-2.815l-.036-.052c-2.089-3.026 2.224-6.145 10.508-7.565 6.604-1.132 12.465-2.897 15.931-4.898 4.412-2.548 5.304-5.241 1.813-7.257-11.228-6.483-34.587 14.848-57.987 1.338-10.473-6.047-11.202-14.015-2.724-21.198l-8.632-4.984c-3.241-1.871-3.241-4.177 0-6.049 2.502-1.444 8.757-1.444 11.258 0l8.146 4.703c1.999-.894 4.1-1.703 6.265-2.422 7.59-2.519 20.54-1.281 23.044 2.19 1.998 2.77-1.434 5.643-8.505 7.245-5.618 1.272-10.532 2.854-13.333 4.471-3.595 2.076-4.455 4.315-1.435 6.058 10.945 6.319 34.87-14.685 58.647-.957 11.606 6.702 10.718 15.06 2.026 21.93z" fill="#fff"/></g></g></g><g><g><path d="m486.008 191.081.007-.001v-49.147l-469.62 62.137v49.119l.007-.001c-.011 1.517 1.086 3.119 3.251 4.369l170.279 98.31c3.939 2.274 9.897 2.521 13.308.552l99.331-57.349 46.712-29.596 35.607-17.931 98.826-57.057c1.573-.908 2.319-2.13 2.292-3.405z" fill="url(#SVGID_00000056399265785088990070000011306652201036093597_)"/><path d="m483.716 190.527-280.476 161.933c-3.411 1.969-9.369 1.722-13.308-.552l-170.279-98.31c-2.165-1.25-3.263-2.853-3.251-4.369l-.007.001v4.81l.007-.001c-.011 1.517 1.086 3.119 3.251 4.369l170.279 98.31c3.939 2.274 9.897 2.521 13.308.552l99.331-57.349 2.227-4.155 77.328-44.211 2.764.839 98.826-57.057c1.573-.908 2.319-2.13 2.292-3.405l.007-.001v-4.81l-.007.001c.027 1.275-.719 2.497-2.292 3.405z" fill="url(#SVGID_00000031911176672358920120000005489672320189203880_)"/><path d="m483.716 180.979-280.476 161.933c-3.411 1.969-9.369 1.722-13.308-.552l-170.279-98.311c-2.165-1.25-3.263-2.852-3.251-4.369l-.007.001v4.81l.007-.001c-.011 1.517 1.086 3.119 3.251 4.369l170.279 98.31c3.939 2.274 9.897 2.521 13.308.552l280.476-161.933c1.573-.908 2.319-2.13 2.292-3.405l.007-.001v-4.81l-.007.001c.027 1.276-.719 2.498-2.292 3.406z" fill="url(#SVGID_00000080171500772247854420000013982735007769899411_)"/><path d="m483.716 171.537-280.476 161.932c-3.411 1.969-9.369 1.722-13.308-.552l-170.279-98.31c-2.165-1.25-3.263-2.853-3.251-4.369l-.007.001v4.81l.007-.001c-.011 1.517 1.086 3.119 3.251 4.369l170.279 98.311c3.939 2.274 9.897 2.521 13.308.552l280.476-161.933c1.573-.908 2.319-2.13 2.292-3.405l.007-.001v-4.81l-.007.001c.027 1.275-.719 2.496-2.292 3.405z" fill="url(#SVGID_00000093169367931510524910000016129778611485577627_)"/><path d="m483.716 161.988-280.476 161.933c-3.411 1.969-9.369 1.722-13.308-.552l-170.279-98.31c-2.165-1.25-3.263-2.852-3.251-4.369l-.007.001v4.81l.007-.001c-.011 1.517 1.086 3.119 3.251 4.369l170.279 98.31c3.939 2.274 9.897 2.521 13.308.552l280.476-161.933c1.573-.908 2.319-2.13 2.292-3.405l.007-.001v-4.809l-.007.001c.027 1.275-.719 2.496-2.292 3.404z" fill="url(#SVGID_00000123428514402270943150000006416947569683988662_)"/><path d="m483.716 152.228-280.476 161.932c-3.411 1.969-9.369 1.722-13.308-.552l-170.279-98.31c-2.165-1.25-3.263-2.852-3.251-4.369l-.007.001v4.81l.007-.001c-.011 1.517 1.086 3.119 3.251 4.369l170.279 98.311c3.939 2.274 9.897 2.521 13.308.552l280.476-161.933c1.573-.908 2.319-2.13 2.292-3.405l.007-.001v-4.81l-.007.001c.027 1.275-.719 2.497-2.292 3.405z" fill="url(#SVGID_00000167368448542779109550000004897286947612652197_)"/><path d="m298.719 40.06-277.816 160.396c-3.379 1.951-2.955 5.358.946 7.611l168.663 97.378c3.901 2.253 9.803 2.497 13.182.547l277.816-160.397c3.379-1.951 2.955-5.358-.946-7.61l-168.664-97.379c-3.901-2.252-9.803-2.497-13.181-.546z" fill="url(#SVGID_00000098215608085546586830000007402636996879978153_)"/><path d="m299.173 38.786-99.007 57.161-31.284 23.28-51.268 24.382-98.917 57.11c-3.411 1.969-2.983 5.41.955 7.683l170.279 98.311c3.939 2.274 9.897 2.521 13.308.552l280.476-161.933c3.411-1.969 2.983-5.409-.956-7.684l-170.279-98.31c-3.937-2.274-9.895-2.521-13.307-.552zm102 82.713c-14.806 8.548-12.949 23.479 4.147 33.35 6.139 3.545 13.41 5.948 20.892 7.185l-194.042 112.031c-2.143-4.32-6.306-8.517-12.445-12.062-17.096-9.871-42.958-10.943-57.764-2.394-5.317 3.07-8.473 6.964-9.558 11.15l-70.475-40.689c7.25-.627 13.995-2.449 19.312-5.518 14.806-8.548 12.949-23.48-4.147-33.35-6.139-3.545-13.41-5.948-20.892-7.185l194.043-112.03c2.143 4.32 6.306 8.517 12.445 12.062 17.096 9.87 42.958 10.942 57.764 2.394 5.317-3.07 8.473-6.964 9.558-11.15l70.474 40.688c-7.25.627-13.995 2.449-19.312 5.518z" fill="url(#SVGID_00000103953337385262383600000008168024021655968682_)"/><path d="m305.259 141.131c-34.85-20.121-87.568-22.306-117.749-4.881s-26.396 47.862 8.454 67.982 87.568 22.306 117.749 4.881 26.396-47.861-8.454-67.982z" fill="url(#SVGID_00000140714572826244592020000004572149336927403420_)"/></g><g><path d="m302.571 249.916v50.005l82.319-47.527v-50.005l-41.16 17.064z" fill="url(#SVGID_00000041267466201203304830000012179485810799738520_)"/><path d="m200.167 95.948-82.552 47.661 184.956 106.307 82.319-47.527z" fill="url(#SVGID_00000083080120241724797030000009184134110946004889_)"/><g><path d="m289.89 188.824 9.198 5.31c3.241 1.872 3.241 4.177 0 6.048-2.502 1.445-8.757 1.445-11.258 0l-8.901-5.139c-4.005 1.676-8.457 3.036-13.114 4.042-8.023 1.732-18.767.29-20.911-2.815l-.036-.052c-2.089-3.026 2.224-6.145 10.508-7.565 6.604-1.132 12.465-2.897 15.931-4.898 4.412-2.548 5.304-5.241 1.813-7.257-11.228-6.483-34.587 14.848-57.987 1.338-10.473-6.047-11.201-14.015-2.724-21.198l-8.632-4.984c-3.241-1.871-3.241-4.177 0-6.048 2.502-1.444 8.756-1.444 11.258 0l8.146 4.703c1.999-.894 4.1-1.703 6.265-2.422 7.59-2.519 20.54-1.281 23.044 2.19 1.998 2.77-1.434 5.643-8.505 7.245-5.617 1.272-10.532 2.854-13.333 4.471-3.595 2.076-4.455 4.315-1.436 6.058 10.945 6.319 34.87-14.684 58.647-.957 11.607 6.703 10.719 15.06 2.027 21.93z" fill="#fff"/></g></g></g></g></svg>