<?xml version="1.0" encoding="UTF-8"?>
<svg id="Capa_1" data-name="Capa 1" xmlns="http://www.w3.org/2000/svg" xmlns:xlink="http://www.w3.org/1999/xlink" version="1.1" viewBox="0 0 512 512">
  <defs>
    <style>
      .cls-1 {
        fill: url(#linear-gradient);
      }

      .cls-1, .cls-2, .cls-3, .cls-4, .cls-5, .cls-6, .cls-7, .cls-8, .cls-9, .cls-10, .cls-11, .cls-12, .cls-13, .cls-14, .cls-15, .cls-16, .cls-17, .cls-18, .cls-19, .cls-20, .cls-21, .cls-22, .cls-23, .cls-24, .cls-25, .cls-26, .cls-27, .cls-28, .cls-29, .cls-30, .cls-31, .cls-32, .cls-33, .cls-34, .cls-35, .cls-36, .cls-37, .cls-38, .cls-39, .cls-40, .cls-41 {
        stroke-width: 0px;
      }

      .cls-2 {
        fill: url(#linear-gradient-38);
      }

      .cls-3 {
        fill: url(#linear-gradient-33);
      }

      .cls-4 {
        fill: url(#linear-gradient-29);
      }

      .cls-5 {
        fill: url(#linear-gradient-32);
      }

      .cls-6 {
        fill: url(#linear-gradient-30);
      }

      .cls-7 {
        fill: url(#linear-gradient-31);
      }

      .cls-8 {
        fill: url(#linear-gradient-36);
      }

      .cls-9 {
        fill: url(#linear-gradient-39);
      }

      .cls-10 {
        fill: url(#linear-gradient-34);
      }

      .cls-11 {
        fill: url(#linear-gradient-35);
      }

      .cls-12 {
        fill: url(#linear-gradient-28);
      }

      .cls-13 {
        fill: url(#linear-gradient-25);
      }

      .cls-14 {
        fill: url(#linear-gradient-11);
      }

      .cls-15 {
        fill: url(#linear-gradient-12);
      }

      .cls-16 {
        fill: url(#linear-gradient-13);
      }

      .cls-17 {
        fill: url(#linear-gradient-10);
      }

      .cls-18 {
        fill: url(#linear-gradient-17);
      }

      .cls-19 {
        fill: url(#linear-gradient-16);
      }

      .cls-20 {
        fill: url(#linear-gradient-19);
      }

      .cls-21 {
        fill: url(#linear-gradient-15);
      }

      .cls-22 {
        fill: url(#linear-gradient-23);
      }

      .cls-23 {
        fill: url(#linear-gradient-21);
      }

      .cls-24 {
        fill: url(#linear-gradient-18);
      }

      .cls-25 {
        fill: url(#linear-gradient-14);
      }

      .cls-26 {
        fill: url(#linear-gradient-22);
      }

      .cls-27 {
        fill: url(#linear-gradient-20);
      }

      .cls-28 {
        fill: url(#linear-gradient-27);
      }

      .cls-29 {
        fill: url(#linear-gradient-24);
      }

      .cls-30 {
        fill: url(#linear-gradient-26);
      }

      .cls-31 {
        fill: url(#linear-gradient-40);
      }

      .cls-32 {
        fill: url(#linear-gradient-41);
      }

      .cls-33 {
        display: none;
        fill: url(#linear-gradient-37);
      }

      .cls-34 {
        fill: url(#linear-gradient-4);
      }

      .cls-35 {
        fill: url(#linear-gradient-2);
      }

      .cls-36 {
        fill: url(#linear-gradient-3);
      }

      .cls-37 {
        fill: url(#linear-gradient-8);
      }

      .cls-38 {
        fill: url(#linear-gradient-9);
      }

      .cls-39 {
        fill: url(#linear-gradient-7);
      }

      .cls-40 {
        fill: url(#linear-gradient-5);
      }

      .cls-41 {
        fill: url(#linear-gradient-6);
      }
    </style>
    <linearGradient id="linear-gradient" x1="69.9" y1="88.4" x2="413" y2="88.4" gradientTransform="translate(0 512) scale(1 -1)" gradientUnits="userSpaceOnUse">
      <stop offset="0" stop-color="#ba5c25"/>
      <stop offset=".2" stop-color="#ffc538"/>
      <stop offset=".3" stop-color="#ffa538"/>
      <stop offset=".5" stop-color="#fbc23c"/>
      <stop offset=".6" stop-color="#f8d840"/>
      <stop offset=".7" stop-color="#f7e041"/>
      <stop offset=".8" stop-color="#f9d53f"/>
      <stop offset=".9" stop-color="#fdb73b"/>
      <stop offset="1" stop-color="#ffa538"/>
    </linearGradient>
    <linearGradient id="linear-gradient-2" x1="439.8" y1="146.5" x2="320.3" y2="77.6" gradientTransform="translate(0 512) scale(1 -1)" gradientUnits="userSpaceOnUse">
      <stop offset="0" stop-color="#fff"/>
      <stop offset="1" stop-color="#fff" stop-opacity="0"/>
    </linearGradient>
    <linearGradient id="linear-gradient-3" x1="103" y1="99.4" x2="160.1" y2=".5" gradientTransform="translate(0 512) scale(1 -1)" gradientUnits="userSpaceOnUse">
      <stop offset="0" stop-color="#8b451c"/>
      <stop offset="1" stop-color="#8b451c" stop-opacity="0"/>
    </linearGradient>
    <linearGradient id="linear-gradient-4" x1="205.7" y1="188.6" x2="437.5" y2="75.2" gradientTransform="translate(0 512) scale(1 -1)" gradientUnits="userSpaceOnUse">
      <stop offset="0" stop-color="#e37a34"/>
      <stop offset=".5" stop-color="#ffa538"/>
      <stop offset="1" stop-color="#ffc538"/>
    </linearGradient>
    <linearGradient id="linear-gradient-5" x1="447.7" y1="51.7" x2="91.3" y2="261.6" gradientTransform="translate(0 512) scale(1 -1)" gradientUnits="userSpaceOnUse">
      <stop offset="0" stop-color="#e37a34"/>
      <stop offset=".5" stop-color="#ffa538"/>
      <stop offset="1" stop-color="#ffc538"/>
    </linearGradient>
    <linearGradient id="linear-gradient-6" x1="372.5" y1="112.5" x2="24.9" y2="317.2" gradientTransform="translate(0 512) scale(1 -1)" gradientUnits="userSpaceOnUse">
      <stop offset="0" stop-color="#ba5c25"/>
      <stop offset=".2" stop-color="#ffc538"/>
      <stop offset=".4" stop-color="#ffa538"/>
      <stop offset=".6" stop-color="#f7e041"/>
      <stop offset="1" stop-color="#ffa538"/>
    </linearGradient>
    <linearGradient id="linear-gradient-7" x1="348.7" y1="91.4" x2="53.7" y2="265.2" gradientTransform="translate(0 512) scale(1 -1)" gradientUnits="userSpaceOnUse">
      <stop offset="0" stop-color="#ba5c25"/>
      <stop offset=".2" stop-color="#ffc538"/>
      <stop offset=".4" stop-color="#ffa538"/>
      <stop offset=".6" stop-color="#f7e041"/>
      <stop offset="1" stop-color="#ffa538"/>
    </linearGradient>
    <linearGradient id="linear-gradient-8" x1="135.6" y1="116.4" x2="23.9" y2="51.9" gradientTransform="translate(0 512) scale(1 -1)" gradientUnits="userSpaceOnUse">
      <stop offset="0" stop-color="#8b451c"/>
      <stop offset="1" stop-color="#8b451c" stop-opacity="0"/>
    </linearGradient>
    <linearGradient id="linear-gradient-9" x1="-14.5" y1="148.4" x2="328.6" y2="148.4" gradientTransform="translate(0 512) scale(1 -1)" gradientUnits="userSpaceOnUse">
      <stop offset="0" stop-color="#ba5c25"/>
      <stop offset=".2" stop-color="#ffc538"/>
      <stop offset=".3" stop-color="#ffa538"/>
      <stop offset=".4" stop-color="#fbc23c"/>
      <stop offset=".5" stop-color="#f8d840"/>
      <stop offset=".6" stop-color="#f7e041"/>
      <stop offset=".6" stop-color="#f9d53f"/>
      <stop offset=".7" stop-color="#fdb73b"/>
      <stop offset=".8" stop-color="#ffa538"/>
      <stop offset="1" stop-color="#ffc538"/>
    </linearGradient>
    <linearGradient id="linear-gradient-10" x1="404.2" y1="205.7" x2="304.4" y2="148.1" gradientTransform="translate(0 512) scale(1 -1)" gradientUnits="userSpaceOnUse">
      <stop offset="0" stop-color="#fff"/>
      <stop offset="1" stop-color="#fff" stop-opacity="0"/>
    </linearGradient>
    <linearGradient id="linear-gradient-11" x1="66.8" y1="193" x2="128.9" y2="85.4" gradientTransform="translate(0 512) scale(1 -1)" gradientUnits="userSpaceOnUse">
      <stop offset="0" stop-color="#8b451c"/>
      <stop offset="1" stop-color="#8b451c" stop-opacity="0"/>
    </linearGradient>
    <linearGradient id="linear-gradient-12" x1="179.8" y1="248.7" x2="411.6" y2="135.3" gradientTransform="translate(0 512) scale(1 -1)" gradientUnits="userSpaceOnUse">
      <stop offset="0" stop-color="#e37a34"/>
      <stop offset=".5" stop-color="#ffa538"/>
      <stop offset="1" stop-color="#ffc538"/>
    </linearGradient>
    <linearGradient id="linear-gradient-13" x1="421.8" y1="111.7" x2="65.4" y2="321.6" gradientTransform="translate(0 512) scale(1 -1)" gradientUnits="userSpaceOnUse">
      <stop offset="0" stop-color="#ffc538"/>
      <stop offset=".3" stop-color="#ffa538"/>
      <stop offset=".6" stop-color="#f7e041"/>
      <stop offset="1" stop-color="#ffa538"/>
    </linearGradient>
    <linearGradient id="linear-gradient-14" x1="346.5" y1="172.6" x2="-1" y2="377.2" gradientTransform="translate(0 512) scale(1 -1)" gradientUnits="userSpaceOnUse">
      <stop offset="0" stop-color="#ba5c25"/>
      <stop offset=".2" stop-color="#ffc538"/>
      <stop offset=".4" stop-color="#ffa538"/>
      <stop offset=".6" stop-color="#f7e041"/>
      <stop offset="1" stop-color="#ffa538"/>
    </linearGradient>
    <linearGradient id="linear-gradient-15" x1="322.8" y1="151.4" x2="27.8" y2="325.2" gradientTransform="translate(0 512) scale(1 -1)" gradientUnits="userSpaceOnUse">
      <stop offset="0" stop-color="#ba5c25"/>
      <stop offset=".2" stop-color="#ffc538"/>
      <stop offset=".4" stop-color="#ffa538"/>
      <stop offset=".6" stop-color="#f7e041"/>
      <stop offset="1" stop-color="#ffa538"/>
    </linearGradient>
    <linearGradient id="linear-gradient-16" x1="145.9" y1="191.4" x2="-37.4" y2="85.6" gradientTransform="translate(0 512) scale(1 -1)" gradientUnits="userSpaceOnUse">
      <stop offset="0" stop-color="#8b451c"/>
      <stop offset="1" stop-color="#8b451c" stop-opacity="0"/>
    </linearGradient>
    <linearGradient id="linear-gradient-17" x1="63.9" y1="205.2" x2="407.1" y2="205.2" gradientTransform="translate(0 512) scale(1 -1)" gradientUnits="userSpaceOnUse">
      <stop offset="0" stop-color="#ba5c25"/>
      <stop offset=".2" stop-color="#ffc538"/>
      <stop offset=".3" stop-color="#ffa538"/>
      <stop offset=".4" stop-color="#fbc23c"/>
      <stop offset=".5" stop-color="#f8d840"/>
      <stop offset=".5" stop-color="#f7e041"/>
      <stop offset=".6" stop-color="#f9d53f"/>
      <stop offset=".9" stop-color="#fdb73b"/>
      <stop offset="1" stop-color="#ffa538"/>
    </linearGradient>
    <linearGradient id="linear-gradient-18" x1="423.5" y1="262.3" x2="336.9" y2="212.2" gradientTransform="translate(0 512) scale(1 -1)" gradientUnits="userSpaceOnUse">
      <stop offset="0" stop-color="#fff"/>
      <stop offset="1" stop-color="#fff" stop-opacity="0"/>
    </linearGradient>
    <linearGradient id="linear-gradient-19" x1="61.8" y1="305.4" x2="154.3" y2="145.1" gradientTransform="translate(0 512) scale(1 -1)" gradientUnits="userSpaceOnUse">
      <stop offset="0" stop-color="#8b451c"/>
      <stop offset="1" stop-color="#8b451c" stop-opacity="0"/>
    </linearGradient>
    <linearGradient id="linear-gradient-20" x1="199.7" y1="305.4" x2="431.6" y2="192" gradientTransform="translate(0 512) scale(1 -1)" gradientUnits="userSpaceOnUse">
      <stop offset="0" stop-color="#e37a34"/>
      <stop offset=".5" stop-color="#ffa538"/>
      <stop offset="1" stop-color="#ffc538"/>
    </linearGradient>
    <linearGradient id="linear-gradient-21" x1="441.7" y1="168.5" x2="85.3" y2="378.3" gradientTransform="translate(0 512) scale(1 -1)" gradientUnits="userSpaceOnUse">
      <stop offset="0" stop-color="#ffc538"/>
      <stop offset=".3" stop-color="#ffa538"/>
      <stop offset=".6" stop-color="#f7e041"/>
      <stop offset="1" stop-color="#ffa538"/>
    </linearGradient>
    <linearGradient id="linear-gradient-22" x1="366.5" y1="229.3" x2="18.9" y2="434" gradientTransform="translate(0 512) scale(1 -1)" gradientUnits="userSpaceOnUse">
      <stop offset="0" stop-color="#ba5c25"/>
      <stop offset=".2" stop-color="#ffc538"/>
      <stop offset=".4" stop-color="#ffa538"/>
      <stop offset=".6" stop-color="#f7e041"/>
      <stop offset="1" stop-color="#ffa538"/>
    </linearGradient>
    <linearGradient id="linear-gradient-23" x1="342.7" y1="208.2" x2="47.7" y2="381.9" gradientTransform="translate(0 512) scale(1 -1)" gradientUnits="userSpaceOnUse">
      <stop offset="0" stop-color="#ba5c25"/>
      <stop offset=".2" stop-color="#ffc538"/>
      <stop offset=".4" stop-color="#ffa538"/>
      <stop offset=".6" stop-color="#f7e041"/>
      <stop offset="1" stop-color="#ffa538"/>
    </linearGradient>
    <linearGradient id="linear-gradient-24" x1="222.9" y1="280.1" x2="-59.3" y2="117.1" gradientTransform="translate(0 512) scale(1 -1)" gradientUnits="userSpaceOnUse">
      <stop offset="0" stop-color="#8b451c"/>
      <stop offset="1" stop-color="#8b451c" stop-opacity="0"/>
    </linearGradient>
    <linearGradient id="linear-gradient-25" x1="100.1" y1="265.5" x2="443.3" y2="265.5" gradientTransform="translate(0 512) scale(1 -1)" gradientUnits="userSpaceOnUse">
      <stop offset="0" stop-color="#ba5c25"/>
      <stop offset=".2" stop-color="#ffc538"/>
      <stop offset=".3" stop-color="#ffa538"/>
      <stop offset=".5" stop-color="#fbc23c"/>
      <stop offset=".6" stop-color="#f8d840"/>
      <stop offset=".7" stop-color="#f7e041"/>
      <stop offset=".8" stop-color="#f9d53f"/>
      <stop offset=".9" stop-color="#fdb73b"/>
      <stop offset="1" stop-color="#ffa538"/>
    </linearGradient>
    <linearGradient id="linear-gradient-26" x1="447.5" y1="319.3" x2="358.4" y2="267.8" gradientTransform="translate(0 512) scale(1 -1)" gradientUnits="userSpaceOnUse">
      <stop offset="0" stop-color="#fff"/>
      <stop offset="1" stop-color="#fff" stop-opacity="0"/>
    </linearGradient>
    <linearGradient id="linear-gradient-27" x1="94" y1="306.2" x2="144.9" y2="218" gradientTransform="translate(0 512) scale(1 -1)" gradientUnits="userSpaceOnUse">
      <stop offset="0" stop-color="#8b451c"/>
      <stop offset="1" stop-color="#8b451c" stop-opacity="0"/>
    </linearGradient>
    <linearGradient id="linear-gradient-28" x1="221" y1="365.7" x2="452.8" y2="252.3" gradientTransform="translate(0 512) scale(1 -1)" gradientUnits="userSpaceOnUse">
      <stop offset="0" stop-color="#ffa538"/>
      <stop offset="1" stop-color="#f7e041"/>
    </linearGradient>
    <linearGradient id="linear-gradient-29" x1="463" y1="228.7" x2="106.6" y2="438.6" gradientTransform="translate(0 512) scale(1 -1)" gradientUnits="userSpaceOnUse">
      <stop offset="0" stop-color="#e37a34"/>
      <stop offset=".5" stop-color="#ffa538"/>
      <stop offset="1" stop-color="#ffc538"/>
    </linearGradient>
    <linearGradient id="linear-gradient-30" x1="387.7" y1="289.6" x2="40.2" y2="494.3" gradientTransform="translate(0 512) scale(1 -1)" gradientUnits="userSpaceOnUse">
      <stop offset="0" stop-color="#ba5c25"/>
      <stop offset=".2" stop-color="#ffc538"/>
      <stop offset=".4" stop-color="#ffa538"/>
      <stop offset=".6" stop-color="#f7e041"/>
      <stop offset="1" stop-color="#ffa538"/>
    </linearGradient>
    <linearGradient id="linear-gradient-31" x1="364" y1="268.5" x2="69" y2="442.2" gradientTransform="translate(0 512) scale(1 -1)" gradientUnits="userSpaceOnUse">
      <stop offset="0" stop-color="#ba5c25"/>
      <stop offset=".2" stop-color="#ffc538"/>
      <stop offset=".4" stop-color="#ffa538"/>
      <stop offset=".6" stop-color="#f7e041"/>
      <stop offset="1" stop-color="#ffa538"/>
    </linearGradient>
    <linearGradient id="linear-gradient-32" x1="183.9" y1="298.4" x2="80.3" y2="238.6" gradientTransform="translate(0 512) scale(1 -1)" gradientUnits="userSpaceOnUse">
      <stop offset="0" stop-color="#8b451c"/>
      <stop offset="1" stop-color="#8b451c" stop-opacity="0"/>
    </linearGradient>
    <linearGradient id="linear-gradient-33" x1="133.8" y1="330.5" x2="477" y2="330.5" gradientTransform="translate(0 512) scale(1 -1)" gradientUnits="userSpaceOnUse">
      <stop offset="0" stop-color="#ba5c25"/>
      <stop offset=".2" stop-color="#ffc538"/>
      <stop offset=".3" stop-color="#ffa538"/>
      <stop offset=".5" stop-color="#fbc23c"/>
      <stop offset=".6" stop-color="#f8d840"/>
      <stop offset=".7" stop-color="#f7e041"/>
      <stop offset=".8" stop-color="#f9d53f"/>
      <stop offset=".9" stop-color="#fdb73b"/>
      <stop offset="1" stop-color="#ffa538"/>
    </linearGradient>
    <linearGradient id="linear-gradient-34" x1="418.3" y1="381.7" x2="314.2" y2="321.6" gradientTransform="translate(0 512) scale(1 -1)" gradientUnits="userSpaceOnUse">
      <stop offset="0" stop-color="#fff"/>
      <stop offset="1" stop-color="#fff" stop-opacity="0"/>
    </linearGradient>
    <linearGradient id="linear-gradient-35" x1="689.3" y1="315.7" x2="689.3" y2="594.2" gradientTransform="translate(-806.1 31.9) rotate(30) scale(1 -1) skewX(30)" gradientUnits="userSpaceOnUse">
      <stop offset="0" stop-color="#ffc538"/>
      <stop offset="1" stop-color="#f7e041"/>
    </linearGradient>
    <linearGradient id="linear-gradient-36" x1="284.1" y1="342.6" x2="232.9" y2="431.4" gradientTransform="translate(0 512) scale(1 -1)" gradientUnits="userSpaceOnUse">
      <stop offset="0" stop-color="#fff"/>
      <stop offset="1" stop-color="#fff" stop-opacity="0"/>
    </linearGradient>
    <linearGradient id="linear-gradient-37" x1="361.8" y1="340.8" x2="169.5" y2="454.1" gradientTransform="translate(0 512) scale(1 -1)" gradientUnits="userSpaceOnUse">
      <stop offset="0" stop-color="#e37a34"/>
      <stop offset=".5" stop-color="#ffa538"/>
      <stop offset="1" stop-color="#ffc538"/>
    </linearGradient>
    <linearGradient id="linear-gradient-38" x1="255.5" y1="143.9" x2="255.5" y2="14.4" gradientTransform="translate(14.9 79.6) rotate(-4.8) scale(.9 .6)" xlink:href="#linear-gradient-37"/>
    <linearGradient id="linear-gradient-39" x1="441.7" y1="293.8" x2="105" y2="492.1" gradientTransform="translate(0 512) scale(1 -1)" gradientUnits="userSpaceOnUse">
      <stop offset="0" stop-color="#e37a34"/>
      <stop offset=".5" stop-color="#ffa538"/>
      <stop offset="1" stop-color="#ffc538"/>
    </linearGradient>
    <linearGradient id="linear-gradient-40" x1="366.5" y1="354.6" x2="18.9" y2="559.3" gradientTransform="translate(0 512) scale(1 -1)" gradientUnits="userSpaceOnUse">
      <stop offset="0" stop-color="#ba5c25"/>
      <stop offset=".2" stop-color="#ffc538"/>
      <stop offset=".4" stop-color="#ffa538"/>
      <stop offset=".6" stop-color="#f7e041"/>
      <stop offset="1" stop-color="#ffa538"/>
    </linearGradient>
    <linearGradient id="linear-gradient-41" x1="342.7" y1="333.5" x2="47.7" y2="507.2" gradientTransform="translate(0 512) scale(1 -1)" gradientUnits="userSpaceOnUse">
      <stop offset="0" stop-color="#ba5c25"/>
      <stop offset=".2" stop-color="#ffc538"/>
      <stop offset=".4" stop-color="#ffa538"/>
      <stop offset=".6" stop-color="#f7e041"/>
      <stop offset="1" stop-color="#ffa538"/>
    </linearGradient>
  </defs>
  <g>
    <path class="cls-1" d="M449.4,387.7h0v-52.6l-375.9,30.4v53.2c0,.2,0,.3,0,.5v.3h0c.2,24.7,15.3,48.3,45.9,66,68,39.2,186.7,34.3,265.1-11,43-24.8,65-56.7,64.9-86.8Z"/>
    <path class="cls-35" d="M433.8,336.4l-89.9,7.3v149.5c14.3-5.2,27.9-11.4,40.5-18.7,22-12.7,38.5-27.2,49.4-42.5v-95.7Z"/>
    <path class="cls-36" d="M73.4,419c0,.2,0,.3,0,.5v.3h0c.2,23.5,13.8,46,41.4,63.3l53.9-31.1-62.8-88.8-32.6,2.6v53.2Z"/>
    <path class="cls-34" d="M384.4,421.6c78.5-45.3,87-113.8,19-153.1s-186.7-34.3-265.1,11c-78.5,45.3-87,113.8-19,153.1,68,39.2,186.7,34.3,265.1-11Z"/>
    <path class="cls-40" d="M388.8,277.1c-60.9-35.2-167.3-30.8-237.7,9.9-70.3,40.6-78,102-17.1,137.2,60.9,35.2,167.3,30.8,237.7-9.9s78-102,17.1-137.2h0ZM355,404.6c-59.7,34.4-149.9,38.2-201.6,8.4s-45.2-81.9,14.5-116.4c59.7-34.4,149.9-38.2,201.6-8.4,51.7,29.8,45.2,81.9-14.5,116.4Z"/>
    <g>
      <path class="cls-41" d="M151.1,291.6c70.3-40.6,176.7-45,237.7-9.9,26.6,15.4,40.2,35.8,41.1,57.2,1-23.2-12.5-45.5-41.1-62-60.9-35.2-167.3-30.8-237.7,9.9-39.6,22.9-59.3,52.3-58.1,80,1.1-26.3,20.8-53.7,58.1-75.2h0Z"/>
      <path class="cls-39" d="M153.4,417.7c51.7,29.8,141.9,26.1,201.6-8.4,33.8-19.5,50.5-44.6,49.3-68.2-1.1,22.2-17.8,45.3-49.3,63.5-59.7,34.4-149.9,38.2-201.6,8.4-22.4-13-33.9-30.1-34.8-48.2-1,19.8,10.4,38.8,34.8,52.9h0Z"/>
    </g>
  </g>
  <path class="cls-37" d="M119.2,432.9c14.5,8.4,31.3,14.7,49.5,19.1h38.5v-125.4h-121.3c-24.2,37.8-13.8,79.1,33.3,106.3h0Z"/>
  <g>
    <path class="cls-38" d="M423.4,327.7h0v-52.6l-375.9,30.4v53.2c0,.2,0,.3,0,.5v.3h0c.2,24.7,15.3,48.3,45.9,66,68,39.2,186.7,34.3,265.1-11,43-24.8,65-56.7,64.9-86.8h0Z"/>
    <path class="cls-17" d="M299,439.3c21.2-6.1,41.4-14.4,59.5-24.8,11.7-6.7,21.8-14,30.4-21.6v-115l-89.9,7.3v154.1Z"/>
    <path class="cls-14" d="M47.4,358.7c0,.2,0,.3,0,.5v.3h0c.2,24.7,15.3,48.3,45.9,66,2.1,1.2,4.3,2.4,6.5,3.5l59-34.1-50.4-94.4-60.9,4.9v53.2h0Z"/>
    <path class="cls-15" d="M358.5,361.6c78.5-45.3,87-113.8,19-153.1s-186.7-34.3-265.1,11c-78.5,45.3-87,113.8-19,153.1,68,39.2,186.7,34.3,265.1-11Z"/>
    <path class="cls-16" d="M362.8,217c-60.9-35.2-167.3-30.8-237.7,9.9-70.3,40.6-78,102-17.1,137.2,60.9,35.2,167.3,30.8,237.7-9.9,70.3-40.6,78-102,17.1-137.2h0ZM329,344.6c-59.7,34.4-149.9,38.2-201.6,8.4s-45.2-81.9,14.5-116.4c59.7-34.4,149.9-38.2,201.6-8.4s45.2,81.9-14.5,116.4Z"/>
    <g>
      <path class="cls-25" d="M125.2,231.6c70.3-40.6,176.7-45,237.7-9.9,26.6,15.4,40.2,35.8,41.1,57.2,1-23.2-12.5-45.5-41.1-62-60.9-35.2-167.3-30.8-237.7,9.9-39.6,22.9-59.3,52.3-58.1,80,1.1-26.3,20.8-53.7,58.1-75.2h0Z"/>
      <path class="cls-21" d="M127.4,357.7c51.7,29.8,141.9,26.1,201.6-8.4,33.8-19.5,50.5-44.6,49.3-68.2-1.1,22.2-17.8,45.3-49.3,63.5-59.7,34.4-149.9,38.2-201.6,8.4-22.4-13-33.9-30.1-34.8-48.2-1,19.8,10.4,38.8,34.8,52.9h0Z"/>
    </g>
  </g>
  <path class="cls-19" d="M217,222s-57.8.3-109.6.5c-73.9,45.3-80.6,111.7-14.1,150.1,18.6,10.8,41.1,18.2,65.5,22.4h67l-8.7-173Z"/>
  <g>
    <path class="cls-18" d="M443.4,270.9h0v-52.6l-375.9,30.4v53.2c0,.2,0,.3,0,.5v.3h0c.2,24.7,15.3,48.3,45.9,66,68,39.2,186.7,34.3,265.1-11,43-24.8,65-56.7,64.9-86.8h0Z"/>
    <path class="cls-24" d="M318.3,382.8c21.5-6.1,41.9-14.5,60.2-25,11.4-6.6,21.3-13.6,29.7-21v-115.5l-89.9,7.3v154.3h0Z"/>
    <path class="cls-20" d="M67.5,302c0,.2,0,.3,0,.5v.3h0c.2,23.5,13.8,46,41.4,63.3l53.9-31.1-21.1-92.2-74.3,6v53.2Z"/>
    <path class="cls-27" d="M378.4,304.9c78.5-45.3,87-113.8,19-153.1s-186.7-34.3-265.1,11-87,113.8-19,153.1c68,39.2,186.7,34.3,265.1-11h0Z"/>
    <path class="cls-23" d="M382.8,160.3c-60.9-35.2-167.3-30.8-237.7,9.9-70.3,40.6-78,102-17.1,137.2,60.9,35.2,167.3,30.8,237.7-9.9,70.3-40.6,78-102,17.1-137.2h0ZM349,287.8c-59.7,34.4-149.9,38.2-201.6,8.4s-45.2-81.9,14.5-116.4c59.7-34.4,149.9-38.2,201.6-8.4s45.2,81.9-14.5,116.4Z"/>
    <g>
      <path class="cls-26" d="M145.1,174.9c70.3-40.6,176.7-45,237.7-9.9,26.6,15.4,40.2,35.8,41.1,57.2,1-23.2-12.5-45.5-41.1-62-60.9-35.2-167.3-30.8-237.7,9.9-39.6,22.9-59.3,52.3-58.1,80,1.1-26.3,20.8-53.7,58.1-75.2h0Z"/>
      <path class="cls-22" d="M147.4,300.9c51.7,29.8,141.9,26.1,201.6-8.4,33.8-19.5,50.5-44.6,49.3-68.2-1.1,22.2-17.8,45.3-49.3,63.5-59.7,34.4-149.9,38.2-201.6,8.4-22.4-13-33.9-30.1-34.8-48.2-1,19.8,10.4,38.8,34.8,52.9Z"/>
    </g>
  </g>
  <path class="cls-29" d="M211.1,186.6l-99.6-10c-58.6,44.5-59.6,103.9,1.8,139.3,14.5,8.4,31.3,14.7,49.5,19.1h88.9l-40.6-148.4Z"/>
  <g>
    <path class="cls-13" d="M464.6,210.7h0v-52.6l-375.9,30.4v53.2c0,.2,0,.3,0,.5v.3h0c.2,24.7,15.3,48.3,45.9,66,68,39.2,186.7,34.3,265.1-11,43-24.8,65-56.7,64.9-86.8h0Z"/>
    <path class="cls-30" d="M448.8,159.4l-89.9,7.3v149.6c14.4-5.2,28.1-11.5,40.8-18.8,21.8-12.6,38.2-27,49.1-42v-96.1Z"/>
    <path class="cls-28" d="M88.7,241.7c0,.2,0,.3,0,.5v.3h0c.2,19.9,10,39,29.7,54.9l48.1-27.8-58-82.8-19.8,1.6v53.2h0Z"/>
    <path class="cls-12" d="M399.7,244.6c78.5-45.3,87-113.8,19-153.1s-186.7-34.3-265.1,11c-78.5,45.3-87,113.8-19,153.1,68,39.2,186.7,34.3,265.1-11h0Z"/>
    <path class="cls-4" d="M404,100c-60.9-35.2-167.3-30.8-237.7,9.9-70.3,40.6-78,102-17.1,137.2,60.9,35.2,167.3,30.8,237.7-9.9s78-102,17.1-137.2ZM370.2,227.5c-59.7,34.4-149.9,38.2-201.6,8.4s-45.2-81.9,14.5-116.4c59.7-34.4,149.9-38.2,201.6-8.4s45.2,81.9-14.5,116.4Z"/>
    <g>
      <path class="cls-6" d="M166.4,114.6c70.3-40.6,176.7-45,237.7-9.9,26.6,15.4,40.2,35.8,41.1,57.2,1-23.2-12.5-45.5-41.1-62-60.9-35.2-167.3-30.8-237.7,9.9-39.6,22.9-59.3,52.3-58.1,80,1.1-26.3,20.8-53.7,58.1-75.2h0Z"/>
      <path class="cls-7" d="M168.6,240.6c51.7,29.8,141.9,26.1,201.6-8.4,33.8-19.5,50.5-44.6,49.3-68.2-1.1,22.2-17.8,45.3-49.3,63.5-59.7,34.4-149.9,38.2-201.6,8.4-22.4-13-33.9-30.1-34.8-48.2-1,19.8,10.4,38.8,34.8,52.9h0Z"/>
    </g>
  </g>
  <path class="cls-5" d="M134.6,255.6c9.7,5.6,20.4,10.3,31.9,14.1h59.1l-136.9-81.4c-.3,25.2,14.8,49.3,45.9,67.2h0Z"/>
  <g>
    <path class="cls-3" d="M443.4,145.6h0v-52.6l-375.9,30.4v53.2c0,.2,0,.3,0,.5v.3h0c.2,24.7,15.3,48.3,45.9,66,68,39.2,186.7,34.3,265.1-11,43-24.8,65-56.7,64.9-86.8h0Z"/>
    <path class="cls-10" d="M419.6,95l-89.9,7.3v151.7c17.3-5.7,33.7-12.9,48.7-21.5,17-9.8,30.8-20.8,41.2-32.3v-105.2Z"/>
    <path class="cls-11" d="M378.5,179.6c78.5-45.3,87-113.8,19-153.1C329.5-12.7,210.8-7.8,132.4,37.5c-78.5,45.3-87,113.8-19,153.1,68,39.2,186.7,34.3,265.1-11h0Z"/>
    <path class="cls-8" d="M397.5,26.5C329.5-12.7,210.8-7.8,132.4,37.5c-78.5,45.3-87,113.8-19,153.1,2.3,1.3,4.6,2.6,7,3.8L404,30.5c-2.1-1.4-4.3-2.7-6.5-4h0Z"/>
    <path class="cls-33" d="M328.2,66.5c-2.8-1.6-5.7-3.1-8.8-4.4-7.5-3.2-16.1-1.4-21.9,4.3l-7.5,7.5c-4,4-3,10.6,1.9,13.4,0,0,0,0,0,0,17.5,10.1,15.3,27.7-4.9,39.4-20.2,11.7-50.7,12.9-68.2,2.8s-15.3-27.7,4.9-39.4c0,0,0,0,0,0,4.2-2.4,5.1-8.2,1.6-11.6l-7.7-7.7c-4.6-4.6-11.5-5.8-17.3-3-2.8,1.3-5.5,2.7-8.1,4.2-40.2,23.2-44.5,58.3-9.7,78.4s95.6,17.6,135.7-5.6c40.2-23.2,44.5-58.3,9.7-78.4Z"/>
    <polygon class="cls-2" points="246.1 69.6 187.7 74.5 191.2 116.1 249.6 111.2 253.1 152.8 311.5 147.9 304.5 64.8 246.1 69.6"/>
    <path class="cls-9" d="M382.8,35C321.9-.2,215.4,4.2,145.1,44.8c-70.3,40.6-78,102-17.1,137.2,60.9,35.2,167.3,30.8,237.7-9.9,70.3-40.6,78-102,17.1-137.2h0ZM349,162.5c-59.7,34.4-149.9,38.2-201.6,8.4s-45.2-81.9,14.5-116.4c59.7-34.4,149.9-38.2,201.6-8.4,51.7,29.8,45.2,81.9-14.5,116.4Z"/>
    <g>
      <path class="cls-31" d="M145.1,49.6c70.3-40.6,176.7-45,237.7-9.9,26.6,15.4,40.2,35.8,41.1,57.2,1-23.2-12.5-45.5-41.1-62C321.8-.2,215.4,4.2,145.1,44.8c-39.6,22.9-59.3,52.3-58.1,80,1.1-26.3,20.8-53.7,58.1-75.2h0Z"/>
      <path class="cls-32" d="M147.4,175.6c51.7,29.8,141.9,26.1,201.6-8.4,33.8-19.5,50.5-44.6,49.3-68.2-1.1,22.2-17.8,45.3-49.3,63.5-59.7,34.4-149.9,38.2-201.6,8.4-22.4-13-33.9-30.1-34.8-48.2-1,19.8,10.4,38.8,34.8,52.9Z"/>
    </g>
  </g>
</svg>