<svg id="Capa_1" enable-background="new 0 0 512 512" height="512" viewBox="0 0 512 512" width="512" xmlns="http://www.w3.org/2000/svg" xmlns:xlink="http://www.w3.org/1999/xlink"><linearGradient id="SVGID_1_" gradientUnits="userSpaceOnUse" x1="145.559" x2="183.15" y1="300.929" y2="235.82"><stop offset="0" stop-color="#00395e"/><stop offset="1" stop-color="#59acf9"/></linearGradient><linearGradient id="SVGID_00000174574231773333552360000005073618524415291790_" gradientUnits="userSpaceOnUse" x1="265.256" x2="265.256" y1="425.346" y2="66.775"><stop offset="0" stop-color="#0072bc"/><stop offset="1" stop-color="#2f97f7"/></linearGradient><linearGradient id="SVGID_00000041981752662480618710000004569617186614230175_" gradientUnits="userSpaceOnUse" x1="284.814" x2="203.913" y1="220.578" y2="80.453"><stop offset="0" stop-color="#00395e"/><stop offset=".2193" stop-color="#004a7a"/><stop offset=".5538" stop-color="#00609e"/><stop offset=".826" stop-color="#006db4"/><stop offset="1" stop-color="#0072bc"/></linearGradient><linearGradient id="lg1"><stop offset="0" stop-color="#fff"/><stop offset=".0048" stop-color="#fdfcfe"/><stop offset=".0816" stop-color="#dfd8f4"/><stop offset=".1441" stop-color="#ccc2ed"/><stop offset=".184" stop-color="#c5baeb"/><stop offset=".3593" stop-color="#fff"/><stop offset=".4057" stop-color="#f1eff8"/><stop offset=".4869" stop-color="#ded9ef"/><stop offset=".539" stop-color="#d7d1eb"/><stop offset=".645" stop-color="#fff"/><stop offset=".6818" stop-color="#dfd8f8"/><stop offset=".7226" stop-color="#c2b4f1"/><stop offset=".7558" stop-color="#b09eed"/><stop offset=".7771" stop-color="#a996eb"/><stop offset="1" stop-color="#fff"/></linearGradient><linearGradient id="SVGID_00000103238110659294961290000000267691552904153228_" gradientUnits="userSpaceOnUse" x1="136.915" x2="196.193" xlink:href="#lg1" y1="463.555" y2="364.759"/><linearGradient id="SVGID_00000100355349396049997490000000729148654819883702_" gradientUnits="userSpaceOnUse" x1="182.509" x2="136.787" xlink:href="#lg1" y1="462.969" y2="383.776"/><linearGradient id="SVGID_00000089560469281060498590000008877925293850514878_" gradientUnits="userSpaceOnUse" x1="757.182" x2="184.173" y1="522.023" y2="191.196"><stop offset="0" stop-color="#fff"/><stop offset="1" stop-color="#fff" stop-opacity="0"/></linearGradient><g><path d="m442.448 12.729-18.666-10.841c-4.094-2.68-9.564-2.607-15.576.865l-322.924 186.439c-12.681 7.322-22.96 26.963-22.96 43.87v248.088c0 9.989 3.589 16.786 9.14 19.169l7.727 4.457 8.603 5.036z" fill="url(#SVGID_1_)"/><path d="m426.719 13.488-322.924 186.44c-12.681 7.321-22.96 26.963-22.96 43.87v248.089c0 16.908 10.28 24.679 22.96 17.357l322.924-186.44c12.681-7.321 22.96-26.963 22.96-43.87v-248.088c0-16.908-10.28-24.679-22.96-17.358z" fill="url(#SVGID_00000174574231773333552360000005073618524415291790_)"/><path d="m80.834 261.087 368.845-212.953v64.185l-368.845 212.952z" fill="url(#SVGID_00000041981752662480618710000004569617186614230175_)"/><g fill="#fff"><path d="m323.145 222.09-191.844 110.761v46.62l191.844-110.761z"/><path d="m345.359 209.265v46.62l53.852-31.092v-46.62z"/></g><path d="m131.301 419.259v39.992c0 4.859 5.26 7.897 9.469 5.467l42.642-24.619c3.671-2.119 5.932-6.036 5.932-10.275v-39.993c0-4.859-5.26-7.896-9.469-5.467l-42.642 24.619c-3.67 2.121-5.932 6.037-5.932 10.276z" fill="url(#SVGID_00000103238110659294961290000000267691552904153228_)"/><path d="m175.045 416.042c0-10.842-6.592-15.825-14.723-11.13-8.131 4.694-14.723 17.289-14.723 28.13s6.592 15.825 14.723 11.13c8.132-4.694 14.723-17.289 14.723-28.13z" fill="url(#SVGID_00000100355349396049997490000000729148654819883702_)"/><path d="m396.35 261.366-191.843 110.761v17.05l191.843-110.761z" fill="#00395e"/><path d="m300.429 346.965-95.922 54.889v17.05l95.922-54.889z" fill="#00395e"/><path d="m449.679 82.986v-52.14c0-16.908-10.28-24.679-22.96-17.358l-322.925 186.44c-12.681 7.321-22.96 26.963-22.96 43.87v215.362z" fill="url(#SVGID_00000089560469281060498590000008877925293850514878_)"/></g></svg>