<?xml version="1.0" encoding="UTF-8"?>
<svg id="Layer_1" data-name="Layer 1" xmlns="http://www.w3.org/2000/svg" version="1.1" viewBox="0 0 300 300">
  <defs>
    <style>
      .cls-1 {
        opacity: .1;
      }

      .cls-2 {
        fill: #20bbd3;
        stroke-width: 0px;
      }
    </style>
  </defs>
  <g class="cls-1">
    <circle class="cls-2" cx="150" cy="150" r="150"/>
  </g>
  <path class="cls-2" d="M137.4,117.3c-18.1,0-32.7,14.7-32.7,32.7s14.7,32.7,32.7,32.7h35.3c12.5,0,22.7-10.1,22.7-22.7s-10.1-22.7-22.7-22.7-3.3.2-4.8.5c-4.8-12.1-16.6-20.7-30.4-20.7ZM172.7,192.8h-35.3c-23.6,0-42.8-19.2-42.8-42.8s19.2-42.8,42.8-42.8,28.8,8.1,36.3,20.2c17.6.6,31.7,15,31.7,32.7s-14.7,32.7-32.7,32.7Z"/>
</svg>