<?xml version="1.0" encoding="UTF-8"?>
<svg xmlns="http://www.w3.org/2000/svg" version="1.1" viewBox="0 0 2000 690.1">
  <defs>
    <style>
      .cls-1 {
        fill: #fff;
        fill-rule: evenodd;
        stroke-width: 0px;
      }

      .cls-2 {
        isolation: isolate;
      }
    </style>
  </defs>
  <g id="logo" class="cls-2">
    <g id="logo-2" data-name="logo">
      <path class="cls-1" d="M242.3,285.6v.3L96.3,84H0v469.4h109.4v-296.2l119.1,169.8h27.6l120.5-168.8v295.1h109.1V84h-95.3l-148.1,201.6ZM834.9,241.8c-21.7-36.6-64.2-57.3-117-57.3-94.2,0-164,85.9-164,190.2s68.7,190.5,164.6,190.5,94.2-20.7,116-57v45.2h101.1V195.9h-100.8v45.9ZM744.5,467.2c-45.2,0-85.3-31.8-85.3-92.5s38.7-92.5,85.6-92.5,85.6,41.1,85.6,92.5-37.3,92.5-85.9,92.5ZM1440.6,76.6l76.6,76.6,76.6-76.6L1517.2,0l-76.6,76.6ZM1816.6,467.2c-42.1,0-82.2-32.8-82.2-92.5s39.7-91.8,82.2-91.8,62.5,14.2,75.6,48h107.7c-18.3-82.8-85.6-146.4-183.6-146.4s-187.1,86.6-187.1,190.2,76.6,190.2,187.1,190.2,166.7-64.2,183.6-152.2h-107.7c-12.8,40-42.1,54.5-75.6,54.5ZM1278.1,241.8c-16.6-26.9-54.5-57.3-114.3-57.3-99.4,0-166.7,85.9-166.7,182.3s68.3,175.7,170.2,175.7,86.6-12.8,110.5-52.5v29c0,46.6-25.9,82.5-89.4,82.5s-69.4-18.3-77-50.4h-99.8c1,69.7,52.8,139.1,176.7,139.1s190.5-69.7,190.5-171.5V195.9h-100.8v45.9ZM1187.7,451.3c-48.3,0-85.3-34.2-85.3-84.9s36.9-84.2,85.6-84.2,85.6,40,85.6,84.2-37.3,84.9-85.9,84.9ZM1461.1,553.5h106.3V195.9h-106.3v357.6Z"/>
    </g>
  </g>
</svg>