<?xml version="1.0" encoding="UTF-8"?>
<svg id="wand" xmlns="http://www.w3.org/2000/svg" xmlns:xlink="http://www.w3.org/1999/xlink" version="1.1" viewBox="0 0 280 280">
  <defs>
    <style>
      .cls-1 {
        fill: url(#linear-gradient);
      }

      .cls-1, .cls-2, .cls-3 {
        stroke-width: 0px;
      }

      .cls-2 {
        fill: url(#linear-gradient-2);
      }

      .cls-2, .cls-3 {
        fill-rule: evenodd;
      }

      .cls-4 {
        opacity: .2;
      }

      .cls-3 {
        fill: #fff;
      }
    </style>
    <linearGradient id="linear-gradient" x1="41.7" y1="238.8" x2="238.6" y2="41.9" gradientUnits="userSpaceOnUse">
      <stop offset="0" stop-color="#5332fb"/>
      <stop offset="1" stop-color="#ffb462"/>
    </linearGradient>
    <linearGradient id="linear-gradient-2" x1="41.9" y1="239" x2="140.2" y2="140.6" gradientUnits="userSpaceOnUse">
      <stop offset="0" stop-color="#fff" stop-opacity=".6"/>
      <stop offset="1" stop-color="#fff"/>
    </linearGradient>
  </defs>
  <g id="btn_BG" data-name="btn BG">
    <circle class="cls-1" cx="140.2" cy="140.3" r="139.2"/>
  </g>
  <g id="Rectangle_1" data-name="Rectangle 1" class="cls-4">
    <path class="cls-2" d="M74.2,74.6L1.1,147.6c1.7,33.2,15.3,65.8,40.6,91.2s58.4,39,91.8,40.6l72.8-72.8L74.2,74.6Z"/>
  </g>
  <g id="Polygon_1" data-name="Polygon 1">
    <path class="cls-3" d="M207.1,79.4c2.7-3.8-2-8.5-5.7-5.7-40.6,29.2-81.1,29.2-121.7,0-3.8-2.7-8.5,2-5.7,5.7,25.1,34.8,28.6,69.6,10.6,104.5l-48.7,48.7c1.9,2.1,3.8,4.2,5.8,6.2s4.3,4.2,6.6,6.1l48.8-48.8c34.8-17.9,69.5-14.3,104.3,10.7,3.8,2.7,8.5-2,5.7-5.7-29.2-40.6-29.2-81.1,0-121.7Z"/>
  </g>
</svg>