<?xml version="1.0" encoding="UTF-8"?>
<svg id="Layer_1" data-name="Layer 1" xmlns="http://www.w3.org/2000/svg" xmlns:xlink="http://www.w3.org/1999/xlink" version="1.1" viewBox="0 0 569.7 569.6">
  <defs>
    <style>
      .cls-1 {
        clip-path: url(#clippath);
      }

      .cls-2 {
        fill: #121212;
        opacity: .2;
      }

      .cls-2, .cls-3 {
        stroke-width: 0px;
      }

      .cls-3, .cls-4 {
        fill: #f2f2f2;
      }
    </style>
    <clipPath id="clippath">
      <rect class="cls-3" width="569.6" height="569.6"/>
    </clipPath>
  </defs>
  <rect class="cls-4" width="569.6" height="569.6"/>
  <g class="cls-1">
    <path class="cls-2" d="M578.7,627.1c1.5-11.2-36.5-108.7-46.6-123.1-9.5-13.7-15.9-19.6-29-24.5-17.8-6.7-85.1-27.2-109.2-36.8-22.7-9.1-30.2-19.1-35.7-36.1-2.3-11.6-3.8-26-1.8-40.1,16.5-14.2,21.1-31.3,24.7-50.4,7-1.3,14.2-6.3,20.3-15.9,7.5-11.8,16.7-48.7,3.3-53.5-3.2-1.1-6.5-.6-9.6.4,6.2-17.5,11.9-42.5,10.8-68.7-1.1-25.6-13.6-38.1-22.4-43.6-6.4-24.7-31.4-40-71.2-44.6-29.8-3.4-55.5-6.1-70.3-10.9-22.3-7.2-21.4-13.6-24.9-14.3-3.7-.9-19.7,12.4-26.4,28.4-5.4,12.8-4.7,27-2.6,40.9-5.5,5.5-18,20.9-20.9,33.4-4.3,18.8-6.2,40.8,5.6,78.9-2.9-.5-5.6-.6-7.8.2-13.4,4.7-4.2,41.7,3.3,53.5,6.1,9.6,13.3,14.7,20.3,15.9,4.1,19.2,7.5,29.8,24.7,50.4,2,14.1.5,28.5-1.8,40.1-5.5,16.9-13,27-35.7,36.1-24.1,9.6-91.4,30.1-109.2,36.8-13,4.9-19.5,10.8-29,24.5-10,14.5-48.1,111.9-46.6,123.1,1.5,11,147.7,60.1,293.5,60.1s292.7-49.1,294.1-60.1Z"/>
  </g>
</svg>