<?xml version="1.0" encoding="UTF-8"?>
<svg id="Layer_1" data-name="Layer 1" xmlns="http://www.w3.org/2000/svg" version="1.1" viewBox="0 0 1122 1122">
  <defs>
    <style>
      .cls-1 {
        fill: #000;
      }

      .cls-2 {
        fill: #fff;
        stroke-width: 0px;
      }
    </style>
  </defs>
  <rect class="cls-1" width="1122" height="1122"/>
  <g>
    <g>
      <polygon class="cls-2" points="125.9 559.6 121.1 559.6 121.1 554.8 118.3 554.8 118.3 559.6 113.6 559.6 113.6 562.4 118.3 562.4 118.3 567.2 121.1 567.2 121.1 562.4 125.9 562.4 125.9 559.6"/>
      <polygon class="cls-2" points="273 559.6 268.2 559.6 268.2 554.8 265.4 554.8 265.4 559.6 260.7 559.6 260.7 562.4 265.4 562.4 265.4 567.2 268.2 567.2 268.2 562.4 273 562.4 273 559.6"/>
      <polygon class="cls-2" points="420.1 559.6 415.3 559.6 415.3 554.8 412.5 554.8 412.5 559.6 407.8 559.6 407.8 562.4 412.5 562.4 412.5 567.2 415.3 567.2 415.3 562.4 420.1 562.4 420.1 559.6"/>
      <polygon class="cls-2" points="567.2 559.6 562.4 559.6 562.4 554.8 559.6 554.8 559.6 559.6 554.8 559.6 554.8 562.4 559.6 562.4 559.6 567.2 562.4 567.2 562.4 562.4 567.2 562.4 567.2 559.6"/>
      <polygon class="cls-2" points="714.2 559.6 709.5 559.6 709.5 554.8 706.7 554.8 706.7 559.6 701.9 559.6 701.9 562.4 706.7 562.4 706.7 567.2 709.5 567.2 709.5 562.4 714.2 562.4 714.2 559.6"/>
      <polygon class="cls-2" points="861.3 559.6 856.6 559.6 856.6 554.8 853.8 554.8 853.8 559.6 849 559.6 849 562.4 853.8 562.4 853.8 567.2 856.6 567.2 856.6 562.4 861.3 562.4 861.3 559.6"/>
      <polygon class="cls-2" points="1008.4 559.6 1003.7 559.6 1003.7 554.8 1000.9 554.8 1000.9 559.6 996.1 559.6 996.1 562.4 1000.9 562.4 1000.9 567.2 1003.7 567.2 1003.7 562.4 1008.4 562.4 1008.4 559.6"/>
    </g>
    <g>
      <polygon class="cls-2" points="559.6 996.1 559.6 1000.9 554.8 1000.9 554.8 1003.7 559.6 1003.7 559.6 1008.4 562.4 1008.4 562.4 1003.7 567.2 1003.7 567.2 1000.9 562.4 1000.9 562.4 996.1 559.6 996.1"/>
      <polygon class="cls-2" points="559.6 849 559.6 853.8 554.8 853.8 554.8 856.6 559.6 856.6 559.6 861.3 562.4 861.3 562.4 856.6 567.2 856.6 567.2 853.8 562.4 853.8 562.4 849 559.6 849"/>
      <polygon class="cls-2" points="559.6 701.9 559.6 706.7 554.8 706.7 554.8 709.5 559.6 709.5 559.6 714.2 562.4 714.2 562.4 709.5 567.2 709.5 567.2 706.7 562.4 706.7 562.4 701.9 559.6 701.9"/>
      <polygon class="cls-2" points="559.6 407.8 559.6 412.5 554.8 412.5 554.8 415.3 559.6 415.3 559.6 420.1 562.4 420.1 562.4 415.3 567.2 415.3 567.2 412.5 562.4 412.5 562.4 407.8 559.6 407.8"/>
      <polygon class="cls-2" points="559.6 260.7 559.6 265.4 554.8 265.4 554.8 268.2 559.6 268.2 559.6 273 562.4 273 562.4 268.2 567.2 268.2 567.2 265.4 562.4 265.4 562.4 260.7 559.6 260.7"/>
      <polygon class="cls-2" points="559.6 113.6 559.6 118.3 554.8 118.3 554.8 121.1 559.6 121.1 559.6 125.9 562.4 125.9 562.4 121.1 567.2 121.1 567.2 118.3 562.4 118.3 562.4 113.6 559.6 113.6"/>
    </g>
    <g>
      <polygon class="cls-2" points="118.3 996.1 118.3 1000.9 113.6 1000.9 113.6 1003.7 118.3 1003.7 118.3 1008.4 121.1 1008.4 121.1 1003.7 125.9 1003.7 125.9 1000.9 121.1 1000.9 121.1 996.1 118.3 996.1"/>
      <polygon class="cls-2" points="118.3 849 118.3 853.8 113.6 853.8 113.6 856.6 118.3 856.6 118.3 861.3 121.1 861.3 121.1 856.6 125.9 856.6 125.9 853.8 121.1 853.8 121.1 849 118.3 849"/>
      <polygon class="cls-2" points="118.3 701.9 118.3 706.7 113.6 706.7 113.6 709.5 118.3 709.5 118.3 714.2 121.1 714.2 121.1 709.5 125.9 709.5 125.9 706.7 121.1 706.7 121.1 701.9 118.3 701.9"/>
      <polygon class="cls-2" points="118.3 407.8 118.3 412.5 113.6 412.5 113.6 415.3 118.3 415.3 118.3 420.1 121.1 420.1 121.1 415.3 125.9 415.3 125.9 412.5 121.1 412.5 121.1 407.8 118.3 407.8"/>
      <polygon class="cls-2" points="118.3 260.7 118.3 265.4 113.6 265.4 113.6 268.2 118.3 268.2 118.3 273 121.1 273 121.1 268.2 125.9 268.2 125.9 265.4 121.1 265.4 121.1 260.7 118.3 260.7"/>
      <polygon class="cls-2" points="118.3 113.6 118.3 118.3 113.6 118.3 113.6 121.1 118.3 121.1 118.3 125.9 121.1 125.9 121.1 121.1 125.9 121.1 125.9 118.3 121.1 118.3 121.1 113.6 118.3 113.6"/>
    </g>
    <g>
      <polygon class="cls-2" points="265.4 996.1 265.4 1000.9 260.7 1000.9 260.7 1003.7 265.4 1003.7 265.4 1008.4 268.2 1008.4 268.2 1003.7 273 1003.7 273 1000.9 268.2 1000.9 268.2 996.1 265.4 996.1"/>
      <polygon class="cls-2" points="265.4 849 265.4 853.8 260.7 853.8 260.7 856.6 265.4 856.6 265.4 861.3 268.2 861.3 268.2 856.6 273 856.6 273 853.8 268.2 853.8 268.2 849 265.4 849"/>
      <polygon class="cls-2" points="265.4 701.9 265.4 706.7 260.7 706.7 260.7 709.5 265.4 709.5 265.4 714.2 268.2 714.2 268.2 709.5 273 709.5 273 706.7 268.2 706.7 268.2 701.9 265.4 701.9"/>
      <polygon class="cls-2" points="265.4 407.8 265.4 412.5 260.7 412.5 260.7 415.3 265.4 415.3 265.4 420.1 268.2 420.1 268.2 415.3 273 415.3 273 412.5 268.2 412.5 268.2 407.8 265.4 407.8"/>
      <polygon class="cls-2" points="265.4 260.7 265.4 265.4 260.7 265.4 260.7 268.2 265.4 268.2 265.4 273 268.2 273 268.2 268.2 273 268.2 273 265.4 268.2 265.4 268.2 260.7 265.4 260.7"/>
      <polygon class="cls-2" points="265.4 113.6 265.4 118.3 260.7 118.3 260.7 121.1 265.4 121.1 265.4 125.9 268.2 125.9 268.2 121.1 273 121.1 273 118.3 268.2 118.3 268.2 113.6 265.4 113.6"/>
    </g>
    <g>
      <polygon class="cls-2" points="412.5 996.1 412.5 1000.9 407.8 1000.9 407.8 1003.7 412.5 1003.7 412.5 1008.4 415.3 1008.4 415.3 1003.7 420.1 1003.7 420.1 1000.9 415.3 1000.9 415.3 996.1 412.5 996.1"/>
      <polygon class="cls-2" points="412.5 849 412.5 853.8 407.8 853.8 407.8 856.6 412.5 856.6 412.5 861.3 415.3 861.3 415.3 856.6 420.1 856.6 420.1 853.8 415.3 853.8 415.3 849 412.5 849"/>
      <polygon class="cls-2" points="412.5 701.9 412.5 706.7 407.8 706.7 407.8 709.5 412.5 709.5 412.5 714.2 415.3 714.2 415.3 709.5 420.1 709.5 420.1 706.7 415.3 706.7 415.3 701.9 412.5 701.9"/>
      <polygon class="cls-2" points="412.5 407.8 412.5 412.5 407.8 412.5 407.8 415.3 412.5 415.3 412.5 420.1 415.3 420.1 415.3 415.3 420.1 415.3 420.1 412.5 415.3 412.5 415.3 407.8 412.5 407.8"/>
      <polygon class="cls-2" points="412.5 260.7 412.5 265.4 407.8 265.4 407.8 268.2 412.5 268.2 412.5 273 415.3 273 415.3 268.2 420.1 268.2 420.1 265.4 415.3 265.4 415.3 260.7 412.5 260.7"/>
      <polygon class="cls-2" points="412.5 113.6 412.5 118.3 407.8 118.3 407.8 121.1 412.5 121.1 412.5 125.9 415.3 125.9 415.3 121.1 420.1 121.1 420.1 118.3 415.3 118.3 415.3 113.6 412.5 113.6"/>
    </g>
    <g>
      <polygon class="cls-2" points="706.7 996.1 706.7 1000.9 701.9 1000.9 701.9 1003.7 706.7 1003.7 706.7 1008.4 709.5 1008.4 709.5 1003.7 714.2 1003.7 714.2 1000.9 709.5 1000.9 709.5 996.1 706.7 996.1"/>
      <polygon class="cls-2" points="706.7 849 706.7 853.8 701.9 853.8 701.9 856.6 706.7 856.6 706.7 861.3 709.5 861.3 709.5 856.6 714.2 856.6 714.2 853.8 709.5 853.8 709.5 849 706.7 849"/>
      <polygon class="cls-2" points="706.7 701.9 706.7 706.7 701.9 706.7 701.9 709.5 706.7 709.5 706.7 714.2 709.5 714.2 709.5 709.5 714.2 709.5 714.2 706.7 709.5 706.7 709.5 701.9 706.7 701.9"/>
      <polygon class="cls-2" points="706.7 407.8 706.7 412.5 701.9 412.5 701.9 415.3 706.7 415.3 706.7 420.1 709.5 420.1 709.5 415.3 714.2 415.3 714.2 412.5 709.5 412.5 709.5 407.8 706.7 407.8"/>
      <polygon class="cls-2" points="706.7 260.7 706.7 265.4 701.9 265.4 701.9 268.2 706.7 268.2 706.7 273 709.5 273 709.5 268.2 714.2 268.2 714.2 265.4 709.5 265.4 709.5 260.7 706.7 260.7"/>
      <polygon class="cls-2" points="706.7 113.6 706.7 118.3 701.9 118.3 701.9 121.1 706.7 121.1 706.7 125.9 709.5 125.9 709.5 121.1 714.2 121.1 714.2 118.3 709.5 118.3 709.5 113.6 706.7 113.6"/>
    </g>
    <g>
      <polygon class="cls-2" points="853.8 996.1 853.8 1000.9 849 1000.9 849 1003.7 853.8 1003.7 853.8 1008.4 856.6 1008.4 856.6 1003.7 861.3 1003.7 861.3 1000.9 856.6 1000.9 856.6 996.1 853.8 996.1"/>
      <polygon class="cls-2" points="853.8 849 853.8 853.8 849 853.8 849 856.6 853.8 856.6 853.8 861.3 856.6 861.3 856.6 856.6 861.3 856.6 861.3 853.8 856.6 853.8 856.6 849 853.8 849"/>
      <polygon class="cls-2" points="853.8 701.9 853.8 706.7 849 706.7 849 709.5 853.8 709.5 853.8 714.2 856.6 714.2 856.6 709.5 861.3 709.5 861.3 706.7 856.6 706.7 856.6 701.9 853.8 701.9"/>
      <polygon class="cls-2" points="853.8 407.8 853.8 412.5 849 412.5 849 415.3 853.8 415.3 853.8 420.1 856.6 420.1 856.6 415.3 861.3 415.3 861.3 412.5 856.6 412.5 856.6 407.8 853.8 407.8"/>
      <polygon class="cls-2" points="853.8 260.7 853.8 265.4 849 265.4 849 268.2 853.8 268.2 853.8 273 856.6 273 856.6 268.2 861.3 268.2 861.3 265.4 856.6 265.4 856.6 260.7 853.8 260.7"/>
      <polygon class="cls-2" points="853.8 113.6 853.8 118.3 849 118.3 849 121.1 853.8 121.1 853.8 125.9 856.6 125.9 856.6 121.1 861.3 121.1 861.3 118.3 856.6 118.3 856.6 113.6 853.8 113.6"/>
    </g>
    <g>
      <polygon class="cls-2" points="1000.9 996.1 1000.9 1000.9 996.1 1000.9 996.1 1003.7 1000.9 1003.7 1000.9 1008.4 1003.7 1008.4 1003.7 1003.7 1008.4 1003.7 1008.4 1000.9 1003.7 1000.9 1003.7 996.1 1000.9 996.1"/>
      <polygon class="cls-2" points="1000.9 849 1000.9 853.8 996.1 853.8 996.1 856.6 1000.9 856.6 1000.9 861.3 1003.7 861.3 1003.7 856.6 1008.4 856.6 1008.4 853.8 1003.7 853.8 1003.7 849 1000.9 849"/>
      <polygon class="cls-2" points="1000.9 701.9 1000.9 706.7 996.1 706.7 996.1 709.5 1000.9 709.5 1000.9 714.2 1003.7 714.2 1003.7 709.5 1008.4 709.5 1008.4 706.7 1003.7 706.7 1003.7 701.9 1000.9 701.9"/>
      <polygon class="cls-2" points="1000.9 407.8 1000.9 412.5 996.1 412.5 996.1 415.3 1000.9 415.3 1000.9 420.1 1003.7 420.1 1003.7 415.3 1008.4 415.3 1008.4 412.5 1003.7 412.5 1003.7 407.8 1000.9 407.8"/>
      <polygon class="cls-2" points="1000.9 260.7 1000.9 265.4 996.1 265.4 996.1 268.2 1000.9 268.2 1000.9 273 1003.7 273 1003.7 268.2 1008.4 268.2 1008.4 265.4 1003.7 265.4 1003.7 260.7 1000.9 260.7"/>
      <polygon class="cls-2" points="1000.9 113.6 1000.9 118.3 996.1 118.3 996.1 121.1 1000.9 121.1 1000.9 125.9 1003.7 125.9 1003.7 121.1 1008.4 121.1 1008.4 118.3 1003.7 118.3 1003.7 113.6 1000.9 113.6"/>
    </g>
  </g>
</svg>