<?xml version="1.0" encoding="UTF-8"?>
<svg xmlns="http://www.w3.org/2000/svg" xmlns:xlink="http://www.w3.org/1999/xlink" version="1.1" viewBox="0 0 500 500">
  <defs>
    <style>
      .cls-1 {
        fill: #231f20;
      }

      .cls-1, .cls-2, .cls-3, .cls-4, .cls-5, .cls-6, .cls-7, .cls-8, .cls-9, .cls-10, .cls-11, .cls-12, .cls-13, .cls-14, .cls-15, .cls-16, .cls-17, .cls-18, .cls-19, .cls-20, .cls-21, .cls-22, .cls-23, .cls-24, .cls-25, .cls-26, .cls-27, .cls-28, .cls-29, .cls-30, .cls-31, .cls-32, .cls-33, .cls-34, .cls-35 {
        stroke-width: 0px;
      }

      .cls-1, .cls-22, .cls-23, .cls-24, .cls-35 {
        mix-blend-mode: screen;
      }

      .cls-36 {
        clip-path: url(#clippath);
      }

      .cls-2 {
        fill: none;
      }

      .cls-3 {
        fill: url(#linear-gradient);
      }

      .cls-4 {
        fill: url(#linear-gradient-25);
      }

      .cls-5 {
        fill: url(#linear-gradient-11);
      }

      .cls-6 {
        fill: url(#linear-gradient-12);
      }

      .cls-7 {
        fill: url(#linear-gradient-13);
      }

      .cls-8 {
        fill: url(#linear-gradient-10);
      }

      .cls-9 {
        fill: url(#linear-gradient-17);
      }

      .cls-10 {
        fill: url(#linear-gradient-16);
      }

      .cls-11 {
        fill: url(#linear-gradient-19);
      }

      .cls-12 {
        fill: url(#linear-gradient-15);
      }

      .cls-13 {
        fill: url(#linear-gradient-23);
      }

      .cls-14 {
        fill: url(#linear-gradient-21);
      }

      .cls-15 {
        fill: url(#linear-gradient-18);
      }

      .cls-16 {
        fill: url(#linear-gradient-14);
      }

      .cls-17 {
        fill: url(#linear-gradient-22);
      }

      .cls-18 {
        fill: url(#linear-gradient-27);
      }

      .cls-37, .cls-21, .cls-25 {
        mix-blend-mode: multiply;
      }

      .cls-19 {
        fill: #f9f8f7;
      }

      .cls-20, .cls-35 {
        fill: #27253f;
      }

      .cls-21 {
        fill: #e9e5d9;
      }

      .cls-22 {
        fill: url(#linear-gradient-26);
      }

      .cls-23 {
        fill: url(#linear-gradient-24);
      }

      .cls-24 {
        fill: url(#linear-gradient-20);
      }

      .cls-25, .cls-34 {
        fill: #e6e7e8;
      }

      .cls-26 {
        fill: url(#linear-gradient-4);
      }

      .cls-27 {
        fill: url(#linear-gradient-2);
      }

      .cls-28 {
        fill: url(#linear-gradient-3);
      }

      .cls-29 {
        fill: url(#linear-gradient-8);
      }

      .cls-30 {
        fill: url(#linear-gradient-9);
      }

      .cls-31 {
        fill: url(#linear-gradient-7);
      }

      .cls-32 {
        fill: url(#linear-gradient-5);
      }

      .cls-33 {
        fill: url(#linear-gradient-6);
      }

      .cls-38 {
        isolation: isolate;
      }
    </style>
    <clipPath id="clippath">
      <rect class="cls-2" width="500" height="500"/>
    </clipPath>
    <linearGradient id="linear-gradient" x1="227.6" y1="113" x2="246" y2="131.4" gradientTransform="translate(94.7 -103.3) rotate(30.5)" gradientUnits="userSpaceOnUse">
      <stop offset="0" stop-color="#24c1de"/>
      <stop offset=".2" stop-color="#23badb"/>
      <stop offset=".4" stop-color="#21a7d6"/>
      <stop offset=".7" stop-color="#1d88cc"/>
      <stop offset="1" stop-color="#185ebf"/>
      <stop offset="1" stop-color="#1857bd"/>
    </linearGradient>
    <linearGradient id="linear-gradient-2" x1="50.9" y1="239.5" x2="69.2" y2="257.9" gradientUnits="userSpaceOnUse">
      <stop offset="0" stop-color="#faac69"/>
      <stop offset=".6" stop-color="#f79663"/>
      <stop offset="1" stop-color="#f05669"/>
    </linearGradient>
    <linearGradient id="linear-gradient-3" x1="286.8" y1="72.1" x2="323.5" y2="108.8" gradientUnits="userSpaceOnUse">
      <stop offset="0" stop-color="#ffd97e"/>
      <stop offset=".5" stop-color="#feca7a"/>
      <stop offset="1" stop-color="#f7946b"/>
    </linearGradient>
    <linearGradient id="linear-gradient-4" x1="105.8" y1="13" x2="124.7" y2="31.9" gradientUnits="userSpaceOnUse">
      <stop offset="0" stop-color="#e9e5d9"/>
      <stop offset="0" stop-color="#dcdcd5"/>
      <stop offset=".2" stop-color="#bec8cd"/>
      <stop offset=".4" stop-color="#abbbc7"/>
      <stop offset=".5" stop-color="#a5b7c6"/>
      <stop offset="1" stop-color="#378fac"/>
    </linearGradient>
    <linearGradient id="linear-gradient-5" x1="357.6" y1="443.5" x2="385.1" y2="471" xlink:href="#linear-gradient-2"/>
    <linearGradient id="linear-gradient-6" x1="-12.3" y1="64.5" x2="43.5" y2="64.5" gradientTransform="translate(54.3 10.6) rotate(49.3)" gradientUnits="userSpaceOnUse">
      <stop offset="0" stop-color="#ff7d6c"/>
      <stop offset=".2" stop-color="#fe786c"/>
      <stop offset=".4" stop-color="#fc6b6c"/>
      <stop offset=".6" stop-color="#f8566c"/>
      <stop offset=".8" stop-color="#f3386c"/>
      <stop offset="1" stop-color="#ed116c"/>
      <stop offset="1" stop-color="#ed0d6c"/>
    </linearGradient>
    <linearGradient id="linear-gradient-7" x1="55" y1="414.9" x2="106.4" y2="414.9" gradientTransform="translate(328.3 68.3) rotate(45)" xlink:href="#linear-gradient-2"/>
    <linearGradient id="linear-gradient-8" x1="55" y1="490.2" x2="106.4" y2="490.2" gradientTransform="translate(328.3 68.3) rotate(45)" xlink:href="#linear-gradient-2"/>
    <linearGradient id="linear-gradient-9" x1="39.5" y1="466.9" x2="121.8" y2="466.9" gradientTransform="translate(328.3 68.3) rotate(45)" xlink:href="#linear-gradient-3"/>
    <linearGradient id="linear-gradient-10" x1="39.5" y1="438.2" x2="121.8" y2="438.2" gradientTransform="translate(328.3 68.3) rotate(45)" xlink:href="#linear-gradient-3"/>
    <linearGradient id="linear-gradient-11" x1="39.5" y1="466.9" x2="121.8" y2="466.9" gradientTransform="translate(328.3 68.3) rotate(45)" xlink:href="#linear-gradient-3"/>
    <linearGradient id="linear-gradient-12" x1="39.5" y1="438.2" x2="121.8" y2="438.2" gradientTransform="translate(328.3 68.3) rotate(45)" xlink:href="#linear-gradient-3"/>
    <linearGradient id="linear-gradient-13" x1="43.9" y1="425.8" x2="117.5" y2="425.8" gradientTransform="translate(328.3 68.3) rotate(45)" xlink:href="#linear-gradient-6"/>
    <linearGradient id="linear-gradient-14" x1="43.9" y1="479.3" x2="117.5" y2="479.3" gradientTransform="translate(328.3 68.3) rotate(45)" xlink:href="#linear-gradient-3"/>
    <linearGradient id="linear-gradient-15" x1="39.5" y1="466.9" x2="121.8" y2="466.9" gradientTransform="translate(328.3 68.3) rotate(45)" xlink:href="#linear-gradient-6"/>
    <linearGradient id="linear-gradient-16" x1="39.5" y1="438.2" x2="121.8" y2="438.2" gradientTransform="translate(328.3 68.3) rotate(45)" xlink:href="#linear-gradient-3"/>
    <linearGradient id="linear-gradient-17" x1="38.7" y1="452.6" x2="122.7" y2="452.6" gradientTransform="translate(328.3 68.3) rotate(45)" xlink:href="#linear-gradient-2"/>
    <linearGradient id="linear-gradient-18" x1="454.9" y1="2.3" x2="501.8" y2="49.1" gradientTransform="translate(46.2 -181.1) rotate(22.5)" gradientUnits="userSpaceOnUse">
      <stop offset="0" stop-color="#e8ddd5"/>
      <stop offset="1" stop-color="#9c837a"/>
    </linearGradient>
    <linearGradient id="linear-gradient-19" x1="390.3" y1="161.5" x2="417.8" y2="189" xlink:href="#linear-gradient-2"/>
    <linearGradient id="linear-gradient-20" x1="-68.4" y1="435.7" x2="35.4" y2="435.7" gradientTransform="translate(-72.4 47.4) rotate(-45)" gradientUnits="userSpaceOnUse">
      <stop offset="0" stop-color="#414042"/>
      <stop offset="1" stop-color="#000"/>
    </linearGradient>
    <linearGradient id="linear-gradient-21" x1="189.6" y1="387.8" x2="203.4" y2="401.5" gradientUnits="userSpaceOnUse">
      <stop offset="0" stop-color="#3ebfb4"/>
      <stop offset=".2" stop-color="#37b8b1"/>
      <stop offset=".5" stop-color="#26a5aa"/>
      <stop offset=".9" stop-color="#09879e"/>
      <stop offset="1" stop-color="#007d9b"/>
    </linearGradient>
    <linearGradient id="linear-gradient-22" x1="422.8" y1="314.8" x2="456.9" y2="373.8" gradientTransform="translate(-114.7 411.8) rotate(-45)" gradientUnits="userSpaceOnUse">
      <stop offset="0" stop-color="#81caa1"/>
      <stop offset="1" stop-color="#00b3b3"/>
    </linearGradient>
    <linearGradient id="linear-gradient-23" x1="439.8" y1="336.6" x2="439.8" y2="353.6" gradientTransform="translate(-114.7 411.8) rotate(-45)" gradientUnits="userSpaceOnUse">
      <stop offset="0" stop-color="#feca7a"/>
      <stop offset="1" stop-color="#81caa1"/>
    </linearGradient>
    <linearGradient id="linear-gradient-24" x1="107.9" y1="452.9" x2="157.6" y2="452.9" gradientTransform="translate(-43.8 54.5) rotate(-45)" xlink:href="#linear-gradient-20"/>
    <linearGradient id="linear-gradient-25" x1="352.5" y1="294.1" x2="361.8" y2="294.1" gradientTransform="matrix(1,0,0,1,0,0)" xlink:href="#linear-gradient-6"/>
    <linearGradient id="linear-gradient-26" x1="-3.6" y1="281.5" x2="71.1" y2="281.5" gradientTransform="translate(-42.6 27.5) rotate(-45)" xlink:href="#linear-gradient-20"/>
    <linearGradient id="linear-gradient-27" x1="153.5" y1="222.5" x2="167.5" y2="222.5" xlink:href="#linear-gradient-3"/>
  </defs>
  <g class="cls-38">
    <g id="BACKGROUND_1" data-name="BACKGROUND 1">
      <g>
        <rect class="cls-20" width="500" height="500"/>
        <g class="cls-36">
          <g>
            <path class="cls-35" d="M203.5,109.9h0c0-1.8-1.5-3.2-3.2-3.2h0c1.8,0,3.2-1.5,3.2-3.2h0c0,1.8,1.5,3.2,3.2,3.2h0c-1.8,0-3.2,1.5-3.2,3.2Z"/>
            <path class="cls-35" d="M374.9,235.7h0c0-1.8-1.5-3.2-3.2-3.2h0c1.8,0,3.2-1.5,3.2-3.2h0c0,1.8,1.5,3.2,3.2,3.2h0c-1.8,0-3.2,1.5-3.2,3.2Z"/>
            <path class="cls-35" d="M333.6,295.9h0c0-1.8-1.5-3.2-3.2-3.2h0c1.8,0,3.2-1.5,3.2-3.2h0c0,1.8,1.5,3.2,3.2,3.2h0c-1.8,0-3.2,1.5-3.2,3.2Z"/>
            <path class="cls-35" d="M416.2,28.9h0c0-1.8-1.5-3.2-3.2-3.2h0c1.8,0,3.2-1.5,3.2-3.2h0c0,1.8,1.5,3.2,3.2,3.2h0c-1.8,0-3.2,1.5-3.2,3.2Z"/>
            <path class="cls-35" d="M264.6,47.2h0c0-1.8-1.5-3.2-3.2-3.2h0c1.8,0,3.2-1.5,3.2-3.2h0c0,1.8,1.5,3.2,3.2,3.2h0c-1.8,0-3.2,1.5-3.2,3.2Z"/>
            <path class="cls-35" d="M254.9,251.9h0c0-1.8-1.5-3.2-3.2-3.2h0c1.8,0,3.2-1.5,3.2-3.2h0c0,1.8,1.5,3.2,3.2,3.2h0c-1.8,0-3.2,1.5-3.2,3.2Z"/>
            <path class="cls-35" d="M151.1,268.2h0c0-1.8-1.5-3.2-3.2-3.2h0c1.8,0,3.2-1.5,3.2-3.2h0c0,1.8,1.5,3.2,3.2,3.2h0c-1.8,0-3.2,1.5-3.2,3.2Z"/>
            <path class="cls-35" d="M355.4,144.9h0c0-1.8-1.5-3.2-3.2-3.2h0c1.8,0,3.2-1.5,3.2-3.2h0c0,1.8,1.5,3.2,3.2,3.2h0c-1.8,0-3.2,1.5-3.2,3.2Z"/>
            <path class="cls-35" d="M102.4,219.5h0c0-1.8-1.5-3.2-3.2-3.2h0c1.8,0,3.2-1.5,3.2-3.2h0c0,1.8,1.5,3.2,3.2,3.2h0c-1.8,0-3.2,1.5-3.2,3.2Z"/>
            <path class="cls-35" d="M38.4,118.2h0c0-1.8-1.5-3.2-3.2-3.2h0c1.8,0,3.2-1.5,3.2-3.2h0c0,1.8,1.5,3.2,3.2,3.2h0c-1.8,0-3.2,1.5-3.2,3.2Z"/>
            <path class="cls-35" d="M240.1,181.8h0c0-3.6-2.9-6.5-6.5-6.5h0c3.6,0,6.5-2.9,6.5-6.5h0c0,3.6,2.9,6.5,6.5,6.5h0c-3.6,0-6.5,2.9-6.5,6.5Z"/>
            <path class="cls-35" d="M118.7,73.5h0c0-3.6-2.9-6.5-6.5-6.5h0c3.6,0,6.5-2.9,6.5-6.5h0c0,3.6,2.9,6.5,6.5,6.5h0c-3.6,0-6.5,2.9-6.5,6.5Z"/>
            <path class="cls-35" d="M451.2,84.6h0c0-3.6-2.9-6.5-6.5-6.5h0c3.6,0,6.5-2.9,6.5-6.5h0c0,3.6,2.9,6.5,6.5,6.5h0c-3.6,0-6.5,2.9-6.5,6.5Z"/>
            <path class="cls-35" d="M236.8,63.8h0c0-3.6-2.9-6.5-6.5-6.5h0c3.6,0,6.5-2.9,6.5-6.5h0c0,3.6,2.9,6.5,6.5,6.5h0c-3.6,0-6.5,2.9-6.5,6.5Z"/>
            <path class="cls-35" d="M391.1,68.1h0c0-3.6-2.9-6.5-6.5-6.5h0c3.6,0,6.5-2.9,6.5-6.5h0c0,3.6,2.9,6.5,6.5,6.5h0c-3.6,0-6.5,2.9-6.5,6.5Z"/>
            <path class="cls-35" d="M20.3,19.9h0c0-3.6-2.9-6.5-6.5-6.5h0c3.6,0,6.5-2.9,6.5-6.5h0c0,3.6,2.9,6.5,6.5,6.5h0c-3.6,0-6.5,2.9-6.5,6.5Z"/>
            <path class="cls-35" d="M199.7,485.5h0c0-3.6-2.9-6.5-6.5-6.5h0c3.6,0,6.5-2.9,6.5-6.5h0c0,3.6,2.9,6.5,6.5,6.5h0c-3.6,0-6.5,2.9-6.5,6.5Z"/>
            <path class="cls-35" d="M323,378.4h0c0-3.6-2.9-6.5-6.5-6.5h0c3.6,0,6.5-2.9,6.5-6.5h0c0,3.6,2.9,6.5,6.5,6.5h0c-3.6,0-6.5,2.9-6.5,6.5Z"/>
            <path class="cls-35" d="M81.6,361.9h0c0-3.6-2.9-6.5-6.5-6.5h0c3.6,0,6.5-2.9,6.5-6.5h0c0,3.6,2.9,6.5,6.5,6.5h0c-3.6,0-6.5,2.9-6.5,6.5Z"/>
            <path class="cls-35" d="M462.5,251.9h0c0-3.6-2.9-6.5-6.5-6.5h0c3.6,0,6.5-2.9,6.5-6.5h0c0,3.6,2.9,6.5,6.5,6.5h0c-3.6,0-6.5,2.9-6.5,6.5Z"/>
            <path class="cls-35" d="M484.8,464.5h0c0-3.6-2.9-6.5-6.5-6.5h0c3.6,0,6.5-2.9,6.5-6.5h0c0,3.6,2.9,6.5,6.5,6.5h0c-3.6,0-6.5,2.9-6.5,6.5Z"/>
            <path class="cls-35" d="M131.6,183.8h0c0-3.6-2.9-6.5-6.5-6.5h0c3.6,0,6.5-2.9,6.5-6.5h0c0,3.6,2.9,6.5,6.5,6.5h0c-3.6,0-6.5,2.9-6.5,6.5Z"/>
            <path class="cls-35" d="M147.8,320.1h0c0-3.6-2.9-6.5-6.5-6.5h0c3.6,0,6.5-2.9,6.5-6.5h0c0,3.6,2.9,6.5,6.5,6.5h0c-3.6,0-6.5,2.9-6.5,6.5Z"/>
            <path class="cls-35" d="M26.7,242.2h0c0-3.6-2.9-6.5-6.5-6.5h0c3.6,0,6.5-2.9,6.5-6.5h0c0,3.6,2.9,6.5,6.5,6.5h0c-3.6,0-6.5,2.9-6.5,6.5Z"/>
            <path class="cls-35" d="M177,388.2h0c0-3.6-2.9-6.5-6.5-6.5h0c3.6,0,6.5-2.9,6.5-6.5h0c0,3.6,2.9,6.5,6.5,6.5h0c-3.6,0-6.5,2.9-6.5,6.5Z"/>
            <path class="cls-35" d="M274.3,349.3h0c0-1.8-1.5-3.2-3.2-3.2h0c1.8,0,3.2-1.5,3.2-3.2h0c0,1.8,1.5,3.2,3.2,3.2h0c-1.8,0-3.2,1.5-3.2,3.2Z"/>
            <path class="cls-35" d="M436.4,155h0c0-1.8-1.5-3.2-3.2-3.2h0c1.8,0,3.2-1.5,3.2-3.2h0c0,1.8,1.5,3.2,3.2,3.2h0c-1.8,0-3.2,1.5-3.2,3.2Z"/>
            <path class="cls-35" d="M368.4,316.8h0c0-1.8-1.5-3.2-3.2-3.2h0c1.8,0,3.2-1.5,3.2-3.2h0c0,1.8,1.5,3.2,3.2,3.2h0c-1.8,0-3.2,1.5-3.2,3.2Z"/>
            <path class="cls-35" d="M405.8,464.6h0c0-1.8-1.5-3.2-3.2-3.2h0c1.8,0,3.2-1.5,3.2-3.2h0c0,1.8,1.5,3.2,3.2,3.2h0c-1.8,0-3.2,1.5-3.2,3.2Z"/>
            <path class="cls-35" d="M12.3,326.5h0c0-1.8-1.5-3.2-3.2-3.2h0c1.8,0,3.2-1.5,3.2-3.2h0c0,1.8,1.5,3.2,3.2,3.2h0c-1.8,0-3.2,1.5-3.2,3.2Z"/>
            <path class="cls-35" d="M136.1,451.8h0c0-1.8-1.5-3.2-3.2-3.2h0c1.8,0,3.2-1.5,3.2-3.2h0c0,1.8,1.5,3.2,3.2,3.2h0c-1.8,0-3.2,1.5-3.2,3.2Z"/>
            <g>
              <path class="cls-19" d="M397.6,256.5h0c0-3.6-2.9-6.5-6.5-6.5h0c3.6,0,6.5-2.9,6.5-6.5h0c0,3.6,2.9,6.5,6.5,6.5h0c-3.6,0-6.5,2.9-6.5,6.5Z"/>
              <path class="cls-19" d="M276.1,409.3h0c0-3.6-2.9-6.5-6.5-6.5h0c3.6,0,6.5-2.9,6.5-6.5h0c0,3.6,2.9,6.5,6.5,6.5h0c-3.6,0-6.5,2.9-6.5,6.5Z"/>
              <path class="cls-19" d="M145.5,496.8h0c0-3.6-2.9-6.5-6.5-6.5h0c3.6,0,6.5-2.9,6.5-6.5h0c0,3.6,2.9,6.5,6.5,6.5h0c-3.6,0-6.5,2.9-6.5,6.5Z"/>
              <path class="cls-19" d="M145.5,496.8h0c0-3.6-2.9-6.5-6.5-6.5h0c3.6,0,6.5-2.9,6.5-6.5h0c0,3.6,2.9,6.5,6.5,6.5h0c-3.6,0-6.5,2.9-6.5,6.5Z"/>
              <path class="cls-19" d="M10.7,422.2h0c0-3.6-2.9-6.5-6.5-6.5h0c3.6,0,6.5-2.9,6.5-6.5h0c0,3.6,2.9,6.5,6.5,6.5h0c-3.6,0-6.5,2.9-6.5,6.5Z"/>
              <path class="cls-19" d="M105.6,187.1h0c0-1.8-1.5-3.2-3.2-3.2h0c1.8,0,3.2-1.5,3.2-3.2h0c0,1.8,1.5,3.2,3.2,3.2h0c-1.8,0-3.2,1.5-3.2,3.2Z"/>
              <path class="cls-19" d="M358.7,384.9h0c0-1.8-1.5-3.2-3.2-3.2h0c1.8,0,3.2-1.5,3.2-3.2h0c0,1.8,1.5,3.2,3.2,3.2h0c-1.8,0-3.2,1.5-3.2,3.2Z"/>
              <path class="cls-19" d="M173.8,355.7h0c0-1.8-1.5-3.2-3.2-3.2h0c1.8,0,3.2-1.5,3.2-3.2h0c0,1.8,1.5,3.2,3.2,3.2h0c-1.8,0-3.2,1.5-3.2,3.2Z"/>
              <path class="cls-19" d="M102.4,128.7h0c0-1.8-1.5-3.2-3.2-3.2h0c1.8,0,3.2-1.5,3.2-3.2h0c0,1.8,1.5,3.2,3.2,3.2h0c-1.8,0-3.2,1.5-3.2,3.2Z"/>
              <path class="cls-19" d="M303.5,287.6h0c0-1.8-1.5-3.2-3.2-3.2h0c1.8,0,3.2-1.5,3.2-3.2h0c0,1.8,1.5,3.2,3.2,3.2h0c-1.8,0-3.2,1.5-3.2,3.2Z"/>
              <path class="cls-19" d="M313.3,329.8h0c0-1.8-1.5-3.2-3.2-3.2h0c1.8,0,3.2-1.5,3.2-3.2h0c0,1.8,1.5,3.2,3.2,3.2h0c-1.8,0-3.2,1.5-3.2,3.2Z"/>
              <path class="cls-19" d="M112.1,412.5h0c0-1.8-1.5-3.2-3.2-3.2h0c1.8,0,3.2-1.5,3.2-3.2h0c0,1.8,1.5,3.2,3.2,3.2h0c-1.8,0-3.2,1.5-3.2,3.2Z"/>
              <path class="cls-19" d="M371.6,141.6h0c0-1.8-1.5-3.2-3.2-3.2h0c1.8,0,3.2-1.5,3.2-3.2h0c0,1.8,1.5,3.2,3.2,3.2h0c-1.8,0-3.2,1.5-3.2,3.2Z"/>
              <path class="cls-19" d="M53.5,169.2h0c0-1.8-1.5-3.2-3.2-3.2h0c1.8,0,3.2-1.5,3.2-3.2h0c0,1.8,1.5,3.2,3.2,3.2h0c-1.8,0-3.2,1.5-3.2,3.2Z"/>
              <path class="cls-19" d="M391.1,17.6h0c0-1.8-1.5-3.2-3.2-3.2h0c1.8,0,3.2-1.5,3.2-3.2h0c0,1.8,1.5,3.2,3.2,3.2h0c-1.8,0-3.2,1.5-3.2,3.2Z"/>
              <path class="cls-19" d="M196.6,57.3h0c0-1.8-1.5-3.2-3.2-3.2h0c1.8,0,3.2-1.5,3.2-3.2h0c0,1.8,1.5,3.2,3.2,3.2h0c-1.8,0-3.2,1.5-3.2,3.2Z"/>
              <path class="cls-19" d="M475.4,116.4h0c0-1.8-1.5-3.2-3.2-3.2h0c1.8,0,3.2-1.5,3.2-3.2h0c0,1.8,1.5,3.2,3.2,3.2h0c-1.8,0-3.2,1.5-3.2,3.2Z"/>
              <path class="cls-19" d="M10.7,131.5h0c0-1.8-1.5-3.2-3.2-3.2h0c1.8,0,3.2-1.5,3.2-3.2h0c0,1.8,1.5,3.2,3.2,3.2h0c-1.8,0-3.2,1.5-3.2,3.2Z"/>
              <path class="cls-19" d="M148.8,28.9h0c0-1.8-1.5-3.2-3.2-3.2h0c1.8,0,3.2-1.5,3.2-3.2h0c0,1.8,1.5,3.2,3.2,3.2h0c-1.8,0-3.2,1.5-3.2,3.2Z"/>
              <path class="cls-19" d="M436.2,425.5h0c0-1.8-1.5-3.2-3.2-3.2h0c1.8,0,3.2-1.5,3.2-3.2h0c0,1.8,1.5,3.2,3.2,3.2h0c-1.8,0-3.2,1.5-3.2,3.2Z"/>
              <path class="cls-19" d="M42.5,339.6h0c0-1.8-1.5-3.2-3.2-3.2h0c1.8,0,3.2-1.5,3.2-3.2h0c0,1.8,1.5,3.2,3.2,3.2h0c-1.8,0-3.2,1.5-3.2,3.2Z"/>
              <path class="cls-19" d="M265.3,460.5h0c0-1.8-1.5-3.2-3.2-3.2h0c1.8,0,3.2-1.5,3.2-3.2h0c0,1.8,1.5,3.2,3.2,3.2h0c-1.8,0-3.2,1.5-3.2,3.2Z"/>
              <path class="cls-19" d="M478.7,409.3h0c0-1.8-1.5-3.2-3.2-3.2h0c1.8,0,3.2-1.5,3.2-3.2h0c0,1.8,1.5,3.2,3.2,3.2h0c-1.8,0-3.2,1.5-3.2,3.2Z"/>
              <path class="cls-19" d="M467.9,178.5h0c0-1.8-1.5-3.2-3.2-3.2h0c1.8,0,3.2-1.5,3.2-3.2h0c0,1.8,1.5,3.2,3.2,3.2h0c-1.8,0-3.2,1.5-3.2,3.2Z"/>
              <path class="cls-19" d="M232.2,448.6h0c0-1.8-1.5-3.2-3.2-3.2h0c1.8,0,3.2-1.5,3.2-3.2h0c0,1.8,1.5,3.2,3.2,3.2h0c-1.8,0-3.2,1.5-3.2,3.2Z"/>
              <path class="cls-19" d="M156.1,298.7h0c0-3.6-2.9-6.5-6.5-6.5h0c3.6,0,6.5-2.9,6.5-6.5h0c0,3.6,2.9,6.5,6.5,6.5h0c-3.6,0-6.5,2.9-6.5,6.5Z"/>
              <path class="cls-19" d="M160.5,151.4h0c0-3.6-2.9-6.5-6.5-6.5h0c3.6,0,6.5-2.9,6.5-6.5h0c0,3.6,2.9,6.5,6.5,6.5h0c-3.6,0-6.5,2.9-6.5,6.5Z"/>
              <path class="cls-19" d="M45.8,50.8h0c0-3.6-2.9-6.5-6.5-6.5h0c3.6,0,6.5-2.9,6.5-6.5h0c0,3.6,2.9,6.5,6.5,6.5h0c-3.6,0-6.5,2.9-6.5,6.5Z"/>
              <path class="cls-19" d="M348.9,125.4h0c0-3.6-2.9-6.5-6.5-6.5h0c3.6,0,6.5-2.9,6.5-6.5h0c0,3.6,2.9,6.5,6.5,6.5h0c-3.6,0-6.5,2.9-6.5,6.5Z"/>
              <path class="cls-19" d="M329.5,196.8h0c0-3.6-2.9-6.5-6.5-6.5h0c3.6,0,6.5-2.9,6.5-6.5h0c0,3.6,2.9,6.5,6.5,6.5h0c-3.6,0-6.5,2.9-6.5,6.5Z"/>
              <path class="cls-19" d="M112.1,316.8h0c0-3.6-2.9-6.5-6.5-6.5h0c3.6,0,6.5-2.9,6.5-6.5h0c0,3.6,2.9,6.5,6.5,6.5h0c-3.6,0-6.5,2.9-6.5,6.5Z"/>
            </g>
            <g>
              <circle class="cls-3" cx="236.8" cy="122.2" r="13" transform="translate(-29.2 137) rotate(-30.5)"/>
              <g class="cls-37">
                <path class="cls-34" d="M236.8,109.2c-2.3,0-4.4.6-6.3,1.7.6,1.2,1.6,2.3,2.8,2.9,1.1.5,2.4.7,3.6,1.1,1.2.5,2.3,1.3,2.5,2.6.2,1.2-.5,2.3-1,3.4-.5,1.1-.8,2.5,0,3.4.7.8,1.8.8,2.7,1.3,1.6.8,2.3,2.6,2.8,4.3.2.9.5,1.7.8,2.6,3-2.4,5-6,5-10.2,0-7.2-5.8-13-13-13Z"/>
                <path class="cls-34" d="M238.4,135c0-.7-.2-1.4-.6-1.9-.6-1.1-1.8-1.8-3-2-1.3-.2-2.9.2-3.8-.7-.7-.7-.8-1.8-.6-2.8.3-1,.8-1.8,1.3-2.7.4-.9.7-1.9.5-2.9-.4-1.4-2-2.1-3.4-2.3-1.4-.2-2.9,0-4.3-.5,0,0,0,0-.1,0-.2.9-.4,1.9-.4,2.9,0,7.2,5.8,13,13,13s1,0,1.6-.2Z"/>
              </g>
              <path class="cls-1" d="M223.8,122.2c0,.5,0,1,.1,1.5.5,0,1,.1,1.5.1,7.2,0,13-5.8,13-13s0-1-.1-1.5c-.5,0-1-.1-1.5-.1-7.2,0-13,5.8-13,13Z"/>
              <path class="cls-1" d="M240.1,118.9c0,3.6-2.9,6.5-6.5,6.5s-6.5-2.9-6.5-6.5,2.9-6.5,6.5-6.5,6.5,2.9,6.5,6.5Z"/>
              <path class="cls-25" d="M244.2,111.5c1.5,2.1,2.3,4.6,2.3,7.4,0,7.2-5.8,13-13,13s-5.3-.9-7.4-2.3c2.3,3.4,6.2,5.6,10.6,5.6,7.2,0,13-5.8,13-13s-2.2-8.3-5.6-10.6Z"/>
            </g>
            <g>
              <circle class="cls-27" cx="60" cy="248.7" r="13"/>
              <g class="cls-37">
                <path class="cls-34" d="M60,235.7c-2.3,0-4.4.6-6.3,1.7.6,1.2,1.6,2.3,2.8,2.9,1.1.5,2.4.7,3.6,1.1,1.2.5,2.3,1.3,2.5,2.6.2,1.2-.5,2.3-1,3.4-.5,1.1-.8,2.5,0,3.4.7.8,1.8.8,2.7,1.3,1.6.8,2.3,2.6,2.8,4.3.2.8.5,1.7.8,2.6,3-2.4,5-6,5-10.2,0-7.2-5.8-13-13-13Z"/>
                <path class="cls-34" d="M61.6,261.5c0-.7-.2-1.4-.6-1.9-.6-1.1-1.8-1.8-3-2-1.3-.2-2.9.2-3.8-.7-.7-.7-.8-1.8-.6-2.8.3-1,.8-1.8,1.3-2.7.4-.9.7-1.9.5-2.9-.4-1.4-2-2.1-3.4-2.3-1.4-.2-2.9,0-4.3-.5,0,0,0,0-.1,0-.2.9-.4,1.9-.4,2.9,0,7.2,5.8,13,13,13s1,0,1.6-.2Z"/>
              </g>
              <path class="cls-1" d="M47.1,248.7c0,.5,0,1,.1,1.5.5,0,1,.1,1.5.1,7.2,0,13-5.8,13-13s0-1-.1-1.5c-.5,0-1-.1-1.5-.1-7.2,0-13,5.8-13,13Z"/>
              <circle class="cls-1" cx="56.8" cy="245.4" r="6.5"/>
              <path class="cls-25" d="M67.4,238.1c1.5,2.1,2.3,4.6,2.3,7.4,0,7.2-5.8,13-13,13s-5.3-.9-7.4-2.3c2.3,3.4,6.2,5.6,10.6,5.6,7.2,0,13-5.8,13-13s-2.2-8.3-5.6-10.6Z"/>
            </g>
            <g>
              <circle class="cls-28" cx="305.1" cy="90.5" r="26"/>
              <circle class="cls-1" cx="301.9" cy="77.5" r="6.5"/>
              <path class="cls-1" d="M328.5,79.3c-1.9-4-4.7-7.4-8.3-9.9-1.3,1.2-2.2,2.9-2.2,4.8,0,3.6,2.9,6.5,6.5,6.5s2.9-.5,4-1.4Z"/>
              <circle class="cls-25" cx="318.1" cy="103.4" r="3.2"/>
              <circle class="cls-25" cx="308.4" cy="74.2" r="3.2"/>
              <circle class="cls-25" cx="298.6" cy="103.4" r="6.5"/>
              <circle class="cls-1" cx="298.6" cy="90.5" r="13"/>
              <path class="cls-25" d="M331.1,90.4c0-11.6-7.6-21.3-18.1-24.6-.9,2.1-1.4,4.4-1.4,6.9,0,9.9,8,17.8,17.8,17.8s1.1,0,1.6,0Z"/>
              <path class="cls-25" d="M318.9,68.5c2.5,4,4,8.7,4,13.8,0,14.3-11.6,26-26,26s-9.8-1.5-13.8-4c4.6,7.3,12.7,12.1,21.9,12.1,14.3,0,26-11.6,26-26s-4.8-17.3-12.1-21.9Z"/>
            </g>
            <g>
              <circle class="cls-26" cx="115.2" cy="22.4" r="13.3"/>
              <path class="cls-25" d="M116,20.8c0,.9-.7,1.7-1.7,1.7s-1.7-.7-1.7-1.7.7-1.7,1.7-1.7,1.7.7,1.7,1.7Z"/>
              <path class="cls-25" d="M125.3,22.4c0,.9-.7,1.7-1.7,1.7s-1.7-.7-1.7-1.7.7-1.7,1.7-1.7,1.7.7,1.7,1.7Z"/>
              <path class="cls-1" d="M123.6,27.4c0,.9-.7,1.7-1.7,1.7s-1.7-.7-1.7-1.7.7-1.7,1.7-1.7,1.7.7,1.7,1.7Z"/>
              <path class="cls-1" d="M111.9,17.4c0,.9-.7,1.7-1.7,1.7s-1.7-.7-1.7-1.7.7-1.7,1.7-1.7,1.7.7,1.7,1.7Z"/>
              <path class="cls-1" d="M108.6,29.1c0,.9-.7,1.7-1.7,1.7s-1.7-.7-1.7-1.7.7-1.7,1.7-1.7,1.7.7,1.7,1.7Z"/>
              <path class="cls-1" d="M120.3,22.4c0,.9-.7,1.7-1.7,1.7s-1.7-.7-1.7-1.7.7-1.7,1.7-1.7,1.7.7,1.7,1.7Z"/>
              <path class="cls-1" d="M115.2,12.4c0,.9-.7,1.7-1.7,1.7s-1.7-.7-1.7-1.7.7-1.7,1.7-1.7,1.7.7,1.7,1.7Z"/>
              <circle class="cls-25" cx="115.2" cy="29.1" r="3.3"/>
              <path class="cls-25" d="M111.9,20.8c0,1.8-1.5,3.3-3.3,3.3s-3.3-1.5-3.3-3.3,1.5-3.3,3.3-3.3,3.3,1.5,3.3,3.3Z"/>
              <path class="cls-25" d="M105.2,25.8c0-1.8-1.5-3.3-3.3-3.3,0,2.3.6,4.4,1.6,6.3,1-.6,1.8-1.7,1.8-2.9Z"/>
              <path class="cls-25" d="M121.9,15.8c0,1.8-1.5,3.3-3.3,3.3s-3.3-1.5-3.3-3.3,1.5-3.3,3.3-3.3,3.3,1.5,3.3,3.3Z"/>
              <path class="cls-25" d="M128.4,20.4c-.3-2.3-1.3-4.4-2.6-6.1-1.3.5-2.2,1.7-2.2,3.1s1.5,3.3,3.3,3.3,1-.1,1.5-.4Z"/>
              <path class="cls-25" d="M104.4,14.7c.6.7,1.5,1.1,2.5,1.1,1.8,0,3.3-1.5,3.3-3.3s-.3-1.5-.7-2c-2,1-3.8,2.4-5.1,4.2Z"/>
              <path class="cls-25" d="M122.9,11.5c1.5,2.2,2.4,4.8,2.4,7.6,0,7.4-6,13.3-13.3,13.3s-5.5-.9-7.6-2.4c2.4,3.5,6.4,5.7,10.9,5.7,7.4,0,13.3-6,13.3-13.3s-2.3-8.5-5.7-10.9Z"/>
            </g>
            <g>
              <circle class="cls-32" cx="371.4" cy="457.3" r="19.5"/>
              <g class="cls-37">
                <path class="cls-34" d="M371.4,437.8c-3.4,0-6.6,1-9.4,2.5.9,1.8,2.4,3.4,4.2,4.3,1.7.8,3.6,1,5.4,1.7,1.8.7,3.5,2,3.8,3.8.3,1.8-.7,3.5-1.5,5.1-.8,1.6-1.2,3.7,0,5.1,1,1.2,2.7,1.2,4.1,1.9,2.4,1.1,3.5,3.9,4.2,6.5.4,1.3.7,2.6,1.2,3.8,4.5-3.6,7.5-9,7.5-15.2,0-10.7-8.7-19.5-19.5-19.5Z"/>
                <path class="cls-34" d="M373.7,476.5c0-1-.3-2-.9-2.9-1-1.6-2.7-2.7-4.5-3-2-.3-4.3.3-5.8-1-1.1-1-1.3-2.7-.9-4.1.4-1.4,1.3-2.7,1.9-4,.7-1.3,1.1-2.9.7-4.3-.6-2.1-3-3.2-5.1-3.5-2.2-.3-4.4,0-6.5-.8,0,0-.1,0-.2,0-.3,1.4-.5,2.9-.5,4.4,0,10.7,8.7,19.5,19.5,19.5s1.6-.1,2.3-.2Z"/>
              </g>
              <path class="cls-1" d="M351.9,457.3c0,.8.1,1.5.2,2.2.7,0,1.5.2,2.2.2,10.7,0,19.5-8.7,19.5-19.5s-.1-1.5-.2-2.2c-.7,0-1.5-.2-2.2-.2-10.7,0-19.5,8.7-19.5,19.5Z"/>
              <circle class="cls-1" cx="366.5" cy="452.4" r="9.7"/>
              <path class="cls-25" d="M382.5,441.3c2.2,3.2,3.5,7,3.5,11.1,0,10.7-8.7,19.5-19.5,19.5s-7.9-1.3-11.1-3.5c3.5,5,9.3,8.4,16,8.4,10.7,0,19.5-8.7,19.5-19.5s-3.3-12.4-8.4-16Z"/>
            </g>
            <g>
              <circle class="cls-33" cx="15.6" cy="64.5" r="27.9" transform="translate(-43.5 34.3) rotate(-49.3)"/>
              <g class="cls-37">
                <path class="cls-34" d="M15.6,92.4c15.4,0,27.9-12.5,27.9-27.9s-2.6-13.4-6.8-18.3c-1.4.4-2.8,1.1-3.8,2.1-1.4,1.3-2.2,3.3-1.9,5.2.3,2.2,2,3.9,3.6,5.5,1.6,1.5,3.4,3.1,4,5.3.6,2.2-.7,4.9-3,5-1.3,0-2.4-.9-3.3-1.8-.9-1-1.5-2.1-2.6-2.9-1-.8-2.6-1.1-3.6-.4-1,.8-1.2,2.2-1,3.5.2,1.3.6,2.5.4,3.8-.3,2-2.2,3.4-4.2,3.7-2,.3-4-.2-5.8-.9-1.9-.7-3.7-1.6-5.6-2-1.8-.4-3.9-.2-5,1.3-1,1.4-.6,3.5.4,4.9,1,1.5,2.4,2.5,3.6,3.9,1.7,2,2.8,4.6,2.9,7.3,0,.8,0,1.7-.3,2.5,1.3.2,2.7.3,4.1.3Z"/>
                <path class="cls-34" d="M-4,68.9c-.4-1.8-1-3.6-1.1-5.4-.1-1.4.1-2.9,1.2-3.8.9-.8,2.3-.8,3.5-.5s2.2.9,3.3,1.4c1.3.6,2.7,1,4.2.9s2.9-.8,3.6-2.1c.9-1.5.5-3.4-.4-4.9-.9-1.5-2.3-2.5-3.7-3.6-1.1-.9-2.4-2.2-1.9-3.5.3-.7,1.1-1.1,1.8-1.4,3.9-1.2,8.5,1,10,4.8.7,1.8,1,4.2,2.9,4.9,1,.4,2.2,0,3.1-.6.9-.7,1.5-1.6,2-2.6,1.3-2.3,2.2-5,1.9-7.6-.3-2.9-2-5.5-4.1-7.6-2.1-.5-4.3-.8-6.6-.8-15.4,0-27.9,12.5-27.9,27.9s1.1,8.9,3.1,12.7c.1,0,.2,0,.3,0,1.8-.3,3.5-1.3,4.4-2.9.9-1.6.8-3.6.4-5.4Z"/>
              </g>
              <circle class="cls-1" cx="11.9" cy="55.2" r="14.9" transform="translate(-44.4 50.4) rotate(-73)"/>
              <path class="cls-1" d="M15.6,90.5c0-8.2-6.7-14.9-14.9-14.9s-6.6,1.2-9.1,3.1c4.8,8.1,13.7,13.6,23.8,13.6,0-.6.1-1.2.1-1.9Z"/>
              <path class="cls-1" d="M-5.3,46c2.7,3.3,6.9,5.5,11.5,5.5,8,0,14.6-6.4,14.8-14.3-1.8-.4-3.6-.6-5.6-.6-8.3,0-15.7,3.6-20.8,9.4Z"/>
              <path class="cls-1" d="M-12.3,64.5c0,1.8.2,3.5.5,5.2,1,.2,2.1.4,3.2.4,8.2,0,14.9-6.7,14.9-14.9s-3-10.4-7.5-12.9c-6.7,5.1-11.1,13.1-11.1,22.2Z"/>
              <path class="cls-1" d="M43.4,62.1c-.7-7.8-4.5-14.6-10.2-19.3-.5,1.5-.8,3.2-.8,4.9,0,6.9,4.7,12.7,11,14.4Z"/>
              <path class="cls-25" d="M31.8,41.8c3.3,4.6,5.2,10.1,5.2,16.2,0,15.4-12.5,27.9-27.9,27.9s-11.6-1.9-16.2-5.2c5.1,7.1,13.3,11.7,22.7,11.7,15.4,0,27.9-12.5,27.9-27.9s-4.6-17.6-11.7-22.7Z"/>
            </g>
            <g>
              <g>
                <path class="cls-31" d="M107,440.1l-36.4-36.4c8.9,1.1,17.5,5.1,24.4,12s10.8,15.5,12,24.4Z"/>
                <path class="cls-29" d="M23.7,450.7l36.4,36.4c-8.9-1.1-17.5-5.1-24.4-12s-10.8-15.5-12-24.4Z"/>
                <path class="cls-30" d="M88.5,480.4c-3.6,2.4-7.4,4.1-11.4,5.3l-52.1-52.1c1.2-4,2.9-7.9,5.3-11.4l58.2,58.2Z"/>
                <path class="cls-8" d="M100.4,468.5l-58.2-58.2c3.6-2.4,7.4-4.1,11.5-5.3l52.1,52.1c-1.2,4-2.9,7.9-5.3,11.5Z"/>
                <path class="cls-5" d="M88.5,480.4c-3.6,2.4-7.4,4.1-11.4,5.3l-52.1-52.1c1.2-4,2.9-7.9,5.3-11.4l58.2,58.2Z"/>
                <path class="cls-6" d="M100.4,468.5l-58.2-58.2c3.6-2.4,7.4-4.1,11.5-5.3l52.1,52.1c-1.2,4-2.9,7.9-5.3,11.5Z"/>
                <path class="cls-7" d="M105.7,457.1l-52.1-52.1c5.5-1.6,11.3-2.1,17-1.3l36.4,36.4c.7,5.7.3,11.5-1.3,17Z"/>
                <path class="cls-16" d="M77.1,485.7c-5.5,1.6-11.3,2-17,1.3l-36.4-36.4c-.7-5.7-.3-11.5,1.3-17l52.1,52.1Z"/>
                <path class="cls-12" d="M88.5,480.4c-3.6,2.4-7.4,4.1-11.4,5.3l-52.1-52.1c1.2-4,2.9-7.9,5.3-11.4l58.2,58.2Z"/>
                <path class="cls-10" d="M100.4,468.5l-58.2-58.2c3.6-2.4,7.4-4.1,11.5-5.3l52.1,52.1c-1.2,4-2.9,7.9-5.3,11.5Z"/>
                <path class="cls-9" d="M95.1,475.1c-2,2-4.2,3.8-6.5,5.3l-58.2-58.2c1.5-2.3,3.3-4.5,5.3-6.5,2-2,4.2-3.8,6.5-5.4l58.2,58.2c-1.5,2.3-3.3,4.5-5.4,6.5Z"/>
              </g>
              <g class="cls-37">
                <path class="cls-34" d="M95.1,415.7c-16.4-16.4-43-16.4-59.4,0s-11.5,17-12.2,26.7c2,1.1,4.1,1.8,6.4,1.8,2.9,0,5.8-1.2,7.5-3.5,2-2.7,2.1-6.3,1.9-9.7-.1-3.4-.3-6.9,1.4-9.8,1.7-2.9,6.1-4.5,8.5-2.1,1.4,1.4,1.7,3.5,1.5,5.5-.1,1.9-.6,3.9-.3,5.8.3,1.9,1.5,3.9,3.5,4.2,1.9.3,3.6-1.1,4.8-2.7,1.1-1.6,2-3.4,3.6-4.5,2.4-1.8,6-1.3,8.4.4,2.4,1.7,4,4.4,5.2,7.2,1.2,2.7,2.2,5.6,3.8,8.1,1.5,2.3,3.9,4.4,6.6,4,2.6-.4,4.3-3,4.8-5.6.5-2.6.1-5.3.3-7.9.3-4,2-7.9,4.7-10.8.9-1,1.9-1.7,2.9-2.4-1.2-1.6-2.5-3.2-4-4.7Z"/>
                <path class="cls-34" d="M90.9,461.6c-1.5,2.3-2.7,4.9-4.5,7-1.4,1.6-3.3,3-5.4,2.8-1.8-.2-3.3-1.6-4.2-3.1s-1.4-3.4-2-5.1c-.8-2-1.9-4-3.5-5.4-1.7-1.4-3.9-2.1-6-1.6-2.5.7-4.2,3.1-4.8,5.7s-.2,5.2.2,7.7c.3,2.1.3,4.9-1.8,5.8-1.1.5-2.4,0-3.4-.5-5.4-2.9-8-10.2-5.5-15.8,1.2-2.7,3.4-5.6,2.2-8.3-.7-1.5-2.3-2.4-3.9-2.6-1.6-.2-3.3.2-4.9.6-3.8,1.1-7.6,2.9-10.1,6-2.8,3.4-3.7,8-3.7,12.4,1.7,2.8,3.7,5.5,6.1,7.9,16.4,16.4,43,16.4,59.4,0,4.9-4.9,8.3-10.7,10.3-16.8-.1-.1-.2-.2-.4-.3-2.2-1.6-5.2-2.4-7.8-1.6-2.7.8-4.7,3-6.2,5.3Z"/>
              </g>
              <circle class="cls-1" cx="59.4" cy="459.2" r="22.4"/>
              <path class="cls-1" d="M93.1,417.6c-8.7,8.7-8.7,22.9,0,31.7s8.2,5.7,13,6.4c3.5-13.8-.1-29-10.8-39.9-.7.6-1.4,1.2-2.1,1.8Z"/>
              <path class="cls-1" d="M67.8,487.2c.7-6.5-1.5-13.2-6.4-18.1-8.5-8.5-22.3-8.7-31.1-.6,1.5,2.3,3.3,4.5,5.3,6.5,8.8,8.8,20.6,12.9,32.2,12.2Z"/>
              <path class="cls-1" d="M95.1,475.1c1.9-1.9,3.6-4,5-6.1-.9-1.3-1.9-2.6-3-3.8-8.7-8.7-22.9-8.7-31.7,0-5.9,5.9-7.8,14.3-5.8,21.8,12.6,1.7,25.8-2.2,35.5-11.9Z"/>
              <path class="cls-1" d="M33.2,418.3c-7.6,9-10.8,20.3-9.7,31.4,2.2-1.1,4.3-2.5,6.1-4.3,7.3-7.3,8.5-18.5,3.5-27Z"/>
            </g>
            <g>
              <circle class="cls-15" cx="478.4" cy="25.7" r="33.1" transform="translate(26.6 185) rotate(-22.5)"/>
              <path class="cls-25" d="M482.5,13.3c0,2.3-1.9,4.1-4.1,4.1s-4.1-1.9-4.1-4.1,1.9-4.1,4.1-4.1,4.1,1.9,4.1,4.1Z"/>
              <path class="cls-25" d="M503.2,25.7c0,2.3-1.9,4.1-4.1,4.1s-4.1-1.9-4.1-4.1,1.9-4.1,4.1-4.1,4.1,1.9,4.1,4.1Z"/>
              <path class="cls-1" d="M499.1,38.1c0,2.3-1.9,4.1-4.1,4.1s-4.1-1.9-4.1-4.1,1.9-4.1,4.1-4.1,4.1,1.9,4.1,4.1Z"/>
              <path class="cls-1" d="M470.1,13.3c0,2.3-1.9,4.1-4.1,4.1s-4.1-1.9-4.1-4.1,1.9-4.1,4.1-4.1,4.1,1.9,4.1,4.1Z"/>
              <path class="cls-1" d="M461.8,42.2c0,2.3-1.9,4.1-4.1,4.1s-4.1-1.9-4.1-4.1,1.9-4.1,4.1-4.1,4.1,1.9,4.1,4.1Z"/>
              <path class="cls-1" d="M490.8,25.7c0,2.3-1.9,4.1-4.1,4.1s-4.1-1.9-4.1-4.1,1.9-4.1,4.1-4.1,4.1,1.9,4.1,4.1Z"/>
              <path class="cls-1" d="M478.4.9c0,2.3-1.9,4.1-4.1,4.1s-4.1-1.9-4.1-4.1,1.9-4.1,4.1-4.1,4.1,1.9,4.1,4.1Z"/>
              <circle class="cls-25" cx="478.4" cy="42.2" r="8.3" transform="translate(110.2 350.6) rotate(-45)"/>
              <circle class="cls-25" cx="461.8" cy="21.5" r="8.3"/>
              <path class="cls-25" d="M453.5,34c0-4.6-3.7-8.3-8.3-8.3,0,5.6,1.4,10.9,3.9,15.5,2.6-1.4,4.4-4.1,4.4-7.3Z"/>
              <circle class="cls-25" cx="486.6" cy="9.1" r="8.3"/>
              <path class="cls-25" d="M511,20.6c-.9-5.6-3.1-10.8-6.5-15.1-3.2,1.1-5.5,4.2-5.5,7.8s3.7,8.3,8.3,8.3,2.6-.3,3.7-.9Z"/>
              <path class="cls-25" d="M451.5,6.4c1.5,1.7,3.7,2.8,6.1,2.8,4.6,0,8.3-3.7,8.3-8.3s-.7-3.7-1.8-5.1c-5.1,2.4-9.4,6-12.7,10.5Z"/>
              <path class="cls-25" d="M497.3-1.5c3.7,5.4,5.9,11.9,5.9,18.9,0,18.3-14.8,33.1-33.1,33.1s-13.5-2.2-18.9-5.9c6,8.6,15.9,14.2,27.2,14.2,18.3,0,33.1-14.8,33.1-33.1s-5.6-21.2-14.2-27.2Z"/>
            </g>
            <g>
              <circle class="cls-11" cx="404.1" cy="175.3" r="19.5"/>
              <g class="cls-37">
                <path class="cls-34" d="M404.1,155.8c-3.4,0-6.6,1-9.4,2.5.9,1.8,2.4,3.4,4.2,4.3,1.7.8,3.6,1,5.4,1.7,1.8.7,3.5,2,3.8,3.8.3,1.8-.7,3.5-1.5,5.1-.8,1.6-1.2,3.7,0,5.1,1,1.2,2.7,1.2,4.1,1.9,2.4,1.1,3.5,3.9,4.2,6.5.4,1.3.7,2.6,1.2,3.8,4.5-3.6,7.5-9,7.5-15.3,0-10.7-8.7-19.5-19.5-19.5Z"/>
                <path class="cls-34" d="M406.4,194.5c0-1-.3-2-.9-2.9-1-1.6-2.7-2.7-4.5-3-2-.3-4.3.3-5.8-1-1.1-1-1.3-2.7-.9-4.1.4-1.4,1.3-2.7,1.9-4,.7-1.3,1.1-2.9.7-4.3-.6-2.1-3-3.2-5.1-3.5-2.2-.3-4.4,0-6.5-.8,0,0-.1,0-.2,0-.3,1.4-.5,2.9-.5,4.4,0,10.7,8.7,19.5,19.5,19.5s1.6-.1,2.3-.2Z"/>
              </g>
              <path class="cls-1" d="M384.6,175.3c0,.8.1,1.5.2,2.2.7,0,1.5.2,2.2.2,10.7,0,19.5-8.7,19.5-19.5s-.1-1.5-.2-2.2c-.7,0-1.5-.2-2.2-.2-10.7,0-19.5,8.7-19.5,19.5Z"/>
              <circle class="cls-1" cx="399.2" cy="170.4" r="9.7" transform="translate(-3.6 332.2) rotate(-45)"/>
              <path class="cls-25" d="M415.2,159.3c2.2,3.2,3.5,7,3.5,11.1,0,10.7-8.7,19.5-19.5,19.5s-7.9-1.3-11.1-3.5c3.5,5,9.3,8.4,16,8.4,10.7,0,19.5-8.7,19.5-19.5s-3.3-12.4-8.4-16Z"/>
            </g>
            <g>
              <path class="cls-24" d="M269.9,339.6l-64.2,64.2c-5.1,5.1-13.3,5.1-18.4,0h0c-5.1-5.1-5.1-13.3,0-18.4l64.2-64.2,18.4,18.4Z"/>
              <circle class="cls-14" cx="196.5" cy="394.7" r="9.7"/>
              <path class="cls-25" d="M194.2,385.2c1.7.4,3.3,1.2,4.6,2.5,3.8,3.8,3.8,10,0,13.8-1.3,1.3-2.9,2.1-4.6,2.5,3.2.8,6.7,0,9.2-2.5,3.8-3.8,3.8-10,0-13.8s-6-3.3-9.2-2.5Z"/>
            </g>
            <path class="cls-35" d="M235.4,368.7h0c0-1.8-1.5-3.2-3.2-3.2h0c1.8,0,3.2-1.5,3.2-3.2h0c0,1.8,1.5,3.2,3.2,3.2h0c-1.8,0-3.2,1.5-3.2,3.2Z"/>
            <g>
              <circle class="cls-17" cx="439.8" cy="344.2" r="34.1"/>
              <g class="cls-37">
                <path class="cls-34" d="M463.9,320.1c-13.3-13.3-34.9-13.3-48.2,0-6,6-9.3,13.8-9.9,21.7,1.6.9,3.3,1.4,5.2,1.5,2.3,0,4.7-.9,6.1-2.8,1.6-2.2,1.7-5.1,1.6-7.9-.1-2.7-.2-5.6,1.1-8,1.4-2.4,4.9-3.6,6.9-1.7,1.1,1.1,1.4,2.8,1.2,4.4-.1,1.6-.5,3.2-.3,4.7.2,1.6,1.2,3.2,2.8,3.4,1.5.2,3-.9,3.9-2.2.9-1.3,1.6-2.7,2.9-3.7,2-1.4,4.8-1,6.8.4,2,1.4,3.3,3.6,4.2,5.8,1,2.2,1.8,4.5,3.1,6.6,1.2,1.9,3.2,3.5,5.4,3.2,2.1-.3,3.5-2.5,3.9-4.6.4-2.1.1-4.3.3-6.4.2-3.2,1.6-6.4,3.8-8.8.7-.8,1.5-1.4,2.4-1.9-1-1.3-2-2.6-3.2-3.8Z"/>
                <path class="cls-34" d="M460.5,357.3c-1.2,1.9-2.2,3.9-3.7,5.6-1.1,1.3-2.7,2.4-4.3,2.3-1.5-.1-2.7-1.3-3.4-2.5s-1.1-2.7-1.7-4.1c-.6-1.6-1.5-3.2-2.8-4.3-1.3-1.1-3.2-1.7-4.9-1.3-2,.6-3.4,2.5-3.9,4.6-.5,2.1-.2,4.2.1,6.3.2,1.7.2,4-1.4,4.7-.9.4-1.9,0-2.8-.4-4.4-2.3-6.5-8.3-4.5-12.8,1-2.2,2.8-4.5,1.8-6.7-.5-1.2-1.9-2-3.2-2.1-1.3-.2-2.7.1-3.9.5-3.1.9-6.2,2.4-8.2,4.9-2.3,2.8-3,6.5-3,10.1,1.4,2.3,3,4.4,5,6.4,13.3,13.3,34.9,13.3,48.2,0,4-4,6.7-8.7,8.3-13.7-.1,0-.2-.2-.3-.3-1.8-1.3-4.2-1.9-6.3-1.3-2.2.6-3.8,2.4-5,4.3Z"/>
              </g>
              <circle class="cls-1" cx="434.9" cy="355.4" r="18.2"/>
              <path class="cls-1" d="M462.2,321.7c-7.1,7.1-7.1,18.6,0,25.7,3,3,6.7,4.7,10.5,5.2,2.8-11.2,0-23.5-8.8-32.3-.6.5-1.2.9-1.7,1.5Z"/>
              <path class="cls-1" d="M441.8,378.2c.5-5.2-1.2-10.7-5.2-14.7-6.9-6.9-18.1-7.1-25.2-.5,1.2,1.9,2.7,3.6,4.3,5.3,7.2,7.2,16.7,10.4,26.1,9.9Z"/>
              <path class="cls-1" d="M463.9,368.3c1.5-1.5,2.9-3.2,4.1-4.9-.7-1.1-1.5-2.1-2.5-3.1-7.1-7.1-18.6-7.1-25.7,0-4.8,4.8-6.3,11.6-4.7,17.6,10.2,1.4,20.9-1.8,28.8-9.6Z"/>
              <path class="cls-1" d="M413.7,322.3c-6.1,7.3-8.8,16.5-7.8,25.4,1.8-.9,3.5-2,5-3.5,5.9-5.9,6.9-15,2.9-21.9Z"/>
              <path class="cls-25" d="M434.1,310.6c6.8,1.1,13.3,4.3,18.5,9.5,13.3,13.3,13.3,34.9,0,48.2-5.2,5.2-11.7,8.4-18.5,9.5,10.5,1.7,21.6-1.4,29.7-9.5,13.3-13.3,13.3-34.9,0-48.2-8.1-8.1-19.2-11.2-29.7-9.5Z"/>
              <path class="cls-13" d="M457.8,315.3c1,.7,2.1,1.4,3,2.1,4.5-2.9,7.7-4.1,8.7-3s-.1,4.2-3,8.7c-4.2,6.6-12.2,16.1-22,25.9-9.8,9.8-19.2,17.7-25.9,22-4.5,2.9-7.6,4.1-8.7,3-1.1-1.1.1-4.2,3-8.7-.8-1-1.5-2-2.1-3-9.5,11.9-14.5,20.8-12.2,23.1s11.2-2.7,23.1-12.2c7.4-5.9,15.9-13.6,24.7-22.3,8.7-8.7,16.4-17.3,22.3-24.7,9.5-11.9,14.5-20.8,12.2-23.1s-11.2,2.7-23.1,12.2Z"/>
            </g>
            <g>
              <g>
                <path class="cls-23" d="M392.3,267.8l-30.7,30.7c-2.4,2.4-6.4,2.4-8.8,0h0c-2.4-2.4-2.4-6.4,0-8.8l30.7-30.7,8.8,8.8Z"/>
                <path class="cls-4" d="M360.5,290.8c1.8,1.8,1.8,4.8,0,6.6-1.8,1.8-4.8,1.8-6.6,0-1.8-1.8-1.8-4.8,0-6.6s4.8-1.8,6.6,0Z"/>
                <path class="cls-25" d="M356.1,289.6c.8.2,1.6.6,2.2,1.2,1.8,1.8,1.8,4.8,0,6.6-.6.6-1.4,1-2.2,1.2,1.5.4,3.2,0,4.4-1.2,1.8-1.8,1.8-4.8,0-6.6s-2.9-1.6-4.4-1.2Z"/>
              </g>
              <g>
                <path class="cls-21" d="M358.5,292.2c0,.3-.2.5-.5.5s-.5-.2-.5-.5.2-.5.5-.5.5.2.5.5Z"/>
                <path class="cls-21" d="M359.9,295c0,.3-.2.5-.5.5s-.5-.2-.5-.5.2-.5.5-.5.5.2.5.5Z"/>
                <path class="cls-21" d="M356.4,294c0,.6-.5,1-1,1s-1-.5-1-1,.5-1,1-1,1,.5,1,1Z"/>
              </g>
            </g>
            <path class="cls-21" d="M199.6,389.3c0,.8-.7,1.5-1.5,1.5s-1.5-.7-1.5-1.5.7-1.5,1.5-1.5,1.5.7,1.5,1.5Z"/>
            <path class="cls-21" d="M203.9,397.3c0,.8-.7,1.5-1.5,1.5s-1.5-.7-1.5-1.5.7-1.5,1.5-1.5,1.5.7,1.5,1.5Z"/>
            <path class="cls-21" d="M193.9,394.4c0,1.6-1.3,2.9-2.9,2.9s-2.9-1.3-2.9-2.9,1.3-2.9,2.9-2.9,2.9,1.3,2.9,2.9Z"/>
            <g>
              <g>
                <path class="cls-22" d="M213.3,182.9l-46.2,46.2c-3.6,3.6-9.6,3.6-13.2,0h0c-3.6-3.6-3.6-9.6,0-13.2l46.2-46.2,13.2,13.2Z"/>
                <path class="cls-18" d="M165.5,217.6c2.7,2.7,2.7,7.2,0,9.9-2.7,2.7-7.2,2.7-9.9,0-2.7-2.7-2.7-7.2,0-9.9,2.7-2.7,7.2-2.7,9.9,0Z"/>
                <path class="cls-25" d="M158.9,215.7c1.2.3,2.4.9,3.3,1.8,2.7,2.7,2.7,7.2,0,9.9-.9.9-2.1,1.5-3.3,1.8,2.3.6,4.8,0,6.6-1.8,2.7-2.7,2.7-7.2,0-9.9-1.8-1.8-4.3-2.4-6.6-1.8Z"/>
              </g>
              <circle class="cls-21" cx="162.9" cy="217.6" r="1"/>
              <path class="cls-21" d="M165.8,223.9c0,.6-.5,1-1,1s-1-.5-1-1,.5-1,1-1,1,.5,1,1Z"/>
              <path class="cls-21" d="M159.6,222c0,1.1-.9,1.9-1.9,1.9s-1.9-.9-1.9-1.9.9-1.9,1.9-1.9,1.9.9,1.9,1.9Z"/>
            </g>
          </g>
        </g>
      </g>
    </g>
  </g>
</svg>