<?xml version="1.0" encoding="UTF-8"?>
<svg id="Layer_1" data-name="Layer 1" xmlns="http://www.w3.org/2000/svg" xmlns:xlink="http://www.w3.org/1999/xlink" version="1.1" viewBox="0 0 1700 1700">
  <defs>
    <style>
      .cls-1 {
        fill: url(#Sky_21-72);
      }

      .cls-1, .cls-2, .cls-3, .cls-4, .cls-5, .cls-6, .cls-7, .cls-8, .cls-9, .cls-10, .cls-11, .cls-12, .cls-13, .cls-14, .cls-15, .cls-16, .cls-17, .cls-18, .cls-19, .cls-20, .cls-21, .cls-22, .cls-23, .cls-24, .cls-25, .cls-26, .cls-27, .cls-28, .cls-29, .cls-30, .cls-31, .cls-32, .cls-33, .cls-34, .cls-35, .cls-36, .cls-37, .cls-38, .cls-39, .cls-40, .cls-41, .cls-42, .cls-43, .cls-44, .cls-45, .cls-46, .cls-47, .cls-48, .cls-49, .cls-50, .cls-51, .cls-52, .cls-53, .cls-54, .cls-55, .cls-56, .cls-57, .cls-58, .cls-59, .cls-60, .cls-61, .cls-62, .cls-63, .cls-64, .cls-65, .cls-66, .cls-67, .cls-68, .cls-69, .cls-70, .cls-71, .cls-72 {
        fill-rule: evenodd;
        stroke-width: 0px;
      }

      .cls-2 {
        fill: url(#Sky_21-71);
      }

      .cls-3 {
        fill: url(#Sky_21-70);
      }

      .cls-4 {
        fill: url(#Sky_21-16);
      }

      .cls-5 {
        fill: url(#Sky_21-15);
      }

      .cls-6 {
        fill: url(#Sky_21-12);
      }

      .cls-7 {
        fill: url(#Sky_21-29);
      }

      .cls-8 {
        fill: url(#Sky_21-28);
      }

      .cls-9 {
        fill: url(#Sky_21-13);
      }

      .cls-10 {
        fill: url(#Sky_21-10);
      }

      .cls-11 {
        fill: url(#Sky_21-11);
      }

      .cls-12 {
        fill: url(#Sky_21-27);
      }

      .cls-13 {
        fill: url(#Sky_21-14);
      }

      .cls-14 {
        fill: url(#Sky_21-61);
      }

      .cls-15 {
        fill: url(#Sky_21-64);
      }

      .cls-16 {
        fill: url(#Sky_21-63);
      }

      .cls-17 {
        fill: url(#Sky_21-60);
      }

      .cls-18 {
        fill: url(#Sky_21-65);
      }

      .cls-19 {
        fill: url(#Sky_21-62);
      }

      .cls-20 {
        fill: url(#Sky_21-18);
      }

      .cls-21 {
        fill: url(#Sky_21-17);
      }

      .cls-22 {
        fill: url(#Sky_21-49);
      }

      .cls-23 {
        fill: url(#Sky_21-48);
      }

      .cls-24 {
        fill: url(#Sky_21-46);
      }

      .cls-25 {
        fill: url(#Sky_21-47);
      }

      .cls-26 {
        fill: url(#Sky_21-58);
      }

      .cls-27 {
        fill: url(#Sky_21-59);
      }

      .cls-28 {
        fill: url(#Sky_21-30);
      }

      .cls-29 {
        fill: url(#Sky_21-57);
      }

      .cls-30 {
        fill: url(#Sky_21-56);
      }

      .cls-31 {
        fill: url(#Sky_21-53);
      }

      .cls-32 {
        fill: url(#Sky_21-37);
      }

      .cls-33 {
        fill: url(#Sky_21-38);
      }

      .cls-34 {
        fill: url(#Sky_21-36);
      }

      .cls-35 {
        fill: url(#Sky_21-52);
      }

      .cls-36 {
        fill: url(#Sky_21-54);
      }

      .cls-37 {
        fill: url(#Sky_21-55);
      }

      .cls-38 {
        fill: url(#Sky_21-34);
      }

      .cls-39 {
        fill: url(#Sky_21-32);
      }

      .cls-40 {
        fill: url(#Sky_21-33);
      }

      .cls-41 {
        fill: url(#Sky_21-35);
      }

      .cls-42 {
        fill: url(#Sky_21-31);
      }

      .cls-43 {
        fill: url(#Sky_21-67);
      }

      .cls-44 {
        fill: url(#Sky_21-69);
      }

      .cls-45 {
        fill: url(#Sky_21-68);
      }

      .cls-46 {
        fill: url(#Sky_21-66);
      }

      .cls-47 {
        fill: url(#Sky_21-43);
      }

      .cls-48 {
        fill: url(#Sky_21-44);
      }

      .cls-49 {
        fill: url(#Sky_21-42);
      }

      .cls-50 {
        fill: url(#Sky_21-41);
      }

      .cls-51 {
        fill: url(#Sky_21-45);
      }

      .cls-52 {
        fill: url(#Sky_21-40);
      }

      .cls-53 {
        fill: url(#Sky_21-50);
      }

      .cls-54 {
        fill: url(#Sky_21-39);
      }

      .cls-55 {
        fill: url(#Sky_21-51);
      }

      .cls-56 {
        fill: url(#Sky_21-26);
      }

      .cls-57 {
        fill: url(#Sky_21-25);
      }

      .cls-58 {
        fill: url(#Sky_21-23);
      }

      .cls-59 {
        fill: url(#Sky_21-24);
      }

      .cls-60 {
        fill: url(#Sky_21-21);
      }

      .cls-61 {
        fill: url(#Sky_21-20);
      }

      .cls-62 {
        fill: url(#Sky_21-22);
      }

      .cls-63 {
        fill: url(#Sky_21-19);
      }

      .cls-64 {
        fill: url(#Sky_21-8);
      }

      .cls-65 {
        fill: url(#Sky_21-7);
      }

      .cls-66 {
        fill: url(#Sky_21-9);
      }

      .cls-67 {
        fill: url(#Sky_21-3);
      }

      .cls-68 {
        fill: url(#Sky_21-2);
      }

      .cls-69 {
        fill: url(#Sky_21-5);
      }

      .cls-70 {
        fill: url(#Sky_21-6);
      }

      .cls-71 {
        fill: url(#Sky_21-4);
      }

      .cls-72 {
        fill: url(#Sky_21);
      }
    </style>
    <linearGradient id="Sky_21" data-name="Sky 21" x1="-24.6" y1="1329.4" x2="23.3" y2="1329.4" gradientUnits="userSpaceOnUse">
      <stop offset="0" stop-color="#ffeab7"/>
      <stop offset="0" stop-color="#f7e7ba"/>
      <stop offset=".2" stop-color="#e3e0c5"/>
      <stop offset=".3" stop-color="#c3d4d6"/>
      <stop offset=".5" stop-color="#9dc7ea"/>
      <stop offset=".6" stop-color="#97bde4"/>
      <stop offset=".8" stop-color="#88a3d4"/>
      <stop offset="1" stop-color="#7b8dc7"/>
    </linearGradient>
    <linearGradient id="Sky_21-2" data-name="Sky 21" y1="1345.3" x2="72.1" y2="1345.3" xlink:href="#Sky_21"/>
    <linearGradient id="Sky_21-3" data-name="Sky 21" y1="1363.3" x2="120.6" y2="1363.3" xlink:href="#Sky_21"/>
    <linearGradient id="Sky_21-4" data-name="Sky 21" y1="1383.8" x2="169.1" y2="1383.8" xlink:href="#Sky_21"/>
    <linearGradient id="Sky_21-5" data-name="Sky 21" y1="1407.5" x2="217.6" y2="1407.5" xlink:href="#Sky_21"/>
    <linearGradient id="Sky_21-6" data-name="Sky 21" y1="1435.1" x2="266.1" y2="1435.1" xlink:href="#Sky_21"/>
    <linearGradient id="Sky_21-7" data-name="Sky 21" y1="1467.9" x2="314.9" y2="1467.9" xlink:href="#Sky_21"/>
    <linearGradient id="Sky_21-8" data-name="Sky 21" y1="1507.1" x2="363.4" y2="1507.1" xlink:href="#Sky_21"/>
    <linearGradient id="Sky_21-9" data-name="Sky 21" y1="1519.1" x2="411.9" y2="1519.1" xlink:href="#Sky_21"/>
    <linearGradient id="Sky_21-10" data-name="Sky 21" x1="41.1" y1="1519.1" x2="460.4" y2="1519.1" xlink:href="#Sky_21"/>
    <linearGradient id="Sky_21-11" data-name="Sky 21" x1="130.7" y1="1519.1" x2="508.9" y2="1519.1" xlink:href="#Sky_21"/>
    <linearGradient id="Sky_21-12" data-name="Sky 21" x1="220.5" y1="1519.1" x2="557.7" y2="1519.1" xlink:href="#Sky_21"/>
    <linearGradient id="Sky_21-13" data-name="Sky 21" x1="310.4" y1="1519.1" x2="606.2" y2="1519.1" xlink:href="#Sky_21"/>
    <linearGradient id="Sky_21-14" data-name="Sky 21" x1="400.3" y1="1519.1" x2="654.7" y2="1519.1" xlink:href="#Sky_21"/>
    <linearGradient id="Sky_21-15" data-name="Sky 21" x1="489.8" y1="1519.1" x2="703.2" y2="1519.1" xlink:href="#Sky_21"/>
    <linearGradient id="Sky_21-16" data-name="Sky 21" x1="579.7" y1="1519.1" x2="751.7" y2="1519.1" xlink:href="#Sky_21"/>
    <linearGradient id="Sky_21-17" data-name="Sky 21" x1="669.6" y1="1519.1" x2="800.5" y2="1519.1" xlink:href="#Sky_21"/>
    <linearGradient id="Sky_21-18" data-name="Sky 21" x1="759.4" y1="1519.1" x2="849.3" y2="1519.1" xlink:href="#Sky_21"/>
    <linearGradient id="Sky_21-19" data-name="Sky 21" x1="849" y1="1519.1" x2="938.9" y2="1519.1" xlink:href="#Sky_21"/>
    <linearGradient id="Sky_21-20" data-name="Sky 21" x1="897.5" y1="1519.1" x2="1028.7" y2="1519.1" xlink:href="#Sky_21"/>
    <linearGradient id="Sky_21-21" data-name="Sky 21" x1="946" y1="1519.1" x2="1118.6" y2="1519.1" xlink:href="#Sky_21"/>
    <linearGradient id="Sky_21-22" data-name="Sky 21" x1="994.5" y1="1519.1" x2="1208.5" y2="1519.1" xlink:href="#Sky_21"/>
    <linearGradient id="Sky_21-23" data-name="Sky 21" x1="1043.3" y1="1519.1" x2="1298" y2="1519.1" xlink:href="#Sky_21"/>
    <linearGradient id="Sky_21-24" data-name="Sky 21" x1="1091.4" y1="1519.1" x2="1387.9" y2="1519.1" xlink:href="#Sky_21"/>
    <linearGradient id="Sky_21-25" data-name="Sky 21" x1="1140.3" y1="1519.1" x2="1477.8" y2="1519.1" xlink:href="#Sky_21"/>
    <linearGradient id="Sky_21-26" data-name="Sky 21" x1="1188.7" y1="1519.1" x2="1567.6" y2="1519.1" xlink:href="#Sky_21"/>
    <linearGradient id="Sky_21-27" data-name="Sky 21" x1="1237.2" y1="1519.1" x2="1657.5" y2="1519.1" xlink:href="#Sky_21"/>
    <linearGradient id="Sky_21-28" data-name="Sky 21" x1="1286.1" y1="1519.1" x2="1723.2" y2="1519.1" xlink:href="#Sky_21"/>
    <linearGradient id="Sky_21-29" data-name="Sky 21" x1="1334.5" y1="1507.3" x2="1723.2" y2="1507.3" xlink:href="#Sky_21"/>
    <linearGradient id="Sky_21-30" data-name="Sky 21" x1="1383" y1="1468.1" x2="1723.2" y2="1468.1" xlink:href="#Sky_21"/>
    <linearGradient id="Sky_21-31" data-name="Sky 21" x1="1431.5" y1="1435.4" x2="1723.2" y2="1435.4" xlink:href="#Sky_21"/>
    <linearGradient id="Sky_21-32" data-name="Sky 21" x1="1480" y1="1407.7" x2="1723.2" y2="1407.7" xlink:href="#Sky_21"/>
    <linearGradient id="Sky_21-33" data-name="Sky 21" x1="1528.5" y1="1384.1" x2="1723.2" y2="1384.1" xlink:href="#Sky_21"/>
    <linearGradient id="Sky_21-34" data-name="Sky 21" x1="1577.3" y1="1363.5" x2="1723.2" y2="1363.5" xlink:href="#Sky_21"/>
    <linearGradient id="Sky_21-35" data-name="Sky 21" x1="1625.8" y1="1345.5" x2="1723.2" y2="1345.5" xlink:href="#Sky_21"/>
    <linearGradient id="Sky_21-36" data-name="Sky 21" x1="1674.3" y1="1329.7" x2="1723.2" y2="1329.7" xlink:href="#Sky_21"/>
    <linearGradient id="Sky_21-37" data-name="Sky 21" y1="989" y2="989" gradientTransform="translate(0 4042.2) scale(1 -2.8)" xlink:href="#Sky_21"/>
    <linearGradient id="Sky_21-38" data-name="Sky 21" y1="1007.7" x2="72.1" y2="1007.7" gradientTransform="translate(0 4042.2) scale(1 -2.8)" xlink:href="#Sky_21"/>
    <linearGradient id="Sky_21-39" data-name="Sky 21" y1="1028.8" x2="120.6" y2="1028.8" gradientTransform="translate(0 4042.2) scale(1 -2.8)" xlink:href="#Sky_21"/>
    <linearGradient id="Sky_21-40" data-name="Sky 21" y1="1052.9" x2="169.1" y2="1052.9" gradientTransform="translate(0 4042.2) scale(1 -2.8)" xlink:href="#Sky_21"/>
    <linearGradient id="Sky_21-41" data-name="Sky 21" y1="1080.7" x2="217.6" y2="1080.7" gradientTransform="translate(0 4042.2) scale(1 -2.8)" xlink:href="#Sky_21"/>
    <linearGradient id="Sky_21-42" data-name="Sky 21" y1="1113.2" x2="266.1" y2="1113.2" gradientTransform="translate(0 4042.2) scale(1 -2.8)" xlink:href="#Sky_21"/>
    <linearGradient id="Sky_21-43" data-name="Sky 21" y1="1151.6" x2="314.9" y2="1151.6" gradientTransform="translate(0 4042.2) scale(1 -2.8)" xlink:href="#Sky_21"/>
    <linearGradient id="Sky_21-44" data-name="Sky 21" y1="1197.7" x2="363.4" y2="1197.7" gradientTransform="translate(0 4042.2) scale(1 -2.8)" xlink:href="#Sky_21"/>
    <linearGradient id="Sky_21-45" data-name="Sky 21" y1="1211.7" x2="411.9" y2="1211.7" gradientTransform="translate(0 4042.2) scale(1 -2.8)" xlink:href="#Sky_21"/>
    <linearGradient id="Sky_21-46" data-name="Sky 21" x1="41.1" y1="1211.7" x2="460.4" y2="1211.7" gradientTransform="translate(0 4042.2) scale(1 -2.8)" xlink:href="#Sky_21"/>
    <linearGradient id="Sky_21-47" data-name="Sky 21" x1="130.7" y1="1211.7" x2="508.9" y2="1211.7" gradientTransform="translate(0 4042.2) scale(1 -2.8)" xlink:href="#Sky_21"/>
    <linearGradient id="Sky_21-48" data-name="Sky 21" x1="220.5" y1="1211.7" x2="557.7" y2="1211.7" gradientTransform="translate(0 4042.2) scale(1 -2.8)" xlink:href="#Sky_21"/>
    <linearGradient id="Sky_21-49" data-name="Sky 21" x1="310.4" y1="1211.7" x2="606.2" y2="1211.7" gradientTransform="translate(0 4042.2) scale(1 -2.8)" xlink:href="#Sky_21"/>
    <linearGradient id="Sky_21-50" data-name="Sky 21" x1="400.3" y1="1211.7" x2="654.7" y2="1211.7" gradientTransform="translate(0 4042.2) scale(1 -2.8)" xlink:href="#Sky_21"/>
    <linearGradient id="Sky_21-51" data-name="Sky 21" x1="489.8" y1="1211.7" x2="703.2" y2="1211.7" gradientTransform="translate(0 4042.2) scale(1 -2.8)" xlink:href="#Sky_21"/>
    <linearGradient id="Sky_21-52" data-name="Sky 21" x1="579.7" y1="1211.7" x2="751.7" y2="1211.7" gradientTransform="translate(0 4042.2) scale(1 -2.8)" xlink:href="#Sky_21"/>
    <linearGradient id="Sky_21-53" data-name="Sky 21" x1="669.6" y1="1211.7" x2="800.5" y2="1211.7" gradientTransform="translate(0 4042.2) scale(1 -2.8)" xlink:href="#Sky_21"/>
    <linearGradient id="Sky_21-54" data-name="Sky 21" x1="759.4" y1="1211.7" x2="849.3" y2="1211.7" gradientTransform="translate(0 4042.2) scale(1 -2.8)" xlink:href="#Sky_21"/>
    <linearGradient id="Sky_21-55" data-name="Sky 21" x1="849" y1="1211.7" x2="938.9" y2="1211.7" gradientTransform="translate(0 4042.2) scale(1 -2.8)" xlink:href="#Sky_21"/>
    <linearGradient id="Sky_21-56" data-name="Sky 21" x1="897.5" y1="1211.7" x2="1028.7" y2="1211.7" gradientTransform="translate(0 4042.2) scale(1 -2.8)" xlink:href="#Sky_21"/>
    <linearGradient id="Sky_21-57" data-name="Sky 21" x1="946" y1="1211.7" x2="1118.6" y2="1211.7" gradientTransform="translate(0 4042.2) scale(1 -2.8)" xlink:href="#Sky_21"/>
    <linearGradient id="Sky_21-58" data-name="Sky 21" x1="994.5" y1="1211.7" x2="1208.5" y2="1211.7" gradientTransform="translate(0 4042.2) scale(1 -2.8)" xlink:href="#Sky_21"/>
    <linearGradient id="Sky_21-59" data-name="Sky 21" x1="1043.3" y1="1211.7" x2="1298" y2="1211.7" gradientTransform="translate(0 4042.2) scale(1 -2.8)" xlink:href="#Sky_21"/>
    <linearGradient id="Sky_21-60" data-name="Sky 21" x1="1091.4" y1="1211.7" x2="1387.9" y2="1211.7" gradientTransform="translate(0 4042.2) scale(1 -2.8)" xlink:href="#Sky_21"/>
    <linearGradient id="Sky_21-61" data-name="Sky 21" x1="1140.3" y1="1211.7" x2="1477.8" y2="1211.7" gradientTransform="translate(0 4042.2) scale(1 -2.8)" xlink:href="#Sky_21"/>
    <linearGradient id="Sky_21-62" data-name="Sky 21" x1="1188.7" y1="1211.7" x2="1567.6" y2="1211.7" gradientTransform="translate(0 4042.2) scale(1 -2.8)" xlink:href="#Sky_21"/>
    <linearGradient id="Sky_21-63" data-name="Sky 21" x1="1237.2" y1="1211.7" x2="1657.5" y2="1211.7" gradientTransform="translate(0 4042.2) scale(1 -2.8)" xlink:href="#Sky_21"/>
    <linearGradient id="Sky_21-64" data-name="Sky 21" x1="1286.1" y1="1211.7" x2="1723.2" y2="1211.7" gradientTransform="translate(0 4042.2) scale(1 -2.8)" xlink:href="#Sky_21"/>
    <linearGradient id="Sky_21-65" data-name="Sky 21" x1="1334.5" y1="1197.9" x2="1723.2" y2="1197.9" gradientTransform="translate(0 4042.2) scale(1 -2.8)" xlink:href="#Sky_21"/>
    <linearGradient id="Sky_21-66" data-name="Sky 21" x1="1383" y1="1151.8" x2="1723.2" y2="1151.8" gradientTransform="translate(0 4042.2) scale(1 -2.8)" xlink:href="#Sky_21"/>
    <linearGradient id="Sky_21-67" data-name="Sky 21" x1="1431.5" y1="1113.4" x2="1723.2" y2="1113.4" gradientTransform="translate(0 4042.2) scale(1 -2.8)" xlink:href="#Sky_21"/>
    <linearGradient id="Sky_21-68" data-name="Sky 21" x1="1480" y1="1081" x2="1723.2" y2="1081" gradientTransform="translate(0 4042.2) scale(1 -2.8)" xlink:href="#Sky_21"/>
    <linearGradient id="Sky_21-69" data-name="Sky 21" x1="1528.5" y1="1053.2" x2="1723.2" y2="1053.2" gradientTransform="translate(0 4042.2) scale(1 -2.8)" xlink:href="#Sky_21"/>
    <linearGradient id="Sky_21-70" data-name="Sky 21" x1="1577.3" y1="1029" x2="1723.2" y2="1029" gradientTransform="translate(0 4042.2) scale(1 -2.8)" xlink:href="#Sky_21"/>
    <linearGradient id="Sky_21-71" data-name="Sky 21" x1="1625.8" y1="1007.9" x2="1723.2" y2="1007.9" gradientTransform="translate(0 4042.2) scale(1 -2.8)" xlink:href="#Sky_21"/>
    <linearGradient id="Sky_21-72" data-name="Sky 21" x1="1674.3" y1="989.3" x2="1723.2" y2="989.3" gradientTransform="translate(0 4042.2) scale(1 -2.8)" xlink:href="#Sky_21"/>
  </defs>
  <g>
    <path class="cls-72" d="M-24.6,1343.3c16-9.3,31.9-18.6,47.9-27.9H-24.6v27.9h0Z"/>
    <path class="cls-68" d="M-24.6,1343.3c16-9.3,31.9-18.6,47.9-27.9h48.8c-32.2,19.9-64.5,39.8-96.7,59.7v-31.8h0Z"/>
    <path class="cls-67" d="M-24.6,1411.1c48.5-31.9,96.9-63.7,145.2-95.6h-48.5c-32.2,19.9-64.5,39.8-96.7,59.7v35.9h0Z"/>
    <path class="cls-71" d="M-24.6,1411.1c48.5-31.9,96.9-63.7,145.2-95.6h48.5c-64.4,45.6-129.1,91.1-193.7,136.6v-41h0Z"/>
    <path class="cls-69" d="M-24.6,1499.5c80.7-61.3,161.6-122.7,242.2-184h-48.5c-64.4,45.6-129.1,91.1-193.7,136.6v47.3h0Z"/>
    <path class="cls-70" d="M-24.6,1499.5c80.7-61.3,161.6-122.7,242.2-184h48.5c-82.1,67.9-164.9,135.8-247.3,203.6-14.5,11.9-28.9,23.8-43.4,35.7v-55.3h0Z"/>
    <path class="cls-65" d="M-24.6,1620.2c37.5-33.7,75.1-67.4,112.6-101.1,75.5-67.9,151.3-135.7,226.9-203.6h-48.8c-82.1,67.9-164.9,135.8-247.3,203.6-14.5,11.9-28.9,23.8-43.4,35.7v65.4h0Z"/>
    <path class="cls-64" d="M-24.6,1620.2c37.5-33.7,75.1-67.4,112.6-101.1,75.5-67.9,151.3-135.7,226.9-203.6h48.5c-68.5,67.9-137.5,135.7-206.3,203.6-60.6,59.8-121,119.8-181.7,179.7v-78.5h0Z"/>
    <path class="cls-66" d="M-24.6,1722.6H41.1c61.7-67.8,123.8-135.7,185.6-203.5,61.7-67.8,123.8-135.7,185.2-203.6h-48.5c-68.5,67.9-137.5,135.7-206.3,203.6-60.6,59.8-121,119.8-181.7,179.7v23.9h0Z"/>
    <path class="cls-10" d="M130.7,1722.6H41.1c61.7-67.8,123.8-135.7,185.6-203.5,61.7-67.8,123.8-135.7,185.2-203.6h48.5c-55,67.9-109.9,135.8-164.9,203.6-55,67.8-109.9,135.7-164.9,203.5h0Z"/>
    <path class="cls-11" d="M130.7,1722.6h89.9c48.2-67.8,96.2-135.7,144.2-203.5,48-67.9,96.3-135.7,144.2-203.6h-48.5c-55,67.9-109.9,135.8-164.9,203.6-55,67.8-109.9,135.7-164.9,203.5h0Z"/>
    <path class="cls-6" d="M310.4,1722.6h-89.9c48.2-67.8,96.2-135.7,144.2-203.5,48-67.9,96.3-135.7,144.2-203.6h48.8c-41.1,67.9-82.6,135.7-123.8,203.6-41.2,67.8-82.1,135.7-123.5,203.5h0Z"/>
    <path class="cls-9" d="M310.4,1722.6h89.9c34.3-67.8,68.6-135.8,102.8-203.5,34.3-67.9,68.9-135.7,103.1-203.6h-48.5c-41.1,67.9-82.6,135.7-123.8,203.6-41.2,67.8-82.1,135.7-123.5,203.5h0Z"/>
    <path class="cls-13" d="M489.8,1722.6h-89.5c34.3-67.8,68.6-135.8,102.8-203.5,34.3-67.9,68.9-135.7,103.1-203.6h48.5c-27.5,67.9-55,135.8-82.4,203.6-27.5,67.8-55,135.7-82.4,203.5h0Z"/>
    <path class="cls-5" d="M489.8,1722.6h89.9c20.7-67.8,41.2-135.7,61.7-203.5,20.5-67.8,41.4-135.7,61.7-203.6h-48.5c-27.5,67.9-55,135.8-82.4,203.6-27.5,67.8-55,135.7-82.4,203.5h0Z"/>
    <path class="cls-4" d="M669.6,1722.6h-89.9c20.7-67.8,41.2-135.7,61.7-203.5,20.5-67.8,41.4-135.7,61.7-203.6h48.5c-13.6,67.9-27.3,135.8-41.1,203.6-13.7,67.8-27.2,135.7-41.1,203.5h0Z"/>
    <path class="cls-21" d="M669.6,1722.6h89.9c6.8-67.8,13.6-135.7,20.4-203.5,6.8-67.8,13.9-135.7,20.7-203.6h-48.8c-13.6,67.9-27.3,135.8-41.1,203.6-13.7,67.8-27.2,135.7-41.1,203.5h0Z"/>
    <path class="cls-20" d="M849.3,1722.6h-89.9c6.8-67.8,13.6-135.7,20.4-203.5,6.8-67.8,13.9-135.7,20.7-203.6h48.5c.3,67.9.3,135.8.3,203.6v203.5h0Z"/>
    <path class="cls-63" d="M849.3,1722.6h89.5c-6.8-67.8-13.7-135.7-20.7-203.5-6.9-67.8-13.9-135.7-20.7-203.6h-48.5c.3,67.9.3,135.8.3,203.6v203.5h0Z"/>
    <path class="cls-61" d="M1028.7,1722.6h-89.9c-6.8-67.8-13.7-135.7-20.7-203.5-6.9-67.8-13.9-135.7-20.7-203.6h48.5c13.9,67.9,27.6,135.8,41.4,203.6,13.7,67.8,27.8,135.7,41.4,203.5h0Z"/>
    <path class="cls-60" d="M1028.7,1722.6h89.9c-20.7-67.8-41.4-135.7-62.1-203.5-20.7-67.8-41.1-135.7-62.1-203.6h-48.5c13.9,67.9,27.6,135.8,41.4,203.6,13.7,67.8,27.8,135.7,41.4,203.5h0Z"/>
    <path class="cls-62" d="M1208.5,1722.6h-89.9c-20.7-67.8-41.4-135.7-62.1-203.5-20.7-67.8-41.1-135.7-62.1-203.6h48.8c27.5,67.9,54.8,135.8,82.4,203.6,27.7,67.9,55.3,135.7,82.8,203.5h0Z"/>
    <path class="cls-58" d="M1208.5,1722.6h89.5c-34.3-67.8-68.7-135.7-103.1-203.5-34.4-67.9-68.9-135.7-103.4-203.6h-48.2c27.5,67.9,54.8,135.8,82.4,203.6,27.7,67.9,55.3,135.7,82.8,203.5h0Z"/>
    <path class="cls-59" d="M1387.9,1722.6h-89.9c-34.3-67.8-68.7-135.7-103.1-203.5-34.4-67.9-68.9-135.7-103.4-203.6h48.8c41.4,67.9,82.4,135.8,123.8,203.6,41.4,67.8,82.8,135.7,123.8,203.5h0Z"/>
    <path class="cls-57" d="M1387.9,1722.6h89.9c-48.2-67.8-96.3-135.7-144.5-203.5-48.2-67.8-96.3-135.7-144.5-203.6h-48.5c41.4,67.9,82.4,135.8,123.8,203.6,41.4,67.8,82.8,135.7,123.8,203.5h0Z"/>
    <path class="cls-56" d="M1567.6,1722.6h-89.9c-48.2-67.8-96.3-135.7-144.5-203.5-48.2-67.8-96.3-135.7-144.5-203.6h48.5c55.3,67.9,110.1,135.8,165.2,203.6,55.1,67.9,110.2,135.7,165.2,203.5h0Z"/>
    <path class="cls-12" d="M1567.6,1722.6h89.9c-61.7-67.8-123.7-135.7-185.6-203.5-61.9-67.9-123.8-135.7-185.9-203.6h-48.8c55.3,67.9,110.1,135.8,165.2,203.6,55.1,67.9,110.2,135.7,165.2,203.5h0Z"/>
    <path class="cls-8" d="M1723.2,1722.6h-65.7c-61.7-67.8-123.7-135.7-185.6-203.5-61.9-67.9-123.8-135.7-185.9-203.6h48.5c68.5,67.9,137.4,135.8,206.2,203.6,60.9,60,121.7,119.9,182.4,179.9v23.6h0Z"/>
    <path class="cls-7" d="M1723.2,1620.6c-37.7-33.8-75.5-67.7-113.2-101.5-75.6-67.8-151.3-135.7-226.9-203.6h-48.5c68.5,67.9,137.4,135.8,206.2,203.6,60.9,60,121.7,119.9,182.4,179.9v-78.4h0Z"/>
    <path class="cls-28" d="M1723.2,1620.6c-37.7-33.8-75.5-67.7-113.2-101.5-75.6-67.8-151.3-135.7-226.9-203.6h48.5c82.8,67.9,165.1,135.8,247.6,203.6,14.7,12.1,29.3,24.1,44,36.2v65.4h0Z"/>
    <path class="cls-42" d="M1723.2,1500c-81-61.4-162-123-243.2-184.5h-48.5c82.8,67.9,165.1,135.8,247.6,203.6,14.7,12.1,29.3,24.1,44,36.2v-55.2h0Z"/>
    <path class="cls-39" d="M1723.2,1500c-81-61.4-162-123-243.2-184.5h48.5c64.9,45.7,129.8,91.4,194.7,137.2v47.4h0Z"/>
    <path class="cls-40" d="M1723.2,1411.5c-48.6-32-97.2-64-145.9-96h-48.8c64.9,45.7,129.8,91.4,194.7,137.2v-41.2h0Z"/>
    <path class="cls-38" d="M1723.2,1411.5c-48.6-32-97.2-64-145.9-96h48.5c32.4,20,64.9,40.1,97.4,60.1v35.9h0Z"/>
    <path class="cls-41" d="M1723.2,1343.8c-16.3-9.4-32.6-18.9-48.9-28.3h-48.5c32.4,20,64.9,40.1,97.4,60.1v-31.8h0Z"/>
    <path class="cls-34" d="M1723.2,1343.8c-16.3-9.4-32.6-18.9-48.9-28.3h48.9v28.3h0Z"/>
  </g>
  <g>
    <path class="cls-32" d="M-24.6,1226.1c16,30.5,31.9,61.1,47.9,91.6H-24.6v-91.6h0Z"/>
    <path class="cls-33" d="M-24.6,1226.1c16,30.5,31.9,61.1,47.9,91.6h48.8c-32.2-65.5-64.5-130.9-96.7-196.3v104.7h0Z"/>
    <path class="cls-54" d="M-24.6,1003.1c48.5,104.9,96.9,209.7,145.2,314.6h-48.5c-32.2-65.5-64.5-130.9-96.7-196.3v-118.2h0Z"/>
    <path class="cls-52" d="M-24.6,1003.1c48.5,104.9,96.9,209.7,145.2,314.6h48.5c-64.4-149.8-129.1-299.7-193.7-449.5v134.9h0Z"/>
    <path class="cls-50" d="M-24.6,712.4c80.7,201.7,161.6,403.5,242.2,605.2h-48.5c-64.4-149.8-129.1-299.7-193.7-449.5v-155.7h0Z"/>
    <path class="cls-49" d="M-24.6,712.4c80.7,201.7,161.6,403.5,242.2,605.2h48.5c-82.1-223.3-164.9-446.7-247.3-669.8-14.5-39.1-28.9-78.3-43.4-117.4v181.9h0Z"/>
    <path class="cls-47" d="M-24.6,315.2c37.5,110.9,75.1,221.9,112.6,332.7,75.5,223.3,151.3,446.5,226.9,669.8h-48.8c-82.1-223.3-164.9-446.7-247.3-669.8-14.5-39.1-28.9-78.3-43.4-117.4v-215.3h0Z"/>
    <path class="cls-48" d="M-24.6,315.2c37.5,110.9,75.1,221.9,112.6,332.7,75.5,223.3,151.3,446.5,226.9,669.8h48.5c-68.5-223.3-137.5-446.5-206.3-669.8C96.6,451,36.1,253.9-24.6,56.8v258.4h0Z"/>
    <path class="cls-51" d="M-24.6-21.6H41.1c61.7,223.1,123.8,446.4,185.6,669.5,61.7,223.1,123.8,446.5,185.2,669.8h-48.5c-68.5-223.3-137.5-446.5-206.3-669.8C96.6,451,36.1,253.9-24.6,56.8V-21.6h0Z"/>
    <path class="cls-24" d="M130.7-21.6H41.1c61.7,223.1,123.8,446.4,185.6,669.5,61.7,223.1,123.8,446.5,185.2,669.8h48.5c-55-223.3-109.9-446.7-164.9-669.8C240.6,424.8,185.6,201.5,130.7-21.6h0Z"/>
    <path class="cls-25" d="M130.7-21.6h89.9c48.2,223.1,96.2,446.5,144.2,669.5,48,223.2,96.3,446.5,144.2,669.8h-48.5c-55-223.3-109.9-446.7-164.9-669.8C240.6,424.8,185.6,201.5,130.7-21.6h0Z"/>
    <path class="cls-23" d="M310.4-21.6h-89.9c48.2,223.1,96.2,446.5,144.2,669.5,48,223.2,96.3,446.5,144.2,669.8h48.8c-41.1-223.3-82.6-446.6-123.8-669.8-41.2-223-82.1-446.4-123.5-669.5h0Z"/>
    <path class="cls-22" d="M310.4-21.6h89.9c34.3,223.1,68.6,446.6,102.8,669.5,34.3,223.3,68.9,446.5,103.1,669.8h-48.5c-41.1-223.3-82.6-446.6-123.8-669.8-41.2-223-82.1-446.4-123.5-669.5h0Z"/>
    <path class="cls-53" d="M489.8-21.6h-89.5c34.3,223.1,68.6,446.6,102.8,669.5,34.3,223.3,68.9,446.5,103.1,669.8h48.5c-27.5-223.3-55-446.7-82.4-669.8-27.5-223.1-55-446.4-82.4-669.5h0Z"/>
    <path class="cls-55" d="M489.8-21.6h89.9c20.7,223.1,41.2,446.4,61.7,669.5,20.5,223.2,41.4,446.5,61.7,669.8h-48.5c-27.5-223.3-55-446.7-82.4-669.8-27.5-223.1-55-446.4-82.4-669.5h0Z"/>
    <path class="cls-35" d="M669.6-21.6h-89.9c20.7,223.1,41.2,446.4,61.7,669.5,20.5,223.2,41.4,446.5,61.7,669.8h48.5c-13.6-223.3-27.3-446.6-41.1-669.8-13.7-223.1-27.2-446.4-41.1-669.5h0Z"/>
    <path class="cls-31" d="M669.6-21.6h89.9c6.8,223.1,13.6,446.4,20.4,669.5,6.8,223.2,13.9,446.5,20.7,669.8h-48.8c-13.6-223.3-27.3-446.6-41.1-669.8-13.7-223.1-27.2-446.4-41.1-669.5h0Z"/>
    <path class="cls-36" d="M849.3-21.6h-89.9c6.8,223.1,13.6,446.4,20.4,669.5,6.8,223.2,13.9,446.5,20.7,669.8h48.5c.3-223.3.3-446.7.3-669.8V-21.6h0Z"/>
    <path class="cls-37" d="M849.3-21.6h89.5c-6.8,223.1-13.7,446.4-20.7,669.5-6.9,223.1-13.9,446.5-20.7,669.8h-48.5c.3-223.3.3-446.7.3-669.8V-21.6h0Z"/>
    <path class="cls-30" d="M1028.7-21.6h-89.9c-6.8,223.1-13.7,446.4-20.7,669.5-6.9,223.1-13.9,446.5-20.7,669.8h48.5c13.9-223.3,27.6-446.7,41.4-669.8,13.7-223.2,27.8-446.4,41.4-669.5h0Z"/>
    <path class="cls-29" d="M1028.7-21.6h89.9c-20.7,223.1-41.4,446.4-62.1,669.5-20.7,223.1-41.1,446.5-62.1,669.8h-48.5c13.9-223.3,27.6-446.7,41.4-669.8,13.7-223.2,27.8-446.4,41.4-669.5h0Z"/>
    <path class="cls-26" d="M1208.5-21.6h-89.9c-20.7,223.1-41.4,446.4-62.1,669.5-20.7,223.1-41.1,446.5-62.1,669.8h48.8c27.5-223.3,54.8-446.7,82.4-669.8,27.7-223.2,55.3-446.4,82.8-669.5h0Z"/>
    <path class="cls-27" d="M1208.5-21.6h89.5c-34.3,223.1-68.7,446.5-103.1,669.5-34.4,223.2-68.9,446.5-103.4,669.8h-48.2c27.5-223.3,54.8-446.7,82.4-669.8,27.7-223.2,55.3-446.4,82.8-669.5h0Z"/>
    <path class="cls-17" d="M1387.9-21.6h-89.9c-34.3,223.1-68.7,446.5-103.1,669.5-34.4,223.2-68.9,446.5-103.4,669.8h48.8c41.4-223.3,82.4-446.7,123.8-669.8,41.4-223.1,82.8-446.4,123.8-669.5h0Z"/>
    <path class="cls-14" d="M1387.9-21.6h89.9c-48.2,223.1-96.3,446.4-144.5,669.5-48.2,223.1-96.3,446.5-144.5,669.8h-48.5c41.4-223.3,82.4-446.7,123.8-669.8,41.4-223.1,82.8-446.4,123.8-669.5h0Z"/>
    <path class="cls-19" d="M1567.6-21.6h-89.9c-48.2,223.1-96.3,446.4-144.5,669.5-48.2,223.1-96.3,446.5-144.5,669.8h48.5c55.3-223.3,110.1-446.8,165.2-669.8,55.1-223.3,110.2-446.4,165.2-669.5h0Z"/>
    <path class="cls-16" d="M1567.6-21.6h89.9c-61.7,223.1-123.7,446.5-185.6,669.5-61.9,223.3-123.8,446.5-185.9,669.8h-48.8c55.3-223.3,110.1-446.8,165.2-669.8,55.1-223.3,110.2-446.4,165.2-669.5h0Z"/>
    <path class="cls-15" d="M1723.2-21.6h-65.7c-61.7,223.1-123.7,446.5-185.6,669.5-61.9,223.3-123.8,446.5-185.9,669.8h48.5c68.5-223.3,137.4-446.7,206.2-669.8,60.9-197.2,121.7-394.6,182.4-591.8V-21.6h0Z"/>
    <path class="cls-18" d="M1723.2,313.9c-37.7,111.3-75.5,222.7-113.2,334-75.6,223.1-151.3,446.5-226.9,669.8h-48.5c68.5-223.3,137.4-446.7,206.2-669.8,60.9-197.2,121.7-394.6,182.4-591.8v257.9h0Z"/>
    <path class="cls-46" d="M1723.2,313.9c-37.7,111.3-75.5,222.7-113.2,334-75.6,223.1-151.3,446.5-226.9,669.8h48.5c82.8-223.3,165.1-446.8,247.6-669.8,14.7-39.7,29.3-79.3,44-118.9v-215h0Z"/>
    <path class="cls-43" d="M1723.2,710.7c-81,202.1-162,404.7-243.2,607h-48.5c82.8-223.3,165.1-446.8,247.6-669.8,14.7-39.7,29.3-79.3,44-118.9v181.7h0Z"/>
    <path class="cls-45" d="M1723.2,710.7c-81,202.1-162,404.7-243.2,607h48.5c64.9-150.4,129.8-300.8,194.7-451.2v-155.8h0Z"/>
    <path class="cls-44" d="M1723.2,1001.9c-48.6,105.3-97.2,210.6-145.9,315.8h-48.8c64.9-150.4,129.8-300.8,194.7-451.2v135.4h0Z"/>
    <path class="cls-3" d="M1723.2,1001.9c-48.6,105.3-97.2,210.6-145.9,315.8h48.5c32.4-65.9,64.9-131.8,97.4-197.7v-118.1h0Z"/>
    <path class="cls-2" d="M1723.2,1224.4c-16.3,31.1-32.6,62.2-48.9,93.2h-48.5c32.4-65.9,64.9-131.8,97.4-197.7v104.5h0Z"/>
    <path class="cls-1" d="M1723.2,1224.4c-16.3,31.1-32.6,62.2-48.9,93.2h48.9v-93.2h0Z"/>
  </g>
</svg>