<?xml version="1.0" encoding="UTF-8"?>
<svg id="Layer_3" data-name="Layer 3" xmlns="http://www.w3.org/2000/svg" xmlns:xlink="http://www.w3.org/1999/xlink" version="1.1" viewBox="0 0 76.8 76.8">
  <defs>
    <style>
      .cls-1 {
        fill: url(#linear-gradient);
      }

      .cls-1, .cls-2 {
        stroke-width: 0px;
      }

      .cls-2 {
        fill: url(#linear-gradient-2);
      }
    </style>
    <linearGradient id="linear-gradient" x1="5.2" y1="71.6" x2="71.6" y2="5.2" gradientUnits="userSpaceOnUse">
      <stop offset="0" stop-color="#ffb600"/>
      <stop offset=".2" stop-color="#ff8c17"/>
      <stop offset=".5" stop-color="#ff5038"/>
      <stop offset=".7" stop-color="#ff2450"/>
      <stop offset=".9" stop-color="#ff095f"/>
      <stop offset="1" stop-color="#ff0065"/>
    </linearGradient>
    <linearGradient id="linear-gradient-2" x1="23" y1="56.1" x2="56.6" y2="22.5" gradientUnits="userSpaceOnUse">
      <stop offset="0" stop-color="#fff" stop-opacity=".5"/>
      <stop offset=".2" stop-color="rgba(255, 255, 255, .6)" stop-opacity=".6"/>
      <stop offset=".5" stop-color="rgba(255, 255, 255, .7)" stop-opacity=".7"/>
      <stop offset=".9" stop-color="rgba(255, 255, 255, 1)" stop-opacity="1"/>
      <stop offset="1" stop-color="#fff"/>
    </linearGradient>
  </defs>
  <rect class="cls-1" x="0" width="76.8" height="76.8" rx="17.7" ry="17.7"/>
  <path class="cls-2" d="M40.9,13.9v19.8c-1.8-.7-3.7-1.2-5.8-1.2-8.2,0-14.8,6.6-14.8,14.8s6.6,14.8,14.8,14.8,14.8-6.6,14.8-14.8v-20.8l6.7-3.9-15.7-8.7ZM35.1,54.4c-3.9,0-7-3.2-7-7s3.2-7,7-7,1.9.2,2.7.5c2.6,1.1,4.3,3.7,4.3,6.5s-3.2,7-7,7Z"/>
</svg>