<?xml version="1.0" encoding="UTF-8"?>
<svg id="Layer_1" data-name="Layer 1" xmlns="http://www.w3.org/2000/svg" xmlns:xlink="http://www.w3.org/1999/xlink" version="1.1" viewBox="0 0 76.8 76.8">
  <defs>
    <style>
      .cls-1 {
        fill: url(#linear-gradient);
      }

      .cls-1, .cls-2 {
        stroke-width: 0px;
      }

      .cls-2 {
        fill: url(#linear-gradient-2);
      }
    </style>
    <linearGradient id="linear-gradient" x1="5.2" y1="71.6" x2="71.6" y2="5.2" gradientUnits="userSpaceOnUse">
      <stop offset="0" stop-color="#1d70ff"/>
      <stop offset=".7" stop-color="#69e8ff"/>
    </linearGradient>
    <linearGradient id="linear-gradient-2" x1=".9" y1="75.2" x2="69.3" y2="6.8" gradientUnits="userSpaceOnUse">
      <stop offset="0" stop-color="#fff" stop-opacity=".2"/>
      <stop offset="1" stop-color="#fff"/>
    </linearGradient>
  </defs>
  <rect class="cls-1" width="76.8" height="76.8" rx="17.7" ry="17.7"/>
  <path class="cls-2" d="M16,18.9v38.3c0,1.6,1.3,2.9,2.9,2.9h38.3c1.6,0,2.9-1.3,2.9-2.9V18.9c0-1.6-1.3-2.9-2.9-2.9H18.9c-1.6,0-2.9,1.3-2.9,2.9ZM21.5,21.5h12.4v12.4h-12.4v-12.4ZM21.5,38.4h12.4v3.9h-12.4v-3.9ZM54.4,50.7H21.5v-3.9h32.9v3.9Z"/>
</svg>