<?xml version="1.0" encoding="UTF-8"?>
<svg id="Layer_2" data-name="Layer 2" xmlns="http://www.w3.org/2000/svg" xmlns:xlink="http://www.w3.org/1999/xlink" version="1.1" viewBox="0 0 76.8 76.8">
  <defs>
    <style>
      .cls-1 {
        fill: url(#linear-gradient);
      }

      .cls-1, .cls-2, .cls-3 {
        stroke-width: 0px;
      }

      .cls-2 {
        fill: url(#New_Gradient_Swatch);
      }

      .cls-3 {
        fill: url(#linear-gradient-2);
      }
    </style>
    <linearGradient id="New_Gradient_Swatch" data-name="New Gradient Swatch" x1="5.2" y1="71.6" x2="71.6" y2="5.2" gradientUnits="userSpaceOnUse">
      <stop offset="0" stop-color="#204eff"/>
      <stop offset=".9" stop-color="#ff4eff"/>
    </linearGradient>
    <linearGradient id="linear-gradient" x1="74.3" y1="32.5" x2="58.9" y2="59.2" gradientTransform="translate(109.8) rotate(-180) scale(1 -1)" gradientUnits="userSpaceOnUse">
      <stop offset="0" stop-color="#fff" stop-opacity="0"/>
      <stop offset="0" stop-color="rgba(255, 255, 255, 0)" stop-opacity="0"/>
      <stop offset=".3" stop-color="rgba(255, 255, 255, .2)" stop-opacity=".2"/>
      <stop offset=".5" stop-color="rgba(255, 255, 255, .5)" stop-opacity=".5"/>
      <stop offset=".8" stop-color="rgba(255, 255, 255, .8)" stop-opacity=".8"/>
      <stop offset="1" stop-color="#fff"/>
    </linearGradient>
    <linearGradient id="linear-gradient-2" x1="68.7" y1="40.8" x2="88.6" y2="20.8" gradientTransform="translate(109.8) rotate(-180) scale(1 -1)" gradientUnits="userSpaceOnUse">
      <stop offset="0" stop-color="#fff" stop-opacity=".7"/>
      <stop offset=".7" stop-color="rgba(255, 255, 255, 1)" stop-opacity="1"/>
      <stop offset=".8" stop-color="#fff"/>
    </linearGradient>
  </defs>
  <rect class="cls-2" y="0" width="76.8" height="76.8" rx="17.7" ry="17.7"/>
  <path class="cls-1" d="M55.8,20.9c4.4,4.4,7.2,10.5,7.2,17.3,0,13.5-10.9,24.4-24.4,24.4s-13.9-3.2-18.3-8.3c18.8-7.5,29.6-21.6,35.6-33.4Z"/>
  <path class="cls-3" d="M38.5,13.7c3.1,0,6.1.6,8.8,1.6,3.2,1.2,6.1,3.1,8.5,5.5-6.1,11.8-16.9,25.9-35.6,33.4-2.3-2.6-4-5.7-5-9.1-.7-2.2-1-4.6-1-7.1,0-13.5,10.9-24.4,24.4-24.4Z"/>
</svg>