<?xml version="1.0" encoding="UTF-8"?>
<svg id="Layer_1" data-name="Layer 1" xmlns="http://www.w3.org/2000/svg" version="1.1" viewBox="0 0 112.8 127.6">
  <defs>
    <style>
      .cls-1 {
        fill: #f4c500;
      }

      .cls-1, .cls-2, .cls-3, .cls-4 {
        stroke-width: 0px;
      }

      .cls-2 {
        fill-rule: evenodd;
      }

      .cls-2, .cls-4 {
        fill: #e59300;
      }

      .cls-3 {
        fill: #f0de56;
      }
    </style>
  </defs>
  <g>
    <path class="cls-4" d="M110.8,56.4c-6.5-24-28.4-41.6-54.4-41.6S8.5,32.4,2,56.4H0v14.8c0,31.1,25.2,56.4,56.4,56.4s56.4-25.2,56.4-56.4v-14.8s-2,0-2,0Z"/>
    <circle class="cls-3" cx="56.4" cy="56.4" r="56.4"/>
    <circle class="cls-1" cx="56.4" cy="56.4" r="53.2"/>
    <circle class="cls-4" cx="56.4" cy="56.4" r="38.8"/>
    <circle class="cls-1" cx="56.4" cy="56.4" r="34.6"/>
    <g>
      <g>
        <path class="cls-1" d="M31.7,110.5v8.7s0,.2.1.2c3.9,1.9,8,3.3,12.2,4.3,0,0,.3,0,.3-.2v-8.7c0,0,0-.2-.2-.2-4.3-.9-8.3-2.4-12.2-4.2-.1,0-.3,0-.3.2h.1Z"/>
        <path class="cls-1" d="M56.4,115.9c-2.6,0-5.1-.2-7.5-.5,0,0-.2,0-.2.2v8.7c0,0,0,.2.2.2,2.5.3,5,.5,7.6.5s4.2,0,6.3-.4c0,0,.2,0,.2-.2v-8.7c0,0,0-.2-.2-.2-2.1.2-4.2.4-6.3.4h0Z"/>
        <path class="cls-1" d="M8.1,89.4v8.4h0c1.4,2.3,2.9,4.5,4.5,6.5.1.2.4,0,.4,0v-8.5h0c-1.6-2.1-3.1-4.1-4.5-6.3-.1-.2-.4,0-.4,0h0Z"/>
        <path class="cls-1" d="M17.5,100.7v8.8c2.9,2.8,6.1,5.3,9.6,7.4.1,0,.3,0,.3-.2v-8.7s0,0-.1-.2c-3.4-2.1-6.6-4.5-9.5-7.2-.1,0-.4,0-.4.2h.1Z"/>
        <path class="cls-1" d="M99.5,95.9v8.5c0,.2.3.3.4,0,1.8-2.2,3.4-4.4,4.9-6.9h0v-8.4c0-.2-.3-.3-.4,0-1.5,2.3-3.1,4.6-4.9,6.7h0Z"/>
        <path class="cls-1" d="M67.2,115v8.7c0,0,0,.2.3.2,4.5-.9,8.8-2.3,12.9-4.2,0,0,0,0,0-.2v-8.7c0-.2-.2-.3-.3-.2-4,1.9-8.3,3.3-12.8,4.2,0,0-.2,0-.2.2Z"/>
        <path class="cls-1" d="M84.7,108.3v8.7c0,.2.2.3.3.2,3.6-2.2,7-4.7,10-7.6v-8.8c0-.2-.2-.3-.4-.2-3,2.8-6.4,5.3-10,7.4,0,0,0,0,0,.2h.2Z"/>
      </g>
      <path class="cls-1" d="M5.8,91.3v-6.1h0c-.2-.5-2-3.3-3.6-8.3,0-.3-.5-.2-.4,0,.5,3.1,1.5,8.4,3.6,14.4,0,.2.4.2.4,0Z"/>
      <path class="cls-1" d="M107.4,91.3v-6.1h0c.2-.5,2-3.3,3.6-8.3,0-.3.5-.2.4,0-.5,3.1-1.5,8.4-3.6,14.4,0,.2-.4.2-.4,0Z"/>
    </g>
  </g>
  <g id="Layer_2" data-name="Layer 2">
    <g id="Group_1" data-name="Group 1">
      <g id="Rectangle_1-2" data-name="Rectangle 1-2">
        <path class="cls-2" d="M62.5,36.3v24.9c0,3.4-2.8,6.2-6.2,6.2s-6.2-2.8-6.2-6.2v-24.9h-11.8v24.1c0,10.1,8.2,18.2,18.2,18.2s18.2-8.2,18.2-18.2v-24.1h-12.1,0Z"/>
      </g>
    </g>
  </g>
</svg>