<?xml version="1.0" encoding="UTF-8"?>
<svg id="Layer_1" data-name="Layer 1" xmlns="http://www.w3.org/2000/svg" version="1.1" viewBox="0 0 512 512">
  <defs>
    <style>
      .cls-1 {
        fill: #3c3b3d;
      }

      .cls-1, .cls-2, .cls-3, .cls-4 {
        stroke-width: 0px;
      }

      .cls-2 {
        fill: #74829c;
      }

      .cls-3 {
        fill: #d7deed;
      }

      .cls-4 {
        fill: #e4eaef;
      }
    </style>
  </defs>
  <rect class="cls-4" width="512" height="512"/>
  <g>
    <path class="cls-2" d="M368.1,135.2v241.6c0,14.1-11.4,25.5-25.5,25.5h-173.2c-14.1,0-25.5-11.4-25.5-25.5v-241.6c0-14.1,11.4-25.5,25.5-25.5h173.2c14.1,0,25.5,11.4,25.5,25.5Z"/>
    <polygon class="cls-3" points="349 143.9 349 368.1 163 368.1 163 176.1 163 143.9 349 143.9"/>
    <path class="cls-1" d="M271.2,134.7h-29.8c-4.2,0-7.7-3.6-7.7-7.7s3.6-7.7,7.7-7.7h29.8c4.2,0,7.7,3.6,7.7,7.7s-4.2,7.7-7.7,7.7Z"/>
    <path class="cls-1" d="M271.2,392.2h-29.8c-4.2,0-7.7-3.6-7.7-7.7s3.6-7.7,7.7-7.7h29.8c4.2,0,7.7,3.6,7.7,7.7s-4.2,7.7-7.7,7.7Z"/>
  </g>
</svg>