<?xml version="1.0" encoding="UTF-8"?>
<svg xmlns="http://www.w3.org/2000/svg" version="1.1" viewBox="0 0 91.6 86.6">
  <defs>
    <style>
      .cls-1 {
        fill: #ff930f;
      }

      .cls-1, .cls-2, .cls-3, .cls-4, .cls-5, .cls-6, .cls-7, .cls-8, .cls-9 {
        stroke-width: 0px;
      }

      .cls-2 {
        fill: #e36d00;
      }

      .cls-3 {
        fill: #cf4c00;
      }

      .cls-4 {
        fill: #ffe70f;
      }

      .cls-5 {
        fill: #967f0d;
      }

      .cls-6 {
        fill: #ffbb0f;
      }

      .cls-7 {
        fill: #fdd616;
      }

      .cls-8 {
        fill: #fff;
        mix-blend-mode: overlay;
      }

      .cls-10 {
        isolation: isolate;
      }

      .cls-9 {
        fill: #fdc816;
      }
    </style>
  </defs>
  <g class="cls-10">
    <g id="Layer_1" data-name="Layer 1">
      <g>
        <polygon class="cls-5" points="91.6 25.5 91.1 28.3 84.2 65.2 84.4 63.7 91.6 25.5"/>
        <polygon class="cls-2" points="84.4 63.7 84.2 65.2 41.8 86.6 40.6 85.8 84.4 63.7"/>
        <polygon class="cls-3" points="40.6 85.8 41.8 86.6 6.4 71.1 4.1 69.8 40.6 85.8"/>
        <polygon class="cls-6" points="87.5 16.8 91.6 25.5 84.4 63.7 80.3 55 87.5 16.8"/>
        <polygon class="cls-4" points="85.2 15.5 87.5 16.8 80.3 55 78.2 52.5 85.2 15.5"/>
        <polygon class="cls-8" points="85.5 15.7 85.2 15.5 78.2 52.5 78.6 52.9 85.5 15.7"/>
        <polygon class="cls-1" points="80.3 55 84.4 63.7 40.6 85.8 36.6 77.1 80.3 55"/>
        <polygon class="cls-2" points="36.6 77.1 40.6 85.8 4.1 69.8 0 61.1 36.6 77.1"/>
        <polygon class="cls-6" points="78.2 52.5 80.3 55 36.6 77.1 35.9 73.9 78.2 52.5"/>
        <polygon class="cls-4" points="78.5 52.8 78.2 52.5 35.9 73.9 36 74.4 78.5 52.8"/>
        <polygon class="cls-9" points="85.2 15.5 78.2 52.5 35.9 73.9 .5 58.4 7.4 21.4 49.8 0 85.2 15.5"/>
        <g>
          <polygon class="cls-7" points="49.8 0 41.8 4 59.8 61.8 78.2 52.5 81.5 34.8 74 10.6 49.8 0"/>
          <polygon class="cls-7" points="22.6 13.7 7.4 21.4 7.4 21.5 21.9 67.8 35.9 73.9 40.7 71.4 22.6 13.7"/>
        </g>
        <path class="cls-4" d="M26.1,39.2c-3.2-1.4-4.5-4.2-1.9-7.2,2.6-3,7.2-4.3,10.5-2.9,3.9,1.7,3.3,7,0,10.8-1.8,2.2-5.2.7-8.5-.7M46.9,48.4c-3.3-1.5-6.6-3-4.8-5.1,3.2-3.9,9.5-6.7,13.3-5,3.2,1.4,3.8,5,1.2,8-2.6,3-6.5,3.5-9.7,2.1M58.9,17.3c-12.4-5.5-30.5-.4-40.4,11.3-5.2,6.1-4.5,9.9-.9,12.8-2.2,3.3-2.2,6.5.2,7.5,2.2,1,5.7-.3,8.7-2.8.3.2.7.3,1,.4h0c-3.2,3.8-3.6,7.8-.9,8.9,2.7,1.2,7.4-.9,10.6-4.7h0c.4.1.7.3,1,.4-1.7,3.1-1.6,5.9.6,6.8,2.3,1,6.3-.4,9.3-3.3,5.3,1,10.2-.3,15.4-6.5,9.8-11.7,7.8-25.5-4.7-31"/>
        <path class="cls-1" d="M26.3,39.6c-3.2-1.4-4.5-4.2-1.9-7.2,2.6-3,7.2-4.3,10.5-2.9,3.9,1.7,3.3,7,0,10.8-1.8,2.2-5.2.7-8.5-.7M47.1,48.7c-3.3-1.5-6.6-3-4.8-5.1,3.2-3.8,9.5-6.7,13.3-5,3.2,1.4,3.8,5,1.2,8-2.6,3-6.5,3.5-9.7,2.1M59.1,17.6c-12.4-5.5-30.5-.4-40.4,11.3-5.2,6.1-4.5,9.9-.9,12.8-2.2,3.3-2.2,6.5.2,7.5,2.2,1,5.7-.3,8.7-2.8.3.1.7.3,1,.4h0c-3.2,3.8-3.6,7.8-.9,8.9,2.7,1.2,7.4-.9,10.6-4.7h0c.3.1.7.3,1,.4-1.7,3.1-1.6,5.9.6,6.8,2.3,1,6.3-.4,9.3-3.3,5.3,1,10.2-.3,15.4-6.5,9.9-11.7,7.8-25.5-4.7-31"/>
        <g>
          <path class="cls-2" d="M57.9,47.1c2.6-3,2-6.6-1.2-8-.2,0-.4-.2-.6-.2,2.9,1.5,3.3,4.9.8,7.8-2.5,3-6.5,3.5-9.7,2.1.3.1.6.3,1,.4,3.2,1.4,7.2,1,9.7-2.1Z"/>
          <path class="cls-2" d="M39.5,52c-.3-.1-.7-.3-1-.5h0s0,0,0,0c-1.7,3.1-1.6,5.9.6,6.8.2,0,.4.1.5.2-1.7-1.2-1.7-3.7-.1-6.5Z"/>
          <path class="cls-2" d="M18.9,42.1c-3.6-2.9-4.3-6.7.9-12.8,9.7-11.5,27.4-16.5,39.8-11.4-.2,0-.3-.2-.5-.2-12.4-5.5-30.5-.4-40.4,11.3-5.2,6.1-4.5,9.9-.9,12.8-2.2,3.3-2.2,6.5.2,7.5.2,0,.4.1.6.2-1.9-1.2-1.7-4.2.3-7.2Z"/>
          <path class="cls-2" d="M28.8,47.3h0c-.3-.2-.7-.3-1-.4-3.2,3.8-3.6,7.8-.9,8.9.2,0,.3.1.5.2-2.1-1.4-1.6-5.2,1.4-8.7Z"/>
          <path class="cls-2" d="M35.8,40.7c3.3-3.8,3.9-9.1,0-10.8-.1,0-.3,0-.4-.1,3.2,2,2.5,6.9-.6,10.5-1.7,2-4.6,1-7.7-.4,0,0,0,0,.2,0,3.3,1.5,6.7,2.9,8.5.7Z"/>
        </g>
        <polygon class="cls-1" points="35.9 73.9 36.6 77.1 0 61.1 .5 58.4 35.9 73.9"/>
        <polygon class="cls-4" points="36 74.4 35.9 73.9 .5 58.4 .4 58.8 36 74.4"/>
      </g>
    </g>
  </g>
</svg>