<?xml version="1.0" encoding="UTF-8"?>
<svg id="OBJECTS" xmlns="http://www.w3.org/2000/svg" version="1.1" viewBox="0 0 77.7 89.7">
  <defs>
    <style>
      .cls-1, .cls-2 {
        fill: #b32320;
      }

      .cls-1, .cls-2, .cls-3, .cls-4, .cls-5 {
        stroke-width: 0px;
      }

      .cls-2 {
        fill-rule: evenodd;
      }

      .cls-3 {
        fill: #ea2d29;
      }

      .cls-4 {
        fill: #cc2724;
      }

      .cls-5 {
        fill: #ff615e;
      }
    </style>
  </defs>
  <polygon class="cls-4" points="38.8 44.8 38.8 0 0 22.4 0 22.4 38.8 44.8 38.8 44.8"/>
  <polygon class="cls-3" points="38.8 44.8 38.8 44.8 38.8 44.8 38.8 44.8"/>
  <polygon class="cls-1" points="77.7 22.4 77.7 22.4 38.8 0 38.8 44.8 77.7 22.4"/>
  <polygon class="cls-3" points="0 22.4 0 67.2 0 67.2 38.8 44.8 0 22.4"/>
  <polygon class="cls-4" points="38.8 89.7 77.6 67.2 38.8 44.8 38.8 89.7"/>
  <polygon class="cls-1" points="38.8 44.8 0 67.2 38.8 89.7 38.8 44.8 38.8 44.8"/>
  <polygon class="cls-3" points="77.7 22.4 38.8 44.8 38.8 44.8 77.6 67.2 77.7 67.2 77.7 22.4"/>
  <polygon class="cls-5" points="62.1 58.2 38.8 71.7 15.6 58.2 15.6 31.4 38.8 18 62.1 31.4 62.1 58.2"/>
  <g id="Layer_2" data-name="Layer 2">
    <g id="Group_1" data-name="Group 1">
      <g id="Rectangle_1-2" data-name="Rectangle 1-2">
        <path class="cls-2" d="M42.8,32.9v16.4c0,2.2-1.8,4.1-4.1,4.1s-4.1-1.8-4.1-4.1v-16.4h-7.8v15.9c0,6.6,5.4,12,12,12s12-5.4,12-12v-15.9h-8Z"/>
      </g>
    </g>
    <rect class="cls-5" x="26.9" y="40.6" width="24" height="7.8"/>
  </g>
</svg>