<?xml version="1.0" encoding="UTF-8"?>
<svg id="Layer_1" data-name="Layer 1" xmlns="http://www.w3.org/2000/svg" xmlns:xlink="http://www.w3.org/1999/xlink" version="1.1" viewBox="0 0 512 512">
  <defs>
    <style>
      .cls-1 {
        fill: #ff74af;
      }

      .cls-1, .cls-2, .cls-3, .cls-4, .cls-5 {
        stroke-width: 0px;
      }

      .cls-2 {
        fill: #6a6fdc;
      }

      .cls-3 {
        fill: #fdebc2;
      }

      .cls-4 {
        fill: #ffa6ab;
      }

      .cls-5 {
        fill: #64d5ff;
      }

      .cls-6 {
        opacity: .7;
      }
    </style>
  </defs>
  <g>
    <path class="cls-2" d="M251,511.7c-.1,0-.3,0-.4,0-2.2-.2-3.8-2.1-3.6-4.3.2-2.1,2-3.7,4.1-3.6,2.1,0,3.9,1.8,3.9,4,0,2.2-1.8,4-4,4Z"/>
    <path class="cls-2" d="M273.2,511.2c-2.2,0-4-1.8-4-4s1.7-3.9,3.8-4c2.2-.1,4,1.5,4.2,3.6.2,2.2-1.4,4.1-3.6,4.3-.1,0-.3,0-.4,0Z"/>
    <path class="cls-2" d="M228.8,510.3c-.1,0-.2,0-.3,0-.1,0-.3,0-.4,0-2.2-.4-3.6-2.4-3.2-4.6.4-2.1,2.3-3.5,4.4-3.3,2.1.2,3.7,2.1,3.5,4.3-.2,2.1-1.9,3.6-3.9,3.6Z"/>
    <path class="cls-2" d="M206.8,507c-.2,0-.5,0-.7,0,0,0-.2,0-.3,0-2.1-.5-3.4-2.7-2.9-4.8.5-2.1,2.6-3.4,4.7-2.9,2.1.4,3.5,2.4,3.1,4.6-.3,1.9-2,3.3-3.9,3.3Z"/>
    <path class="cls-2" d="M317.1,504.2c-1.8,0-3.4-1.2-3.8-3-.5-2.1.8-4.3,2.9-4.8,2.1-.5,4.3.7,4.8,2.9.5,2.1-.7,4.3-2.8,4.8,0,0,0,0,0,0-.3,0-.6.1-1,.1Z"/>
    <path class="cls-2" d="M299,503.7c-.5-2-2.4-3.2-4.4-2.9h0c0,0-.1,0-.2,0,0,0-.2,0-.2,0-2.1.5-3.4,2.7-2.9,4.8.5,1.8,2.1,3,3.8,3s.3,0,.5,0c.1,0,.2,0,.3,0h0s0,0,.1,0c0,0,0,0,0,0,2.1-.6,3.4-2.7,2.8-4.8Z"/>
    <path class="cls-2" d="M185.2,501.7c-.3,0-.7,0-1-.1-.1,0-.3,0-.4-.1-2.1-.7-3.2-3-2.4-5.1.7-2,2.9-3.1,4.9-2.5,2.1.6,3.3,2.7,2.7,4.8-.5,1.8-2.1,3-3.8,3Z"/>
    <path class="cls-2" d="M338.4,497.9c-1.6,0-3.2-1-3.7-2.6-.7-2.1.3-4.3,2.4-5.1l1.4,3.7,1.3,3.8c-.4.2-.9.2-1.3.2Z"/>
    <path class="cls-2" d="M164.1,494.6c-.4,0-.9,0-1.4-.2,0,0-.2,0-.3-.1-2-.9-2.9-3.2-2.1-5.2.9-2,3.1-2.9,5.1-2.1,2,.8,3.1,3,2.3,5.1-.6,1.6-2.1,2.6-3.7,2.6Z"/>
    <path class="cls-2" d="M359.1,489.7c-1.5,0-2.9-.8-3.6-2.3-.9-2,0-4.3,1.9-5.3l1.8,3.6,1.6,3.6c-.5.2-1.1.4-1.7.4Z"/>
    <path class="cls-2" d="M143.7,485.5c-.6,0-1.2-.1-1.7-.4,0,0-.2,0-.2-.1-1.9-1-2.6-3.5-1.6-5.4,1-1.9,3.4-2.6,5.3-1.6,1.9,1,2.8,3.3,1.8,5.3-.7,1.4-2.1,2.3-3.6,2.3Z"/>
    <path class="cls-2" d="M378.9,479.7c-1.5,0-2.9-.8-3.6-2.2-1-1.9-.2-4.3,1.7-5.3,1.9-1,4.3-.4,5.4,1.5,1.1,1.9.4,4.3-1.5,5.4,0,0-.2,0-.2.1-.6.3-1.2.4-1.8.4Z"/>
    <path class="cls-2" d="M124.3,474.8c-.7,0-1.4-.2-2.1-.6,0,0-.2,0-.2-.1-1.8-1.2-2.3-3.7-1.1-5.5,1.2-1.8,3.7-2.3,5.5-1.1,1.9,1.1,2.4,3.5,1.3,5.4-.7,1.2-2.1,1.9-3.4,1.9Z"/>
    <path class="cls-2" d="M397.8,467.9c-1.3,0-2.6-.7-3.4-1.8-1.2-1.9-.6-4.3,1.2-5.5,1.8-1.3,4.2-.8,5.5,1,1.3,1.8.8,4.3-1,5.6,0,0-.1.1-.2.1-.7.4-1.4.6-2.1.6Z"/>
    <path class="cls-2" d="M108,455c-.2-.1-.4-.2-.6-.3,0,0,0,0,0,0-.2,0-.3-.1-.5-.2,0,0-.2,0-.3,0-.1,0-.3,0-.4,0-.1,0-.2,0-.4,0s-.2,0-.4,0c-.1,0-.3,0-.4,0-.1,0-.2,0-.3,0-.1,0-.3,0-.4.1-.1,0-.2.1-.3.2-.1,0-.2.1-.3.2-.1,0-.2.2-.3.2,0,0-.2.1-.3.2,0,0-.2.2-.3.3,0,0-.2.2-.2.3,0,0,0,0,0,0,0,0,0,0,0,0,0,0,0,.2-.1.3,0,.1-.2.3-.2.4,0,.1,0,.2-.1.3,0,.1,0,.3-.1.4,0,.1,0,.2,0,.4,0,.1,0,.3,0,.4,0,.1,0,.3,0,.4,0,.1,0,.3,0,.4,0,.1,0,.2,0,.4,0,.1,0,.2.1.4,0,.1,0,.2.1.3,0,.1.1.3.2.4,0,0,.1.1.2.2.1.1.2.3.3.4,0,0,0,0,.1.1.1.1.2.2.4.3h0s0,0,.1,0c0,0,.2,0,.2.1.6.4,1.4.6,2.1.6,1.4,0,2.7-.7,3.4-1.9,1.1-1.9.6-4.3-1.3-5.4Z"/>
    <path class="cls-2" d="M415.6,454.6c-1.2,0-2.4-.6-3.2-1.6-1.3-1.7-.9-4.1.7-5.4,1.6-1.4,4.1-1.2,5.5.4,1.5,1.6,1.3,4.1-.3,5.6,0,0-.2.2-.3.3-.7.5-1.5.8-2.4.8Z"/>
    <path class="cls-2" d="M88.5,448.3c-.9,0-1.9-.3-2.6-1h0c-1.6-1.5-1.8-4-.3-5.6,1.5-1.6,4-1.8,5.6-.3,1.6,1.5,1.8,4,.4,5.6-.8.9-1.9,1.3-3,1.3Z"/>
    <path class="cls-2" d="M432.2,439.7c-1,0-2-.4-2.7-1.1-1.6-1.5-1.7-4-.2-5.6,0,0,.1-.2.2-.2,1.6-1.5,4.1-1.4,5.6.2,1.5,1.6,1.4,4.1-.1,5.6-.8.8-1.8,1.2-2.8,1.2Z"/>
    <polygon class="cls-2" points="432.3 435.8 432.3 435.8 432.2 435.7 432.3 435.8"/>
    <path class="cls-2" d="M72.6,432.8c-1.1,0-2.1-.4-2.9-1.3-1.5-1.5-1.5-3.9,0-5.5,1.5-1.6,4-1.7,5.6-.2,0,0,.2.2.3.3,1.5,1.6,1.3,4.1-.3,5.6-.8.7-1.7,1-2.6,1Z"/>
    <path class="cls-2" d="M72.5,428.9h0s0,0,0,0Z"/>
    <path class="cls-1" d="M447.4,423.4c-.9,0-1.8-.3-2.6-1-1.6-1.4-1.9-3.9-.5-5.5,0,0,0-.1.1-.1,1.5-1.6,4-1.8,5.6-.3,1.6,1.5,1.8,4,.3,5.6l-3-2.6,3,2.6c-.8.9-1.9,1.3-3,1.3Z"/>
    <path class="cls-1" d="M58,416c-1.1,0-2.3-.5-3-1.4,0,0-.2-.2-.2-.3-1.3-1.8-.8-4.3,1-5.5,1.7-1.2,4.1-.8,5.4.8,1.3,1.7,1.1,4.1-.6,5.5-.7.6-1.6.9-2.5.9Z"/>
    <path class="cls-2" d="M461.1,405.9c-.9,0-1.7-.3-2.4-.8-1.7-1.3-2-3.8-.7-5.6,1.3-1.8,3.7-2.2,5.5-.9,1.8,1.3,2.2,3.8.9,5.6,0,0-.1.2-.2.2-.8,1-2,1.5-3.1,1.5Z"/>
    <path class="cls-2" d="M45,397.9c-1.3,0-2.5-.6-3.3-1.8h0c-1.2-1.9-.7-4.3,1.2-5.5,1.8-1.2,4.3-.7,5.5,1.2,1.2,1.8.7,4.3-1.1,5.5-.7.4-1.4.6-2.2.6Z"/>
    <path class="cls-2" d="M473.2,387.3c-.7,0-1.3-.2-1.9-.5-1.9-1-2.6-3.5-1.6-5.4,0,0,0-.1.1-.2,1.1-1.9,3.6-2.5,5.4-1.4,1.9,1.1,2.5,3.6,1.4,5.4l-3.4-2,3.4,2c-.7,1.3-2,2-3.4,2Z"/>
    <path class="cls-2" d="M33.6,378.8c-1.4,0-2.7-.7-3.5-2,0,0,0,0,0,0-1-1.9-.3-4.3,1.6-5.4,1.9-1.1,4.3-.3,5.4,1.6,1,1.9.4,4.4-1.6,5.4-.6.3-1.3.5-1.9.5Z"/>
    <path class="cls-2" d="M483.6,367.5c-.6,0-1.3-.2-1.9-.5-1.9-1-2.6-3.3-1.6-5.2.9-1.9,3.2-2.8,5.2-1.9,2,.9,2.9,3.3,2,5.3,0,0-.1.2-.2.3-.7,1.3-2.1,2.1-3.5,2.1Z"/>
    <path class="cls-2" d="M24,358.8c-1.6,0-3-.9-3.7-2.5l3.7-1.5-3.7,1.5c-.8-2,.1-4.3,2.1-5.2,2-.9,4.3,0,5.2,2,0,0,0,.1,0,.2.8,2-.1,4.3-2.2,5.2-.5.2-1,.3-1.5.3Z"/>
    <path class="cls-2" d="M492.2,347c-.5,0-1,0-1.4-.3-2-.8-3-3.1-2.3-5.1.8-2,3.1-3.1,5.1-2.3,2,.8,3.1,3,2.3,5,0,0,0,.1,0,.1-.6,1.6-2.1,2.5-3.7,2.5Z"/>
    <path class="cls-2" d="M16.1,337.9c-1.7,0-3.2-1.1-3.8-2.8-.7-2,.4-4.2,2.4-5,2.1-.7,4.3.3,5.1,2.4,0,0,0,.2,0,.3.6,2.1-.5,4.3-2.6,5-.4.1-.8.2-1.2.2Z"/>
    <polygon class="cls-2" points="16 334 16 334 16.1 334 16 334"/>
    <path class="cls-2" d="M499,325.8c-.4,0-.8,0-1.2-.2-2.1-.6-3.3-2.9-2.6-5,.6-2.1,2.7-3.3,4.8-2.8,2.1.6,3.4,2.8,2.8,4.9,0,0,0,.2,0,.2-.5,1.7-2.1,2.8-3.8,2.8Z"/>
    <path class="cls-2" d="M10.2,316.5c-1.8,0-3.5-1.3-3.9-3.1l3.9-.8-3.9.8c-.5-2.1.9-4.2,3-4.7,2.1-.5,4.2.8,4.8,2.9,0,0,0,.1,0,.2.5,2.1-.9,4.3-3,4.7-.3,0-.6,0-.8,0Z"/>
    <path class="cls-2" d="M503.8,304.1c-.2,0-.4,0-.7,0-2.2-.4-3.6-2.4-3.3-4.6l3.9.6,3.9.7c-.3,1.9-2,3.3-3.9,3.3Z"/>
    <path class="cls-2" d="M6.2,294.6c-2,0-3.7-1.5-3.9-3.5l3.9-.5-3.9.5c-.4-2.2,1.1-4.1,3.2-4.5,2.2-.4,4.2,1.1,4.6,3.3,0,0,0,.2,0,.2.3,2.2-1.3,4.2-3.4,4.4-.2,0-.3,0-.5,0Z"/>
    <path class="cls-2" d="M506.8,282.1c-.1,0-.2,0-.3,0-2.2-.2-3.8-2.1-3.6-4.3.2-2.2,2.1-3.8,4.3-3.6,2.2.2,3.8,2.1,3.6,4.3,0,0,0,0,0,0-.2,2.1-1.9,3.6-4,3.6Z"/>
    <path class="cls-2" d="M4.1,272.5c-2.1,0-3.9-1.7-4-3.8l4-.2-4,.2c-.2-2.2,1.4-4,3.6-4.2,2.2-.2,4.1,1.5,4.3,3.7,0,0,0,.2,0,.2,0,2.2-1.6,4-3.8,4.1,0,0-.1,0-.2,0Z"/>
    <path class="cls-2" d="M507.7,259.8c-2.2,0-4-1.8-4-4s.1-1.1.3-1.5c-.2-.4-.3-.9-.3-1.4,0,0,0-.2,0-.2,0-2.2,1.8-4,4-4s4,1.8,4,4h-1.5s0,0,0,0h1.5c0,.6,0,1.1-.3,1.6.2.5.3,1,.3,1.5h0c0,2.2-1.8,4-4,4Z"/>
    <path class="cls-3" d="M4,250.2c0,0-.1,0-.2,0-2.2,0-3.9-1.9-3.8-4.1,0,0,0,0,0,0,0-2.2,2-3.9,4.1-3.8,2.2,0,3.9,1.9,3.8,4.1,0,2.1-1.9,3.8-4,3.8Z"/>
    <path class="cls-2" d="M506.5,234.6c-2,0-3.7-1.5-4-3.5,0,0,0-.2,0-.2-.2-2.2,1.4-4.1,3.6-4.3,2.2-.2,4.1,1.4,4.3,3.6l-4,.3,4-.3c.3,2.2-1.3,4.1-3.4,4.4-.2,0-.3,0-.5,0Z"/>
    <path class="cls-2" d="M5.8,228c-.2,0-.3,0-.5,0-2.2-.3-3.7-2.2-3.4-4.4,0,0,0,0,0,0,.3-2.2,2.3-3.7,4.4-3.4,2.2.3,3.7,2.3,3.4,4.4-.3,2-2,3.5-3.9,3.5Z"/>
    <path class="cls-2" d="M503.3,212.5c-1.8,0-3.5-1.3-3.9-3.1,0,0,0-.1,0-.2-.4-2.2,1.1-4.2,3.2-4.6,2.2-.4,4.2,1.1,4.6,3.2l-3.9.7,3.9-.7c.4,2.1-1,4.2-3.2,4.6-.3,0-.5,0-.8,0Z"/>
    <path class="cls-2" d="M498.2,190.9c-1.8,0-3.4-1.2-3.8-3-.6-2.1.6-4.3,2.7-4.9,2.1-.6,4.3.6,5,2.7,0,0,0,.2,0,.2.6,2.1-.7,4.3-2.8,4.8-.3,0-.7.1-1,.1Z"/>
    <path class="cls-2" d="M15.2,184.6c-.4,0-.8,0-1.1-.2-2.1-.6-3.3-2.8-2.7-4.9h0c.6-2.2,2.9-3.3,5-2.7,2.1.6,3.3,2.9,2.6,5-.5,1.7-2.1,2.8-3.8,2.8Z"/>
    <path class="cls-2" d="M13.5,202.3c0-.2,0-.3,0-.5,0,0,0-.2,0-.2,0-.2,0-.4-.1-.6,0,0,0,0,0,0-.4-1.3-1.5-2.4-3-2.7-1.7-.4-3.5.5-4.3,2,0,0,0,0,0,0,0,.2-.2.4-.2.6,0,0,0,0,0,.1h0c0,0,0,.1,0,.1,0,0,0,.1,0,.2h0c-.5,2,.7,4.1,2.7,4.7.4.1.8.2,1.1.2,1.7,0,3.3-1.1,3.8-2.8,0-.1,0-.3,0-.4h0c0,0,0-.1,0-.2,0-.1,0-.3,0-.4Z"/>
    <path class="cls-2" d="M491.2,169.7c-1.6,0-3.1-1-3.7-2.6-.8-2,.2-4.3,2.2-5.1,2-.8,4.3.1,5.2,2.2,0,0,0,.2,0,.3.7,2.1-.4,4.3-2.4,5.1-.4.1-.9.2-1.3.2Z"/>
    <path class="cls-2" d="M22.8,163.7c-.5,0-1,0-1.5-.3-2-.8-3-3.1-2.2-5.2h0c.8-2.1,3.2-3,5.2-2.2,2,.8,3,3.1,2.2,5.2-.6,1.5-2.1,2.5-3.7,2.5Z"/>
    <path class="cls-2" d="M482.3,149.3c-1.5,0-2.8-.8-3.5-2.2l3.5-1.8,3.6-1.7-3.6,1.7,3.6-1.7c.9,2,.1,4.3-1.8,5.3-.6.3-1.2.4-1.8.4Z"/>
    <path class="cls-2" d="M471.6,129.8c-1.3,0-2.6-.7-3.4-1.9l3.3-2.1,3.4-2-3.4,2,3.4-2c1.1,1.9.5,4.3-1.3,5.5-.6.4-1.4.6-2.1.6Z"/>
    <path class="cls-2" d="M43.3,124.2c-.7,0-1.5-.2-2.1-.6-1.8-1.2-2.4-3.6-1.2-5.5h0c1.2-1.9,3.7-2.4,5.5-1.2,1.8,1.2,2.4,3.7,1.2,5.5-.8,1.2-2.1,1.8-3.4,1.8Z"/>
    <path class="cls-2" d="M36.1,139.4c0,0,0-.1,0-.2,0-.1,0-.2,0-.4-.2-1.1-.8-2.1-1.8-2.8-1.8-1.2-4.3-.7-5.5,1.2h0c-1.2,1.9-.7,4.3,1.2,5.5.7.4,1.4.6,2.1.6,1.3,0,2.6-.6,3.4-1.8,0-.1.1-.2.2-.3h0c.3-.6.4-1.2.4-1.8Z"/>
    <path class="cls-2" d="M459.3,111.3c-1.3,0-2.5-.6-3.3-1.7-1.2-1.8-.8-4.3.9-5.5,1.8-1.3,4.2-.9,5.5.8,0,0,0,0,0,.1,1.3,1.8.8,4.3-1,5.5-.7.5-1.5.7-2.3.7Z"/>
    <path class="cls-2" d="M56.1,106c-.9,0-1.7-.3-2.5-.9-1.7-1.4-2-3.9-.7-5.6l3.1,2.5-3.1-2.5c1.3-1.7,3.8-2,5.5-.7,1.7,1.3,2.1,3.8.8,5.5,0,0,0,.1-.1.1-.8,1-1.9,1.5-3.1,1.5Z"/>
    <path class="cls-3" d="M445.4,93.9c-1.1,0-2.3-.5-3.1-1.4-1.4-1.7-1.2-4.2.4-5.6,1.6-1.4,4.1-1.3,5.5.3,0,0,0,.1.1.1,1.4,1.7,1.2,4.2-.5,5.6-.7.6-1.6.9-2.5.9Z"/>
    <path class="cls-2" d="M70.5,89c-.9,0-1.9-.3-2.6-1-1.6-1.5-1.8-4-.3-5.6,0,0,.1-.2.2-.2,1.5-1.6,4.1-1.6,5.6,0,1.5,1.5,1.5,4,0,5.5-.8.8-1.9,1.3-2.9,1.3Z"/>
    <path class="cls-5" d="M430,77.8c-.9,0-1.9-.3-2.6-1,0,0-.2-.1-.2-.2-1.6-1.5-1.6-4.1,0-5.6,1.5-1.5,4-1.5,5.6,0,1.6,1.5,1.7,3.9.2,5.5-.8.9-1.9,1.3-3,1.3Z"/>
    <path class="cls-2" d="M430.1,73.7h-.1c0,.1.1,0,.1,0Z"/>
    <path class="cls-2" d="M86.3,73.3c-1.1,0-2.2-.4-3-1.3-1.5-1.6-1.3-4.1.3-5.6l2.6,3-2.6-3c1.6-1.4,4.1-1.3,5.6.3,1.5,1.6,1.4,4.1-.2,5.6,0,0,0,0-.1.1-.8.7-1.7,1-2.6,1Z"/>
    <path class="cls-2" d="M413.3,63.1c-.9,0-1.8-.3-2.5-.9-1.7-1.4-1.9-3.9-.6-5.6,1.4-1.7,3.8-2,5.5-.6,0,0,0,0,.1.1,1.7,1.4,1.9,3.9.5,5.6-.8.9-1.9,1.4-3.1,1.4Z"/>
    <path class="cls-2" d="M103.4,59.1c-1.2,0-2.4-.6-3.2-1.6-1.3-1.8-.9-4.3.8-5.6l2.4,3.2-2.4-3.2c1.7-1.3,4.2-1,5.5.8,1.3,1.7,1,4.2-.7,5.5,0,0-.1,0-.1.1-.7.5-1.5.8-2.4.8Z"/>
    <path class="cls-2" d="M395.4,50c-.8,0-1.6-.2-2.3-.7-1.8-1.2-2.2-3.7-1-5.5,1.2-1.8,3.6-2.3,5.4-1.1,0,0,.1,0,.2.1,1.8,1.3,2.2,3.7,1,5.5-.8,1.1-2,1.7-3.3,1.7Z"/>
    <path class="cls-2" d="M121.7,46.4c-1.3,0-2.6-.7-3.4-1.9-1.1-1.8-.6-4.2,1.2-5.4,0,0,.1,0,.2-.1,1.9-1.1,4.3-.5,5.4,1.4,1.1,1.9.5,4.3-1.4,5.4-.6.4-1.4.6-2.1.6Z"/>
    <path class="cls-2" d="M376.3,38.5c-.7,0-1.3-.2-2-.5-1.9-1.1-2.6-3.5-1.5-5.4,1-1.9,3.4-2.6,5.3-1.6,0,0,.1,0,.2,0,1.9,1.1,2.6,3.5,1.5,5.4-.7,1.3-2.1,2-3.5,2Z"/>
    <path class="cls-2" d="M141,35.4c-1.4,0-2.8-.8-3.5-2.1-1-1.9-.3-4.3,1.7-5.3h0c1.9-1,4.3-.3,5.4,1.6,1,1.9.3,4.3-1.7,5.4-.6.3-1.2.5-1.9.5Z"/>
    <path class="cls-2" d="M356.3,28.7c-.5,0-1,0-1.5-.3,0,0-.1,0-.2,0-2-.9-2.9-3.3-2-5.3.9-2,3.3-2.9,5.3-2l-1.6,3.6,1.6-3.6c2,.9,2.9,3.2,2,5.2-.6,1.5-2.1,2.4-3.6,2.4Z"/>
    <path class="cls-2" d="M161.2,26.1c-1.6,0-3.1-.9-3.7-2.5-.8-2,.1-4.3,2.1-5.2h0c2-.8,4.3.1,5.2,2.2.8,2-.1,4.3-2.2,5.2-.5.2-1,.3-1.5.3Z"/>
    <path class="cls-2" d="M335.5,20.7c-.4,0-.8,0-1.2-.2,0,0-.1,0-.2,0-2.1-.7-3.2-3-2.4-5.1.7-2.1,3-3.2,5.1-2.4l-1.3,3.7,1.3-3.7c2.1.7,3.2,2.9,2.5,5-.6,1.7-2.1,2.7-3.8,2.7Z"/>
    <path class="cls-2" d="M183.4,18.5l-1.3-3.8-1.1-3.8c2.1-.6,4.3.5,5,2.6.7,2.1-.5,4.3-2.6,5Z"/>
    <path class="cls-2" d="M182.2,14.8h0,0Z"/>
    <path class="cls-2" d="M314.2,14.6c-.3,0-.5,0-.8,0,0,0-.2,0-.2,0-2.1-.6-3.4-2.7-2.8-4.8.6-2.1,2.7-3.4,4.8-2.8l-1,3.8,1-3.8c2.1.4,3.5,2.5,3,4.7-.4,1.9-2.1,3.1-3.9,3.1Z"/>
    <path class="cls-2" d="M203.8,13.2c-1.8,0-3.5-1.3-3.9-3.1-.5-2.1.9-4.2,3-4.7,0,0,0,0,0,0,2.1-.5,4.2.9,4.7,3.1.4,2.1-.9,4.2-3.1,4.7-.3,0-.5,0-.8,0Z"/>
    <path class="cls-2" d="M182.2,18.7c-1.8,0-3.5-1.3-3.9-3.1-.5-2.1.9-4.2,3-4.7,0,0,0,0,0,0,2.1-.5,4.2.9,4.7,3.1s-.9,4.2-3.1,4.7c-.3,0-.5,0-.8,0Z"/>
    <path class="cls-2" d="M292.3,10.5c-.2,0-.5,0-.7,0-2.2-.3-3.7-2.2-3.4-4.4.3-2.2,2.3-3.7,4.5-3.4,0,0,.2,0,.2,0,2.2.4,3.6,2.4,3.2,4.6-.3,1.9-2,3.3-3.9,3.3Z"/>
    <path class="cls-2" d="M225.7,9.6c-2,0-3.8-1.5-4-3.5-.2-2.2,1.3-4.1,3.4-4.4,0,0,.2,0,.2,0,2.2-.2,4.1,1.4,4.3,3.6.2,2.2-1.4,4.1-3.6,4.3-.1,0-.2,0-.3,0Z"/>
    <path class="cls-2" d="M270.2,8.2c-.1,0-.2,0-.3,0-2.2,0-3.8-1.9-3.7-4.1,0-2.2,2-3.9,4.2-3.8,0,0,.2,0,.2,0,2.2.2,3.8,2.1,3.6,4.3-.2,2.1-1.9,3.6-4,3.6Z"/>
    <path class="cls-2" d="M247.7,7.9c-2.1,0-3.8-1.7-3.9-3.8,0-2.2,1.7-4,3.9-4.1,0,0,.2,0,.2,0,2.2,0,4,1.8,4,4s-1.8,4-4,4c0,0-.1,0-.2,0Z"/>
    <path class="cls-2" d="M273.6,500.7c-1.6,0-3-1.3-3.1-3-.1-1.8,1.3-3.3,3-3.4,0,0,.2,0,.3,0,1.8,0,3.2,1.4,3.2,3.2s-1.4,3.2-3.2,3.2v-3.2,3.2c0,0-.2,0-.2,0Z"/>
    <path class="cls-2" d="M247.5,493.6c0,0-.2,0-.3,0,0,0,0,0,0,0-1.6,0-3,1.3-3.1,2.9-.1,1.6,1,3,2.6,3.3,0,0,0,0,.1,0,0,0,.2,0,.2,0h0s0,0,0,0h0s0,0,0,0c0,0,.1,0,.2,0s.1,0,.2,0v-3.2s0,3.2,0,3.2c1.8,0,3.2-1.4,3.2-3.2s-1.4-3.2-3.2-3.2Z"/>
    <path class="cls-2" d="M300.1,498.4c-1.6,0-2.9-1.1-3.1-2.7-.2-1.7,1-3.3,2.7-3.6,1.7-.3,3.4,1,3.6,2.7.2,1.7-.9,3.3-2.7,3.6h0c-.2,0-.3,0-.5,0Z"/>
    <path class="cls-1" d="M221.1,496.4c-.2,0-.4,0-.7,0l.7-3.1-.7,3.1c-1.7-.2-2.9-1.8-2.6-3.6.2-1.7,1.9-2.9,3.7-2.7,0,0,.2,0,.3,0,1.7.4,2.8,2.1,2.4,3.8-.3,1.5-1.6,2.5-3.1,2.5Z"/>
    <path class="cls-2" d="M326.1,493.3c-1.5,0-2.8-1-3.1-2.5-.4-1.7.7-3.4,2.4-3.8,1.7-.5,3.4.5,3.9,2.2.5,1.7-.6,3.5-2.2,3.9,0,0-.2,0-.2,0-.2,0-.5,0-.7,0Z"/>
    <path class="cls-2" d="M195.4,489.9c-.3,0-.6,0-.9-.1,0,0-.2,0-.2,0-1.7-.6-2.5-2.4-1.9-4.1.6-1.7,2.4-2.5,4.1-1.9,1.7.5,2.6,2.2,2.1,3.9-.4,1.4-1.7,2.3-3.1,2.3Z"/>
    <path class="cls-2" d="M351.3,485.4c-1.3,0-2.5-.8-3-2-.6-1.6.2-3.5,1.8-4.1l1.2,2.9,1.1,3c-.4.1-.8.2-1.1.2Z"/>
    <path class="cls-2" d="M170.6,480.6c-.4,0-.9,0-1.3-.3l1.3-2.9-1.3,2.9c-1.6-.6-2.4-2.4-1.8-4.1.6-1.6,2.5-2.4,4.2-1.8,0,0,.2,0,.3.1,1.6.7,2.3,2.6,1.6,4.2-.5,1.2-1.7,1.8-2.9,1.8Z"/>
    <path class="cls-2" d="M375.6,474.6c-1.2,0-2.3-.6-2.8-1.7-.8-1.5-.2-3.4,1.3-4.2,0,0,.1,0,.2,0,1.6-.8,3.5,0,4.2,1.5.8,1.6,0,3.5-1.5,4.2l-1.4-2.9,1.4,2.9c-.4.2-.9.3-1.4.3Z"/>
    <path class="cls-2" d="M147,468.6c-.5,0-1-.1-1.5-.4,0,0,0,0-.1,0-1.5-.9-2-2.8-1.1-4.3.9-1.5,2.8-2,4.3-1.1,1.5.9,2.1,2.8,1.2,4.3-.6,1-1.7,1.6-2.8,1.6Z"/>
    <path class="cls-2" d="M398.4,461.3c-1.1,0-2.1-.5-2.7-1.5-.9-1.5-.4-3.5,1.1-4.4,1.5-.9,3.4-.5,4.4,1,.9,1.5.5,3.4-.9,4.3,0,0-.1,0-.2.1-.5.3-1.1.5-1.6.5Z"/>
    <path class="cls-2" d="M124.9,454.1c-.6,0-1.3-.2-1.9-.6,0,0-.2-.1-.2-.1-1.4-1.1-1.6-3.1-.5-4.5,1.1-1.4,3.1-1.6,4.5-.5,1.4,1,1.8,2.9.7,4.4-.6.9-1.6,1.3-2.6,1.3Z"/>
    <path class="cls-2" d="M419.7,445.6c-.9,0-1.8-.4-2.5-1.2-1.1-1.4-.9-3.4.4-4.5,1.4-1.1,3.4-.9,4.5.4,1.1,1.4.9,3.3-.4,4.4h0c-.6.5-1.3.8-2,.8Z"/>
    <path class="cls-2" d="M104.4,437.2c-.8,0-1.6-.3-2.2-.9l2.2-2.3-2.2,2.3c-1.3-1.1-1.4-3.1-.3-4.4,1.1-1.3,3.2-1.5,4.5-.3,0,0,.1.1.2.2,1.3,1.2,1.3,3.2.1,4.5-.6.7-1.5,1-2.3,1Z"/>
    <path class="cls-2" d="M439.1,427.6c-.7,0-1.5-.3-2.1-.8-1.3-1.1-1.5-3.2-.3-4.5,0,0,.1-.2.2-.2,1.2-1.2,3.3-1.2,4.5,0,1.2,1.2,1.2,3.2,0,4.5-.6.7-1.5,1-2.3,1Z"/>
    <polygon class="cls-2" points="439.3 424.5 439.3 424.5 439.1 424.3 439.3 424.5"/>
    <path class="cls-2" d="M88.2,412.5s-.1-.1-.2-.2c-1.3-1.1-3.4-1-4.5.3-.6.6-.8,1.4-.8,2.2,0,0,0,0,0,0,0,0,0,0,0,0,0,.8.2,1.6.8,2.2l.2-.2s0,0,0,0l.9-.9h0s-.9.9-.9.9c.6.6,1.4.9,2.2.9s1.7-.3,2.3-1c1.2-1.3,1.2-3.3-.1-4.5Z"/>
    <path class="cls-2" d="M456.5,407.6c-.7,0-1.3-.2-1.9-.6-1.4-1.1-1.7-3-.6-4.4l2.6,1.9,2.5,2c-.6.8-1.6,1.3-2.5,1.3Z"/>
    <path class="cls-2" d="M69.7,397.4c-1,0-2-.5-2.6-1.4l2.6-1.8-2.6,1.8c-1-1.4-.6-3.4.8-4.4,1.4-1,3.4-.7,4.4.7,0,0,0,.1.1.2,1,1.5.6,3.4-.9,4.4-.5.4-1.2.5-1.8.5Z"/>
    <path class="cls-2" d="M471.5,385.8c-.6,0-1.2-.2-1.7-.5-1.5-.9-1.9-2.9-1-4.4.9-1.5,2.9-2,4.4-1,1.5.9,2,2.9,1,4.3h0c-.6,1-1.6,1.5-2.7,1.5Z"/>
    <path class="cls-2" d="M55.8,374.8c-1.1,0-2.2-.6-2.8-1.6,0,0,0,0,0,0-.8-1.5-.3-3.5,1.3-4.3,1.5-.8,3.5-.3,4.3,1.3.8,1.5.3,3.5-1.3,4.3-.5.3-1,.4-1.5.4Z"/>
    <path class="cls-2" d="M484.1,362.5c-.4,0-.9,0-1.3-.3-1.6-.7-2.3-2.6-1.6-4.2.7-1.6,2.6-2.3,4.2-1.6,1.6.7,2.3,2.6,1.6,4.2h0c-.5,1.2-1.7,1.9-2.9,1.9Z"/>
    <path class="cls-2" d="M44.5,350.9c-1.2,0-2.4-.7-2.9-1.9,0,0,0-.2,0-.2-.6-1.6.2-3.5,1.9-4.1,1.6-.6,3.5.2,4.1,1.9.6,1.6-.2,3.5-1.8,4.1-.4.2-.8.2-1.2.2Z"/>
    <path class="cls-2" d="M494.1,338c-.4,0-.7,0-1.1-.2-1.6-.6-2.5-2.4-1.9-4.1.6-1.6,2.4-2.5,4-1.9,1.6.6,2.5,2.3,2,4,0,0,0,.1,0,.2-.5,1.3-1.7,2.1-3,2.1Z"/>
    <path class="cls-2" d="M35.8,325.8c-1.4,0-2.6-.9-3-2.2,0,0,0-.2,0-.2-.4-1.7.6-3.4,2.3-3.9,1.7-.4,3.4.6,3.9,2.3.4,1.7-.6,3.4-2.2,3.9-.3,0-.6.1-.9.1Z"/>
    <path class="cls-2" d="M501.3,312.5c-.3,0-.5,0-.8-.1-1.7-.4-2.7-2.2-2.3-3.9.4-1.7,2.1-2.7,3.8-2.3,1.7.4,2.7,2,2.4,3.7,0,0,0,.2,0,.2-.4,1.4-1.7,2.4-3.1,2.4Z"/>
    <path class="cls-2" d="M30,300c-1.5,0-2.8-1.1-3.1-2.6,0,0,0-.1,0-.2-.2-1.7,1-3.3,2.7-3.6,1.7-.2,3.3,1,3.6,2.7.2,1.7-.9,3.3-2.6,3.6-.2,0-.3,0-.5,0Z"/>
    <path class="cls-2" d="M505.6,286.4c-.1,0-.2,0-.3,0-1.7-.2-3-1.7-2.8-3.5l3.2.3,3.2.4c-.2,1.6-1.5,2.8-3.2,2.8Z"/>
    <path class="cls-2" d="M27.1,273.7c-1.7,0-3-1.2-3.2-2.9,0,0,0-.1,0-.2,0-1.8,1.3-3.2,3.1-3.3,1.7,0,3.2,1.3,3.3,3.1,0,1.7-1.3,3.2-3,3.3,0,0-.1,0-.2,0Z"/>
    <path class="cls-2" d="M507.1,259.9c-1.8,0-3.2-1.4-3.2-3.2s0-.5,0-.7c0-.2,0-.5,0-.8,0-1.8,1.4-3.2,3.2-3.2s3.2,1.4,3.2,3.1h0c0,.3,0,.5,0,.8,0,.2,0,.5,0,.7h0c0,1.8-1.4,3.2-3.2,3.2Z"/>
    <path class="cls-2" d="M27.1,247.2c0,0-.1,0-.2,0-1.7,0-3.1-1.5-3-3.3,0,0,0-.1,0-.2.1-1.8,1.6-3.1,3.4-2.9,1.8.1,3.1,1.6,2.9,3.4-.1,1.7-1.5,3-3.2,3Z"/>
    <path class="cls-2" d="M505.5,232c-1.6,0-2.9-1.1-3.1-2.7,0,0,0-.1,0-.2-.2-1.7,1.1-3.3,2.8-3.5,1.7-.2,3.3,1.1,3.5,2.8l-3.2.3,3.2-.3c.2,1.7-1,3.3-2.8,3.5-.1,0-.3,0-.4,0Z"/>
    <path class="cls-2" d="M29.8,220.9c-.2,0-.4,0-.6,0-1.7-.3-2.9-2-2.6-3.7l3.1.6-3.1-.6c.3-1.7,1.9-2.9,3.6-2.6,1.7.3,2.9,1.8,2.6,3.6,0,0,0,.1,0,.2-.3,1.5-1.6,2.6-3.1,2.6Z"/>
    <path class="cls-2" d="M501,205.9c-1.4,0-2.7-.9-3.1-2.4,0,0,0-.2,0-.2-.4-1.7.7-3.4,2.4-3.8,1.7-.4,3.4.7,3.8,2.4l-3.1.7,3.1-.7c.4,1.7-.7,3.4-2.4,3.8-.3,0-.5,0-.7,0Z"/>
    <path class="cls-2" d="M35.5,195.1c-.3,0-.6,0-.9-.1-1.7-.5-2.6-2.3-2.1-3.9l3,.9-3-.9c.5-1.7,2.2-2.6,3.9-2.2,1.7.5,2.7,2.1,2.3,3.8,0,0,0,.2,0,.2-.4,1.4-1.7,2.3-3,2.3Z"/>
    <path class="cls-2" d="M493.7,180.4c-1.3,0-2.5-.8-2.9-2,0,0,0-.2,0-.2-.6-1.7.3-3.5,2-4,1.7-.6,3.5.3,4,2l-3,1,3-1c.6,1.6-.3,3.4-1.9,4-.4.1-.7.2-1.1.2Z"/>
    <path class="cls-2" d="M44,170c-.4,0-.8,0-1.2-.3-1.6-.7-2.4-2.5-1.7-4.2l2.9,1.2-2.9-1.2c.7-1.6,2.5-2.4,4.1-1.7,1.6.6,2.4,2.4,1.8,4,0,0,0,.2,0,.2-.5,1.2-1.7,1.9-2.9,1.9Z"/>
    <path class="cls-2" d="M483.6,156c-1.1,0-2.2-.6-2.8-1.7,0,0,0-.1,0-.2-.7-1.6,0-3.5,1.6-4.2,1.6-.7,3.5,0,4.2,1.6l-2.9,1.3,2.9-1.3c.7,1.6,0,3.4-1.5,4.2-.5.2-.9.3-1.4.3Z"/>
    <path class="cls-2" d="M55.2,145.9c-.5,0-1-.1-1.5-.4-1.5-.8-2.1-2.7-1.3-4.2,0,0,0-.1,0-.1.9-1.5,2.8-2.1,4.3-1.2,1.5.9,2.1,2.8,1.2,4.3-.6,1-1.7,1.6-2.8,1.6Z"/>
    <path class="cls-2" d="M470.9,132.8c-1.1,0-2.1-.5-2.7-1.5-.9-1.5-.5-3.5,1-4.4,1.5-.9,3.4-.5,4.4,1h0c.9,1.5.5,3.5-1,4.4-.5.3-1.1.5-1.7.5Z"/>
    <path class="cls-2" d="M455.7,111.1c-1,0-1.9-.4-2.6-1.3-1-1.4-.8-3.4.6-4.4,1.4-1.1,3.3-.9,4.4.5,0,0,.1.1.1.2,1,1.4.7,3.4-.7,4.4-.6.4-1.2.6-1.9.6Z"/>
    <path class="cls-2" d="M438.3,91.1c-.8,0-1.7-.3-2.3-1-1.2-1.3-1.2-3.3,0-4.5,1.2-1.2,3.2-1.2,4.4,0,0,0,0,0,.1.1,1.2,1.3,1.2,3.3-.1,4.5-.6.6-1.4.9-2.2.9Z"/>
    <path class="cls-2" d="M103.5,83.3c-.9,0-1.7-.4-2.4-1-1.2-1.3-1.1-3.3.2-4.5l2.1,2.4-2.1-2.4c1.3-1.2,3.3-1.1,4.5.1,1.2,1.2,1.2,3.2,0,4.4,0,0-.1.1-.2.2-.6.5-1.4.8-2.1.8Z"/>
    <path class="cls-3" d="M87.6,101.1c.1-.1.2-.3.3-.4,0,0,0,0,0-.1,0-.1.1-.3.2-.4,0,0,0-.2,0-.3,0,0,0-.2,0-.3,0-.1,0-.3,0-.4,0,0,0,0,0-.1,0-.9-.4-1.8-1.1-2.4-1.2-1.1-3-1-4.2,0,0,0,0,0,0,0h0s0,0,0,0h0s0,0,0,0c0,0-.1.1-.2.2h0c-1.1,1.2-1.1,3,0,4.3.6.7,1.5,1,2.4,1s1.5-.3,2.1-.8c0,0,.1-.1.2-.2,0,0,.1-.1.2-.2h0s0,0,0,0ZM85,99.1h0s0,0,0,0h0Z"/>
    <path class="cls-2" d="M70.8,117.5c-1.4-1-3.4-.6-4.4.8h0c-.9,1.2-.9,2.9.2,4.1.6.7,1.5,1,2.4,1s1.5-.3,2.1-.8c0,0,.1-.1.2-.2,0,0,.1-.1.2-.2h0s0,0,0,0c.1-.1.2-.3.3-.4,0,0,0,0,0-.1,0-.1.1-.3.2-.4,0,0,0-.2,0-.3,0,0,0-.2,0-.2.3-1.2-.2-2.5-1.3-3.3ZM68.9,120.2h0s0,0,0,0h0Z"/>
    <path class="cls-2" d="M418.8,73.2c-.7,0-1.4-.2-2-.7-1.4-1.1-1.6-3.1-.5-4.5,1.1-1.4,3.1-1.6,4.4-.5h0c1.4,1.2,1.6,3.2.4,4.5-.6.8-1.5,1.2-2.5,1.2Z"/>
    <path class="cls-1" d="M126.4,61.2c-.7-1-1.9-1.4-3-1.2,0,0,0,0,0,0-.2,0-.3,0-.5.1,0,0-.1,0-.2,0-.1,0-.2,0-.3.1-.1,0-.2.1-.3.2,0,0,0,0,0,0h0c0,0-.2.1-.3.2l2.1,2.4-2.1-2.4c-1.3,1.2-1.4,3.2-.2,4.5.6.7,1.5,1,2.4,1s1.4-.2,2-.7h0s0,0,.1,0c0,0,0,0,0,0,0,0,.1-.1.2-.2,0,0,0,0,0,0,1.1-1.1,1.3-2.9.3-4.2Z"/>
    <path class="cls-2" d="M148.6,46.8c-.8-1.4-2.5-1.9-3.9-1.3,0,0,0,0,0,0-.1,0-.2,0-.3.1,0,0,0,0,0,0,0,0,0,0,0,0h0c0,0-.2,0-.2.1,0,0,0,0,0,0h0c0,0-.2.1-.3.2l2.1,2.4-2.1-2.4c-1.3,1.2-1.4,3.2-.2,4.5.6.7,1.5,1,2.4,1s1.2-.2,1.7-.5h0c.1,0,.2-.1.3-.2h0s0,0,0,0c1.2-1,1.6-2.7.8-4.1Z"/>
    <path class="cls-2" d="M374.4,44.4c-.4,0-.9,0-1.3-.3,0,0-.1,0-.2,0-1.6-.8-2.2-2.7-1.4-4.3.8-1.6,2.7-2.2,4.3-1.4l-1.5,2.8,1.5-2.8c1.5.8,2.2,2.7,1.4,4.2-.6,1.1-1.7,1.8-2.8,1.8Z"/>
    <path class="cls-2" d="M169.4,39.5c-1.2,0-2.4-.7-2.9-1.9-.7-1.6,0-3.4,1.5-4.2,0,0,0,0,.1,0,1.6-.7,3.5,0,4.2,1.6.7,1.6,0,3.5-1.6,4.2-.4.2-.9.3-1.3.3Z"/>
    <path class="cls-2" d="M350.2,33.8c-.4,0-.8,0-1.1-.2-1.6-.6-2.5-2.5-1.9-4.1.6-1.6,2.4-2.5,4-1.9,0,0,0,0,0,0,1.6.6,2.5,2.5,1.8,4.1-.5,1.3-1.7,2-3,2Z"/>
    <path class="cls-2" d="M194.2,30.1c-1.4,0-2.6-.9-3.1-2.2-.5-1.7.3-3.4,2-4,0,0,.1,0,.2,0,1.7-.5,3.4.5,3.9,2.1.5,1.7-.5,3.4-2.1,3.9-.3,0-.6.1-.9.1Z"/>
    <path class="cls-2" d="M324.9,25.9c-.3,0-.5,0-.8-.1-1.7-.4-2.7-2.2-2.3-3.9.4-1.7,2.1-2.7,3.8-2.3,0,0,0,0,0,0,1.7.4,2.7,2.2,2.3,3.9-.4,1.4-1.7,2.4-3.1,2.4Z"/>
    <path class="cls-1" d="M219.8,23.5c-1.5,0-2.8-1-3.1-2.6-.3-1.7.7-3.3,2.4-3.7,0,0,.1,0,.2,0,1.7-.3,3.4.8,3.7,2.6.3,1.7-.8,3.4-2.6,3.7-.2,0-.4,0-.6,0Z"/>
    <path class="cls-2" d="M298.9,21c-.1,0-.2,0-.3,0,0,0-.1,0-.2,0-1.7-.2-2.9-1.9-2.7-3.6.2-1.7,1.9-2.9,3.6-2.7l-.4,3.1.5-3.1c1.7.2,2.9,1.8,2.7,3.5-.2,1.6-1.5,2.8-3.1,2.8Z"/>
    <path class="cls-2" d="M246,19.8c-1.7,0-3-1.3-3.2-2.9-.1-1.7,1.2-3.3,2.9-3.4l.2,3.2-.2-3.2c1.7-.1,3.3,1.2,3.4,2.9.2,1.7-1.1,3.3-2.8,3.4,0,0-.1,0-.2,0,0,0-.2,0-.2,0Z"/>
    <path class="cls-2" d="M272.5,18.9s-.1,0-.2,0c-1.8,0-3.1-1.5-3.1-3.3,0-1.8,1.6-3.1,3.3-3.1v3.2c-.1,0,0-3.2,0-3.2,1.7,0,3.1,1.5,3.1,3.2,0,1.7-1.4,3.1-3.2,3.1Z"/>
    <path class="cls-2" d="M269.1,490.4c0,0-.1,0-.2,0l.2-3.2-.2,3.2c-1.8,0-3.1-1.4-3.1-3.2s1.5-3.2,3.2-3.2.2,0,.3,0c1.8.1,3.1,1.6,3,3.4-.1,1.7-1.5,3-3.2,3Z"/>
    <path class="cls-2" d="M299.7,489.5c-1.7,0-3.1-1.3-3.2-3-.1-1.8,1.2-3.3,3-3.4,1.7-.2,3.3,1,3.5,2.8.2,1.7-1.1,3.3-2.8,3.5,0,0-.2,0-.3,0,0,0-.1,0-.2,0Z"/>
    <path class="cls-2" d="M238.8,480.7c0,0-.2,0-.3,0-.5,0-.9.1-1.3.3-.1,0-.2.1-.3.2,0,0-.1,0-.2.1-.1,0-.3.2-.4.3,0,0,0,0,0,0-.1.1-.2.2-.3.4,0,0,0,0,0,.1,0,0-.1.2-.2.3,0,0,0,.2-.1.3,0,0,0,.1,0,.2,0,.1,0,.3-.1.4,0,0,0,0,0,0,0,0,0,.1,0,.2,0,.1,0,.2,0,.3s0,0,0,0c0,.1,0,.3,0,.4,0,0,0,.2,0,.2,0,.1,0,.2,0,.3,0,0,0,.2,0,.3,0,0,0,.1,0,.2,0,.1.1.3.2.4,0,0,0,0,0,0,.1.2.2.3.4.4,0,0,0,0,0,0,.1.1.3.2.4.3,0,0,.1,0,.2,0,.1,0,.2.1.3.2.2,0,.3.1.5.2,0,0,0,0,0,0,0,0,0,0,.1,0h0c.2,0,.3,0,.5,0l.2-3.2-.2,3.2c0,0,.1,0,.2,0,1.7,0,3.1-1.3,3.2-3,.1-1.8-1.2-3.3-3-3.4Z"/>
    <path class="cls-2" d="M329.9,484.5c-1.5,0-2.8-1.1-3.1-2.6-.3-1.7.8-3.4,2.5-3.7,1.7-.4,3.4.6,3.8,2.3.4,1.7-.7,3.4-2.4,3.9,0,0-.2,0-.3,0-.2,0-.4,0-.6,0Z"/>
    <path class="cls-2" d="M208.7,479.8c-.3,0-.6,0-.9-.1,0,0,0,0-.1,0-1.7-.5-2.6-2.3-2-4,.5-1.7,2.3-2.6,4-2,1.7.5,2.6,2.3,2.1,4-.4,1.4-1.7,2.2-3,2.2Z"/>
    <path class="cls-2" d="M359.3,475.4c-1.3,0-2.5-.8-2.9-2-.7-1.6.1-3.5,1.8-4.1l1.3,2.9,1.1,3c-.4.2-.8.2-1.2.2Z"/>
    <path class="cls-3" d="M180.2,470.6c-.7,0-1.5-.2-2.2-.5,0,0-.2,0-.2,0-2.6-1.3-3.8-4.5-2.5-7.1,1.3-2.6,4.4-3.8,7.1-2.5,2.6,1.3,3.8,4.5,2.5,7.1-.9,1.9-2.8,3.1-4.8,3.1Z"/>
    <path class="cls-2" d="M387.1,462.5c-1.1,0-2.2-.6-2.8-1.6-.9-1.5-.3-3.5,1.2-4.3l1.6,2.7,1.5,2.8c-.5.3-1,.4-1.6.4Z"/>
    <path class="cls-2" d="M153.4,453.3c-.6,0-1.2-.2-1.7-.5,0,0,0,0-.1,0-1.5-1-1.9-2.9-.9-4.4,1-1.5,2.9-1.9,4.4-.9,1.5,1,1.9,2.9.9,4.4-.6.9-1.6,1.5-2.7,1.5Z"/>
    <path class="cls-2" d="M412.9,445.9c-1,0-2-.5-2.6-1.4-1-1.5-.6-3.4.9-4.4,1.4-1.1,3.3-.8,4.4.6,1.1,1.4.8,3.4-.6,4.5,0,0-.2.1-.2.2-.5.4-1.2.5-1.8.5Z"/>
    <path class="cls-2" d="M128.9,434.8c-.7,0-1.5-.3-2.1-.8l2.1-2.4-2.1,2.4c-1.3-1.1-1.5-3.1-.4-4.4,1.1-1.3,3-1.5,4.4-.5,0,0,.1.1.2.1,1.3,1.2,1.4,3.2.3,4.5-.6.7-1.5,1.1-2.4,1.1Z"/>
    <path class="cls-2" d="M436.3,426.1c-.8,0-1.6-.3-2.2-.9-1.3-1.2-1.3-3.3,0-4.5,0,0,.2-.2.2-.2,1.3-1.2,3.3-1.1,4.5.2,1.2,1.3,1.1,3.3-.2,4.5l-2.1-2.3,2.1,2.3c-.6.6-1.4,1-2.2,1Z"/>
    <path class="cls-2" d="M107.2,413.2c-.9,0-1.8-.4-2.4-1.1,0,0-.1-.2-.2-.2-1.1-1.4-.9-3.4.5-4.5,1.4-1.1,3.4-.9,4.5.5,1.2,1.3,1.1,3.3-.2,4.4-.6.5-1.4.8-2.1.8Z"/>
    <path class="cls-2" d="M456.9,403.2c-.7,0-1.4-.2-2-.7-1.4-1.1-1.6-3.1-.5-4.5,1.1-1.4,3.1-1.6,4.5-.5,1.4,1.1,1.6,3,.6,4.4,0,0,0,0,0,.1-.6.8-1.5,1.2-2.5,1.2Z"/>
    <path class="cls-2" d="M88.4,388.8c-1,0-2.1-.5-2.7-1.5l2.7-1.7-2.7,1.7c-1-1.4-.7-3.4.7-4.4,1.4-1,3.4-.7,4.5.7,0,0,.1.2.1.2.9,1.5.5,3.4-1,4.4-.5.3-1.1.5-1.7.5Z"/>
    <path class="cls-2" d="M474.3,378c-.5,0-1-.1-1.5-.4-1.5-.8-2.1-2.8-1.3-4.3,0,0,0-.2.1-.2.9-1.5,2.9-2,4.4-1.1,1.5.9,2,2.9,1.1,4.4l-2.7-1.6,2.7,1.7c-.6,1.1-1.6,1.6-2.7,1.6Z"/>
    <path class="cls-2" d="M73.1,362.2c-1.2,0-2.3-.7-2.9-1.8l2.9-1.3-2.9,1.3c-.8-1.5-.2-3.4,1.3-4.3,1.5-.8,3.5-.2,4.3,1.3,0,0,0,.2.1.2.7,1.6,0,3.5-1.5,4.2-.4.2-.9.3-1.3.3Z"/>
    <path class="cls-2" d="M488.1,350.5c-.4,0-.8,0-1.2-.2-1.6-.7-2.4-2.5-1.7-4.2l3,1.2,2.9,1.3c-.5,1.2-1.7,1.9-2.9,1.9Z"/>
    <path class="cls-2" d="M64.3,328.8c0,0,0-.2-.1-.2-.8-1.5-2.8-2.2-4.3-1.3-1.4.7-2,2.3-1.5,3.7,0,.2,0,.5.1.7h.1c.6,1,1.7,1.7,2.8,1.7s.9,0,1.3-.3c1.6-.7,2.3-2.6,1.5-4.2Z"/>
    <path class="cls-2" d="M498.2,321.5c-.3,0-.5,0-.8-.1-1.7-.4-2.7-2.1-2.3-3.8,0,0,0-.1,0-.2.5-1.7,2.2-2.7,3.9-2.2,1.7.5,2.7,2.2,2.2,3.9l-3.1-.9,3.1.9c-.4,1.4-1.7,2.4-3.1,2.4Z"/>
    <path class="cls-5" d="M53.7,306.7c-2.7,0-5.1-1.9-5.6-4.6,0,0,0-.2,0-.2-.6-3.1,1.5-6.1,4.6-6.7,3.1-.6,6.1,1.5,6.7,4.6.6,3.1-1.5,6.1-4.6,6.7-.4,0-.7,0-1.1,0Z"/>
    <path class="cls-2" d="M504.4,291.4c-.2,0-.3,0-.5,0-1.7-.3-2.9-1.9-2.6-3.6.3-1.7,1.9-2.9,3.6-2.7,1.7.2,2.9,1.8,2.7,3.5,0,0,0,.1,0,.2-.2,1.6-1.6,2.7-3.1,2.7Z"/>
    <path class="cls-2" d="M50,273.6c-1.7,0-3.1-1.3-3.2-2.9,0,0,0-.1,0-.2,0-1.8,1.3-3.2,3.1-3.3,1.7,0,3.2,1.3,3.3,3.1,0,1.7-1.3,3.2-3,3.3,0,0-.1,0-.2,0Z"/>
    <path class="cls-2" d="M506.4,260.8c-1.8,0-3.2-1.4-3.2-3.2s1.4-3.2,3.2-3.2,3.2,1.4,3.2,3.1h0c0,1.8-1.4,3.3-3.2,3.3Z"/>
    <path class="cls-2" d="M50.3,242.9c0,0-.2,0-.2,0-1.7-.1-3-1.6-2.9-3.3,0,0,0-.1,0-.2.2-1.7,1.7-3,3.5-2.9,1.7.2,3,1.7,2.9,3.5-.1,1.6-1.5,2.9-3.2,2.9Z"/>
    <path class="cls-2" d="M505,234.6c-1.6,0-3-1.2-3.2-2.9-.2-1.7,1.1-3.3,2.8-3.5,1.7-.2,3.3,1,3.5,2.7,0,0,0,.1,0,.2.2,1.7-1.1,3.3-2.9,3.5-.1,0-.2,0-.3,0Z"/>
    <path class="cls-4" d="M54.7,214.8c-.4,0-.8,0-1.1-.1-2.9-.6-4.7-3.5-4.1-6.4l5.2,1.1-5.2-1.2c.6-2.9,3.4-4.7,6.3-4.2,2.9.6,4.8,3.3,4.2,6.2,0,0,0,.3,0,.3-.5,2.5-2.8,4.2-5.2,4.2Z"/>
    <path class="cls-2" d="M499.5,204.3c-1.4,0-2.7-1-3.1-2.4-.4-1.7.6-3.5,2.3-3.9,1.7-.4,3.4.6,3.8,2.3h0c.4,1.8-.6,3.5-2.3,3.9-.3,0-.5,0-.8,0Z"/>
    <path class="cls-2" d="M66.1,180.8l-3-1-3-1.1c.6-1.7,2.4-2.5,4-2,1.7.6,2.5,2.4,2,4Z"/>
    <path class="cls-2" d="M63,179.8h0,0Z"/>
    <path class="cls-2" d="M490,175.1c-1.2,0-2.4-.7-2.9-1.9l2.9-1.3,2.9-1.2-2.9,1.2,3-1.2c.7,1.6-.1,3.5-1.7,4.1-.4.2-.8.2-1.2.2Z"/>
    <path class="cls-2" d="M78.1,153l-2.9-1.4-2.8-1.5c.8-1.6,2.7-2.2,4.3-1.4,1.6.8,2.2,2.7,1.4,4.3Z"/>
    <path class="cls-2" d="M75.3,151.6h0,0Z"/>
    <path class="cls-2" d="M476.7,147.5c-1.1,0-2.2-.6-2.8-1.6l2.7-1.6,2.8-1.5-2.8,1.5,2.8-1.5c.9,1.5.3,3.5-1.2,4.3-.5.3-1,.4-1.6.4Z"/>
    <path class="cls-2" d="M91.1,128.5c-.6,0-1.3-.2-1.8-.6-1.4-1-1.8-3-.8-4.4h0c1-1.5,3-1.8,4.4-.8,1.4,1,1.8,3,.8,4.4-.6.9-1.6,1.4-2.6,1.4Z"/>
    <path class="cls-5" d="M75.2,154.8c-.6,0-1.3-.2-1.8-.6-1.4-1-1.8-3-.8-4.4h0c1-1.5,3-1.8,4.4-.8,1.4,1,1.8,3,.8,4.4-.6.9-1.6,1.4-2.6,1.4Z"/>
    <path class="cls-2" d="M63.1,183c-.6,0-1.3-.2-1.8-.6-1.4-1-1.8-3-.8-4.4h0c1-1.5,3-1.8,4.4-.8,1.4,1,1.8,3,.8,4.4-.6.9-1.6,1.4-2.6,1.4Z"/>
    <path class="cls-2" d="M459.9,121.8c-1,0-2-.5-2.6-1.3-1-1.4-.7-3.4.7-4.4,1.4-1,3.3-.8,4.4.6,0,0,0,.1.1.2,1,1.4.7,3.4-.8,4.4-.6.4-1.2.6-1.8.6Z"/>
    <path class="cls-2" d="M110.4,104.5c-.8,0-1.5-.3-2.1-.8-1.3-1.2-1.4-3.2-.2-4.5,0,0,0,0,0,0,1.2-1.3,3.2-1.4,4.5-.2s1.4,3.2.2,4.5c-.6.7-1.5,1-2.4,1Z"/>
    <path class="cls-2" d="M439.8,98.6c-.8,0-1.7-.3-2.3-1-1.2-1.3-1.2-3.3,0-4.5,1.2-1.2,3.2-1.2,4.4,0,0,0,0,0,.1.1,1.2,1.3,1.2,3.3,0,4.5-.6.6-1.4.9-2.2.9Z"/>
    <path class="cls-2" d="M132.6,83.3c-.9,0-1.8-.4-2.4-1.1-1.1-1.3-1-3.3.4-4.4,0,0,0,0,.1,0,1.4-1.1,3.4-.9,4.5.5,1.1,1.4.9,3.4-.5,4.5-.6.5-1.3.7-2,.7Z"/>
    <path class="cls-2" d="M416.8,78.2c-.7,0-1.4-.2-2-.7-1.4-1.1-1.6-3.1-.5-4.5,1.1-1.4,3-1.6,4.4-.6,0,0,.1,0,.1,0,1.4,1.1,1.6,3.1.5,4.5-.6.8-1.5,1.2-2.5,1.2Z"/>
    <path class="cls-2" d="M184.5,50.8c-1.2,0-2.4-.7-2.9-1.9-.7-1.6,0-3.4,1.5-4.2,0,0,.1,0,.1,0,1.6-.7,3.5,0,4.2,1.7.7,1.6,0,3.5-1.7,4.2-.4.2-.9.3-1.3.3Z"/>
    <path class="cls-2" d="M160.4,60.9c-.2-.6-.7-1-1.1-1.4,0,0,0,0,0,0-.1,0-.2-.1-.3-.2,0,0-.2,0-.2-.1,0,0,0,0-.1,0-.9-.3-1.9-.3-2.8.3h0c-1.4.9-1.9,2.6-1.2,4,.5,1.2,1.7,1.9,2.9,1.9s.9,0,1.3-.3c1.6-.7,2.3-2.6,1.7-4.2Z"/>
    <path class="cls-2" d="M213.2,40.1c-1.4,0-2.7-.9-3.1-2.3-.5-1.7.5-3.4,2.2-3.9l.9,3.1-.8-3.1c1.7-.5,3.4.5,3.9,2.1.5,1.7-.4,3.4-2,3.9,0,0-.1,0-.2,0-.3,0-.6.1-.9.1Z"/>
    <path class="cls-2" d="M334.7,37.8c-.3,0-.6,0-.9-.1-1.7-.5-2.7-2.2-2.2-3.9.4-1.7,2.1-2.7,3.8-2.3,0,0,.1,0,.2,0,1.7.5,2.7,2.2,2.2,3.9-.4,1.4-1.7,2.3-3.1,2.3Z"/>
    <path class="cls-2" d="M365.6,41.8c0,0-.1,0-.2-.1,0,0-.2,0-.2-.1,0,0-.1,0-.2-.1h0c0,0-.2,0-.3,0,0,0-.1,0-.2,0-1.7-.4-3.4.6-3.8,2.3-.4,1.6.4,3.1,1.9,3.7h0s0,0,0,0c.1,0,.2,0,.3.1,0,0,.1,0,.2,0,0,0,0,0,.1,0,.2,0,.4,0,.5,0,1.4,0,2.7-.9,3.1-2.3.4-1.3-.2-2.7-1.3-3.5Z"/>
    <path class="cls-1" d="M394.5,58.4c0,0,0-.1,0-.2,0-.3,0-.6,0-1,0,0,0-.1,0-.2,0-.2-.1-.3-.2-.4,0-.1-.1-.3-.2-.4,0-.1-.2-.3-.3-.4-.1-.2-.3-.3-.5-.4,0,0,0,0-.1-.1,0,0-.1,0-.2-.1,0,0-.2,0-.2-.1,0,0-.1,0-.2-.1h0c0,0-.2,0-.3,0,0,0-.1,0-.2,0-1.7-.4-3.4.6-3.8,2.3-.4,1.4.3,2.8,1.5,3.5h0c.1.1.3.1.4.2,0,0,0,0,0,0h0s0,0,0,0c.4.1.8.2,1.1.2s0,0,0,0,0,0,0,0c0,0,0,0,.1,0,.2,0,.5,0,.7-.1.2,0,.3-.1.4-.2.1,0,.2-.1.4-.2.2-.1.3-.2.5-.3,0,0,.1-.1.2-.2.2-.2.3-.3.4-.5,0,0,0,0,0,0,0,0,0-.2.1-.2,0-.2.2-.3.2-.5,0-.1,0-.3,0-.4Z"/>
    <path class="cls-2" d="M400.5,53.7s0,0,0,0c0,0,0-.1,0-.2,0-.1,0-.2-.1-.3,0,0,0,0,0,0,0,0,0,0,0,0,0-.1-.1-.3-.2-.4h0c0,0-.1-.2-.2-.3,0,0,0,0,0-.1,0,0,0,0,0,0-.1-.1-.2-.2-.3-.3,0,0,0,0,0,0,0,0,0,0-.1-.1,0,0-.1,0-.2-.1,0,0-.2,0-.2-.1,0,0-.1,0-.2-.1h0c0,0-.2,0-.3,0,0,0-.1,0-.2,0-1.7-.4-3.4.6-3.8,2.3-.4,1.3.2,2.7,1.4,3.4h0c0,0,.1,0,.2.1h0c.1,0,.2.1.4.2,0,0,0,0,0,0h0s0,0,0,0c.2,0,.3.1.5.2.2,0,.4,0,.6,0,0,0,0,0,0,0s0,0,0,0c0,0,0,0,0,0,0,0,0,0,0,0,0,0,0,0,0,0,0,0,0,0,.1,0,.2,0,.5,0,.7-.1,0,0,0,0,0,0,0,0,.2,0,.2-.1.2,0,.3-.1.5-.2,0,0,0,0,0,0,0,0,.1-.1.2-.2.1,0,.2-.1.3-.2,0,0,0,0,.1-.1,0,0,0-.1.2-.2,0,0,.1-.1.2-.2,0,0,0,0,0,0,0,0,0,0,0,0,0,0,0,0,0,0,0,0,0-.2.1-.2,0,0,0,0,0-.1,0,0,0,0,0,0,0,0,.1-.2.1-.3,0-.1,0-.3,0-.4,0,0,0-.1,0-.2,0,0,0,0,0,0,0-.3,0-.6,0-.9Z"/>
    <path class="cls-2" d="M243.7,33.3l-.6-3.1-.4-3.1c1.7-.3,3.4.9,3.6,2.6.3,1.7-.9,3.4-2.6,3.6Z"/>
    <path class="cls-2" d="M304.5,32.2c0,0-.2,0-.3,0,0,0-.1,0-.2,0-1.7-.2-3-1.8-2.8-3.5.2-1.7,1.8-3,3.5-2.8l-.4,3.2.4-3.2c1.7.2,3,1.8,2.8,3.5-.2,1.6-1.5,2.8-3.1,2.8Z"/>
    <path class="cls-3" d="M273.8,32.9c-2.9,0-5.4-2.4-5.4-5.3s2.2-5.4,5.1-5.4c3.1,0,5.7,2.3,5.7,5.4,0,3-2.4,5.4-5.4,5.4Z"/>
    <path class="cls-2" d="M243.2,33.3c-1.7,0-3.2-1.4-3.2-3.1,0-1.7,1.3-3.2,3-3.2,1.8,0,3.3,1.4,3.3,3.2,0,1.8-1.4,3.2-3.2,3.2Z"/>
    <path class="cls-2" d="M243.2,30.2h0,0Z"/>
    <path class="cls-2" d="M281.2,479.2s0,0-.1,0v-2.3c.1,0,0,2.3,0,2.3-1.2,0-2.2-1.1-2.2-2.3,0-1.2,1-2.2,2.2-2.2s.2,0,.2,0c1.2,0,2.2,1.1,2.1,2.4,0,1.2-1.1,2.1-2.3,2.1Z"/>
    <path class="cls-2" d="M316,477.7c-1.1,0-2.1-.8-2.3-1.9-.2-1.2.6-2.3,1.9-2.5,0,0,.2,0,.2,0,1.2-.1,2.4.8,2.5,2,.1,1.2-.8,2.4-2,2.5l-.2-2.2.2,2.2c0,0-.2,0-.3,0Z"/>
    <path class="cls-2" d="M246.5,475.2c-.2,0-.3,0-.5,0l.5-2.2-.5,2.2c-1.2-.3-2-1.4-1.8-2.6.2-1.2,1.4-2,2.6-1.8,0,0,.2,0,.2,0,1.2.3,2,1.5,1.7,2.7-.2,1.1-1.2,1.8-2.2,1.8Z"/>
    <path class="cls-2" d="M350.2,470.5c-1,0-1.9-.6-2.2-1.6-.4-1.2.3-2.4,1.4-2.8,0,0,.2,0,.2,0,1.2-.3,2.4.4,2.8,1.6.3,1.2-.4,2.4-1.6,2.8l-.6-2.2.6,2.2c-.2,0-.4,0-.6,0Z"/>
    <path class="cls-2" d="M213,465.5c-.3,0-.6,0-.8-.2l.8-2.1-.9,2.1c-1.1-.4-1.7-1.7-1.3-2.9.4-1.1,1.6-1.8,2.8-1.4,0,0,.2,0,.2,0,1.2.5,1.7,1.8,1.3,2.9-.4.9-1.2,1.4-2.1,1.4Z"/>
    <path class="cls-2" d="M382.7,457.7c-.8,0-1.6-.4-2-1.2-.6-1.1-.2-2.4.9-3,0,0,.2,0,.2,0,1.1-.5,2.5,0,3,1.1.5,1.1,0,2.5-1.1,3l-1-2,.9,2c-.3.2-.7.2-1,.2Z"/>
    <path class="cls-2" d="M181.4,450.4c-.4,0-.7,0-1.1-.3,0,0-.1,0-.1,0-1.1-.6-1.4-2-.8-3.1.6-1.1,2-1.4,3.1-.8,1.1.6,1.4,2,.8,3.1-.4.7-1.2,1.1-1.9,1.1Z"/>
    <path class="cls-2" d="M412.7,439.9c-.7,0-1.4-.4-1.9-1-.7-1-.4-2.4.6-3.1,1-.7,2.4-.4,3.1.6.7,1,.5,2.4-.5,3.1,0,0-.1,0-.1,0-.4.3-.8.4-1.2.4Z"/>
    <path class="cls-2" d="M152.7,430.5c-.5,0-1-.2-1.4-.5h0c-1-.9-1.1-2.3-.3-3.2.8-1,2.2-1.1,3.2-.3,1,.8,1.1,2.2.3,3.2-.5.5-1.1.8-1.7.8Z"/>
    <path class="cls-2" d="M439.5,417.6c-.6,0-1.2-.2-1.6-.7-.9-.9-.9-2.3,0-3.2l1.7,1.5,1.5,1.7c-.4.4-1,.7-1.6.7Z"/>
    <path class="cls-2" d="M127.5,406.3c-.6,0-1.2-.2-1.6-.7,0,0,0,0,0-.1-.8-.9-.7-2.4.2-3.2.9-.8,2.4-.7,3.2.2.8.9.7,2.4-.2,3.2-.4.4-1,.6-1.5.6Z"/>
    <path class="cls-2" d="M462.5,391.2c-.5,0-1-.2-1.4-.5-1-.8-1.2-2.2-.4-3.2.8-1,2.2-1.2,3.2-.5,1,.7,1.2,2.1.5,3.1,0,0,0,0,0,.1-.4.6-1.1.9-1.8.9Z"/>
    <path class="cls-2" d="M104.7,377.3l1.9-1.2-1.9,1.2c-.7-1-.4-2.4.7-3.1,1-.7,2.4-.4,3.1.6l-1.8,1.3-1.9,1.2Z"/>
    <path class="cls-2" d="M481,361.6c-.4,0-.8,0-1.1-.3-1.1-.6-1.5-2-.9-3.1.6-1.1,2-1.5,3-.9,1.1.6,1.5,1.9,1,3,0,0,0,.1,0,.2-.4.7-1.2,1.2-2,1.2Z"/>
    <path class="cls-2" d="M90.3,347.5c-.9,0-1.7-.5-2-1.3,0,0,0-.1,0-.2-.5-1.2.1-2.5,1.3-2.9,1.2-.5,2.5.1,2.9,1.3.5,1.1,0,2.5-1.2,3-.3.1-.6.2-.9.2Z"/>
    <path class="cls-2" d="M494.6,329.5c-.2,0-.5,0-.7-.1-1.2-.4-1.8-1.7-1.4-2.9.4-1.2,1.7-1.8,2.9-1.4,1.2.4,1.8,1.6,1.4,2.8,0,0,0,0,0,.1-.3.9-1.2,1.5-2.1,1.5Z"/>
    <path class="cls-2" d="M79.2,314.4c-1,0-1.9-.7-2.2-1.7,0,0,0,0,0,0-.3-1.2.4-2.4,1.7-2.7,1.2-.3,2.4.4,2.7,1.7.3,1.2-.4,2.5-1.6,2.8-.2,0-.4,0-.6,0Z"/>
    <path class="cls-2" d="M503,295.5c-.1,0-.2,0-.4,0-1.2-.2-2.1-1.4-1.9-2.6.2-1.2,1.4-2.1,2.6-1.9,1.2.2,2.1,1.3,1.9,2.5h0c-.2,1.2-1.1,2-2.2,2Z"/>
    <path class="cls-2" d="M505.8,260.7c-1.2,0-2.3-1-2.3-2.3s.7-1.9,1.6-2.2c-.9-.3-1.6-1.1-1.6-2.2s1-2.3,2.2-2.3c1.2,0,2.3.9,2.3,2.2,0,0,0,.1,0,.1,0,1-.7,1.9-1.6,2.2.9.3,1.6,1.1,1.6,2.1h0c0,1.3-1,2.3-2.3,2.3Z"/>
    <path class="cls-2" d="M502.3,221.6c-1.1,0-2-.8-2.2-1.9-.2-1.2.6-2.4,1.8-2.6,1.2-.2,2.4.5,2.6,1.8,0,0,0,.1,0,.1.2,1.2-.6,2.4-1.9,2.6-.1,0-.2,0-.4,0Z"/>
    <path class="cls-2" d="M78.3,210.5c-.2,0-.3,0-.5,0-1.2-.3-2-1.4-1.7-2.6,0,0,0-.1,0-.2.3-1.2,1.5-1.9,2.7-1.6,1.2.3,1.9,1.5,1.6,2.7-.3,1-1.2,1.8-2.2,1.8Z"/>
    <path class="cls-2" d="M75.4,242.5c0-1.1-1-2-2.1-2.1-1.2,0-2.2.8-2.3,1.9,0,0,0,0,0,0,0,0,0,0,0,0,0,0,0,.1,0,.2h0c-.1,1.1.6,2.2,1.7,2.4.2,0,.3,0,.5,0,1,0,2-.7,2.2-1.8,0-.3,0-.5,0-.8Z"/>
    <path class="cls-2" d="M75.7,277.4c0-.5-.3-1-.6-1.3,0,0,0,0,0,0-.2-.2-.4-.3-.6-.4,0,0,0,0,0,0-.2,0-.5-.2-.7-.2,0,0,0,0,0,0,0,0,0,0,0,0-.1,0-.2,0-.3,0-.2,0-.3,0-.5,0,0,0,0,0,0,0-.2,0-.5.2-.7.4,0,0,0,0,0,0-.2.2-.4.4-.5.6,0,0,0,0,0,0-.1.2-.2.5-.3.8,0,0,0,0,0,0,0,0,0,0,0,0,0,0,0,0,0,0,0,0,0,0,0,.1,0,0,0,0,0,0h0s0,0,0,0c0,.1,0,.2,0,.3h0c0,1,.7,1.8,1.7,2.1.2,0,.3,0,.5,0,1,0,2-.7,2.2-1.8,0-.3,0-.5,0-.8,0,0,0,0,0,0h0Z"/>
    <path class="cls-2" d="M493.4,187.9c-.9,0-1.8-.6-2.1-1.5l2.1-.8,2.1-.7-2.1.7,2.2-.7c.4,1.2-.2,2.5-1.4,2.9-.3,0-.5.1-.8.1Z"/>
    <path class="cls-2" d="M88.9,177.2c-.3,0-.6,0-.8-.2-1.1-.5-1.7-1.7-1.2-2.9,0,0,0-.1,0-.1.5-1.1,1.8-1.7,3-1.2,1.1.5,1.7,1.8,1.2,3-.4.9-1.2,1.4-2.1,1.4Z"/>
    <path class="cls-2" d="M479.3,156c-.8,0-1.6-.4-2-1.2-.6-1.1-.2-2.5.9-3.1,1.1-.6,2.4-.2,3,.9h0c.6,1.2.2,2.5-.9,3.1-.3.2-.7.3-1.1.3Z"/>
    <path class="cls-2" d="M106.6,144.8l-2-1.1-1.9-1.2c.6-1.1,2-1.4,3.1-.8,1.1.6,1.4,2,.8,3.1Z"/>
    <path class="cls-2" d="M104.6,143.7h0,0Z"/>
    <path class="cls-2" d="M460.2,126.7c-.7,0-1.4-.3-1.8-.9-.8-1-.6-2.4.4-3.2,1-.8,2.4-.6,3.1.4,0,0,0,0,0,0,.8,1,.6,2.4-.4,3.2-.4.3-.9.5-1.4.5Z"/>
    <path class="cls-2" d="M125.1,117.7c-.5,0-1-.2-1.5-.5-.9-.8-1.1-2.2-.3-3.1,0,0,0-.1.1-.1.8-.9,2.3-1,3.2-.2.9.8,1,2.3.2,3.2-.5.5-1.1.8-1.7.8Z"/>
    <path class="cls-2" d="M104.6,146c-.5,0-1-.2-1.5-.5-.9-.8-1.1-2.2-.3-3.1,0,0,0-.1.1-.1.8-.9,2.3-1,3.2-.2.9.8,1,2.3.2,3.2-.5.5-1.1.8-1.7.8Z"/>
    <path class="cls-2" d="M436.8,100.7c-.5,0-1.1-.2-1.5-.6,0,0-.1,0-.1-.1-.9-.9-.9-2.3,0-3.2.9-.9,2.3-.9,3.2,0l-1.6,1.6,1.6-1.6c.9.8,1,2.3.1,3.2-.4.5-1.1.7-1.7.7Z"/>
    <path class="cls-2" d="M149.8,93c-.6,0-1.3-.3-1.7-.8-.8-1-.7-2.4.3-3.2l1.4,1.7-1.4-1.8c.9-.8,2.4-.7,3.2.2.8.9.7,2.3-.2,3.2,0,0-.1,0-.1.1-.4.3-.9.5-1.4.5Z"/>
    <path class="cls-2" d="M409.6,78.8c-.4,0-.9-.1-1.3-.4-1-.7-1.3-2.1-.6-3.2.7-1,2.1-1.3,3.1-.6h0c1,.7,1.3,2.2.6,3.2-.4.6-1.1,1-1.9,1Z"/>
    <path class="cls-2" d="M180.1,69.1c-.7-1.1-2-1.4-3.1-.7h0c-.1,0-.2.1-.3.2l1.4,1.8-1.4-1.7c-1,.8-1.1,2.2-.3,3.2.4.5,1.1.8,1.7.8s.9-.2,1.3-.4h0c1.1-.6,1.4-2,.7-3.1Z"/>
    <path class="cls-2" d="M379.3,61.5c-.3,0-.6,0-1-.2-1.1-.5-1.7-1.9-1.1-3,.5-1.1,1.8-1.6,3-1.1h0c1.1.6,1.6,1.9,1.1,3-.4.8-1.2,1.3-2,1.3Z"/>
    <path class="cls-2" d="M211.5,53.8c-.4-1-1.4-1.5-2.3-1.4,0,0-.1,0-.2,0,0,0,0,0,0,0-.3,0-.5.1-.8.3h0c-.1,0-.2.1-.3.2l1.4,1.8-1.4-1.7c-1,.8-1.1,2.2-.3,3.2.4.5,1.1.8,1.7.8s.7-.1,1-.3h0c1.2-.4,1.7-1.8,1.2-2.9Z"/>
    <path class="cls-2" d="M277.3,41.9c-1.2,0-2.2-.9-2.3-2.1,0-1.2.8-2.3,2.1-2.4h0c1.3,0,2.3.9,2.4,2.1,0,1.2-.9,2.3-2.1,2.4,0,0,0,0-.1,0Z"/>
    <path class="cls-2" d="M312.5,38.3h0c-.2,0-.4,0-.6,0,0,0,0,0-.1,0-1.2.1-2.1,1.3-2,2.5.1,1.2,1.1,2,2.3,2,0,0,.1,0,.2,0,1.1,0,2.1-.9,2.2-2,.1-1.2-.8-2.4-2-2.5Z"/>
    <path class="cls-2" d="M347.2,45s0,0,0,0h0c0,0-.1,0-.2,0h0c-.2,0-.4,0-.6,0,0,0,0,0-.1,0-1.2.1-2.1,1.3-2,2.5.1,1.2,1.1,2,2.3,2,0,0,.1,0,.2,0,1.1,0,2.1-.9,2.2-2,.1-1.2-.7-2.2-1.8-2.4Z"/>
    <path class="cls-2" d="M244.1,46.2c.6-.4,1-1.2,1-2,0-1.2-1.1-2.2-2.4-2.1,0,0,0,0,0,0-1.2,0-2.2,1.1-2.1,2.4,0,1.2,1.1,2.1,2.3,2.1s0,0,.1,0c.1,0,.2,0,.3,0h0c.2,0,.4,0,.5-.2,0,0,.1,0,.2-.1,0,0,0,0,.1,0Z"/>
    <path class="cls-2" d="M310.2,469.8c-1.7,0-3.1-1.3-3.2-3,0-1.8,1.3-3.2,3-3.3,1.8,0,3.3,1.3,3.4,3,0,1.8-1.2,3.2-3,3.3h0c0,0-.1,0-.2,0Z"/>
    <path class="cls-2" d="M271.2,468c-.1,0-.3,0-.4,0,0,0-.1,0-.1,0-1.7-.3-2.9-1.9-2.7-3.6.3-1.7,1.9-2.9,3.6-2.7,1.7.3,3,1.9,2.7,3.6-.2,1.6-1.5,2.7-3.1,2.7Z"/>
    <path class="cls-2" d="M348.9,464.1c-1.4,0-2.7-1-3.1-2.4-.4-1.7.6-3.4,2.3-3.9l.9,3.1.7,3.1c-.3,0-.5,0-.8,0Z"/>
    <path class="cls-2" d="M233.2,458.7c-.3,0-.7,0-1-.2,0,0-.1,0-.1,0-1.7-.6-2.5-2.4-1.9-4.1.6-1.7,2.4-2.5,4.1-1.9,1.6.6,2.6,2.4,2,4.1-.5,1.3-1.7,2.1-3,2.1Z"/>
    <path class="cls-2" d="M385.8,450.9c-1.2,0-2.3-.7-2.9-1.8-.8-1.6,0-3.5,1.5-4.2,1.6-.8,3.5,0,4.3,1.5.8,1.6.1,3.5-1.5,4.2h0c-.4.2-.9.3-1.4.3Z"/>
    <path class="cls-2" d="M197.8,442.2c-.6,0-1.1-.2-1.7-.5l1.7-2.7-1.7,2.7c-1.5-.9-2-2.8-1.1-4.3.9-1.5,2.7-2.1,4.2-1.2,0,0,.2.1.2.1,1.5.9,2,2.9,1.1,4.4-.6,1-1.6,1.5-2.7,1.5Z"/>
    <path class="cls-2" d="M419.4,430.8c-1,0-1.9-.4-2.6-1.3-1-1.4-.8-3.3.6-4.4,0,0,.1-.1.2-.1,1.4-1,3.4-.7,4.4.8,1,1.4.7,3.4-.8,4.4l-1.8-2.6,1.8,2.6c-.6.4-1.2.6-1.9.6Z"/>
    <path class="cls-2" d="M166,419.2c-.7,0-1.4-.3-2-.8,0,0,0,0-.1,0-1.3-1.2-1.4-3.2-.2-4.5,1.2-1.3,3.2-1.4,4.5-.2,1.3,1.2,1.4,3.2.3,4.5-.6.7-1.5,1.1-2.4,1.1Z"/>
    <path class="cls-2" d="M448.6,404.8c-.8,0-1.5-.3-2.1-.8-1.3-1.2-1.4-3.1-.3-4.4,0,0,.1-.1.2-.2,1.2-1.3,3.2-1.3,4.5,0,1.3,1.2,1.3,3.2,0,4.5l-2.3-2.2,2.3,2.2c-.6.7-1.5,1-2.3,1Z"/>
    <path class="cls-2" d="M136.8,389.5l2.5-1.9-2.6,1.9c-1.1-1.4-.8-3.4.5-4.5,1.4-1.1,3.4-.8,4.5.5l-2.4,2-2.5,1.9Z"/>
    <path class="cls-2" d="M472.6,373.9c-.6,0-1.2-.2-1.7-.5-1.5-1-1.9-2.9-.9-4.4,1-1.5,2.9-1.9,4.4-1,1.5.9,1.9,2.9,1,4.3,0,0,0,0,0,0-.6.9-1.6,1.4-2.7,1.4Z"/>
    <path class="cls-2" d="M118.3,357.7c-1.2,0-2.3-.6-2.8-1.8l2.8-1.4-2.9,1.4c-.8-1.6-.2-3.5,1.4-4.3,1.6-.8,3.5-.2,4.3,1.3,0,0,0,.1,0,.1.8,1.6.1,3.5-1.4,4.3-.5.2-.9.3-1.4.3Z"/>
    <path class="cls-2" d="M490.4,339c-.4,0-.8,0-1.1-.2-1.6-.6-2.4-2.4-1.8-4.1,0,0,0-.2,0-.2.7-1.6,2.5-2.4,4.1-1.7,1.6.7,2.4,2.5,1.7,4.1l-2.9-1.2,2.9,1.2c-.5,1.2-1.7,2-3,2Z"/>
    <path class="cls-2" d="M103.9,321.2c-1.4,0-2.6-.9-3-2.2,0,0,0-.2,0-.2-.5-1.7.6-3.4,2.2-3.9,1.7-.4,3.4.5,3.9,2.2.4,1.7-.5,3.5-2.2,3.9-.3,0-.6.1-.9.1Z"/>
    <path class="cls-2" d="M501.4,301.5c-.2,0-.4,0-.6,0-1.7-.3-2.9-2-2.5-3.7l3.1.5,3.1.7c-.3,1.5-1.6,2.6-3.1,2.6Z"/>
    <path class="cls-3" d="M96.5,282.8c-1.6,0-3-1.2-3.1-2.8h0c-.2-1.8,1.1-3.4,2.9-3.6,1.7-.2,3.3,1.1,3.5,2.9.2,1.7-1.1,3.3-2.9,3.5-.1,0-.2,0-.3,0Z"/>
    <path class="cls-2" d="M505.1,262.5c-1.8,0-3.2-1.4-3.2-3.2s0-.9.3-1.3c-.2-.4-.3-.8-.3-1.2,0,0,0-.1,0-.2,0-1.8,1.4-3.2,3.2-3.2s3.2,1.4,3.2,3.2h-1.4s0,0,0,0h1.3c0,.5,0,.9-.3,1.3.2.4.3.8.3,1.3h0c0,1.9-1.4,3.3-3.2,3.3Z"/>
    <path class="cls-2" d="M96.4,243.7c-.1,0-.2,0-.3,0-1.7-.2-3-1.7-2.9-3.5l3.2.3-3.2-.3c.1-1.7,1.7-3,3.4-2.9,1.7.1,3,1.6,2.9,3.4,0,0,0,.1,0,.2-.2,1.6-1.5,2.9-3.2,2.9Z"/>
    <path class="cls-2" d="M501,221c-1.5,0-2.8-1-3.1-2.5l3.1-.8,3.1-.6-3.1.6,3.1-.6c.4,1.7-.7,3.4-2.4,3.8-.2,0-.4,0-.7,0Z"/>
    <path class="cls-2" d="M103.4,205.2c-.3,0-.6,0-.8-.1-1.7-.5-2.7-2.2-2.2-3.9,0,0,0-.1,0-.1.5-1.7,2.3-2.7,3.9-2.2,1.7.5,2.6,2.3,2.2,3.9-.4,1.4-1.7,2.3-3.1,2.3Z"/>
    <path class="cls-2" d="M489.7,183.6c-1.2,0-2.4-.7-2.9-1.9l2.9-1.3,2.9-1.2-2.9,1.2,3-1.1c.7,1.6,0,3.5-1.7,4.2-.4.2-.8.2-1.2.2Z"/>
    <path class="cls-2" d="M120.4,166.8l-2.9-1.3-2.8-1.5c.8-1.6,2.7-2.2,4.2-1.5,1.6.8,2.2,2.7,1.5,4.2Z"/>
    <path class="cls-2" d="M117.5,165.5h0,0Z"/>
    <path class="cls-2" d="M471.6,148.9c-1.1,0-2.1-.5-2.7-1.5-.9-1.5-.5-3.5,1-4.4,1.5-.9,3.4-.6,4.3.9,0,0,0,.1.1.2.9,1.5.4,3.5-1.1,4.4-.5.3-1.1.5-1.7.5Z"/>
    <path class="cls-2" d="M138.1,135.4c-.7,0-1.3-.2-1.9-.6-1.4-1.1-1.7-3-.7-4.4,0,0,.1-.1.1-.2,1.1-1.4,3.1-1.6,4.5-.5s1.6,3.1.5,4.5c-.6.8-1.6,1.2-2.6,1.2Z"/>
    <path class="cls-2" d="M447.4,118.1c-.8,0-1.7-.3-2.3-1-1.2-1.3-1.2-3.3,0-4.5,1.3-1.2,3.2-1.2,4.4,0,0,0,0,0,.1.1,1.2,1.3,1.1,3.3-.1,4.5-.6.6-1.4.9-2.2.9Z"/>
    <path class="cls-2" d="M164.6,106.6c-.9,0-1.7-.4-2.4-1-1.2-1.3-1.1-3.3.2-4.4,0,0,0,0,.1,0,1.3-1.2,3.3-1,4.5.3,1.2,1.3,1,3.3-.3,4.5-.6.5-1.4.8-2.1.8Z"/>
    <path class="cls-2" d="M417.9,92.4c-.6,0-1.3-.2-1.8-.6,0,0-.1,0-.1,0-1.4-1-1.7-3-.7-4.4,1-1.4,3-1.7,4.4-.7l-1.9,2.6,1.9-2.5c1.4,1,1.8,3,.7,4.4-.6.9-1.6,1.3-2.6,1.3Z"/>
    <path class="cls-2" d="M196.1,83.3c-1.1,0-2.1-.5-2.7-1.5-.9-1.5-.5-3.4,1-4.3,0,0,.1,0,.1,0,1.5-.9,3.5-.4,4.3,1.1.9,1.5.4,3.5-1.1,4.3-.5.3-1.1.4-1.6.4Z"/>
    <path class="cls-2" d="M384.1,72.7c-.4,0-.8,0-1.3-.3,0,0-.1,0-.2,0-1.6-.8-2.3-2.6-1.5-4.2.7-1.6,2.6-2.3,4.2-1.5l-1.4,2.9,1.4-2.9c1.6.7,2.3,2.6,1.6,4.2-.5,1.2-1.7,1.9-2.9,1.9Z"/>
    <path class="cls-2" d="M232.5,66.2l-1.2-2.9-1-3c1.6-.6,3.5.2,4.1,1.9.6,1.6-.2,3.5-1.9,4.1Z"/>
    <path class="cls-2" d="M231.3,63.3h0,0Z"/>
    <path class="cls-2" d="M347.1,59.8c-.2,0-.5,0-.7,0,0,0-.1,0-.2,0-1.7-.4-2.7-2.1-2.3-3.8.4-1.7,2.1-2.8,3.8-2.3l-.8,3.1.8-3.1c1.7.4,2.8,2.1,2.4,3.8-.3,1.5-1.6,2.5-3.1,2.5Z"/>
    <path class="cls-2" d="M269.2,56.7c-1.6,0-2.9-1.1-3.1-2.7-.2-1.7,1-3.3,2.7-3.6l.4,3.1-.4-3.1c1.7-.3,3.4.9,3.6,2.6.3,1.7-.9,3.3-2.6,3.6,0,0-.2,0-.2,0-.2,0-.3,0-.5,0Z"/>
    <path class="cls-2" d="M308.4,54.5c0,0-.2,0-.3,0-1.8,0-3.1-1.6-3-3.3,0-1.8,1.6-3.1,3.3-3l-.2,3.2.2-3.2c1.7,0,3.1,1.5,3.1,3.3,0,1.7-1.4,3.1-3.2,3.1Z"/>
    <path class="cls-5" d="M312.9,458.9c-1.2,0-2.2-.9-2.2-2.1,0-1.2.9-2.2,2.1-2.2,0,0,.2,0,.2,0,1.2,0,2.2,1,2.2,2.2s-1,2.2-2.2,2.2v-2.2,2.2h0Z"/>
    <path class="cls-5" d="M270.3,449.9s-.2,0-.2,0c0,0,0,0-.1,0-1.1,0-2.1.6-2.3,1.7-.3,1.2.5,2.3,1.7,2.6h0c.3,0,.6,0,.9,0h0v-2.2s0,2.2,0,2.2c1.2,0,2.2-1,2.2-2.2s-1-2.2-2.2-2.2Z"/>
    <path class="cls-5" d="M355.8,453.5c-1,0-1.9-.7-2.1-1.7-.3-1.2.5-2.3,1.7-2.6,1.2-.3,2.4.5,2.6,1.6.3,1.1-.4,2.3-1.5,2.6,0,0-.2,0-.2,0-.2,0-.3,0-.5,0Z"/>
    <path class="cls-5" d="M228.9,440.1c-.3,0-.6,0-.9-.2h0c-1.1-.6-1.5-1.9-1-2.9.5-1.1,1.8-1.5,2.9-1,1.1.5,1.6,1.8,1.1,2.9-.4.8-1.1,1.3-1.9,1.3Z"/>
    <path class="cls-5" d="M396.4,438.4c-.8,0-1.6-.5-2-1.2-.5-1.1,0-2.4,1-2.9,1.1-.5,2.4,0,2.9,1,.5,1.1.2,2.3-.9,2.9,0,0-.2,0-.2,0-.3.1-.6.2-.9.2Z"/>
    <path class="cls-5" d="M192.3,416.9c-.5,0-1-.2-1.4-.5l1.4-1.7-1.4,1.7c-.9-.7-1.1-2.1-.4-3,.7-.9,2.1-1.1,3-.4,0,0,.1.1.2.1.9.8,1,2.1.3,3.1-.4.5-1,.8-1.7.8Z"/>
    <path class="cls-5" d="M432.6,414.5c-.6,0-1.2-.3-1.7-.8-.8-.9-.7-2.3.2-3.1l1.5,1.6,1.3,1.7c-.4.4-.9.5-1.4.5Z"/>
    <path class="cls-5" d="M161.6,386.2c-.6,0-1.2-.3-1.6-.8h0c-.8-1-.6-2.4.3-3.1.9-.8,2.3-.6,3.1.3.8.9.6,2.3-.3,3.1-.4.3-.9.5-1.4.5Z"/>
    <path class="cls-5" d="M462.7,383.3c-.5,0-.9-.1-1.3-.4-.9-.7-1.2-2-.4-3,0,0,.1-.1.1-.2.8-.9,2.1-1.1,3.1-.3.9.8,1.1,2.1.3,3.1l-1.7-1.4,1.7,1.4c-.4.6-1.1.8-1.7.8Z"/>
    <path class="cls-5" d="M138.6,349.6c-.8,0-1.6-.5-2-1.2l2-.9-2,.9c-.5-1.1-.1-2.4,1-2.9,1.1-.5,2.4-.1,2.9.9,0,0,0,.1,0,.2.5,1.1,0,2.4-1,2.9-.3.1-.6.2-.9.2Z"/>
    <path class="cls-5" d="M485.4,346.4c-.3,0-.6,0-.9-.2-1.1-.5-1.6-1.8-1.1-2.9l2,.8,1.9,1c-.4.8-1.2,1.3-2,1.3Z"/>
    <path class="cls-5" d="M123.9,308.8c-1,0-1.8-.6-2.1-1.6,0,0,0-.1,0-.2-.3-1.2.5-2.3,1.7-2.6,1.2-.2,2.3.5,2.6,1.7.3,1.2-.5,2.4-1.6,2.6-.2,0-.3,0-.5,0Z"/>
    <path class="cls-5" d="M499.6,305.5c-.2,0-.3,0-.5,0-1.2-.3-1.9-1.5-1.6-2.6.3-1.2,1.4-1.9,2.6-1.7,1.2.3,1.9,1.4,1.6,2.5,0,0,0,.1,0,.2-.2,1-1.1,1.7-2.1,1.7Z"/>
    <path class="cls-5" d="M118.5,265.8c-1.2,0-2.1-.9-2.2-2.1,0,0,0-.1,0-.2,0-1.2,1-2.2,2.2-2.2s2.2,1,2.2,2.2-1,2.2-2.2,2.2c0,0,0,0,0,0Z"/>
    <path class="cls-5" d="M504.5,262.4c-1.2,0-2.2-1-2.2-2.2s1-2.2,2.2-2.2,2.2.9,2.2,2.1h0c0,1.3-1,2.3-2.2,2.3Z"/>
    <path class="cls-5" d="M504.4,254.3c-1.2,0-2.1-.9-2.2-2.1,0-1.2.9-2.3,2.1-2.3,1.2,0,2.2.8,2.3,2,0,0,0,.1,0,.1,0,1.2-.9,2.2-2.1,2.3,0,0,0,0,0,0Z"/>
    <path class="cls-5" d="M122.4,222.6c-.1,0-.3,0-.4,0-1.2-.2-2-1.3-1.7-2.5,0,0,0-.1,0-.1.2-1.2,1.4-1.9,2.6-1.7,1.2.2,1.9,1.4,1.7,2.6-.2,1-1.1,1.8-2.2,1.8Z"/>
    <path class="cls-5" d="M497.9,211.4c-1,0-1.8-.6-2.1-1.6-.3-1.2.4-2.4,1.5-2.7,1.2-.3,2.3.3,2.6,1.5h0c.3,1.3-.4,2.5-1.5,2.8-.2,0-.4,0-.6,0Z"/>
    <path class="cls-5" d="M135.5,181.3c-.3,0-.6,0-.9-.2-1.1-.5-1.6-1.7-1.1-2.8,0,0,0-.1,0-.1.5-1.1,1.8-1.6,2.9-1.1,1.1.5,1.6,1.8,1.1,2.9-.4.8-1.2,1.3-2,1.3Z"/>
    <path class="cls-5" d="M482.2,171c-.8,0-1.5-.4-1.9-1.2l1.9-1.1,1.9-1-1.9,1,2-.9c.6,1.1.1,2.4-.9,2.9-.3.2-.7.2-1,.2Z"/>
    <path class="cls-5" d="M159,142.9l-1.8-1.2-1.7-1.4c.7-1,2.1-1.2,3-.5,1,.7,1.2,2.1.5,3Z"/>
    <path class="cls-5" d="M157.2,141.7h0,0Z"/>
    <path class="cls-5" d="M458.2,134.9c-.6,0-1.2-.3-1.7-.8-.8-.9-.7-2.3.3-3.1.9-.8,2.3-.7,3,.2,0,0,0,0,0,0,.8.9.6,2.3-.3,3.1-.4.3-.9.5-1.4.5Z"/>
    <path class="cls-5" d="M186.7,111.9c-.6,0-1.2-.2-1.6-.7-.8-.9-.7-2.2.2-3,0,0,0,0,0,0,.9-.8,2.3-.7,3.1.2.8.9.7,2.3-.2,3.1-.4.4-.9.5-1.5.5Z"/>
    <path class="cls-5" d="M157.2,143.8c-.6,0-1.2-.2-1.6-.7-.8-.9-.7-2.2.2-3,0,0,0,0,0,0,.9-.8,2.3-.7,3.1.2.8.9.7,2.3-.2,3.1-.4.4-.9.5-1.5.5Z"/>
    <path class="cls-5" d="M427,104.8c-.5,0-.9-.2-1.3-.5-.9-.7-1.2-2.1-.4-3.1.7-.9,2-1.2,3-.4,0,0,.1,0,.1,0,.9.7,1.1,2.1.4,3.1-.4.5-1.1.8-1.7.8Z"/>
    <path class="cls-5" d="M222.4,87.4c-.8,0-1.5-.4-1.9-1.1-.6-1.1-.2-2.4.8-2.9h0c1.1-.6,2.4-.2,2.9.8.6,1.1.2,2.4-.9,2.9-.3.2-.7.3-1.1.3Z"/>
    <path class="cls-5" d="M389.9,82.4c-.3,0-.6,0-.9-.2,0,0-.1,0-.2,0-1.1-.5-1.5-1.8-1-2.9.5-1.1,1.8-1.5,2.9-1l-.9,2,1-1.9c1.1.5,1.6,1.8,1.1,2.9-.4.8-1.2,1.3-2,1.3Z"/>
    <path class="cls-5" d="M262.7,71.5c-1,0-1.9-.6-2.1-1.6-.3-1.2.3-2.3,1.5-2.6h.1c1.2-.3,2.4.4,2.7,1.5.3,1.2-.4,2.4-1.5,2.7-.2,0-.4,0-.6,0Z"/>
    <path class="cls-5" d="M348.8,68.9c-.2,0-.3,0-.5,0-1.2-.3-2-1.4-1.7-2.6.2-1.2,1.3-1.9,2.5-1.7,0,0,.1,0,.2,0,1.2.3,1.9,1.4,1.7,2.6-.2,1-1.1,1.7-2.1,1.7Z"/>
    <path class="cls-5" d="M305.5,60.9h0c-1.1,0-2,.6-2.2,1.7-.2,1.2.5,2.3,1.7,2.6.2,0,.3,0,.5,0s.2,0,.2,0h0c1.2,0,2.1-1,2.1-2.2,0-1.2-1.1-2.2-2.3-2.1Z"/>
    <path class="cls-3" d="M324,449.7c-1.7,0-3.2-1.4-3.2-3.1,0-1.7,1.3-3.2,3-3.2,0,0,.2,0,.2,0,1.8,0,3.2,1.4,3.2,3.2s-1.4,3.2-3.2,3.2v-3.2,3.2h0Z"/>
    <path class="cls-2" d="M276.9,443.7c-.3,0-.6,0-.9-.1l.9-3.1-.9,3c-1.7-.5-2.7-2.2-2.3-3.9.4-1.7,2.1-2.7,3.8-2.3,0,0,.2,0,.2,0,1.7.5,2.7,2.2,2.2,3.9-.4,1.4-1.7,2.3-3.1,2.3Z"/>
    <path class="cls-2" d="M370.9,442.8c-1.4,0-2.7-.9-3.1-2.3-.5-1.7.5-3.4,2.2-3.9,1.7-.5,3.5.5,4,2.2.5,1.7-.4,3.4-2.1,3.9h-.1c-.3.1-.6.2-.9.2Z"/>
    <path class="cls-3" d="M414.4,423.5c-1.1,0-2.1-.5-2.7-1.5-.9-1.5-.5-3.4,1-4.4,0,0,.1,0,.2-.1,1.5-.9,3.5-.4,4.4,1.1.9,1.5.4,3.5-1.1,4.4l-1.6-2.7,1.6,2.7c-.5.3-1.1.5-1.7.5Z"/>
    <path class="cls-2" d="M195.4,396.3c-.8,0-1.6-.3-2.2-.9h0c-1.2-1.3-1.2-3.3,0-4.6,1.2-1.2,3.3-1.2,4.5,0,1.2,1.2,1.3,3.3,0,4.5-.6.6-1.4,1-2.3,1Z"/>
    <path class="cls-4" d="M233.2,425.3c-.8,0-1.6-.3-2.2-.9h0c-1.2-1.3-1.2-3.3,0-4.6,1.2-1.2,3.3-1.2,4.5,0,1.2,1.2,1.3,3.3,0,4.5-.6.6-1.4,1-2.3,1Z"/>
    <path class="cls-2" d="M451.3,393.6c-.8,0-1.6-.3-2.2-.9-1.3-1.2-1.3-3.2-.1-4.5,0,0,.1-.1.1-.1,1.2-1.3,3.2-1.3,4.5,0,1.3,1.2,1.3,3.2,0,4.5l-2.3-2.2,2.2,2.3c-.6.7-1.5,1-2.3,1Z"/>
    <path class="cls-2" d="M166.7,358.6c-1.1,0-2.2-.6-2.8-1.6l2.8-1.6-2.8,1.5c-.9-1.5-.4-3.5,1.1-4.3,1.5-.9,3.5-.4,4.3,1.1,0,0,0,.1,0,.1.9,1.5.3,3.5-1.2,4.3-.5.3-1,.4-1.6.4Z"/>
    <path class="cls-2" d="M479.6,355.4c-.5,0-1-.1-1.5-.4-1.5-.8-2.1-2.8-1.3-4.3,0,0,0-.1,0-.2.9-1.5,2.8-2.1,4.3-1.2,1.5.9,2.1,2.8,1.2,4.3l-2.8-1.6,2.7,1.6c-.6,1.1-1.7,1.7-2.8,1.7Z"/>
    <path class="cls-2" d="M148.2,314.7c-1.4,0-2.6-.9-3-2.3,0,0,0-.2,0-.2-.4-1.7.6-3.4,2.3-3.9,1.7-.4,3.4.6,3.9,2.3.4,1.7-.5,3.5-2.2,3.9-.3,0-.6.1-.9.1Z"/>
    <path class="cls-2" d="M497.6,311.4c-.3,0-.6,0-.9-.1-1.7-.5-2.7-2.2-2.2-3.9.5-1.7,2.2-2.7,3.9-2.2,1.7.5,2.7,2.1,2.3,3.8,0,0,0,.2,0,.2-.4,1.4-1.7,2.3-3.1,2.3Z"/>
    <path class="cls-1" d="M141.5,267.6c-1.7,0-3.1-1.3-3.2-3.1h0c0-1.9,1.4-3.3,3.1-3.4,1.7,0,3.2,1.4,3.2,3.1,0,1.8-1.4,3.3-3.1,3.3,0,0,0,0,0,0Z"/>
    <path class="cls-2" d="M503.9,264.3c-1.8,0-3.2-1.4-3.2-3.2s1.4-3.2,3.2-3.2,3.2,1.4,3.2,3.1h0c0,1.9-1.4,3.3-3.2,3.3Z"/>
    <path class="cls-2" d="M503.7,255.9c-1.7,0-3.1-1.3-3.2-3,0,0,0-.2,0-.2,0-1.8,1.3-3.2,3-3.3,1.8,0,3.2,1.3,3.3,3h-3.2c0,.1,3.2,0,3.2,0,0,1.8-1.2,3.3-3,3.4,0,0-.1,0-.2,0Z"/>
    <path class="cls-2" d="M146.5,220.4c-.2,0-.5,0-.7,0-1.7-.4-2.8-2.1-2.3-3.8l3.1.7-3.1-.8c.4-1.7,2.1-2.8,3.8-2.4,1.7.4,2.8,2.1,2.4,3.8,0,0,0,.1,0,.2-.3,1.5-1.7,2.4-3.1,2.4Z"/>
    <path class="cls-2" d="M495.6,209c-1.4,0-2.6-.9-3-2.2l3-1.1,3-.9-3,.9,3.1-.8c.5,1.7-.4,3.5-2.1,4-.3,0-.6.1-.9.1Z"/>
    <path class="cls-2" d="M165.9,174.1l-2.9-1.4-2.8-1.6c.8-1.6,2.7-2.2,4.3-1.3,1.6.8,2.2,2.7,1.3,4.3Z"/>
    <path class="cls-2" d="M163.1,172.7h0,0Z"/>
    <path class="cls-2" d="M475.9,165.8c-1.1,0-2.1-.6-2.7-1.6-.9-1.5-.4-3.5,1.1-4.4,1.5-.9,3.4-.5,4.3,1,0,0,0,.1.1.2.9,1.5.4,3.5-1.1,4.3-.5.3-1.1.4-1.6.4Z"/>
    <path class="cls-2" d="M190.4,136.9c-.8,0-1.5-.3-2.1-.8-1.3-1.2-1.4-3.1-.3-4.4,0,0,.1-.1.1-.2,1.2-1.3,3.2-1.3,4.5-.1,1.3,1.2,1.3,3.2.1,4.5-.6.7-1.5,1-2.4,1Z"/>
    <path class="cls-2" d="M446.2,128.7c-.8,0-1.6-.3-2.2-.9-1.2-1.2-1.3-3.3,0-4.5,1.2-1.2,3.2-1.3,4.4-.1,0,0,.1.1.1.1,1.2,1.2,1.2,3.3,0,4.5-.6.6-1.4.9-2.2.9Z"/>
    <path class="cls-4" d="M226.7,107.9c-1.6,0-3.2-.8-4.1-2.2-1.4-2.2-.9-5.2,1.4-6.6,0,0,.2-.1.2-.1,2.3-1.4,5.3-.7,6.7,1.5,1.4,2.3.7,5.3-1.5,6.7-.8.5-1.7.8-2.6.8Z"/>
    <path class="cls-2" d="M408.1,100.3c-.5,0-1.1-.1-1.6-.4-1.5-.9-2.1-2.8-1.3-4.3.9-1.5,2.7-2.1,4.3-1.2,0,0,.1,0,.1,0,1.5.9,2.1,2.8,1.2,4.3-.6,1-1.7,1.6-2.8,1.6Z"/>
    <path class="cls-2" d="M269.7,86.1c-1.4,0-2.6-.9-3-2.2-.5-1.7.4-3.5,2.1-4l.9,3-.9-3.1c1.7-.5,3.5.4,4,2,.5,1.7-.3,3.4-2,4,0,0-.2,0-.2,0-.3,0-.6.1-.9.1Z"/>
    <path class="cls-2" d="M363.9,82.9c-.2,0-.5,0-.7,0-1.7-.4-2.8-2.1-2.4-3.8.4-1.7,2.1-2.8,3.8-2.4h.1c1.7.4,2.8,2.2,2.3,3.9-.3,1.5-1.7,2.4-3.1,2.4Z"/>
    <path class="cls-2" d="M316.6,78.1c-1.7,0-3.2-1.4-3.2-3.1,0-1.7,1.3-3.2,3-3.3,0,0,.2,0,.2,0,1.7,0,3.2,1.4,3.2,3.1,0,1.8-1.4,3.2-3.1,3.2,0,0,0,0,0,0Z"/>
    <path class="cls-2" d="M343.5,438.1c-1.1,0-2-.9-2.1-2,0-1.2.9-2.1,2-2.2,1.1,0,2.2.8,2.2,2,0,1.1-.7,2.1-1.9,2.2,0,0-.2,0-.2,0,0,0,0,0,0,0Z"/>
    <path class="cls-2" d="M292.2,433.1c-.2,0-.3,0-.5,0h-.1c-1.1-.3-1.8-1.5-1.5-2.6.3-1.1,1.4-1.8,2.6-1.5,1.1.3,1.9,1.4,1.6,2.6-.2.9-1.1,1.6-2,1.6Z"/>
    <path class="cls-2" d="M393.9,426.6c-.8,0-1.6-.5-1.9-1.3-.5-1.1,0-2.3,1.1-2.7,0,0,.2,0,.2,0,1.1-.4,2.3.1,2.7,1.2.4,1.1-.1,2.3-1.2,2.7l-.8-1.9.7,2c-.3.1-.5.2-.8.2Z"/>
    <path class="cls-2" d="M244.8,412.4c-.4,0-.7-.1-1.1-.3h-.1c-1-.7-1.3-2-.6-3,.6-1,1.9-1.3,2.9-.6,1,.6,1.3,1.9.7,2.9-.4.6-1.1,1-1.8,1Z"/>
    <path class="cls-2" d="M438.3,400.1c-.6,0-1.2-.3-1.6-.8-.7-.9-.6-2.2.3-2.9.9-.7,2.2-.6,3,.3.7.9.6,2.1-.2,2.9,0,0-.1.1-.1.1-.4.3-.8.5-1.3.5Z"/>
    <path class="cls-2" d="M205.9,378.4c-.6,0-1.1-.2-1.5-.7,0,0-.1-.1-.1-.2-.7-.9-.6-2.2.3-2.9.9-.7,2.2-.6,2.9.3.7.9.6,2.2-.3,3-.4.3-.9.5-1.4.5Z"/>
    <path class="cls-2" d="M473,361.8c-.4,0-.8-.1-1.2-.4-1-.6-1.2-1.9-.6-2.9.6-1,2-1.3,2.9-.6,1,.6,1.2,1.9.6,2.9h0c-.4.7-1.1,1-1.7,1Z"/>
    <path class="cls-2" d="M178.7,334.3c-.8,0-1.5-.4-1.9-1.2h0c-.5-1.2,0-2.4,1.1-2.9,1.1-.5,2.3,0,2.8,1.1.5,1.1,0,2.4-1.1,2.8-.3.1-.6.2-.9.2Z"/>
    <path class="cls-2" d="M495.3,315.1c-.2,0-.4,0-.6,0-1.1-.3-1.7-1.5-1.4-2.6,0,0,0-.2,0-.2.4-1.1,1.5-1.7,2.6-1.4,1.1.4,1.7,1.5,1.4,2.6l-2-.6,2,.7c-.3.9-1.1,1.5-2,1.5Z"/>
    <path class="cls-2" d="M165.6,284.4c-1.1,0-2-.8-2.1-1.9l2.1-.2h-2.1c-.1-1,.7-2.1,1.8-2.2,1.2-.2,2.2.7,2.3,1.8,0,0,0,.2,0,.2.1,1.1-.7,2.2-1.9,2.3,0,0-.2,0-.2,0Z"/>
    <path class="cls-2" d="M503.2,264.1c-1.2,0-2.1-.9-2.1-2.1s.9-2.2,2.1-2.2,2.1.9,2.1,2h0c0,1.3-.9,2.2-2.1,2.2Z"/>
    <path class="cls-2" d="M167.1,232.7c-.1,0-.2,0-.4,0-1.1-.2-1.9-1.3-1.7-2.4l2.1.4-2-.5c.2-1.1,1.3-1.9,2.4-1.7,1.1.2,1.9,1.3,1.7,2.4,0,0,0,.2,0,.2-.2,1-1.1,1.7-2.1,1.7Z"/>
    <path class="cls-2" d="M498.2,221.9c-.9,0-1.8-.6-2-1.6,0,0,0-.2,0-.2-.3-1.1.4-2.3,1.5-2.5,1.1-.3,2.3.4,2.5,1.5l-2,.5,2.1-.4c.3,1.1-.4,2.3-1.5,2.6-.2,0-.4,0-.5,0Z"/>
    <path class="cls-2" d="M183.2,183.5c-.3,0-.6,0-.9-.2-1-.5-1.5-1.7-1-2.7h0c.5-1.1,1.8-1.6,2.8-1.1,1,.5,1.5,1.8.9,2.8-.4.7-1.1,1.2-1.9,1.2Z"/>
    <path class="cls-2" d="M478.6,174.1c-.7,0-1.4-.4-1.8-1,0,0,0-.1,0-.2-.6-1-.2-2.3.8-2.9,1-.6,2.3-.2,2.9.8l-1.8,1.1,1.8-1c.6,1,.3,2.3-.7,2.9-.3.2-.7.3-1.1.3Z"/>
    <path class="cls-2" d="M212.9,141.2c-.5,0-1-.2-1.4-.6-.8-.8-.9-2.1-.1-2.9,0,0,0,0,0,0,.8-.8,2.1-.9,3,0,.8.8.9,2.1,0,3-.4.4-1,.7-1.6.7Z"/>
    <path class="cls-2" d="M446.3,133.7c-.5,0-1-.2-1.4-.6l1.3-1.6,1.4-1.5-1.4,1.5,1.5-1.4c.8.8.9,2.1.1,3-.4.4-1,.7-1.5.7Z"/>
    <path class="cls-2" d="M254.9,109.2l-1.1-1.8-.9-1.9c1-.6,2.3-.2,2.8.8.6,1,.2,2.3-.8,2.8Z"/>
    <path class="cls-2" d="M253.7,107.4h0,0Z"/>
    <path class="cls-2" d="M403.6,104.6c-.3,0-.6,0-.9-.2l.8-1.9.9-1.9-.9,1.9,1-1.8c1,.5,1.5,1.7,1,2.8-.4.8-1.1,1.2-1.9,1.2Z"/>
    <path class="cls-2" d="M302.4,91.8c-1,0-1.9-.7-2.1-1.7-.2-1.1.5-2.2,1.6-2.4,0,0,.1,0,.2,0,1.1-.2,2.2.5,2.4,1.7.2,1.1-.5,2.2-1.7,2.4-.1,0-.3,0-.4,0Z"/>
    <path class="cls-2" d="M355.8,89c0-.1.1-.3.2-.4,0-.1,0-.2.1-.3,0,0,0,0,0,0,0-.1,0-.2,0-.3,0-.1,0-.2,0-.3,0,0,0,0,0-.1,0,0,0,0,0-.1,0-.2-.2-.4-.3-.6,0,0,0,0,0,0-.2-.2-.3-.3-.5-.5,0,0,0,0,0,0-.2-.1-.5-.2-.7-.2,0,0,0,0,0,0h0c-.2,0-.4,0-.6,0,0,0-.1,0-.2,0-1.1.2-1.8,1.3-1.6,2.4.2.9,1,1.5,1.9,1.6h0c0,0,.2,0,.2,0,0,0,0,0,0,0,.1,0,.3,0,.4,0,0,0,.1,0,.2,0,.1,0,.3,0,.4-.2.1,0,.2-.1.3-.2.1,0,.2-.2.3-.3,0,0,.1-.2.2-.3Z"/>
    <path class="cls-2" d="M371.4,425.7c-1,0-1.8-.7-2-1.6-.2-1.1.5-2.2,1.6-2.4,0,0,.2,0,.2,0,1.1-.2,2.2.6,2.4,1.7.2,1.1-.6,2.2-1.7,2.4l-.3-2,.3,2c-.1,0-.3,0-.4,0ZM315.7,425.3c-.1,0-.3,0-.4,0l.4-2-.5,2c-1.1-.2-1.9-1.2-1.7-2.4.2-1.1,1.2-1.9,2.4-1.7,0,0,.2,0,.2,0,1.1.2,1.8,1.3,1.6,2.4-.2,1-1.1,1.6-2,1.6ZM423.4,405.5c-.7,0-1.4-.4-1.8-1-.6-1-.2-2.2.8-2.8,1-.6,2.3-.3,2.8.7.6,1,.3,2.2-.6,2.8,0,0-.2,0-.2.1-.3.2-.7.3-1,.3ZM263.7,404.9c-.4,0-.7,0-1-.3h-.1c-1-.7-1.2-1.9-.6-2.9.6-1,1.9-1.2,2.8-.6,1,.6,1.3,1.9.7,2.9-.4.6-1.1,1-1.7,1ZM465.3,368.5c-.4,0-.9-.1-1.3-.4-.9-.7-1.1-2-.4-2.9,0,0,.1-.1.1-.2.7-.9,2-1,2.9-.3.9.7,1,2,.3,2.9l-1.6-1.3,1.5,1.4c-.4.5-1,.8-1.6.8ZM222.4,367.4c-.6,0-1.2-.3-1.6-.8l1.6-1.3-1.7,1.2c-.7-.9-.6-2.2.3-2.9.9-.7,2.2-.6,2.9.3,0,0,.1.1.1.1.7.9.5,2.2-.4,2.9-.4.3-.8.4-1.3.4ZM492.7,319.9c-.2,0-.5,0-.7-.1-1.1-.4-1.6-1.6-1.2-2.6,0,0,0-.1,0-.2.4-1.1,1.6-1.6,2.6-1.2,1.1.4,1.6,1.6,1.2,2.6l-1.9-.7,1.9.8c-.3.8-1.1,1.4-1.9,1.4ZM195.9,318.1c-.8,0-1.6-.5-1.9-1.3h0c-.4-1.2.2-2.4,1.3-2.7,1.1-.4,2.2.2,2.6,1.3.4,1.1-.2,2.3-1.3,2.7-.2,0-.5.1-.7.1ZM502.6,264.9s0,0,0,0c-1.1,0-2-1-2-2.1,0-1.1.9-2.1,2.1-2.1h0c1.1,0,2,.9,2,2s0,.2,0,.2c0,1.1-.9,2-2,2ZM187.3,263s0,0,0,0c-1.1,0-2-1-2-2.1h2.1s-2-.1-2-.1c0-1.1.9-2.1,2.1-2.1s2.1.9,2.1,2.1,0,.2,0,.2c0,1.1-.9,2-2,2ZM493.8,211.5c-.8,0-1.6-.5-1.9-1.4,0,0,0-.2,0-.2-.4-1.1.2-2.2,1.3-2.6,1.1-.4,2.2.2,2.6,1.3l-1.9.6,2-.6c.4,1.1-.2,2.2-1.2,2.6-.2,0-.5.1-.7.1ZM197,207.9c-.2,0-.4,0-.6-.1-1.1-.4-1.6-1.5-1.3-2.5,0,0,0-.1,0-.1.4-1.1,1.6-1.6,2.6-1.2,1.1.4,1.6,1.6,1.2,2.6-.3.9-1.1,1.4-2,1.4ZM467.3,162.3c-.6,0-1.2-.3-1.6-.8-.7-.9-.6-2.2.3-2.9.9-.7,2.1-.6,2.8.3,0,0,0,.1,0,.1.7.9.5,2.2-.4,2.9-.4.3-.8.4-1.3.4ZM224.2,159.1c-.4,0-.9-.1-1.3-.4-.9-.7-1.1-1.9-.3-2.8h0c.7-1,2-1.1,2.9-.4.9.7,1,2,.3,2.9-.4.5-1,.8-1.7.8ZM426.1,124.5c-.4,0-.8-.1-1.1-.3-.9-.6-1.3-1.9-.7-2.9.6-.9,1.8-1.3,2.8-.7,0,0,.1,0,.2.1.9.6,1.2,1.9.6,2.8-.4.6-1,.9-1.7.9ZM266.3,122.4c-.7,0-1.4-.3-1.8-1-.6-1-.3-2.2.6-2.8,0,0,0,0,0,0,1-.6,2.3-.3,2.8.7.6,1,.3,2.2-.7,2.8-.3.2-.7.3-1.1.3ZM374.4,103.4c-.1,0-.3,0-.4,0-1.1-.2-1.9-1.3-1.7-2.4.2-1.1,1.2-1.8,2.3-1.6h.1c1.1.3,1.8,1.3,1.6,2.4-.2,1-1.1,1.6-2,1.6ZM318.5,102.8c-1,0-1.8-.7-2-1.7-.2-1.1.6-2.2,1.7-2.4l.3,2-.2-2c1.1-.2,2.2.5,2.4,1.6.2,1.1-.5,2.2-1.6,2.4,0,0-.2,0-.2,0-.1,0-.2,0-.3,0Z"/>
    <path class="cls-2" d="M347.8,417.6s0,0-.1,0h-.2c-1.1,0-1.9-1-1.9-2.1,0-1.1,1-2,2.1-1.9,1.1,0,2,1,2,2.1,0,1.1-.9,1.9-1.9,1.9ZM406.7,407.8c-.8,0-1.5-.4-1.8-1.2-.4-1,0-2.2,1-2.6,0,0,.2,0,.2,0,1-.4,2.2,0,2.6,1.1.4,1,0,2.2-1.1,2.6l-.7-1.9.7,1.9c-.3.1-.5.2-.8.2ZM290.1,401.5c-.3,0-.6,0-.9-.2,0,0-.2,0-.2,0-1-.5-1.3-1.8-.8-2.7.5-1,1.8-1.3,2.7-.8,1,.5,1.4,1.8.9,2.7-.4.7-1,1.1-1.7,1.1ZM456.4,374.3c-.5,0-1-.2-1.4-.6-.8-.8-.8-2,0-2.8.8-.8,2.1-.9,2.9,0,.8.8.9,2,0,2.8,0,0,0,0,0,0-.4.4-.9.6-1.5.6ZM244,363.1c-.6,0-1.1-.2-1.5-.7,0,0,0-.1-.1-.1-.7-.9-.5-2.1.3-2.8.9-.7,2.1-.5,2.8.3.7.9.6,2.2-.3,2.9-.4.3-.8.5-1.3.5ZM489.8,324.4c-.3,0-.5,0-.8-.2-1-.4-1.5-1.6-1.1-2.6.4-1,1.6-1.6,2.7-1.1,1,.4,1.5,1.5,1.1,2.6,0,0,0,.1,0,.1-.3.8-1.1,1.2-1.9,1.2ZM216.5,309.8c-.8,0-1.6-.5-1.9-1.4h0c-.3-1.2.3-2.3,1.4-2.6,1.1-.3,2.2.3,2.5,1.4.3,1.1-.3,2.3-1.3,2.6-.2,0-.4,0-.6,0ZM501.9,265.7h0c-1.1,0-2-.9-2-2,0-1.1.9-2.1,2-2.1h0c1.1,0,2,.8,2,1.9s0,.2,0,.2c0,1.1-.9,2-2,2ZM213,248.1h-2s-2-.4-2-.4c.1-1.1,1.1-1.9,2.2-1.8,1.1.1,1.9,1.1,1.8,2.2ZM211,248.1h0,0ZM498.8,234.6c-.9,0-1.8-.7-2-1.6-.2-1.1.5-2.2,1.5-2.4,1.1-.2,2.1.4,2.4,1.5h0c.2,1.2-.5,2.3-1.6,2.5-.1,0-.3,0-.4,0ZM227.8,192.4c-.3,0-.6,0-.9-.2-1-.5-1.4-1.7-.9-2.6,0,0,0-.1,0-.1.5-1,1.7-1.4,2.7-.8,1,.5,1.4,1.7.8,2.7-.4.7-1.1,1.1-1.9,1.1ZM475.7,179.2c-.7,0-1.3-.3-1.7-.9-.6-.9-.4-2.2.5-2.8.9-.6,2.1-.4,2.7.5,0,0,0,.1,0,.1.6.9.3,2.2-.6,2.8-.3.2-.7.3-1.1.3ZM265.4,145.6c-.6,0-1.1-.2-1.5-.7-.7-.8-.7-2.1.2-2.8,0,0,.1,0,.1,0,.9-.7,2.1-.6,2.8.3.7.9.6,2.1-.3,2.8-.4.3-.9.5-1.4.5ZM433.7,136.5c-.4,0-.8-.1-1.1-.4-.9-.6-1.2-1.9-.6-2.8.6-.9,1.8-1.2,2.7-.6,0,0,.1.1.2.1.9.6,1.1,1.9.5,2.8-.4.6-1,.9-1.6.9ZM318.3,117.5c-.9,0-1.7-.6-2-1.4-.3-1.1.2-2.1,1.3-2.5,0,0,.2,0,.2,0,1.1-.3,2.2.3,2.5,1.4.3,1.1-.3,2.2-1.4,2.5-.2,0-.4,0-.5,0ZM378.1,114c-.1,0-.2,0-.3,0-1.1-.2-1.9-1.2-1.7-2.3.2-1.1,1.1-1.8,2.2-1.7,0,0,.2,0,.2,0,1.1.2,1.8,1.2,1.6,2.3-.2,1-1,1.7-2,1.7Z"/>
    <path class="cls-2" d="M388.3,405.7c-.9,0-1.8-.7-1.9-1.6-.2-1.1.5-2.1,1.6-2.3h.2c1.1-.2,2.1.5,2.3,1.6.2,1.1-.5,2.1-1.6,2.3h-.2c-.1,0-.2,0-.3,0ZM324.7,400.4c-.2,0-.4,0-.6,0,0,0-.1,0-.1,0-1-.4-1.6-1.5-1.2-2.5.4-1,1.4-1.6,2.5-1.2,1,.3,1.7,1.5,1.3,2.5-.3.8-1,1.4-1.8,1.4ZM446.3,378.9c-.6,0-1.2-.3-1.6-.8-.7-.9-.5-2.1.3-2.8.8-.7,2.1-.6,2.8.2.7.8.6,2-.2,2.7h-.2c-.4.4-.8.5-1.2.5ZM271.3,365.1c-.5,0-1-.2-1.4-.6h-.1c-.7-1-.7-2.2.1-2.9.8-.7,2.1-.7,2.8.1.7.8.7,2.1,0,2.8-.4.4-.9.6-1.4.6ZM486.3,328.8c-.3,0-.6,0-.8-.2-1-.5-1.4-1.6-.9-2.6v-.2c.6-1,1.8-1.4,2.7-.9,1,.5,1.4,1.7.9,2.6h0c-.3.8-1,1.2-1.8,1.2ZM239.6,309.5c-.8,0-1.6-.5-1.8-1.3v-.2c-.4-1,.2-2.1,1.3-2.4,1-.3,2.1.3,2.4,1.3.3,1-.3,2.2-1.3,2.5-.2,0-.4,0-.6,0ZM501.3,266.5h0c-1.1,0-2-.9-1.9-2,0-1.1.9-2,2-2s2,.8,2,1.9v.2c0,1.1-.9,1.9-2,1.9ZM234.6,245.6c0,0-.2,0-.2,0-1.1-.1-1.8-1.1-1.7-2.1v-.2c.2-1.1,1.2-1.8,2.3-1.7,1.1.2,1.8,1.2,1.7,2.2-.1,1-1,1.8-2,1.8ZM499.1,241.5c-.9,0-1.8-.7-1.9-1.6v-.2c-.2-1.1.5-2.1,1.6-2.3,1.1-.2,2.1.5,2.3,1.6v.2c.2,1.1-.5,2.1-1.6,2.3-.1,0-.2,0-.3,0ZM256.9,185.6c-.4,0-.7-.1-1.1-.3-.9-.6-1.2-1.8-.6-2.7h0c.6-1,1.8-1.3,2.7-.7.9.6,1.2,1.8.6,2.7h0c-.4.7-1,1-1.6,1ZM474.4,182.4c-.6,0-1.2-.3-1.6-.8h-.1c-.6-1-.4-2.3.5-2.9.9-.6,2.1-.4,2.7.5h0c.6,1,.4,2.2-.5,2.9-.3.2-.7.4-1.1.4ZM303.3,141.3c-.7,0-1.4-.3-1.7-1-.5-.9-.3-2.1.6-2.7h.2c.9-.6,2.1-.3,2.7.6.5.9.2,2.1-.7,2.7-.3.2-.7.3-1,.3ZM426.9,139.5c-.3,0-.7,0-1-.3-1-.5-1.4-1.7-.8-2.7.5-1,1.7-1.3,2.6-.8h.2c.9.6,1.3,1.8.7,2.8-.4.6-1,1-1.7,1ZM364.8,124.1c-1.1,0-1.9-.8-2-1.9,0-1.1.8-2,1.9-2,0,0,.1,0,.1,0,1.1,0,2,.8,2,1.9,0,1.1-.8,2-1.9,2h-.2s0,0,0,0Z"/>
    <path class="cls-2" d="M368.9,398.2c0,0-.2,0-.3,0h-.2c-1.7-.2-3-1.7-2.9-3.4.1-1.7,1.7-3.1,3.4-2.9h.2c1.7.2,3.1,1.7,2.9,3.4-.1,1.7-1.5,2.9-3.2,2.9Z"/>
    <path class="cls-2" d="M434.7,382.8c-1.1,0-2.2-.6-2.8-1.6-.9-1.5-.3-3.5,1.2-4.3,1.5-.9,3.5-.4,4.4,1.1.9,1.5.4,3.4-1.1,4.3h-.2c-.5.4-1,.5-1.6.5Z"/>
    <path class="cls-2" d="M305.9,373.3c-.7,0-1.4-.2-2-.7h0c-1.4-1.1-1.7-3.1-.6-4.5,1.1-1.4,3.1-1.7,4.4-.6h.2c1.4,1.2,1.6,3.2.5,4.6-.6.8-1.6,1.2-2.5,1.2Z"/>
    <path class="cls-2" d="M482.4,334.2c-.5,0-1.1-.1-1.6-.4-1.5-.9-2-2.8-1.2-4.3h0c.9-1.7,2.8-2.2,4.3-1.3,1.5.9,2,2.8,1.2,4.3h0c-.6,1.2-1.7,1.7-2.8,1.7Z"/>
    <path class="cls-3" d="M265.5,318.5c-1.3,0-2.5-.8-3-2h0c-.6-1.8.1-3.6,1.8-4.3,1.6-.6,3.5.1,4.1,1.8v.2c.7,1.6,0,3.5-1.7,4.1-.4.1-.8.2-1.2.2Z"/>
    <path class="cls-2" d="M500.6,268.6h0c-1.8,0-3.2-1.5-3.1-3.2,0-1.8,1.4-3.2,3.2-3.2s3.2,1.4,3.2,3.1v.2c0,1.7-1.4,3.1-3.2,3.1Z"/>
    <path class="cls-2" d="M257.2,250.9c-.1,0-.3,0-.4,0-1.7-.2-3-1.8-2.8-3.5v-.2c.2-1.7,1.8-3,3.6-2.8,1.7.2,3,1.8,2.8,3.5v.2c-.2,1.6-1.6,2.8-3.2,2.8Z"/>
    <path class="cls-2" d="M495.8,233.1c-1.4,0-2.7-.9-3.1-2.4-.5-1.7.5-3.5,2.2-4,1.7-.5,3.4.4,3.9,2.1v.2c.5,1.7-.5,3.4-2.2,3.9-.3,0-.6.1-.8.1Z"/>
    <path class="cls-3" d="M282.2,187.5c-.7,0-1.3-.2-1.9-.6-1.4-1-1.7-3-.7-4.4h0c1-1.5,3-1.9,4.4-.8,1.4,1,1.7,3,.7,4.4h-.1c-.6,1-1.6,1.4-2.6,1.4Z"/>
    <path class="cls-2" d="M462,173.9c-.8,0-1.6-.3-2.2-.9l-.2-.2c-1.2-1.3-1.2-3.3,0-4.5,1.3-1.2,3.3-1.2,4.5,0h0c1.2,1.3,1.2,3.3,0,4.6-.6.6-1.4.9-2.2.9Z"/>
    <path class="cls-2" d="M335.7,145.4c-1.3,0-2.5-.7-3-1.9-.7-1.6,0-3.4,1.7-4.1,0,0,.1,0,.1,0,1.6-.7,3.5.1,4.2,1.7.7,1.6,0,3.5-1.7,4.1-.4.2-.8.2-1.2.2Z"/>
    <path class="cls-4" d="M403.2,139.9c-.2,0-.5,0-.7,0h-.2c-1.7-.5-2.8-2.2-2.4-3.9s2.1-2.8,3.8-2.4h.1c1.7.4,2.8,2.1,2.4,3.8-.3,1.5-1.6,2.5-3.1,2.5Z"/>
    <path class="cls-2" d="M421.5,381.4c-.8,0-1.5-.5-1.8-1.2-.4-1,.1-2.1,1.1-2.4h.2c1-.4,2.1,0,2.4,1.1.3,1-.2,2.1-1.2,2.4h-.1c-.2.1-.5.2-.7.2ZM350.3,379.4c-.2,0-.5,0-.7-.1h-.1c-1-.4-1.5-1.5-1.1-2.5s1.5-1.4,2.4-1.1h.2c1,.5,1.4,1.6,1,2.5-.3.7-1,1.2-1.7,1.2ZM477.9,336.7c-.4,0-.8-.1-1.1-.3-.9-.6-1.1-1.8-.5-2.6.6-.9,1.8-1.2,2.7-.6.9.6,1.1,1.7.5,2.6v.2c-.5.5-1.1.8-1.7.8ZM296.3,332c-.6,0-1.2-.3-1.5-.9v-.2c-.6-.9-.3-2.1.6-2.6.9-.5,2.1-.2,2.6.7.5.9.3,2.1-.6,2.6-.3.2-.7.3-1,.3ZM500,268.1h0c-1,0-1.9-.8-1.9-1.8v-.2c0-1,.8-1.9,1.9-1.9s1.9.8,1.9,1.9h0c0,1.1-.8,2-1.9,2ZM279.2,262.1s0,0,0,0c-1,0-1.9-.9-1.8-2v-.2c0-1,.9-1.8,2-1.8,1,0,1.8.9,1.8,2v.2c0,1-.9,1.8-1.9,1.8ZM483.9,207.2c-.7,0-1.3-.3-1.6-1v-.2c-.6-.9-.3-2.1.6-2.6.9-.5,2.1-.2,2.6.7v.2c.6.9.3,2.1-.6,2.6-.3.2-.6.2-.9.2ZM302.6,193.9c-.4,0-.8-.1-1.1-.4-.8-.6-1-1.8-.4-2.6h.1c.6-1,1.8-1.2,2.6-.6.8.6,1,1.8.4,2.6h-.1c-.4.7-.9.9-1.5.9ZM432,157.3c-.3,0-.5,0-.8-.2h-.2c-.9-.5-1.3-1.7-.9-2.6.4-.9,1.6-1.3,2.5-.9h.2c.9.5,1.3,1.6.9,2.6-.3.7-1,1.1-1.7,1.1ZM360.7,151.9c-.8,0-1.6-.5-1.8-1.4-.3-1,.3-2,1.3-2.3h.2c1-.4,2,.2,2.4,1.2.3,1-.3,2.1-1.2,2.4h-.2c-.2.1-.4.1-.5.1Z"/>
    <path class="cls-2" d="M406.8,376.5c-.9,0-1.7-.7-1.8-1.7,0-1,.6-1.9,1.7-2h.2c1,0,1.9.7,2,1.7,0,1-.7,1.9-1.7,2h-.1c0,0-.1,0-.2,0ZM336.5,350.9c-.5,0-.9-.2-1.3-.5h-.1c-.7-.8-.8-2,0-2.7.7-.7,1.9-.8,2.6,0h.2c.7.8.8,2,0,2.7-.4.4-.8.6-1.3.6ZM472.6,340c-.4,0-.8-.1-1.2-.4-.8-.6-.9-1.8-.2-2.6h.1c.6-.9,1.8-1,2.6-.4.8.6.9,1.8.2,2.6h-.1c-.4.6-.9.8-1.4.8ZM302.9,283c-.9,0-1.7-.7-1.8-1.6v-.2c-.1-1,.6-1.9,1.6-2.1,1-.1,1.9.6,2.1,1.6v.2c.1,1-.6,1.9-1.6,2.1,0,0-.2,0-.2,0ZM499.4,269c-1,0-1.8-.8-1.8-1.8v-.2c0-1,.8-1.9,1.9-1.8,1,0,1.8.8,1.8,1.9v.2c0,1-.8,1.8-1.8,1.8ZM495,238.2c-.8,0-1.5-.5-1.8-1.3v-.2c-.3-1,.2-2,1.2-2.3,1-.3,2,.3,2.3,1.3v.2c.3,1-.2,2-1.2,2.3-.2,0-.3,0-.5,0ZM318.3,208.7c-.3,0-.7,0-1-.3-.9-.5-1.1-1.7-.6-2.5h0c.5-1,1.7-1.3,2.5-.8.9.5,1.2,1.6.6,2.5v.2c-.5.6-1.1.9-1.7.9ZM451.5,176c-.4,0-.7-.1-1-.3l1-1.5-1.2,1.4c-.8-.6-1-1.7-.5-2.6.6-.8,1.7-1,2.6-.5,0,0,.1,0,.1,0,.8.6,1.1,1.7.5,2.6-.4.5-.9.8-1.5.8ZM377.9,162.4c-.8,0-1.6-.5-1.8-1.4-.3-1,.3-2,1.3-2.3h.2c1-.3,2,.3,2.3,1.2.3,1-.3,2-1.3,2.3h-.2c-.2,0-.3.1-.5.1Z"/>
    <path class="cls-1" d="M392,368.9c-.6,0-1.1,0-1.7-.2h-.4c-3.5-1-5.7-4.6-4.8-8.2.9-3.5,4.5-5.7,8.1-4.8h.4c3.5,1,5.7,4.6,4.8,8.2-.8,3-3.5,5-6.4,5Z"/>
    <path class="cls-2" d="M466.5,343.9c-.8,0-1.7-.3-2.3-1-1.2-1.3-1.2-3.3,0-4.5h.1c1.3-1.4,3.3-1.3,4.5,0,1.2,1.3,1.2,3.3,0,4.5h-.1c-.6.7-1.4,1-2.2,1Z"/>
    <path class="cls-2" d="M333.4,312.7c-1.2,0-2.4-.7-2.9-1.9v-.2c-.8-1.6,0-3.5,1.6-4.2,1.6-.7,3.5,0,4.2,1.7v.2c.8,1.6,0,3.5-1.6,4.2-.4.2-.8.3-1.2.3Z"/>
    <path class="cls-2" d="M498.7,271.2c-1.8,0-3.2-1.4-3.2-3.2v-.2c0-1.8,1.4-3.2,3.2-3.1,1.8,0,3.2,1.5,3.1,3.2v.2c0,1.8-1.4,3.2-3.2,3.2Z"/>
    <path class="cls-2" d="M498.5,264c-1.7,0-3.1-1.3-3.2-3v-.2c-.1-1.8,1.2-3.3,2.9-3.4,1.7-.1,3.3,1.2,3.4,2.9v.2c.1,1.8-1.2,3.3-2.9,3.4,0,0-.1,0-.2,0Z"/>
    <path class="cls-2" d="M331.7,233.1c-.4,0-.7,0-1.1-.2-1.6-.6-2.5-2.4-1.9-4.1v-.2c.7-1.6,2.5-2.5,4.2-1.8,1.6.6,2.5,2.5,1.8,4.1v.2c-.5,1.3-1.7,2.1-3,2.1Z"/>
    <path class="cls-1" d="M463.1,192.8c-.8,0-1.5-.3-2.1-.8-1.3-1.1-1.5-3.2-.4-4.5,1.1-1.3,3.1-1.5,4.4-.4l.2.2c1.3,1.2,1.4,3.2.3,4.5-.6.7-1.5,1.1-2.4,1.1Z"/>
    <path class="cls-2" d="M386.9,176.8c-1.3,0-2.6-.8-3-2.1-.6-1.7.3-3.5,2-4h.2c1.7-.6,3.5.2,4,1.9.6,1.7-.3,3.5-2,4h-.2c-.3.2-.7.2-1,.2Z"/>
    <path class="cls-2" d="M459.2,343.9c-.5,0-1.1-.3-1.4-.7-.6-.8-.4-1.9.4-2.5h.2c.8-.7,1.9-.5,2.5.3.6.8.4,1.9-.4,2.5h-.2c-.3.3-.7.4-1,.4ZM379.9,341c-.4,0-.8-.1-1.1-.4h-.2c-.8-.7-.9-1.8-.3-2.6.6-.8,1.7-.9,2.5-.3h.2c.8.7.9,1.9.3,2.6-.3.4-.9.7-1.4.7ZM498.1,270.7h0c-1,0-1.8-.8-1.7-1.8v-.2c0-1,.8-1.8,1.8-1.7,1,0,1.8.8,1.7,1.8v.2c0,1-.8,1.7-1.8,1.7ZM348.1,264.7s0,0,0,0c-1,0-1.7-.9-1.7-1.9v-.2c0-1,.9-1.7,1.9-1.7,1,0,1.7.9,1.7,1.9v.2c0,.9-.8,1.7-1.8,1.7ZM467.8,201.7c-.4,0-.9-.2-1.2-.5h-.1c-.7-.8-.8-1.9-.1-2.6.7-.7,1.8-.8,2.5-.1l.2.2c.7.7.7,1.8,0,2.5-.3.4-.8.6-1.3.6ZM388.6,192.9c-.6,0-1.2-.3-1.5-.8-.5-.8-.2-1.9.6-2.4h.2c.8-.6,1.9-.3,2.4.5.5.8.2,1.9-.6,2.4h-.2c-.3.3-.6.4-.9.4Z"/>
    <path class="cls-2" d="M450.3,342.8c-.7,0-1.4-.4-1.6-1.1-.3-.9.1-1.9,1-2.2h.2c.9-.4,1.9,0,2.2.9.3.9,0,1.9-1,2.2h-.2c-.2.2-.4.2-.6.2ZM378,305.9c-.7,0-1.3-.4-1.6-1v-.2c-.5-.9,0-1.9.8-2.3.9-.4,1.9,0,2.3.9v.2c.5.9,0,1.9-.8,2.3-.2.1-.5.1-.7.1ZM497.4,271.5s0,0,0,0c-.9,0-1.7-.8-1.7-1.8v-.2c0-.9.8-1.7,1.7-1.7s0,0,0,0c.9,0,1.7.8,1.7,1.7v.2c0,.9-.8,1.7-1.7,1.7ZM387.1,220.4c-.4,0-.7-.1-1-.3-.8-.6-.9-1.6-.3-2.4v-.2c.7-.8,1.8-.9,2.5-.4.8.6.9,1.6.4,2.4v.2c-.5.4-1,.7-1.5.7ZM466.1,206.3c-.4,0-.7-.1-1-.4h-.2c-.7-.7-.9-1.8-.3-2.6.6-.7,1.7-.9,2.4-.3h.2c.8.7.9,1.8.3,2.5-.3.4-.8.7-1.4.7Z"/>
    <path class="cls-2" d="M439.9,337c-.1,0-.2,0-.4,0h-.2c-1.7-.2-3-1.8-2.8-3.6.2-1.7,1.8-3,3.5-2.8h.2c1.7.2,3,1.8,2.8,3.5-.2,1.6-1.6,2.8-3.2,2.8Z"/>
    <path class="cls-2" d="M496.8,273.8s0,0,0,0c-1.8,0-3.1-1.5-3.1-3.2v-.2c0-1.8,1.5-3.2,3.2-3.1,1.8,0,3.1,1.5,3.1,3.2v.2c0,1.7-1.5,3.1-3.2,3.1Z"/>
    <path class="cls-5" d="M394.3,268.2c-.2,0-.5,0-.7,0-3.5-.4-6-3.5-5.6-6.9,0,0,0,0,0,0v-.4c.4-3.5,3.4-6,6.9-5.7,3.5.3,6,3.4,5.7,6.9v.5c-.4,3.2-3.1,5.6-6.3,5.6Z"/>
    <path class="cls-2" d="M456.2,209.6c-.3,0-.6,0-.9-.1h-.2c-1.7-.6-2.6-2.3-2.1-4,.5-1.7,2.3-2.6,4-2.1h.3c1.7.6,2.6,2.4,2.1,4.1-.4,1.4-1.7,2.2-3,2.2Z"/>
    <path class="cls-2" d="M432,314.8c-.4,0-.9-.2-1.2-.5l-.2-.2c-.6-.6-.6-1.7,0-2.3.6-.6,1.7-.6,2.3,0l.2.2c.6.7.6,1.7,0,2.3-.3.3-.7.5-1.1.5ZM496.1,273.2s0,0,0,0c-.9,0-1.6-.8-1.6-1.7v-.2c0-.9.8-1.6,1.7-1.6.9,0,1.6.8,1.6,1.7v.2c0,.9-.8,1.6-1.6,1.6ZM436.8,225.9c-.5,0-1-.2-1.3-.6-.6-.7-.4-1.7.3-2.3l.2-.2c.7-.6,1.7-.4,2.3.3.6.7.4,1.7-.3,2.3h-.2c-.3.4-.7.5-1,.5Z"/>
    <path class="cls-2" d="M472.3,314c-.6,0-1.2-.4-1.5-1-.4-.8,0-1.7.8-2.1h.2c.8-.5,1.7,0,2.1.7.4.8,0,1.7-.8,2.1h-.2c-.2.2-.4.2-.6.2ZM454.6,235.7c-.4,0-.9-.2-1.2-.6-.6-.7-.5-1.7.2-2.2l.2-.2c.7-.6,1.7-.5,2.2.2.6.7.5,1.7-.2,2.2l-.2.2c-.3.3-.7.4-1,.4ZM469.5,230.1s0,0-.1,0h-.2c-.9,0-1.6-.8-1.5-1.7,0-.9.7-1.6,1.7-1.5h.3c.9,0,1.5.8,1.5,1.7,0,.8-.8,1.5-1.6,1.5Z"/>
  </g>
  <g class="cls-6">
    <image width="585" height="584" transform="translate(-37 -36)" xlink:href="onboard-img-01-1.png"/>
  </g>
</svg>