<?xml version="1.0" encoding="UTF-8"?>
<svg id="Layer_3" data-name="Layer 3" xmlns="http://www.w3.org/2000/svg" version="1.1" viewBox="0 0 512 512">
  <defs>
    <style>
      .cls-1 {
        fill: #ff74af;
      }

      .cls-1, .cls-2, .cls-3, .cls-4, .cls-5 {
        stroke-width: 0px;
      }

      .cls-2 {
        fill: #6a6fdc;
      }

      .cls-3 {
        fill: #fdebc2;
      }

      .cls-4 {
        fill: #ffa6ab;
      }

      .cls-5 {
        fill: #64d5ff;
      }
    </style>
  </defs>
  <path class="cls-2" d="M250.6,512h0c-2.4,0-4.3-1.9-4.3-4.3s1.9-4.3,4.3-4.3,4.3,1.9,4.3,4.3-1.9,4.3-4.3,4.3Z"/>
  <path class="cls-2" d="M272.9,511.2c-2.4,0-4.3-1.9-4.3-4.3s1.8-4.2,4-4.3c2.3-.2,4.4,1.5,4.6,3.8.3,2.4-1.4,4.5-3.8,4.8-.2,0-.4,0-.5,0Z"/>
  <path class="cls-2" d="M228.2,510.9c-.1,0-.2,0-.3,0-2.2-.1-4-2-4-4.3s1.9-4.3,4.3-4.3.4,0,.5,0c2.4.3,4.1,2.4,3.8,4.8-.2,2.2-2.1,3.8-4.3,3.8Z"/>
  <path class="cls-2" d="M295.1,508.5c-1.9,0-3.7-1.3-4.2-3.3-.6-2.3.8-4.6,3.1-5.2.2,0,.4,0,.6-.1,2.4-.3,4.5,1.4,4.8,3.8.3,2.3-1.4,4.4-3.6,4.7-.2,0-.5,0-.7,0Z"/>
  <path class="cls-2" d="M206,507.9c-.3,0-.6,0-.8,0-2.2-.4-3.8-2.5-3.5-4.8.3-2.4,2.5-4,4.8-3.7.1,0,.3,0,.5,0,2.3.5,3.8,2.8,3.3,5.1-.4,2-2.2,3.4-4.2,3.4Z"/>
  <path class="cls-2" d="M206,503.6h0c0,0,0,0,0,0Z"/>
  <path class="cls-2" d="M184.2,502.9c-.3,0-.6,0-.9-.1-.2,0-.4-.1-.6-.2-2.2-.8-3.4-3.3-2.5-5.5.8-2.1,3.1-3.2,5.2-2.6,2.2.6,3.6,2.8,3.1,5.1-.4,2-2.2,3.4-4.2,3.4Z"/>
  <path class="cls-2" d="M163,495.9c-.3,0-.6,0-.9-.1-.2,0-.4-.1-.6-.2-2.2-.8-3.4-3.3-2.5-5.5.8-2.1,3.1-3.2,5.2-2.6,2.2.6,3.6,2.8,3.1,5.1-.4,2-2.2,3.4-4.2,3.4Z"/>
  <path class="cls-2" d="M338.5,497.5c-1.8,0-3.5-1.1-4.1-2.9-.8-2.3.5-4.7,2.7-5.4,2.2-.7,4.7.4,5.4,2.6.8,2.2-.3,4.6-2.5,5.5,0,0-.2,0-.2,0-.5.2-.9.2-1.4.2Z"/>
  <path class="cls-2" d="M320.9,498.2c-.7-2-2.8-3.2-4.9-2.8h0c0,0-.2,0-.2,0,0,0-.2,0-.3,0-2.3.8-3.5,3.2-2.7,5.4.6,1.8,2.3,2.9,4.1,2.9s.6,0,.8-.1c.1,0,.2,0,.4,0h0c0,0,.1,0,.2,0,0,0,.2,0,.2,0,2.2-.8,3.3-3.2,2.5-5.5Z"/>
  <path class="cls-2" d="M359.3,489.4c-1.7,0-3.4-1.1-4-2.8-.8-2.1.2-4.5,2.3-5.4,2.1-1,4.6,0,5.7,2,1.1,2.1.2,4.7-1.9,5.8-.1,0-.3.1-.5.2-.5.2-1,.3-1.5.3Z"/>
  <path class="cls-2" d="M350.3,473.3c-1.7,0-3.4-1.1-4-2.8-.8-2.1.2-4.5,2.3-5.4,2.1-1,4.6,0,5.7,2,1.1,2.1.2,4.7-1.9,5.8-.1,0-.3.1-.5.2-.5.2-1,.3-1.5.3Z"/>
  <path class="cls-2" d="M142.3,487.2c-.6,0-1.3-.1-1.9-.5h0c-2.1-1.1-3-3.7-1.9-5.8,1.1-2.1,3.6-3,5.8-1.9,2.1,1.1,3,3.7,2,5.8-.8,1.5-2.3,2.4-3.8,2.4Z"/>
  <path class="cls-2" d="M379.4,479.5c-1.3,0-2.7-.6-3.5-1.8-1.4-1.9-.9-4.6,1-6,.2-.1.4-.3.6-.4,2.1-1.1,4.7-.2,5.8,1.9,1,2.1.3,4.6-1.7,5.7-.7.4-1.4.6-2.2.6Z"/>
  <path class="cls-2" d="M122.7,476.5c-.8,0-1.6-.2-2.3-.7l2.3-3.7-2.3,3.6c-2-1.2-2.6-3.9-1.4-5.9,1.2-2,3.8-2.7,5.8-1.5,0,0,.1,0,.2.1,2,1.3,2.6,3.9,1.4,5.9-.8,1.3-2.2,2-3.7,2Z"/>
  <path class="cls-2" d="M398.5,467.9c-1.4,0-2.8-.7-3.7-2-1.3-2-.6-4.7,1.4-5.9,1.9-1.4,4.5-.9,5.9,1.1,1.4,1.9.8,4.7-1.1,6.1,0,0-.2.1-.3.2-.7.4-1.5.7-2.3.7Z"/>
  <path class="cls-2" d="M104.1,464c-.9,0-1.7-.3-2.5-.8-.1,0-.2-.2-.3-.3-1.8-1.5-2-4.3-.5-6.1,1.5-1.8,4.1-2,5.9-.6,1.9,1.4,2.3,4,.9,5.9-.8,1.2-2.2,1.8-3.5,1.8Z"/>
  <path class="cls-2" d="M416.6,454.6c-1.3,0-2.7-.6-3.5-1.8-1.3-1.9-1-4.5.8-5.9,1.8-1.5,4.5-1.2,6,.5,1.5,1.8,1.3,4.5-.5,6.1,0,0-.2.2-.3.3-.8.5-1.6.8-2.5.8Z"/>
  <path class="cls-2" d="M86.8,449.8c-1,0-2-.3-2.8-1,0,0-.2-.2-.3-.3-1.7-1.7-1.7-4.4,0-6.1,1.6-1.6,4.3-1.7,6-.1,1.7,1.6,1.9,4.2.4,6-.9,1-2.1,1.5-3.3,1.5Z"/>
  <path class="cls-2" d="M433.4,439.8c-1.2,0-2.4-.5-3.3-1.5-1.5-1.8-1.3-4.4.3-6,1.7-1.6,4.4-1.6,6,0,1.7,1.7,1.7,4.4,0,6.1,0,0-.2.2-.3.3-.8.7-1.8,1-2.8,1Z"/>
  <path class="cls-2" d="M71,433.9c-1.2,0-2.4-.5-3.2-1.4-1.5-1.7-1.5-4.3.1-6,1.7-1.7,4.4-1.7,6.1,0s.2.2.3.3c1.5,1.8,1.3,4.5-.5,6.1-.8.7-1.8,1-2.8,1Z"/>
  <path class="cls-2" d="M71,429.7h0c0,0,0,0,0,0Z"/>
  <path class="cls-2" d="M56.8,416.7c-1.3,0-2.6-.6-3.4-1.7-1.4-1.8-1.2-4.4.6-5.9,1.8-1.5,4.5-1.3,6.1.5,0,0,.2.2.3.3,1.4,1.9.9,4.6-1,6-.8.5-1.6.8-2.5.8Z"/>
  <path class="cls-2" d="M462.6,406c-.8,0-1.6-.2-2.3-.7-2-1.3-2.6-4-1.3-6,0,0,.1-.2.2-.3,1.4-1.9,4.1-2.4,6-1,1.9,1.4,2.4,4.1,1,6l-3.5-2.5,3.5,2.5c-.8,1.3-2.1,2-3.5,2Z"/>
  <path class="cls-4" d="M448.8,423.5c-.8,0-1.6-.2-2.3-.7-2-1.3-2.6-4-1.3-6,0,0,.1-.2.2-.3,1.4-1.9,4.1-2.4,6-1,1.9,1.4,2.4,4.1,1,6l-3.5-2.5,3.5,2.5c-.8,1.3-2.1,2-3.5,2Z"/>
  <path class="cls-2" d="M44.1,398.2c-1.4,0-2.8-.7-3.6-2,0,0,0-.1-.1-.2-1.2-2.1-.5-4.7,1.6-5.9s4.7-.5,5.9,1.6c1.2,2,.5,4.7-1.5,5.9-.7.4-1.5.6-2.2.6Z"/>
  <path class="cls-2" d="M474.7,387.1c-.9,0-1.7-.3-2.5-.8-1.8-1.3-2.3-3.8-1.2-5.7,1.1-2,3.6-2.8,5.7-1.7,2.1,1.1,3,3.6,1.9,5.8-.1.2-.2.4-.4.6-.8,1.2-2.2,1.8-3.5,1.8Z"/>
  <path class="cls-2" d="M33.1,378.7c-1.6,0-3.1-.9-3.8-2.4h0c-1.1-2.2-.2-4.8,1.9-5.8,2.1-1.1,4.7-.2,5.8,1.9,1.1,2.1.2,4.7-1.9,5.8-.6.3-1.3.5-1.9.5Z"/>
  <path class="cls-2" d="M485,367.2c-.5,0-1,0-1.5-.3-2.2-.8-3.4-3.3-2.5-5.5,0-.1.1-.3.2-.5,1.1-2.1,3.6-3,5.8-1.9,2.1,1,3,3.6,2,5.7-.7,1.6-2.3,2.6-3.9,2.6Z"/>
  <path class="cls-2" d="M23.9,358.4c-1.7,0-3.4-1.1-4-2.8l4-1.5-4,1.5c-1-2.2,0-4.6,2.2-5.6,2.2-1,4.8.1,5.7,2.3,0,0,0,.2.1.3.8,2.2-.3,4.7-2.5,5.5-.5.2-1,.3-1.5.3Z"/>
  <path class="cls-2" d="M493.4,346.5c-.5,0-1,0-1.5-.3-2.2-.8-3.4-3.3-2.5-5.5.8-2.2,3.3-3.4,5.5-2.6,2.2.8,3.4,3.2,2.6,5.5,0,0,0,.1,0,.1-.7,1.7-2.3,2.8-4,2.8Z"/>
  <path class="cls-2" d="M16.4,337.3c-1.8,0-3.4-1.1-4.1-2.9,0-.1-.1-.3-.1-.5-.5-2.3.9-4.6,3.2-5.2,2.2-.5,4.5.8,5.1,2.9.7,2.2-.5,4.6-2.7,5.4-.5.2-1,.2-1.4.2Z"/>
  <path class="cls-2" d="M499.9,325.1c-.5,0-1,0-1.4-.2-2.2-.8-3.3-3.1-2.7-5.2.6-2.2,2.9-3.6,5.1-3.1,2.3.5,3.8,2.9,3.2,5.2,0,.2,0,.4-.1.5-.6,1.8-2.3,2.9-4.1,2.9Z"/>
  <path class="cls-2" d="M10.6,315.6c-1.9,0-3.7-1.3-4.2-3.3,0,0,0,0,0-.1-.5-2.3.9-4.6,3.3-5.1,2.3-.5,4.6.9,5.1,3.3.5,2.3-.9,4.6-3.2,5.2-.3,0-.7.1-1,.1Z"/>
  <path class="cls-2" d="M20.7,310.4c-1.9,0-3.7-1.3-4.2-3.3,0,0,0,0,0-.1-.5-2.3.9-4.6,3.3-5.1,2.3-.5,4.6.9,5.1,3.3.5,2.3-.9,4.6-3.2,5.2-.3,0-.7.1-1,.1Z"/>
  <path class="cls-2" d="M17.5,322.8c-1.9,0-3.7-1.3-4.2-3.3,0,0,0,0,0-.1-.5-2.3.9-4.6,3.3-5.1,2.3-.5,4.6.9,5.1,3.3.5,2.3-.9,4.6-3.2,5.2-.3,0-.7.1-1,.1Z"/>
  <path class="cls-2" d="M504.5,303.2c-.3,0-.6,0-.9-.1-2.2-.5-3.7-2.7-3.3-4.9.3-2.3,2.4-3.9,4.8-3.6,2.4.3,4.1,2.4,3.8,4.8,0,.1,0,.3,0,.5-.4,2-2.2,3.4-4.2,3.4Z"/>
  <path class="cls-2" d="M489.1,305.3c-.3,0-.6,0-.9-.1-2.2-.5-3.7-2.7-3.3-4.9.3-2.3,2.4-3.9,4.8-3.6,2.4.3,4.1,2.4,3.8,4.8,0,.1,0,.3,0,.5-.4,2-2.2,3.4-4.2,3.4Z"/>
  <path class="cls-5" d="M6.7,293.6c-2.1,0-3.9-1.6-4.3-3.7-.4-2.2,1-4.4,3.3-4.9,2.3-.5,4.6.9,5.2,3.2,0,.2,0,.4,0,.6.3,2.4-1.4,4.5-3.8,4.8-.2,0-.3,0-.5,0Z"/>
  <path class="cls-2" d="M507.1,280.9c-2.4,0-4.3-1.9-4.3-4.3s0-.4,0-.5c.3-2.4,2.4-4.1,4.8-3.8,2.3.3,4,2.3,3.8,4.6-.1,2.2-2,4-4.3,4Z"/>
  <path class="cls-2" d="M4.5,271.3c-2.3,0-4.2-1.8-4.3-4.2-.1-2.2,1.5-4.2,3.8-4.5,2.3-.3,4.5,1.4,4.8,3.8,0,.2,0,.4,0,.6,0,2.4-1.9,4.3-4.3,4.3Z"/>
  <path class="cls-2" d="M507.7,258.6c-2.4,0-4.3-1.9-4.3-4.3s1.9-4.3,4.3-4.3,4.3,1.9,4.3,4.3h0c0,2.4-1.9,4.4-4.3,4.4Z"/>
  <path class="cls-2" d="M506.5,236.2c-2.4,0-4.3-1.9-4.3-4.3s1.9-4.3,4.3-4.3,4.3,1.9,4.3,4.3h0c0,2.4-1.9,4.4-4.3,4.4Z"/>
  <path class="cls-2" d="M4.3,248.9h0c-2.4,0-4.3-1.9-4.3-4.3s0-.4,0-.6c.3-2.4,2.4-4,4.8-3.8,2.3.3,3.9,2.2,3.8,4.5,0,2.3-2,4.2-4.3,4.2Z"/>
  <path class="cls-2" d="M5.9,226.6c-.2,0-.3,0-.5,0-2.4-.3-4.1-2.4-3.8-4.7,0,0,0,0,0,0,.3-2.4,2.4-4.1,4.8-3.8,2.4.3,4.1,2.4,3.8,4.8-.3,2.2-2.1,3.8-4.3,3.8Z"/>
  <path class="cls-2" d="M503.4,214.1c-2.1,0-3.9-1.5-4.2-3.5-.4-2.3,1-4.5,3.2-5,2.3-.5,4.6.9,5.2,3.2,0,.2,0,.4,0,.6.3,2.4-1.4,4.5-3.8,4.8-.2,0-.3,0-.5,0Z"/>
  <path class="cls-2" d="M9.4,204.5c-.3,0-.7,0-1-.1-2.3-.5-3.7-2.8-3.2-5,.4-2.2,2.5-3.8,4.7-3.5,2.4.3,4.1,2.4,3.8,4.8,0,.2,0,.4,0,.6-.5,2-2.2,3.3-4.2,3.3Z"/>
  <path class="cls-2" d="M498.4,192.2c-1.8,0-3.4-1.1-4.1-2.9,0-.1-.1-.3-.1-.5-.5-2.3.9-4.6,3.2-5.2,2.3-.5,4.5.8,5.1,3.1.6,2.2-.5,4.5-2.7,5.2-.5.2-1,.2-1.4.2Z"/>
  <path class="cls-2" d="M491.8,170.9c-1.8,0-3.4-1.1-4.1-2.9,0-.1-.1-.3-.1-.5-.5-2.3.9-4.6,3.2-5.2,2.3-.5,4.5.8,5.1,3.1.6,2.2-.5,4.5-2.7,5.2-.5.2-1,.2-1.4.2Z"/>
  <path class="cls-2" d="M14.9,182.8c-.5,0-1,0-1.4-.2-2.2-.8-3.4-3.2-2.7-5.4.7-2.2,2.9-3.5,5.1-2.9,2.3.5,3.8,2.9,3.2,5.2,0,.2,0,.4-.1.5-.6,1.8-2.3,2.9-4.1,2.9Z"/>
  <path class="cls-2" d="M22.3,161.7c-.5,0-1,0-1.5-.3-2.2-.8-3.4-3.3-2.5-5.5,0-.1.1-.3.2-.4,1-2.2,3.6-3.1,5.7-2.1,2.1,1,3,3.4,2.1,5.6-.7,1.7-2.3,2.7-4,2.7Z"/>
  <path class="cls-2" d="M483,150.2c-1.7,0-3.2-1-3.9-2.6-1-2.1,0-4.6,2-5.7,2.1-1.1,4.7-.2,5.8,1.9,0,.1.1.3.2.5.8,2.2-.3,4.7-2.5,5.5-.5.2-1,.3-1.5.3Z"/>
  <path class="cls-2" d="M31.6,141.3c-.7,0-1.3-.2-2-.5-2.1-1.1-2.9-3.6-1.9-5.7,0,0,0-.1,0-.2,1.1-2.1,3.7-2.9,5.8-1.8,2.1,1.1,2.9,3.7,1.8,5.8-.8,1.5-2.3,2.3-3.8,2.3Z"/>
  <path class="cls-2" d="M472.7,130.4c-1.4,0-2.8-.7-3.7-2,0,0-.1-.2-.2-.3-1.1-2.1-.3-4.7,1.8-5.8,2.1-1.1,4.7-.3,5.8,1.7,1.1,2,.5,4.6-1.5,5.8-.7.4-1.5.7-2.3.7Z"/>
  <path class="cls-2" d="M472.7,126h0s0,0,0,0Z"/>
  <path class="cls-2" d="M41.4,124.3c-.8,0-1.7-.2-2.4-.7-1.9-1.3-2.5-3.9-1.3-5.9,1.2-1.9,3.7-2.6,5.7-1.6,2.1,1.1,2.9,3.7,1.8,5.8,0,.1-.2.3-.2.4-.8,1.2-2.2,1.9-3.6,1.9Z"/>
  <path class="cls-3" d="M460.6,111.5c-1.4,0-2.8-.7-3.6-1.9-1.3-2-.8-4.6,1.1-6,1.9-1.3,4.6-.9,5.9,1,0,0,0,.1.1.2,1.3,2,.8,4.7-1.2,6-.7.5-1.6.7-2.4.7Z"/>
  <path class="cls-2" d="M54.3,106c-.9,0-1.7-.3-2.5-.8-1.9-1.4-2.4-4.1-1-6,0-.1.2-.2.3-.3,1.5-1.8,4.3-2,6.1-.5,1.8,1.5,2,4.1.6,5.9-.8,1.1-2.1,1.7-3.4,1.7Z"/>
  <path class="cls-2" d="M446.9,93.8c-1.3,0-2.6-.6-3.4-1.7-1.5-1.8-1.3-4.5.5-6,1.8-1.5,4.6-1.3,6.1.5,0,0,.1.2.2.2,1.5,1.9,1.1,4.6-.8,6-.8.6-1.7.9-2.6.9Z"/>
  <path class="cls-2" d="M431.6,77.4c-1.3,0-2.6-.6-3.4-1.7-1.5-1.8-1.3-4.5.5-6,1.8-1.5,4.6-1.3,6.1.5,0,0,.1.2.2.2,1.5,1.9,1.1,4.6-.8,6-.8.6-1.7.9-2.6.9Z"/>
  <path class="cls-2" d="M68.8,88.9c-1,0-2.1-.4-2.9-1.1-1.7-1.6-1.9-4.3-.3-6.1h0c1.6-1.8,4.3-1.9,6.1-.3,1.7,1.6,1.9,4.3.2,6.1-.9.9-2,1.4-3.2,1.4Z"/>
  <path class="cls-2" d="M87.8,72.1l-3-3.1-2.8-3.3c1.8-1.5,4.5-1.4,6,.4,1.6,1.8,1.4,4.4-.3,6Z"/>
  <path class="cls-2" d="M84.8,69h0,0Z"/>
  <path class="cls-2" d="M415,62.5c-1,0-2-.3-2.8-1-1.8-1.5-2-4.2-.5-6,1.5-1.8,4.1-2.1,6-.7,0,0,.1.1.2.2,1.8,1.5,2,4.3.5,6.1-.9,1-2.1,1.5-3.3,1.5Z"/>
  <path class="cls-2" d="M102.2,59.2c-1.3,0-2.6-.6-3.4-1.7-1.4-1.9-1.1-4.5.8-6,0,0,.1-.1.2-.2,1.9-1.4,4.6-.9,6,1,1.4,1.9.9,4.6-1,6-.8.5-1.6.8-2.5.8Z"/>
  <path class="cls-2" d="M396.9,49.3c-.7,0-1.4-.2-2.1-.6-.1,0-.3-.2-.4-.3-1.9-1.4-2.4-4.1-1-6,1.4-1.9,4-2.4,5.9-1.1,1.9,1.2,2.5,3.7,1.4,5.7-.8,1.4-2.3,2.2-3.8,2.2Z"/>
  <path class="cls-2" d="M120.8,46.8c-1.5,0-3-.8-3.8-2.2-1.1-2-.5-4.6,1.5-5.8,1.9-1.2,4.5-.7,5.8,1.2,1.4,1.9.9,4.6-1,6-.1,0-.3.2-.4.3-.7.4-1.4.6-2.1.6Z"/>
  <path class="cls-2" d="M377.7,37.8c-.7,0-1.4-.2-2.1-.5-2-1.1-2.8-3.6-1.8-5.7,1.1-2.1,3.7-3,5.8-1.9.1,0,.3.2.5.3,2,1.3,2.6,4,1.3,6-.8,1.3-2.2,2-3.6,2Z"/>
  <path class="cls-2" d="M140.5,36c-1.6,0-3.1-.9-3.9-2.4-1.1-2.1-.2-4.7,1.9-5.8h0c2.1-1.1,4.7-.2,5.8,1.9,1.1,2.1.2,4.7-1.9,5.8-.6.3-1.3.5-1.9.5Z"/>
  <path class="cls-2" d="M357.5,28.1c-.6,0-1.2-.1-1.7-.4-2.2-1-3.2-3.5-2.2-5.7,1-2.2,3.5-3.2,5.6-2.2h0c2.2,1,3.2,3.5,2.2,5.7-.7,1.6-2.3,2.6-3.9,2.6Z"/>
  <path class="cls-2" d="M162.5,26.6l-1.6-4-1.5-4c2.2-.8,4.7.3,5.6,2.5.8,2.2-.2,4.7-2.4,5.6Z"/>
  <path class="cls-2" d="M160.9,22.6h0,0Z"/>
  <path class="cls-2" d="M336.5,20.4c-.5,0-.9,0-1.4-.2-2.2-.7-3.5-3.2-2.8-5.4.7-2.2,3.1-3.5,5.4-2.8,0,0,.1,0,.1,0,2.3.8,3.5,3.2,2.7,5.4-.6,1.8-2.3,2.9-4.1,2.9Z"/>
  <path class="cls-2" d="M182.1,19.6c-1.9,0-3.6-1.2-4.2-3.1-.7-2.3.6-4.6,2.8-5.3,0,0,.1,0,.2,0,2.3-.6,4.7.7,5.3,3,.6,2.3-.7,4.7-3,5.3-.4.1-.8.2-1.2.2Z"/>
  <path class="cls-2" d="M314.9,14.5c-.3,0-.7,0-1-.1-2.3-.6-3.7-2.9-3.2-5.2.5-2.3,2.8-3.7,5.1-3.2,0,0,.1,0,.2,0,2.3.6,3.7,2.9,3.1,5.2-.5,2-2.2,3.3-4.2,3.3Z"/>
  <path class="cls-2" d="M203.8,14.1c-2,0-3.8-1.4-4.2-3.4-.5-2.3,1-4.6,3.3-5.1,0,0,.1,0,.2,0,2.3-.4,4.6,1.1,5,3.4.4,2.3-1.1,4.6-3.4,5-.3,0-.5,0-.8,0Z"/>
  <path class="cls-2" d="M292.9,10.6c-.2,0-.4,0-.6,0-2.3-.3-4-2.4-3.7-4.7.3-2.4,2.4-4.1,4.8-3.8.1,0,.3,0,.4,0,2.3.4,3.9,2.7,3.4,5-.4,2.1-2.2,3.5-4.2,3.5Z"/>
  <path class="cls-2" d="M225.8,10.4c-2.2,0-4-1.6-4.3-3.8-.3-2.3,1.4-4.4,3.7-4.7,2.3-.3,4.4,1.2,4.8,3.5.4,2.3-1.1,4.6-3.4,5-.1,0-.3,0-.4,0-.2,0-.3,0-.5,0Z"/>
  <path class="cls-2" d="M225.8,6h0c0,0,0,0,0,0Z"/>
  <path class="cls-2" d="M270.6,8.7c0,0-.2,0-.3,0-2.4-.1-4.2-2.2-4.1-4.5.1-2.4,2.2-4.2,4.5-4.1l-.2,4.3.2-4.3c2.4,0,4.2,1.9,4.2,4.3s-2,4.3-4.4,4.3Z"/>
  <path class="cls-2" d="M248,8.6c-2.3,0-4.1-1.8-4.2-4.1-.1-2.4,1.8-4.4,4.2-4.5,2.5-.1,4.6,1.8,4.6,4.3s-1.9,4.3-4.3,4.3c0,0-.2,0-.2,0Z"/>
  <path class="cls-2" d="M239.7,494.5c0,0-.3,0-.4,0-2.3-.1-4-2.1-3.8-4.4.2-2.3,2.1-4,4.4-3.8,2.3,0,4,1.8,4,4.1s-1.9,4.1-4.2,4.1Z"/>
  <path class="cls-2" d="M277.3,492.7c-2.1,0-3.9-1.7-4.1-3.8-.2-2.3,1.5-4.2,3.8-4.4,2.2-.3,4.2,1.3,4.5,3.5.3,2.3-1.4,4.3-3.6,4.6,0,0-.3,0-.3,0,0,0-.2,0-.3,0Z"/>
  <path class="cls-5" d="M202.2,490.8c-.3,0-.5,0-.8,0l.8-4-.8,4c-2.2-.3-3.7-2.4-3.4-4.6.3-2.2,2.5-3.8,4.7-3.5,0,0,.2,0,.3,0,2.2.4,3.7,2.6,3.2,4.8-.4,2-2.1,3.3-4,3.3Z"/>
  <path class="cls-2" d="M314.4,485.6c-1.8,0-3.5-1.2-4-3.1-.6-2.2.7-4.4,2.9-5,2.2-.6,4.5.7,5.1,2.9.6,2.2-.6,4.4-2.8,5,0,0-.1,0-.2,0-.4,0-.7.1-1.1.1Z"/>
  <path class="cls-2" d="M165.6,481.5c-.5,0-.9,0-1.4-.2l1.4-3.9-1.4,3.9c-2.2-.6-3.4-2.9-2.7-5.1.6-2.2,3-3.4,5.2-2.8,0,0,.3,0,.3.1,2.1.8,3.3,3.1,2.5,5.3-.6,1.7-2.2,2.7-3.9,2.7Z"/>
  <path class="cls-2" d="M130.9,466.7c-.7,0-1.3-.2-1.9-.5l1.9-3.6-2,3.6c-2-1.1-2.8-3.5-1.7-5.5,1-2,3.4-2.8,5.5-1.8,0,0,.2,0,.2.1,2,1.1,2.7,3.6,1.7,5.6-.7,1.4-2.2,2.2-3.6,2.2Z"/>
  <path class="cls-3" d="M383.6,455.8c-1.4,0-2.7-.7-3.5-1.9-1.2-1.9-.7-4.4,1.2-5.6,0,0,.2-.1.2-.1,1.9-1.2,4.5-.6,5.7,1.3,1.2,1.9.6,4.5-1.3,5.7l-2.2-3.5,2.1,3.5c-.7.4-1.4.6-2.2.6Z"/>
  <path class="cls-2" d="M98.9,446.4c-.8,0-1.7-.3-2.4-.8h0c-1.8-1.4-2.2-4-.8-5.8,1.4-1.8,3.9-2.2,5.8-.8,1.8,1.4,2.2,4,.9,5.8-.8,1.1-2,1.7-3.3,1.7Z"/>
  <path class="cls-2" d="M413.9,433.4c-1.3,0-2.5-.6-3.3-1.6-1.3-1.8-1-4.2.7-5.6,1.7-1.5,4.2-1.3,5.7.3,1.5,1.7,1.4,4.3-.3,5.8,0,0-.3.2-.4.3-.7.6-1.6.8-2.5.8Z"/>
  <path class="cls-2" d="M71,421c-1.1,0-2.2-.4-3-1.3h0c-1.5-1.7-1.4-4.3.3-5.9,1.7-1.5,4.3-1.4,5.8.3,1.5,1.7,1.4,4.3-.2,5.8-.8.7-1.8,1.1-2.8,1.1Z"/>
  <path class="cls-2" d="M48,391.2c-1.4,0-2.7-.7-3.5-2l3.5-2.2-3.5,2.1c-1.2-1.9-.6-4.4,1.3-5.7,1.9-1.2,4.4-.7,5.6,1.2,0,0,.1.2.1.2,1.2,1.9.6,4.5-1.3,5.7-.7.4-1.4.6-2.1.6Z"/>
  <path class="cls-2" d="M462.1,375.6c-.7,0-1.4-.2-2-.5-2-1.1-2.7-3.6-1.6-5.6,0,0,.1-.2.2-.3,1.2-1.9,3.7-2.5,5.7-1.3,1.9,1.2,2.5,3.7,1.3,5.7l-3.5-2.2,3.5,2.2c-.7,1.4-2.1,2.1-3.5,2.1Z"/>
  <path class="cls-2" d="M440.4,406.5c-.7,0-1.4-.2-2-.5-2-1.1-2.7-3.6-1.6-5.6,0,0,.1-.2.2-.3,1.2-1.9,3.7-2.5,5.7-1.3,1.9,1.2,2.5,3.7,1.3,5.7l-3.5-2.2,3.5,2.2c-.7,1.4-2.1,2.1-3.5,2.1Z"/>
  <path class="cls-5" d="M478.4,341.5c-.6,0-1.1-.1-1.7-.4-2-.9-3-3.2-2.1-5.3.8-2.1,3.1-3.2,5.2-2.4,2.1.8,3.3,3.1,2.5,5.2,0,0-.1.3-.1.4-.7,1.5-2.2,2.4-3.8,2.4Z"/>
  <path class="cls-2" d="M10.1,285.5c-2,0-3.8-1.6-4.1-3.7,0,0,0-.3,0-.4-.2-2.3,1.6-4.2,3.8-4.4,2.2-.1,4.2,1.6,4.4,3.8.3,2.3-1.3,4.2-3.5,4.5-.2,0-.4,0-.5,0Z"/>
  <path class="cls-1" d="M494,268c-2.3,0-4.1-1.9-4.1-4.2s0-.3,0-.4c.2-2.3,2.1-4,4.4-3.8,2.3.2,4,2.1,3.8,4.4l-4.1-.3,4.1.3c0,2.3-1.8,4-4.1,4Z"/>
  <path class="cls-2" d="M8.2,247.8c-2.3,0-4.1-1.9-4.1-4.2s0-.3,0-.4c.2-2.3,2.1-4,4.4-3.8,2.3.2,4,2.1,3.8,4.4,0,2.3-1.8,4-4.1,4Z"/>
  <path class="cls-2" d="M493.2,230.3c-2,0-3.8-1.6-4.1-3.6,0,0,0-.3,0-.4-.2-2.3,1.6-4.2,3.8-4.4,2.3-.1,4.2,1.6,4.4,3.8l-4.1.3,4.1-.3c.3,2.2-1.3,4.2-3.5,4.5-.2,0-.4,0-.5,0Z"/>
  <path class="cls-2" d="M11.8,210.2c-.2,0-.4,0-.6,0-2.3-.3-3.8-2.5-3.5-4.7,0,0,0-.3,0-.3.4-2.2,2.6-3.7,4.8-3.2,2.2.4,3.7,2.6,3.2,4.8-.3,2.1-2,3.5-4,3.5Z"/>
  <path class="cls-5" d="M486.8,193c-1.9,0-3.6-1.3-4-3.3-.6-2.2.7-4.4,2.9-5,2.2-.6,4.5.8,5.1,3,0,0,0,.3,0,.4.5,2.2-1,4.4-3.2,4.9-.3,0-.6,0-.8,0Z"/>
  <path class="cls-4" d="M20.8,173.4c-.5,0-.9,0-1.4-.2-2.1-.8-3.2-3.1-2.5-5.2.7-2.1,2.9-3.3,5-2.7,2.2.6,3.5,2.9,2.9,5.1,0,0,0,.3-.1.4-.6,1.7-2.2,2.7-3.9,2.7Z"/>
  <path class="cls-2" d="M20.5,169.2h.2c0,0-.2,0-.2,0Z"/>
  <path class="cls-2" d="M475,157.1c-1.7,0-3.2-1-3.9-2.7-.8-2.1.2-4.5,2.3-5.3,2.1-.8,4.4.1,5.3,2.2,0,0,0,.2.1.3.8,2.1-.3,4.5-2.4,5.3-.5.2-1,.3-1.4.3Z"/>
  <path class="cls-2" d="M448.3,142c-1.7,0-3.2-1-3.9-2.7-.8-2.1.2-4.5,2.3-5.3,2.1-.8,4.4.1,5.3,2.2,0,0,0,.2.1.3.8,2.1-.3,4.5-2.4,5.3-.5.2-1,.3-1.4.3Z"/>
  <path class="cls-2" d="M35.3,138.6c-.6,0-1.3-.1-1.9-.5-2-1-2.8-3.5-1.8-5.5l3.6,1.9-3.6-1.9c1-2,3.5-2.8,5.5-1.8,2,1,2.9,3.4,1.9,5.4,0,0,0,.2-.1.3-.7,1.4-2.2,2.2-3.7,2.2Z"/>
  <path class="cls-2" d="M458.1,123.4c-1.4,0-2.8-.8-3.6-2.1-1.1-2-.4-4.5,1.5-5.6,1.9-1.1,4.4-.6,5.6,1.3,0,0,.1.2.1.2,1.1,2,.4,4.5-1.6,5.6-.6.4-1.3.5-2,.5Z"/>
  <path class="cls-2" d="M49.9,117.5l-3.6-2.1-3.4-2.2c1.2-1.9,3.7-2.5,5.7-1.3,1.9,1.2,2.5,3.7,1.3,5.6Z"/>
  <path class="cls-2" d="M46.3,115.4h0,0Z"/>
  <path class="cls-4" d="M436.2,92.6c-1.2,0-2.4-.5-3.2-1.6-1.4-1.8-1.1-4.3.6-5.7,1.7-1.4,4.2-1.2,5.7.4,0,0,.2.2.2.2,1.4,1.8,1.1,4.4-.7,5.8-.8.6-1.6.9-2.5.9Z"/>
  <path class="cls-2" d="M72.4,88.1l-3.2-2.6-3-2.8c1.5-1.7,4.1-1.8,5.8-.4,1.7,1.5,1.9,4.1.4,5.8Z"/>
  <path class="cls-2" d="M69.3,85.4h0,0Z"/>
  <path class="cls-2" d="M410,65.5c-.9,0-1.9-.3-2.6-.9,0,0-.2-.2-.3-.2-1.7-1.5-1.8-4.1-.3-5.8,1.5-1.7,4.1-1.8,5.8-.3l-2.8,3,2.8-3c1.8,1.4,2,3.9.6,5.7-.8,1-2,1.5-3.2,1.5Z"/>
  <path class="cls-2" d="M96.7,59.5h0,0Z"/>
  <path class="cls-2" d="M379.7,42.9c-.8,0-1.6-.2-2.3-.7-1.9-1.2-2.4-3.8-1.2-5.7,1.2-1.9,3.7-2.5,5.6-1.3,0,0,.2.1.2.1,1.9,1.3,2.4,3.8,1.1,5.7-.8,1.2-2.1,1.8-3.4,1.8Z"/>
  <path class="cls-2" d="M127.9,42.2c-1.4,0-2.8-.7-3.6-2-1.1-2-.5-4.5,1.5-5.6h0c2-1.2,4.5-.5,5.6,1.5,1.1,2,.5,4.5-1.5,5.6-.7.4-1.4.6-2.1.6Z"/>
  <path class="cls-2" d="M161.9,25.7c-1.6,0-3.2-1-3.9-2.6-.8-2.1.2-4.5,2.3-5.3h0c2.1-.9,4.5.2,5.3,2.3.8,2.1-.2,4.5-2.3,5.3-.5.2-1,.3-1.5.3Z"/>
  <path class="cls-2" d="M346.2,25.6c-.6,0-1.2-.1-1.7-.4-2.1-.8-3.1-3.2-2.3-5.3.8-2.1,3.3-3.1,5.4-2.3,0,0,.2,0,.3.1,2.1,1,3,3.4,2,5.5-.7,1.5-2.2,2.4-3.7,2.4Z"/>
  <path class="cls-2" d="M197.9,14.5c-1.9,0-3.6-1.3-4-3.2-.5-2.2.8-4.4,3-4.9,0,0,.1,0,.2,0,2.2-.5,4.4.9,4.9,3.2.5,2.2-.9,4.4-3.2,4.9-.3,0-.6,0-.9,0Z"/>
  <path class="cls-2" d="M310.3,14c-.3,0-.6,0-.9,0l.8-4,.9-4-.9,4,1-4c2.2.5,3.6,2.7,3.1,4.9-.4,1.9-2.1,3.2-4,3.2Z"/>
  <path class="cls-2" d="M235.1,8.6c-2.1,0-4-1.7-4.1-3.8-.2-2.3,1.6-4.2,3.8-4.4l.3,4.1-.3-4.1c2.3-.1,4.2,1.5,4.4,3.7.2,2.2-1.4,4.2-3.7,4.4,0,0-.2,0-.2,0,0,0-.2,0-.3,0Z"/>
  <path class="cls-2" d="M272.9,8.4c0,0-.2,0-.3,0-2.3-.2-4-2.1-3.9-4.4.2-2.3,2.1-4,4.3-3.8h0c2.3.2,4,2.1,3.8,4.4-.1,2.2-2,3.8-4.1,3.8Z"/>
  <path class="cls-2" d="M259.6,477.5c-2.1,0-3.8-1.6-3.9-3.7-.1-2.2,1.6-4,3.7-4.1,2.2-.1,4,1.5,4.2,3.6.2,2.1-1.4,4-3.5,4.2,0,0-.3,0-.3,0,0,0-.1,0-.2,0Z"/>
  <path class="cls-2" d="M206.7,476c-.2,0-.4,0-.6,0l.6-3.9-.6,3.9c-2.1-.3-3.6-2.2-3.4-4.3.3-2.1,2.1-3.7,4.2-3.4,0,0,.2,0,.3,0,2.1.3,3.6,2.3,3.3,4.4-.3,2-2,3.4-3.9,3.4Z"/>
  <path class="cls-1" d="M311.9,468c-1.7,0-3.3-1.1-3.8-2.8-.6-2.1.6-4.2,2.7-4.8,2.1-.6,4.3.6,4.9,2.6.6,2.1-.5,4.2-2.6,4.8,0,0-.2,0-.2,0-.4.1-.7.2-1.1.2Z"/>
  <path class="cls-2" d="M155.2,463.1c-.4,0-.9,0-1.3-.2,0,0-.3-.1-.3-.1-2-.8-2.9-3.1-2.1-5.1.8-2,3.1-2.9,5.1-2.1,2,.7,3.1,2.9,2.4,5-.6,1.6-2.1,2.6-3.7,2.6Z"/>
  <path class="cls-2" d="M361.1,448c-1.4,0-2.7-.7-3.4-2-1-1.9-.4-4.2,1.5-5.3,1.9-1,4.3-.4,5.4,1.5,1,1.9.4,4.2-1.5,5.3,0,0,0,0,0,0-.6.3-1.2.5-1.9.5Z"/>
  <path class="cls-2" d="M108.1,438.8c-.8,0-1.6-.2-2.3-.7l2.3-3.2-2.3,3.2c-1.8-1.2-2.2-3.7-1-5.4,1.2-1.8,3.6-2.3,5.4-1.1,0,0,.2.1.2.1,1.8,1.2,2.2,3.7.9,5.5-.8,1.1-2,1.7-3.2,1.7Z"/>
  <path class="cls-3" d="M404.7,417.8c-1.1,0-2.1-.4-2.9-1.3-1.4-1.6-1.4-4,.2-5.5,0,0,.2-.1.2-.2,1.6-1.4,4.1-1.3,5.5.4,1.4,1.6,1.3,4.1-.4,5.5l-2.6-2.9,2.6,3c-.8.7-1.7,1-2.6,1Z"/>
  <path class="cls-2" d="M68.4,403.5c-1.1,0-2.1-.4-2.9-1.3,0,0-.1-.2-.2-.2-1.4-1.7-1.1-4.1.6-5.5,1.7-1.4,4.1-1.1,5.5.6,1.3,1.7,1.2,4.1-.5,5.5-.7.6-1.7.9-2.6.9Z"/>
  <path class="cls-2" d="M440.2,378.4c-.8,0-1.5-.2-2.2-.7-1.8-1.2-2.3-3.6-1.1-5.4,0,0,.1-.2.1-.2,1.2-1.8,3.7-2.2,5.5-.9,1.8,1.2,2.2,3.7.9,5.5l-3.2-2.3,3.2,2.3c-.8,1.1-2,1.7-3.3,1.7Z"/>
  <path class="cls-2" d="M38.9,359.4c-1.4,0-2.7-.7-3.4-2,0,0,0-.2,0-.2-1-1.9-.2-4.3,1.8-5.3,1.9-1,4.3-.2,5.3,1.8,1,1.9.2,4.3-1.7,5.3-.6.3-1.2.4-1.8.4Z"/>
  <path class="cls-3" d="M30.1,357.5c-1.4,0-2.7-.7-3.4-2,0,0,0-.2,0-.2-1-1.9-.2-4.3,1.8-5.3,1.9-1,4.3-.2,5.3,1.8,1,1.9.2,4.3-1.7,5.3-.6.3-1.2.4-1.8.4Z"/>
  <path class="cls-2" d="M465.3,331.6c-.5,0-.9,0-1.4-.3-2-.8-3-2.9-2.3-4.9,0,0,0-.2.1-.3.8-2,3.1-3,5.1-2.1,2,.8,3,3.1,2.1,5.1l-3.6-1.5,3.6,1.5c-.6,1.5-2.1,2.5-3.7,2.5Z"/>
  <path class="cls-2" d="M478.9,280.4c-.2,0-.4,0-.6,0-2.1-.3-3.6-2.3-3.3-4.4.3-2.1,2.3-3.7,4.4-3.4,2.1.3,3.6,2.2,3.3,4.4,0,0,0,.1,0,.1-.3,1.9-2,3.3-3.9,3.3Z"/>
  <path class="cls-4" d="M13,257c-2.1,0-3.8-1.6-3.9-3.7,0,0,0-.3,0-.3,0-2.2,1.8-3.9,3.9-3.9s3.9,1.8,3.9,3.9-1.7,3.9-3.8,4c0,0,0,0,0,0Z"/>
  <path class="cls-2" d="M480.7,227.3c-2.1,0-3.8-1.6-3.9-3.7-.1-2.1,1.5-4,3.6-4.2,2.1-.2,4,1.3,4.2,3.5,0,0,0,.3,0,.3.1,2.2-1.6,4-3.7,4.1,0,0-.1,0-.2,0Z"/>
  <path class="cls-2" d="M16.5,204.1c-.2,0-.5,0-.8,0-2.1-.4-3.5-2.5-3.1-4.6l3.8.7-3.8-.8c.4-2.1,2.4-3.5,4.5-3.2,2.1.3,3.5,2.3,3.2,4.4,0,0,0,.3,0,.3-.4,1.9-2,3.2-3.8,3.2Z"/>
  <path class="cls-2" d="M471,175.1c-1.7,0-3.3-1.1-3.8-2.8-.6-2.1.6-4.3,2.6-4.9,2.1-.6,4.2.5,4.8,2.6,0,0,0,.1,0,.2.6,2.1-.6,4.3-2.7,4.9-.4.1-.7.2-1.1.2Z"/>
  <path class="cls-2" d="M31.1,153c-.5,0-1,0-1.4-.3-2-.8-3-3-2.2-5h0c.8-2.1,3.1-3.1,5.1-2.3,2,.8,3,3.1,2.1,5.1-.6,1.5-2.1,2.5-3.7,2.5Z"/>
  <path class="cls-2" d="M450.4,126.2c-1.3,0-2.6-.7-3.3-1.8,0,0-.1-.2-.2-.3-1-1.9-.3-4.3,1.6-5.3,1.9-1,4.3-.3,5.3,1.6l-3.4,1.9,3.5-1.8c1,1.9.4,4.2-1.4,5.3-.6.4-1.3.5-2,.5Z"/>
  <path class="cls-2" d="M51.2,114.7c-.8,0-1.5-.2-2.2-.7-1.8-1.2-2.2-3.7-1-5.4l3.2,2.2-3.2-2.2c1.2-1.8,3.6-2.3,5.4-1.1,1.8,1.2,2.4,3.5,1.2,5.3,0,0-.1.2-.2.3-.8,1.1-2,1.7-3.2,1.7Z"/>
  <path class="cls-2" d="M419.7,83c-1.1,0-2.2-.5-2.9-1.3-1.4-1.6-1.3-4.1.3-5.6,1.6-1.4,4-1.3,5.5.3,0,0,.1.1.1.1,1.4,1.6,1.3,4.1-.4,5.5-.7.6-1.7,1-2.6,1Z"/>
  <path class="cls-4" d="M85.4,74.1c-1.1,0-2.1-.4-2.9-1.2-1.4-1.6-1.4-3.9.1-5.4,0,0,.2-.2.2-.2,1.6-1.4,4.1-1.3,5.5.4,1.4,1.6,1.3,4.1-.4,5.5-.8.7-1.7,1-2.6,1Z"/>
  <path class="cls-2" d="M379.9,47.8c-.7,0-1.5-.2-2.1-.7,0,0-.2-.1-.2-.1-1.8-1.2-2.2-3.7-.9-5.5,1.2-1.8,3.7-2.2,5.5-.9l-2.3,3.2,2.3-3.2c1.8,1.2,2.2,3.7,1,5.4-.8,1.1-2,1.7-3.2,1.7Z"/>
  <path class="cls-2" d="M130.1,41.8l-2.2-3.3-1.9-3.4c1.9-1.1,4.3-.5,5.4,1.3,1.1,1.8.5,4.2-1.3,5.4Z"/>
  <path class="cls-2" d="M127.9,38.5h0,0Z"/>
  <path class="cls-2" d="M333,23.1c-.5,0-1,0-1.4-.3-2-.8-3.1-3.1-2.3-5.1.8-2,3-3,5-2.3,0,0,.2,0,.2,0,2,.8,3,3.1,2.2,5.1-.6,1.5-2.1,2.5-3.6,2.5Z"/>
  <path class="cls-2" d="M176.5,20.6c-1.7,0-3.2-1-3.8-2.7-.7-2.1.4-4.2,2.5-4.9h.1c2.1-.7,4.3.4,4.9,2.5.7,2.1-.5,4.3-2.5,4.9-.4.1-.8.2-1.2.2Z"/>
  <path class="cls-2" d="M281.5,10.4c-.2,0-.4,0-.6,0-2.1-.3-3.7-2.3-3.4-4.4.3-2.1,2.2-3.6,4.3-3.4,0,0,.2,0,.2,0,2.1.3,3.6,2.3,3.3,4.4-.3,2-2,3.4-3.9,3.4Z"/>
  <path class="cls-2" d="M228.3,9.8c-2,0-3.7-1.5-3.9-3.5-.2-2.2,1.4-4.1,3.5-4.3l.4,3.9-.3-3.9c2.1-.2,4.1,1.3,4.3,3.4.2,2.1-1.3,4.1-3.4,4.3,0,0-.2,0-.2,0-.1,0-.3,0-.4,0Z"/>
  <path class="cls-2" d="M214,461c0,0-.2,0-.3,0h-.2c-2-.2-3.6-1.9-3.4-4,.2-2,1.9-3.6,4-3.4,2,.2,3.7,1.9,3.5,4-.1,2-1.7,3.4-3.6,3.4Z"/>
  <path class="cls-2" d="M282.1,457c-1.7,0-3.3-1.2-3.7-2.9-.4-2,.8-3.9,2.8-4.4,0,0,.3,0,.3,0,2-.4,4,1,4.3,3,.4,2-1,4-3,4.3l-.7-3.7.6,3.7c-.2,0-.5,0-.7,0Z"/>
  <path class="cls-2" d="M147.4,445.6c-.4,0-.9,0-1.3-.3h-.2c-1.9-.8-2.8-3-2.1-4.9.8-1.9,2.9-2.8,4.8-2.1,1.9.8,2.9,3,2.1,4.9-.6,1.5-1.9,2.4-3.4,2.4Z"/>
  <path class="cls-2" d="M346.7,434.9c-1.3,0-2.6-.7-3.3-2-.9-1.8-.2-4.1,1.6-5,0,0,.2,0,.2-.1,1.8-.9,4.1-.2,5,1.7.9,1.8.2,4.1-1.7,5l-1.7-3.3,1.6,3.4c-.5.3-1.1.4-1.7.4Z"/>
  <path class="cls-2" d="M89.2,409.9c-.9,0-1.8-.3-2.5-1l2.5-2.8-2.5,2.7c-1.6-1.3-1.7-3.7-.4-5.2,1.3-1.6,3.7-1.7,5.2-.4,0,0,.2.2.2.2,1.5,1.4,1.6,3.7.3,5.3-.7.8-1.7,1.2-2.8,1.2Z"/>
  <path class="cls-2" d="M402.6,395.6c-1,0-2-.4-2.7-1.2-1.4-1.5-1.4-3.8.1-5.3,1.5-1.4,3.9-1.4,5.3,0,1.4,1.5,1.4,3.8,0,5.2,0,0-.1.1-.1.1-.7.7-1.6,1-2.6,1Z"/>
  <path class="cls-2" d="M46.5,356.7c-1.3,0-2.6-.7-3.3-1.9l3.3-1.8-3.3,1.7c-1-1.8-.4-4,1.4-5.1,1.8-1,4-.5,5,1.2,0,0,.1.3.2.3,1,1.8.3,4.1-1.5,5-.6.3-1.2.4-1.8.4Z"/>
  <path class="cls-2" d="M443.4,340.9c-.6,0-1.2-.1-1.8-.5-1.8-1-2.5-3.2-1.5-5,1-1.8,3.2-2.5,5-1.6,1.8.9,2.6,3.1,1.6,4.9,0,0-.1.2-.1.3-.7,1.2-2,1.9-3.3,1.9Z"/>
  <path class="cls-2" d="M22.7,292.6c-1.7,0-3.2-1.1-3.6-2.8,0,0,0-.3,0-.3-.4-2,.9-4,3-4.3,2-.4,4,.9,4.3,3,.4,2-.9,4-2.9,4.4-.3,0-.5,0-.8,0Z"/>
  <path class="cls-2" d="M465,276.1c-.2,0-.4,0-.6,0-2-.3-3.4-2.2-3.1-4.2,0,0,0-.3,0-.3.4-2,2.3-3.3,4.3-3,2,.4,3.3,2.3,3,4.3h0c-.3,1.9-1.9,3.2-3.7,3.2Z"/>
  <path class="cls-2" d="M18.1,224.4c0,0-.2,0-.3,0-2-.2-3.6-1.9-3.4-3.9v-.2c.2-2,1.9-3.6,4-3.4,2,.2,3.6,1.9,3.4,4-.1,2-1.8,3.5-3.7,3.5Z"/>
  <path class="cls-2" d="M466.5,207.8c-1.8,0-3.4-1.3-3.7-3.1,0,0,0-.3,0-.3-.2-2,1.2-3.9,3.3-4.1,2-.2,3.9,1.2,4.1,3.3l-3.7.4,3.7-.4c.3,2-1.2,3.9-3.2,4.2-.2,0-.3,0-.5,0Z"/>
  <path class="cls-1" d="M32.1,157.5c-.4,0-.8,0-1.2-.2-1.9-.7-2.9-2.7-2.2-4.6,0,0,0-.2.1-.3.7-1.9,2.9-2.9,4.8-2.1,1.9.7,2.9,2.9,2.1,4.8-.6,1.5-2,2.4-3.5,2.4Z"/>
  <path class="cls-2" d="M59.3,108.1l-3.2-1.9-3-2.2c1.1-1.7,3.4-2.2,5.1-1.1,1.7,1.1,2.2,3.4,1.1,5.1Z"/>
  <path class="cls-2" d="M56.1,106.2h0,0Z"/>
  <path class="cls-2" d="M412.3,83.9c-1.1,0-2.1-.5-2.9-1.3-1.3-1.6-1.2-3.9.4-5.3,1.5-1.3,3.8-1.2,5.2.3,0,0,.2.2.2.2,1.3,1.6,1.1,3.9-.5,5.2-.7.6-1.5.9-2.4.9Z"/>
  <path class="cls-2" d="M102.7,59.8c-1.1,0-2.2-.5-2.9-1.4-1.3-1.6-1.1-3.9.5-5.1,0,0,.2-.1.2-.2,1.6-1.3,4-1,5.2.7,1.3,1.6,1,4-.7,5.2-.7.5-1.5.8-2.3.8Z"/>
  <path class="cls-2" d="M360.3,39.7c-.7,0-1.3-.2-1.9-.5-1.8-1.1-2.4-3.4-1.3-5.2,1.1-1.8,3.3-2.4,5-1.3h.1c1.8,1.2,2.3,3.4,1.2,5.2-.7,1.1-1.9,1.8-3.2,1.8Z"/>
  <path class="cls-2" d="M162.1,26c-1.5,0-3-.9-3.5-2.4-.7-1.9.1-4,2-4.8,0,0,.2,0,.3-.1,1.9-.7,4.1.3,4.8,2.2.7,1.9-.3,4.1-2.2,4.8-.4.2-.9.2-1.3.2Z"/>
  <path class="cls-2" d="M296.9,14.6c-.2,0-.5,0-.7,0,0,0-.2,0-.3,0-2-.5-3.2-2.5-2.8-4.5.5-2,2.5-3.2,4.5-2.8l-.8,3.6.9-3.6c2,.4,3.3,2.4,2.9,4.4-.4,1.8-1.9,3-3.6,3Z"/>
  <path class="cls-2" d="M228.7,10.4c-1.9,0-3.6-1.5-3.8-3.4-.2-2,1.2-3.8,3.3-4,0,0,.2,0,.2,0,2.1-.1,3.8,1.4,4,3.4.2,2-1.4,3.8-3.4,4,0,0-.2,0-.3,0Z"/>
  <path class="cls-2" d="M207.5,444.6c-.1,0-.2,0-.3,0l.3-3.5-.4,3.5c-1.9-.1-3.4-1.8-3.3-3.7.1-1.9,1.9-3.4,3.7-3.3,0,0,.3,0,.3,0,1.9.2,3.4,1.9,3.2,3.8-.2,1.8-1.7,3.2-3.5,3.2Z"/>
  <path class="cls-2" d="M290.6,437.1c-1.6,0-3-1-3.4-2.6-.5-1.9.5-3.8,2.4-4.3,1.9-.5,3.9.5,4.4,2.4.5,1.9-.5,3.8-2.3,4.3,0,0-.1,0-.1,0-.3,0-.6.1-.9.1Z"/>
  <path class="cls-2" d="M127.2,421.9c-.5,0-1.1-.1-1.6-.4,0,0-.2-.1-.2-.1-1.7-.9-2.4-3.1-1.5-4.8.9-1.7,3.1-2.4,4.8-1.5,1.7.9,2.5,3.1,1.6,4.8-.6,1.2-1.8,1.9-3.1,1.9Z"/>
  <path class="cls-2" d="M366.5,402.3c-1.1,0-2.2-.5-2.9-1.5-1.1-1.6-.7-3.8.9-4.9,1.6-1.1,3.9-.8,5,.8,1.1,1.6.8,3.7-.8,4.8h-.2c-.6.6-1.3.8-2,.8Z"/>
  <path class="cls-2" d="M63.8,368c-1.1,0-2.1-.5-2.8-1.4l2.8-2.1-2.9,2c-1.2-1.5-.9-3.8.6-4.9,1.5-1.2,3.8-.9,4.9.6,0,0,.2.2.2.2,1.2,1.6.8,3.8-.7,4.9-.6.5-1.4.7-2.1.7Z"/>
  <path class="cls-2" d="M423.9,341.8c-.6,0-1.3-.2-1.9-.5-1.6-1-2.1-3.2-1.1-4.9,1-1.6,3.2-2.2,4.9-1.2,1.6,1,2.2,3.1,1.2,4.7,0,0-.1.2-.1.2-.7,1.1-1.8,1.6-3,1.6Z"/>
  <path class="cls-2" d="M28.7,292.2c-1.6,0-2.9-1-3.3-2.6,0,0,0-.2,0-.2-.5-1.9.7-3.8,2.6-4.3,1.9-.5,3.8.7,4.3,2.6.5,1.9-.7,3.9-2.5,4.4-.3,0-.6.1-.9.1Z"/>
  <path class="cls-2" d="M452.6,263.5c-.2,0-.4,0-.6,0-1.9-.4-3.2-2.2-2.8-4.1.3-1.9,2.2-3.3,4.1-2.9,1.9.3,3.2,2,2.9,3.9,0,0,0,.3,0,.3-.3,1.7-1.8,2.9-3.5,2.9Z"/>
  <path class="cls-2" d="M23.5,209c-.1,0-.3,0-.4,0-1.9-.2-3.3-2-3.1-3.9l3.5.4-3.5-.5c.2-1.9,1.9-3.4,3.8-3.2,1.9.2,3.4,1.9,3.2,3.8,0,0,0,.3,0,.3-.2,1.8-1.7,3.1-3.5,3.1Z"/>
  <path class="cls-2" d="M450.3,180c-1.6,0-3.1-1.1-3.4-2.8-.4-1.9.8-3.9,2.7-4.3,1.9-.4,3.8.7,4.2,2.6v.2c.5,1.9-.8,3.8-2.7,4.2-.3,0-.5,0-.7,0Z"/>
  <path class="cls-2" d="M47.1,128.8c-.5,0-1.1-.1-1.6-.4-1.7-.9-2.4-3-1.5-4.7l3.1,1.6-3.1-1.8c.9-1.7,3-2.4,4.7-1.6,1.7.9,2.4,3,1.6,4.7,0,0-.1.2-.1.2-.6,1.2-1.9,1.9-3.1,1.9Z"/>
  <path class="cls-2" d="M61,105.2c-.7,0-1.4-.2-2-.6-1.6-1.1-2-3.3-.9-4.9l2.9,2-2.8-2.1c1.1-1.6,3.2-2.1,4.9-1,1.6,1.1,2.1,3.2,1,4.9,0,0-.1.2-.2.2-.7,1-1.8,1.5-2.9,1.5Z"/>
  <path class="cls-2" d="M418.2,103c-1.1,0-2.2-.5-2.9-1.5,0,0-.1-.2-.1-.2-1.1-1.6-.6-3.8,1-4.9,1.6-1.1,3.8-.6,4.9,1h0c1.1,1.7.7,3.9-.9,5-.6.4-1.3.6-2,.6Z"/>
  <path class="cls-2" d="M121.1,47.1c-1.2,0-2.3-.5-3-1.6-1.1-1.6-.7-3.8,1-4.8h.2c1.6-1.2,3.8-.7,4.9.9,1.1,1.6.6,3.8-1.1,4.9-.6.4-1.3.6-2,.6Z"/>
  <path class="cls-2" d="M359.5,43.7c-.7,0-1.3-.2-1.9-.6-1.6-1.1-2.1-3.3-1.1-4.9,1.1-1.6,3.2-2.1,4.8-1,0,0,.2.1.2.1,1.6,1.1,2.1,3.3,1,4.9-.7,1-1.8,1.6-2.9,1.6Z"/>
  <path class="cls-2" d="M281.9,13.3c-.2,0-.4,0-.6,0-1.9-.3-3.3-2.2-3-4.1.3-1.9,2-3.2,3.9-2.9,0,0,.2,0,.2,0,1.9.3,3.2,2.2,2.9,4.1-.3,1.7-1.8,2.9-3.5,2.9Z"/>
  <path class="cls-3" d="M194.5,427.6c-.1,0-.3,0-.4,0h-.2c-1.8-.2-3.2-1.8-3-3.7.2-1.8,1.8-3.2,3.6-3h.3c1.8.3,3.1,1.9,2.9,3.8-.2,1.7-1.6,2.9-3.3,2.9Z"/>
  <path class="cls-2" d="M292.5,418.3c-1.4,0-2.8-.9-3.2-2.4-.5-1.8.5-3.6,2.2-4.1,1.8-.6,3.7.4,4.3,2.1.6,1.8-.3,3.6-2.1,4.1h-.3c-.3.2-.6.2-1,.2Z"/>
  <path class="cls-5" d="M102.7,395.5c-1.2,0-2.4-.4-3.5-1.1l-.5-.4c-2.7-2.1-3.2-6-1.1-8.7,2.1-2.7,6-3.2,8.7-1.1,2.8,2,3.5,5.9,1.5,8.7-1.2,1.7-3.1,2.6-5,2.6Z"/>
  <path class="cls-2" d="M378.4,370.1c-.9,0-1.8-.4-2.4-1.1-1.3-1.3-1.2-3.4.2-4.7l.2-.2c1.4-1.2,3.5-1.1,4.7.3,1.2,1.4,1.1,3.5-.3,4.7h-.1c-.6.7-1.5,1-2.3,1Z"/>
  <path class="cls-2" d="M42.7,314.9c-1.3,0-2.5-.8-3.1-2.1v-.2c-.8-1.7,0-3.6,1.7-4.3,1.7-.7,3.6,0,4.3,1.8v.2c.8,1.7,0,3.6-1.7,4.3-.4.2-.8.3-1.3.3Z"/>
  <path class="cls-2" d="M431.6,287.4c-.4,0-.7,0-1.1-.2-1.7-.6-2.7-2.5-2.1-4.2.6-1.7,2.5-2.8,4.2-2.2,1.7.6,2.7,2.4,2.2,4.1v.3c-.6,1.4-1.9,2.2-3.2,2.2Z"/>
  <path class="cls-2" d="M26.8,217.6c0,0-.1,0-.2,0-1.8,0-3.2-1.7-3.2-3.5v-.2c.1-1.8,1.7-3.3,3.5-3.2,1.8,0,3.2,1.7,3.2,3.5v.2c-.1,1.8-1.6,3.2-3.3,3.2Z"/>
  <path class="cls-2" d="M440.5,189.3c-1.6,0-3-1.2-3.3-2.8v-.3c-.3-1.8,1-3.5,2.8-3.7,1.8-.2,3.5,1.1,3.7,2.9v.2c.3,1.8-.9,3.5-2.8,3.8-.2,0-.3,0-.5,0Z"/>
  <path class="cls-2" d="M52.5,122.4c-.5,0-1-.1-1.5-.4-1.6-.8-2.3-2.8-1.5-4.4l.2-.3c.9-1.6,2.9-2.2,4.5-1.3,1.6.9,2.2,2.9,1.3,4.5-.6,1.2-1.8,1.9-3,1.9Z"/>
  <path class="cls-2" d="M66,100.3c-.7,0-1.3-.2-1.9-.6-1.5-1.1-1.9-3.1-.8-4.6h0c1.1-1.5,3.2-2,4.7-.9,1.5,1,1.9,3,.9,4.5,0,0-.1.2-.2.2-.7.9-1.7,1.4-2.7,1.4Z"/>
  <path class="cls-2" d="M405.6,97.2c-1.1,0-2.1-.5-2.8-1.5v-.2c-1.2-1.5-.8-3.6.8-4.6,1.5-1,3.6-.6,4.6.9v.2c1.2,1.5.8,3.6-.8,4.6-.6.4-1.2.6-1.9.6Z"/>
  <path class="cls-4" d="M140.4,36.1c-1.2,0-2.4-.7-3-1.8-.8-1.6-.2-3.6,1.4-4.5h.2c1.6-1,3.6-.3,4.5,1.3.8,1.6.2,3.6-1.4,4.5h-.2c-.5.4-1,.5-1.5.5Z"/>
  <path class="cls-2" d="M332.2,31.8c-.5,0-1-.1-1.5-.4-1.6-.8-2.4-2.9-1.6-4.5.8-1.6,2.7-2.4,4.4-1.5h.3c1.6,1,2.3,3,1.4,4.6-.6,1.1-1.8,1.8-3,1.8Z"/>
  <path class="cls-2" d="M235.8,11.2c-1.8,0-3.3-1.4-3.3-3.2,0-1.8,1.4-3.4,3.2-3.5,0,0,.1,0,.1,0,1.9,0,3.4,1.4,3.5,3.2,0,1.8-1.3,3.4-3.1,3.4l-.2-3.3v3.3s0,0-.1,0Z"/>
  <path class="cls-2" d="M244.5,412.1c-1.5,0-2.9-1.1-3.1-2.7-.2-1.7,1-3.3,2.7-3.5h.3c1.7-.3,3.3.9,3.5,2.7.2,1.7-1,3.3-2.7,3.5h-.3c-.1,0-.3,0-.4,0Z"/>
  <path class="cls-2" d="M132.6,396.5c-.4,0-.9,0-1.3-.3h-.3c-1.6-.9-2.2-2.8-1.4-4.3.8-1.6,2.6-2.2,4.2-1.4h.2c1.6.8,2.3,2.7,1.5,4.3-.5,1.1-1.7,1.8-2.8,1.8Z"/>
  <path class="cls-2" d="M350.3,370.6c-1,0-1.9-.5-2.5-1.3-1-1.4-.7-3.4.7-4.4l.2-.2c1.4-1,3.4-.7,4.4.7,1,1.4.7,3.4-.7,4.4l-.2.2c-.6.4-1.2.6-1.8.6Z"/>
  <path class="cls-2" d="M52.1,317.7c-1.1,0-2.2-.6-2.8-1.7l-.2-.3c-.8-1.5-.1-3.4,1.4-4.2,1.5-.8,3.4-.1,4.2,1.4v.2c.9,1.5.3,3.4-1.2,4.2-.5.2-1,.4-1.4.4Z"/>
  <path class="cls-2" d="M418.2,280.2c-.3,0-.7,0-1-.2-1.6-.6-2.5-2.4-1.9-4v-.3c.7-1.6,2.5-2.4,4.2-1.8,1.6.6,2.4,2.4,1.8,4v.2c-.5,1.3-1.7,2.1-3,2.1Z"/>
  <path class="cls-3" d="M31.1,208c-.1,0-.3,0-.4,0-2.6-.2-4.5-2.5-4.2-5.1v-.3c.2-2.6,2.4-4.6,5-4.4,2.6.2,4.5,2.4,4.4,5v.5c-.3,2.4-2.3,4.3-4.7,4.3Z"/>
  <path class="cls-2" d="M426.7,167.2c-1.5,0-2.8-1-3.1-2.5v-.3c-.4-1.7.7-3.3,2.4-3.7,1.7-.3,3.3.8,3.7,2.4v.3c.4,1.7-.7,3.3-2.4,3.7-.2,0-.4,0-.6,0Z"/>
  <path class="cls-2" d="M68.4,99.2c-.6,0-1.2-.2-1.8-.6-1.4-1-1.8-2.9-.8-4.4v-.2c.6-.7,1.2-1.1,2-1.3,0-.7.1-1.5.6-2.1,0,0,0-.1,0-.1,1-1.4,3-1.8,4.4-.8,1.4,1,1.8,2.9.8,4.3l-.2.2c-.4.6-1.1,1.1-1.8,1.2,0,.7,0,1.4-.5,2.1l-.2.3c-.6.9-1.6,1.3-2.6,1.3Z"/>
  <path class="cls-3" d="M373.8,71.6c-1.8,0-3.7-.7-5.1-2.1l-.5-.5c-2.8-2.8-2.8-7.5,0-10.3,2.8-2.8,7.5-2.8,10.3,0l.4.4c2.9,2.8,2.9,7.4,0,10.3-1.4,1.4-3.3,2.2-5.2,2.2Z"/>
  <path class="cls-2" d="M160.5,26.5c-1.2,0-2.4-.8-2.9-2-.6-1.6.2-3.4,1.8-4.1h.3c1.6-.7,3.4,0,4.1,1.7s-.2,3.4-1.8,4.1h-.3c-.4.3-.8.3-1.1.3Z"/>
  <path class="cls-2" d="M273.6,14.9c-.2,0-.4,0-.6,0h-.3c-1.7-.4-2.8-2-2.5-3.7.3-1.7,1.9-2.8,3.6-2.5h.3c1.7.4,2.8,2,2.5,3.7-.3,1.5-1.6,2.6-3.1,2.6Z"/>
  <path class="cls-2" d="M224.8,397c-1.5,0-2.8-1.2-2.9-2.8,0-1.6,1.1-3,2.8-3.1h.3c1.6-.2,3,1.1,3.2,2.7.1,1.6-1.1,3-2.7,3.2h-.4c0,0-.1,0-.2,0Z"/>
  <path class="cls-1" d="M102.1,364.1c-.6,0-1.2-.2-1.8-.6l-.2-.2c-.1,0-.2-.2-.3-.3-1.1-1.1-1.1-3,0-4.1,1.1-1.1,2.8-1.1,4-.2h.2c1.3,1.1,1.5,2.9.6,4.2-.6.8-1.5,1.2-2.3,1.2Z"/>
  <path class="cls-2" d="M345.2,352.3c-.9,0-1.7-.4-2.3-1.1-1-1.3-.8-3.1.5-4.1l.3-.2c1.3-1,3.1-.7,4.1.6,1,1.3.7,3.1-.6,4.1h-.2c-.5.6-1.2.8-1.8.8Z"/>
  <path class="cls-2" d="M37.7,254.5c-1.4,0-2.6-1-2.9-2.4v-.4c-.3-1.6.8-3.1,2.4-3.4,1.6-.2,3.1.8,3.4,2.4v.3c.3,1.6-.7,3.1-2.3,3.4-.2,0-.3,0-.5,0Z"/>
  <path class="cls-2" d="M413.2,244.4c-.2,0-.5,0-.7,0-1.6-.4-2.6-2-2.2-3.5v-.3c.4-1.6,2-2.6,3.6-2.2,1.6.3,2.6,1.9,2.2,3.5v.4c-.4,1.3-1.6,2.3-2.9,2.3Z"/>
  <path class="cls-2" d="M54.4,127.3c-.4,0-.8,0-1.2-.3-1.5-.7-2.1-2.4-1.5-3.9l.2-.4c.7-1.5,2.4-2.1,3.9-1.4,1.5.7,2.1,2.4,1.4,3.9v.2c-.6,1.1-1.7,1.7-2.8,1.7Z"/>
  <path class="cls-2" d="M400.2,117.3c-1.1,0-2.2-.6-2.7-1.7v-.3c-.8-1.5-.2-3.2,1.3-3.9,1.5-.7,3.2,0,3.9,1.4v.3c.8,1.5.2,3.2-1.3,3.9-.4.2-.8.3-1.2.3Z"/>
  <path class="cls-2" d="M75.8,90.8c-.6,0-1.2-.2-1.8-.6-1.3-1-1.6-2.8-.6-4.1l.2-.2c.9-1.3,2.8-1.6,4.1-.7,1.3.9,1.6,2.8.7,4.1l-.2.3c-.6.8-1.5,1.2-2.4,1.2Z"/>
  <path class="cls-2" d="M309.6,27.8c-.4,0-.8,0-1.2-.2h-.3c-1.5-.8-2.2-2.5-1.5-4,.6-1.5,2.4-2.2,3.9-1.5h.3c1.5.8,2.2,2.5,1.5,4-.5,1.1-1.6,1.8-2.7,1.8Z"/>
  <path class="cls-2" d="M181.8,19.6c-1.3,0-2.5-.9-2.8-2.2-.4-1.6.5-3.2,2.1-3.6h.3c1.5-.5,3.2.4,3.6,2,.4,1.6-.5,3.2-2,3.6h-.3c-.3.2-.5.2-.8.2Z"/>
  <path class="cls-2" d="M236,379.1c-1.3,0-2.5-1-2.7-2.3-.2-1.5.8-2.9,2.3-3.1h.4c1.5-.3,2.9.7,3.1,2.2.2,1.5-.8,2.9-2.3,3.1h-.4c-.1,0-.3,0-.4,0Z"/>
  <path class="cls-2" d="M98.7,347.5c-.6,0-1.2-.2-1.8-.6l-.3-.2c-1.2-1-1.3-2.7-.4-3.9,1-1.2,2.7-1.3,3.9-.4l.3.2c1.2,1,1.3,2.7.3,3.9-.5.6-1.3,1-2.1,1Z"/>
  <path class="cls-1" d="M361.8,319c-2,0-4-.7-5.6-2-3.9-3.1-4.5-8.8-1.3-12.7l.9-1c3.2-3.8,8.9-4.3,12.7-1.1,3.8,3.2,4.3,8.9,1.1,12.7l-.6.8c-1.8,2.2-4.4,3.3-7,3.3Z"/>
  <path class="cls-2" d="M38.7,219.6c-1.5,0-2.7-1.2-2.7-2.6v-.4c0-1.5,1.1-2.8,2.6-2.8,1.5,0,2.8,1.1,2.8,2.6v.4c0,1.5-1.1,2.8-2.6,2.8,0,0,0,0,0,0Z"/>
  <path class="cls-2" d="M405.2,177.1c-1.4,0-2.6-1.1-2.7-2.5v-.4c-.1-1.5,1-2.8,2.5-2.9,1.5,0,2.8,1,2.9,2.5v.3c.2,1.5-1,2.8-2.5,3,0,0-.2,0-.2,0Z"/>
  <path class="cls-2" d="M80.7,86c-.6,0-1.2-.2-1.7-.6-1.2-.9-1.4-2.6-.5-3.8l.2-.3c.9-1.2,2.6-1.4,3.8-.5,1.2.9,1.4,2.6.5,3.8l-.2.3c-.5.7-1.4,1.1-2.2,1.1Z"/>
  <path class="cls-2" d="M340.9,51.1c-.6,0-1.2-.2-1.7-.6l-.3-.2c-1.2-1-1.4-2.7-.4-3.8,1-1.2,2.7-1.4,3.9-.4l.3.2c1.2,1,1.3,2.7.4,3.9-.5.7-1.3,1-2.1,1Z"/>
  <path class="cls-2" d="M203.7,15.2c-1.3,0-2.5-1-2.7-2.3-.2-1.5.8-2.9,2.3-3.1,0,0,.2,0,.2,0,1.5-.2,3,.8,3.2,2.3.2,1.5-.7,2.9-2.2,3.1h-.4c-.1,0-.3,0-.4,0Z"/>
  <path class="cls-2" d="M276.5,350.3c-1,0-2-.6-2.4-1.6-.5-1.3.1-2.8,1.4-3.3h.4c1.3-.7,2.8,0,3.3,1.3.5,1.3-.1,2.8-1.4,3.3h-.4c-.3.3-.6.3-.9.3Z"/>
  <path class="cls-2" d="M120.6,347.9c-.4,0-.8,0-1.2-.3l-.4-.2c-1.2-.7-1.7-2.2-1-3.4.7-1.2,2.2-1.7,3.4-1l.3.2c1.2.7,1.7,2.2,1,3.4-.5.9-1.3,1.3-2.2,1.3Z"/>
  <path class="cls-2" d="M384.4,238.6c-.3,0-.5,0-.8-.1-1.3-.4-2.1-1.9-1.6-3.2v-.3c.5-1.3,1.9-2.1,3.3-1.7,1.3.4,2.1,1.8,1.7,3.2v.4c-.5,1.1-1.5,1.7-2.5,1.7Z"/>
  <path class="cls-2" d="M42.9,214.9c-1.3,0-2.5-1.1-2.5-2.4v-.4c0-1.4,1-2.6,2.4-2.7,1.4,0,2.6,1,2.7,2.4v.4c0,1.4-1,2.6-2.4,2.7,0,0,0,0-.1,0Z"/>
  <path class="cls-2" d="M363.8,84.4c-.8,0-1.6-.4-2.1-1.1l-.2-.3c-.8-1.2-.5-2.7.7-3.5,1.2-.8,2.7-.5,3.5.7l.2.3c.8,1.2.5,2.7-.7,3.5-.4.3-.9.4-1.4.4Z"/>
  <path class="cls-2" d="M85.6,81.2c-.5,0-1.1-.2-1.6-.5-1.1-.9-1.3-2.5-.4-3.6l.3-.3c.9-1.1,2.5-1.3,3.6-.4,1.1.9,1.3,2.5.4,3.6l-.2.3c-.5.6-1.2,1-2,1Z"/>
  <path class="cls-2" d="M226.1,14c-1.4,0-2.5-1.1-2.5-2.5,0-1.4,1.1-2.6,2.5-2.6,0,0,.2,0,.2,0h0c1.4,0,2.6,1.1,2.6,2.5,0,1.4-1,2.6-2.4,2.6h-.4s0,0,0,0Z"/>
  <path class="cls-2" d="M175.7,348.3c0,0-.1,0-.2,0h-.3c-1.3-.1-2.3-1.3-2.2-2.6.1-1.3,1.1-2.3,2.5-2.1h.4c1.3.2,2.2,1.3,2.1,2.6-.1,1.2-1.1,2.1-2.3,2.1Z"/>
  <path class="cls-2" d="M335.8,290.8c-.5,0-1.1-.2-1.5-.5-1-.9-1.1-2.3-.3-3.2v-.2c1-1,2.6-1.1,3.5-.3,1,.9,1.1,2.3.3,3.2v.2c-.6.5-1.3.8-2,.8Z"/>
  <path class="cls-2" d="M50.9,241.2c-1,0-2-.7-2.3-1.8v-.5c-.4-1.3.4-2.5,1.6-2.8,1.3-.3,2.5.5,2.8,1.7v.4c.4,1.3-.3,2.5-1.6,2.8-.2,0-.4,0-.6,0Z"/>
  <path class="cls-2" d="M374,126.1c-1,0-1.9-.7-2.2-1.7v-.5c-.5-1.2.2-2.5,1.5-2.9,1.2-.4,2.5.4,2.9,1.6v.4c.5,1.2-.2,2.5-1.5,2.9-.2,0-.5,0-.7,0Z"/>
  <path class="cls-2" d="M90.5,76.4c-.5,0-1-.2-1.5-.5-1-.8-1.2-2.3-.3-3.3l.3-.3c.8-1,2.3-1.2,3.3-.3,1,.8,1.2,2.3.3,3.3l-.3.3c-.5.6-1.1.9-1.8.9Z"/>
  <path class="cls-5" d="M248.9,16.3c-.1,0-.2,0-.3,0h-.4c-1.3-.2-2.2-1.4-2-2.7.2-1.3,1.3-2.2,2.6-2h.5c1.3.2,2.2,1.4,2,2.7-.2,1.2-1.2,2-2.3,2Z"/>
  <path class="cls-5" d="M262.5,322.8c-1.8,0-3.5-1.1-4.2-2.9-.9-2.3.3-4.9,2.6-5.8l.9-.4c2.3-.9,4.9.3,5.8,2.6.9,2.3-.3,4.9-2.6,5.8l-.9.4c-.5.2-1.1.3-1.6.3Z"/>
  <path class="cls-2" d="M84.6,290.9c-.6,0-1.2-.2-1.6-.7l-.3-.4c-.8-.9-.7-2.2.2-3,.9-.8,2.2-.7,3,.2l.3.3c.8.9.7,2.2-.1,3-.4.4-.9.6-1.4.6Z"/>
  <path class="cls-5" d="M367.4,175.2c0,0-.2,0-.3,0-2.4-.2-4.3-2.3-4.1-4.7v-.9c.2-2.4,2.4-4.3,4.7-4.2,2.4.1,4.3,2.2,4.2,4.7v1c-.2,2.3-2.2,4.1-4.5,4.1Z"/>
  <path class="cls-2" d="M69.7,110.9c-.3,0-.6,0-1-.2-1.1-.5-1.5-1.8-1-2.9l.2-.4c.5-1.1,1.8-1.5,2.9-1,1.1.5,1.5,1.8,1,2.9l-.2.5c-.4.8-1.1,1.2-1.9,1.2Z"/>
  <path class="cls-2" d="M95.4,71.7c-.5,0-1-.2-1.4-.5-.9-.8-1-2.1-.2-3l.3-.4c.8-.9,2.1-1,3-.2.9.8,1,2.1.2,3l-.3.4c-.4.5-1,.8-1.6.8Z"/>
  <path class="cls-2" d="M270.8,23.4c-.2,0-.4,0-.7-.1h-.4c-1.1-.5-1.8-1.7-1.4-2.8.4-1.1,1.6-1.7,2.7-1.4l.5.2c1.1.4,1.7,1.6,1.4,2.7-.3.9-1.1,1.5-2,1.5Z"/>
  <path class="cls-5" d="M178.5,316.1s0,0,0,0h-.5c-1.1,0-1.9-1-1.8-2.1,0-1.1,1-1.9,2.1-1.8h.5c1.1,0,1.9,1,1.9,2.1,0,1-.9,1.9-1.9,1.9Z"/>
  <path class="cls-2" d="M343.6,217.2c-.2,0-.5,0-.7-.1-1-.4-1.5-1.5-1.1-2.5l.2-.5c.4-1,1.5-1.5,2.5-1.1,1,.4,1.5,1.5,1.1,2.5l-.2.5c-.3.8-1,1.2-1.8,1.2Z"/>
  <path class="cls-2" d="M53.9,181.7s0,0,0,0c-1.1,0-1.9-1-1.9-2v-.5c0-1.1,1-1.9,2.1-1.8,1.1,0,1.9,1,1.8,2.1v.5c0,1-.9,1.9-2,1.9Z"/>
  <path class="cls-2" d="M100.3,66.9c-.5,0-.9-.2-1.3-.5-.8-.7-.9-1.9-.2-2.8l.3-.4c.7-.8,1.9-.9,2.8-.2.8.7.9,1.9.2,2.8l-.3.4c-.4.4-.9.7-1.5.7Z"/>
  <path class="cls-2" d="M290.5,34.7c-.3,0-.7,0-1-.3l-.4-.2c-.9-.5-1.3-1.7-.7-2.7.5-.9,1.7-1.3,2.7-.7l.5.3c.9.5,1.2,1.7.7,2.7-.4.6-1,1-1.7,1Z"/>
  <path class="cls-4" d="M98.5,277.4c-.8,0-1.6-.2-2.2-.7l-1-.7c-1.7-1.2-2-3.6-.8-5.3,1.2-1.7,3.6-2,5.3-.8l1,.7c1.7,1.2,2,3.6.8,5.3-.7,1-1.9,1.5-3,1.5Z"/>
  <path class="cls-2" d="M302.5,254.7c-.4,0-.8-.1-1.2-.4-.7-.6-.8-1.8-.2-2.5l.4-.4c.6-.7,1.8-.8,2.5-.1.7.6.8,1.8.1,2.5l-.4.4c-.3.4-.8.6-1.3.6Z"/>
  <path class="cls-2" d="M94.9,74.4c-.4,0-.7-.1-1.1-.4-.8-.6-.9-1.7-.3-2.5l.3-.5c.6-.8,1.7-.9,2.5-.3.8.6.9,1.7.3,2.5l-.3.4c-.3.5-.9.7-1.4.7Z"/>
  <path class="cls-2" d="M105.2,62.1c-.4,0-.9-.2-1.2-.5-.7-.7-.8-1.8,0-2.5l.4-.4c.7-.7,1.8-.8,2.5-.1.7.7.8,1.8.1,2.5l-.4.4c-.3.4-.8.6-1.3.6Z"/>
  <path class="cls-2" d="M305.4,51.7l-.4-.4c-.7-.7-.7-1.8,0-2.5.7-.7,1.8-.7,2.5,0l.3.3-1.2,1.3-1.3,1.2Z"/>
  <path class="cls-2" d="M243.6,274.3c-.6,0-1.2-.4-1.5-1-.3-.8,0-1.7.9-2l.5-.2c.8-.3,1.7,0,2,.9.3.8,0,1.7-.9,2l-.6.2c-.2,0-.4.1-.6.1Z"/>
  <path class="cls-2" d="M58.7,188.3c-.8,0-1.5-.6-1.6-1.4v-.6c-.1-.9.5-1.6,1.4-1.7.8,0,1.6.6,1.7,1.4v.6c.1.9-.5,1.6-1.4,1.7,0,0,0,0-.1,0Z"/>
  <path class="cls-5" d="M316.7,75.7c-.6,0-1.1-.3-1.4-.8l-.3-.5c-.4-.8-.1-1.7.6-2.1.8-.4,1.7-.1,2.1.6l.3.5c.4.8.1,1.7-.6,2.1-.2.1-.5.2-.7.2Z"/>
  <path class="cls-2" d="M110.1,57.3c-.4,0-.8-.1-1.1-.4-.6-.6-.6-1.6,0-2.2l.4-.4c.6-.6,1.6-.6,2.2,0,.6.6.6,1.6,0,2.2l-.4.4c-.3.3-.7.5-1.1.5Z"/>
  <path class="cls-2" d="M175.7,272h-.6c-.8,0-1.4-.6-1.4-1.4s.6-1.4,1.4-1.4h.6c.8,0,1.4.6,1.4,1.4s-.6,1.4-1.4,1.4Z"/>
  <path class="cls-2" d="M318.5,104.2c-.6,0-1.2-.4-1.3-1.1v-.6c-.3-.7.2-1.5.9-1.6.7-.2,1.5.3,1.6,1.1v.6c.3.7-.2,1.5-.9,1.6,0,0-.2,0-.3,0Z"/>
  <path class="cls-2" d="M82.3,93.6c-.2,0-.5,0-.7-.2-.6-.4-.9-1.2-.5-1.9l.3-.5c.4-.7,1.2-.9,1.9-.5.7.4.9,1.2.5,1.9l-.3.6c-.3.4-.7.7-1.2.7Z"/>
  <path class="cls-2" d="M115.1,52.5c-.4,0-.7-.1-1-.4-.5-.6-.5-1.4,0-1.9l.5-.4c.6-.5,1.4-.5,1.9.1.5.6.5,1.4-.1,1.9l-.5.4c-.3.2-.6.4-.9.4Z"/>
  <path class="cls-3" d="M108.5,240.6c-.2,0-.4,0-.6-.2l-.6-.3c-.6-.3-.7-1-.4-1.6.3-.6,1-.8,1.6-.4l.6.3c.6.3.8,1,.4,1.6-.2.4-.6.6-1,.6Z"/>
  <path class="cls-2" d="M308.5,134.4s0,0-.1,0c-.6,0-1.1-.6-1-1.3v-.7c.1-.6.7-1.1,1.3-1.1.6,0,1.1.6,1.1,1.3v.7c-.1.6-.6,1-1.2,1Z"/>
  <path class="cls-2" d="M120,47.7c-.3,0-.7-.1-.9-.4-.4-.5-.3-1.2.2-1.6l.5-.4c.5-.4,1.2-.3,1.6.2.4.5.3,1.2-.2,1.6l-.5.4c-.2.2-.5.3-.7.3Z"/>
  <path class="cls-2" d="M64.9,176c-.4,0-.8-.3-.9-.7l-.2-.7c-.1-.5.2-1,.7-1.2.5-.1,1,.2,1.2.7l.2.7c.1.5-.2,1.1-.7,1.2,0,0-.2,0-.3,0Z"/>
  <path class="cls-1" d="M287.6,164.2c-.3,0-.6,0-.8-.2-1.1-.5-1.6-1.7-1.2-2.8l.6-1.5c.5-1.1,1.7-1.6,2.8-1.2,1.1.5,1.6,1.7,1.2,2.8l-.6,1.5c-.3.8-1.1,1.3-2,1.3Z"/>
  <path class="cls-2" d="M124.9,42.9c-.3,0-.6-.1-.8-.4-.3-.4-.2-1,.2-1.4l.6-.4c.4-.3,1-.2,1.4.2.3.4.2,1-.2,1.4l-.6.4c-.2.1-.4.2-.6.2Z"/>
  <path class="cls-2" d="M256.1,185.4c-.2,0-.4,0-.5-.2-.3-.3-.3-.8,0-1.1l.5-.6c.3-.3.8-.4,1.1,0,.3.3.4.8,0,1.1l-.5.6c-.2.2-.4.3-.6.3Z"/>
  <path class="cls-2" d="M76.1,97.3c-.1,0-.2,0-.4,0-.4-.2-.5-.7-.3-1l.4-.7c.2-.4.7-.5,1-.3.4.2.5.7.3,1l-.3.7c-.1.3-.4.4-.7.4Z"/>
  <path class="cls-2" d="M129.8,38.1c-.3,0-.5-.1-.7-.4-.2-.4-.1-.8.2-1.1l.6-.4c.4-.2.8-.1,1.1.2.2.4.1.8-.2,1.1l-.6.4c-.1,0-.3.1-.4.1Z"/>
  <path class="cls-2" d="M74.3,172.2c-.2,0-.4,0-.5-.3l-.4-.6c-.2-.3-.1-.6.2-.8.3-.2.6-.1.8.2l.4.6c.2.3.1.6-.2.8-.1,0-.2.1-.3.1Z"/>
  <path class="cls-2" d="M69.3,163.9c-.2,0-.4-.1-.5-.3l-.4-.7c-.1-.3,0-.6.2-.8.3-.1.6,0,.8.2l.4.7c.1.3,0,.6-.2.8,0,0-.2,0-.3,0Z"/>
  <path class="cls-2" d="M271.3,63c-.2,0-.4-.1-.5-.4l-.3-.7c-.1-.3,0-.6.3-.8.3-.1.6,0,.8.3l.3.7c.1.3,0,.6-.3.8,0,0-.1,0-.2,0Z"/>
  <path class="cls-5" d="M198.4,15.3c-1.6,0-3.2-1.1-3.5-2.8-.4-1.9.7-3.7,2.6-4.2,0,0,.2,0,.2,0,1.9-.4,3.8.8,4.2,2.7.4,1.9-.8,3.8-2.7,4.2-.2,0-.5,0-.7,0Z"/>
</svg>