<?xml version="1.0" encoding="UTF-8"?>
<svg id="Layer_1" data-name="Layer 1" xmlns="http://www.w3.org/2000/svg" version="1.1" viewBox="0 0 300 300">
  <defs>
    <style>
      .cls-1 {
        opacity: .1;
      }

      .cls-2 {
        fill: #20bbd3;
        stroke-width: 0px;
      }
    </style>
  </defs>
  <g class="cls-1">
    <circle class="cls-2" cx="150" cy="150" r="150"/>
  </g>
  <g id="Coin">
    <g>
      <path class="cls-2" d="M206.9,115l-6.7-6.7c3.8,20.5-6.1,46-26,65.9-16.8,16.8-38.1,26.8-57.1,26.8s-6-.4-8.9-.9l6.7,6.7c16.7,16.7,50.8,9.6,76.2-15.7,25.4-25.4,32.4-59.5,15.7-76.2Z"/>
      <polygon class="cls-2" points="124.1 154 147 147 154 124.1 131.1 131.1 124.1 154"/>
      <path class="cls-2" d="M192.8,107.2c-1.4-5.5-4-10.3-7.9-14.2-16.7-16.7-50.8-9.7-76.2,15.7-25.4,25.4-32.4,59.5-15.7,76.2,3.9,3.9,8.7,6.5,14.2,7.9,17.9,4.6,42.6-4.1,62-23.6,19.5-19.5,28.2-44.1,23.6-62ZM162.5,125l-7.6,24.8c-.7,2.4-2.6,4.3-5.1,5.1l-24.8,7.6c-.7.2-1.5.3-2.2.3-2,0-3.9-.8-5.4-2.2-2-2-2.7-4.9-1.9-7.6l7.6-24.8c.7-2.4,2.6-4.3,5.1-5.1l24.8-7.6c2.7-.8,5.6,0,7.6,1.9,2,2,2.7,4.9,1.9,7.6Z"/>
    </g>
  </g>
</svg>