<svg id="Capa_1" enable-background="new 0 0 512.961 512.961" height="512" viewBox="0 0 512.961 512.961" width="512" xmlns="http://www.w3.org/2000/svg" xmlns:xlink="http://www.w3.org/1999/xlink"><linearGradient id="lg1"><stop offset="0" stop-color="#59171d"/><stop offset=".1229" stop-color="#641a21"/><stop offset=".7108" stop-color="#972731"/><stop offset="1" stop-color="#ab2c37"/></linearGradient><linearGradient id="SVGID_1_" gradientUnits="userSpaceOnUse" x1="336.675" x2="409.662" xlink:href="#lg1" y1="377.203" y2="250.787"/><linearGradient id="SVGID_00000098906023857126531470000010497112185231066249_" gradientUnits="userSpaceOnUse" x1="276.909" x2="296.378" xlink:href="#lg1" y1="404.416" y2="370.696"/><linearGradient id="SVGID_00000142867947091545742570000000343026419954870400_" gradientUnits="userSpaceOnUse" x1="370.365" x2="370.365" y1="437.366" y2="271.61"><stop offset="0" stop-color="#c62834"/><stop offset=".4744" stop-color="#e33746"/><stop offset="1" stop-color="#ff4557"/></linearGradient><linearGradient id="SVGID_00000171684805928278363050000001279895045646384019_" gradientUnits="userSpaceOnUse" x1="88.175" x2="196.623" y1="411.733" y2="223.896"><stop offset="0" stop-color="#ba5c25"/><stop offset=".2216" stop-color="#ffc538"/><stop offset=".3753" stop-color="#ffa538"/><stop offset=".5003" stop-color="#fbc23c"/><stop offset=".6256" stop-color="#f8d840"/><stop offset=".7058" stop-color="#f7e041"/><stop offset=".7857" stop-color="#f9d53f"/><stop offset=".9265" stop-color="#fdb73b"/><stop offset="1" stop-color="#ffa538"/></linearGradient><linearGradient id="lg2"><stop offset="0" stop-color="#fff"/><stop offset="1" stop-color="#fff" stop-opacity="0"/></linearGradient><linearGradient id="SVGID_00000140712203726652474410000005800433206061787293_" gradientUnits="userSpaceOnUse" x1="148.363" x2="112.599" xlink:href="#lg2" y1="242.385" y2="304.33"/><linearGradient id="SVGID_00000147201543641667471070000009332978440665434532_" gradientUnits="userSpaceOnUse" x1="75.328" x2="75.328" y1="411.054" y2="482.771"><stop offset="0" stop-color="#8b451c"/><stop offset="1" stop-color="#8b451c" stop-opacity="0"/></linearGradient><linearGradient id="SVGID_00000057856379254366131070000012764578597509754525_" gradientTransform="matrix(.866 -.5 0 1.155 -223.087 -475.482)" gradientUnits="userSpaceOnUse" x1="447.264" x2="447.264" y1="1049.463" y2="821.353"><stop offset="0" stop-color="#ffc538"/><stop offset="1" stop-color="#f7e041"/></linearGradient><linearGradient id="SVGID_00000116956561671015406750000013569556591293557151_" gradientUnits="userSpaceOnUse" x1="228.055" x2="124.786" xlink:href="#lg2" y1="448.041" y2="338.437"/><linearGradient id="lg3"><stop offset="0" stop-color="#e37a34"/><stop offset=".5493" stop-color="#ffa538"/><stop offset=".9892" stop-color="#ffc538"/></linearGradient><linearGradient id="SVGID_00000135687834668875017580000009777283034584483755_" gradientUnits="userSpaceOnUse" x1="160.347" x2="160.347" xlink:href="#lg3" y1="-22.802" y2="610.804"/><linearGradient id="SVGID_00000134967874325840231630000009095176825744334527_" gradientUnits="userSpaceOnUse" x1="164.243" x2="164.243" xlink:href="#lg3" y1="-22.801" y2="610.804"/><linearGradient id="SVGID_00000008868290979629693160000012540627621334970548_" gradientUnits="userSpaceOnUse" x1="110.537" x2="177.136" y1="419.12" y2="303.767"><stop offset="0" stop-color="#e37a34"/><stop offset="1" stop-color="#f7e041"/></linearGradient><linearGradient id="SVGID_00000039097025511615099740000010333970089281553855_" gradientUnits="userSpaceOnUse" x1="236.746" x2="146.604" y1="315.707" y2="471.839"><stop offset="0" stop-color="#ba5c25"/><stop offset="1" stop-color="#ffa538"/></linearGradient><linearGradient id="lg4"><stop offset="0" stop-color="#2f878a"/><stop offset="1" stop-color="#06daae"/></linearGradient><linearGradient id="SVGID_00000179610407056130186720000005005172096717467830_" gradientUnits="userSpaceOnUse" x1="112.145" x2="134.532" xlink:href="#lg4" y1="253.233" y2="214.459"/><linearGradient id="SVGID_00000067227398713833715390000003724928405089803172_" gradientUnits="userSpaceOnUse" x1="145.995" x2="145.995" xlink:href="#lg4" y1="213.763" y2="267.821"/><linearGradient id="SVGID_00000145763831855218367050000012255042070316539027_" gradientUnits="userSpaceOnUse" x1="176.506" x2="186.375" xlink:href="#lg4" y1="143.844" y2="126.751"/><linearGradient id="SVGID_00000025416567986225323080000001003544884912250275_" gradientUnits="userSpaceOnUse" x1="166.233" x2="166.233" y1="269.367" y2="139.519"><stop offset="0" stop-color="#06daae"/><stop offset="1" stop-color="#9bf0df"/></linearGradient><linearGradient id="lg5"><stop offset="0" stop-color="#00395e"/><stop offset="1" stop-color="#0072bc"/></linearGradient><linearGradient id="SVGID_00000095311495465591568570000004282729261119245456_" gradientUnits="userSpaceOnUse" x1="288.744" x2="390.631" xlink:href="#lg5" y1="205.772" y2="29.297"/><linearGradient id="lg6"><stop offset="0" stop-color="#c5baeb"/><stop offset="1" stop-color="#d7d1eb"/></linearGradient><linearGradient id="SVGID_00000001660056954721018920000006025916836454092190_" gradientUnits="userSpaceOnUse" x1="321.894" x2="403.901" xlink:href="#lg6" y1="194.38" y2="52.338"/><linearGradient id="SVGID_00000148663150320176025720000013396348138157832607_" gradientUnits="userSpaceOnUse" x1="381.754" x2="381.754" y1="283.398" y2="8.065"><stop offset="0" stop-color="#0072bc"/><stop offset="1" stop-color="#2f97f7"/></linearGradient><linearGradient id="SVGID_00000061451672241767835260000016694254484906090386_" gradientTransform="matrix(-.487 .874 -.874 -.487 257.346 -4459.572)" gradientUnits="userSpaceOnUse" x1="4029.156" x2="3818.599" xlink:href="#lg5" y1="-2314.051" y2="-2438.046"/><linearGradient id="SVGID_00000165233846289162883930000009888462748651683995_" gradientTransform="matrix(-.487 .874 -.874 -.487 257.346 -4459.572)" gradientUnits="userSpaceOnUse" x1="4003.248" x2="3922.13" xlink:href="#lg5" y1="-2376.008" y2="-2376.008"/><linearGradient id="SVGID_00000023999513991658954070000007891539861618981556_" gradientTransform="matrix(-.487 .874 -.874 -.487 257.346 -4459.572)" gradientUnits="userSpaceOnUse" x1="3899.53" x2="3975.435" xlink:href="#lg5" y1="-2328.862" y2="-2328.862"/><linearGradient id="lg7"><stop offset="0" stop-color="#f2effa"/><stop offset="1" stop-color="#fff"/></linearGradient><linearGradient id="SVGID_00000034802903844265353000000005055605830111029173_" gradientTransform="matrix(-.858 .513 -.017 -1.155 2744.971 -7489.131)" gradientUnits="userSpaceOnUse" x1="2862.461" x2="2862.461" xlink:href="#lg7" y1="-5270.978" y2="-5414.815"/><linearGradient id="SVGID_00000174588867025503508480000017435578717964570767_" gradientUnits="userSpaceOnUse" x1="381.754" x2="381.754" xlink:href="#lg7" y1="208.762" y2="66.17"/><linearGradient id="SVGID_00000012455604945352399910000011019156623132593322_" gradientUnits="userSpaceOnUse" x1="382.872" x2="382.872" xlink:href="#lg7" y1="266.002" y2="6.218"/><linearGradient id="SVGID_00000079460702948563980350000003352612958856912291_" gradientUnits="userSpaceOnUse" x1="451.905" x2="451.905" xlink:href="#lg7" y1="266.002" y2="6.218"/><linearGradient id="SVGID_00000114787717212555043270000010587503691469564552_" gradientUnits="userSpaceOnUse" x1="450.815" x2="450.815" xlink:href="#lg7" y1="266.002" y2="6.218"/><linearGradient id="SVGID_00000152982004699369446520000016804841736149674137_" gradientUnits="userSpaceOnUse" x1="293.544" x2="362.255" xlink:href="#lg6" y1="145.921" y2="26.91"/><linearGradient id="SVGID_00000165227726831870424360000002950222520150385847_" gradientUnits="userSpaceOnUse" x1="380.636" x2="380.636" xlink:href="#lg7" y1="266.002" y2="6.218"/><linearGradient id="SVGID_00000065047976288406568760000014413390000089754517_" gradientUnits="userSpaceOnUse" x1="272.171" x2="349.05" xlink:href="#lg6" y1="157.01" y2="23.851"/><linearGradient id="SVGID_00000072961482594331256920000016538330855130052759_" gradientUnits="userSpaceOnUse" x1="311.603" x2="311.603" xlink:href="#lg7" y1="266.002" y2="6.218"/><linearGradient id="SVGID_00000137109466122674195450000010491028998304848294_" gradientUnits="userSpaceOnUse" x1="314.887" x2="314.887" xlink:href="#lg7" y1="266.002" y2="6.217"/><g><g><path d="m450.463 283.131.002-.002-.035-.021c-.292-.195-21.218-16.192-21.218-16.192-3.348-2.174-7.815-2.105-12.723.728l-35.85 20.367v-4.608c0-.355.206-7.568-4.432-9.784l-24.696-16.942c-3.601-1.607-8.723.402-13.211 6.449l-72.514 97.687c-7.281 9.809-7.87 23.471-1.776 26.818l24.829 17.02c.449.211.931.371 1.447.471l72.514 13.955c7.741 1.265 13.745-9.648 14.285-10.661 2.16-4.054 3.554-8.793 3.554-13.37v-28.281l56.953-32.882c10.381-5.993 18.797-22.074 18.797-35.916.001-7.2-2.279-12.37-5.926-14.836z" fill="url(#SVGID_1_)"/><path d="m380.639 283.404c0-.355.206-7.568-4.431-9.784l-24.696-16.942c-3.601-1.606-8.723.402-13.211 6.449l-72.514 97.687c-7.281 9.809-7.87 23.471-1.776 26.818l24.829 17.02 91.8-116.639v-4.609z" fill="url(#SVGID_00000098906023857126531470000010497112185231066249_)"/><path d="m437.592 283.757-56.954 32.883v-33.236c0-12.206-9.91-14.113-17.839-3.433l-72.514 97.687c-7.928 10.68-7.928 25.938 0 27.464l72.514 13.955c7.928 1.526 17.839-11.825 17.839-24.031v-28.281l56.954-32.882c10.382-5.993 18.797-22.073 18.797-35.916.001-13.842-8.415-20.204-18.797-14.21z" fill="url(#SVGID_00000142867947091545742570000000343026419954870400_)"/></g><g><path d="m221.526 260.689-32.469-18.683c-15.478-8.629-35.525-7.677-57.443 4.977-48.986 28.282-88.698 104.157-88.698 169.473 0 36.97 12.73 62.618 32.656 72.8l31.159 18.035z" fill="url(#SVGID_00000171684805928278363050000001279895045646384019_)"/><path d="m125.069 328.245 31.02-37.029-47.159-27.227c-11.188 10.394-21.511 23.126-30.508 37.324z" fill="url(#SVGID_00000140712203726652474410000005800433206061787293_)"/><path d="m43.925 433.701c3.365 27.712 14.988 47.042 31.647 55.555l31.159 18.035-24.269-51.34z" fill="url(#SVGID_00000147201543641667471070000009332978440665434532_)"/><path d="m252.941 332.844c0-65.315-39.711-95.336-88.698-67.054-48.986 28.282-88.698 104.158-88.698 169.473s39.711 95.336 88.698 67.054c48.986-28.283 88.698-104.158 88.698-169.473z" fill="url(#SVGID_00000057856379254366131070000012764578597509754525_)"/><path d="m164.243 265.79c-48.986 28.282-88.698 104.158-88.698 169.473 0 16.291 2.471 30.386 6.94 41.928l166.49-177.124c-11.206-41.724-44.903-57.273-84.732-34.277z" fill="url(#SVGID_00000116956561671015406750000013569556591293557151_)"/><path d="m196.229 408.234c1.407-2.689 2.702-5.406 3.885-8.137 2.871-6.628 1.732-11.311-2.786-11.88l-5.921-.745c-3.132-.394-8.581 3.905-11.045 8.634-.016.032-.033.063-.05.095-8.875 16.957-23.264 25.265-32.139 18.555-8.875-6.709-8.875-25.895 0-42.852s23.264-25.265 32.139-18.555c.012.009.025.019.037.028 1.852 1.412 6.522-1.195 9.47-5.348l6.553-9.229c3.896-5.487 5.155-10.702 3.067-12.951-.995-1.071-2.064-2.046-3.211-2.913-17.666-13.355-46.307 3.181-63.972 36.935s-17.666 71.942 0 85.297c17.666 13.356 46.308-3.181 63.973-36.934z" fill="url(#SVGID_00000135687834668875017580000009777283034584483755_)"/><path d="m220.241 426.386c30.927-59.091 30.927-125.947 0-149.327s-81.069 5.569-111.995 64.661c-30.927 59.091-30.927 125.947 0 149.327 30.926 23.38 81.068-5.569 111.995-64.661zm-103.5 48.429c-26.235-19.833-26.235-76.547 0-126.673s68.77-74.684 95.005-54.851 26.235 76.547 0 126.673c-26.236 50.127-68.771 74.684-95.005 54.851z" fill="url(#SVGID_00000134967874325840231630000009095176825744334527_)"/><g><path d="m118.317 475.933c-.531-.357-1.058-.726-1.576-1.118-26.235-19.833-26.235-76.547 0-126.673 24.379-46.58 62.829-71.073 89.2-58.393-26.335-17.728-67.712 6.833-93.428 55.969-26.235 50.126-26.235 106.84 0 126.673 1.856 1.403 3.796 2.576 5.804 3.542z" fill="url(#SVGID_00000008868290979629693160000012540627621334970548_)"/><path d="m220.241 277.059c-2.076-1.569-4.24-2.895-6.477-3.999.759.499 1.511 1.017 2.249 1.575 30.927 23.38 30.927 90.236 0 149.327-28.851 55.125-74.422 84.011-105.518 68.66 31.062 20.397 79.557-8.554 109.746-66.236 30.926-59.091 30.926-125.947 0-149.327z" fill="url(#SVGID_00000039097025511615099740000010333970089281553855_)"/></g></g><g><path d="m248.348 128.107.005-.007-24.073-17.726c-.011-.007-.147-.08-.147-.08-1.415-1.188-74.398-14.659-74.398-14.659-7.928-1.526-17.839 11.825-17.839 24.031v35.221l-54.201 31.293c-10.381 5.994-18.797 22.074-18.797 35.916 0 7.675 2.59 13.045 6.666 15.289l-.001.001 20.512 15.76c5.451 3.618 12.105-.37 12.724-.727l33.098-19.109v2.723c0 4.889 1.592 8.121 4.007 9.558l-.002.002.058.034c.027.016.054.031.081.047l24.055 12.984c5.477 3.165 11.942-3.075 13.91-6.074l72.514-97.687c4.526-5.625 9.728-21.234 1.828-26.79z" fill="url(#SVGID_00000179610407056130186720000005005172096717467830_)"/><path d="m131.896 233.31v2.723c0 4.889 1.592 8.121 4.007 9.559l-.002.002.058.034c.027.016.054.031.081.047l24.055 12.984-3.928-39.361z" fill="url(#SVGID_00000067227398713833715390000003724928405089803172_)"/><path d="m248.348 128.107-.007-.015-24.062-17.718c-.011-.007-.147-.08-.147-.08-1.415-1.188-74.398-14.659-74.398-14.659-7.928-1.526-17.838 11.825-17.838 24.031v35.221l24.271 14.284z" fill="url(#SVGID_00000145763831855218367050000012255042070316539027_)"/><path d="m246.519 127.432-72.514-13.955c-7.928-1.526-17.838 11.825-17.838 24.031v31.663l-57.368 33.121c-10.382 5.994-18.798 22.074-18.798 35.915v.001c0 13.842 8.416 20.204 18.798 14.21l57.368-33.122v29.854c0 12.206 9.91 14.114 17.838 3.433l72.514-97.687c7.928-10.679 7.928-25.938 0-27.464z" fill="url(#SVGID_00000025416567986225323080000001003544884912250275_)"/></g><g><path d="m324.587 28.073-.002.001c-15.363 14.556-29.01 33.617-39.755 54.824l-.001.01-22.027 65.983-.031.071c-1.937 11.376-2.897 22.714-2.731 33.736.158 10.502 1.332 20.071 3.382 28.631l61.857 61.522 113.236-248.366-33.635-18.749c-.106-.06-.212-.119-.319-.177l-.174-.097-.002.004c-9.978-5.453-21.782-6.94-34.687-3.944z" fill="url(#SVGID_00000095311495465591568570000004282729261119245456_)"/><path d="m263.42 211.329c4.967 20.745 15.107 35.523 28.627 42.995l-.001.003 33.231 18.524-28.416-42.881z" fill="url(#SVGID_00000001660056954721018920000006025916836454092190_)"/><path d="m360.369 277.005 45.109-26.547c15.366-14.559 29.015-33.623 39.761-54.834l22.043-65.974c1.946-11.403 2.911-22.769 2.745-33.817-.158-10.5-1.33-20.07-3.378-28.629l-23.112-39.392c-11.055-8.388-24.934-11.234-40.395-7.645l-45.112 26.548c-15.366 14.558-29.015 33.623-39.76 54.833l-22.043 65.974c-1.946 11.403-2.911 22.769-2.745 33.817.158 10.5 1.33 20.07 3.378 28.629l28.395 42.849c10.069 5.649 22.025 7.225 35.114 4.188z" fill="url(#SVGID_00000148663150320176025720000013396348138157832607_)"/><path d="m383.063 235.458c35.67-21.317 64-77.492 63.277-125.47s-30.226-69.59-65.896-48.273-64 77.492-63.277 125.47 30.226 69.591 65.896 48.273zm-56.097-54.128c-.613-40.699 23.419-88.352 53.678-106.435s55.285.25 55.899 40.95c.613 40.699-23.419 88.352-53.678 106.435-30.259 18.082-55.286-.251-55.899-40.95z" fill="url(#SVGID_00000061451672241767835260000016694254484906090386_)"/><g><path d="m443.474 108.391c.723 47.978-27.607 104.153-63.277 125.47-15.492 9.258-29.816 10.409-41.128 4.83 11.709 7.318 27.163 6.827 43.995-3.232 35.67-21.317 64-77.492 63.277-125.47-.409-27.141-10.032-45.835-24.768-53.103 13.106 8.191 21.519 26.166 21.901 51.505z" fill="url(#SVGID_00000165233846289162883930000009888462748651683995_)"/><path d="m377.777 73.297c-30.259 18.083-54.291 65.736-53.678 106.435.349 23.161 8.611 39.063 21.237 45.149-10.996-7.009-18.048-22.193-18.37-43.551-.613-40.699 23.419-88.352 53.678-106.435 13.039-7.793 25.101-8.808 34.662-4.199-9.958-6.348-23.149-5.993-37.529 2.601z" fill="url(#SVGID_00000023999513991658954070000007891539861618981556_)"/></g><g><path d="m373.995 68.502.485 5.737c-3.516 2.527-7.006 5.484-10.374 8.789l-1.294-5.051c3.631-3.564 7.393-6.752 11.183-9.475zm11.405-6.78c3.801-1.788 7.588-3.087 11.257-3.862l-1.141 6.499c-3.403.719-6.916 1.924-10.443 3.583zm-33.16 28.135 2.061 4.19c-3.126 3.992-6.121 8.32-8.902 12.865l-2.752-3.191c2.996-4.898 6.224-9.562 9.593-13.864zm55.134-32.772c3.429.261 6.729 1.045 9.806 2.33l-2.625 6.387c-2.857-1.192-5.918-1.92-9.1-2.163zm-73.023 61.997 3.347 2.09c-2.335 4.928-4.435 10.032-6.241 15.169l-3.83-.915c1.947-5.536 4.209-11.035 6.724-16.344zm91.4-54.331c2.617 2.259 4.988 5.004 7.051 8.156l-3.745 5.419c-1.914-2.926-4.115-5.474-6.544-7.571zm-103.04 87.45 4.185-.297c-1.218 5.185-2.132 10.377-2.717 15.431l-4.397 1.505c.63-5.45 1.616-11.048 2.929-16.639zm115.374-68.576c1.44 3.954 2.557 8.302 3.321 12.923l-4.368 3.705c-.709-4.285-1.745-8.318-3.081-11.985zm-119.15 101.143 4.459-2.665.004.255c.072 4.768.469 9.346 1.18 13.607l-4.367 3.714c-.766-4.591-1.194-9.522-1.272-14.657zm119.266-70.894 4.459-2.656c.071 5.137-.207 10.49-.829 15.911l-4.398 1.515c.576-5.032.835-10.001.768-14.77zm-110.528 94.061c1.34 3.659 2.994 6.998 4.916 9.923l-3.742 5.424c-2.072-3.154-3.855-6.753-5.299-10.697zm107.059-63.864 4.187-.307c-1.306 5.585-2.955 11.229-4.9 16.777l-3.833-.906c1.805-5.148 3.334-10.384 4.546-15.564zm-95.585 81.336c2.431 2.088 5.111 3.746 7.968 4.93l-2.62 6.389c-3.076-1.275-5.964-3.062-8.583-5.31zm84.812-50.597 3.351 2.08c-2.508 5.308-5.296 10.481-8.283 15.373l-2.757-3.182c2.773-4.542 5.36-9.343 7.689-14.271zm-67.735 57.665c3.189.235 6.536-.016 9.945-.743l-1.134 6.497c-3.677.785-7.284 1.054-10.723.802zm51.153-30.516 2.067 4.182c-3.373 4.317-6.928 8.321-10.565 11.899l-1.301-5.044c3.373-3.32 6.67-7.033 9.799-11.037zm-30.762 26.165c3.502-1.655 7.103-3.803 10.592-6.319l.493 5.731c-3.756 2.708-7.632 5.02-11.405 6.803z" fill="url(#SVGID_00000034802903844265353000000005055605830111029173_)"/></g><path d="m333.392 177.489c.541 35.925 22.633 52.108 49.342 36.146s47.923-58.025 47.381-93.95c-.541-35.925-22.633-52.108-49.342-36.146s-47.922 58.025-47.381 93.95z" fill="url(#SVGID_00000174588867025503508480000017435578717964570767_)"/><g><path d="m383.543 267.315c7.592-4.537 14.941-10.231 21.935-16.857l-.101-6.732c-.1-6.607-4.162-9.583-9.074-6.647l-27.322 16.328c-4.912 2.936-8.813 10.671-8.714 17.278l.095 6.324c7.41-1.721 15.181-4.912 23.181-9.694z" fill="url(#SVGID_00000012455604945352399910000011019156623132593322_)"/><path d="m467.281 129.651-4.383-.775c-4.304-.761-9.714 4.45-12.083 11.639l-13.181 39.989c-2.37 7.189-.802 13.635 3.502 14.396l4.103.726c10.476-20.68 18.189-43.399 22.042-65.975z" fill="url(#SVGID_00000079460702948563980350000003352612958856912291_)"/><path d="m450.407 75.684c2.542 4.254 8.011 2.964 12.215-2.882l4.025-5.597c-4.264-17.819-12.35-31.227-23.112-39.392l-4.26 5.924c-4.204 5.846-5.551 14.033-3.009 18.287z" fill="url(#SVGID_00000114787717212555043270000010587503691469564552_)"/><path d="m369.7 1.522c-7.409 1.72-15.179 4.913-23.179 9.694-7.592 4.537-14.94 10.232-21.934 16.858l33.443 18.642 45.115-26.55z" fill="url(#SVGID_00000152982004699369446520000016804841736149674137_)"/><path d="m367.205 60.095 27.322-16.328c4.912-2.936 8.813-10.671 8.714-17.278l-.095-6.324c-7.41 1.721-15.18 4.912-23.181 9.693-7.592 4.537-14.941 10.231-21.935 16.857l.101 6.732c.1 6.607 4.163 9.583 9.074 6.648z" fill="url(#SVGID_00000165227726831870424360000002950222520150385847_)"/><path d="m284.828 82.908c-10.478 20.682-18.175 43.402-22.027 65.983l33.426 18.633 22.043-65.975z" fill="url(#SVGID_00000065047976288406568760000014413390000089754517_)"/><path d="m300.61 168.298c4.304.761 9.714-4.45 12.083-11.639l13.181-39.989c2.37-7.189.802-13.634-3.502-14.396l-4.103-.726c-10.476 20.679-18.19 43.398-22.043 65.974z" fill="url(#SVGID_00000072961482594331256920000016538330855130052759_)"/><path d="m325.277 272.85 3.344-5.213c4.204-5.845 5.551-14.033 3.009-18.287l-18.528-27.86c-2.542-4.254-8.011-2.964-12.215 2.882l-4.025 5.597c4.263 17.819 15.819 35.056 28.415 42.881z" fill="url(#SVGID_00000137109466122674195450000010491028998304848294_)"/></g></g></g></svg>