<svg id="Capa_1" enable-background="new 0 0 512 512" height="512" viewBox="0 0 512 512" width="512" xmlns="http://www.w3.org/2000/svg" xmlns:xlink="http://www.w3.org/1999/xlink"><linearGradient id="SVGID_1_" gradientUnits="userSpaceOnUse" x1="162.881" x2="190.329" y1="265.545" y2="218.003"><stop offset="0" stop-color="#ab2c37"/><stop offset="1" stop-color="#ff7a85"/></linearGradient><linearGradient id="SVGID_2_" gradientUnits="userSpaceOnUse" x1="267.38" x2="267.38" y1="435.341" y2="-118.285"><stop offset="0" stop-color="#ff4757"/><stop offset="1" stop-color="#ff7a85"/></linearGradient><g><path d="m433.395 14.992-22.904-13.223c-3.835-2.511-8.96-2.442-14.593.81l-302.556 174.68c-11.881 6.86-21.512 25.262-21.512 41.103v261.669c0 9.359 3.363 15.726 8.563 17.959l20.716 11.96z" fill="url(#SVGID_1_)"/><path d="m418.658 334.738-302.556 174.68c-11.881 6.859-21.512-.422-21.512-16.263v-261.669c0-15.841 9.631-34.244 21.512-41.103l302.556-174.68c11.881-6.859 21.512.422 21.512 16.263v261.669c0 15.841-9.631 34.244-21.512 41.103z" fill="url(#SVGID_2_)"/><g fill="#fff"><path d="m407.451 114.823-280.141 161.74v-42.216l280.141-161.739z"/><path d="m244.62 307.541-117.31 67.729v-31.84l117.31-67.729z"/><path d="m244.62 364.952-117.31 67.729v-31.84l117.31-67.729z"/></g><g><path d="m327.245 236.807c0 21.246-9.244 39.881-23.84 48.308s-23.841.466-23.841-20.78c0-21.083 9.244-39.719 23.841-48.146 14.596-8.426 23.84-.465 23.84 20.618zm-33.936 19.593c0 11.677 3.77 16.636 10.096 12.984 6.325-3.652 10.095-12.964 10.095-24.641 0-11.676-3.77-16.473-10.095-12.822-6.325 3.653-10.096 12.803-10.096 24.479zm85.266-83.122-60.695 148.729-20.313 11.728 60.695-148.729zm18.488 69.117c0 21.246-9.244 39.881-23.84 48.308s-23.841.466-23.841-20.78c0-21.083 9.244-39.719 23.841-48.146 14.596-8.427 23.84-.466 23.84 20.618zm-33.936 19.592c0 11.677 3.77 16.637 10.096 12.984 6.325-3.652 10.095-12.965 10.095-24.642 0-11.676-3.77-16.473-10.095-12.822-6.325 3.654-10.096 12.804-10.096 24.48z" fill="#fff"/></g></g></svg>