<?xml version="1.0" encoding="UTF-8"?>
<svg id="Layer_1" data-name="Layer 1" xmlns="http://www.w3.org/2000/svg" version="1.1" viewBox="0 0 300 300">
  <defs>
    <style>
      .cls-1 {
        fill: #e05fc4;
        stroke-width: 0px;
      }

      .cls-2 {
        opacity: .1;
      }
    </style>
  </defs>
  <g class="cls-2">
    <circle class="cls-1" cx="150" cy="150" r="150"/>
  </g>
  <path class="cls-1" d="M105.3,168.7v-64.2h-10.7v-10.7h16c3,0,5.3,2.4,5.3,5.3v64.2h66.5l10.7-42.8h-66.5v-10.7h73.4c3,0,5.3,2.4,5.3,5.3s0,.9-.2,1.3l-13.4,53.5c-.6,2.4-2.7,4.1-5.2,4.1h-76.1c-3,0-5.3-2.4-5.3-5.3ZM116,206.2c-5.9,0-10.7-4.8-10.7-10.7s4.8-10.7,10.7-10.7,10.7,4.8,10.7,10.7-4.8,10.7-10.7,10.7ZM180.2,206.2c-5.9,0-10.7-4.8-10.7-10.7s4.8-10.7,10.7-10.7,10.7,4.8,10.7,10.7-4.8,10.7-10.7,10.7Z"/>
</svg>