<svg id="Capa_1" enable-background="new 0 0 512 512" height="512" viewBox="0 0 512 512" width="512" xmlns="http://www.w3.org/2000/svg"><g><g><g><g><g><g><g><path d="m512 256c0-141.385-114.615-256-256-256s-256 114.615-256 256c0 86.707 42.224 162.723 108.176 209.033h295.648c65.952-46.31 108.176-122.326 108.176-209.033z" fill="#fe6a16"/></g></g></g></g></g></g><path d="m305.694 507.18c35.621-7.007 69.473-22.025 98.13-42.147l-139.665.612z" fill="#f24500"/><path d="m511.966 260.21-62.073-62.073-35.42 17.208-82.229-82.229-268.818 131.796 200.733 200.733 139.665-.612c64.882-45.559 106.772-119.848 108.142-204.823z" fill="#f24500"/><g><path d="m167.229 256-59.053 209.033c41.754 29.581 92.759 46.967 147.824 46.967.449 0 .896-.011 1.345-.013v-255.987z" fill="#ffce00"/></g><g><path d="m344.771 256h-88.65v255.999c55.019-.025 105.98-17.406 147.703-46.966z" fill="#fdba12"/></g><g><path d="m60 202.905v55.941c0 17.909 87.752 32.427 196 32.427.45 0 .896-.002 1.345-.003v-88.365z" fill="#cdd2e1"/></g><g><path d="m256.121 202.905v88.367c108.192-.011 195.879-14.524 195.879-32.427v-55.941h-195.879z" fill="#afb4c8"/></g><g><path d="m256 170.478c-108.248 0-196 14.518-196 32.427s87.752 32.427 196 32.427c.45 0 .896-.002 1.345-.003v-64.849c-.449 0-.895-.002-1.345-.002z" fill="#e9edf5"/></g><g><path d="m452 202.905c0-17.902-87.687-32.416-195.88-32.427v64.854c108.193-.011 195.88-14.525 195.88-32.427z" fill="#cdd2e1"/></g><g><path d="m256 101.084c-55.553 0-101.197 42.424-106.303 96.641 30.623 3.277 67.12 5.179 106.303 5.179.45 0 .896-.004 1.345-.004v-101.8c-.448-.005-.895-.016-1.345-.016z" fill="#fff"/></g><g><path d="m256.121 101.086v101.819c39.137-.004 75.592-1.905 106.182-5.179-5.102-54.179-50.684-96.579-106.182-96.64z" fill="#e9edf5"/></g><g><circle cx="256" cy="264.912" fill="#00c8c8" r="14.912"/></g><g><path d="m270.912 264.912c0-8.195-6.612-14.84-14.791-14.906v29.811c8.179-.065 14.791-6.711 14.791-14.905z" fill="#00a0aa"/></g><g><circle cx="422.805" cy="247.089" fill="#00a0aa" r="14.912"/></g><g><ellipse cx="349.199" cy="259.386" fill="#00a0aa" rx="14.912" ry="14.912" transform="matrix(.924 -.383 .383 .924 -72.682 153.377)"/></g><g><circle cx="89.195" cy="247.089" fill="#00c8c8" r="14.912"/></g><g><ellipse cx="162.801" cy="259.386" fill="#00c8c8" rx="14.912" ry="14.912" transform="matrix(.383 -.924 .924 .383 -139.142 310.532)"/></g></g></svg>