<?xml version="1.0" encoding="UTF-8"?>
<svg id="Layer_1" data-name="Layer 1" xmlns="http://www.w3.org/2000/svg" version="1.1" viewBox="0 0 695.8 199.6">
  <defs>
    <style>
      .cls-1 {
        fill: #fff;
        fill-rule: evenodd;
        stroke-width: 0px;
      }

      .cls-2 {
        isolation: isolate;
      }
    </style>
  </defs>
  <g id="N3Point-logo" class="cls-2">
    <g>
      <g id="N3Point">
        <path class="cls-1" d="M281.4,53.4l37.8,46.6h35V22.7h-25.6v45.8l-37.2-45.8h-35.7v77.3h25.6v-46.6h.1ZM408.7,81.6h-5c-14.7,0-15.6-3.4-15.6-10.3h-27.9c0,28.6,31.6,28.6,43.5,28.6,28.8,0,43.5-8.3,43.5-24.7s-3-12.6-9.5-14.1c6.5-2.2,9.3-7.8,9.3-14.1,0-24.3-32.2-24.3-44.3-24.3-38.3,0-42.5,18.9-42.5,27.1h27.9c0-3.1.9-8.7,14.5-8.7s.8,0,1.2,0h-.2,3.6c5.3.2,12.2,1.4,12.2,7s-3.1,5.9-18.6,5.9h-.7v14.6h0c16.4,0,19.3,2.4,19.3,5.9,0,5.2-5.5,6.6-10.8,7h.1ZM310,106.7h-54.2v77.3h25.6v-15.7h29.5c8,0,32.4-3.4,32.4-32s-26-29.6-33.3-29.6ZM309.1,145.5h-27.8v-16.1h27.3c3.6,0,10.6.3,10.6,7.7s-6.2,8.4-10.1,8.4h0ZM398.1,105.5c-34.6,0-51.3,12.1-51.3,37.9s15.2,40.8,52,40.8,52.9-9.4,52.9-39.4-20.1-39.4-53.6-39.4h0ZM399.1,164.1c-16.4,0-24-8-24-19.1s7.6-19.1,23.7-19.1,24.8,6.3,24.8,19.1-9.5,19.1-24.4,19.1h-.1ZM456.2,184h25.6v-77.2h-25.6v77.2ZM562.2,152.5l-37.2-45.8h-35.7v77.3h25.6v-46.6l37.8,46.6h35v-77.3h-25.6v45.8h.1ZM593.8,106.7v25.6h38.2v51.7h25.6v-51.7h38.2v-25.6s-102,0-102,0Z"/>
      </g>
      <g id="Logomark">
        <path class="cls-1" d="M40.1,40.1h40.1V0h-40.1L0,40.1v40.1h40.1v-40.1ZM40.1,119.4H0v40.1l40.1,40.1h40.1v-40.1h-40.1v-40.1ZM200.4,40.1L160.3,0h-40.1v40.1h40.1v39.3h-80.2v40.1h80.2v40.1h-40.1v40.1h40.1l40.1-40.1v-39.3l-20.4-20.5,20.4-20.5v-39.3Z"/>
      </g>
    </g>
  </g>
</svg>