<svg id="Capa_1" enable-background="new 0 0 512 512" height="512" viewBox="0 0 512 512" width="512" xmlns="http://www.w3.org/2000/svg" xmlns:xlink="http://www.w3.org/1999/xlink"><linearGradient id="lg1"><stop offset="0" stop-color="#8b451c"/><stop offset="1" stop-color="#bf942a"/></linearGradient><linearGradient id="SVGID_1_" gradientUnits="userSpaceOnUse" x1="161.471" x2="201.003" xlink:href="#lg1" y1="293.408" y2="224.935"/><linearGradient id="SVGID_2_" gradientUnits="userSpaceOnUse" x1="313.524" x2="313.524" xlink:href="#lg1" y1="490.267" y2="23.011"/><linearGradient id="lg2"><stop offset="0" stop-color="#683415"/><stop offset="1" stop-color="#8b451c"/></linearGradient><linearGradient id="SVGID_3_" gradientUnits="userSpaceOnUse" x1="150.353" x2="180.054" xlink:href="#lg2" y1="279.637" y2="228.194"/><linearGradient id="lg3"><stop offset="0" stop-color="#e37a34"/><stop offset="1" stop-color="#ffc538"/></linearGradient><linearGradient id="SVGID_4_" gradientUnits="userSpaceOnUse" x1="232.974" x2="68.433" xlink:href="#lg3" y1="362.503" y2="267.506"/><linearGradient id="SVGID_5_" gradientUnits="userSpaceOnUse" x1="216.586" x2="216.586" xlink:href="#lg3" y1="493.426" y2="227.499"/><linearGradient id="lg4"><stop offset="0" stop-color="#d7d1eb"/><stop offset="1" stop-color="#fff"/></linearGradient><linearGradient id="SVGID_6_" gradientUnits="userSpaceOnUse" x1="216.586" x2="216.586" xlink:href="#lg4" y1="378.555" y2="330.022"/><linearGradient id="SVGID_7_" gradientUnits="userSpaceOnUse" x1="426.931" x2="262.39" xlink:href="#lg3" y1="250.504" y2="155.507"/><linearGradient id="SVGID_8_" gradientUnits="userSpaceOnUse" x1="410.543" x2="410.543" xlink:href="#lg3" y1="381.427" y2="115.5"/><linearGradient id="SVGID_9_" gradientUnits="userSpaceOnUse" x1="410.543" x2="410.543" xlink:href="#lg4" y1="266.556" y2="218.023"/><linearGradient id="SVGID_10_" gradientUnits="userSpaceOnUse" x1="211.711" x2="231.956" xlink:href="#lg2" y1="106.954" y2="71.889"/><linearGradient id="SVGID_11_" gradientUnits="userSpaceOnUse" x1="271.111" x2="271.111" xlink:href="#lg2" y1="52.347" y2="106.92"/><linearGradient id="SVGID_12_" gradientUnits="userSpaceOnUse" x1="255.163" x2="233.224" y1="167.455" y2="2.211"><stop offset="0" stop-color="#683415"/><stop offset="1" stop-color="#ba5c25"/></linearGradient><g><path d="m343.901 20.766c-8.652-5.531-20.137-6.575-30.299-.708l-234.814 135.569c-24.24 13.995-39.172 39.858-39.172 67.848v193.285c0 12.109 7.077 21.758 16.643 26.324l114.01 65.518 285.78-423.436z" fill="url(#SVGID_1_)"/><path d="m193.836 221.668 234.814-135.569c19.437-11.222 43.734 2.806 43.734 25.25v193.284c0 27.99-14.932 53.853-39.172 67.848l-234.814 135.569c-19.437 11.222-43.734-2.806-43.734-25.25v-193.284c0-27.989 14.933-53.853 39.172-67.848z" fill="url(#SVGID_2_)"/><path d="m351.597 38.416-234.813 135.569c-24.239 13.995-39.172 39.858-39.172 67.848v199.971c0 6.266 1.9 11.87 5.053 16.457l22 12.656c-2.844-4.439-4.545-9.763-4.545-15.682v-199.97c0-27.989 14.932-53.853 39.172-67.848l234.813-135.57c5.395-3.115 11.162-4.278 16.682-3.862l-23.037-13.462c-5.357-.306-10.929.877-16.153 3.893z" fill="url(#SVGID_3_)"/><path d="m115.787 134.266 114.717 66.232v289.016l-27.836 16.071v-289.015l-114.717-66.232z" fill="url(#SVGID_4_)"/><path d="m202.668 216.57 27.836-16.072v289.016l-27.836 16.071z" fill="url(#SVGID_5_)"/><path d="m200.014 379.829c-5.111 0-9.269-4.158-9.269-9.269v-24.585c0-5.003 2.691-9.664 7.023-12.164l30.792-17.541c1.379-.796 2.979-1.227 4.595-1.227 5.112 0 9.27 4.158 9.27 9.269v24.585c0 5.002-2.691 9.663-7.024 12.163l-30.792 17.541c-1.376.797-2.977 1.228-4.595 1.228zm29.414-49.093-25.192 14.351c-.291.168-.491.516-.491.888v18.16l25.192-14.351c.291-.168.491-.515.491-.888z" fill="url(#SVGID_6_)"/><path d="m216.881 351.703c2.603-1.503 5.857.376 5.857 3.381v14.639c0 3.288-1.754 6.326-4.602 7.97-2.603 1.503-5.857-.376-5.857-3.381v-14.639c.001-3.287 1.755-6.325 4.602-7.97z" fill="#fff"/><g><path d="m309.744 22.267 114.717 66.232v289.016l-27.836 16.072v-289.016l-114.717-66.232z" fill="url(#SVGID_7_)"/><path d="m396.625 104.571 27.836-16.072v289.016l-27.836 16.072z" fill="url(#SVGID_8_)"/><path d="m393.971 267.83c-5.111 0-9.269-4.158-9.269-9.269v-24.585c0-5.003 2.691-9.664 7.023-12.164l30.792-17.541c1.379-.796 2.979-1.227 4.595-1.227 5.112 0 9.27 4.158 9.27 9.269v24.585c0 5.002-2.691 9.663-7.023 12.163l-30.792 17.541c-1.377.797-2.978 1.228-4.596 1.228zm29.414-49.093-25.192 14.351c-.291.168-.491.516-.491.888v18.16l25.192-14.351c.291-.168.491-.515.491-.888z" fill="url(#SVGID_9_)"/><path d="m410.838 239.704c2.603-1.503 5.857.376 5.857 3.381v14.639c0 3.288-1.754 6.326-4.602 7.97-2.603 1.503-5.857-.376-5.857-3.381v-14.639c.001-3.287 1.755-6.325 4.602-7.97z" fill="#fff"/></g><g><path d="m259.637 55.228 22.948 49.628 14.909-90.029-21.265-12.277-.006.004c-3.991-2.885-9.524-3.578-14.396-.768l-79.609 45.903c-11.896 6.859-19.226 19.547-19.226 33.278v66.291l22.948 13.307 21.56-85.701z" fill="url(#SVGID_10_)"/><path d="m276.644 45.409-17.007 9.819v36.321l22.948 13.307v-56.017c0-3.049-3.3-4.954-5.941-3.43z" fill="url(#SVGID_11_)"/><path d="m185.941 94.275v66.29l22.059-12.735v-54.435c0-5.17 2.758-9.947 7.235-12.532l61.409-35.454c2.64-1.525 5.941.381 5.941 3.43v56.017l22.058-12.735v-65.549c0-10.196-11.035-16.571-19.868-11.478l-79.609 45.903c-11.895 6.859-19.225 19.546-19.225 33.278z" fill="url(#SVGID_12_)"/></g></g></svg>