<svg id="Capa_1" enable-background="new 0 0 512 512" height="512" viewBox="0 0 512 512" width="512" xmlns="http://www.w3.org/2000/svg" xmlns:xlink="http://www.w3.org/1999/xlink"><linearGradient id="SVGID_1_" gradientUnits="userSpaceOnUse" x1="255.99" x2="255.99" y1="421.807" y2="228.699"><stop offset="0" stop-color="#c5baeb"/><stop offset="1" stop-color="#dfdaef"/></linearGradient><linearGradient id="SVGID_2_" gradientTransform="matrix(.866 -.5 0 1.155 34.8 95.785)" gradientUnits="userSpaceOnUse" x1="280.083" x2="280.083" y1="474.891" y2="117.909"><stop offset="0" stop-color="#dfdaef"/><stop offset="1" stop-color="#f2effa"/></linearGradient><linearGradient id="SVGID_3_" gradientUnits="userSpaceOnUse" x1="185.226" x2="210.194" y1="222.638" y2="179.394"><stop offset="0" stop-color="#252336"/><stop offset="1" stop-color="#594a8e"/></linearGradient><g><g><g><path d="m362.435 92.898c-4.879 0-9.875-1.455-14.845-4.324-17.2-9.931-30.172-34.349-30.172-56.799 0-18.709 10.213-31.775 24.837-31.775 4.88 0 9.875 1.455 14.845 4.324 17.2 9.931 30.172 34.349 30.172 56.799-.001 18.709-10.214 31.775-24.837 31.775zm-20.18-73.876c-3.423 0-5.815 5.244-5.815 12.753 0 15.393 9.461 33.859 20.66 40.325 2.013 1.162 3.857 1.776 5.335 1.776 3.423 0 5.815-5.244 5.815-12.753 0-15.392-9.461-33.859-20.66-40.326-2.013-1.161-3.857-1.775-5.335-1.775z" fill="#d7d1eb"/></g></g><g><g><path d="m275.648 143.91c-4.879 0-9.875-1.454-14.845-4.324-17.2-9.931-30.172-34.349-30.172-56.799 0-18.709 10.214-31.775 24.837-31.775 4.882 0 9.876 1.455 14.845 4.325 17.2 9.931 30.172 34.348 30.172 56.798 0 18.709-10.213 31.775-24.837 31.775zm-20.179-73.876c-3.423 0-5.815 5.244-5.815 12.753 0 15.393 9.461 33.859 20.66 40.325 2.013 1.162 3.857 1.776 5.335 1.776 3.424 0 5.816-5.244 5.816-12.753 0-15.393-9.461-33.859-20.661-40.325-2.013-1.162-3.858-1.776-5.335-1.776z" fill="#d7d1eb"/></g></g><g><g><path d="m189.073 194.23c-4.883 0-9.876-1.454-14.847-4.324-17.2-9.931-30.172-34.349-30.172-56.799 0-18.709 10.214-31.775 24.837-31.775 4.883 0 9.876 1.455 14.847 4.324 17.2 9.931 30.172 34.349 30.172 56.799 0 18.709-10.214 31.775-24.837 31.775zm-20.182-73.876c-3.423 0-5.814 5.245-5.814 12.754 0 15.393 9.461 33.859 20.661 40.325 2.013 1.162 3.857 1.776 5.335 1.776 3.423 0 5.814-5.244 5.814-12.753 0-15.393-9.461-33.86-20.661-40.325-2.013-1.163-3.857-1.777-5.335-1.777z" fill="#d7d1eb"/></g></g><path d="m356.487 101.332-243.679 140.689v230.82c0 6.765 2.281 11.495 5.866 13.488l-.005.008 42.456 24.438c.197.119.391.242.596.343l.079.046.006-.01 237.366-385.226z" fill="url(#SVGID_1_)"/><path d="m382.579 388.501-210.454 121.505c-9.175 5.297-16.613-.326-16.613-12.559v-230.82l243.679-140.688v230.82c.001 12.234-7.437 26.445-16.612 31.742z" fill="url(#SVGID_2_)"/><g><path d="m155.513 266.584.001-.001 236.291-220.211-39.608-22.787-.02.018c-3.04-2.72-7.418-3.02-12.302-.2l-210.454 121.506c-9.175 5.297-16.613 19.508-16.613 31.742v65.371z" fill="url(#SVGID_3_)"/><path d="m399.192 125.896-243.679 140.688v-65.37c0-12.233 7.438-26.444 16.613-31.741l210.453-121.507c9.175-5.297 16.613.326 16.613 12.559z" fill="#7662bd"/></g><g fill="#d7d1eb"><path d="m207.665 386.081-34.618 19.987v-46.158l34.618-19.987z"/><path d="m265.663 352.596-34.619 19.987v-46.158l34.619-19.987z"/><path d="m323.66 319.112-34.618 19.987v-46.159l34.618-19.987z"/><path d="m381.658 285.627-34.619 19.987v-46.158l34.619-19.987z"/></g><g fill="#d7d1eb"><g><path d="m207.665 307.253-34.618 19.987v-46.158l34.618-19.987z"/><path d="m265.663 273.768-34.619 19.987v-46.158l34.619-19.987z"/><path d="m323.66 240.283-34.618 19.987v-46.158l34.618-19.987z"/><path d="m381.658 206.798-34.619 19.987v-46.158l34.619-19.987z"/></g><g><path d="m207.665 464.91-34.618 19.987v-46.158l34.618-19.987z"/><path d="m265.663 431.425-34.619 19.987v-46.158l34.619-19.987z"/><path d="m323.66 397.94-34.618 19.987v-46.158l34.618-19.987z"/><path d="m381.658 364.455-34.619 19.987v-46.158l34.619-19.987z"/></g></g><g><path d="m306.014 326.313-14.25-10.773c-1.756-1.327-1.756-5.123 0-8.478 1.754-3.353 4.603-4.998 6.357-3.671l7.893 5.966 20.537-39.24c1.754-3.353 4.603-4.998 6.357-3.671 1.756 1.327 1.756 5.123 0 8.478z" fill="#2f878a"/></g><g><path d="m364.011 292.828-14.25-10.773c-1.756-1.327-1.756-5.123 0-8.478 1.755-3.353 4.603-4.998 6.358-3.671l7.892 5.966 20.537-39.24c1.754-3.353 4.603-4.998 6.358-3.671 1.756 1.327 1.756 5.123 0 8.478z" fill="#2f878a"/></g><g fill="#d7d1eb"><path d="m183.738 105.657c-9.098-5.252-18.561-5.715-26.143-1.34-1.738 1.003-3.318 2.242-4.746 3.674l13.444 13.444c.273-.271.546-.49.813-.645 1.613-.932 4.155-.371 7.12 1.341 11.201 6.465 20.661 24.932 20.661 40.325 0 7.606-2.3 11.793-4.578 12.568-4.965 1.688-7.631 7.1-5.945 12.064 1.311 3.859 4.93 6.452 9.005 6.452 1.044 0 2.075-.171 3.062-.507 10.944-3.72 17.478-15.15 17.478-30.577.001-22.45-12.971-46.868-30.171-56.799z"/><path d="m270.314 55.337c-9.094-5.252-18.557-5.716-26.141-1.341-1.989 1.148-3.771 2.603-5.352 4.308l13.474 13.474c.457-.611.932-1.045 1.389-1.308 1.613-.931 4.155-.371 7.12 1.34 11.201 6.466 20.661 24.932 20.661 40.325 0 7.606-2.3 11.792-4.58 12.567-4.963 1.688-7.63 7.1-5.943 12.065 1.311 3.859 4.93 6.452 9.005 6.452 1.04 0 2.069-.17 3.062-.507 10.943-3.721 17.477-15.151 17.477-30.577-.001-22.45-12.972-46.868-30.172-56.798z"/><path d="m357.1 4.325c-9.095-5.252-18.559-5.716-26.141-1.341-1.652.954-3.166 2.115-4.539 3.458l13.455 13.455c.199-.175.398-.326.594-.439 1.614-.93 4.156-.371 7.12 1.34 11.199 6.467 20.66 24.933 20.66 40.326 0 7.607-2.298 11.793-4.578 12.568-4.965 1.688-7.629 7.101-5.943 12.065 1.311 3.859 4.93 6.452 9.005 6.452 1.04 0 2.069-.17 3.062-.507 10.943-3.72 17.477-15.151 17.477-30.577-.001-22.452-12.972-46.87-30.172-56.8z"/></g></g></svg>