<?xml version="1.0" encoding="UTF-8"?>
<svg id="Group_2" data-name="Group 2" xmlns="http://www.w3.org/2000/svg" version="1.1" viewBox="0 0 1426.33 146.34">
  <defs>
    <style>
      .cls-1 {
        fill: #fdd110;
      }

      .cls-1, .cls-2 {
        fill-rule: evenodd;
        stroke-width: 0px;
      }

      .cls-2 {
        fill: #fff;
      }
    </style>
  </defs>
  <g id="Group_1" data-name="Group 1">
    <g id="Network">
      <path class="cls-2" d="M396.03,72.96L340.96,4.52h-32.65v137.47h41.1v-68.64l55.07,68.64h32.65V4.52h-41.1v68.44ZM470.17,141.99h116.23v-34.42h-75.13v-17.11h60.57v-34.42h-60.57v-17.11h75.13V4.52h-116.23v137.47ZM606.45,42.68h42.48v99.31h41.1V42.68h42.48V4.52h-126.06v38.15ZM892.99,83.78l-24.78-79.26h-39.14l-24.98,79.45-23.4-79.45h-39.33l40.32,137.47h43.07l23.8-76.11,23.8,76.11h43.07L955.72,4.52h-39.33l-23.4,79.26ZM1033.8,0C991.71,0,959.85,32.65,959.85,72.77s31.86,72.96,73.95,72.96,73.95-32.84,73.95-72.96S1075.88,0,1033.8,0ZM1033.8,106.59c-19.27,0-32.84-16.13-32.84-33.83s13.57-33.63,32.84-33.63,32.84,15.93,32.84,33.63-13.57,33.83-32.84,33.83ZM1258.77,54.48c0-27.53-20.65-49.95-52.31-49.95h-75.72v137.47h41.1v-37.37h21.44l27.34,37.37h46.61l-34.22-47c15.14-8.65,25.76-22.81,25.76-40.51ZM1200.17,68.64h-28.32v-28.91h28.32c11.21,0,16.72,6.69,16.72,14.55s-5.51,14.36-16.72,14.36ZM1368.51,64.51l52.51-59.98h-49.36l-43.86,50.15V4.52h-41.1v137.47h41.1v-31.07l14.75-16.72,35.79,47.79h47.99l-57.82-77.49Z"/>
    </g>
    <g id="Rectangle_1" data-name="Rectangle 1">
      <path class="cls-1" d="M223.96.58h-70.26v39.89h63.28c11.68,0,21.15,9.47,21.15,21.15s-9.47,21.15-21.15,21.15h-63.28v59.16h41.25v-19.62h29.01c36.32,0,56.46-32.51,56.46-61.52S260.27.58,223.96.58Z"/>
    </g>
    <g id="Rectangle_1-2" data-name="Rectangle 1">
      <path class="cls-1" d="M81.64,0v83.62c0,11.55-9.36,20.91-20.91,20.91s-20.91-9.36-20.91-20.91V0H0v81.13C0,114.95,27.41,142.36,61.22,142.36s61.22-27.41,61.22-61.22V0h-40.81Z"/>
    </g>
  </g>
</svg>