<svg width="53" height="16" viewBox="0 0 53 16" fill="none" xmlns="http://www.w3.org/2000/svg">
<path d="M1 7C0.447715 7 4.82823e-08 7.44772 0 8C-4.82823e-08 8.55228 0.447715 9 1 9L1 7ZM52.2187 8.70711C52.6092 8.31659 52.6092 7.68342 52.2187 7.2929L45.8547 0.928936C45.4642 0.538412 44.831 0.538412 44.4405 0.928936C44.05 1.31946 44.05 1.95263 44.4405 2.34315L50.0974 8L44.4405 13.6569C44.05 14.0474 44.05 14.6805 44.4405 15.0711C44.831 15.4616 45.4642 15.4616 45.8547 15.0711L52.2187 8.70711ZM1 9L51.5116 9L51.5116 7L1 7L1 9Z" fill="black"/>
</svg>
