<svg width="42" height="16" viewBox="0 0 42 16" fill="none" xmlns="http://www.w3.org/2000/svg">
<path d="M41 9C41.5523 9 42 8.55228 42 8C42 7.44772 41.5523 7 41 7L41 9ZM0.292828 7.29289C-0.0976944 7.68342 -0.0976944 8.31658 0.292828 8.70711L6.65679 15.0711C7.04731 15.4616 7.68048 15.4616 8.071 15.0711C8.46153 14.6805 8.46153 14.0474 8.071 13.6569L2.41415 8L8.071 2.34315C8.46153 1.95262 8.46153 1.31946 8.071 0.928932C7.68048 0.538408 7.04731 0.538408 6.65679 0.928932L0.292828 7.29289ZM41 7L0.999935 7L0.999935 9L41 9L41 7Z" fill="black"/>
</svg>
