<svg width="25" height="25" viewBox="0 0 25 25" fill="none" xmlns="http://www.w3.org/2000/svg">
<path d="M23.5 21.0551V19.0434C23.5 18.0438 22.8915 17.145 21.9634 16.7738L19.4772 15.7793C18.2968 15.3071 16.9516 15.8186 16.383 16.9557L16.1667 17.3884C16.1667 17.3884 13.1111 16.7773 10.6667 14.3328C8.22222 11.8884 7.61111 8.83284 7.61111 8.83284L8.0438 8.6165C9.18091 8.04795 9.69238 6.70268 9.22022 5.52228L8.22575 3.03611C7.85453 2.10806 6.95569 1.49951 5.95614 1.49951H3.94444C2.59442 1.49951 1.5 2.59393 1.5 3.94396C1.5 14.7442 10.2553 23.4995 21.0556 23.4995C22.4056 23.4995 23.5 22.4051 23.5 21.0551Z" fill="white"/>
<path d="M18.6111 11.2773C18.6111 10.6353 18.4847 9.99954 18.239 9.40639C17.9933 8.81324 17.6332 8.2743 17.1792 7.82032C16.7252 7.36635 16.1863 7.00623 15.5931 6.76055C15 6.51486 14.3642 6.3884 13.7222 6.3884M23.5 11.2773C23.5 9.99325 23.2471 8.72179 22.7557 7.5355C22.2643 6.3492 21.5441 5.27131 20.6362 4.36336C19.7282 3.45541 18.6503 2.73518 17.464 2.2438C16.2777 1.75242 15.0063 1.49951 13.7222 1.49951M23.5 19.0434V21.0551C23.5 22.4051 22.4056 23.4995 21.0556 23.4995C10.2553 23.4995 1.5 14.7442 1.5 3.94396C1.5 2.59393 2.59442 1.49951 3.94444 1.49951H5.95614C6.95569 1.49951 7.85453 2.10806 8.22575 3.03611L9.22022 5.52228C9.69238 6.70268 9.18091 8.04795 8.0438 8.6165L7.61111 8.83284C7.61111 8.83284 8.22222 11.8884 10.6667 14.3328C13.1111 16.7773 16.1667 17.3884 16.1667 17.3884L16.383 16.9557C16.9516 15.8186 18.2968 15.3071 19.4772 15.7793L21.9634 16.7738C22.8915 17.145 23.5 18.0438 23.5 19.0434Z" stroke="white" stroke-width="1.5" stroke-linecap="round"/>
</svg>
