<svg width="18" height="22" viewBox="0 0 18 22" fill="none" xmlns="http://www.w3.org/2000/svg">
<path fill-rule="evenodd" clip-rule="evenodd" d="M14.2969 2V4.3123C12.6995 3.32184 10.8154 2.75 8.79766 2.75C6.77929 2.75 4.89457 3.32222 3.29688 4.31327V2C3.29688 0.895431 4.19231 0 5.29688 0H12.2969C13.4015 0 14.2969 0.895431 14.2969 2ZM17.5961 13.2002C17.5961 18.0604 13.6562 22.0002 8.7961 22.0002C3.93599 22.0002 -0.00390625 18.0604 -0.00390625 13.2002C-0.00390625 8.34013 3.93599 4.40023 8.7961 4.40023C13.6562 4.40023 17.5961 8.34013 17.5961 13.2002ZM7.93288 9.35907C8.28694 8.61318 9.30994 8.61317 9.664 9.35907L10.2759 10.6482C10.4165 10.9444 10.6883 11.1497 11.0027 11.1972L12.371 11.4039C13.1627 11.5235 13.4788 12.535 12.9059 13.1156L11.9158 14.1191C11.6883 14.3496 11.5845 14.6818 11.6382 15.0074L11.8719 16.4242C12.0072 17.244 11.1796 17.8692 10.4714 17.4821L9.24761 16.8132C8.96641 16.6595 8.63047 16.6595 8.34928 16.8132L7.12546 17.4821C6.41733 17.8692 5.5897 17.244 5.72494 16.4242L5.95867 15.0074C6.01238 14.6818 5.90857 14.3496 5.68107 14.1191L4.69098 13.1156C4.1181 12.5351 4.43422 11.5235 5.22593 11.4039L6.5942 11.1972C6.90859 11.1497 7.18037 10.9444 7.32097 10.6482L7.93288 9.35907Z" fill="white"/>
</svg>
