<svg width="40" height="40" viewBox="0 0 40 40" fill="none" xmlns="http://www.w3.org/2000/svg">
<path d="M14.7851 15.1004C16.6491 14.7836 18.0315 13.086 18.2419 11.058C18.4555 8.99563 18.9371 0.707626 15.8259 1.23483C7.75545 2.60363 8.32185 16.1964 14.7851 15.1004ZM25.4035 15.1004C31.8651 16.1964 32.4315 2.60363 24.3611 1.23403C21.2507 0.706827 21.7315 8.99483 21.9443 11.0572C22.1555 13.086 23.5395 14.7836 25.4035 15.1004ZM11.4699 21.5044C11.4699 20.426 11.0851 19.4484 10.4651 18.7372C9.44505 17.4044 6.20265 14.7092 5.40665 15.3996C3.74505 16.8444 3.79865 20.4004 4.79945 22.9844C5.31385 24.4212 6.55625 25.4316 8.00825 25.4316C9.91945 25.4316 11.4699 23.6732 11.4699 21.5044ZM34.7795 15.3996C33.9851 14.7092 30.7427 17.4044 29.7227 18.7372C29.1027 19.4484 28.7171 20.426 28.7171 21.5044C28.7171 23.6732 30.2691 25.4316 32.1787 25.4316C33.6315 25.4316 34.8747 24.4212 35.3891 22.9844C36.3875 20.4004 36.4427 16.8444 34.7795 15.3996ZM28.2707 27.6212C25.3299 26.1548 25.4211 23.3308 24.7523 20.754C24.2203 18.6988 22.3363 17.1788 20.0939 17.1788C17.8995 17.1788 16.0483 18.6356 15.4707 20.6284C14.7547 23.094 15.1859 25.9644 11.9803 27.602C9.37625 28.4508 8.32185 29.6892 8.32185 32.618C8.32185 34.9972 10.3643 37.5444 13.0003 37.8612C15.9411 38.3044 18.2355 37.7252 20.0939 36.666C21.9523 37.7252 24.2451 38.3036 27.1907 37.8612C29.8251 37.5444 31.8683 35.0068 31.8683 32.618C31.8675 29.6252 30.8803 28.51 28.2707 27.6212ZM24.8011 31.2004H21.7523L21.7563 34.4004H18.4315L18.4363 31.2004H15.2011V28.0004H18.4371L18.4323 24.8004H21.7571L21.7531 28.0004H24.8011V31.2004Z" fill="black"/>
</svg>
