<?xml version="1.0" encoding="UTF-8"?>
<svg id="Layer_1" data-name="Layer 1" xmlns="http://www.w3.org/2000/svg" version="1.1" viewBox="0 0 119.1 18">
  <defs>
    <style>
      .cls-1 {
        fill: none;
        stroke: #ccc;
        stroke-width: 2px;
      }

      .cls-2 {
        fill: #fff;
        stroke-width: 0px;
      }
    </style>
  </defs>
  <path class="cls-1" d="M9,1h101.1c4.4,0,8,3.6,8,8h0c0,4.4-3.6,8-8,8H9c-4.4,0-8-3.6-8-8h0C1,4.6,4.6,1,9,1Z"/>
  <g>
    <path class="cls-2" d="M11.4,12.5v-7.1h1.4v1.4h1.4v1.4h1.4v1.4h-1.4v-1.4h-1.4v4.2h-1.4ZM17.1,12.5v-4.2h-1.4v-1.4h1.4v-1.4h1.4v7.1h-1.4Z"/>
    <path class="cls-2" d="M22.8,12.5v-1.4h-1.4v-4.2h1.4v-1.4h2.8v1.4h1.4v4.2h-1.4v1.4h-2.8ZM22.8,11.1h2.8v-4.1h-2.8v4.1Z"/>
    <path class="cls-2" d="M32.7,12.5v-1.4h-1.4v-2.8h-1.4v-2.8h1.4v2.8h1.4v2.8h1.4v1.4h-1.4ZM34.1,11.1v-2.8h1.4v2.8h-1.4ZM35.5,8.3v-2.8h1.4v2.8h-1.4Z"/>
    <path class="cls-2" d="M39.8,12.5v-7.1h4.2v1.4h-2.8v1.4h2.8v1.4h-2.8v1.4h2.8v1.4h-4.2Z"/>
    <path class="cls-2" d="M46.8,12.5v-7.1h4.2v1.4h1.4v1.4h-1.4v2.8h1.4v1.4h-1.4v-1.4h-1.4v-1.4h-1.4v2.8h-1.4ZM48.3,8.3h2.8v-1.4h-2.8v1.4Z"/>
    <path class="cls-2" d="M61,12.5v-7.1h4.2v1.4h-2.8v1.4h2.8v1.4h-2.8v1.4h2.8v1.4h-4.2Z"/>
    <path class="cls-2" d="M68.1,12.5v-7.1h4.2v1.4h1.4v4.2h-1.4v1.4h-4.2ZM69.5,11.1h2.8v-4.2h-2.8v4.2Z"/>
    <path class="cls-2" d="M76.6,12.5v-7.1h1.4v7.1h-1.4Z"/>
    <path class="cls-2" d="M82.2,12.5v-5.7h-1.4v-1.4h4.2v1.4h-1.4v5.7h-1.4Z"/>
    <path class="cls-2" d="M87.9,12.5v-7.1h1.4v7.1h-1.4Z"/>
    <path class="cls-2" d="M93.5,12.5v-1.4h-1.4v-4.2h1.4v-1.4h2.8v1.4h1.4v4.2h-1.4v1.4h-2.8ZM93.5,11.1h2.8v-4.1h-2.8v4.1Z"/>
    <path class="cls-2" d="M100.6,12.5v-7.1h1.4v1.4h1.4v1.4h1.4v1.4h1.4v-4.2h1.4v7.1h-1.4v-1.4h-1.4v-1.4h-1.4v-1.4h-1.4v4.2h-1.4Z"/>
  </g>
</svg>