<?xml version="1.0" encoding="UTF-8"?>
<svg id="Layer_1" data-name="Layer 1" xmlns="http://www.w3.org/2000/svg" version="1.1" viewBox="0 0 193.9 55.1">
  <defs>
    <style>
      .cls-1 {
        fill: #000;
        fill-rule: evenodd;
        stroke-width: 0px;
      }
    </style>
  </defs>
  <g id="Bitpulse">
    <path class="cls-1" d="M70.9,26c1.7-1,2.7-2.5,2.7-4.5,0-3.3-2.6-5.8-6.7-5.8h-10v22.1h9.8c4.6,0,7.6-2.7,7.6-6.5s-1.2-4.2-3.3-5.3ZM62.4,19.8h3.2c1.5,0,2.5.7,2.5,2.2s-1,2.2-2.5,2.2h-3.2v-4.5ZM65.9,33.6h-3.6v-5.3h3.6c1.7,0,2.8,1.1,2.8,2.7s-1.1,2.7-2.8,2.7ZM76.7,37.8h5.5v-15.3h-5.5v15.3ZM79.4,15c-1.7,0-2.8,1.3-2.8,2.9s1.2,2.9,2.8,2.9,2.9-1.3,2.9-2.9-1.2-2.9-2.9-2.9ZM92.9,16.2h-5.4v6.3h-3.4v4.5h3.4v10.7h5.4v-10.7h3.4v-4.5h-3.4v-6.3ZM107.2,22.2c-1.4,0-2.7.4-3.6,1.1v-.8h-5.4v21.7h5.3v-7.2c1,.7,2.4,1.1,3.8,1.1,4.4,0,7.5-3.3,7.5-7.9s-3.1-8-7.5-8ZM106.2,33.3c-1.7,0-3-1.3-3-3.1s1.2-3.1,3-3.1,3,1.3,3,3.1-1.2,3.1-3,3.1ZM125.9,31.4c0,1.3-.8,2.1-2,2.1s-2-.8-2-2.1v-8.8h-5.4v8.8c0,4,3.1,6.8,7.4,6.8s7.4-2.7,7.4-6.8v-8.8h-5.4v8.8ZM134.1,37.8h5.4V15.1h-5.4v22.7ZM149.1,26.3c1,0,2.3.4,3.3,1.5l3-3c-1.4-1.8-4-2.7-6.6-2.7-3.9,0-6.4,2.1-6.4,5,0,5.7,7.2,4.3,7.2,6.2s-.5.7-1.4.7c-1.6,0-3-.6-4-1.7l-3,3c1.6,1.7,4.5,2.9,7.3,2.9,3.9,0,6.4-1.9,6.4-4.9,0-5.7-7.1-4.6-7.1-6.3s.4-.7,1.3-.7ZM172.6,29.8c0-4.4-3.3-7.6-7.9-7.6s-8.3,3.4-8.3,8,3.6,8,8.7,8,4.8-.9,6.4-2.6l-2.8-2.8c-.9,1-2.1,1.5-3.5,1.5s-3-.8-3.4-2.3h10.7c.2-.9.2-1.5.2-2.1ZM161.6,28.4c.4-1.5,1.6-2.3,3.1-2.3s2.5.8,2.8,2.3h-5.9Z"/>
  </g>
  <g id="Rectangle_3" data-name="Rectangle 3">
    <path class="cls-1" d="M33.5,19.5c-3.7,0-6.7,3-6.7,6.7h6.7v-6.7ZM40.4,18.5c0,.5-.4.9-.9.9h-5.9v6.8h5.9c4.2,0,7.7-3.4,7.7-7.7s-3.4-7.7-7.7-7.7h-18.1v6.8h18.1c.5,0,.9.4.9.9ZM33.5,34.8v-6.7h-6.7c0,3.7,3,6.7,6.7,6.7ZM39.5,28.1h-5.9v6.8h5.9c.5,0,.9.4.9.9s-.4.9-.9.9h-18.1v6.8h18.1c4.2,0,7.7-3.4,7.7-7.7s-3.4-7.7-7.7-7.7Z"/>
  </g>
</svg>