<?xml version="1.0" encoding="UTF-8"?>
<svg id="Layer_1" data-name="Layer 1" xmlns="http://www.w3.org/2000/svg" version="1.1" viewBox="0 0 193.9 55.1">
  <defs>
    <style>
      .cls-1 {
        fill: #000;
        stroke-width: 0px;
      }
    </style>
  </defs>
  <path class="cls-1" d="M58.8,10.1h-27.2c-3.3,0-6,2.7-6,6v22.8c0,3.3,2.7,6,6,6h27.2c3.3,0,6-2.7,6-6v-22.8c0-3.3-2.7-6-6-6ZM35.9,20.2h-2.6v14.7h2.6v2.2h-5v-19.1h5v2.2ZM50.9,34.3c-2.6,0-8.7-.1-11.2-.1s-1.8-1.8-1-2.4l13.6.2c.7,1,.3,2.3-1.4,2.3ZM53.1,27.6c-.8.8-.9,3.3-.9,3.3h-13.3s-.4-2.5-1.2-3.4l.8-.9-2.4-4.2,1.8-.8.2,1.7,1.3-.9.6,1.7-1.2.2c2.1,2,4.5,2,5.6-1l-1.3.2v-1.8l1.3.3-.4-1.3h2.5s-.4,1.3-.4,1.3l1.5-.3v1.9s-1.5-.3-1.5-.3c1,3.1,3.2,3.2,5.5,1l-1.2-.2.6-1.7,1.4.9v-1.9c0,0,1.8.8,1.8.8l-2,4.5.9.8ZM59.3,37.1h-5v-2.2h2.6v-14.7h-2.6v-2.2h5v19.1Z"/>
  <polygon class="cls-1" points="145.8 15.8 145.7 15.8 139.5 15.8 133.3 25.1 127.5 25.1 127.5 15.8 122.2 15.8 122.2 39.2 127.5 39.2 127.5 30.2 133.4 30.2 139.4 39.2 145.7 39.2 137.7 27.3 145.7 16 145.7 20.5 154.4 20.5 154.4 39.2 159.6 39.2 159.6 20.5 168.3 20.5 168.3 15.8 145.8 15.8"/>
  <path class="cls-1" d="M90.8,27.1v-.3c3.9-.3,5.4-2.4,5.4-5.3s-2.6-5.7-7.4-5.7h-14v23.4h14.7c5.2,0,7.7-2.5,7.7-6.5s-2.1-5.3-6.4-5.6ZM80.1,20.5h8.1c2,0,2.8.7,2.8,2.3s-.8,2.3-2.7,2.3h-8.2v-4.6ZM88.9,34.5h-8.8v-5.1h8.8c2.1,0,3,.7,3,2.5s-.9,2.5-3,2.5Z"/>
  <path class="cls-1" d="M114,29.6v-.3c4.4-.4,6.6-2.7,6.6-6.5s-3.3-7-9-7h-12.9v23.4h5.2v-8.5h3.5c2.7,0,3.6.6,4.5,2.4l3.2,6.1h6.1l-3.4-6.3c-.9-1.6-1.7-2.8-3.8-3.3ZM111.5,26.8h-7.6v-6.2h7.6c2.5,0,3.6.8,3.6,3.1s-1.1,3.1-3.6,3.1Z"/>
</svg>