<?xml version="1.0" encoding="UTF-8"?>
<svg id="Layer_1" data-name="Layer 1" xmlns="http://www.w3.org/2000/svg" version="1.1" viewBox="0 0 193.9 55.1">
  <defs>
    <style>
      .cls-1 {
        fill: #000;
        stroke-width: 0px;
      }
    </style>
  </defs>
  <path class="cls-1" d="M140.8,25h-2.2v.3c-.1.2-.6,2.1-1.1,4.4s-.9,4.1-1,4.1c0,0-.5-1.9-1.1-4.4l-1-4.4h-2.2c-1.8,0-2.2,0-2.2,0,0,0,0,.2,0,.3,0,0,.7,2.2,1.4,4.6,3,9.7,2.8,9.1,2.6,9.5-.2.4-.5.4-1.7.4s-1.1,0-1.2,0c0,0,0,.5,0,1.7s0,1.6,0,1.7c.1.1,3.1.1,3.9,0,1.3-.2,2.3-1.1,3-2.6.1-.3,1.3-3.9,2.7-8.1,2-6.2,2.4-7.5,2.3-7.6,0,0-.4-.1-2.3-.1Z"/>
  <path class="cls-1" d="M155.7,26.5c-1.3-1.5-3.2-2-5.2-1.7-.8.1-1.5.4-2,.8l-.4.3v-.5s0-.5,0-.5h-1.8c-1.6,0-1.8,0-1.9,0-.1.1-.1.5-.1,9.2s0,9,0,9.1c.1.1,4.1.1,4.2,0,0,0,0-.8,0-2.7v-2.6l.7.4c1,.5,1.6.6,2.7.6,1.3,0,2.1-.3,3-1,1.2-.9,2-2.3,2.5-4.3.2-1,.2-2.8,0-3.9-.3-1.5-.8-2.4-1.7-3.4ZM153.3,33.4c-.2.6-.5,1.3-.8,1.7-.6.7-1.7.9-2.6.4s-1.5-1.7-1.5-3.6.5-3.1,1.3-3.7c.7-.5,1.5-.5,2.2-.1.7.4,1.2,1.1,1.4,2.1.2.7.2,2.5,0,3.2Z"/>
  <path class="cls-1" d="M165.3,24.9h-1.2v-2c0-1.2,0-2.1,0-2.2,0-.1-.2-.1-2.1-.1-1.5,0-2,0-2.1.1,0,0,0,.7,0,2.2v2.1h-.9c-.6,0-.9,0-1,0-.1.1-.1,2.6,0,2.7,0,0,.4,0,1,0h.9v4.2c0,4.1,0,4.2.2,4.7.4,1.3,1.4,2,2.8,2.2,1,.1,2.4,0,3.4-.1h.2s0-1.8,0-1.8v-1.7s-1,0-1,0c-1,0-1.2,0-1.3-.3,0,0,0-1.5,0-3.6v-3.5h1.2s1.2,0,1.2,0v-2.9h-1.2Z"/>
  <path class="cls-1" d="M64.4,16.5c-.4-.6-1.2-1.4-5.6-5.9l-5.2-5.2-.5-.2c-.7-.3-2.2-.7-3.1-.8-.9,0-2.3,0-3.4,0-4.2.5-8.8,2.7-12.8,6-.8.7-2.5,2.3-2.5,2.4s.8.9,1.8,1.9l1.8,1.8-.8.8c-2.8,3.1-4.7,6.3-5.8,9.7-.7,2.1-1,3.9-1,5.8s.2,3.2.8,4.6l.2.6,5.2,5.2c4.4,4.4,5.4,5.3,5.9,5.7,1.1.8,2.4,1.3,3.9,1.6,1,.2,3.2.3,4.3.1,4.2-.5,8.5-2.5,12.3-5.6,1-.8,2.7-2.4,2.7-2.5s-.8-.9-1.8-1.9l-1.8-1.8.6-.6c1.4-1.5,3.1-3.8,4.1-5.6,1.4-2.6,2.3-5.3,2.6-7.9.1-1.1,0-3.5-.1-4.3-.3-1.5-.8-2.7-1.6-3.9ZM34.5,14.3l-1.5-1.5.9-.8c3.9-3.4,8.2-5.6,12.5-6.2,1.1-.2,3.6,0,4.6,0,.4,0,1,.2,1.3.4.6.2.6.2,1.6,1.2s1,1,.8.9c-1.1-.2-2.9-.3-4.3,0-4.5.6-9.2,2.8-13.4,6.6-.4.4-.8.7-.9.8,0,0-.4-.3-1.6-1.4ZM31.3,39v.3s-.9-.9-.9-.9c-.9-.9-1-1-1.2-1.5-1.8-5.3.5-12.5,5.9-18.6l.6-.7,1.5,1.5,1.5,1.5-.9,1c-.5.6-1.2,1.4-1.5,1.8-3.9,5.2-5.7,10.8-5,15.7ZM59.5,41.2l1.4,1.4-.6.5c-3,2.8-7,5.1-10.5,5.9-1.4.4-2.4.5-3.7.5s-3.1-.2-4.5-.8c-1.8-.8-3.4-2.3-4.3-4-1.1-2.1-1.4-4.7-.9-7.5.7-3.9,2.8-8.1,6.1-11.7.3-.4.6-.7.7-.7s.7.6,1.4,1.4c1.3,1.3,1.3,1.4,1.2,1.5,0,0-.4.4-.7.8-1.3,1.5-2.5,3.3-3.4,5-.6,1.2-.9,2.2-1.3,3.5-.4,1.8-.4,3.7,0,5.1.9,2.6,3.3,3.8,6.7,3.4,3.3-.4,7-2.3,10.2-5.1l.7-.6,1.4,1.4ZM42.4,37.6c2.3-.8,5.3-2.6,7.5-4.7.4-.3.7-.6.7-.6s.7.6,1.5,1.4l1.4,1.4-.4.4c-2.3,2.2-6,4.2-8.5,4.7-.6.1-2,.3-2.7.3h-.4v-1.1c0-.6,0-1.2,0-1.4v-.3s1-.3,1-.3ZM42.1,35.9c.9-2.5,2.4-5,4.3-7l.4-.5,1.5,1.5,1.5,1.5-.6.6c-1.9,1.8-4.4,3.4-6.4,4.3-.4.2-.8.3-.8.3s0-.3.2-.6ZM51.6,29.7l-.8.9-1.5-1.5-1.5-1.5.7-.8c1.5-1.6,2.8-3.5,3.6-5,.4-.8,1-2.3,1.2-2.9q0-.4.4-.4c.2,0,.4,0,.5,0,.2,0,1.6,0,1.8,0h.2s0,1,0,1c0,1.2-.2,2.1-.4,3-.8,2.5-2.1,4.9-4.2,7.3ZM51.9,19.5c-.3.9-1.1,2.3-1.8,3.4-.8,1.2-1.3,1.9-2.4,3.1l-.8.9-1.5-1.5-1.5-1.5.5-.4c1.5-1.4,3.3-2.6,5-3.4.9-.4,2.3-1,2.6-1.1,0,0,0,.2-.1.5ZM64.9,25.2c-.5,3.4-2.1,6.9-4.6,10.1-.6.8-1.9,2.3-2.1,2.5-.1,0-.3,0-1.5-1.2s-1.4-1.4-1.4-1.4.2-.3.5-.6c4.3-4.7,6.2-10.6,4.8-14.2-.6-1.4-1.7-2.5-3.3-2.9-.8-.2-2.1-.4-3.1-.2-1.6.1-3.5.8-5.3,1.6s-3.5,2-5.1,3.5l-.7.6-1.4-1.4-1.4-1.4.6-.5c3.6-3.4,8.4-5.8,12.4-6.3.8,0,2.9,0,3.7,0,2.1.3,3.9,1.2,5.2,2.5,1.3,1.3,2.2,3,2.6,5.1.2.9.2,3.1,0,4.2Z"/>
  <path class="cls-1" d="M128.7,24.8c0,0-.3,0-.6,0-.9.1-2.1.6-2.8,1.1l-.2.2v-.5c0-.3,0-.5,0-.6,0,0-.6,0-2,0s-1.9,0-2,.1c-.1.1-.1.7-.1,6.8s0,6.7.1,6.8c.1.1.4.1,2.1.1s1.9,0,2,0c0,0,0-1.5,0-4.3,0-3.9,0-4.2.2-4.5.3-.6.8-.8,2.2-1,.5,0,1.1-.2,1.2-.2h.2v-1.9c0-1.8,0-2-.3-2Z"/>
  <path class="cls-1" d="M102.6,25.5c-.6-.3-1.6-.7-2.3-.8-.7-.1-2.2,0-2.9,0-2.3.4-4.2,2-5,4.2-1.1,3-.5,6.3,1.2,8.2.9,1,1.8,1.5,3.2,1.9,2.6.7,5.4,0,7.3-1.8.4-.4,1.6-1.9,1.6-2s-.3-.4-1.7-1.1c-.8-.4-1.5-.8-1.5-.8s-.2.2-.3.5c-.3.6-1,1.3-1.5,1.6-1.5.7-3.2.3-4-1-.2-.4-.4-1-.4-1.4v-.3h4.7c3.5,0,4.7,0,4.8,0,.1-.1.1-1.1,0-2-.4-2.5-1.4-4.3-3.1-5.3ZM98.9,30.1h-2.5v-.2c.1-.4.5-1.1.9-1.4.6-.5,1.1-.7,1.8-.6.4,0,.7,0,1,.2.7.3,1.2,1,1.3,1.7v.3s-2.5,0-2.5,0Z"/>
  <path class="cls-1" d="M85.1,20.8c-1.5-.4-1.6-.4-6.3-.5-3.5,0-4.4,0-4.4,0s0,2,0,9.2,0,9.1.1,9.2c.1.1.5.1,3.7.1s4,0,4.6,0c2.5-.2,4.4-1,5.8-2.4,1.2-1.2,1.9-2.7,2.3-4.9.2-1,.2-3.2,0-4.2-.6-3.4-2.6-5.6-5.7-6.5ZM85.7,31.7c-.3,1.2-1,2.1-1.9,2.5-.8.4-1.3.5-3,.5h-1.5s0-5.1,0-5.1v-5.2h1.6c1.2,0,1.8.1,2.1.2,1.4.4,2.4,1.4,2.7,2.9.3,1.1.3,3,0,4.2Z"/>
  <path class="cls-1" d="M119.3,35.2c-.5-.3-2.8-1.4-2.9-1.4s-.2.2-.3.4c-.3.6-.7,1-1.2,1.3-.4.2-.6.3-1.1.2-.7,0-1.1-.2-1.6-.6-1.4-1.2-1.5-4.7-.2-6.3.8-1,2.4-1,3.4,0,.2.2.4.5.5.7.1.2.3.4.3.4.2,0,3.1-1.6,3.1-1.8,0-.1-.3-.6-.7-1.2-.7-.9-2.2-1.8-3.4-2-.6-.2-2-.3-2.5-.2-.7,0-1.2.2-1.6.4-2.4.8-3.9,2.7-4.4,5.5-.2,1.1-.1,2.7.1,3.8.4,1.4.9,2.3,1.8,3.1.8.8,1.8,1.3,3.1,1.7.4.1.8.1,1.7.1s1.3,0,1.9-.2c1.2-.4,2.2-.9,3-1.8.6-.6,1.2-1.5,1.2-1.6s-.1-.2-.2-.3Z"/>
</svg>