<?xml version="1.0" encoding="UTF-8"?>
<svg id="Layer_1" data-name="Layer 1" xmlns="http://www.w3.org/2000/svg" version="1.1" viewBox="0 0 193.9 55.1">
  <defs>
    <style>
      .cls-1 {
        fill: #000;
        stroke-width: 0px;
      }
    </style>
  </defs>
  <polygon class="cls-1" points="57.2 27.4 57.2 37.5 58.2 37.5 58.2 32 60.1 30.1 60.1 27.4 57.2 27.4 57.2 27.4"/>
  <polygon class="cls-1" points="51.5 11.7 51.5 11.7 49.7 13.6 49.7 45.1 50.7 45.1 50.7 37.7 52.6 35.8 52.6 2.4 51.5 2.4 51.5 11.7"/>
  <polygon class="cls-1" points="53.4 41.3 54.5 41.3 54.5 35 56.4 33.1 56.4 27.4 53.4 27.4 53.4 41.3"/>
  <polygon class="cls-1" points="47.8 6.2 47.8 14.4 45.9 16.3 45.9 48.9 46.9 48.9 46.9 40.7 48.8 38.8 48.8 6.2 47.8 6.2 47.8 6.2"/>
  <polygon class="cls-1" points="40.3 13.8 40.3 20.1 38.4 22 38.4 27.7 41.3 27.7 41.3 13.8 40.3 13.8 40.3 13.8"/>
  <polygon class="cls-1" points="36.5 23.1 36.5 23.1 34.6 25 34.6 27.7 37.5 27.7 37.5 17.6 36.5 17.6 36.5 23.1"/>
  <polygon class="cls-1" points="44 17.4 42.1 19.3 42.1 52.7 43.2 52.7 43.2 43.4 45.1 41.5 45.1 10 44 10 44 17.4"/>
  <path class="cls-1" d="M95.1,32.1c-.6.7-1.6,1.3-3.1,1.3s-4-1.8-4-4.4,1.8-4.4,4-4.4,2.4.6,3,1.2c.3.4.6.7.8,1.2h1.9c-.2-.8-.6-1.5-1.1-2.1-.8-1-2.3-2.1-4.6-2.1h0c-3.3,0-5.9,2.6-5.9,6.2s2.6,6.2,5.9,6.2,3.8-1.1,4.7-2.2c.5-.7.9-1.4,1.1-2.2h-1.9c-.2.5-.5.9-.8,1.3Z"/>
  <polygon class="cls-1" points="129.8 19.9 127.9 19.9 127.9 35 132.5 35 132.5 33.2 129.8 33.2 129.8 19.9"/>
  <path class="cls-1" d="M139.9,22.8c-3.6,0-6.2,2.6-6.2,6.2s2.6,6.2,6.2,6.2,6.2-2.6,6.2-6.2-2.6-6.2-6.2-6.2ZM139.9,33.4c-2.5,0-4.3-1.8-4.3-4.4s1.8-4.4,4.3-4.4,4.3,1.8,4.3,4.4-1.8,4.4-4.3,4.4Z"/>
  <path class="cls-1" d="M154.5,22.8c-1.4,0-2.4.5-3.1,1-.4.3-.7.6-.9,1h0v-1.8h-1.9v12h1.9v-6.5c0-2.4,1.5-4,3.7-4s3.2,1.1,3.2,3.5v7h1.9v-7.1c0-3.2-1.9-5.2-4.7-5.2Z"/>
  <rect class="cls-1" x="72.6" y="19.9" width="11.6" height="2"/>
  <path class="cls-1" d="M119.2,22.8c-3.4,0-6,2.6-6,6.2h0c0,3.6,2.6,6.2,6,6.2s3.7-1,4.6-2c.5-.6.9-1.3,1.2-2h-1.9c-.2.4-.5.8-.9,1.1-.6.6-1.6,1.1-3,1.1-2.2,0-3.9-1.6-4.1-3.8h10.2v-.7c0-3.5-2.6-6.1-6-6.1ZM115.2,27.9c.3-1.8,1.8-3.4,4.1-3.4s3.8,1.6,4,3.4h-8.1Z"/>
  <polygon class="cls-1" points="74.7 28.1 82.4 28.1 82.4 26.1 72.6 26.1 72.6 35 84.2 35 84.2 32.9 74.7 32.9 74.7 28.1"/>
  <path class="cls-1" d="M106.1,22.8c-1.4,0-2.4.5-3.1,1-.4.3-.7.6-.9,1h0v-4.9h-1.9v15.1h1.9v-6.5c0-2.4,1.5-4,3.7-4s3.2,1.1,3.2,3.5v7h1.9v-7.1c0-3.2-1.9-5.2-4.7-5.2Z"/>
</svg>