<?xml version="1.0" encoding="UTF-8"?>
<svg id="Layer_1" data-name="Layer 1" xmlns="http://www.w3.org/2000/svg" version="1.1" viewBox="0 0 193.9 55.1">
  <defs>
    <style>
      .cls-1 {
        fill: #000;
        fill-rule: evenodd;
        stroke-width: 0px;
      }
    </style>
  </defs>
  <polygon class="cls-1" points="97.1 14.3 93.5 17.9 93.5 37.1 97.1 40.7 111.5 40.7 115.1 37.1 115.1 30.3 115.1 27.5 115.1 26.1 104.4 26.1 104.4 30.6 110.8 30.6 110.8 36.2 97.9 36.2 97.9 18.7 110.8 18.7 110.8 21.5 115.1 21.5 115.1 17.9 111.5 14.3 97.1 14.3"/>
  <polygon class="cls-1" points="137.9 14.3 131.1 25.9 124.3 14.3 119.2 14.3 119.2 40.7 123.7 40.7 123.7 22.1 128.9 30.5 133.2 30.5 138.5 22.1 138.5 40.7 143 40.7 143 14.3 137.9 14.3"/>
  <polygon class="cls-1" points="84.1 13.1 84.1 10.9 50.9 10.9 50.9 13.1 50.9 15.3 84.1 15.3 84.1 13.1"/>
  <polygon class="cls-1" points="50.9 41.9 50.9 44.1 50.9 44.2 84.1 44.2 84.1 44.1 84.1 41.9 84.1 39.8 50.9 39.8 50.9 41.9"/>
  <path class="cls-1" d="M74,37.1h-12.9c-1.2-.8-2.3-1.9-3.1-3.1h-7.1v4.4h33.2v-4.4h-7.1c-.8,1.2-1.9,2.2-3.1,3.1Z"/>
  <path class="cls-1" d="M79,27h5.1v-4.4h-6.3c.5,1,.8,2,1,3.1h-22.7c.2-1.1.5-2.1,1-3.1h-6.3v4.4h28.1Z"/>
  <path class="cls-1" d="M78.4,31.4h-21.8c-.3-1-.5-2-.6-3.1h-5.1v4.4h33.2v-4.4h-5.1c0,1.1-.3,2.1-.6,3.1Z"/>
  <path class="cls-1" d="M63.6,16.8h-12.7v4.4h33.2v-4.4h-12.7c1.8.6,3.4,1.7,4.6,3.1h-17c1.3-1.4,2.8-2.4,4.6-3.1Z"/>
</svg>