<?xml version="1.0" encoding="UTF-8"?>
<svg id="Layer_1" data-name="Layer 1" xmlns="http://www.w3.org/2000/svg" version="1.1" viewBox="0 0 193.9 55.1">
  <defs>
    <style>
      .cls-1 {
        fill: #000;
        stroke-width: 0px;
      }
    </style>
  </defs>
  <polygon class="cls-1" points="79.9 21.2 64.4 21.2 64.4 8.2 59.9 8.2 59.9 38.6 64.4 38.6 64.4 25.2 79.9 25.2 79.9 38.6 84.4 38.6 84.4 8.2 79.9 8.2 79.9 21.2"/>
  <path class="cls-1" d="M98.1,16.5c-6.1,0-10.1,4.3-10.1,11.3s3.9,11.3,10.4,11.3,8.2-2.7,9.1-7.1h-4.3c-.8,2.4-2.2,3.5-4.8,3.5s-5.6-2.5-5.9-6.5h15.4c0-.6.1-1.3.1-1.9,0-7-3.8-10.6-9.9-10.6ZM92.6,25.6c.6-3.4,2.7-5.4,5.5-5.4,3.4,0,5.2,2.2,5.4,5.4h-10.9Z"/>
  <path class="cls-1" d="M122.6,16.5c-2.6,0-5.7,1.3-7.3,3.9v-3.5h-4v21.8h4.3v-11c0-5,2.4-7.6,6-7.6s4.5,3.6,4.5,4.9v13.7h4.3v-14.6c0-4.7-3-7.6-7.8-7.6Z"/>
  <path class="cls-1" d="M139.3,21.7v-4.8h-4v21.8h4.3v-9.6c0-5.5,1.8-8.1,6-8.1s1.2,0,1.8.1l.2-4.4c-.5-.1-1-.2-1.4-.2-3.2,0-5.7,2-6.8,5.2Z"/>
  <path class="cls-1" d="M165.6,16.9v10.1c0,5-2.4,7.6-6,7.6s-4.5-3.6-4.5-4.9v-12.8h-4.3v13.7c0,4.7,3,7.6,7.8,7.6s5.4-1.2,7-3.5v2.2c0,4.6-2.2,6.5-5.7,6.5s-4.7-1.2-5.1-3.6h-4.4c.4,4.6,3.9,7.2,9.3,7.2s10.2-3.1,10.2-10.1v-19.9h-4.2Z"/>
  <polygon class="cls-1" points="48.2 38.6 47.3 26.6 46.3 14.6 41.1 16.2 38.2 17.1 36.2 8.2 34.1 17.1 31.3 16.2 26.1 14.6 25.1 26.6 24.1 38.6 30.3 28.3 32.3 24.9 29.2 38.6 36.2 38.6 43.2 38.6 40 24.9 42 28.3 48.2 38.6"/>
</svg>