<?xml version="1.0" encoding="UTF-8"?>
<svg id="Layer_1" data-name="Layer 1" xmlns="http://www.w3.org/2000/svg" version="1.1" viewBox="0 0 193.9 55.1">
  <defs>
    <style>
      .cls-1 {
        fill: #000;
        stroke-width: 0px;
      }
    </style>
  </defs>
  <path class="cls-1" d="M20.4,25v2.6h2.6c1.4,0,2.5-1.1,2.5-2.5v-2.6h-2.6c-1.4,0-2.5,1.1-2.5,2.5Z"/>
  <path class="cls-1" d="M15.3,30.1v2.6h2.6c1.4,0,2.5-1.1,2.5-2.5v-2.6h-2.6c-1.4,0-2.5,1.1-2.5,2.5Z"/>
  <path class="cls-1" d="M7.7,27.6h-2.6v2.6c0,1.4,1.1,2.5,2.5,2.5h2.6v-2.6c0-1.4-1.1-2.5-2.5-2.5Z"/>
  <path class="cls-1" d="M10.2,27.6h2.6c1.4,0,2.5-1.1,2.5-2.5v-2.6h-2.6c-1.4,0-2.5,1.1-2.5,2.5v2.6Z"/>
  <path class="cls-1" d="M2.6,22.5H0v2.6c0,1.4,1.1,2.5,2.5,2.5h2.6v-2.6c0-1.4-1.1-2.5-2.5-2.5Z"/>
  <path class="cls-1" d="M20.4,19.9v-2.6h-2.6c-1.4,0-2.5,1.1-2.5,2.5v2.6h2.6c1.4,0,2.5-1.1,2.5-2.5Z"/>
  <path class="cls-1" d="M7.6,22.5h2.6v-2.6c0-1.4-1.1-2.5-2.5-2.5h-2.6v2.6c0,1.4,1.1,2.5,2.5,2.5Z"/>
  <path class="cls-1" d="M12.8,32.6h-2.6v2.6c0,1.4,1.1,2.5,2.5,2.5h2.6v-2.6c0-1.4-1.1-2.5-2.5-2.5Z"/>
  <path class="cls-1" d="M145,24.8c-.8-.4-1.8-.6-2.8-.6s-2,.2-2.8.6c-.8.4-1.4,1-1.9,1.7-.5.7-.7,1.6-.7,2.5s.2,1.8.7,2.5c.5.7,1.1,1.3,1.9,1.7.8.4,1.8.6,2.8.6s2-.2,2.8-.6c.8-.4,1.5-1,1.9-1.7.5-.7.7-1.6.7-2.5s-.2-1.8-.7-2.5c-.5-.7-1.1-1.3-1.9-1.7ZM143.5,30.1c-.1.3-.3.5-.5.6-.2.1-.5.2-.8.2s-.5,0-.8-.2c-.2-.1-.4-.3-.5-.6-.1-.3-.2-.6-.2-1s0-.8.2-1c.1-.3.3-.5.5-.6.2-.1.5-.2.8-.2s.5,0,.8.2c.2.1.4.3.5.6.1.3.2.6.2,1s0,.7-.2,1Z"/>
  <path class="cls-1" d="M153.9,31c-.2,0-.4,0-.6-.2-.1-.2-.2-.4-.2-.7v-2.4h1.9v-2.8h-1.9v-2.6h-3.9v2.6h-1.3v2.8h1.3v2.4c0,1.3.4,2.3,1.1,2.9.7.6,1.7.9,3,.9s.9,0,1.3-.1c.4,0,.8-.2,1.1-.4l-.9-2.7c-.3.2-.5.3-.9.3Z"/>
  <path class="cls-1" d="M133.2,25.4v-1h-3.7v9.4h3.9v-4.2c0-.7.2-1.3.5-1.6.4-.3.9-.5,1.4-.5s.3,0,.4,0c.1,0,.3,0,.5,0v-3.4c-.9,0-1.6.2-2.3.6-.3.2-.5.4-.8.6Z"/>
  <path class="cls-1" d="M125.6,22.3c-.8-.4-1.8-.6-2.9-.6h-5.8v12h4v-3h1.7c1.1,0,2.1-.2,2.9-.6.8-.4,1.5-.9,1.9-1.6.4-.7.7-1.5.7-2.4s-.2-1.7-.7-2.4c-.4-.7-1.1-1.2-1.9-1.6ZM123.7,27.3c-.3.3-.7.4-1.2.4h-1.5v-2.8h1.5c.6,0,1,.1,1.2.4.3.3.4.6.4,1s-.1.8-.4,1Z"/>
  <path class="cls-1" d="M164.2,24.8c-.8-.4-1.8-.6-2.8-.6s-2,.2-2.8.6c-.8.4-1.4,1-1.9,1.7-.5.7-.7,1.6-.7,2.5s.2,1.8.7,2.5c.5.7,1.1,1.3,1.9,1.7.8.4,1.8.6,2.8.6s2-.2,2.8-.6c.8-.4,1.5-1,1.9-1.7.5-.7.7-1.6.7-2.5s-.2-1.8-.7-2.5c-.5-.7-1.1-1.3-1.9-1.7ZM162.7,30.1c-.1.3-.3.5-.5.6-.2.1-.5.2-.8.2s-.5,0-.8-.2c-.2-.1-.4-.3-.5-.6-.1-.3-.2-.6-.2-1s0-.8.2-1c.1-.3.3-.5.5-.6.2-.1.5-.2.8-.2s.5,0,.8.2c.2.1.4.3.5.6.1.3.2.6.2,1s0,.7-.2,1Z"/>
  <path class="cls-1" d="M172.2,27.4c.3-.1.5-.2.8-.2s.6,0,.9.3c.3.2.5.5.7.9l3-1.5c-.3-.9-.9-1.6-1.7-2-.8-.5-1.8-.7-2.9-.7s-2,.2-2.9.6c-.8.4-1.5,1-2,1.7-.5.7-.7,1.6-.7,2.5s.2,1.8.7,2.5c.5.7,1.1,1.3,2,1.7.8.4,1.8.6,2.9.6s2.1-.2,2.9-.7c.8-.5,1.4-1.2,1.7-2l-3-1.5c-.2.4-.4.8-.7.9-.3.2-.6.3-.9.3s-.6,0-.8-.2c-.2-.1-.4-.3-.6-.6-.1-.3-.2-.6-.2-1s0-.8.2-1c.1-.3.3-.5.6-.6Z"/>
  <rect class="cls-1" x="190" y="21" width="3.9" height="12.8"/>
  <path class="cls-1" d="M186.2,24.8c-.8-.4-1.8-.6-2.8-.6s-2,.2-2.8.6c-.8.4-1.4,1-1.9,1.7-.5.7-.7,1.6-.7,2.5s.2,1.8.7,2.5c.5.7,1.1,1.3,1.9,1.7.8.4,1.8.6,2.8.6s2-.2,2.8-.6c.8-.4,1.5-1,1.9-1.7.5-.7.7-1.6.7-2.5s-.2-1.8-.7-2.5c-.5-.7-1.1-1.3-1.9-1.7ZM184.7,30.1c-.1.3-.3.5-.5.6-.2.1-.5.2-.8.2s-.5,0-.8-.2-.4-.3-.5-.6c-.1-.3-.2-.6-.2-1s0-.8.2-1c.1-.3.3-.5.5-.6.2-.1.5-.2.8-.2s.5,0,.8.2c.2.1.4.3.5.6.1.3.2.6.2,1s0,.7-.2,1Z"/>
  <path class="cls-1" d="M108.9,31c-.2,0-.4,0-.6-.2-.1-.2-.2-.4-.2-.7v-2.4h1.9v-2.8h-1.9v-2.6h-3.9v2.6h-1.3v2.8h1.3v2.4c0,1.3.4,2.3,1.1,2.9.7.6,1.7.9,3,.9s.9,0,1.3-.1c.4,0,.8-.2,1.1-.4l-.9-2.7c-.3.2-.5.3-.9.3Z"/>
  <path class="cls-1" d="M71.5,24.8c-.8-.4-1.6-.6-2.5-.6s-1.9.2-2.7.6c-.8.4-1.4,1-1.9,1.7-.5.7-.7,1.6-.7,2.5s.2,1.8.7,2.5c.5.7,1.1,1.3,2,1.7.9.4,1.9.6,3,.6s1.7-.1,2.4-.4c.7-.3,1.2-.6,1.7-1.1l-2-2c-.3.2-.6.4-.9.5-.3.1-.6.2-1.1.2s-.8,0-1.1-.2c-.3-.1-.5-.4-.7-.7,0,0,0-.2-.1-.2h6.5c0-.1,0-.3,0-.4,0-.2,0-.3,0-.5,0-1.1-.2-2-.7-2.7-.5-.7-1.1-1.3-1.9-1.6ZM67.5,28.1c0-.2,0-.3.1-.4.1-.3.3-.5.5-.6.2-.1.5-.2.8-.2s.6,0,.8.2c.2.1.4.3.5.6,0,.1.1.3.2.4h-3Z"/>
  <path class="cls-1" d="M79,25.4v-1h-3.7v9.4h3.9v-4.2c0-.7.2-1.3.5-1.6.4-.3.9-.5,1.4-.5s.3,0,.4,0c.1,0,.3,0,.5,0v-3.4c-.9,0-1.6.2-2.3.6-.3.2-.6.4-.8.6Z"/>
  <path class="cls-1" d="M101.6,28.6c-.3-.2-.7-.4-1.1-.5-.4-.1-.8-.2-1.1-.2-.4,0-.7-.1-1-.1-.3,0-.6,0-.8-.2-.2,0-.3-.2-.3-.3s0-.2.3-.3c.2,0,.5-.1,1-.1s.8,0,1.3.2c.5,0,.9.3,1.4.5l1.1-2.6c-.5-.3-1.1-.5-1.8-.6-.7-.1-1.4-.2-2.1-.2-1,0-1.9.1-2.6.4-.7.3-1.2.7-1.6,1.2-.4.5-.5,1-.5,1.6s0,1,.3,1.3c.2.3.4.6.8.8.3.2.7.4,1.1.5.4.1.8.2,1.1.2.4,0,.7,0,1.1.1.3,0,.6,0,.8.2.2,0,.3.2.3.3s0,.2-.3.3c-.2,0-.5.1-.9.1s-1.1,0-1.7-.2c-.6-.1-1.1-.4-1.5-.6l-1.1,2.6c.5.3,1.1.5,1.9.7.8.2,1.6.3,2.4.3s2-.1,2.7-.4c.7-.3,1.3-.7,1.6-1.2.4-.5.5-1,.5-1.6s0-1-.3-1.3c-.2-.4-.5-.6-.8-.8Z"/>
  <path class="cls-1" d="M53,24.7c-.6-.3-1.2-.4-1.9-.4s-1.5.2-2.1.5c-.3.2-.5.3-.7.6v-.9h-3.7v9.4h3.9v-4.4c0-.5,0-.8.2-1.1.1-.3.3-.5.5-.6.2-.1.5-.2.7-.2s.6.1.8.4c.2.2.3.7.3,1.2v4.7h3.9v-5.4c0-1-.2-1.8-.5-2.4-.3-.6-.8-1.1-1.4-1.4Z"/>
  <rect class="cls-1" x="38.7" y="21.8" width="4" height="12"/>
  <path class="cls-1" d="M90.4,24.8c-.8-.4-1.6-.6-2.5-.6s-1.9.2-2.7.6c-.8.4-1.4,1-1.9,1.7-.5.7-.7,1.6-.7,2.5s.2,1.8.7,2.5c.5.7,1.1,1.3,2,1.7.9.4,1.9.6,3,.6s1.7-.1,2.4-.4c.7-.3,1.2-.6,1.7-1.1l-2-2c-.3.2-.6.4-.9.5-.3.1-.6.2-1.1.2s-.8,0-1.1-.2c-.3-.1-.5-.4-.7-.7,0,0,0-.2-.1-.2h6.5c0-.1,0-.3,0-.4,0-.2,0-.3,0-.5,0-1.1-.2-2-.7-2.7-.5-.7-1.1-1.3-1.9-1.6ZM86.3,28.1c0-.2,0-.3.1-.4.1-.3.3-.5.5-.6.2-.1.5-.2.8-.2s.6,0,.8.2c.2.1.4.3.5.6,0,.1.1.3.2.4h-3Z"/>
  <path class="cls-1" d="M61.6,31c-.2,0-.4,0-.6-.2-.1-.2-.2-.4-.2-.7v-2.4h1.9v-2.8h-1.9v-2.6h-3.9v2.6h-1.3v2.8h1.3v2.4c0,1.3.4,2.3,1.1,2.9.7.6,1.7.9,3,.9s.9,0,1.3-.1c.4,0,.8-.2,1.1-.4l-.9-2.7c-.3.2-.5.3-.9.3Z"/>
</svg>