<?xml version="1.0" encoding="UTF-8"?>
<svg id="Layer_1" data-name="Layer 1" xmlns="http://www.w3.org/2000/svg" version="1.1" viewBox="0 0 193.9 55.1">
  <defs>
    <style>
      .cls-1 {
        fill: #000;
        stroke-width: 0px;
      }
    </style>
  </defs>
  <path class="cls-1" d="M160.3,18.7v-6.6h-23.6c-2,0-5.9,1.1-5.9,5.5v19.5c0,1.8,1.2,5.5,5.9,5.5h23.6v-6h-23.4v-17.8h23.4Z"/>
  <path class="cls-1" d="M39.8,12.4h-6.2v25.6c0,1.5.9,4.6,4.5,4.6h25.3v-6h-23.6V12.4Z"/>
  <path class="cls-1" d="M89.4,24.2h-17.2v-11.8h-6.2v13.8c0,1.7,1.7,4.3,4.5,4.3h18.8v5.7h-23.4v6.3h24.8c1.2-.2,3.9-1.4,4.8-4.6V12.4h-6.2v11.8Z"/>
  <path class="cls-1" d="M121.7,31.4l-17.2-17.2c-.9-1.1-3.3-2.8-5.3-1.1-.3.3-.8,1-.8,4v25.6h6.5v-18.9l18.6,18.9c1.1.9,4.5.5,4.5-3.2V12.4h-6.2v18.9Z"/>
</svg>