<?xml version="1.0" encoding="UTF-8"?>
<svg id="Layer_1" data-name="Layer 1" xmlns="http://www.w3.org/2000/svg" version="1.1" viewBox="0 0 193.9 55.1">
  <defs>
    <style>
      .cls-1, .cls-2 {
        fill: #000;
        stroke-width: 0px;
      }

      .cls-2 {
        fill-rule: evenodd;
      }
    </style>
  </defs>
  <path class="cls-2" d="M156.3,21.1h-5.6c-.3,0,12.3,16.2,12.3,16.2h6.1l-12.8-16.2Z"/>
  <path class="cls-2" d="M150.5,37.4h6.2s1-1.2,2.4-3.1l-3-3.9-5.5,6.9Z"/>
  <path class="cls-2" d="M169,21.1h-5.6l-2.8,3.5,3,3.8c3-3.9,5.6-7.4,5.4-7.4Z"/>
  <polygon class="cls-2" points="143.2 25.3 143.2 37.3 148.6 42.8 148.6 11.5 140.6 21 143.2 25.3"/>
  <path class="cls-2" d="M121.9,21.1l2.1,3.5h12.7s0,2.5,0,2.5l-1.1,1h-5.4s5.6,9.1,5.6,9.1h5s-3.8-6.1-3.8-6.1h2s1.9-1.8,1.9-1.9v-5.8l-1.5-2.5h-17.4Z"/>
  <rect class="cls-1" x="123.9" y="25.7" width="4" height="11.6"/>
  <polygon class="cls-2" points="103.2 21.1 105 24.7 122.2 24.7 120.2 21.1 103.2 21.1"/>
  <rect class="cls-1" x="111.8" y="25.7" width="4" height="11.6"/>
  <polygon class="cls-2" points="98.4 23.7 105.4 37.3 110 37.3 100.9 19.6 98.4 23.7"/>
  <polygon class="cls-2" points="91.1 37.4 96.1 37.4 100.3 29.9 97.7 24.8 91.1 37.4"/>
  <polygon class="cls-2" points="81.3 26.8 84.2 31.7 85.8 29.1 85.8 37.3 90.4 37.3 90.4 21.1 84.6 21.1 81.3 26.8"/>
  <polygon class="cls-2" points="70.8 21.1 70.8 37.3 75.2 37.3 75.2 28.5 80.6 37.4 83.4 32.7 76.7 21.1 70.8 21.1"/>
  <polygon class="cls-2" points="38.7 25.1 38.7 39.8 45.7 47.5 45.7 7.6 34.5 20.3 38.7 25.1"/>
  <polygon class="cls-2" points="37.8 25.8 24.8 11.1 24.8 11.1 24.8 11.1 24.8 42.6 30.8 35.8 30.8 25.9 30.8 25.9 30.8 25.9 34.4 29.5 34.4 29.5 34.5 29.5 37.8 25.9 37.8 25.8 37.8 25.8"/>
  <polygon class="cls-2" points="54.7 17.5 54.7 17.6 54.7 17.5 49.4 23.5 46.6 20.2 46.6 20.3 46.6 35.7 46.6 35.7 49.5 32.5 54.7 38.8 54.7 38.8 62.6 38.8 53.4 28.1 62.7 17.5 54.7 17.5"/>
</svg>