<?xml version="1.0" encoding="UTF-8"?>
<svg id="Layer_1" data-name="Layer 1" xmlns="http://www.w3.org/2000/svg" version="1.1" viewBox="0 0 193.9 55.1">
  <defs>
    <style>
      .cls-1 {
        fill: #000;
        fill-rule: evenodd;
        stroke-width: 0px;
      }
    </style>
  </defs>
  <path class="cls-1" d="M84.1,12.2h-8c-.5,0-.9.4-.9.9v25.8c0,.5.4.9.9.9h2.5c.5,0,.9-.4.9-.9v-7.8h4.7c5.4,0,9.4-4,9.4-9.4s-4-9.4-9.4-9.4ZM84.1,26.8h-4.7v-10.3h4.7c2.9,0,5,2.1,5,5.2s-2.1,5.2-5,5.2Z"/>
  <path class="cls-1" d="M107.7,17.3h-.9c-5.4,0-7.2,3.7-7.2,3.7v-2.8c0-.7-.4-.9-.9-.9h-1.7c-.5,0-.9.4-.9.9v20.7c0,.5.4.9.9.9h2.2c.5,0,.9-.4.9-.9v-10.8c0-4.8,3.2-6.6,6.7-6.6h.9c.5,0,.9-.4.9-.9v-2.4c0-.5-.4-.9-.9-.9Z"/>
  <path class="cls-1" d="M114.3,17.3h-2.3c-.5,0-.9.4-.9.9v20.7c0,.5.4.9.9.9h2.3c.5,0,.9-.4.9-.9v-20.7c0-.5-.4-.9-.9-.9Z"/>
  <path class="cls-1" d="M136.9,17.3h-2.8c-.4,0-.7.2-.8.7-1.8,5.2-5.5,15.3-5.5,15.3,0,0-3.7-10.1-5.5-15.3-.2-.5-.4-.7-.8-.7h-2.8c-.5,0-.9.3-.9.7s0,.5.2.7l7.8,20.4c.2.4.4.7.8.7h2.5c.4,0,.7-.2.8-.7l7.7-20.4c0-.2.2-.5.2-.8s-.4-.6-.9-.6Z"/>
  <path class="cls-1" d="M158.2,17.3h-2.7c-.4,0-.7.2-.8.7-1.7,4.8-5.3,15.3-5.3,15.3,0,0-3.8-10.5-5.7-15.3-.2-.5-.4-.7-.8-.7h-2.7c-.5,0-.9.3-.9.7s0,.5.2.7l7.4,19.1c0,.2.1.4.1.4,0,.1,0,.2-.1.5l-2.4,7c0,.2-.1.4-.1.6,0,.4.3.7.9.7h2.4c.4,0,.7-.2.8-.7l10.5-27.6c0-.2.2-.5.2-.7,0-.4-.4-.7-.9-.7Z"/>
  <path class="cls-1" d="M50.1,41.4c-7.6,0-13.8,1.3-13.8,3s6.2,3,13.8,3,13.8-1.3,13.8-3-6.2-3-13.8-3Z"/>
  <path class="cls-1" d="M50.1,7.8c-7.7,0-15.3,5-15.3,11.9,0,1.8,1.1,3.6,3.8,3.8-2.3,2.3-3.4,5-3.4,7.6,0,4.8,4.4,6.9,8.7,6.9,10.1,0,21.2-6.2,21.1-16.5,0-7.5-6.9-13.8-15-13.7ZM50.1,24.4c-1.6,0-2.9-1.6-2.9-3.5s1.3-3.5,2.9-3.5,2.9,1.6,2.9,3.5-1.3,3.5-2.9,3.5ZM58.5,24.4c-1.6,0-2.9-1.6-2.9-3.5s1.3-3.5,2.9-3.5,2.9,1.6,2.9,3.5-1.3,3.5-2.9,3.5Z"/>
</svg>