<?xml version="1.0" encoding="UTF-8"?>
<svg id="Layer_1" data-name="Layer 1" xmlns="http://www.w3.org/2000/svg" version="1.1" viewBox="0 0 193.9 55.1">
  <defs>
    <style>
      .cls-1 {
        fill: #000;
        stroke-width: 0px;
      }
    </style>
  </defs>
  <path class="cls-1" d="M58.1,22.2h-6.4v13.5h2.2v-4.6h4.1c2.8,0,4.8-1.8,4.8-4.4s-2.1-4.4-4.8-4.4ZM58,29.1h-4v-4.9h4c1.5,0,2.7,1,2.7,2.5s-1.2,2.4-2.7,2.4Z"/>
  <path class="cls-1" d="M72.5,31.6s.1,2.5-2.5,2.5-2.5-2.5-2.5-2.5v-6.2h-2.2v6.1c0,4.4,3.4,4.5,4.7,4.5s4.7,0,4.7-4.5v-6.1h-2.2v6.2Z"/>
  <path class="cls-1" d="M89.6,25.1c-2,0-3,.8-3.5,1.7-.7-1.1-1.8-1.7-3.3-1.7-2.1,0-2.8,1.3-2.9,1.6v-1.2h-2.2v10.3h2.2v-6.2c.2-1.7,1.4-2.5,2.6-2.5s2,.9,2,2.6v6.1h2.2v-5.8c0-1.9,1.3-2.9,2.6-2.9s2,.9,2,2.6v6.1h2.2v-6.3c0-2.8-1.5-4.3-3.9-4.3Z"/>
  <path class="cls-1" d="M104.5,26.4c-.7-.7-2-1.3-3.5-1.3-3.2,0-5.4,2.5-5.4,5.5s2.2,5.4,5.4,5.4c1.7,0,2.8-.7,3.5-1.4v1.1s2.2,0,2.2,0v-10.3h-2.1v1ZM101.2,34.1c-1.9,0-3.4-1.6-3.4-3.5s1.5-3.5,3.4-3.5,3.4,1.3,3.4,3.5-1.5,3.6-3.4,3.5Z"/>
  <path class="cls-1" d="M122.9,28.3c1.3-.2,2.3-1.2,2.3-2.7,0-2.4-1.5-3.5-4.4-3.5h-5.5v13.5h5.9c2.9,0,4.8-1.3,4.8-4.1s-1.2-3.1-3-3.3ZM117.4,24.2h3.1c1.5,0,2.5.1,2.6,1.6,0,1.4-.9,1.8-2.7,1.8h-3v-3.4ZM121,33.7h-3.6v-4.2h3.6c1.8,0,2.7.7,2.7,2.1s-.9,2.1-2.7,2.1Z"/>
  <path class="cls-1" d="M130.5,27.4v-2h-2.2v10.3h2.2v-5.2c0-2.2,1.6-3.7,4.2-3.7v-1.8c-2.2,0-3.7,1-4.2,2.3Z"/>
  <path class="cls-1" d="M141.3,25.1c-3.1,0-5.6,2.5-5.6,5.5s2.5,5.4,5.6,5.4,5.6-2.4,5.6-5.4-2.5-5.5-5.6-5.5ZM141.3,34.1c-2,0-3.6-1.6-3.6-3.5s1.5-3.5,3.6-3.5,3.6,1.6,3.6,3.5-1.5,3.5-3.6,3.5Z"/>
  <polygon class="cls-1" points="157.5 31.4 154.8 25 152.3 31.3 150.2 25.4 148 25.4 152 36.5 154.8 29.6 157.7 36.5 161.7 25.4 159.4 25.4 157.5 31.4"/>
  <path class="cls-1" d="M167.5,29.8c-1.8-1-2.3-1.3-2.3-1.9s.5-.9,1.6-.9,2,.4,2.4.9v-2.1c-.5-.3-1.4-.7-2.7-.7-1.9,0-3.4,1.1-3.4,2.9s1.2,2.4,2.6,3.1c1.2.7,1.9,1.1,1.9,1.9s-.7,1.1-2.1,1.1-3-1.2-3-1.2v2.1s1.3,1,3,1c2.9,0,4.1-1.6,4.1-3.1s-.8-2.2-2.2-3Z"/>
  <path class="cls-1" d="M176.9,25.1c-3.2,0-5.6,2.4-5.6,5.4s2.1,5.5,5.7,5.5c3,0,4.1-1.1,4.1-1.1v-1.9s-1.6,1.1-4.1,1.1-3.5-1.4-3.7-3h8.2v-1c0-2.5-1.7-5-4.7-5ZM173.5,29.4c.1-.8.9-2.5,3.1-2.5s2.8,1.7,2.9,2.5h-6Z"/>
  <path class="cls-1" d="M186.2,27.4v-2h-2.2v10.3h2.2v-5.2c0-2.2,1.6-3.7,4.2-3.7v-1.8c-2.2,0-3.7,1-4.2,2.3Z"/>
  <path class="cls-1" d="M37.6,27.4c.1-2.4-1.8-3.9-3.6-5.2-1.2-7.2-12.3-7.1-15.3-6.8-5.8-3.9-12.4-4-13-3.7-.1.5,0,7.1,1.8,11,0,0-2.9,1.7-4,5.5,2.4-3.5,6.9-4.6,6.9-4.6-1.6-3.4-2.3-9.1-2.1-9.1,5.9.6,9.9,3.4,9.9,3.4,11.7-.5,13.1,3.7,13.4,5.8,3.6,2.4,3.9,3.6,3.6,4.6,0,0,0,0,0,0,0,0,0,.1,0,.2h0c-.9,2.9-2.7,5.5-2.6,5.6.3,1.2.7,5.7-4.1,5.9-.8-7-10.3-1.1-11.4,3.6,2.6-3.6,10.1-7.3,9.4-1.2,9.2,0,9.2-5.9,8.6-7.9,2.1-3.5,2.6-6.5,2.5-7Z"/>
  <path class="cls-1" d="M10.7,26c-2.4.6-4.5,1.9-6.8,5h2.1c-1,1.9-1.5,3.4-1.3,6.1,1.1-3.4,3.8-6.4,6.2-8.3h-2.9l2.8-2.8Z"/>
</svg>