<?xml version="1.0" encoding="UTF-8"?>
<svg id="Layer_1" data-name="Layer 1" xmlns="http://www.w3.org/2000/svg" version="1.1" viewBox="0 0 193.9 55.1">
  <defs>
    <style>
      .cls-1 {
        fill: #000;
        stroke-width: 0px;
      }
    </style>
  </defs>
  <path class="cls-1" d="M23.4,46.9h38.8V8.2H23.4v38.8ZM39.5,21.9c0-.4,0-.5,0-.7,0-.4.3-.7.6-.9.1,0,.3-.2.6-.3l1.1-.4s0,0,0,0l.7-.3,5.8-2.3c.2,0,.3-.1.4-.1.2,0,.4.1.4.3,0,0,0,.2,0,.4v5.8c0,.4,0,.5,0,.7,0,.4-.3.7-.6.9-.1,0-.3.2-.6.3l-7.6,2.9c-.2,0-.3.1-.4.1-.2,0-.4-.1-.4-.3,0,0,0-.2,0-.4v-5.8ZM36.3,31.7c0-.4,0-.5,0-.7,0-.4.3-.7.6-.9.1,0,.3-.2.6-.3l1.1-.4s0,0,0,0l2.2-.8s0,0,0,0l4.3-1.7c.2,0,.3-.1.4-.1.2,0,.4.1.4.3,0,0,0,.2,0,.4v5.8c0,.4,0,.5,0,.7,0,.4-.3.7-.6.9-.1,0-.3.2-.6.3l-1.1.4s0,0,0,0l-2.2.8s0,0,0,0l-4.3,1.6c-.2,0-.3.1-.4.1-.2,0-.4-.1-.4-.3,0,0,0-.2,0-.4v-5.8Z"/>
  <path class="cls-1" d="M86,25.1c0-3-2.1-4.8-5.6-4.8h-5.9v15.5h2.7v-5.8h3.3l2.6,5.8h3l-2.9-6.3c1.8-.7,2.8-2.2,2.8-4.3ZM80.4,27.5h-3.2v-4.9h3.2c1.7,0,2.7.9,2.7,2.4s-1,2.5-2.7,2.5Z"/>
  <path class="cls-1" d="M163,20c-4.4,0-7.5,3.3-7.5,8s3,8,7.5,8,7.5-3.3,7.5-8-3.1-8-7.5-8ZM163,33.4c-2.8,0-4.7-2.1-4.7-5.4s1.8-5.4,4.7-5.4,4.7,2.1,4.7,5.4-1.8,5.4-4.7,5.4Z"/>
  <path class="cls-1" d="M135.4,20.2h-5.4v15.5h5.6c4.5,0,7.6-3.2,7.6-7.7s-3.2-7.8-7.7-7.8ZM135.3,33.2h-2.6v-10.5h2.5c3.2,0,5.1,2,5.1,5.3s-1.9,5.2-5,5.2Z"/>
  <path class="cls-1" d="M147.9,20.2l-5.6,15.5h2.8l1.2-3.6h5.8l1.2,3.6h2.9l-5.6-15.5h-2.8ZM147.2,29.8l1.8-5c.1-.4.3-.9.3-1.2,0,.3.2.8.3,1.2l1.8,5h-4.2Z"/>
  <path class="cls-1" d="M120.3,26.8v-1.5h-2.6v10.4h2.6v-5.1c0-2,1.2-3,3-3h1v-2.4c-.4-.1-.8-.1-1.1-.1-1.4,0-2.4.7-2.8,1.7Z"/>
  <path class="cls-1" d="M111.1,25c-3.2,0-5.6,2.2-5.6,5.5s2.3,5.5,5.6,5.5,5.6-2.2,5.6-5.5-2.3-5.5-5.6-5.5ZM111.1,33.6c-1.8,0-3-1.3-3-3.2s1.2-3.2,3-3.2,3,1.3,3,3.2-1.2,3.2-3,3.2Z"/>
  <polygon class="cls-1" points="96.8 27.4 102 27.4 96.8 33.6 96.8 35.7 105.2 35.7 105.2 33.5 99.9 33.5 105.2 27.4 105.2 25.3 96.8 25.3 96.8 27.4"/>
  <path class="cls-1" d="M91.3,24.9c-2.8,0-4.7,1.5-4.7,3.7h2.2c0-1.1.8-1.7,2.4-1.7s2.2.6,2.2,2v.2l-3.1.2c-2.5.2-3.9,1.4-3.9,3.3s1.4,3.3,3.6,3.3,3-.7,3.5-1.8l.2,1.5h2.3v-6.3c0-2.9-1.7-4.4-4.5-4.4ZM93.4,31.5c0,1.6-1,2.6-2.6,2.6s-1.8-.5-1.8-1.4.6-1.4,2.2-1.5l2.2-.2v.5Z"/>
</svg>