<?xml version="1.0" encoding="UTF-8"?>
<svg id="Layer_1" data-name="Layer 1" xmlns="http://www.w3.org/2000/svg" version="1.1" viewBox="0 0 193.9 55.1">
  <defs>
    <style>
      .cls-1 {
        fill: #000;
        stroke-width: 0px;
      }
    </style>
  </defs>
  <path class="cls-1" d="M48.8,27.3c5.6-1.4,10.4-3.9,13.3-9.1,1.1-2,1.9-4.1,2.3-6.2.1-.6-.3-1.1-.8-1.2-.6,0-1.3,0-2,0h-13c-.6,0-1,.5-1,1v14.6c0,.7.6,1.1,1.2,1Z"/>
  <path class="cls-1" d="M57.7,31.7c-2.8-2.1-5.9-2.7-9.2-2.5-.5,0-.9.5-.9,1v13.2c0,.6.4,1,1,1h16.7c.7,0,1.2-.7.9-1.4-1.9-4.5-4.7-8.5-8.5-11.3Z"/>
  <path class="cls-1" d="M69.5,34c-.4-.5-.2-1.3.3-1.7,3.5-2.1,4.9-5.6,4.9-9.8s-1.4-7.6-4.7-9.7c-.3-.2-.7-.2-1,0-2.8,1.9-5,4.3-6.1,7.9-2.6,8.1.6,16.2,5.7,23.4.2.3.5.4.8.4h6.3c.8,0,1.3-1,.8-1.7l-7.1-8.8Z"/>
  <path class="cls-1" d="M87.6,10.9c-.4-.2-.9-.2-1.8-.2h-3.3c-1,0-1.5,0-1.8.2-.3.2-.6.4-.7.8-.2.4-.2.9-.2,1.9v28c0,1,0,1.5.2,1.9.2.3.4.6.7.8.4.2.9.2,1.8.2h3.3c1,0,1.5,0,1.8-.2.3-.2.6-.4.7-.8.2-.4.2-.9.2-1.9V13.5c0-1,0-1.5-.2-1.9-.2-.3-.4-.6-.7-.8Z"/>
  <path class="cls-1" d="M117.4,36.7c-.4-.2-.9-.2-1.8-.2h-6.9c-2,0-3,0-3.5-.4-.4-.3-.6-.9-.6-1.4,0-.6.7-1.4,2-2.9l10.9-12.3c.3-.3.4-.5.5-.6,0-.1.1-.3.2-.5,0-.2,0-.4,0-.8v-4c0-1,0-1.5-.2-1.9-.2-.3-.4-.6-.7-.7-.4-.2-.9-.2-1.8-.2h-19.8c-1,0-1.5,0-1.8.2-.3.2-.6.4-.7.8-.2.4-.2.9-.2,1.9v2.2c0,1,0,1.5.2,1.9.2.3.4.6.7.8.4.2.9.2,1.8.2h6.5c2,0,3,0,3.5.4.4.3.6.9.6,1.4,0,.6-.7,1.4-2,2.9l-10.8,12.3c-.3.3-.4.5-.5.6,0,.1-.1.3-.2.5,0,.2,0,.4,0,.8v4c0,1,0,1.5.2,1.9.2.3.4.6.7.8.4.2.9.2,1.8.2h20.1c1,0,1.5,0,1.8-.2.3-.2.6-.4.7-.8.2-.4.2-.9.2-1.9v-2.2c0-1,0-1.5-.2-1.9-.2-.3-.4-.6-.7-.8Z"/>
  <path class="cls-1" d="M146.1,37.4c-.2-.3-.4-.6-.7-.8-.4-.2-.9-.2-1.8-.2h-9.5c-.9,0-1.3,0-1.7-.2-.4-.2-.7-.5-.8-.9-.2-.4-.2-.8-.2-1.7s0-1.4.2-1.7c.2-.4.5-.7.8-.9.3-.2.8-.2,1.7-.2h7.6c1,0,1.5,0,1.8-.2.3-.2.6-.4.7-.8.2-.4.2-.9.2-1.9v-1.4c0-1,0-1.5-.2-1.9-.2-.3-.4-.6-.7-.8-.4-.2-.9-.2-1.8-.2h-7.7c-.8,0-1.2,0-1.6-.1-.4-.2-.7-.5-.9-.9-.1-.3-.1-.8-.1-1.6s0-1.3.1-1.6c.2-.4.5-.8.9-.9.3-.1.7-.1,1.6-.1h9.1c1,0,1.5,0,1.8-.2.3-.2.6-.4.7-.8.2-.4.2-.9.2-1.9v-2.2c0-1,0-1.5-.2-1.9-.2-.3-.4-.6-.7-.8-.4-.2-.9-.2-1.8-.2h-17.8c-1,0-1.5,0-1.8.2-.3.2-.6.4-.7.8-.2.4-.2.9-.2,1.9v28c0,1,0,1.5.2,1.9.2.3.4.6.7.8.4.2.9.2,1.8.2h18.2c1,0,1.5,0,1.8-.2.3-.2.6-.4.7-.8.2-.4.2-.9.2-1.9v-2.2c0-1,0-1.5-.2-1.9Z"/>
</svg>