<?xml version="1.0" encoding="UTF-8"?>
<svg id="Layer_1" data-name="Layer 1" xmlns="http://www.w3.org/2000/svg" version="1.1" viewBox="0 0 193.9 55.1">
  <defs>
    <style>
      .cls-1 {
        fill: #000;
        stroke-width: 0px;
      }
    </style>
  </defs>
  <path class="cls-1" d="M30.1,38.2c2.4,2.4,8.5-6.2,7.3-7.4-1.2-1.2-9.7,5-7.3,7.4Z"/>
  <path class="cls-1" d="M57.7,9.1l-14.6.7c-.3,0-.6.3-.5.7.4,1.4,1.7,2.5,3.2,2.5h8.3c.9,0,1.6.7,1.6,1.6v8.3c0,1.5,1,2.8,2.5,3.2.3,0,.7-.2.7-.5l.6-14.7c0-.9-.7-1.7-1.6-1.6Z"/>
  <path class="cls-1" d="M51,15.8l-14.6.7c-.3,0-.6.3-.5.7.4,1.4,1.7,2.5,3.2,2.5h8.3c.9,0,1.6.7,1.6,1.6v8.3c0,1.5,1,2.8,2.5,3.2.3,0,.7-.2.7-.5l.6-14.7c0-.9-.7-1.7-1.6-1.6Z"/>
  <path class="cls-1" d="M44.3,22.5l-14.6.7c-.3,0-.6.3-.5.7.4,1.4,1.7,2.5,3.2,2.5h8.3c.9,0,1.6.7,1.6,1.6v8.3c0,1.5,1,2.8,2.5,3.2.3,0,.7-.2.7-.5l.6-14.7c0-.9-.7-1.7-1.6-1.6Z"/>
  <path class="cls-1" d="M164.4,17h-2.8c-.2,0-.4.1-.5.3l-6.6,14.6c-.2.5-.9.5-1.1,0l-6.2-14.6c0-.2-.3-.4-.5-.4h-3c-.2,0-.4.2-.3.4l8.1,18.3.5,1.2c0,.1,0,.3,0,.5l-4.2,9.1c0,.2,0,.4.3.4h2.9c.2,0,.4-.1.5-.3l13.3-29.2c0-.2,0-.4-.3-.4Z"/>
  <path class="cls-1" d="M133.7,16.7c-1.5,0-2.9.3-4.2.8-1.3.5-2.4,1.3-3.3,2.3-.7.9-1.2,1.9-1.4,3.2,0,.3.2.6.6.6h2.5c.3,0,.5-.2.6-.5.3-1.1.9-1.9,1.7-2.5,1-.7,2.2-1,3.6-1s2.9.5,3.8,1.4c.9.9,1.4,2.3,1.4,4.1s-.1.3-.3.3h-5.4c-2.8,0-5,.6-6.6,1.7-1.6,1.1-2.4,2.8-2.4,4.9s.3,2.2.8,3.2c.6,1,1.4,1.8,2.6,2.3,1.1.6,2.6.9,4.3.9s3.4-.4,4.5-1.2c.8-.6,1.5-1.3,2-2.1.2-.2.6-.1.6.2v2.1c.1.3.4.5.7.5h2c.3,0,.6-.3.6-.6v-12.2c0-2.6-.7-4.6-2.2-6.1-1.5-1.6-3.6-2.3-6.5-2.3ZM138.1,31.7c-.5,1.1-1.2,2-2.2,2.7-.9.7-2.1,1-3.4,1s-2.6-.3-3.4-1c-.8-.7-1.2-1.5-1.2-2.6s.4-1.9,1.3-2.6c.9-.7,2.3-1.1,4.4-1.1h5c.2,0,.3.1.3.3,0,1.1-.3,2.2-.7,3.3Z"/>
  <path class="cls-1" d="M121.2,34.9h-1.6c-1.3,0-2.3-.2-2.8-.7-.5-.5-.8-1.4-.8-2.7v-10.8c0-.3.3-.6.6-.6h3.7c.3,0,.6-.3.6-.6v-1.8c0-.3-.3-.6-.6-.6h-3.7c-.3,0-.6-.3-.6-.6v-6c0-.5-.6-.8-1-.4l-2.4,2.3c-.1.1-.2.3-.2.4v4.3s0,3,0,3v11.4c0,2.4.5,4.1,1.6,5,1.1.9,2.6,1.4,4.5,1.4h2.6c.3,0,.6-.3.6-.6v-1.8c0-.3-.3-.6-.6-.6Z"/>
  <path class="cls-1" d="M100,16.7c-1.5,0-2.9.3-4.2.8-1.3.5-2.4,1.3-3.3,2.3-.7.9-1.2,1.9-1.4,3.2,0,.3.2.6.6.6h2.5c.3,0,.5-.2.6-.5.3-1.1.9-1.9,1.7-2.5,1-.7,2.2-1,3.6-1s2.9.5,3.8,1.4c.9.9,1.4,2.3,1.4,4.1s-.1.3-.3.3h-5.4c-2.8,0-5,.6-6.6,1.7-1.6,1.1-2.4,2.8-2.4,4.9s.3,2.2.8,3.2c.6,1,1.4,1.8,2.6,2.3,1.1.6,2.6.9,4.3.9s3.4-.4,4.5-1.2c.8-.6,1.5-1.3,2-2.1.2-.2.6-.1.6.2v2.1c.1.3.4.5.7.5h2c.3,0,.6-.3.6-.6v-12.2c0-2.6-.7-4.6-2.2-6.1-1.5-1.6-3.6-2.3-6.5-2.3ZM104.5,31.7c-.5,1.1-1.2,2-2.2,2.7-.9.7-2.1,1-3.4,1s-2.6-.3-3.4-1c-.8-.7-1.2-1.5-1.2-2.6s.4-1.9,1.3-2.6c.9-.7,2.3-1.1,4.4-1.1h5c.2,0,.3.1.3.3,0,1.1-.3,2.2-.7,3.3Z"/>
  <path class="cls-1" d="M84.8,23.6c-1.1-.7-2.4-1.3-3.8-1.8-1.7-.6-3.2-1-4.4-1.5-1.3-.4-2.3-1-3-1.7-.7-.7-1-1.6-1-2.9s.5-2.6,1.5-3.5c1-.8,2.3-1.2,3.9-1.2,1.3,0,2.3.3,3.2.8.9.5,1.5,1.2,1.9,2,.3.6.5,1.2.6,1.8,0,.3.3.6.6.6h2.5c.3,0,.6-.3.6-.6-.1-1.3-.5-2.5-1.2-3.6-.8-1.2-1.8-2.2-3.2-2.9-1.4-.7-3-1-4.9-1s-3.5.3-4.9,1c-1.4.7-2.4,1.6-3.2,2.8-.8,1.2-1.1,2.6-1.1,4.1,0,1.9.5,3.4,1.6,4.6,1.1,1.1,2.8,2.1,5,2.9,1.2.4,2.3.8,3.4,1.1,1.1.3,2.1.7,2.9,1.2.9.4,1.5,1,2,1.8.5.7.8,1.6.8,2.8s-.5,2.6-1.6,3.6c-1.1.9-2.6,1.4-4.6,1.4s-2.8-.3-3.8-.8c-1-.6-1.8-1.4-2.3-2.3-.4-.8-.7-1.7-.8-2.6,0-.3-.3-.6-.6-.6h-2.5c-.3,0-.6.3-.6.6,0,1.6.5,3,1.3,4.3.9,1.4,2.1,2.5,3.7,3.3,1.6.8,3.5,1.2,5.6,1.2s4-.4,5.5-1.2c1.5-.8,2.6-1.8,3.3-3,.7-1.3,1.1-2.6,1.1-4s-.3-3-1-4.1c-.6-1.1-1.5-1.9-2.6-2.6Z"/>
</svg>