<?xml version="1.0" encoding="UTF-8"?>
<svg id="Layer_1" data-name="Layer 1" xmlns="http://www.w3.org/2000/svg" version="1.1" viewBox="0 0 193.9 55.1">
  <defs>
    <style>
      .cls-1 {
        fill: #000;
        stroke-width: 0px;
      }
    </style>
  </defs>
  <path class="cls-1" d="M158.2,24.5h0c0-.1,0-.2-.1-.3l-1.6-4.7h0s0,0,0,0c-.2-.7-.6-1.4-1-2-.5-.6-1.1-1.1-1.8-1.5-.7-.4-1.5-.5-2.3-.5h-19.5l-2.3-6.6-.3-.8-.5.7-4.9,6.7H36.9v.4c0,0-1.4,6.5-1.4,6.5h0c0,.1,0,.2,0,.2l1.7,5v.3h2.1l-1,5h0c0,.1,0,.2,0,.2l1.7,5v.3h8.8v-.4c0,0,1.4-6.5,1.4-6.5,0,0,0,0,0,.1l.8,3c0,.2,0,.3.1.5,0,.1,0,.3.1.4v.3c0,0,.1,0,.1,0,.1.3.3.6.5.9.4.5.9.9,1.5,1.2.6.3,1.3.4,1.9.4h18.5v-.4c0,0,.8-3.5.8-3.5h1.9l1.6,3.6v.3h19.9c0,0,0,.2.1.2l1.3,4.2c.2.7.6,1.3,1,1.9.5.7,1.2,1.2,2,1.6.8.4,1.7.6,2.6.6h15.4c1.2,0,2.3-.3,3.2-.9v.4c0,0-.2.5-.2.5h11.4v-.4c0,0,1.2-5.9,1.2-5.9h14.5c1.4,0,2.6-.4,3.7-1.3,1.1-.9,1.8-2,2-3.4l1.8-9.1c.2-.9.1-1.7,0-2.5ZM45,20.8l2.3.7-2,9.9h-4.6l2.1-10.6h-4.9l.6-3.2h14.1l-.6,3.2h-7ZM64.7,30.9c-.4.3-.9.5-1.5.5h-9.6c-.4,0-.7,0-1-.2-.3-.2-.6-.4-.8-.6-.2-.3-.4-.6-.4-.9,0-.3-.1-.7,0-1l2.2-11h4.1l-2,9.9-2.3.7h7.8c.1,0,.2,0,.3-.1,0,0,.1-.2.2-.3l2-10.2h0s4.1,0,4.1,0l-2.4,11.9c-.1.6-.4,1-.8,1.3ZM82.8,27c-.4.3-.9.5-1.5.5h-.9l1.8,3.9h-4.1l-1.8-3.9h-5l-.8,3.9h-4.1l2.8-13.8h13.3c.4,0,.7,0,1,.2.3.2.6.4.8.6.2.3.4.5.4.9s.1.7,0,1h0s-1.1,5.3-1.1,5.3c-.1.5-.4,1-.8,1.3ZM99.2,31.4h-7.1l-2.2-10.9h-2.4l2.3.7-2,10.2h-4.1l2.8-13.8h7.1l2.2,10.9,2.2-10.9h4.1l-2.8,13.8ZM154.5,21.5l-1.8,9.1c-.2.9-.6,1.6-1.3,2.1-.7.6-1.5.8-2.4.8h-16.3l-1.2,6.3h-7.1l2.7-13.5.3-1.7h3.1l-1.9-5.6-.8-2.4-1.7,2.4-4.1,5.7h3l-.3,1.7-2.1,10.5c-.2.9-.6,1.6-1.3,2.2-.7.6-1.5.8-2.4.8h-15.4c-.6,0-1.1-.1-1.6-.4-.5-.2-.9-.6-1.2-1-.3-.4-.6-.9-.7-1.4-.2-.5-.2-1.1,0-1.7l3.6-17.8h6.7l-3.2,16-3.7,1.1h12.5c.2,0,.3,0,.5-.2.1-.1.2-.3.3-.4l3.3-16.5h5.3l3.6-5,1.7,5h21c.5,0,1,.1,1.4.3.4.2.8.5,1.1.9.3.4.5.8.7,1.3h0c.1.5.2,1,0,1.5Z"/>
  <path class="cls-1" d="M147.3,23.1c-.2-.2-.3-.3-.6-.3h-15.7l1.2.4,2.5.8-.9,4.5h12c.2,0,.3,0,.4-.2.1-.1.2-.2.3-.4l.8-4.1h0c0-.2,0-.4-.2-.6Z"/>
  <path class="cls-1" d="M79.8,20.8h-9.7l2.3.7-.6,2.8h7.4c.1,0,.2,0,.3,0,0,0,.1-.2.2-.3l.5-2.5h0c0-.1,0-.3,0-.4s-.2-.2-.3-.2Z"/>
</svg>