<?xml version="1.0" encoding="UTF-8"?>
<svg id="Layer_1" data-name="Layer 1" xmlns="http://www.w3.org/2000/svg" version="1.1" viewBox="0 0 193.9 55.1">
  <defs>
    <style>
      .cls-1 {
        fill: #000;
        stroke-width: 0px;
      }
    </style>
  </defs>
  <path class="cls-1" d="M110.1,29.8c0-.6-.2-1.2-.5-1.8-.2-.4-.1-.6,0-.9.2-.6.4-1.2.5-1.8,0-.7,0-1.5,0-2.2,0-.4-.1-.8-.3-1.2-1-2-2.7-2.9-4.9-2.9-4.9,0-9.8,0-14.7,0-.2,0-.4,0-.8,0,0,1.1,0,2.2,0,3.2,0,.6.2.7.8.7,1.5,0,3,0,4.5,0,3.4,0,6.9,0,10.3,0,.5,0,1,.1,1.3.6.5,1,0,1.9-1.3,1.9-4.9,0-9.8,0-14.7,0-.3,0-.6,0-.9,0v3.9c.2,0,.4,0,.6,0,2.6,0,5.3,0,7.9,0,2.3,0,4.7,0,7,0,.5,0,1,0,1.3.6.6,1,0,2-1.3,2-4.9,0-9.7,0-14.6,0h-.9v3.8c0,0,.1,0,.2,0,5.4,0,10.7,0,16.1,0,2,0,4.7-2,4.4-4.6,0-.5,0-1.1,0-1.6Z"/>
  <path class="cls-1" d="M176.6,28.6c-1-1.9-2.6-3-4.8-3-3.4,0-6.9,0-10.3,0-1.2,0-1.8-1-1.3-2,.3-.5.8-.6,1.3-.6,4.9,0,9.7,0,14.6,0,.3,0,.6,0,.9,0v-3.9c-5.4,0-10.7-.1-16.1,0-3.3,0-5.5,3.3-4.7,6.5.5,2.4,2.7,4,5.4,4,3.3,0,6.7,0,10,0,1,0,1.6.6,1.4,1.5-.1.7-.6,1-1.5,1-4.9,0-9.7,0-14.6,0-.3,0-.6,0-.8,0v3.9c.2,0,.3,0,.4,0,5.2,0,10.3,0,15.5,0,3.7,0,6.2-4.1,4.5-7.4Z"/>
  <path class="cls-1" d="M23.9,31.7c3.4-2.7,6.9-5.5,10.3-8.2.2-.2.5-.5.5-.7,0-1.2,0-2.4,0-3.7h-18v4.1h11.4c-.5.4-.7.6-1,.8-3.3,2.6-6.7,5.2-10,7.8-.2.1-.4.3-.4.5,0,1.3,0,2.5,0,3.8h18.3v-4h-11.6c.2-.2.3-.3.4-.4Z"/>
  <path class="cls-1" d="M82.3,30.3c-.3-.3-.4-.5-.6-.6-3.1-3.4-6.1-6.8-9.2-10.2-.2-.2-.4-.5-.6-.5-1.3,0-2.5,0-3.8,0v17h4v-11c0,0,.1,0,.2,0,.1.2.2.3.3.5,3,3.4,6.1,6.8,9.1,10.2.2.2.4.5.7.5,1.3,0,2.6,0,3.8,0v-17h-4v11.2Z"/>
  <path class="cls-1" d="M135.5,23c.3,0,.6,0,.8,0,1.8,0,3.6,0,5.5,0,1.5,0,1.3-.2,1.3,1.3,0,3.6,0,7.2,0,10.8,0,.3,0,.6,0,.9h3.9c0-.3,0-.6,0-.9,0-3.8,0-7.5,0-11.3,0-.6.2-.8.8-.8,2,0,4,0,6,0,.3,0,.6,0,.8,0v-3.8h-19.1v3.9Z"/>
  <path class="cls-1" d="M131.2,32.1c-5.1,0-10.2,0-15.3,0-.3,0-.6,0-.8.2-1.4,1.1-2.7,2.2-4,3.3,0,0,0,.1,0,.2.3,0,.5,0,.8,0,2.6,0,5.1,0,7.7,0,3.9,0,7.7,0,11.6,0,1.2,0,2-.8,2-1.9,0-1.1-.8-1.8-2-1.9Z"/>
  <path class="cls-1" d="M37.4,36.1h4v-17h-4v17Z"/>
  <path class="cls-1" d="M131.3,25.6c-2,0-3.9.1-5.9,0-1.7-.1-3,.4-4.1,1.6-.7.7-1.6,1.3-2.5,2.1.3,0,.5,0,.7,0,4,0,7.9,0,11.9,0,.3,0,.6,0,.8-.2.8-.4,1.2-1.3,1-2.1-.2-.8-.9-1.4-1.8-1.4Z"/>
  <path class="cls-1" d="M132.5,19.4c-.7-.5-1.4-.5-2.2.2-1.1.9-2.1,1.8-3.2,2.7-.2.1-.3.2-.5.3,0,0,0,.1.1.2,1.7,0,3.4,0,5.1,0,.5,0,1-.7,1.3-1.2.4-.7,0-1.7-.6-2.1Z"/>
  <path class="cls-1" d="M59.8,19c-3.5,0-6.9,0-10.4,0-3.1,0-5.4,2.4-5.4,5.4,0,2.2,0,4.4,0,6.5,0,2.8,2.4,5,5.2,5.1,1.8,0,3.6,0,5.5,0h0c1.7,0,3.5,0,5.2,0,3.2,0,5.4-2.3,5.5-5.6,0-2,0-4,0-6,0-3.1-2.3-5.5-5.5-5.6ZM61.2,30.5c0,1.2-.5,1.6-1.6,1.6-3.3,0-6.5,0-9.8,0-1.2,0-1.7-.4-1.7-1.7,0-1.9,0-3.8,0-5.7,0-1.2.4-1.7,1.7-1.7,1.6,0,3.3,0,4.9,0,1.6,0,3.3,0,4.9,0,1.2,0,1.7.4,1.7,1.7,0,1.9,0,3.8,0,5.7Z"/>
</svg>