<?xml version="1.0" encoding="UTF-8"?>
<svg id="pawfrens" xmlns="http://www.w3.org/2000/svg" xmlns:xlink="http://www.w3.org/1999/xlink" version="1.1" viewBox="0 0 119.1 120">
  <defs>
    <style>
      .cls-1 {
        clip-path: url(#clippath);
      }

      .cls-2 {
        fill: none;
      }

      .cls-2, .cls-3, .cls-4 {
        stroke-width: 0px;
      }

      .cls-3 {
        fill: #3fbcbc;
      }

      .cls-4 {
        fill: #ef7721;
      }
    </style>
    <clipPath id="clippath">
      <path class="cls-2" d="M50.4,28.8c3.9,13.8,14.9,11.9,14.9,11.9,7.6,1.5,12.5-11.7,12.5-11.7,0,0,4.6-27.1-12.2-28.9-.8,0-1.6-.1-2.4-.1-14.6,0-16.5,15.7-12.8,28.8"/>
    </clipPath>
  </defs>
  <path class="cls-4" d="M43.8,26.9c6.2,9.9,5.3,21.7-2.1,26.4-7.4,4.7-18.5.4-24.7-9.4-6.2-9.9-5.3-21.7,2.1-26.4,7.4-4.7,18.5-.4,24.7,9.4"/>
  <path class="cls-4" d="M64.9,48.5c0,0-.1,0-.2,0-8.6.9-16.1,6-18.2,16.1-4.1,19.4-9.8,23.2-12.7,26.9-1.6,2-2.8,4.3-3.4,6.8-1.1,4.4-2.1,9.8,6,16.9,11.7,10.2,30.7,1.8,36.3-2.8,4.6-3.8,13.9-5.6,17.1-6.1.7-.1,1.4-.2,2.1-.2,20.8-.9,27.3-6.9,27.3-19.2s-2.6-13-6.3-16.4c-2-1.8-4.4-3-6.9-3.8-3.9-1.3-6.7-2.2-8.8-3,0,0-4.1-1.1-10.3-5.9-1.6-1.3-3.4-2.8-5.4-4.7,0,0-6.1-6.2-16.5-4.6"/>
  <path class="cls-4" d="M111.8,41.2c-3.6,10-13,15.8-21,13-8.1-2.9-11.7-13.3-8.1-23.3,3.6-10,13-15.8,21-13,8.1,2.9,11.7,13.3,8.1,23.3"/>
  <g class="cls-1">
    <path class="cls-3" d="M89.5,20.5c.3,0,.6-.3.6-.7,0-3-.4-6-1.3-8.9-.9-2.8-2.3-5.4-4-7.7-.2-.3-.7-.4-1-.1-.3.2-.4.7-.1,1,1.7,2.2,3,4.7,3.8,7.3.9,2.7,1.3,5.6,1.2,8.4,0,.4.3.7.7.7,0,0,0,0,.1,0"/>
    <path class="cls-3" d="M81.6,1.3c.1,0,.3,0,.4-.2.3-.3.3-.7,0-1-4.8-4.6-11.1-7.2-17.7-7.4-5.9-.2-11.5,1.6-16.3,5.1-.3.2-.4.7-.2,1s.7.4,1,.2c4.5-3.3,9.8-4.9,15.4-4.8,6.3.2,12.2,2.7,16.8,7,.2.2.4.2.6.2"/>
    <path class="cls-3" d="M37.9,19.2c.3,0,.6-.3.6-.7.2-6.5,2.8-12.5,7.3-17.1.3-.3.3-.7,0-1-.3-.3-.7-.3-1,0-4.8,4.8-7.6,11.2-7.7,18,0,.4.3.7.7.7,0,0,0,0,.1,0"/>
    <path class="cls-3" d="M38.4,24.8s0,0,0,0c.4,0,.6-.4.5-.8-.3-1.8-.5-3.6-.5-5.5,0-.4-.3-.7-.7-.7-.4,0-.7.3-.7.7,0,1.9.1,3.9.5,5.8,0,.4.4.6.8.6"/>
    <path class="cls-3" d="M89.4,21.7c.3,0,.6-.3.6-.6,0-.4,0-.8,0-1.2,0-.4-.3-.7-.7-.7-.4,0-.7.3-.7.7,0,.4,0,.7,0,1.1,0,.4.3.7.6.7,0,0,.1,0,.2,0"/>
    <path class="cls-3" d="M77.6,41.6c.2,0,.3-.1.4-.3.2-.3.2-.7-.2-1-2.8-2-5-4.5-6.8-7.4-.2-.3-.6-.4-1-.2-.3.2-.4.6-.2,1,1.9,3.1,4.3,5.7,7.2,7.8.2.1.3.2.5.1"/>
    <path class="cls-3" d="M80.4,39.5c.2,0,.4-.1.5-.3.2-.3.1-.8-.2-1-5.9-3.9-9.6-10.4-9.9-17.5,0-.4-.3-.7-.7-.7-.4,0-.7.3-.7.7.3,7.5,4.2,14.5,10.5,18.6.2.1.3.1.5.1"/>
    <path class="cls-3" d="M67.3,45.4c.1,0,.3,0,.4-.2.3-.3.3-.7,0-1-4-4.1-6.9-9-8.5-14.4-.1-.4-.5-.6-.9-.5-.4.1-.6.5-.5.9,1.7,5.6,4.7,10.8,8.8,15,.2.2.4.2.6.2"/>
    <path class="cls-3" d="M87.8,29c.2,0,.4-.2.5-.3.2-.3,0-.8-.2-1-2.7-1.6-4.4-4.5-4.5-7.6v-.4c0-1.1,0-2.1-.2-3.2,0-.4-.4-.6-.8-.6-.4,0-.6.4-.6.8.1.8.2,1.6.2,2.3v.6c-.1,3.8,1.9,7.3,5.1,9.2.1,0,.3.1.5,0"/>
    <path class="cls-3" d="M48.8,40.9c0,0,.1,0,.2,0,.4-.2.5-.6.3-.9-2.2-4.7-3.5-9.6-4.1-14.7,0-.4-.4-.7-.8-.6-.4,0-.7.4-.6.8.6,5.3,2,10.3,4.2,15.1.1.3.4.4.8.4"/>
    <path class="cls-3" d="M51,10.2c-.1,0-.3,0-.4-.1-.3-.2-.4-.6-.2-.9,0,0,5.5-8.5,17.5-5.8.4,0,.6.4.5.8,0,.4-.5.6-.8.5-11-2.4-15.9,4.9-16.1,5.2-.1.2-.4.3-.6.3"/>
    <path class="cls-3" d="M75.5,15.6c-.3,0-.6-.2-.7-.5-1.4-6.6-6.4-7.3-6.6-7.3-.4,0-.6-.4-.6-.8,0-.4.4-.6.8-.6.3,0,6.2.8,7.8,8.4,0,.4-.2.7-.5.8,0,0,0,0-.1,0"/>
    <path class="cls-3" d="M51.9,29.8c-.3,0-.6-.2-.7-.5-.1-.4-3.4-10.9,1-17.7,4.5-6.9,13.6-5.7,14-5.7.4,0,.6.4.6.8,0,.4-.4.6-.8.6,0,0-8.7-1.1-12.7,5.1-4.1,6.2-.9,16.5-.9,16.6.1.4,0,.8-.4.9,0,0-.1,0-.2,0"/>
    <path class="cls-3" d="M61,44c-.2,0-.5-.1-.6-.3-3.1-5.3-6.6-13.8-7.3-22.1-.8-9.1,4.6-11.1,4.8-11.1.4-.1.8,0,.9.4.1.4,0,.7-.4.9-.2,0-4.6,1.7-3.9,9.7.7,8,4.2,16.4,7.2,21.5.2.3,0,.8-.2.9-.1,0-.2,0-.3,0"/>
    <path class="cls-3" d="M75,43.7c-.2,0-.3,0-.4-.2-6.9-5.7-9.7-12.2-10.8-16.7-1.2-4.8-.8-8.3-.8-8.4,0-.4.4-.6.8-.6.4,0,.6.4.6.8,0,.1-1.5,13.4,11.1,23.9.3.2.3.7,0,1-.1.2-.3.2-.5.2"/>
    <path class="cls-3" d="M68.6,42.2c-.2,0-.4,0-.5-.2-6.5-7.1-9.8-18.6-8.4-24.2.5-1.9,1.4-2.6,2.1-2.9,1.2-.4,2.2-.4,3.1.2,2.1,1.3,2.4,4.9,2.4,5,.7,6.6,2,9,2.1,9.1.2.3,0,.7-.2.9-.3.2-.7,0-.9-.2,0-.1-1.6-2.7-2.3-9.6,0-.8-.5-3.2-1.8-4-.5-.3-1.2-.4-1.9,0-.7.3-1.1,1.2-1.2,1.9-1.1,4.5,1.5,15.7,8.1,23,.3.3.2.7,0,1-.1.1-.3.2-.5.2"/>
    <path class="cls-3" d="M76.6,31.2c-.2,0-.4,0-.5-.3-1-1.3-1.7-2.4-2.1-3.5-1.2-2.9-1.3-4.7-1.4-6.8,0-1.1-.1-2.3-.4-3.8-.6-2.5-1.9-4.3-3.7-5.4-3.4-2-7.7-.8-7.7-.8-.4.1-.7-.1-.8-.5-.1-.4.1-.7.5-.8.2,0,4.9-1.3,8.8.9,2.2,1.3,3.7,3.4,4.4,6.4.3,1.7.3,2.9.4,4,.1,2,.2,3.6,1.3,6.4.4.9,1,2,1.9,3.1.2.3.2.7-.1,1-.1,0-.3.1-.4.1"/>
    <path class="cls-3" d="M58,28.6c-.3,0-.6-.2-.7-.5-.1-.4-2.5-9.1.2-13.8.8-1.4,2-2.3,3.5-2.6,2.3-.5,4.2-.3,5.8.8,2.7,1.8,3.3,5.4,3.3,5.5,0,.4-.2.7-.6.8-.4,0-.7-.2-.8-.6,0,0-.5-3.1-2.8-4.6-1.2-.8-2.8-1-4.7-.6-1.2.3-2,.9-2.7,2-2.4,4.1-.1,12.6,0,12.7.1.4-.1.7-.5.8,0,0-.1,0-.2,0"/>
    <path class="cls-3" d="M58.2,45.2c-.2,0-.5-.1-.6-.3-4-6.4-5.8-13.3-5.9-13.6,0-.4.1-.7.5-.8.4,0,.7.1.8.5,0,0,1.9,7,5.8,13.3.2.3,0,.7-.2.9-.1,0-.2.1-.4.1"/>
    <path class="cls-3" d="M48.5,15.7s0,0-.1,0c-.4,0-.6-.4-.6-.8.4-2.4,1.3-3.9,1.4-3.9.2-.3.6-.4,1-.2.3.2.4.6.2,1,0,0-.8,1.3-1.2,3.4,0,.3-.3.6-.7.6"/>
    <path class="cls-3" d="M49.8,6.8c-.2,0-.3,0-.5-.2-.3-.3-.3-.7,0-1,0-.1,9.9-10.2,23.7-3.7.3.2.5.6.3.9-.2.3-.6.5-.9.3-12.9-6.1-21.8,3-22.1,3.4-.1.1-.3.2-.5.2"/>
    <path class="cls-3" d="M50,32.1c-.3,0-.6-.2-.6-.5-2.7-7.7-2.1-14.2-2-14.4,0-.4.4-.7.8-.6.4,0,.7.4.6.8,0,0-.6,6.4,2,13.9.1.4,0,.8-.4.9,0,0-.2,0-.2,0"/>
    <path class="cls-3" d="M77.9,8.4c-.3,0-.5-.1-.6-.4-1-2.2-3-3.3-3.1-3.3-.3-.2-.5-.6-.3-.9.2-.3.6-.5.9-.3,0,0,2.4,1.3,3.7,3.9.2.3,0,.8-.3.9,0,0-.2,0-.3,0"/>
    <path class="cls-3" d="M45.3,18.4c-.3,0-.6-.3-.7-.6-.6-5.7,2.9-9.9,3.1-10,.2-.3.7-.3,1,0,.3.2.3.7,0,1,0,0-3.3,3.9-2.8,9,0,.4-.2.7-.6.8,0,0,0,0,0,0"/>
    <path class="cls-3" d="M78.4,28.3c-.2,0-.4,0-.5-.2-3.7-4.2-2.9-10.7-2.9-11,0-.4.4-.6.8-.6.4,0,.6.4.6.8,0,0-.7,6.2,2.5,9.9.3.3.2.7,0,1-.1.1-.3.2-.5.2"/>
    <path class="cls-3" d="M79.1,25.2c-.3,0-.5-.2-.6-.4-1.4-3-1.1-5.6-1.1-5.7,0-.4.4-.6.8-.6.4,0,.6.4.6.8,0,0-.3,2.3.9,5,.2.3,0,.8-.3.9,0,0-.2,0-.3,0"/>
    <path class="cls-3" d="M78.3,17.7h0c-.4,0-.7-.3-.7-.7,0-9.6-6.7-11.6-7-11.6-.4-.1-.6-.5-.5-.8,0-.4.5-.6.8-.5,0,0,2.1.6,4.1,2.5,1.8,1.7,4,5,3.9,10.5,0,.4-.3.7-.7.7"/>
  </g>
  <path class="cls-4" d="M10,84.5c8.6,6.2,19.7,5.7,24.7-1.3,5-6.9,2.1-17.6-6.5-23.8-8.6-6.2-19.7-5.7-24.7,1.3-5,6.9-2.1,17.6,6.5,23.8"/>
</svg>