<?xml version="1.0" encoding="UTF-8"?>
<svg id="pawfrens" xmlns="http://www.w3.org/2000/svg" xmlns:xlink="http://www.w3.org/1999/xlink" viewBox="0 0 489.64 127.35">
  <defs>
    <clipPath id="clippath">
      <path d="M49.35,36.12c3.9,13.8,14.9,11.9,14.9,11.9,7.6,1.5,12.5-11.7,12.5-11.7,0,0,4.6-27.1-12.2-28.9-.8,0-1.6-.1-2.4-.1-14.6,0-16.5,15.7-12.8,28.8Z" fill="none" stroke-width="0"/>
    </clipPath>
  </defs>
  <path d="M151.61,40.47h22.25c10.11,0,17.95,6.49,17.95,16.9s-7.84,16.97-17.95,16.97h-10.41v19.38h-11.84v-53.25ZM163.45,49.67v15.46h8.67c4.45,0,7.92-2.87,7.92-7.77s-3.47-7.69-7.92-7.69h-8.67Z" fill="#000" stroke-width="0"/>
  <path d="M194.14,75.39c0-10.94,7.47-19.08,17.57-19.08,4.07,0,7.62,1.43,10.11,3.77v-3.02h11.31v36.66h-11.31v-3.02c-2.49,2.34-6.03,3.77-10.11,3.77-10.11,0-17.57-8.15-17.57-19.08ZM222.28,75.39c0-5.13-3.32-8.67-8.15-8.67s-8.3,3.62-8.3,8.67,3.47,8.67,8.22,8.67,8.22-3.54,8.22-8.67Z" fill="#000" stroke-width="0"/>
  <path d="M237.58,57.06h11.31l6.26,21.27,6.94-21.27h9.35l6.94,21.27,6.34-21.27h11.31l-12.67,36.66h-9.43l-7.17-21.12-7.17,21.12h-9.35l-12.67-36.66Z" fill="#000" stroke-width="0"/>
  <path d="M301.54,40.47h36.88v10.18h-25.04v11.99h23.83v10.18h-23.83v20.89h-11.84v-53.25Z" fill="#000" stroke-width="0"/>
  <path d="M344.98,57.06h11.54v2.79c2.34-2.34,5.43-3.54,9.43-3.54,3.47,0,6.18,1.06,8.15,3.24l-6.86,8.67c-1.06-1.06-2.49-1.73-4.45-1.73-3.85,0-6.26,2.34-6.26,7.09v20.14h-11.54v-36.66Z" fill="#000" stroke-width="0"/>
  <path d="M373.71,75.39c0-10.94,8.52-19.16,19.69-19.16s18.48,7.69,18.48,18.33c0,1.36-.15,2.72-.53,4.6l-26.25.08c1.21,4.07,4.37,6.41,9.05,6.41,3.62,0,6.56-1.21,8.75-3.77l6.34,6.34c-3.62,4.22-8.83,6.34-15.01,6.34-11.92,0-20.52-8-20.52-19.16ZM385.1,71.32l15.99-.08c-.91-4.07-3.47-6.18-7.62-6.18s-7.24,2.34-8.37,6.26Z" fill="#000" stroke-width="0"/>
  <path d="M417.46,57.06h11.54v2.94c2.56-2.34,6.18-3.7,10.26-3.7,8.07,0,13.95,6.41,13.95,13.95v23.46h-11.54v-20.89c0-3.85-2.64-6.41-6.26-6.41s-6.41,2.56-6.41,6.41v20.89h-11.54v-36.66Z" fill="#000" stroke-width="0"/>
  <path d="M457.2,87.84l6.56-6.64c2.41,2.64,5.81,4.15,9.73,4.15,2.71,0,4.22-.83,4.22-2.26,0-5.36-17.88-1.81-17.88-15.31,0-7.01,5.73-11.77,14.71-11.77,6.18,0,11.77,2.19,15.08,6.41l-6.56,6.64c-2.26-2.71-5.28-3.7-8.07-3.7-2.64,0-3.92.83-3.92,2.19,0,4.68,17.8,1.66,17.8,15.39,0,7.24-5.81,11.69-14.93,11.69-6.56,0-12.97-2.64-16.74-6.79Z" fill="#000" stroke-width="0"/>
  <path d="M42.75,34.22c6.2,9.9,5.3,21.7-2.1,26.4-7.4,4.7-18.5.4-24.7-9.4-6.2-9.9-5.3-21.7,2.1-26.4,7.4-4.7,18.5-.4,24.7,9.4" fill="#ef7721" stroke-width="0"/>
  <path d="M63.85,55.82h-.2c-8.6.9-16.1,6-18.2,16.1-4.1,19.4-9.8,23.2-12.7,26.9-1.6,2-2.8,4.3-3.4,6.8-1.1,4.4-2.1,9.8,6,16.9,11.7,10.2,30.7,1.8,36.3-2.8,4.6-3.8,13.9-5.6,17.1-6.1.7-.1,1.4-.2,2.1-.2,20.8-.9,27.3-6.9,27.3-19.2s-2.6-13-6.3-16.4c-2-1.8-4.4-3-6.9-3.8-3.9-1.3-6.7-2.2-8.8-3,0,0-4.1-1.1-10.3-5.9-1.6-1.3-3.4-2.8-5.4-4.7,0,0-6.1-6.2-16.5-4.6" fill="#ef7721" stroke-width="0"/>
  <path d="M110.75,48.52c-3.6,10-13,15.8-21,13-8.1-2.9-11.7-13.3-8.1-23.3s13-15.8,21-13c8.1,2.9,11.7,13.3,8.1,23.3" fill="#ef7721" stroke-width="0"/>
  <g clip-path="url(#clippath)">
    <g>
      <path d="M88.45,27.82c.3,0,.6-.3.6-.7,0-3-.4-6-1.3-8.9-.9-2.8-2.3-5.4-4-7.7-.2-.3-.7-.4-1-.1-.3.2-.4.7-.1,1,1.7,2.2,3,4.7,3.8,7.3.9,2.7,1.3,5.6,1.2,8.4,0,.4.3.7.7.7h.1" fill="#3fbcbc" stroke-width="0"/>
      <path d="M80.55,8.62c.1,0,.3,0,.4-.2.3-.3.3-.7,0-1C76.15,2.82,69.85.22,63.25.02c-5.9-.2-11.5,1.6-16.3,5.1-.3.2-.4.7-.2,1s.7.4,1,.2c4.5-3.3,9.8-4.9,15.4-4.8,6.3.2,12.2,2.7,16.8,7,.2.2.4.2.6.2" fill="#3fbcbc" stroke-width="0"/>
      <path d="M36.85,26.52c.3,0,.6-.3.6-.7.2-6.5,2.8-12.5,7.3-17.1.3-.3.3-.7,0-1s-.7-.3-1,0c-4.8,4.8-7.6,11.2-7.7,18,0,.4.3.7.7.7h.1" fill="#3fbcbc" stroke-width="0"/>
      <path d="M37.35,32.12h0c.4,0,.6-.4.5-.8-.3-1.8-.5-3.6-.5-5.5,0-.4-.3-.7-.7-.7s-.7.3-.7.7c0,1.9.1,3.9.5,5.8,0,.4.4.6.8.6" fill="#3fbcbc" stroke-width="0"/>
      <path d="M88.35,29.02c.3,0,.6-.3.6-.6v-1.2c0-.4-.3-.7-.7-.7s-.7.3-.7.7v1.1c0,.4.3.7.6.7h.2" fill="#3fbcbc" stroke-width="0"/>
      <path d="M76.55,48.92c.2,0,.3-.1.4-.3.2-.3.2-.7-.2-1-2.8-2-5-4.5-6.8-7.4-.2-.3-.6-.4-1-.2-.3.2-.4.6-.2,1,1.9,3.1,4.3,5.7,7.2,7.8.2.1.3.2.5.1" fill="#3fbcbc" stroke-width="0"/>
      <path d="M79.35,46.82c.2,0,.4-.1.5-.3.2-.3.1-.8-.2-1-5.9-3.9-9.6-10.4-9.9-17.5,0-.4-.3-.7-.7-.7s-.7.3-.7.7c.3,7.5,4.2,14.5,10.5,18.6.2.1.3.1.5.1" fill="#3fbcbc" stroke-width="0"/>
      <path d="M66.25,52.72c.1,0,.3,0,.4-.2.3-.3.3-.7,0-1-4-4.1-6.9-9-8.5-14.4-.1-.4-.5-.6-.9-.5s-.6.5-.5.9c1.7,5.6,4.7,10.8,8.8,15,.2.2.4.2.6.2" fill="#3fbcbc" stroke-width="0"/>
      <path d="M86.75,36.32c.2,0,.4-.2.5-.3.2-.3,0-.8-.2-1-2.7-1.6-4.4-4.5-4.5-7.6v-.4c0-1.1,0-2.1-.2-3.2,0-.4-.4-.6-.8-.6s-.6.4-.6.8c.1.8.2,1.6.2,2.3v.6c-.1,3.8,1.9,7.3,5.1,9.2.1,0,.3.1.5,0" fill="#3fbcbc" stroke-width="0"/>
      <path d="M47.75,48.22h.2c.4-.2.5-.6.3-.9-2.2-4.7-3.5-9.6-4.1-14.7,0-.4-.4-.7-.8-.6-.4,0-.7.4-.6.8.6,5.3,2,10.3,4.2,15.1.1.3.4.4.8.4" fill="#3fbcbc" stroke-width="0"/>
      <path d="M49.95,17.52c-.1,0-.3,0-.4-.1-.3-.2-.4-.6-.2-.9,0,0,5.5-8.5,17.5-5.8.4,0,.6.4.5.8,0,.4-.5.6-.8.5-11-2.4-15.9,4.9-16.1,5.2-.1.2-.4.3-.6.3" fill="#3fbcbc" stroke-width="0"/>
      <path d="M74.45,22.92c-.3,0-.6-.2-.7-.5-1.4-6.6-6.4-7.3-6.6-7.3-.4,0-.6-.4-.6-.8s.4-.6.8-.6c.3,0,6.2.8,7.8,8.4,0,.4-.2.7-.5.8h-.1" fill="#3fbcbc" stroke-width="0"/>
      <path d="M50.85,37.12c-.3,0-.6-.2-.7-.5-.1-.4-3.4-10.9,1-17.7,4.5-6.9,13.6-5.7,14-5.7s.6.4.6.8-.4.6-.8.6c0,0-8.7-1.1-12.7,5.1-4.1,6.2-.9,16.5-.9,16.6.1.4,0,.8-.4.9h-.2" fill="#3fbcbc" stroke-width="0"/>
      <path d="M59.95,51.32c-.2,0-.5-.1-.6-.3-3.1-5.3-6.6-13.8-7.3-22.1-.8-9.1,4.6-11.1,4.8-11.1.4-.1.8,0,.9.4.1.4,0,.7-.4.9-.2,0-4.6,1.7-3.9,9.7.7,8,4.2,16.4,7.2,21.5.2.3,0,.8-.2.9h-.3" fill="#3fbcbc" stroke-width="0"/>
      <path d="M73.95,51.02c-.2,0-.3,0-.4-.2-6.9-5.7-9.7-12.2-10.8-16.7-1.2-4.8-.8-8.3-.8-8.4,0-.4.4-.6.8-.6s.6.4.6.8c0,.1-1.5,13.4,11.1,23.9.3.2.3.7,0,1-.1.2-.3.2-.5.2" fill="#3fbcbc" stroke-width="0"/>
      <path d="M67.55,49.52c-.2,0-.4,0-.5-.2-6.5-7.1-9.8-18.6-8.4-24.2.5-1.9,1.4-2.6,2.1-2.9,1.2-.4,2.2-.4,3.1.2,2.1,1.3,2.4,4.9,2.4,5,.7,6.6,2,9,2.1,9.1.2.3,0,.7-.2.9-.3.2-.7,0-.9-.2,0-.1-1.6-2.7-2.3-9.6,0-.8-.5-3.2-1.8-4-.5-.3-1.2-.4-1.9,0-.7.3-1.1,1.2-1.2,1.9-1.1,4.5,1.5,15.7,8.1,23,.3.3.2.7,0,1-.1.1-.3.2-.5.2" fill="#3fbcbc" stroke-width="0"/>
      <path d="M75.55,38.52c-.2,0-.4,0-.5-.3-1-1.3-1.7-2.4-2.1-3.5-1.2-2.9-1.3-4.7-1.4-6.8,0-1.1-.1-2.3-.4-3.8-.6-2.5-1.9-4.3-3.7-5.4-3.4-2-7.7-.8-7.7-.8-.4.1-.7-.1-.8-.5s.1-.7.5-.8c.2,0,4.9-1.3,8.8.9,2.2,1.3,3.7,3.4,4.4,6.4.3,1.7.3,2.9.4,4,.1,2,.2,3.6,1.3,6.4.4.9,1,2,1.9,3.1.2.3.2.7-.1,1-.1,0-.3.1-.4.1" fill="#3fbcbc" stroke-width="0"/>
      <path d="M56.95,35.92c-.3,0-.6-.2-.7-.5-.1-.4-2.5-9.1.2-13.8.8-1.4,2-2.3,3.5-2.6,2.3-.5,4.2-.3,5.8.8,2.7,1.8,3.3,5.4,3.3,5.5,0,.4-.2.7-.6.8-.4,0-.7-.2-.8-.6,0,0-.5-3.1-2.8-4.6-1.2-.8-2.8-1-4.7-.6-1.2.3-2,.9-2.7,2-2.4,4.1-.1,12.6,0,12.7.1.4-.1.7-.5.8h-.2" fill="#3fbcbc" stroke-width="0"/>
      <path d="M57.15,52.52c-.2,0-.5-.1-.6-.3-4-6.4-5.8-13.3-5.9-13.6,0-.4.1-.7.5-.8.4,0,.7.1.8.5,0,0,1.9,7,5.8,13.3.2.3,0,.7-.2.9-.1,0-.2.1-.4.1" fill="#3fbcbc" stroke-width="0"/>
      <path d="M47.45,23.02h-.1c-.4,0-.6-.4-.6-.8.4-2.4,1.3-3.9,1.4-3.9.2-.3.6-.4,1-.2.3.2.4.6.2,1,0,0-.8,1.3-1.2,3.4,0,.3-.3.6-.7.6" fill="#3fbcbc" stroke-width="0"/>
      <path d="M48.75,14.12c-.2,0-.3,0-.5-.2-.3-.3-.3-.7,0-1,0-.1,9.9-10.2,23.7-3.7.3.2.5.6.3.9-.2.3-.6.5-.9.3-12.9-6.1-21.8,3-22.1,3.4-.1.1-.3.2-.5.2" fill="#3fbcbc" stroke-width="0"/>
      <path d="M48.95,39.42c-.3,0-.6-.2-.6-.5-2.7-7.7-2.1-14.2-2-14.4,0-.4.4-.7.8-.6.4,0,.7.4.6.8,0,0-.6,6.4,2,13.9.1.4,0,.8-.4.9h-.2" fill="#3fbcbc" stroke-width="0"/>
      <path d="M76.85,15.72c-.3,0-.5-.1-.6-.4-1-2.2-3-3.3-3.1-3.3-.3-.2-.5-.6-.3-.9.2-.3.6-.5.9-.3,0,0,2.4,1.3,3.7,3.9.2.3,0,.8-.3.9h-.3" fill="#3fbcbc" stroke-width="0"/>
      <path d="M44.25,25.72c-.3,0-.6-.3-.7-.6-.6-5.7,2.9-9.9,3.1-10,.2-.3.7-.3,1,0,.3.2.3.7,0,1,0,0-3.3,3.9-2.8,9,0,.4-.2.7-.6.8h0" fill="#3fbcbc" stroke-width="0"/>
      <path d="M77.35,35.62c-.2,0-.4,0-.5-.2-3.7-4.2-2.9-10.7-2.9-11,0-.4.4-.6.8-.6s.6.4.6.8c0,0-.7,6.2,2.5,9.9.3.3.2.7,0,1-.1.1-.3.2-.5.2" fill="#3fbcbc" stroke-width="0"/>
      <path d="M78.05,32.52c-.3,0-.5-.2-.6-.4-1.4-3-1.1-5.6-1.1-5.7,0-.4.4-.6.8-.6s.6.4.6.8c0,0-.3,2.3.9,5,.2.3,0,.8-.3.9h-.3" fill="#3fbcbc" stroke-width="0"/>
      <path d="M77.25,25.02h0c-.4,0-.7-.3-.7-.7,0-9.6-6.7-11.6-7-11.6-.4-.1-.6-.5-.5-.8,0-.4.5-.6.8-.5,0,0,2.1.6,4.1,2.5,1.8,1.7,4,5,3.9,10.5,0,.4-.3.7-.7.7" fill="#3fbcbc" stroke-width="0"/>
    </g>
  </g>
  <path d="M8.95,91.82c8.6,6.2,19.7,5.7,24.7-1.3,5-6.9,2.1-17.6-6.5-23.8-8.6-6.2-19.7-5.7-24.7,1.3-5,6.9-2.1,17.6,6.5,23.8" fill="#ef7721" stroke-width="0"/>
</svg>