<?xml version="1.0" encoding="UTF-8"?>
<svg id="Upnetwork_logomark_yellow_" data-name="Upnetwork logomark (yellow)" xmlns="http://www.w3.org/2000/svg" version="1.1" viewBox="0 0 369.8 94.8">
  <defs>
    <style>
      .cls-1 {
        fill: #fdd110;
      }

      .cls-1, .cls-2 {
        stroke-width: 0px;
      }

      .cls-2 {
        fill: #fff;
        fill-rule: evenodd;
      }
    </style>
  </defs>
  <g id="Nodes">
    <path class="cls-2" d="M239.8,80.8l-16.5-21.4h-7v34.5h8v-21.5h0l16.5,21.5h7v-34.5h-8v21.4ZM266.9,66.7c-8.3,0-14,6.3-14,14s5.7,14,14,14,14.1-6.2,14.1-14-5.8-14-14.1-14ZM266.9,87.5c-3.7,0-6.3-2.8-6.3-6.8s2.6-6.8,6.3-6.8,6.3,2.8,6.3,6.8-2.6,6.8-6.3,6.8ZM304.2,67.8l.2,2.9c-1.3-1.9-4.1-4-7.8-4-7.7,0-12.6,6.3-12.6,14s5,14,12.5,14,6.7-2.2,8.1-4.2v3.3h7.4v-35.8h-7.8v9.7ZM298,87.6c-3.8,0-6.3-3-6.3-6.8s2.7-6.8,6.3-6.8,6.3,3,6.3,6.8-2.8,6.8-6.3,6.8ZM330.4,66.7c-8.2,0-13.9,6.3-13.9,14s5.7,14,13.9,14,11.8-4.7,12.9-9.4h-8.4c-.6,1.5-2,2.7-4.7,2.7s-5.3-1.8-5.9-5.3h19.4c.1-.8.2-1.3.2-2.2,0-7.5-5.3-13.8-13.5-13.8ZM324.7,77.4c1-3,3.4-4.2,5.8-4.2s5.2,1.8,5.5,4.2h-11.2ZM360,77.5c-4.2-.6-4.7-1-4.7-2.5s.8-2,2.7-2,3.3,1.1,3.4,2.6h7.6c0-5.3-4.5-8.9-11-8.9s-10.4,3.2-10.4,8.5,4.4,7.8,9.6,8.5c3.1.4,4.5.9,4.5,2.5s-.9,2.4-3.4,2.4-4-1.4-4.2-3.3h-7.5c0,4.7,3.5,9.4,11.6,9.4s11.5-2.8,11.5-9-3.7-7.4-9.7-8.2Z"/>
  </g>
  <g id="Ellipse_1" data-name="Ellipse 1">
    <circle class="cls-1" cx="240.1" cy="22.8" r="23.2" transform="translate(127.1 235.9) rotate(-67.5)"/>
  </g>
  <g id="Rectangle_1" data-name="Rectangle 1">
    <path class="cls-2" d="M148,0h-46.4v26.4h41.8c7.7,0,14,6.3,14,14s-6.3,14-14,14h-41.8v39.1h27.3v-13h19.2c24,0,37.3-21.5,37.3-40.7S172.1,0,148,0Z"/>
  </g>
  <g id="Rectangle_1-2" data-name="Rectangle 1">
    <path class="cls-2" d="M54-.4v55.3c0,7.6-6.2,13.8-13.8,13.8s-13.8-6.2-13.8-13.8V-.4H0v53.6C0,75.6,18.1,93.7,40.5,93.7s40.5-18.1,40.5-40.5V-.4h-27Z"/>
  </g>
</svg>