<?xml version="1.0" encoding="UTF-8"?>
<svg xmlns="http://www.w3.org/2000/svg" version="1.1" viewBox="0 0 438 48">
  <defs>
    <style>
      .cls-1 {
        fill: #fff;
        fill-rule: evenodd;
        stroke-width: 0px;
      }

      .cls-2 {
        isolation: isolate;
      }
    </style>
  </defs>
  <g id="Moveredition" class="cls-2">
    <g id="Moveredition-2" data-name="Moveredition">
      <path class="cls-1" d="M244.7,20v-4.9h-7.2v29.5h7.8v-17l5.8-5.9h6.8v-6.6h-8.4l-4.7,4.9ZM432.3,15.1h-8.7l-6.9,6.9v-6.9h-3.3v29.5h3.3v-18.7l7.8-7.8h6.3l3.3,3.2v23.3h3.3v-24.4l-5.2-5.2ZM367.4,4.4l-1.5,1.5v2.3l1.5,1.5h2.1l1.5-1.5v-2.3l-1.5-1.5h-2.1ZM184.9,35.6h-.2l-6.9-20.6h-8.1l11.3,29.5h7.6l11.3-29.5h-8.1l-6.9,20.6ZM111.5,29.9h-.1l-12.3-26.8h-7.5v41.5h7.8v-25.3h.1l9.5,19.4h5l9.5-19.4h.1v25.3h7.8V3.1h-7.5l-12.4,26.8ZM144.2,15.1l-6.1,6.2v17.2l6.1,6.2h17l6.1-6.2v-17.2l-6.1-6.2h-17ZM159.5,36l-2.1,2.1h-9.4l-2.1-2.1v-12.3l2.1-2.1h9.4l2.1,2.1v12.3ZM208.4,15.1l-6.1,6.2v17.3l6,6h17l5.9-5.9v-3.9h-7.7v1.5l-1.8,1.8h-9.7l-1.9-2v-3.8h21.1v-11.2l-6.2-6.2h-16.7ZM223.4,27h-13.3v-3.4l2-2.1h9.2l2,2.1v3.4ZM349.5,5.5h-3.2v9.6h-5.5v2.9h5.3v21.5l5.2,5.2h7.4v-3h-6l-3.3-3.3v-20.3h9.2v-3h-9.2V5.5ZM366.8,44.6h3.3V15.1h-3.3v29.5ZM330.7,4.4l-1.5,1.5v2.3l1.5,1.5h2.1l1.5-1.5v-2.3l-1.5-1.5h-2.1ZM384.7,15.1l-5.2,5.2v19.2l5.2,5.2h14.7l5.2-5.2v-19.2l-5.2-5.2h-14.7ZM401.3,38.4l-3.3,3.2h-11.9l-3.3-3.2v-17.1l3.3-3.2h11.9l3.3,3.2v17.1ZM330.1,44.6h3.3V15.1h-3.3v29.5ZM267.4,15.1l-5.2,5.2v19.2l5.2,5.2h14.3l5.2-5.2v-3.6h-3.3v2.6l-3.3,3.2h-11.4l-3.3-3.3v-7.6h21.5v-10.5l-5.2-5.2h-14.4ZM283.7,27.8h-18.1v-6.5l3.3-3.3h11.6l3.3,3.3v6.5ZM316.8,19.7l-5.4-4.7h-11.1l-5.2,5.2v19.2l5.2,5.2h10.7l5.9-5.9v5.9h3.3V2.3h-3.3v17.5ZM316.8,34.9l-6.6,6.6h-8.5l-3.3-3.2v-17.1l3.3-3.2h8.9l6.2,5.4v11.5ZM23.9,20c-2.2,0-4,1.8-4,4s1.8,4,4,4,4-1.8,4-4-1.8-4-4-4ZM23.9.1c-2.2,0-4,1.8-4,4s1.8,4,4,4,4-1.8,4-4S26.1.1,23.9.1ZM13.9,10.1c-2.2,0-4,1.8-4,4s1.8,4,4,4,4-1.8,4-4-1.8-4-4-4ZM33.8,29.9c-2.2,0-4,1.8-4,4s1.8,4,4,4,4-1.8,4-4-1.8-4-4-4ZM4,20C1.8,20,0,21.8,0,24s1.8,4,4,4,4-1.8,4-4-1.8-4-4-4ZM13.9,29.9c-2.2,0-4,1.8-4,4s1.8,4,4,4,4-1.8,4-4-1.8-4-4-4ZM4,39.9C1.8,39.9,0,41.7,0,43.9s1.8,4,4,4,4-1.8,4-4-1.8-4-4-4ZM33.8,10.1c-2.2,0-4,1.8-4,4s1.8,4,4,4,4-1.8,4-4-1.8-4-4-4ZM63.6,39.9c-2.2,0-4,1.8-4,4s1.8,4,4,4,4-1.8,4-4-1.8-4-4-4ZM63.6,20c-2.2,0-4,1.8-4,4s1.8,4,4,4,4-1.8,4-4-1.8-4-4-4ZM53.7,10.1c-2.2,0-4,1.8-4,4s1.8,4,4,4,4-1.8,4-4-1.8-4-4-4ZM43.7,20c-2.2,0-4,1.8-4,4s1.8,4,4,4,4-1.8,4-4-1.8-4-4-4ZM43.7.1c-2.2,0-4,1.8-4,4s1.8,4,4,4,4-1.8,4-4S45.9.1,43.7.1ZM53.7,29.9c-2.2,0-4,1.8-4,4s1.8,4,4,4,4-1.8,4-4-1.8-4-4-4Z"/>
    </g>
  </g>
</svg>