<?xml version="1.0" encoding="UTF-8"?>
<svg id="object" xmlns="http://www.w3.org/2000/svg" version="1.1" viewBox="0 0 1000 1000">
  <defs>
    <style>
      .cls-1 {
        fill: #000;
        stroke-width: 0px;
      }
    </style>
  </defs>
  <path class="cls-1" d="M387.1,621.7c-6.1,0-11.3-1.6-15.1-4.8-7-5.9-8.1-16.3-3.1-28.7l54.2-134c7.4-18.3,27-37.1,47.6-45.7,11.7-4.9,22.4-5.7,30.1-2.5l95.4,40.2c6.5,2.8,10.3,8.1,10.9,15.4,1.4,17.1-14.9,40.8-37.9,55.3l-149.6,93.7c-11.6,7.3-23,11-32.4,11ZM490.4,407.6c-5.4,0-11.7,1.4-18.3,4.2-19.8,8.2-38.6,26.2-45.7,43.8l-54.2,134c-4.5,11-3.7,19.8,2.1,24.7,8.6,7.2,25.6,4.6,43.4-6.5l149.6-93.7c25.1-15.7,37.4-38.5,36.3-52-.5-6-3.4-10.2-8.8-12.4l-95.4-40.2c-2.6-1.1-5.7-1.7-9.1-1.7Z"/>
  <path class="cls-1" d="M383.8,638.1c-5.7,0-10.7-1.4-14.6-4.2-7.8-5.7-9.7-16.1-5.5-29.2l47-145.4c10.9-33.6,55.6-65.4,81-57.6l109.4,33.5c7.5,2.3,12.2,7.6,13.5,15.4,2.9,17.8-12.9,44-36.7,61l-156.5,112c-13.4,9.6-26.9,14.7-37.8,14.7ZM483.2,403.8c-24.2,0-60.1,28-69.2,56.4l-47,145.4c-3.8,11.6-2.3,20.6,4.2,25.4,10,7.3,29.4,3.1,48.3-10.4l156.5-112c26-18.6,37.6-43.6,35.3-57.7-1.1-6.4-4.8-10.7-11.1-12.6l-109.4-33.5c-2.3-.7-4.8-1-7.5-1Z"/>
  <path class="cls-1" d="M381.4,655.4c-5.3,0-10-1.2-13.9-3.6-8.5-5.4-11.4-15.9-8.1-29.6l38-156.8c8.8-36.2,55-73.5,83.9-67.7l124.4,25c8.7,1.7,14.3,7,16.4,15.3,4.6,18.6-10,46.7-34.8,66.8l-162.3,131.8c-15,12.2-30.9,18.9-43.6,18.9ZM475,400.5c-27,0-66.6,33.9-74.2,65.7l-38,156.8c-2.9,12.2-.6,21.4,6.6,25.9,9.8,6.2,30.1,3.9,53.4-15l162.3-131.8c26.6-21.6,37.2-48.8,33.6-63.3-1.7-6.9-6.4-11.3-13.7-12.7l-124.4-25c-1.8-.4-3.7-.5-5.6-.5Z"/>
  <path class="cls-1" d="M380.7,674c-4.9,0-9.4-1-13.2-3-9.3-5-13.2-15.6-11-29.9l26.8-167.9c6.2-38.7,53.6-82.1,86.1-78.6l140.1,14.9c10,1.1,16.8,6.3,19.7,15.1,6.3,19.1-7.2,49.7-32.2,72.6l-166.9,153.1c-16.7,15.3-35,23.9-49.4,23.9ZM465.7,397.8c-30.3,0-73.3,40.7-79,75.9l-26.8,167.9c-2,12.7,1.2,22,9.2,26.3,11.4,6.1,34,2.2,58.6-20.3l166.9-153.1c26.9-24.7,36.2-53.9,31.3-68.9-2.5-7.4-8.2-11.8-16.8-12.8l-140.1-14.9c-1.1-.1-2.2-.2-3.3-.2Z"/>
  <path class="cls-1" d="M381.6,693.5c-4.5,0-8.6-.8-12.3-2.5-10.2-4.6-15.3-15.2-14.2-29.9l13.4-178.6c3.1-41.1,51.2-91,87.5-90.3l156.5,2.7c11.4.2,19.5,5.3,23.4,14.8,8.1,19.6-4.1,52.4-29,78.2l-169.9,175.8c-18.2,18.9-39,29.7-55.4,29.7ZM455.3,395.7c-33.9,0-80.4,48.5-83.3,87.1l-13.4,178.6c-1,13.1,3.3,22.5,12.1,26.5,15.7,7,42-3.8,63.8-26.5l169.9-175.8c27.2-28.1,34.8-58.7,28.3-74.5-3.4-8.1-10.4-12.5-20.3-12.6l-156.5-2.7c-.2,0-.4,0-.6,0Z"/>
  <path class="cls-1" d="M384.4,713.9c-4,0-7.8-.6-11.2-1.9-11.2-4.1-17.5-14.6-17.7-29.7l-2.4-188.5c-.6-43.4,47.9-99.9,87.9-102.6l173.5-11.5v1.7c.1,0,0-1.7,0-1.7,12.8-.8,22.6,4.2,27.6,14.2,10.1,20.2-.1,54.6-25,83.7l-171.1,200c-19.6,22.9-42.9,36.3-61.6,36.3ZM617.2,383c-.8,0-1.7,0-2.6,0l-173.5,11.5c-37.7,2.5-85.2,58.1-84.7,99.1l2.4,188.5c.2,13.8,5.5,22.9,15.4,26.5,18.2,6.6,46.6-7.2,69-33.4l171.1-200c26.7-31.2,32.6-63.8,24.5-79.9-4.1-8.1-11.6-12.4-21.8-12.4Z"/>
  <path class="cls-1" d="M388.9,734.9c-3.3,0-6.4-.4-9.4-1.2-12.3-3.4-20-13.8-21.7-29.3l-20.9-197.4c-4.8-45.4,43.3-109.1,87.2-115.6l190.9-28c14.5-2.1,26,2.6,32.4,13.4,12.1,20.5,3.8,57-20.2,88.9l-170,225.4c-20.4,27-47.1,43.8-68.3,43.8ZM615.3,365.2l.3,1.7-190.9,28c-41.6,6.1-88.8,68.8-84.3,111.8l20.9,197.4c1.5,14.2,8.1,23.3,19.1,26.3,20.9,5.8,51.3-11.2,74-41.3l170-225.4c23.2-30.8,31.5-65.8,20-85.1-5.7-9.6-15.7-13.7-28.9-11.7l-.3-1.7Z"/>
  <path class="cls-1" d="M396.2,756.6c-2.5,0-5-.2-7.4-.7-13.6-2.6-22.8-12.7-26.1-28.5l-42.3-205.1c-9.7-47.1,37.3-118.3,85.2-129.1l208.6-46.9c16.4-3.7,29.8.6,37.8,12.2,14.2,20.6,8.2,59.2-14.7,93.9l-166.3,252c-21,31.9-50.7,52.2-74.8,52.2ZM614.6,348l.4,1.7-208.6,46.9c-45.5,10.2-91.8,80.3-82.6,125l42.3,205.1c3,14.5,11.1,23.5,23.4,25.8,23.8,4.6,56.2-16,78.7-50.1l166.3-252c22.1-33.5,28.2-70.5,14.7-90-7.2-10.5-19.1-14.2-34.2-10.8l-.4-1.7Z"/>
  <path class="cls-1" d="M406,778.7c-1.6,0-3.1,0-4.7-.2-15-1.6-26-11.3-31.1-27.4l-66.7-211.2c-6.8-21.5-2-50.4,13.2-79.1,16.8-31.8,43.1-56.4,68.5-64l226.4-68.3.5,1.7-.5-1.7c18.4-5.6,34-1.8,43.9,10.6,16.7,21,13.4,60.6-8.2,98.4l-159.7,279.5c-21.2,37.1-54.1,61.7-81.5,61.7ZM627.4,329.5c-4.6,0-9.6.8-14.7,2.3l-226.4,68.3c-24.6,7.4-50.1,31.3-66.5,62.3-14.5,27.5-19.3,56-12.9,76.4l66.7,211.2c4.7,14.9,14.4,23.5,28.2,25,27,2.9,61.1-21.7,82.8-59.8l159.7-279.5c20.6-36.1,24.1-75,8.5-94.6-6.2-7.8-15-11.8-25.4-11.8Z"/>
  <path class="cls-1" d="M418.8,801c-.3,0-.7,0-1,0-16.6-.3-29.7-9.5-36.8-25.8l-94.2-215.3c-9.2-21.1-7.2-50.6,5.6-81,15.3-36.4,42.5-65.7,70.9-76.5l244-92.4c20.6-7.8,38.6-4.8,50.6,8.4,19.1,20.9,18.7,62.1-.9,102.6l-149.7,307.7c-20.8,42.8-57,72.3-88.3,72.3ZM607.8,311.6l.6,1.6-244,92.4c-27.6,10.4-54,39-69,74.6-12.4,29.5-14.4,58-5.6,78.3l94.2,215.3c6.7,15.2,18.3,23.4,33.7,23.7,30.3.6,65.7-28.3,86.2-70.4l149.7-307.7c19.1-39.2,19.7-78.8,1.5-98.7-11-12.1-27.7-14.8-46.9-7.5l-.6-1.6Z"/>
  <path class="cls-1" d="M434.8,823.2c-16.8,0-30.8-8.3-39.7-23.7l-125.2-217.2c-11.9-20.6-12.8-50.7-2.6-82.7,13.1-40.8,40.6-75.1,71.9-89.4l261.1-119.2.7,1.6-.7-1.6c22.8-10.4,43.5-8.4,58.2,5.6,22,21,24.8,62.7,7.3,106.1l-135.9,336.4c-19,47-56.6,81.5-91.4,83.9-1.2,0-2.5.1-3.7.1ZM627.8,287.9c-8.1,0-16.9,2.1-26,6.3l-261.1,119.2c-30.4,13.9-57.3,47.3-70.1,87.3-9.9,31-9.1,60.2,2.3,79.9l125.2,217.2c8.9,15.5,22.8,23,40.1,21.8,33.6-2.3,69.9-36,88.4-81.7l135.9-336.4c16.8-41.5,14.2-82.6-6.5-102.3-7.8-7.4-17.4-11.2-28.3-11.2Z"/>
  <path class="cls-1" d="M454.4,845c-16.6,0-31-7.4-41.3-21.3l-159.6-216.2c-14.8-20-18.9-50.7-11.4-84.3,10-44.3,38-84.5,71.4-102.4l277.5-149c24.8-13.3,49-12.6,66.5,2,24.7,20.6,31.2,63.5,16.5,109.1l-117.9,365.3c-16.3,50.4-54.1,90-92.1,96.2-3.3.5-6.5.8-9.6.8ZM591.8,273.3l.8,1.5-277.5,149c-32.6,17.5-59.9,56.8-69.6,100.1-7.3,32.6-3.4,62.3,10.8,81.5l159.6,216.2c11.6,15.7,28,22.3,47.6,19.2,36.7-6,73.4-44.6,89.3-93.8l117.9-365.3c14.3-44.3,8.3-85.7-15.4-105.4-16.6-13.8-38.8-14.4-62.6-1.6l-.8-1.5Z"/>
  <path class="cls-1" d="M477.7,866.2c-16.2,0-30.8-6.4-42.3-18.7l-197.6-212.1c-18-19.3-25.6-50.7-20.9-86,6.4-47.9,33.6-93.1,69.2-115.3l292.7-181.7.9,1.5-.9-1.5c27.1-16.8,54.6-17.8,75.6-2.6,27.7,20,38.2,63.8,26.7,111.4l-95.1,393.8c-12.9,53.4-50.3,98.2-91,108.8-5.9,1.5-11.7,2.3-17.3,2.3ZM580.6,255.3l-292.7,181.7c-34.8,21.6-61.4,65.9-67.6,112.8-4.6,34.3,2.7,64.6,20,83.1l197.6,212.1c14.6,15.6,34.5,21.1,56.2,15.4,39.5-10.4,75.9-54.1,88.5-106.3l95.1-393.8c11.2-46.3,1.2-88.6-25.3-107.8-19.8-14.3-45.9-13.3-71.7,2.7h0Z"/>
  <path class="cls-1" d="M505,886.2c-15.6,0-30.3-5.4-42.6-16l-239.2-204.3c-21.7-18.5-33.1-50.5-31.5-87.7,2.3-51,28-101.1,65.5-127.7l306.4-217.4,1,1.4-1-1.4c29.3-20.8,60.4-23.8,85.4-8.3,31.4,19.5,45.9,62.8,37.9,113l-67.1,421.7c-9,56.7-44.3,105.6-87.9,121.6-9.1,3.4-18.1,5-26.8,5ZM614.5,218.6c-15.9,0-32.8,5.9-49.1,17.4l-306.4,217.4c-36.6,26-61.8,75.1-64,125-1.6,36.1,9.4,67.1,30.3,84.9l239.2,204.3c18.3,15.6,41.7,19.3,66,10.3,42.4-15.6,76.8-63.4,85.6-118.9l67.1-421.7c7.8-48.8-6.2-90.7-36.3-109.5-10-6.2-21-9.3-32.5-9.3Z"/>
  <path class="cls-1" d="M536.5,904.7c-14.9,0-29.2-4.4-42.1-13.1l-284.6-192.3c-25.9-17.5-41.7-50.1-43.3-89.5-2.2-53.5,21.3-108.2,60.1-139.4l318.1-256.1c31.4-25.2,66.3-30.8,96-15.2,34.9,18.4,54.2,61.9,50.4,113.7l-33.5,448.4c-4.4,58.5-37.5,112.4-82.4,134.1-12.9,6.3-25.9,9.4-38.5,9.4ZM545.7,215.8l1.1,1.3L228.7,473.2c-37.9,30.5-61,84.1-58.8,136.5,1.6,38.3,16.8,69.9,41.8,86.8l284.6,192.3c22.7,15.3,50.1,16.6,77.2,3.5,43.9-21.2,76.2-74,80.5-131.3l33.5-448.4c3.8-50.4-14.8-92.6-48.5-110.3-28.3-14.9-61.9-9.5-92.2,14.9l-1.1-1.3Z"/>
  <path class="cls-1" d="M572.4,921.4c-13.9,0-27.6-3.4-40.5-10.2l-333.6-175.5c-30.7-16.2-51.4-49.4-56.7-91.3-7.1-55.4,13.8-114.3,53.2-150.1l327.3-297.7c33.2-30.2,72.2-38.8,107.1-23.7,38.8,16.8,63.3,60.3,64.1,113.4l6.4,473.2c.8,60.4-28.4,117.7-74.5,146-17.2,10.5-35.1,15.9-52.5,15.9ZM523.1,197.8l1.2,1.3L197,496.8c-38.6,35.1-59,92.8-52.1,147.1,5.2,40.7,25.2,73.1,54.9,88.7l333.6,175.5c27.9,14.7,59.8,12.7,89.6-5.6,45.1-27.6,73.7-83.8,72.9-143l-6.4-473.2c-.7-51.7-24.4-94-62-110.3-33.6-14.6-71.2-6.2-103.4,23l-1.2-1.3Z"/>
  <path class="cls-1" d="M612.4,935.4c-12.6,0-25.1-2.4-37.2-7.1l-386.3-153.5c-36.3-14.4-62.6-48.3-72.1-93-12.3-57.6,4.9-118.8,44.9-159.8L495.1,179.8c34.1-35,78.4-47.6,118.5-33.7,43.7,15.1,73.3,57,79.2,112.1l52.9,495.7c6.5,60.8-18.7,122.3-64.1,156.8-21.5,16.3-45.5,24.7-69.3,24.7ZM496.3,181l1.2,1.2-333.4,342.2c-39.1,40.2-56,100.2-43.9,156.6,9.3,43.5,34.8,76.5,70,90.5l386.3,153.5c33.6,13.3,71.2,7.1,103-17.1,44.5-33.8,69.1-94.1,62.7-153.7l-52.9-495.7c-5.7-53.7-34.5-94.6-76.9-109.2-38.8-13.4-81.8-1.1-114.9,32.9l-1.2-1.2Z"/>
  <path class="cls-1" d="M657.1,946.6c-10.8,0-21.6-1.5-32.2-4.5l-442.5-125.5c-42.7-12.1-75.5-46.5-89.8-94.3-17.5-58.3-4-122.7,35.2-168.1L463.8,164.7c35-40.6,83.6-57.6,130-45.6,48.6,12.6,84.5,53.6,96.1,109.7l106.5,514.9c12.7,61.4-6.9,125-51.2,166.2-25.9,24.1-56.8,36.7-88.2,36.7ZM465.1,165.8l1.3,1.1-335.9,389.4c-38.4,44.6-51.7,107.8-34.5,164.9,14,46.7,45.9,80.2,87.4,92l442.5,125.5c40.6,11.5,83.3,0,117.1-31.4,43.4-40.3,62.6-102.8,50.1-163l-106.5-514.9c-11.3-54.7-46.3-94.7-93.5-107-45.1-11.7-92.4,4.9-126.6,44.5l-1.3-1.1Z"/>
  <path class="cls-1" d="M706.1,954.3c-8.3,0-16.6-.7-25-2.3l-501.9-91c-50.1-9.1-90.2-43.7-110.1-94.9-22.7-58.4-13.3-125.5,24.5-175.2L427.7,151.8l1.4,1-1.4-1c35.3-46.4,88.1-68.6,141.2-59.4,54,9.4,96.9,48.9,114.9,105.8l167.8,530.2c19.1,60.4,5.3,127.1-36,174-29.7,33.7-68.6,51.9-109.4,51.9ZM545.2,93.8c-43.7,0-85.4,21.5-114.7,60L96.3,593.1c-37.1,48.7-46.3,114.6-24,171.8,19.5,50.1,58.7,83.9,107.5,92.8l501.9,91c48.5,8.8,96.3-8.9,131.2-48.5,40.5-46,54.1-111.5,35.3-170.7l-167.8-530.2c-17.6-55.6-59.5-94.3-112.2-103.4-7.7-1.3-15.5-2-23.1-2Z"/>
  <path class="cls-1" d="M758.4,958c-4.7,0-9.4-.2-14.1-.6l-564.4-49.4c-57.6-5-107.5-40.4-133.5-94.5-28.3-58.9-23.5-126.4,12.7-180.8L386.4,141.5l1.4,1-1.4-1c34.8-52.2,91.4-80.3,151.5-75,60,5.3,110.9,42.7,136.1,100.2l237,540.6c26.2,59.8,19.2,127.2-18.9,180.3-32.1,44.8-81.4,70.5-133.8,70.5ZM523.6,69.3c-53.5,0-102.9,27-134.3,74.1L62,634.6c-35.5,53.3-40.2,119.6-12.5,177.4,25.5,53,74.3,87.6,130.7,92.5l564.4,49.4c56.4,4.9,110.5-20.6,144.8-68.4,37.3-52,44.3-118.2,18.5-176.8l-237-540.6c-24.7-56.3-74.5-93-133.3-98.1-4.7-.4-9.3-.6-14-.6Z"/>
  <path class="cls-1" d="M814.7,957.1H185.3c-66.9,0-126.8-34.6-160.2-92.5-33.4-57.9-33.4-127.1,0-185L339.8,134.5c33.4-57.9,93.3-92.5,160.2-92.5s0,0,0,0c66.9,0,126.8,34.6,160.2,92.5l314.7,545.1c33.4,57.9,33.4,127.1,0,185-33.4,57.9-93.3,92.5-160.2,92.5ZM341.3,135.4l1.5.9L28.1,681.4c-32.8,56.8-32.8,124.7,0,181.5,32.8,56.8,91.6,90.8,157.2,90.8h629.5c65.6,0,124.4-33.9,157.2-90.8,32.8-56.8,32.8-124.7,0-181.5L657.2,136.3c-32.8-56.8-91.6-90.8-157.2-90.8-65.6,0-124.4,33.9-157.2,90.8l-1.5-.9Z"/>
</svg>