<?xml version="1.0" encoding="UTF-8"?>
<svg id="object" xmlns="http://www.w3.org/2000/svg" version="1.1" viewBox="0 0 1000 1000">
  <defs>
    <style>
      .cls-1 {
        fill: #000;
        stroke-width: 0px;
      }
    </style>
  </defs>
  <path class="cls-1" d="M572.2,550.5l-151.9-19.8,17.7-161.7,134.2,181.5ZM423.1,528.6l143.7,18.7-127-171.8-16.8,153Z"/>
  <path class="cls-1" d="M574.8,555.1l-160.5-26.1,24.8-167.5,135.7,193.6ZM417,527l152.3,24.8-128.8-183.7-23.5,158.9Z"/>
  <path class="cls-1" d="M577.3,560l-169.5-33,32.5-173.2,136.9,206.2ZM410.7,525.1l161.3,31.4-130.3-196.2-31,164.8Z"/>
  <path class="cls-1" d="M579.8,565.2l-178.7-40.4,41-178.9,137.8,219.3ZM404.1,522.9l170.5,38.6-131.4-209.3-39.1,170.7Z"/>
  <path class="cls-1" d="M582.3,570.7l-188.3-48.5,50.1-184.5,138.2,233.1ZM397.1,520.4l180.1,46.4-132.1-222.9-48,176.5Z"/>
  <path class="cls-1" d="M584.7,576.5l-198.2-57.3,60.1-190.1,138.1,247.4ZM389.7,517.5l190,54.9-132.3-237.1-57.6,182.2Z"/>
  <path class="cls-1" d="M587.1,582.6l-208.3-66.8,70.9-195.5,137.5,262.3ZM382,514.3l200.1,64.2-132.1-252-68.1,187.8Z"/>
  <path class="cls-1" d="M589.4,589.1l-218.8-77,82.5-200.7,136.3,277.7ZM373.9,510.6l210.6,74.1-131.2-267.4-79.4,193.2Z"/>
  <path class="cls-1" d="M591.6,595.9l-229.5-88,95.1-205.8,134.4,293.8ZM365.5,506.5l221.4,84.9-129.7-283.4-91.7,198.5Z"/>
  <path class="cls-1" d="M593.7,603l-240.5-99.9,108.6-210.5,131.9,310.5ZM356.6,501.9l232.5,96.6-127.5-300-105,203.5Z"/>
  <path class="cls-1" d="M595.7,610.5l-251.8-112.7,123.2-215,128.6,327.7ZM347.4,496.7l243.8,109.1-124.5-317.3-119.3,208.2Z"/>
  <path class="cls-1" d="M597.5,618.4l-263.3-126.3,138.9-219.2.9,2.4,123.6,343.2ZM337.8,491.1l255.4,122.5-120.7-335.1-134.7,212.6Z"/>
  <path class="cls-1" d="M599.2,626.7l-275-141,155.7-223,119.4,364ZM327.8,484.8l267.2,136.9-116-353.5-151.2,216.6Z"/>
  <path class="cls-1" d="M600.6,635.4l-287-156.6.9-1.1,172.8-225.2,113.3,382.9ZM317.4,478l279.2,152.4-110.3-372.5-168.9,220.2Z"/>
  <path class="cls-1" d="M601.8,644.5l-299.1-173.4,192.9-229.1,106.2,402.5ZM306.5,470.4l291.4,168.9-103.5-392.1-187.9,223.2Z"/>
  <path class="cls-1" d="M602.8,654l-311.3-191.2,213.4-231.3.5,2.3,97.4,420.3ZM295.3,462.2l303.7,186.6-95.5-412.3-208.2,225.7Z"/>
  <path class="cls-1" d="M603.5,663.9l-323.7-210.3,235.3-232.9,88.3,443.2ZM283.7,453.2l316.2,205.4-86.3-432.9-229.9,227.5Z"/>
  <path class="cls-1" d="M603.8,674.2l-336.1-230.5,258.7-233.8,77.4,464.3ZM271.7,443.4l328.8,225.5-75.7-454.1-253,228.7Z"/>
  <path class="cls-1" d="M603.8,685l-348.6-252,283.6-233.8,65,485.9ZM259.2,432.8l341.4,246.8-63.7-475.8-277.7,229Z"/>
  <path class="cls-1" d="M603.4,696.2L242.3,421.3l310-233,51.1,507.9ZM246.4,421.3l354,269.5-50.1-497.9-303.9,228.4Z"/>
  <path class="cls-1" d="M602.6,707.9L229.1,408.7l338.1-231.2,35.4,530.3ZM233.2,408.9l366.5,293.6-34.8-520.4-331.7,226.8Z"/>
  <path class="cls-1" d="M601.2,720L215.4,395.1l367.8-228.3v2.1c0,0,18,551,18,551ZM219.6,395.4l378.9,319.1-17.6-543.3-361.3,224.2Z"/>
  <path class="cls-1" d="M599.4,732.5L201.4,380.5l399.4-224.1-1.4,576.2ZM205.7,380.9l391.2,346.1,1.4-566.5-392.6,220.4Z"/>
  <path class="cls-1" d="M597,745.5L187.1,364.7l432.7-218.7v2.1c0,0-22.9,597.4-22.9,597.4ZM191.4,365.3l403.3,374.7,22.5-590-425.8,215.2Z"/>
  <path class="cls-1" d="M593.9,759L172.5,347.8l468-211.9-46.6,623ZM176.8,348.6l415,404.9,45.9-613.6-460.9,208.7Z"/>
  <path class="cls-1" d="M590.2,772.8L157.6,329.7l505.2-203.5-.2,2.1-72.4,644.6ZM161.9,330.6l426.4,436.8,71.6-637.4-498,200.6Z"/>
  <path class="cls-1" d="M585.7,787.2L142.4,310.3,686.9,116.8l-101.2,670.3ZM146.7,311.3l437.3,470.4,99.8-661.2L146.7,311.3Z"/>
  <path class="cls-1" d="M580.4,801.9L126.9,289.5,712.8,108l-.4,2-132,691.9ZM131.3,290.7l447.6,505.8L709.6,111.6,131.3,290.7Z"/>
  <path class="cls-1" d="M574.2,817L111.3,267.3,740.7,99.7l-.5,2-166,715.3ZM115.7,268.7l457.2,543L737.4,103.2,115.7,268.7Z"/>
  <path class="cls-1" d="M567.1,832.6l-1.5-1.9L95.5,243.7,770.7,92.1l-203.6,740.5ZM99.9,245.2l466.1,582.1L767.2,95.5,99.9,245.2Z"/>
  <path class="cls-1" d="M558.9,848.5L79.5,218.5,802.8,85.3l-.6,2-243.2,761.2ZM83.9,220.2l474.1,623.1L799.2,88.5,83.9,220.2Z"/>
  <path class="cls-1" d="M549.7,864.8L63.5,191.7l773.7-112.3-287.5,785.4ZM67.9,193.5l481,666.1L833.5,82.4,67.9,193.5Z"/>
  <path class="cls-1" d="M539.3,881.4L47.5,163.2l2.1-.2,824.5-88.5-.8,1.9-334,805.1ZM51.9,165.2l486.8,711.1L870.2,77.3,51.9,165.2Z"/>
  <path class="cls-1" d="M527.6,898.4L31.5,133l881.8-62.3-385.8,827.7ZM35.9,135.1l491.3,758.1L909.3,73.4,35.9,135.1Z"/>
  <path class="cls-1" d="M514.5,915.6L15.7,100.9l939.6-32.8-440.8,847.5ZM20,103.2l494.3,807.3L951.2,70.7,20,103.2Z"/>
  <path class="cls-1" d="M500,933L0,67h1000s-500,866-500,866ZM4.3,69.5l495.7,858.6L995.7,69.5H4.3Z"/>
</svg>