<?xml version="1.0" encoding="UTF-8"?>
<svg id="object" xmlns="http://www.w3.org/2000/svg" version="1.1" viewBox="0 0 1000 1000">
  <defs>
    <style>
      .cls-1 {
        fill: #000;
        stroke-width: 0px;
      }
    </style>
  </defs>
  <path class="cls-1" d="M644.8,781.8c-.1,0-.3,0-.4,0l-432.9-151.5c-.3-.1-.5-.3-.7-.6-.1-.3-.2-.6,0-.9l143.4-409.6c.2-.6.9-.9,1.5-.7l432.9,151.5c.3.1.5.3.7.6.1.3.2.6,0,.9l-143.4,409.6c-.2.5-.6.8-1.1.8ZM213.4,628.3l430.7,150.7,142.6-407.3-430.7-150.7-142.6,407.3Z"/>
  <path class="cls-1" d="M639.1,795.5c-.1,0-.3,0-.4,0l-440.6-171.7c-.3-.1-.5-.3-.7-.6-.1-.3-.1-.6,0-.9l162.4-416.8c.2-.6.9-.9,1.5-.7l440.6,171.7c.6.2.9.9.7,1.5l-162.4,416.8c-.1.3-.3.5-.6.7-.2,0-.3.1-.5.1ZM200,621.9l438.4,170.8,161.6-414.6-438.4-170.8-161.6,414.6Z"/>
  <path class="cls-1" d="M632.7,809.4c-.2,0-.3,0-.5,0l-447.8-192.7c-.3-.1-.5-.4-.6-.7-.1-.3-.1-.6,0-.9l182.4-423.6c.1-.3.4-.5.7-.6.3-.1.6-.1.9,0l447.8,192.7c.6.3.9,1,.6,1.6l-182.4,423.6c-.2.4-.6.7-1.1.7ZM186.5,614.8l445.6,191.8,181.4-421.4-445.6-191.8-181.4,421.4Z"/>
  <path class="cls-1" d="M625.6,823.5c-.2,0-.3,0-.5-.1l-454.4-214.7c-.6-.3-.8-1-.6-1.6l203.1-429.9c.1-.3.4-.5.7-.6.3-.1.6,0,.9,0l454.4,214.7c.6.3.8,1,.6,1.6l-203.1,429.9c-.1.3-.4.5-.7.6-.1,0-.3,0-.4,0ZM172.8,607l452.3,213.7,202.1-427.8-452.3-213.7-202.1,427.8Z"/>
  <path class="cls-1" d="M617.9,837.8c-.2,0-.4,0-.5-.1l-460.5-237.6c-.3-.1-.5-.4-.6-.7,0-.3,0-.6,0-.9l224.7-435.6c.1-.3.4-.5.7-.6.3,0,.6,0,.9,0l460.5,237.6c.6.3.8,1,.5,1.6l-224.7,435.6c-.2.4-.6.6-1.1.6ZM159,598.5l458.3,236.5,223.7-433.5-458.3-236.5-223.7,433.5Z"/>
  <path class="cls-1" d="M609.3,852.2c-.2,0-.4,0-.6-.2l-465.9-261.3c-.6-.3-.8-1-.5-1.6l247.2-440.7c.2-.3.4-.5.7-.6.3,0,.6,0,.9.1l465.9,261.3c.6.3.8,1,.5,1.6l-247.2,440.7c-.2.3-.4.5-.7.6-.1,0-.2,0-.3,0ZM145.1,589.3l463.8,260.2,246.1-438.7L391.1,150.6l-246.1,438.7Z"/>
  <path class="cls-1" d="M600,866.8c-.2,0-.4,0-.6-.2l-470.6-286c-.3-.2-.5-.4-.5-.7,0-.3,0-.6.1-.9L399,133.8c.3-.6,1.1-.7,1.6-.4l470.6,286c.6.3.7,1.1.4,1.6l-270.6,445.2c-.2.4-.6.6-1,.6ZM131.1,579.2l468.5,284.8,269.3-443.2L400.4,136l-269.3,443.2Z"/>
  <path class="cls-1" d="M589.9,881.5c-.2,0-.5,0-.7-.2L114.7,569.7c-.3-.2-.4-.4-.5-.8,0-.3,0-.6.2-.9L409.1,119.1c.4-.5,1.1-.7,1.6-.3l474.5,311.6c.3.2.4.4.5.8,0,.3,0,.6-.2.9l-294.8,448.9c-.2.3-.6.5-1,.5ZM117,568.3l472.6,310.3,293.5-447L410.5,121.4,117,568.3Z"/>
  <path class="cls-1" d="M578.9,896.2c-.2,0-.5,0-.7-.2L100.5,557.9c-.3-.2-.4-.5-.5-.8,0-.3,0-.6.2-.9L420.1,104.3c.4-.5,1.1-.7,1.7-.3l477.7,338.1c.3.2.4.5.5.8,0,.3,0,.6-.2.9l-319.9,451.9c-.2.3-.5.4-.8.5,0,0-.1,0-.2,0ZM102.9,556.6l475.8,336.7,318.5-450L421.4,106.6,102.9,556.6Z"/>
  <path class="cls-1" d="M567.1,911c-.3,0-.5,0-.7-.2L86.4,545.2c-.3-.2-.4-.5-.5-.8,0-.3,0-.6.2-.9L432,89.4c.4-.5,1.1-.6,1.7-.2l480,365.5c.5.4.6,1.1.2,1.7l-345.8,454.1c-.2.3-.5.4-.8.5,0,0-.1,0-.2,0ZM88.7,544.1l478.1,364.1,344.4-452.2L433.1,91.8,88.7,544.1Z"/>
  <path class="cls-1" d="M554.4,925.9c-.3,0-.5,0-.8-.3L72.2,531.7c-.5-.4-.6-1.2-.2-1.7L444.7,74.6c.2-.2.5-.4.8-.4.3,0,.6,0,.9.3l481.4,393.9c.5.4.6,1.2.2,1.7l-372.6,455.4c-.2.2-.5.4-.8.4,0,0,0,0-.1,0ZM74.6,530.6l479.6,392.4,371.1-453.6L445.8,77,74.6,530.6Z"/>
  <path class="cls-1" d="M540.8,940.7c-.3,0-.6-.1-.8-.3L58.1,517.2c-.5-.4-.5-1.2-.1-1.7L458.4,59.7c.2-.2.5-.4.8-.4.3,0,.6,0,.9.3l481.8,423.1c.2.2.4.5.4.8,0,.3,0,.6-.3.9l-400.3,455.8c-.2.2-.5.4-.8.4,0,0,0,0,0,0ZM60.6,516.2l480,421.6,398.7-454.1L459.4,62.2,60.6,516.2Z"/>
  <path class="cls-1" d="M526.2,955.5c-.3,0-.6-.1-.8-.3L44.2,501.8c-.5-.5-.5-1.2,0-1.7L473,44.9c.2-.2.5-.4.8-.4.3,0,.6.1.9.3l481.2,453.3c.2.2.4.5.4.8,0,.3-.1.6-.3.9l-428.8,455.2c-.2.2-.5.4-.8.4,0,0,0,0,0,0ZM46.7,500.9l479.5,451.7,427.2-453.5L473.9,47.4,46.7,500.9Z"/>
  <path class="cls-1" d="M510.6,970.2c-.3,0-.6-.1-.8-.4L30.3,485.5c-.5-.5-.5-1.2,0-1.7L488.5,30.2c.2-.2.4-.3.8-.3.3,0,.6.1.8.4l479.5,484.4c.5.5.5,1.2,0,1.7l-458.2,453.6c-.2.2-.5.3-.8.3ZM32.8,484.6l477.8,482.7,456.5-451.9L489.4,32.7,32.8,484.6Z"/>
  <path class="cls-1" d="M494.1,984.8c-.3,0-.6-.1-.9-.4L16.6,468.1c-.2-.2-.3-.5-.3-.9,0-.3.1-.6.4-.8L505.1,15.6c.2-.2.6-.3.9-.3.3,0,.6.1.8.4l476.6,516.3c.4.5.4,1.2,0,1.7l-488.4,450.9c-.2.2-.5.3-.8.3ZM19.2,467.4l475,514.5,486.7-449.3L505.9,18.1,19.2,467.4Z"/>
  <path class="cls-1" d="M476.5,999.2c-.3,0-.7-.1-.9-.4L3.2,449.7c-.2-.2-.3-.5-.3-.9,0-.3.2-.6.4-.8L522.7,1.1c.5-.4,1.2-.4,1.7.1l472.4,549.1c.2.2.3.6.3.9,0,.3-.2.6-.4.8l-519.4,447c-.2.2-.5.3-.8.3ZM5.7,449.1l470.9,547.3,517.6-445.4L523.4,3.7,5.7,449.1Z"/>
</svg>