<?xml version="1.0" encoding="UTF-8"?>
<svg id="Layer_1_copy" data-name="Layer 1 copy" xmlns="http://www.w3.org/2000/svg" version="1.1" viewBox="0 0 230.6 139.4">
  <defs>
    <style>
      .cls-1 {
        fill: #fdd110;
      }

      .cls-1, .cls-2 {
        stroke-width: 0px;
      }

      .cls-2 {
        fill: #fff;
      }
    </style>
  </defs>
  <g>
    <path class="cls-2" d="M39.9.5v26.1c0,10.9-7.6,18.3-18.9,18.3S1.9,37.5,1.9,26.5V.5h11.5v27.1c0,4.3,3,7.2,7.5,7.2s7.3-2.8,7.3-7.1V.5h11.6M40.4,0h-12.6v27.7c0,4.3-2.9,6.6-6.8,6.6s-7-2.4-7-6.7V0H1.4v26.5c0,11,7.8,18.9,19.5,18.9s19.4-7.8,19.4-18.8V0h0Z"/>
    <path class="cls-2" d="M67.7.5c8.9,0,14.8,5.6,14.8,14s-6,14-14.8,14h-8.6v15.7h-11.5V.5h20.2M59,20.4h6.2c4,0,5.9-3.1,5.9-6s-1.8-5.9-5.9-5.9h-6.2v11.9M67.7,0h-20.7v44.6h12.5v-15.7h8.1c8.6,0,15.3-5.4,15.3-14.5S76.3,0,67.7,0h0ZM59.5,19.9v-10.9h5.7c2.8,0,5.4,1.8,5.4,5.4s-2.6,5.5-5.4,5.5h-5.7Z"/>
    <path class="cls-2" d="M34.8,47.5v9.4H14.3v9h19.5v9.4H14.3v15.8H2.8v-43.6h32M35.3,47H2.3v44.6h12.5v-15.8h19.5v-10.4H14.8v-8h20.5v-10.4h0Z"/>
    <path class="cls-2" d="M111.4,47.5c9.1,0,15.2,5.2,15.2,12.9s-3.7,10.4-9.8,12.1l-.7.2.4.6,12.5,17.8h-13l-11.2-17.6v-.2h-1.1v17.8h-11.5v-43.6h19.2M103.7,65.7h5.7c3.6,0,5.8-1.9,5.8-5.1s-2.2-5.1-5.8-5.1h-5.7v10.1M111.4,47h-19.7v44.6h12.5v-17.8h.2l11.3,17.8h14.2l-13-18.6c6.3-1.8,10.2-6.4,10.2-12.6s-6.5-13.4-15.7-13.4h0ZM104.2,65.2v-9.1h5.2c3.4,0,5.3,1.8,5.3,4.6s-1.8,4.6-5.3,4.6h-5.2Z"/>
    <path class="cls-2" d="M24.8,93.8c7.6,0,14.3,2.7,18.4,7.4l-7.8,7.8c-3.3-3.6-6.5-5.1-10.9-5.1-7.2,0-12.4,5.2-12.4,12.5s4.9,12.6,12.2,12.6,8.4-2.1,10-6l.3-.7h-.7s-10.7-.3-10.7-.3v-9h23.7v1.4c0,15.2-8.7,24.7-22.7,24.7S.5,129.2.5,116.3s2.5-12,7.1-16.1c4.5-4.1,10.6-6.4,17.2-6.4M24.8,93.3C11.1,93.3,0,103.1,0,116.3s10.4,23.1,24.2,23.1,23.2-9.1,23.2-25.2v-1.9h-24.7v10l11.2.3c-1.5,3.6-4.8,5.7-9.5,5.7-7,0-11.7-4.8-11.7-12.1s5.3-12,11.9-12,7.7,1.8,10.8,5.3l8.5-8.5c-4.1-4.8-10.8-7.9-19.1-7.9h0Z"/>
    <path class="cls-2" d="M71.9,94.5c9.1,0,15.2,5.2,15.2,12.9s-3.7,10.4-9.8,12.1l-.7.2.4.6,12.5,17.8h-13l-11.2-17.6v-.2h-1.1v17.8h-11.5v-43.6h19.2M64.2,112.7h5.7c3.6,0,5.8-1.9,5.8-5.1s-2.2-5.1-5.8-5.1h-5.7v10.1M71.9,94h-19.7v44.6h12.5v-17.8h.2l11.3,17.8h14.2l-13-18.6c6.3-1.8,10.2-6.4,10.2-12.6s-6.5-13.4-15.7-13.4h0ZM64.7,112.2v-9.1h5.2c3.4,0,5.3,1.8,5.3,4.6s-1.8,4.6-5.3,4.6h-5.2Z"/>
    <path class="cls-2" d="M118.4,94.5l16.4,43.6h-11.9l-2.3-7.2v-.3h-16.6v.3c-.1,0-2.5,7.2-2.5,7.2h-11.7l16.6-43.6h12.1M106.9,121.8h10.6l-.2-.7-4.5-13.8-.5-1.4-.5,1.4-4.7,13.8-.2.7M118.7,94h-12.8l-17,44.6h12.8l2.5-7.5h15.8l2.4,7.5h13l-16.8-44.6h0ZM107.6,121.3l4.7-13.8,4.5,13.8h-9.2Z"/>
    <path class="cls-2" d="M160.4,94.5c7.8,0,13,4.6,13,11.3s-1.7,6.8-4.9,8.6l-.8.5.8.4c3.9,2.1,6.1,5.7,6.1,10.1,0,7.6-6,12.7-15,12.7h-20v-43.6h20.8M150.9,111.8h6c3.2,0,5.1-1.8,5.1-4.6s-1.9-4.6-5.1-4.6h-6v9.3M150.9,130.1h6.6c3.5,0,5.8-2.1,5.8-5.3s-2.3-5.3-5.8-5.3h-6.6v10.6M160.4,94h-21.3v44.6h20.5c9.3,0,15.5-5.4,15.5-13.2s-2.2-8.4-6.3-10.6c3.4-1.9,5.1-5.1,5.1-9,0-6.9-5.4-11.8-13.5-11.8h0ZM151.4,111.3v-8.3h5.5c2.7,0,4.6,1.3,4.6,4.1s-2,4.1-4.6,4.1h-5.5ZM151.4,129.6v-9.6h6.1c3.2,0,5.3,1.8,5.3,4.8s-2.1,4.8-5.3,4.8h-6.1Z"/>
    <path class="cls-2" d="M196.1,93.8c6.3,0,12,2,15.7,5.6l-7.2,7.1c-2.8-2.6-5.4-3.7-8.6-3.7s-4.8,1.9-4.8,3c0,2.7,3.3,3.8,7.1,5.1,6.1,2.1,13.6,4.7,13.6,14.2s-6.6,13.8-18,13.8-12.4-1.9-17-6.5l7.1-7.1c3.3,3.1,6.9,4.6,10.9,4.6s5.7-2.4,5.7-3.4c0-2.9-3.4-4.1-7.4-5.5-5.9-2.1-13.4-4.7-13.4-13.8s6.2-13.4,16.2-13.4M196.1,93.3c-10.1,0-16.7,5.3-16.7,13.9,0,15.4,20.7,12.8,20.7,19.2s-1.8,2.9-5.2,2.9-7.6-1.6-10.9-4.8l-7.8,7.8c4.8,4.8,10.1,7,17.7,7,11.8,0,18.5-5.2,18.5-14.3,0-15.9-20.7-13.2-20.7-19.3s1.6-2.5,4.3-2.5,5.9,1.3,8.6,3.9l7.9-7.8c-3.8-3.9-9.8-6.1-16.4-6.1h0Z"/>
  </g>
  <circle class="cls-1" cx="63.6" cy="69.3" r="23.2"/>
  <circle class="cls-1" cx="223.7" cy="132.5" r="6.9"/>
</svg>