<?xml version="1.0" encoding="UTF-8"?>
<svg id="Layer_1_copy" data-name="Layer 1 copy" xmlns="http://www.w3.org/2000/svg" version="1.1" viewBox="0 0 308.7 139.4">
  <defs>
    <style>
      .cls-1, .cls-2, .cls-3, .cls-4 {
        stroke-width: 0px;
      }

      .cls-1, .cls-3 {
        fill: #fdd110;
      }

      .cls-2 {
        fill: #000;
      }

      .cls-3, .cls-5 {
        display: none;
      }

      .cls-4 {
        fill: #fff;
      }
    </style>
  </defs>
  <g class="cls-5">
    <path class="cls-2" d="M0,25.6V0h14.9v23.9c0,3.7,1.9,6,5.5,6s5.4-2.2,5.4-6.1V0h14.9v25.6c0,10.2-7.5,17.9-20.2,17.9S0,36.7,0,25.6Z"/>
    <path class="cls-2" d="M46.6,0h19.3c10.4,0,17.8,5.1,17.8,15.3s-7.5,15.7-17.2,15.7h-5.1v11.4h-14.8s0-42.4,0-42.4ZM66.3,19.7c2,0,3.6-1.7,3.6-4.2s-1.5-3.8-3.6-3.8h-4.9v8.1h4.9Z"/>
    <path class="cls-2" d="M.5,47.9h31.7v11.9H15.4v5.7h14.4v10.6h-14.4v14.1H.5v-42.4h0Z"/>
    <path class="cls-2" d="M86.2,47.9h19.8c10.6,0,17.9,5,17.9,15.1s-2.7,9.5-6.6,11.7l7.6,15.6h-15.7l-5.3-13h-2.9v13h-14.8s0-42.4,0-42.4ZM106,67.1c2.1,0,3.6-1.5,3.6-3.8s-1.5-3.6-3.6-3.6h-5v7.4h5Z"/>
    <path class="cls-2" d="M.5,95.8h31.7v11.9H15.4v5.7h14.4v10.6h-14.4v14.1H.5v-42.4h0Z"/>
    <path class="cls-2" d="M36.9,95.8h19.8c10.6,0,17.9,5,17.9,15.1s-2.7,9.5-6.6,11.7l7.6,15.6h-15.7l-5.3-13h-2.9v13h-14.8s0-42.4,0-42.4ZM56.7,115c2.1,0,3.6-1.5,3.6-3.8s-1.5-3.6-3.6-3.6h-5v7.4h5Z"/>
    <path class="cls-2" d="M105.6,133.4h-13l-1.4,4.8h-15.3l14.7-42.5h16.9l14.7,42.5h-15.2s-1.4-4.8-1.4-4.8ZM102.4,122.7l-3-9.9-.3-1.7h-.2l-.3,1.7-2.9,9.9h6.7Z"/>
    <path class="cls-2" d="M125.4,95.8h20.8c10.2,0,15.8,4.1,15.8,12s-2.3,7.1-4.7,8c3.7,1.4,7,4.9,7,9.6,0,9.9-8.1,12.9-16.3,12.9h-22.6v-42.4h0ZM145.4,112.5c1.6,0,2.6-1.2,2.6-2.9s-1-2.7-2.6-2.7h-5.2v5.6h5.3-.1ZM146.3,127.5c2,0,3.2-1.2,3.2-3.3s-1.2-3.1-3.2-3.1h-6.1v6.3h6.1Z"/>
    <path class="cls-2" d="M166.5,124.5h14c0,2.2,1.6,3.6,5,3.6s4.6-.9,4.6-2.7-1.9-2.5-7-3.6c-9-1.6-15.8-4.7-15.8-13.7s6.6-13.4,18.1-13.4,17.9,5.7,17.9,14.4h-13.9c0-1.3-.7-2.9-4.3-2.9s-3.7,1.2-3.7,2.2c0,1.7,1.7,2.4,8.1,3.4,10.3,1.5,15.1,5.8,15.1,13.6s-7.9,14-18.7,14-19.4-7.7-19.4-14.9h0Z"/>
  </g>
  <circle class="cls-3" cx="58.4" cy="69.1" r="23.2"/>
  <g>
    <path class="cls-4" d="M3.1,35.7C.5,30.7,0,24.4,0,10.7V0h15.5v19.9c0,5.4,1.2,12.3,13.3,12.3s12.9-6.9,12.9-12.3V0h15.5v10.7c0,13.7-.5,20-3.1,25-3.6,6.9-13.4,8.7-25.4,8.7s-22.1-1.8-25.7-8.7h.1Z"/>
    <path class="cls-4" d="M91.9,0c4.2,0,19.1.6,19.1,17s-14,18.4-18.6,18.4h-16.9v9h-14.7V0h31.1ZM97.2,17.5c0-4.3-4-4.4-6.1-4.4h-15.7v9.2h16c2.3,0,5.8-.5,5.8-4.8Z"/>
    <path class="cls-4" d="M47.5,47.4v13.5H14.7v4.3h25.7v13H14.7v13.6H0v-44.4h47.5Z"/>
    <g class="cls-5">
      <path class="cls-4" d="M176.8,69.4c0,17.2-21,22.6-65.2,22.6s-64-7.6-64-23.4,20.5-21.8,63.2-21.8,66.1,5,66.1,22.6h0ZM142.1,69.4c0-7.4-12.7-11-30.5-11s-29.2,4.1-29.2,11,9.3,11,29.6,11,30.1-3.4,30.1-11Z"/>
    </g>
    <path class="cls-4" d="M212.9,47.4c4.2,0,19.1.6,19.1,16.3s-3.8,12.6-8.1,15l9.1,13.1h-17l-7.5-10.5h-13.4v10.5h-14.7v-44.4h32.6-.1ZM217,64.2c0-3.7-3.8-3.8-5.7-3.8h-16.3v8h16.5c2.1,0,5.5-.4,5.5-4.1h0Z"/>
    <path class="cls-4" d="M60.3,113.2v26h-11.8v-4.6c-3.5,3-7.6,4.8-18.3,4.8-22.9,0-30.2-9.1-30.2-22s13.7-23,29.8-23,24.8,4.6,28.7,12.6l-13.7,4.6c-1.7-2.5-5.8-4.6-15.1-4.6s-15,4.4-15,10.5,2.3,9.7,15,9.7,10.9-1.8,12.7-3.6h-18.2v-10.4h36.1Z"/>
    <path class="cls-4" d="M96.3,94.8c4.2,0,19.1.6,19.1,16.3s-3.8,12.6-8.1,15l9.1,13.1h-17l-7.5-10.5h-13.4v10.5h-14.7v-44.4h32.6,0ZM100.5,111.6c0-3.7-3.8-3.8-5.7-3.8h-16.3v8h16.5c2.1,0,5.5-.4,5.5-4.1h0Z"/>
    <path class="cls-4" d="M177.8,139.2h-17.1l-3.3-7.4h-21.9l-3.3,7.4h-17l19.9-44.2h22.9l19.9,44.2h0ZM152.2,119l-5.7-11.6-5.7,11.6h11.4Z"/>
    <path class="cls-4" d="M216.6,139.2h-36.7v-44.3h31.5c12.1,0,16.1,4,16.1,11.1s-1.3,7.1-3.1,8.6c3.2,1,7.2,4,7.2,12.2s-3,12.4-15.2,12.4h.2ZM194.7,111.4h16.6c1.2,0,2.1-1,2.1-2.1s-1-2.1-2.1-2.1h-16.6v4.3h0ZM218.5,124.8c0-1.2-1-2.2-2.2-2.2h-21.6v4.4h21.6c1.2,0,2.2-1,2.2-2.2Z"/>
    <path class="cls-4" d="M289.7,111h-15.7c0-2.3-.9-3.6-12.5-3.6s-12.2.5-12.2,2.2c.1,1.2.9,1.2,12,2.1,24.6,2,29.9,2.4,29.9,13.8s-4.3,13.8-29.7,13.8-27-2.3-27-15.2h15.2c0,2.6,1.1,3.2,12.4,3.2s11.8,0,11.8-1.9-1.3-1.2-12.9-2.1c-18-1.5-27.2-2.4-27.2-13.8s7.6-14.5,27.2-14.5,28.6,3.2,28.6,16.1h.1Z"/>
  </g>
  <circle class="cls-1" cx="301.8" cy="132.5" r="6.9"/>
  <path class="cls-1" d="M152.4,60.8c4.7,0,8.5,3.8,8.5,8.5s-3.8,8.5-8.5,8.5h-79.7c-4.7,0-8.5-3.8-8.5-8.5s3.8-8.5,8.5-8.5h79.7M152.4,46.8h-79.7c-12.4,0-22.5,10.1-22.5,22.5h0c0,12.4,10.1,22.5,22.5,22.5h79.7c12.4,0,22.5-10.1,22.5-22.5h0c0-12.4-10.1-22.5-22.5-22.5h0Z"/>
</svg>